<?xml version="1.0" encoding="utf-8"?>
<!-- Generator: Adobe Illustrator 16.0.4, SVG Export Plug-In . SVG Version: 6.00 Build 0)  -->
<!DOCTYPE svg PUBLIC "-//W3C//DTD SVG 1.1//EN" "http://www.w3.org/Graphics/SVG/1.1/DTD/svg11.dtd">
<svg version="1.1" id="Calque_1" xmlns="http://www.w3.org/2000/svg" xmlns:xlink="http://www.w3.org/1999/xlink" x="0px" y="0px"
	 width="325px" height="225px" viewBox="0 0 325 225" enable-background="new 0 0 325 225" xml:space="preserve">
<g>
	<g>
		<ellipse fill="#050507" cx="141.541" cy="135.699" rx="12.54" ry="13.293"/>
		<ellipse fill="#E6E8E8" cx="141.421" cy="135.116" rx="10.514" ry="11.146"/>
		<g>
			<path fill="#FFFFFF" d="M143.313,144.281c-5.399,1.251-10.735-2.141-12.305-7.658c-0.744-5.706,2.771-11.146,8.171-12.396
				c5.396-1.25,10.73,2.141,12.301,7.656C152.223,137.591,148.711,143.032,143.313,144.281z"/>
		</g>
	</g>
	<g>
		<ellipse fill="#050507" cx="125.822" cy="151.142" rx="6.26" ry="6.635"/>
		<path fill="#E6E8E8" d="M125.149,146.312c2.478-0.574,4.927,1.092,5.469,3.719c0.54,2.628-1.032,5.226-3.507,5.798
			c-2.481,0.575-4.931-1.091-5.474-3.718C121.098,149.482,122.669,146.886,125.149,146.312z"/>
		<g>
			<path fill="#FFFFFF" d="M126.66,153.645c-2.269,0.525-4.507-0.998-5.002-3.401c-0.012-0.056-0.019-0.106-0.028-0.16
				c0.359-1.825,1.691-3.349,3.52-3.771c1.826-0.422,3.635,0.373,4.681,1.871c0.01,0.053,0.025,0.104,0.037,0.157
				C130.363,150.745,128.923,153.119,126.66,153.645z"/>
		</g>
	</g>
	<g>
		<path fill="#050507" d="M137.299,66.545c0.171-0.04,0.341-0.073,0.512-0.109c2.133-11.738,10.639-21.585,22.358-24.299
			c15.693-3.636,31.191,6.904,34.62,23.536c0.713,3.464,0.846,6.92,0.469,10.251c7.965,0.521,14.966,6.555,16.753,15.228
			c2.158,10.473-4.099,20.823-13.98,23.112c-3.097,0.717-6.181,0.557-9.021-0.324c-1.705,8.455-7.908,15.5-16.394,17.463
			c-9.892,2.291-19.68-3.057-23.888-12.32c-0.189,0.05-0.378,0.098-0.569,0.143c-13.721,3.178-27.274-6.039-30.273-20.584
			C114.885,84.092,123.578,69.725,137.299,66.545z"/>
		<path fill="#E6E8E8" d="M139.224,68.089c0.158-0.036,0.314-0.069,0.473-0.104c1.976-10.874,9.858-19.996,20.711-22.509
			c14.534-3.366,28.894,6.395,32.071,21.803c0.66,3.21,0.782,6.41,0.433,9.499c7.38,0.483,13.864,6.072,15.52,14.104
			c1.999,9.703-3.799,19.285-12.949,21.405c-2.871,0.665-5.728,0.518-8.361-0.297c-1.58,7.828-7.328,14.353-15.188,16.173
			c-9.161,2.122-18.228-2.834-22.127-11.413c-0.176,0.047-0.352,0.09-0.527,0.132c-12.712,2.945-25.266-5.591-28.045-19.068
			C118.459,84.34,126.511,71.033,139.224,68.089z"/>
		<path fill="#FFFFFF" d="M139.224,68.089c0.158-0.036,0.314-0.069,0.473-0.104c1.976-10.874,9.858-19.996,20.711-22.509
			c13.376-3.098,26.599,4.92,31.1,18.225c0.391,1.153,0.717,2.347,0.97,3.578c0.166,0.806,0.299,1.61,0.397,2.414
			c0.296,2.397,0.298,4.772,0.036,7.085c6.237,0.407,11.833,4.465,14.418,10.56c0.066,8.329-5.363,15.854-13.341,17.701
			c-2.87,0.665-5.729,0.518-8.36-0.299c-1.579,7.834-7.327,14.354-15.188,16.177c-9.16,2.122-18.228-2.833-22.126-11.414
			c-0.177,0.047-0.354,0.091-0.529,0.131c-11.548,2.677-22.967-4.128-27.042-15.503C119.975,81.994,127.676,70.764,139.224,68.089z"
			/>
	</g>
</g>
<g>
	<path fill="#C2D26A" d="M148.205,76.285c-0.639,1.562,0.205,7.327-0.652,7.453c-1.702,0.245-3.195,1.936-5.319-0.695
		c-1.064-1.319-1.916-4.139-1.483-7.143c1.502-4.637,3.629-4.948,5.971-3.818C147.356,73.462,147.568,74.9,148.205,76.285
		L148.205,76.285z M150.765,75.907c-0.208-1.439-0.421-2.881-0.421-2.881c-4.886-9.59-9.151-6.023-12.144,0.306
		c-0.212,1.5-0.438,5.952,0.414,8.77c4.03,9.713,7.231,7.772,10.218,4.392c0.639-1.566,1.283-3.13,1.926-4.698
		C150.969,80.295,150.551,77.412,150.765,75.907L150.765,75.907z"/>
	<path fill="#C2D26A" d="M151.602,64.431c-0.153,1.384,3.757,2.844,6.938,3.564c0.798,0.182,1.53,0.914,2.292,1.375
		c-0.037,0.273-0.832,0.097-0.863,0.372c-0.824,0.1-2.416-0.26-4.007-0.623c-4.007-0.625-3.406,1.219-5.125,1.966
		c-0.032,0.28-0.765-0.456-0.731-0.735c-0.511-2.675-1.775-5.81,0.896-7.761C150.938,63.14,152.465,64.054,151.602,64.431
		L151.602,64.431z"/>
	<path fill="#C2D26A" d="M155.238,74.048c2.761-0.294,1.85,1.773,3.275,2.683c1.203,0.476,2.974,0.137,4.743-0.203
		c6.094-1.402,10.686-5.835,9.96-9.241c0,0,0.563-0.818,1.345-1.204c0.991,0.046,2.193,0.526,2.412,0.957
		c3.485,3.113-5.638,8.172-10.523,10.057c-2.332,1.155-4.106,1.5-6.659,2.228c-2.545,0.72-4.534,0.629-5.946-0.28
		c-1.427-0.91-0.295-2.545,0.054-3.792C154.679,74.867,154.466,74.435,155.238,74.048L155.238,74.048z"/>
	<path fill="#C2D26A" d="M161.035,89.162c-1.294-1.274,0.134-1.67,0.004-2.767c-0.259-0.805-1.164-1.559-2.073-2.32
		c-3.238-2.496-7.382-2.983-8.812-1.205c0,0-0.645,0.052-1.164-0.182c-0.389-0.521-0.648-1.328-0.517-1.615
		c0.13-3.055,6.477-0.537,9.459,1.152c1.549,0.704,2.46,1.454,3.884,2.445c1.426,0.99,2.204,2.031,2.333,3.13
		c0.127,1.094-1.169,1.201-1.943,1.543C161.685,89.109,161.557,89.397,161.035,89.162L161.035,89.162z"/>
	<path fill="#C2D26A" d="M167.307,75.66c1.721-2.53,1.446,9.017,1.446,9.017c1.166,7.169,3.341,10.114,2.833,15.997
		c-0.422,0.155-0.848,0.312-0.848,0.312C167.059,92.84,164.311,78.661,167.307,75.66L167.307,75.66z"/>
	<path fill="#C2D26A" d="M159.598,89.874c-0.55,2.274-1.969,4.677-1.34,8.974c0.626,4.3,2.988,8.34,5.036,10.237
		c8.188,7.583,16.851,6.315,22.218-5.443c0,0,0.555-2.276,0.234-4.428C179.143,78.235,166.143,80.136,159.598,89.874z
		 M178.562,108.337c-2.824,2.312-7.822,0.939-10.74-0.83c-1.827-1.25-3.471-3.041-4.83-5.362c-1.176-2.021-2.246-5.014-1.143-9.561
		c3.941-9.358,14.385-7.923,19.149,3.897C182.995,102.378,181.148,106.189,178.562,108.337z"/>
</g>
</svg>
