<?xml version="1.0" encoding="utf-8"?>
<!-- Generator: Adobe Illustrator 16.0.4, SVG Export Plug-In . SVG Version: 6.00 Build 0)  -->
<!DOCTYPE svg PUBLIC "-//W3C//DTD SVG 1.1//EN" "http://www.w3.org/Graphics/SVG/1.1/DTD/svg11.dtd">
<svg version="1.1" xmlns="http://www.w3.org/2000/svg" xmlns:xlink="http://www.w3.org/1999/xlink" x="0px" y="0px" width="325px"
	 height="225px" viewBox="0 0 325 225" enable-background="new 0 0 325 225" xml:space="preserve">
<g id="Calque_2">
</g>
<g id="Calque_1">
	<g>
		<defs>
			<rect id="SVGID_1_" x="87.576" y="150.624" width="153.424" height="42.732"/>
		</defs>
		<clipPath id="SVGID_2_">
			<use xlink:href="#SVGID_1_"  overflow="visible"/>
		</clipPath>
		<path clip-path="url(#SVGID_2_)" fill="#FFFFFF" d="M239.843,189.938c0,0.35-0.267,0.479-1.435,0.479h-0.552l0.009-0.166
			c0.028-0.57,0.443-1.058,1.039-1.058C239.476,189.192,239.843,189.441,239.843,189.938 M241,190.084
			c0-1.188-0.955-1.922-1.984-1.922c-1.416,0-2.427,1.039-2.427,2.694c0,1.517,1.203,2.49,2.437,2.49
			c1.36,0,1.791-0.486,1.791-1.121v-0.386h-0.044c-0.396,0.368-1.003,0.47-1.518,0.47c-0.727,0-1.297-0.396-1.39-1.021h0.81
			C240.311,191.288,241,190.993,241,190.084 M235.301,186.675c0-0.331-0.21-0.469-0.515-0.469c-0.358,0-0.578,0.175-0.873,0.44
			c-0.265,0.239-0.485,0.541-0.687,0.854v0.046h0.411c0.331,0,0.754-0.092,1.058-0.219
			C235.072,187.171,235.301,186.941,235.301,186.675 M234.898,189.938c0,0.35-0.267,0.479-1.437,0.479h-0.551l0.01-0.166
			c0.026-0.57,0.44-1.058,1.04-1.058C234.531,189.192,234.898,189.441,234.898,189.938 M236.056,190.084
			c0-1.188-0.954-1.922-1.986-1.922c-1.414,0-2.424,1.039-2.424,2.694c0,1.517,1.201,2.49,2.435,2.49
			c1.36,0,1.791-0.486,1.791-1.121v-0.386h-0.046c-0.396,0.368-0.999,0.47-1.514,0.47c-0.728,0-1.298-0.396-1.391-1.021h0.81
			C235.366,191.288,236.056,190.993,236.056,190.084 M231.506,192.538v-0.266h-0.331c-0.579,0-0.837-0.157-0.837-0.654v-4.171
			c0-0.471-0.266-0.828-0.881-0.828h-0.35v5.12c0,1.001,0.552,1.544,1.57,1.544C231.222,193.283,231.506,193.07,231.506,192.538
			 M228.692,192.538v-0.266h-0.331c-0.578,0-0.835-0.157-0.835-0.654v-4.171c0-0.471-0.267-0.828-0.882-0.828h-0.349v5.12
			c0,1.001,0.549,1.544,1.569,1.544C228.408,193.283,228.692,193.07,228.692,192.538 M224.255,191.555
			c0,0.505-0.259,0.764-0.792,0.764c-0.542,0-0.854-0.229-0.854-0.616c0-0.404,0.265-0.626,1.204-0.626h0.441V191.555z
			 M225.457,191.545v-1.139c0-1.709-0.991-2.224-2.094-2.224c-1.306,0-1.802,0.66-1.802,1.212v0.396h0.045
			c0.185-0.23,0.681-0.57,1.573-0.57c0.734,0,1.066,0.212,1.066,0.91v0.064h-0.433c-1.821,0-2.464,0.671-2.464,1.554
			c0,0.91,0.809,1.571,1.986,1.571h0.248C224.686,193.319,225.457,192.594,225.457,191.545 M220.411,190.332
			c0.415-1.001,0.865-2.499,0.865-2.851c0-0.348-0.239-0.54-0.542-0.54h-0.699c-0.238,1.59-0.735,3.133-1.407,4.585
			c-0.744-1.581-1.066-2.739-1.269-3.896c-0.062-0.378-0.33-0.689-0.799-0.689h-0.725c0.283,2.004,1.11,4.217,2.104,5.836
			c0.221,0.358,0.532,0.506,0.912,0.506h0.107C219.594,192.28,220.035,191.251,220.411,190.332 M215.578,189.985h-2.144
			c-0.357,0-0.57,0.218-0.57,0.521v0.468h2.115c0.379,0,0.599-0.183,0.599-0.505V189.985z M211.119,191.555
			c0,0.505-0.257,0.764-0.79,0.764c-0.542,0-0.857-0.229-0.857-0.616c0-0.404,0.269-0.626,1.207-0.626h0.44V191.555z
			 M212.324,191.545v-1.139c0-1.709-0.992-2.224-2.096-2.224c-1.305,0-1.803,0.66-1.803,1.212v0.396h0.046
			c0.184-0.23,0.681-0.57,1.571-0.57c0.737,0,1.068,0.212,1.068,0.91v0.064h-0.433c-1.822,0-2.464,0.671-2.464,1.554
			c0,0.91,0.809,1.571,1.984,1.571h0.249C211.552,193.319,212.324,192.594,212.324,191.545 M208.066,192.538v-0.266h-0.33
			c-0.579,0-0.837-0.157-0.837-0.654v-4.171c0-0.471-0.265-0.828-0.881-0.828h-0.35v5.12c0,1.001,0.552,1.544,1.571,1.544
			C207.783,193.283,208.066,193.07,208.066,192.538 M204.852,189.985h-2.143c-0.357,0-0.57,0.218-0.57,0.521v0.468h2.114
			c0.378,0,0.599-0.183,0.599-0.505V189.985z M200.468,189.938c0,0.35-0.268,0.479-1.437,0.479h-0.551l0.009-0.166
			c0.027-0.57,0.442-1.058,1.039-1.058C200.099,189.192,200.468,189.441,200.468,189.938 M201.624,190.084
			c0-1.188-0.955-1.922-1.986-1.922c-1.414,0-2.424,1.039-2.424,2.694c0,1.517,1.203,2.49,2.435,2.49
			c1.36,0,1.793-0.486,1.793-1.121v-0.386h-0.046c-0.396,0.368-1.002,0.47-1.518,0.47c-0.727,0-1.296-0.396-1.389-1.021h0.81
			C200.936,191.288,201.624,190.993,201.624,190.084 M196.432,193.236v-2.886c0-1.407-0.964-2.188-2.133-2.188
			c-1.544,0-2.233,1.076-2.233,2.124v2.141c0,0.461,0.341,0.81,0.864,0.81h0.366v-2.868c0-0.707,0.367-1.111,0.902-1.111
			c0.635,0,1.002,0.367,1.002,1.203v1.967c0,0.461,0.348,0.81,0.899,0.81H196.432z M191.559,189.479v-0.442
			c0-0.376-0.266-0.809-1.029-0.809c-1.305,0-1.827,0.945-1.827,1.938v2.279c0,0.515,0.348,0.791,0.899,0.791h0.339v-2.849
			c0-0.755,0.303-1.058,0.857-1.058c0.319,0,0.532,0.072,0.714,0.148H191.559z M186.706,191.555c0,0.505-0.255,0.764-0.79,0.764
			c-0.542,0-0.855-0.229-0.855-0.616c0-0.404,0.267-0.626,1.204-0.626h0.441V191.555z M187.91,191.545v-1.139
			c0-1.709-0.991-2.224-2.096-2.224c-1.306,0-1.802,0.66-1.802,1.212v0.396h0.049c0.183-0.23,0.679-0.57,1.569-0.57
			c0.736,0,1.067,0.212,1.067,0.91v0.064h-0.434c-1.818,0-2.462,0.671-2.462,1.554c0,0.91,0.807,1.571,1.984,1.571h0.25
			C187.139,193.319,187.91,192.594,187.91,191.545 M183.111,193.236c0-1.259-0.183-3.998-0.302-4.99
			c-0.102-0.863-0.561-1.305-1.26-1.305h-0.146c-0.258,0.211-0.663,0.846-0.983,1.846l-0.728,2.234
			c-0.063,0.212-0.128,0.405-0.173,0.644c-0.056-0.285-0.166-0.662-0.359-1.195l-0.873-2.463c-0.239-0.67-0.854-1.065-1.729-1.065
			h-0.267c-0.229,1.25-0.505,4.052-0.505,5.459c0,0.534,0.322,0.836,0.79,0.836h0.442c0-1.148,0.109-3.677,0.275-4.576
			c0.091,0.22,0.238,0.598,0.349,0.917l0.9,2.657c0.23,0.68,0.597,1.002,1.012,1.002h0.34c0.175-0.248,0.367-0.671,0.515-1.122
			l0.882-2.701c0.093-0.285,0.213-0.542,0.294-0.745c0.102,0.626,0.24,2.932,0.24,3.732c0,0.569,0.33,0.836,0.808,0.836H183.111z
			 M172.147,189.938c0,0.35-0.267,0.479-1.436,0.479h-0.551l0.01-0.166c0.026-0.57,0.44-1.058,1.039-1.058
			C171.78,189.192,172.147,189.441,172.147,189.938 M173.306,190.084c0-1.188-0.955-1.922-1.986-1.922
			c-1.415,0-2.424,1.039-2.424,2.694c0,1.517,1.201,2.49,2.435,2.49c1.36,0,1.791-0.486,1.791-1.121v-0.386h-0.046
			c-0.396,0.368-1,0.47-1.518,0.47c-0.727,0-1.297-0.396-1.387-1.021h0.81C172.616,191.288,173.306,190.993,173.306,190.084
			 M166.871,190.894c0,0.901-0.302,1.416-0.993,1.416c-0.707,0-1.241-0.672-1.241-1.702c0-0.8,0.404-1.406,1.03-1.406
			C166.329,189.201,166.871,189.651,166.871,190.894 M168.112,190.949v-3.493c0-0.496-0.258-0.837-0.846-0.837h-0.377v2.324
			c-0.193-0.433-0.736-0.781-1.232-0.781c-1.443,0-2.233,1.058-2.233,2.686c0,1.36,1.003,2.499,2.307,2.499
			C167.432,193.347,168.112,192.392,168.112,190.949 M158.938,190.709h-1.663c0.369-0.672,1.232-1.92,1.663-2.491V190.709z
			 M161.153,191.205v-0.496h-0.992v-2.886c0-0.588-0.313-0.882-0.753-0.882h-0.459c-0.874,0.706-2.235,2.757-2.666,3.547
			c-0.083,0.156-0.167,0.34-0.167,0.689c0,0.286,0.276,0.569,0.689,0.569h2.132v0.68c0,0.533,0.304,0.81,0.735,0.81h0.488v-1.489
			h0.47C160.978,191.747,161.153,191.526,161.153,191.205 M151.622,192.014c-0.21,0.222-0.588,0.361-0.91,0.361
			c-0.689,0-1.084-0.269-1.084-0.985c0-0.405,0.312-0.736,0.625-0.92C150.537,190.875,151.273,191.674,151.622,192.014
			 M151.439,188.403c0,0.357-0.258,0.623-0.801,0.936c-0.185-0.267-0.424-0.523-0.424-0.864c0-0.432,0.222-0.662,0.636-0.662
			C151.219,187.812,151.439,188.015,151.439,188.403 M154.123,192.658c-0.312-0.019-0.579-0.11-0.993-0.506l-0.184-0.175
			c0.312-0.423,0.744-1.121,0.744-1.636c0-0.469-0.239-0.645-0.515-0.645h-0.247c-0.019,0.58-0.323,1.252-0.645,1.609
			c-0.339-0.332-0.862-0.946-1.129-1.288c0.799-0.449,1.332-1.02,1.332-1.645c0-0.901-0.642-1.451-1.581-1.451
			c-1.194,0-1.819,0.789-1.819,1.616c0,0.423,0.285,0.865,0.587,1.214c-0.615,0.35-1.222,1.002-1.222,1.766
			c0,1.047,0.717,1.828,2.105,1.828c0.946,0,1.451-0.387,1.709-0.67l0.322,0.312c0.322,0.312,0.652,0.368,0.928,0.368
			C153.947,193.356,154.123,193.117,154.123,192.658 M145.822,191.371c0-0.625-0.615-1.203-1.167-1.323
			c0.643-0.14,1.13-0.56,1.13-1.463c0-1.057-0.882-1.754-2.252-1.754c-1.285,0-1.949,0.697-1.949,1.212v0.533h0.047
			c0.332-0.433,0.983-0.672,1.683-0.672c0.844,0,1.23,0.342,1.23,0.903c0,0.45-0.304,0.789-1.23,0.825
			c-0.269,0.01-0.507,0.021-0.681,0.037v0.414c0,0.313,0.211,0.468,0.762,0.478c0.781,0.019,1.186,0.239,1.186,0.847
			c0,0.479-0.341,0.854-1.167,0.854c-0.846,0-1.443-0.267-1.83-0.681h-0.046v0.497c0,0.855,0.819,1.268,1.812,1.268
			C144.995,193.347,145.822,192.557,145.822,191.371 M138.983,191.674c0-0.79-0.55-1.24-1.58-1.405
			c-0.846-0.14-0.993-0.24-0.993-0.488c0-0.322,0.239-0.552,0.993-0.552c0.589,0,1.158,0.203,1.415,0.459h0.045v-0.468
			c0-0.478-0.458-1.058-1.581-1.058c-1.268,0-2.104,0.79-2.104,1.721c0,0.753,0.504,1.165,1.553,1.313
			c0.855,0.12,1.03,0.256,1.03,0.543c0,0.367-0.294,0.542-0.902,0.542c-0.589,0-1.222-0.222-1.488-0.469h-0.046v0.561
			c0,0.506,0.679,0.974,1.589,0.974C138.25,193.347,138.983,192.722,138.983,191.674 M134.912,189.479v-0.442
			c0-0.376-0.267-0.809-1.03-0.809c-1.304,0-1.827,0.945-1.827,1.938v2.279c0,0.515,0.348,0.791,0.899,0.791h0.339v-2.849
			c0-0.755,0.304-1.058,0.856-1.058c0.322,0,0.532,0.072,0.717,0.148H134.912z M131.042,191.015v-1.859
			c0-0.578-0.302-0.881-1.019-0.881h-0.22v2.785c0,0.845-0.359,1.195-0.865,1.195c-0.561,0-1.002-0.368-1.002-1.279v-1.82
			c0-0.578-0.312-0.881-1.02-0.881h-0.229v2.821c0,1.442,0.964,2.251,2.188,2.251C130.317,193.347,131.042,192.557,131.042,191.015
			 M124.766,189.938c0,0.35-0.268,0.479-1.436,0.479h-0.551l0.009-0.166c0.027-0.57,0.441-1.058,1.039-1.058
			C124.397,189.192,124.766,189.441,124.766,189.938 M125.923,190.084c0-1.188-0.955-1.922-1.985-1.922
			c-1.415,0-2.425,1.039-2.425,2.694c0,1.517,1.203,2.49,2.435,2.49c1.361,0,1.792-0.486,1.792-1.121v-0.386h-0.046
			c-0.395,0.368-1.001,0.47-1.517,0.47c-0.727,0-1.297-0.396-1.388-1.021h0.809C125.234,191.288,125.923,190.993,125.923,190.084
			 M118.249,188.475v2.978c0,1.159,0.605,1.84,1.854,1.84c0.717,0,1.085-0.322,1.085-0.828v-0.44h-0.046
			c-0.193,0.12-0.496,0.176-0.893,0.176c-0.495,0-0.78-0.25-0.78-0.893v-1.939h0.983c0.506,0,0.736-0.331,0.736-0.588v-0.505h-1.719
			v-1.122h-0.285c-0.193,0-0.413,0.147-0.579,0.339C118.34,187.805,118.249,187.988,118.249,188.475 M117.494,189.873v-0.58
			c0-0.588-0.561-1.065-1.352-1.065c-1.691,0-2.674,1.212-2.674,2.629c0,1.416,1.176,2.473,2.536,2.473
			c0.892,0,1.47-0.432,1.47-1.03v-0.569h-0.045c-0.174,0.229-0.596,0.459-1.306,0.459c-0.836,0-1.369-0.615-1.369-1.516
			c0-0.735,0.634-1.315,1.351-1.315c0.708,0,1.175,0.23,1.342,0.516H117.494z M111.778,189.938c0,0.35-0.268,0.479-1.436,0.479
			h-0.55l0.007-0.166c0.029-0.57,0.443-1.058,1.041-1.058C111.41,189.192,111.778,189.441,111.778,189.938 M112.935,190.084
			c0-1.188-0.956-1.922-1.985-1.922c-1.417,0-2.427,1.039-2.427,2.694c0,1.517,1.203,2.49,2.436,2.49
			c1.361,0,1.791-0.486,1.791-1.121v-0.386h-0.045c-0.395,0.368-1.002,0.47-1.517,0.47c-0.727,0-1.297-0.396-1.389-1.021h0.81
			C112.245,191.288,112.935,190.993,112.935,190.084 M107.98,191.674c0-0.79-0.551-1.24-1.58-1.405
			c-0.847-0.14-0.994-0.24-0.994-0.488c0-0.322,0.239-0.552,0.994-0.552c0.588,0,1.158,0.203,1.416,0.459h0.044v-0.468
			c0-0.478-0.458-1.058-1.579-1.058c-1.27,0-2.105,0.79-2.105,1.721c0,0.753,0.505,1.165,1.553,1.313
			c0.855,0.12,1.03,0.256,1.03,0.543c0,0.367-0.294,0.542-0.901,0.542c-0.588,0-1.223-0.222-1.489-0.469h-0.046v0.561
			c0,0.506,0.68,0.974,1.59,0.974C107.246,193.347,107.98,192.722,107.98,191.674 M101.785,191.674c0-0.79-0.55-1.24-1.58-1.405
			c-0.848-0.14-0.994-0.24-0.994-0.488c0-0.322,0.238-0.552,0.994-0.552c0.588,0,1.157,0.203,1.416,0.459h0.044v-0.468
			c0-0.478-0.459-1.058-1.579-1.058c-1.27,0-2.105,0.79-2.105,1.721c0,0.753,0.505,1.165,1.552,1.313
			c0.856,0.12,1.031,0.256,1.031,0.543c0,0.367-0.294,0.542-0.901,0.542c-0.588,0-1.223-0.222-1.489-0.469h-0.046v0.561
			c0,0.506,0.68,0.974,1.59,0.974C101.05,193.347,101.785,192.722,101.785,191.674 M96.299,189.938c0,0.35-0.267,0.479-1.434,0.479
			h-0.553l0.01-0.166c0.027-0.57,0.441-1.058,1.039-1.058C95.931,189.192,96.299,189.441,96.299,189.938 M97.456,190.084
			c0-1.188-0.955-1.922-1.985-1.922c-1.416,0-2.426,1.039-2.426,2.694c0,1.517,1.203,2.49,2.435,2.49
			c1.361,0,1.792-0.486,1.792-1.121v-0.386h-0.046c-0.395,0.368-1.001,0.47-1.516,0.47c-0.727,0-1.297-0.396-1.389-1.021h0.809
			C96.767,191.288,97.456,190.993,97.456,190.084 M91.023,190.894c0,0.901-0.302,1.416-0.993,1.416
			c-0.709,0-1.243-0.672-1.243-1.702c0-0.8,0.405-1.406,1.031-1.406C90.479,189.201,91.023,189.651,91.023,190.894 M92.263,190.949
			v-3.493c0-0.496-0.257-0.837-0.844-0.837h-0.376v2.324c-0.194-0.433-0.736-0.781-1.233-0.781c-1.444,0-2.232,1.058-2.232,2.686
			c0,1.36,1.001,2.499,2.306,2.499C91.584,193.347,92.263,192.392,92.263,190.949"/>
		<path clip-path="url(#SVGID_2_)" fill="#FFFFFF" d="M211.192,181.409c0-0.791-0.551-1.242-1.58-1.407
			c-0.846-0.139-0.994-0.24-0.994-0.489c0-0.321,0.24-0.552,0.994-0.552c0.587,0,1.158,0.203,1.414,0.461h0.047v-0.469
			c0-0.477-0.459-1.055-1.581-1.055c-1.268,0-2.104,0.787-2.104,1.717c0,0.754,0.506,1.169,1.555,1.314
			c0.854,0.119,1.028,0.259,1.028,0.544c0,0.367-0.294,0.54-0.901,0.54c-0.589,0-1.223-0.22-1.488-0.468h-0.048v0.562
			c0,0.505,0.682,0.973,1.592,0.973C210.457,183.08,211.192,182.456,211.192,181.409 M204.133,178.21v2.979
			c0,1.157,0.606,1.836,1.856,1.836c0.718,0,1.085-0.321,1.085-0.826v-0.439h-0.047c-0.193,0.119-0.495,0.174-0.891,0.174
			c-0.497,0-0.78-0.25-0.78-0.894v-1.938h0.983c0.505,0,0.734-0.331,0.734-0.589v-0.504h-1.718v-1.121h-0.286
			c-0.191,0-0.412,0.147-0.578,0.34C204.227,177.539,204.133,177.722,204.133,178.21 M203.581,179.211v-0.441
			c0-0.376-0.266-0.808-1.028-0.808c-1.305,0-1.829,0.945-1.829,1.939v2.277c0,0.515,0.349,0.79,0.9,0.79h0.34v-2.849
			c0-0.754,0.303-1.057,0.854-1.057c0.321,0,0.533,0.073,0.717,0.147H203.581z M198.665,180.581c0,0.809-0.348,1.398-1.067,1.398
			c-0.816,0-1.178-0.59-1.178-1.573c0-0.819,0.361-1.408,1.067-1.408C198.299,178.998,198.665,179.587,198.665,180.581
			 M195.145,180.581c0,1.314,0.854,2.499,2.343,2.499c1.601,0,2.456-1.185,2.456-2.674c0-1.314-0.855-2.508-2.346-2.508
			C195.998,177.898,195.145,179.092,195.145,180.581 M193.325,180.663c0,0.791-0.413,1.325-1.013,1.325
			c-0.735,0-1.222-0.561-1.222-1.555c0-0.855,0.375-1.444,1.057-1.444C192.938,178.989,193.325,179.497,193.325,180.663
			 M194.593,180.343c0-1.251-0.937-2.444-2.251-2.444c-1.748,0-2.482,1.137-2.482,2.783v2.997c0,0.532,0.424,0.854,0.864,0.854
			h0.384v-2.187c0.25,0.423,0.701,0.734,1.253,0.734C193.803,183.08,194.593,181.933,194.593,180.343 M189.087,181.409
			c0-0.791-0.552-1.242-1.581-1.407c-0.846-0.139-0.993-0.24-0.993-0.489c0-0.321,0.24-0.552,0.993-0.552
			c0.589,0,1.158,0.203,1.414,0.461h0.047v-0.469c0-0.477-0.459-1.055-1.58-1.055c-1.27,0-2.104,0.787-2.104,1.717
			c0,0.754,0.504,1.169,1.552,1.314c0.855,0.119,1.03,0.259,1.03,0.544c0,0.367-0.295,0.54-0.902,0.54
			c-0.59,0-1.221-0.22-1.489-0.468h-0.044v0.562c0,0.505,0.679,0.973,1.588,0.973C188.353,183.08,189.087,182.456,189.087,181.409
			 M184.509,182.969v-2.886c0-1.405-0.966-2.185-2.132-2.185c-1.544,0-2.233,1.072-2.233,2.121v2.142
			c0,0.459,0.339,0.808,0.865,0.808h0.365v-2.868c0-0.706,0.369-1.111,0.902-1.111c0.634,0,1.002,0.368,1.002,1.204v1.968
			c0,0.459,0.349,0.808,0.9,0.808H184.509z M178.148,181.288c0,0.506-0.257,0.763-0.79,0.763c-0.543,0-0.855-0.229-0.855-0.615
			c0-0.405,0.267-0.625,1.205-0.625h0.44V181.288z M179.354,181.278v-1.14c0-1.708-0.992-2.223-2.096-2.223
			c-1.305,0-1.801,0.661-1.801,1.211v0.397h0.044c0.184-0.231,0.68-0.571,1.572-0.571c0.736,0,1.066,0.211,1.066,0.91v0.065h-0.432
			c-1.818,0-2.464,0.669-2.464,1.552c0,0.911,0.808,1.572,1.985,1.572h0.249C178.581,183.053,179.354,182.327,179.354,181.278
			 M174.96,179.211v-0.441c0-0.376-0.269-0.808-1.03-0.808c-1.306,0-1.828,0.945-1.828,1.939v2.277c0,0.515,0.347,0.79,0.898,0.79
			h0.341v-2.849c0-0.754,0.305-1.057,0.856-1.057c0.32,0,0.533,0.073,0.716,0.147H174.96z M172.173,177.069v-0.395h-4.226
			c-0.515,0-0.763,0.386-0.763,0.689v0.412h1.812v4.348c0,0.561,0.32,0.845,0.761,0.845h0.506v-5.192h1.158
			C171.834,177.776,172.173,177.372,172.173,177.069 M163.959,179.671c0,0.349-0.268,0.478-1.436,0.478h-0.551l0.008-0.165
			c0.028-0.57,0.443-1.057,1.04-1.057C163.59,178.927,163.959,179.174,163.959,179.671 M165.115,179.817
			c0-1.187-0.955-1.919-1.985-1.919c-1.414,0-2.425,1.037-2.425,2.691c0,1.518,1.203,2.49,2.435,2.49
			c1.361,0,1.793-0.487,1.793-1.119v-0.389h-0.046c-0.396,0.369-1.002,0.472-1.518,0.472c-0.727,0-1.296-0.397-1.389-1.023h0.811
			C164.427,181.021,165.115,180.729,165.115,179.817 M158.683,180.627c0,0.901-0.304,1.417-0.993,1.417
			c-0.708,0-1.241-0.673-1.241-1.701c0-0.8,0.404-1.407,1.03-1.407C158.14,178.936,158.683,179.387,158.683,180.627
			 M159.923,180.682v-3.492c0-0.497-0.257-0.836-0.845-0.836H158.7v2.324c-0.192-0.431-0.734-0.779-1.23-0.779
			c-1.444,0-2.234,1.055-2.234,2.683c0,1.36,1.002,2.499,2.307,2.499C159.242,183.08,159.923,182.124,159.923,180.682
			 M150.116,178.21v2.979c0,1.157,0.607,1.836,1.855,1.836c0.718,0,1.085-0.321,1.085-0.826v-0.439h-0.046
			c-0.193,0.119-0.497,0.174-0.892,0.174c-0.496,0-0.781-0.25-0.781-0.894v-1.938h0.983c0.505,0,0.736-0.331,0.736-0.589v-0.504
			h-1.719v-1.121h-0.285c-0.193,0-0.413,0.147-0.578,0.34C150.208,177.539,150.116,177.722,150.116,178.21 M148.075,181.288
			c0,0.506-0.258,0.763-0.792,0.763c-0.542,0-0.855-0.229-0.855-0.615c0-0.405,0.268-0.625,1.206-0.625h0.441V181.288z
			 M149.279,181.278v-1.14c0-1.708-0.993-2.223-2.095-2.223c-1.305,0-1.802,0.661-1.802,1.211v0.397h0.046
			c0.183-0.231,0.68-0.571,1.571-0.571c0.736,0,1.067,0.211,1.067,0.91v0.065h-0.432c-1.821,0-2.463,0.669-2.463,1.552
			c0,0.911,0.808,1.572,1.984,1.572h0.249C148.508,183.053,149.279,182.327,149.279,181.278 M144.683,179.606v-0.58
			c0-0.587-0.561-1.064-1.352-1.064c-1.691,0-2.674,1.212-2.674,2.628s1.176,2.472,2.537,2.472c0.891,0,1.471-0.432,1.471-1.026
			v-0.57h-0.046c-0.175,0.229-0.598,0.46-1.305,0.46c-0.836,0-1.37-0.617-1.37-1.519c0-0.735,0.634-1.314,1.351-1.314
			c0.708,0,1.178,0.229,1.342,0.515H144.683z M140.382,182.273v-0.268h-0.231c-0.542,0-0.753-0.157-0.753-0.651v-2.316
			c0-0.625-0.33-0.921-0.881-0.921h-0.35v3.356c0,0.999,0.524,1.542,1.479,1.542C140.169,183.016,140.382,182.805,140.382,182.273
			 M139.499,176.932c0-0.395-0.331-0.717-0.727-0.717c-0.394,0-0.716,0.322-0.716,0.717c0,0.396,0.322,0.725,0.716,0.725
			C139.168,177.656,139.499,177.327,139.499,176.932 M135.759,180.627c0,0.901-0.304,1.417-0.994,1.417
			c-0.708,0-1.241-0.673-1.241-1.701c0-0.8,0.405-1.407,1.031-1.407C135.216,178.936,135.759,179.387,135.759,180.627
			 M136.999,180.682v-3.492c0-0.497-0.258-0.836-0.845-0.836h-0.377v2.324c-0.193-0.431-0.735-0.779-1.232-0.779
			c-1.443,0-2.232,1.055-2.232,2.683c0,1.36,1,2.499,2.306,2.499C136.318,183.08,136.999,182.124,136.999,180.682 M131.529,182.969
			v-2.886c0-1.405-0.963-2.185-2.132-2.185c-1.543,0-2.232,1.072-2.232,2.121v2.142c0,0.459,0.34,0.808,0.864,0.808h0.367v-2.868
			c0-0.706,0.368-1.111,0.902-1.111c0.634,0,1.002,0.368,1.002,1.204v1.968c0,0.459,0.348,0.808,0.9,0.808H131.529z
			 M125.519,181.904c0.229-0.533,1.094-2.794,1.094-3.318c0-0.403-0.185-0.578-0.58-0.578h-0.532
			c-0.111,1.012-0.561,2.51-0.966,3.438c-0.451-0.873-0.819-1.903-0.993-2.86c-0.065-0.349-0.377-0.578-0.717-0.578h-0.653
			c0.166,1.167,1.103,3.631,1.756,4.613c-0.266,0.698-0.422,0.885-0.874,0.91l-0.698,0.046v0.239c0,0.459,0.404,0.763,0.864,0.763
			C124.111,184.579,124.599,184.073,125.519,181.904 M121.85,181.023c0-0.847-0.56-1.445-1.708-1.684
			c-1.177-0.248-1.472-0.478-1.472-0.856c0-0.487,0.359-0.807,1.333-0.807c0.69,0,1.249,0.2,1.635,0.614h0.038v-0.578
			c0-0.524-0.423-1.149-1.893-1.149c-1.482,0-2.363,0.992-2.363,2.04c0,0.855,0.607,1.391,1.673,1.619
			c1.333,0.286,1.5,0.478,1.5,0.91c0,0.506-0.304,0.828-1.252,0.828c-0.763,0-1.332-0.305-1.754-0.681h-0.027v0.561
			c0,0.742,0.652,1.239,1.92,1.239C121.006,183.08,121.85,182.264,121.85,181.023"/>
		<path clip-path="url(#SVGID_2_)" fill="#FFFFFF" d="M225.041,155.103c0.874,0,1.498,0.607,1.498,1.853
			c0,1.276-0.712,2.018-1.707,2.018c-0.95,0-1.586-0.77-1.586-1.81C223.246,155.961,224.017,155.103,225.041,155.103
			 M228.524,158.203v-1.365c0-2.048-1.273-3.5-3.26-3.5c-2.582,0-4.063,1.822-4.063,4.078c0,1.884,1.378,3.232,3.32,3.232
			c1.143,0,1.898-0.609,2.062-1.187v0.193l0.031,0.815c0.044,1.155-0.654,1.839-2.093,1.839c-1.144,0-2.062-0.355-2.536-0.861
			h-0.089v0.906c0,0.948,1.126,1.748,2.773,1.748c2.581,0,3.915-1.793,3.915-3.796c0-0.268-0.017-0.696-0.03-1.022
			C228.539,158.929,228.524,158.469,228.524,158.203 M220.709,155.457v-0.71c0-0.607-0.429-1.305-1.66-1.305
			c-2.105,0-2.948,1.526-2.948,3.127v3.678c0,0.831,0.562,1.274,1.45,1.274h0.55v-4.597c0-1.216,0.488-1.705,1.379-1.705
			c0.517,0,0.859,0.118,1.156,0.237H220.709z M212.778,157.667c0,1.306-0.563,2.255-1.723,2.255c-1.319,0-1.897-0.949-1.897-2.537
			c0-1.319,0.578-2.269,1.72-2.269C212.186,155.116,212.778,156.065,212.778,157.667 M207.099,157.667
			c0,2.123,1.378,4.033,3.779,4.033c2.582,0,3.96-1.91,3.96-4.315c0-2.12-1.378-4.047-3.782-4.047
			C208.477,153.338,207.099,155.265,207.099,157.667 M206.014,160.248c0-0.695-0.578-1.275-1.274-1.275s-1.274,0.58-1.274,1.275
			s0.578,1.273,1.274,1.273S206.014,160.943,206.014,160.248 M199.001,157.445h-2.682c0.592-1.082,1.986-3.098,2.682-4.018V157.445z
			 M202.573,158.245v-0.8h-1.602v-4.657c0-0.947-0.504-1.422-1.213-1.422h-0.741c-1.409,1.143-3.604,4.449-4.303,5.724
			c-0.133,0.253-0.265,0.549-0.265,1.113c0,0.458,0.443,0.917,1.111,0.917h3.439v1.097c0,0.861,0.489,1.305,1.187,1.305h0.784
			v-2.401h0.756C202.292,159.12,202.573,158.765,202.573,158.245 M193.497,158.513c0-1.009-0.992-1.943-1.88-2.136
			c1.037-0.221,1.822-0.904,1.822-2.357c0-1.705-1.423-2.831-3.632-2.831c-2.075,0-3.142,1.126-3.142,1.954v0.862h0.07
			c0.535-0.698,1.59-1.084,2.716-1.084c1.364,0,1.988,0.55,1.988,1.454c0,0.729-0.49,1.277-1.988,1.337
			c-0.431,0.015-0.816,0.029-1.098,0.059v0.667c0,0.503,0.343,0.755,1.23,0.769c1.261,0.03,1.914,0.386,1.914,1.366
			c0,0.772-0.549,1.381-1.884,1.381c-1.364,0-2.329-0.431-2.949-1.1h-0.076v0.802c0,1.379,1.32,2.045,2.922,2.045
			C192.166,161.7,193.497,160.426,193.497,158.513 M185.819,154.466c0-0.653-0.254-0.949-0.936-0.949h-0.846
			c-0.295,2-0.993,4.122-1.749,5.618c-0.846-1.646-1.247-3.187-1.528-4.669c-0.074-0.43-0.504-0.949-1.187-0.949h-1.067
			c0.178,2.163,1.544,5.648,2.626,7.294c0.4,0.593,0.711,0.801,1.305,0.801h0.385c0.891-1.217,1.779-3.144,2.312-4.612
			C185.626,155.667,185.819,154.703,185.819,154.466 M178.743,160.396v-0.428h-0.533c-0.934,0-1.35-0.254-1.35-1.054v-6.732
			c0-0.756-0.43-1.334-1.422-1.334h-0.563v8.259c0,1.616,0.89,2.49,2.534,2.49C178.284,161.597,178.743,161.257,178.743,160.396
			 M173.168,161.521v-4.805c0-2.268-1.482-3.379-3.32-3.379c-0.964,0-1.839,0.504-2.3,1.245c-0.575-0.771-1.391-1.245-2.43-1.245
			c-2.417,0-3.559,1.452-3.559,3.633v3.099c0,0.919,0.623,1.452,1.437,1.452h0.533v-4.715c0-1.098,0.58-1.704,1.351-1.704
			c0.877,0,1.485,0.563,1.485,1.881v3.086c0,0.948,0.576,1.452,1.45,1.452h0.533v-4.759c0-1.097,0.549-1.66,1.351-1.66
			c0.876,0,1.469,0.563,1.469,1.881v3.086c0,0.948,0.431,1.452,1.512,1.452H173.168z M160.299,156.275h-3.456
			c-0.58,0-0.92,0.354-0.92,0.844v0.756h3.411c0.609,0,0.965-0.296,0.965-0.814V156.275z M150.689,153.843v4.804
			c0,1.869,0.978,2.965,2.994,2.965c1.156,0,1.75-0.519,1.75-1.334v-0.711h-0.074c-0.312,0.193-0.801,0.281-1.439,0.281
			c-0.8,0-1.26-0.399-1.26-1.438v-3.13h1.587c0.815,0,1.186-0.532,1.186-0.948v-0.814h-2.773v-1.81h-0.459
			c-0.311,0-0.667,0.237-0.933,0.549C150.837,152.762,150.689,153.057,150.689,153.843 M149.798,160.396v-0.428h-0.371
			c-0.875,0-1.217-0.254-1.217-1.054v-3.736c0-1.01-0.532-1.483-1.422-1.483h-0.564v5.412c0,1.616,0.845,2.49,2.387,2.49
			C149.458,161.597,149.798,161.257,149.798,160.396 M148.374,151.78c0-0.637-0.532-1.156-1.17-1.156
			c-0.637,0-1.156,0.52-1.156,1.156s0.52,1.171,1.156,1.171C147.842,152.951,148.374,152.417,148.374,151.78 M144.726,159.003
			c0-1.276-0.888-2.004-2.548-2.27c-1.366-0.223-1.603-0.387-1.603-0.786c0-0.52,0.386-0.891,1.603-0.891
			c0.949,0,1.867,0.327,2.282,0.741h0.074v-0.756c0-0.771-0.74-1.704-2.548-1.704c-2.048,0-3.396,1.274-3.396,2.771
			c0,1.217,0.814,1.885,2.504,2.122c1.381,0.193,1.662,0.415,1.662,0.875c0,0.593-0.475,0.876-1.454,0.876
			c-0.949,0-1.971-0.356-2.4-0.756h-0.075v0.903c0,0.814,1.097,1.57,2.565,1.57C143.542,161.7,144.726,160.693,144.726,159.003
			 M137.52,160.248c0-0.695-0.579-1.275-1.274-1.275c-0.697,0-1.275,0.58-1.275,1.275s0.579,1.273,1.275,1.273
			C136.941,161.521,137.52,160.943,137.52,160.248 M134.229,154.331c0-0.607-0.4-0.859-0.964-0.859h-0.831
			c-0.312,1.81-0.742,3.661-1.498,5.336c-0.564-1.125-1.053-2.785-1.291-3.868c-0.192-0.874-0.8-1.127-1.408-1.127h-0.653
			c-0.386,1.689-0.785,3.41-1.512,4.995c-0.667-1.451-1.039-2.963-1.276-4.328c-0.074-0.443-0.475-0.963-1.156-0.963h-1.069
			c0.356,2.669,1.127,4.981,2.284,7.026c0.269,0.475,0.832,1.068,1.423,1.068h0.268c0.711-0.963,1.646-3.439,1.898-4.656
			c0.223,1.217,0.83,2.697,1.32,3.588c0.266,0.491,0.741,1.068,1.363,1.068h0.327c0.52-0.771,1.261-2.24,1.853-3.929
			C133.902,156.022,134.229,154.644,134.229,154.331 M122.514,154.331c0-0.607-0.401-0.859-0.964-0.859h-0.831
			c-0.311,1.81-0.742,3.661-1.497,5.336c-0.563-1.125-1.054-2.785-1.292-3.868c-0.191-0.874-0.8-1.127-1.408-1.127h-0.652
			c-0.386,1.689-0.786,3.41-1.513,4.995c-0.668-1.451-1.039-2.963-1.275-4.328c-0.075-0.443-0.476-0.963-1.157-0.963h-1.067
			c0.356,2.669,1.127,4.981,2.283,7.026c0.268,0.475,0.831,1.068,1.424,1.068h0.267c0.711-0.963,1.646-3.439,1.899-4.656
			c0.222,1.217,0.829,2.697,1.32,3.588c0.266,0.491,0.741,1.068,1.363,1.068h0.327c0.519-0.771,1.26-2.24,1.854-3.929
			C122.188,156.022,122.514,154.644,122.514,154.331 M110.799,154.331c0-0.607-0.4-0.859-0.964-0.859h-0.83
			c-0.312,1.81-0.742,3.661-1.498,5.336c-0.564-1.125-1.053-2.785-1.291-3.868c-0.193-0.874-0.801-1.127-1.41-1.127h-0.651
			c-0.385,1.689-0.786,3.41-1.513,4.995c-0.667-1.451-1.038-2.963-1.275-4.328c-0.075-0.443-0.476-0.963-1.157-0.963h-1.068
			c0.356,2.669,1.127,4.981,2.285,7.026c0.266,0.475,0.83,1.068,1.423,1.068h0.267c0.712-0.963,1.647-3.439,1.898-4.656
			c0.223,1.217,0.831,2.697,1.32,3.588c0.268,0.491,0.742,1.068,1.365,1.068h0.326c0.52-0.771,1.261-2.24,1.854-3.929
			C110.473,156.022,110.799,154.644,110.799,154.331"/>
	</g>
</g>
</svg>
