<?xml version="1.0" encoding="utf-8"?>
<!-- Generator: Adobe Illustrator 16.0.4, SVG Export Plug-In . SVG Version: 6.00 Build 0)  -->
<!DOCTYPE svg PUBLIC "-//W3C//DTD SVG 1.1//EN" "http://www.w3.org/Graphics/SVG/1.1/DTD/svg11.dtd">
<svg version="1.1" id="Calque_1" xmlns="http://www.w3.org/2000/svg" xmlns:xlink="http://www.w3.org/1999/xlink" x="0px" y="0px"
	 width="325px" height="225px" viewBox="0 0 325 225" enable-background="new 0 0 325 225" xml:space="preserve">
<g>
	<defs>
		<rect id="SVGID_1_" x="67.845" y="85.497" width="187.289" height="54.568"/>
	</defs>
	<clipPath id="SVGID_2_">
		<use xlink:href="#SVGID_1_"  overflow="visible"/>
	</clipPath>
	<path clip-path="url(#SVGID_2_)" fill="#1E1E1C" d="M72.744,101.987c0,0,11.531-9.226,24.112-3.354
		c12.58,5.871,4.194,27.676-11.532,31.03C69.599,133.019,62.26,114.148,72.744,101.987"/>
	<path clip-path="url(#SVGID_2_)" fill="#FFFFFF" d="M89.181,108.621c0.275,0.827,1.242,2.77,1.097,3.91
		c-0.036,0.285-0.059,0.462-0.071,0.572c0,0-1.44,0.86-2.047,1.199c-0.604,0.338-3.167,1.348-4.509,1.579
		c-1.339,0.229-3.482,0.431-3.967,0.08c-0.484-0.354-1.925-1.76-2.124-2.766c-0.198-1.005-0.362-2.423,0.126-3.06
		c0.49-0.641,1.749-1.332,2.311-1.651c0.727-0.411,2.892-1.435,3.728-1.562c0.838-0.139,2.76-0.895,3.915-0.212
		C88.796,107.391,88.903,107.791,89.181,108.621 M91.576,114.833c-0.034,0.41-0.037,0.905-0.438,1.014
		c-0.4,0.107-0.998,0.343-1.265,0.298c-0.266-0.045-0.587-0.114-0.681-0.226c-0.095-0.108-0.218-0.555-0.218-0.555
		c0.197-0.375,0.438-0.52,0.829-0.771c0.396-0.252,0.704-0.473,1.008-0.447C91.121,114.173,91.615,114.424,91.576,114.833
		 M82.975,117.678c0.051,0.375,0.09,0.854-0.364,0.831c-0.454-0.016-0.819,0.424-1.007,0.445c-0.188,0.025-0.594,0.013-0.734-0.106
		c-0.438-0.368-0.062-0.909-0.062-0.909c0.307-0.467,0.84-0.628,1.346-0.728C82.656,117.108,82.926,117.302,82.975,117.678
		 M89.925,104.163c0.008-0.773-0.256-0.817-1.414-0.756c-1.948,0.104-4.791,0.997-5.877,1.374c-1.082,0.378-4.1,1.861-5.279,3.514
		c-1.174,1.646-0.616,5.076-0.207,6.493c0.414,1.416,2.37,5.071,2.844,5.845c0.477,0.773,1.033,1.561,1.686,1.521
		c0.646-0.031,1.467-0.502,1.626-0.979c0.154-0.483-0.088-1.1-0.044-1.361c0.045-0.266,0.987-1.056,1.488-1.228
		c0.496-0.172,3.471-1.17,4.52-1.385c1.045-0.216,1.213-0.068,1.35,0.281c0.137,0.349,0.228,0.431,0.633,0.731
		c0.409,0.3,1.018,0.234,1.863-0.099c0.845-0.335,0.348-1.752-0.069-2.511c-0.412-0.756-1.56-3.53-1.708-4.051
		C91.193,111.041,89.906,105.959,89.925,104.163"/>
	<path clip-path="url(#SVGID_2_)" fill="#C4CD28" d="M114.553,111.103c0,0,11.898-9.518,24.879-3.461s4.326,28.556-11.898,32.017
		C111.308,143.12,103.736,123.65,114.553,111.103"/>
	<path clip-path="url(#SVGID_2_)" fill="#FFFFFF" d="M123.645,116.681c0.08-0.616,0.158-1.236,0.158-1.236
		c-0.914-4.516-3.083-3.534-5.041-1.269c-0.264,0.593-0.866,2.401-0.838,3.663c0.545,4.468,2.09,4.034,3.708,2.983
		c0.443-0.572,0.888-1.143,1.332-1.715C123.225,118.512,123.386,117.275,123.645,116.681 M122.547,116.541
		c-0.443,0.571-0.758,3.046-1.125,2.999c-0.729-0.095-1.541,0.432-2.113-0.898c-0.286-0.665-0.315-1.926,0.209-3.113
		c1.15-1.741,2.062-1.625,2.898-0.891C122.52,115.28,122.443,115.898,122.547,116.541"/>
	<path clip-path="url(#SVGID_2_)" fill="#FFFFFF" d="M125.308,112.045c-0.222,0.552,1.223,1.603,2.452,2.264
		c0.308,0.168,0.525,0.556,0.79,0.831c-0.052,0.109-0.355-0.055-0.401,0.056c-0.353-0.053-0.967-0.387-1.578-0.718
		c-1.584-0.718-1.545,0.114-2.34,0.222c-0.047,0.113-0.266-0.275-0.217-0.387c0.096-1.162-0.071-2.599,1.258-3.097
		C125.179,111.438,125.706,111.988,125.308,112.045"/>
	<path clip-path="url(#SVGID_2_)" fill="#FFFFFF" d="M125.701,116.426c1.174,0.197,0.561,0.945,1.044,1.482
		c0.44,0.335,1.21,0.399,1.979,0.46c2.672,0.122,5.074-1.176,5.168-2.664c0,0,0.326-0.273,0.691-0.342
		c0.402,0.133,0.846,0.469,0.885,0.669c1.077,1.686-3.262,2.726-5.494,2.941c-1.096,0.207-1.863,0.146-2.997,0.151
		c-1.136,0.007-1.944-0.26-2.425-0.796c-0.483-0.54,0.171-1.083,0.459-1.559C125.379,116.699,125.342,116.496,125.701,116.426"/>
	<path clip-path="url(#SVGID_2_)" fill="#FFFFFF" d="M126.357,123.325c-0.389-0.675,0.247-0.673,0.318-1.139
		c-0.014-0.364-0.301-0.779-0.59-1.196c-1.048-1.4-2.7-2.078-3.494-1.509c0,0-0.271-0.053-0.458-0.208
		c-0.103-0.261-0.112-0.621-0.027-0.727c0.405-1.244,2.731,0.521,3.765,1.562c0.561,0.468,0.852,0.883,1.323,1.453
		c0.476,0.571,0.675,1.091,0.602,1.559c-0.075,0.464-0.62,0.359-0.979,0.414C126.631,123.379,126.545,123.48,126.357,123.325"/>
	<path clip-path="url(#SVGID_2_)" fill="#FFFFFF" d="M130.494,118.479c1-0.847-0.439,3.884-0.439,3.884
		c-0.344,3.089,0.217,4.553-0.669,6.919c-0.192,0.016-0.384,0.032-0.384,0.032C128.418,125.533,128.914,119.371,130.494,118.479"/>
	<path clip-path="url(#SVGID_2_)" fill="#FFFFFF" d="M131.383,133.242c-1.432,0.628-3.336-0.509-4.332-1.575
		c-0.611-0.722-1.083-1.652-1.38-2.765c-0.253-0.968-0.349-2.326,0.63-4.072c2.702-3.407,6.839-1.616,7.447,3.806
		C133.896,131.296,132.697,132.656,131.383,133.242 M125.684,123.453c-0.488,0.873-1.352,1.701-1.584,3.547
		c-0.236,1.846,0.277,3.781,0.902,4.8c2.506,4.066,6.223,4.537,9.784,0.306c0,0,0.49-0.875,0.606-1.801
		C135.078,120.897,129.498,120.188,125.684,123.453"/>
	<path clip-path="url(#SVGID_2_)" fill="#1E1E1C" d="M148.1,90.976c0,0,11.898-9.52,24.878-3.462
		c12.98,6.057,4.327,28.556-11.897,32.018C144.854,122.993,137.282,103.522,148.1,90.976"/>
	<path clip-path="url(#SVGID_2_)" fill="#FFFFFF" d="M157.666,92.162c0.015-1.241-0.078-2.527,0.413-3.643
		c1.055-0.424,2.13-0.25,2.937,0.488c0.117,0.249,0.347,0.234,0.514,0.425c0.212,1.716-0.008,3.671-1.355,4.902
		c-0.562,0.34-1.162,0.033-1.746,0.033C157.678,93.938,157.838,92.89,157.666,92.162"/>
	<path clip-path="url(#SVGID_2_)" fill="#FFFFFF" d="M163.932,91.303c0.641-0.221,1.343-0.129,1.957,0.312
		c0.335,0.889-0.528,1.757-0.681,2.662c-0.519,0.494-0.925,1.163-1.544,1.544c-0.793-0.416-0.83-1.505-0.857-2.293
		C162.879,92.667,162.971,91.637,163.932,91.303"/>
	<path clip-path="url(#SVGID_2_)" fill="#FFFFFF" d="M152.711,112.752c0.074-1.445,1.518-2.165,2.192-3.282
		c0.366,0.906-0.103,1.944-0.472,2.816c-0.053,0.32,0.318,0.405,0.574,0.475c0.439,0.163,0.754,0.543,1.131,0.816
		c0.837,0.405,2.042,0.359,2.727-0.295c0.976-0.804,2.139-1.845,1.916-3.28c-0.219-0.711-0.406-1.41-0.357-2.077
		c0.582-0.275,1.271,0.101,1.873-0.346c1.629-0.466,2.6-2.298,3.074-3.756c-0.033-0.552,0.177-1.149-0.1-1.658
		c-1.356-1.197-2.955-2.099-4.587-2.847c-0.986-0.201-2.146-0.844-3.013,0.09c-0.49,0.44-0.723,1.043-1.012,1.611
		c0.442,1.891,1.795,3.86,0.639,5.721l-0.262,0.068c0.707-2.131-0.889-4.224-1.827-5.958c-0.245-1.335,0.192-2.646,0.927-3.828
		c0.711-0.476,1.52-0.855,2.322-0.912l0.413,0.054c2.591-0.446,5.217,1.482,6.598,3.47c1.233,1.862,1.804,4.303,0.837,6.343
		c-1.25,1.858-4.211,1.541-5.098,3.791c-0.563,1.815-0.674,4.84-3.27,5.098c-0.838,0.181-1.764,0.221-2.627,0.058
		C154.365,114.29,152.883,113.992,152.711,112.752"/>
	<path clip-path="url(#SVGID_2_)" fill="#FFFFFF" d="M168.219,95.028c0.301,0.337,0.488,0.848,0.563,1.297
		c-0.344,0.723-1.046,1.24-1.911,1.24c-0.334-0.021-0.717,0.034-0.967-0.296c-0.301-0.247-0.189-0.7-0.113-1.022
		C166.439,95.628,167.137,94.315,168.219,95.028"/>
	<path clip-path="url(#SVGID_2_)" fill="#FFFFFF" d="M170.282,99.355c-0.352,0.773-1.134,1.078-1.858,1.274
		c-0.351-0.207-0.724-0.526-0.641-0.996c0.113-0.1,0.055-0.318,0.085-0.469c0.363-0.636,1.429-1.368,2.075-0.631
		C170.176,98.705,170.182,99.078,170.282,99.355"/>
	<path clip-path="url(#SVGID_2_)" fill="#FFFFFF" d="M170.58,102.526c-0.197,0.471-0.677,0.766-1.18,0.809
		c-0.177,0.048-0.354-0.091-0.453-0.205c-0.142-0.427-0.297-0.994,0.246-1.145l0.252-0.115
		C169.648,102.447,170.609,101.605,170.58,102.526"/>
	<path clip-path="url(#SVGID_2_)" fill="#1E1E1C" d="M224.835,99.768c0,0,11.567-9.252,24.184-3.364
		c12.616,5.887,4.206,27.758-11.567,31.121C221.68,130.89,214.32,111.963,224.835,99.768"/>
	<path clip-path="url(#SVGID_2_)" fill="#FFFFFF" d="M235.601,117.394c-0.138-0.88-0.51-2.096-1.021-3.345
		c-0.136-0.285-0.198-0.656-0.429-0.873c-1.329-0.064-2.464-0.693-3.626-0.725c-0.304-0.592-0.442-3.003-0.419-3.813
		c0.13-1.03,0.248-1.505,1.025-2.29c0.42-0.309,1.064-0.687,1.388-0.266l0.57,1.186c0.318,0.826,0.389,1.688,0.709,2.514
		c0.211,0.413,1.955,1.161,2.475,1.304c-0.167,0.311-0.816,0.26-0.771,0.629c0.265,0.266,0.73,0.441,1.013,0.697
		c0.17,0.936-0.198,4.731-0.223,5.621C236.153,117.988,235.832,118.071,235.601,117.394"/>
	<path clip-path="url(#SVGID_2_)" fill="#FFFFFF" d="M231.846,102.374l0.024,0.057c0.789-0.283,1.63-0.294,2.414-0.634
		c0.181,0.033,0.348,0.117,0.382,0.307c-0.18,1.12-0.485,2.391-1.247,3.234c-0.55,0.15-1.257-0.103-1.832,0.093
		c-0.055-0.516,0.254-0.994,0.294-1.554c0.042-0.312-0.166-0.619-0.064-0.9C231.752,102.794,231.809,102.586,231.846,102.374"/>
	<path clip-path="url(#SVGID_2_)" fill="#FFFFFF" d="M231.232,116.567c-0.138-0.877-0.507-2.094-1.021-3.342
		c-0.133-0.287-0.195-0.658-0.43-0.872c-1.324-0.064-2.46-0.694-3.623-0.726c-0.303-0.592-0.443-3.004-0.418-3.813
		c0.129-1.03,0.246-1.505,1.028-2.29c0.412-0.309,1.062-0.687,1.383-0.265l0.57,1.187c0.318,0.823,0.388,1.688,0.707,2.509
		c0.212,0.417,1.959,1.162,2.479,1.305c-0.171,0.312-0.819,0.263-0.771,0.631c0.266,0.266,0.727,0.441,1.013,0.698
		c0.171,0.94-0.201,4.729-0.226,5.623C231.787,117.167,231.461,117.245,231.232,116.567"/>
	<path clip-path="url(#SVGID_2_)" fill="#FFFFFF" d="M227.48,101.555l0.021,0.053c0.792-0.285,1.632-0.295,2.416-0.635
		c0.179,0.033,0.347,0.12,0.377,0.306c-0.176,1.124-0.484,2.391-1.245,3.236c-0.548,0.148-1.253-0.1-1.828,0.093
		c-0.055-0.514,0.251-0.993,0.292-1.555c0.039-0.312-0.167-0.62-0.067-0.901C227.381,101.972,227.437,101.764,227.48,101.555"/>
	<path clip-path="url(#SVGID_2_)" fill="#FFFFFF" d="M239.777,103.838c0.005-0.197,0.096-0.33,0.236-0.439
		c0.176-0.045,1.272-0.28,1.907-0.528c0.318-0.036,0.675-0.013,0.7,0.38c0.199,1.098-0.491,1.904-0.777,2.877
		c-0.545,0.499-1.359,0.359-2.047,0.535C240.053,105.67,239.974,104.75,239.777,103.838"/>
	<path clip-path="url(#SVGID_2_)" fill="#FFFFFF" d="M241.481,112.257c0.338-0.013,0.739,0.032,1.23-0.005
		c0.631,0.052,0.825,0.781,1.09,1.319c0.568,1.214,0.944,2.59,1.209,3.866c0.067,0.701,0.089,1.411,0.054,2.137
		c-0.118,0.006-0.406-0.085-0.431-0.16c0.004,0-0.704-1.863-0.704-1.865c-0.909-1.935-1.583-2.461-2.664-3.115
		c-0.671-0.161-3.09-0.132-4.077-1.139c0.115-1.674,0.16-3.525,0.766-5.121c0.457-0.636,1.31-0.914,2.025-1.145
		c1.182,0.182,1.434,1.466,2.326,2.561c0.437,0.536,0.961,1.304,1.464,0.987c0.645-0.318,1.45-0.864,2.038-1.327
		c0.233-0.188,0.592-0.107,0.853,0.011c-0.458,0.838-1.456,1.319-2.048,2.063c-0.294,0.213-0.855,0.898-1.293,0.73
		c-0.642-0.423-0.649-0.596-1.345-0.945c-0.279-0.099-0.675-0.411-0.929-0.139C241.168,111.395,241.263,112.26,241.481,112.257"/>
	<path clip-path="url(#SVGID_2_)" fill="#C4CD28" d="M186.398,107.188c0,0,11.898-9.519,24.877-3.46
		c12.982,6.056,4.329,28.555-11.896,32.018C183.153,139.206,175.582,119.736,186.398,107.188"/>
	<path clip-path="url(#SVGID_2_)" fill="#FFFFFF" d="M199.044,110.66c0.846-0.963,0.899-2.347,1.258-3.577
		c0.784-0.705,1.957-0.096,2.923-0.092l0.33,0.382l-0.179,1.688l-0.847,1.258C201.412,110.998,200.331,110.547,199.044,110.66"/>
	<path clip-path="url(#SVGID_2_)" fill="#FFFFFF" d="M188.01,112.953c1.254-0.559,2.631-0.716,3.921-1.168
		c1.48-0.213,3.066-0.838,4.35-0.771c1.381,0.036,3.174,0.249,4.532,0.885c0.223,0.148,0.409,0.363,0.118,0.766
		c-0.514,1.013-1.239,2.093-0.849,3.36c0.487,1.48,0.648,3.065,0.983,4.602c0.146,0.555,0.076,0.988,0.031,1.612
		c-0.966,1.487-2.055,2.944-2.979,4.47c-0.14,0.285-0.131,0.336-0.295,0.611c0.051,0.15,0.09,0.251,0.235,0.245
		c1.045,0.055,2.042,0.479,2.844,1.038c-0.593,0.042-1.053-0.219-1.692-0.118c-1.384-0.309-2.905-0.184-4.35-0.496
		c0.76-0.324,1.476-0.692,2.316-0.738c0-0.003,0-0.005,0-0.006c0.347-0.047,0.464-0.104,0.464-0.104v-0.021
		c0.005,0,0.007-0.001,0.011,0c0.001-0.034,0.004-0.066,0.007-0.099c0.158-1.533,0.546-2.987,1.787-3.952
		c0.146-0.324,0.448-0.702,0.22-1.095c-0.767-0.979-2.026-3.711-2.306-3.873c-1.375,1.389-2.36,3.123-3.777,4.513
		c-1.603,0.415-3.284-0.145-4.847-0.548c-0.136,0.37-0.296,0.922-0.207,1.389c-0.094,0.77,0.013,1.638-0.163,2.361
		c-0.386-0.803-0.223-1.883-0.452-2.799c-0.056-0.994-0.544-1.841-0.666-2.816c0.155-0.347,0.396,0.049,0.558,0.142
		c0.445,0.263,0.579,1.029,1.131,0.982c1.211-0.564,2.723-0.605,4.021-0.579c0.49-1.626,2.146-4.904,3.101-6.808
		c0,0-0.241-0.145-0.593-0.328l-1.206-0.657c-0.896-0.356-1.822-0.021-2.759-0.149c-1.209,0.229-2.484,0.452-3.699,0.448
		C187.769,113.106,187.938,113.053,188.01,112.953"/>
	<path clip-path="url(#SVGID_2_)" fill="#FFFFFF" d="M207.258,116.184c-0.712-0.142-1.37-0.106-2.004-0.067
		c-0.688,0.039-1.34,0.07-2.038-0.105c-0.528-0.377-0.956-0.887-1.402-1.427l-0.934-1.08l-0.038,0.367
		c-0.12,1.012,0.113,1.952,0.653,2.637c0.96,0.924,2.587,0.843,3.806,0.364c0.498,0.105,0.908-0.043,1.304-0.186
		c0.22-0.081,0.426-0.157,0.646-0.187L207.258,116.184z"/>
	<path clip-path="url(#SVGID_2_)" fill="#FFFFFF" d="M185.82,119.524c0.287,0.08,0.643,0.064,0.797,0.307
		c0.07,0.446-0.165,0.757-0.512,0.931c-0.18,0.081-0.482,0.07-0.756-0.222C185.176,120.359,185.209,119.475,185.82,119.524"/>
	<path clip-path="url(#SVGID_2_)" fill="#FFFFFF" d="M187.008,123.488c-0.17,0.388-0.566,0.231-0.828,0.129
		c-0.143-0.071-0.383-0.111-0.458-0.323c-0.062-0.319-0.056-0.699,0.251-0.884c0.381-0.06,0.84-0.047,1.091,0.263
		C187.15,122.955,187.132,123.225,187.008,123.488"/>
	<path clip-path="url(#SVGID_2_)" fill="#FFFFFF" d="M186.994,126.697c-0.496,0.134-0.753-0.349-0.918-0.673
		c0.082-0.226,0.102-0.537,0.4-0.622c0.439,0.007,0.918,0.044,1.121,0.476C187.65,126.28,187.259,126.505,186.994,126.697"/>
	<path clip-path="url(#SVGID_2_)" fill="#FFFFFF" d="M195.021,129.819c-0.233,0.34-0.69,0.269-1.018,0.18
		c-0.235-0.266-0.422-0.613-0.23-0.978c0.179-0.094,0.234-0.318,0.426-0.329c0.382-0.015,0.626,0.316,0.822,0.562
		C195.092,129.427,195.01,129.632,195.021,129.819"/>
	<path clip-path="url(#SVGID_2_)" fill="#FFFFFF" d="M197.994,130.468c-0.359,0.04-0.968,0.12-1.018-0.404
		c-0.166-0.326,0.182-0.535,0.167-0.85c0.204-0.237,0.612-0.104,0.86-0.047C198.004,129.167,198.785,129.819,197.994,130.468"/>
	<path clip-path="url(#SVGID_2_)" fill="#FFFFFF" d="M200.119,129.863c0.046-0.438,0.544-0.337,0.826-0.489
		c0.25,0.06,0.438,0.327,0.568,0.545c0.045,0.275-0.152,0.431-0.15,0.705c-0.291,0.226-0.639,0.12-0.942-0.026
		C200.16,130.454,200.136,130.139,200.119,129.863"/>
</g>
</svg>
