<?xml version="1.0" encoding="utf-8"?>
<!-- Generator: Adobe Illustrator 16.0.4, SVG Export Plug-In . SVG Version: 6.00 Build 0)  -->
<!DOCTYPE svg PUBLIC "-//W3C//DTD SVG 1.1//EN" "http://www.w3.org/Graphics/SVG/1.1/DTD/svg11.dtd">
<svg version="1.1" id="Calque_1" xmlns="http://www.w3.org/2000/svg" xmlns:xlink="http://www.w3.org/1999/xlink" x="0px" y="0px"
	 width="325px" height="225px" viewBox="0 0 325 225" enable-background="new 0 0 325 225" xml:space="preserve">
<g>
	<g>
		<path fill="#050507" d="M125.763,155.708c-3.513,0-6.367,2.851-6.367,6.369c0,3.515,2.854,6.364,6.367,6.364
			c3.518,0,6.37-2.853,6.37-6.364C132.132,158.559,129.28,155.708,125.763,155.708z"/>
		<circle fill="#E6E8E8" cx="125.762" cy="161.837" r="4.676"/>
		<g>
			<path fill="#FFFFFF" d="M125.762,164.366c2.362,0,4.278-1.915,4.278-4.275c0-0.053-0.006-0.104-0.008-0.155
				c-0.73-1.634-2.365-2.771-4.27-2.771c-1.901,0-3.536,1.143-4.265,2.771c-0.002,0.053-0.008,0.104-0.008,0.155
				C121.489,162.451,123.405,164.366,125.762,164.366z"/>
		</g>
	</g>
	<g>
		<path fill="#050507" d="M140.692,140.324c-5.872,0-10.627,4.756-10.627,10.628c0,5.868,4.755,10.624,10.627,10.624
			c5.865,0,10.619-4.756,10.619-10.624C151.311,145.08,146.557,140.324,140.692,140.324z"/>
		<path fill="#E6E8E8" d="M140.989,141.803c-4.586,0-8.31,3.719-8.31,8.312c0,4.589,3.724,8.309,8.31,8.309
			c4.588,0,8.309-3.72,8.309-8.309C149.298,145.521,145.577,141.803,140.989,141.803z"/>
		<g>
			<path fill="#FFFFFF" d="M140.989,156.264c4.222,0,7.702-3.152,8.231-7.229c-0.529-4.078-4.009-7.229-8.231-7.229
				c-4.22,0-7.701,3.149-8.232,7.229C133.288,153.111,136.769,156.264,140.989,156.264z"/>
		</g>
	</g>
	<g>
		<path fill="#050507" d="M204.023,85.496c0-10.162-8.235-18.4-18.396-18.4c-0.996,0-1.973,0.081-2.926,0.233
			c0.002-0.078,0.006-0.155,0.006-0.233c0-6.316-5.121-11.437-11.438-11.437c-1.787,0-3.479,0.411-4.984,1.141
			c-2.902-4.293-7.816-7.115-13.389-7.115c-8.921,0-16.154,7.232-16.154,16.153c0,1.002,0.095,1.981,0.27,2.934
			c-2.145-0.767-4.455-1.187-6.863-1.187c-11.252,0-20.374,9.121-20.374,20.373c0,9.173,6.061,16.928,14.395,19.483
			c-2.141,2.381-3.445,5.532-3.445,8.987c0,7.43,6.022,13.45,13.45,13.45c3.243,0,6.219-1.147,8.542-3.062
			c0.703,9.654,8.757,17.27,18.591,17.27c10.029,0,18.206-7.919,18.624-17.845c0.9,0.161,1.826,0.253,2.774,0.253
			c8.551,0,15.479-6.932,15.479-15.481c0-3.626-1.25-6.956-3.336-9.594C200.336,98.233,204.023,92.296,204.023,85.496z"/>
		<path fill="#E6E8E8" d="M199.938,87.357c0-9.279-7.521-16.803-16.805-16.803c-0.908,0-1.8,0.074-2.67,0.213
			c0.001-0.071,0.005-0.141,0.005-0.213c0-5.768-4.677-10.444-10.444-10.444c-1.631,0-3.176,0.374-4.551,1.042
			c-2.652-3.92-7.14-6.498-12.229-6.498c-8.147,0-14.753,6.604-14.753,14.753c0,0.914,0.088,1.809,0.248,2.678
			c-1.959-0.701-4.069-1.083-6.268-1.083c-10.276,0-18.606,8.329-18.606,18.606c0,8.376,5.534,15.458,13.146,17.791
			c-1.956,2.175-3.146,5.052-3.146,8.208c0,6.783,5.499,12.283,12.284,12.283c2.962,0,5.678-1.052,7.8-2.795
			c0.643,8.814,7.998,15.77,16.979,15.77c9.159,0,16.626-7.23,17.007-16.297c0.822,0.146,1.67,0.229,2.535,0.229
			c7.807,0,14.137-6.326,14.137-14.138c0-3.311-1.143-6.354-3.047-8.761C196.566,98.992,199.938,93.568,199.938,87.357z"/>
		<path fill="#FFFFFF" d="M199.531,83.693c-1.674-7.517-8.377-13.139-16.398-13.139c-0.908,0-1.8,0.074-2.67,0.213
			c0.001-0.071,0.005-0.141,0.005-0.213c0-5.768-4.677-10.444-10.444-10.444c-1.631,0-3.176,0.374-4.551,1.042
			c-2.652-3.92-7.14-6.498-12.229-6.498c-8.147,0-14.753,6.604-14.753,14.753c0,0.914,0.088,1.809,0.248,2.678
			c-1.959-0.701-4.069-1.083-6.268-1.083c-9.02,0-16.537,6.417-18.242,14.934c-0.238,1.188-0.364,2.415-0.364,3.672
			c0,7.241,4.139,13.513,10.178,16.587c0.945,0.481,1.938,0.888,2.968,1.204c-1.165,1.295-2.055,2.841-2.586,4.542
			c1.562,4.991,6.219,8.608,11.723,8.608c2.962,0,5.678-1.049,7.8-2.795c0.643,8.818,7.998,15.771,16.979,15.771
			c9.159,0,16.625-7.232,17.008-16.299c0.821,0.147,1.668,0.229,2.531,0.229c6.539,0,12.037-4.438,13.653-10.466
			c-0.505-1.881-1.39-3.607-2.562-5.091c0.943-0.549,1.832-1.188,2.647-1.905c3.512-3.08,5.729-7.599,5.729-12.638
			C199.938,86.099,199.794,84.873,199.531,83.693z"/>
	</g>
</g>
<g>
	<g>
		<defs>
			<rect id="SVGID_1_" x="130.752" y="73.736" width="53.533" height="47.594"/>
		</defs>
		<clipPath id="SVGID_2_">
			<use xlink:href="#SVGID_1_"  overflow="visible"/>
		</clipPath>
		<path clip-path="url(#SVGID_2_)" fill="#C7D271" d="M159.048,115.754c0.35-2.25,1.304-5.365,2.613-8.562
			c0.347-0.729,0.502-1.678,1.094-2.23c3.407-0.164,6.306-1.778,9.282-1.856c0.772-1.513,1.134-7.681,1.066-9.755
			c-0.331-2.64-0.631-3.851-2.621-5.862c-1.071-0.785-2.719-1.754-3.552-0.678l-1.454,3.034c-0.815,2.113-0.993,4.319-1.814,6.431
			c-0.542,1.06-5.011,2.97-6.334,3.336c0.43,0.795,2.09,0.664,1.973,1.608c-0.678,0.681-1.869,1.133-2.594,1.783
			c-0.437,2.396,0.513,12.112,0.572,14.383C157.631,117.275,158.455,117.48,159.048,115.754"/>
	</g>
	<g>
		<defs>
			<rect id="SVGID_3_" x="130.752" y="73.736" width="53.533" height="47.594"/>
		</defs>
		<clipPath id="SVGID_4_">
			<use xlink:href="#SVGID_3_"  overflow="visible"/>
		</clipPath>
		<path clip-path="url(#SVGID_4_)" fill="#C7D271" d="M168.656,77.326l-0.06,0.144c-2.024-0.728-4.173-0.755-6.183-1.624
			c-0.463,0.085-0.885,0.298-0.973,0.786c0.459,2.868,1.237,6.115,3.19,8.273c1.407,0.386,3.219-0.256,4.693,0.239
			c0.134-1.323-0.654-2.539-0.761-3.978c-0.105-0.794,0.432-1.582,0.168-2.303C168.897,78.399,168.755,77.866,168.656,77.326"/>
	</g>
	<g>
		<defs>
			<rect id="SVGID_5_" x="130.752" y="73.736" width="53.533" height="47.594"/>
		</defs>
		<clipPath id="SVGID_6_">
			<use xlink:href="#SVGID_5_"  overflow="visible"/>
		</clipPath>
		<path clip-path="url(#SVGID_6_)" fill="#C7D271" d="M170.226,113.641c0.354-2.246,1.3-5.361,2.613-8.556
			c0.34-0.73,0.499-1.686,1.097-2.228c3.396-0.167,6.298-1.78,9.271-1.86c0.772-1.514,1.136-7.685,1.071-9.752
			c-0.329-2.635-0.634-3.851-2.631-5.862c-1.058-0.786-2.718-1.756-3.54-0.678l-1.456,3.038c-0.816,2.107-0.991,4.315-1.812,6.419
			c-0.54,1.066-5.015,2.97-6.337,3.339c0.435,0.797,2.092,0.67,1.973,1.614c-0.683,0.678-1.862,1.128-2.594,1.782
			c-0.435,2.409,0.515,12.106,0.577,14.392C168.808,115.173,169.643,115.371,170.226,113.641"/>
	</g>
	<g>
		<defs>
			<rect id="SVGID_7_" x="130.752" y="73.736" width="53.533" height="47.594"/>
		</defs>
		<clipPath id="SVGID_8_">
			<use xlink:href="#SVGID_7_"  overflow="visible"/>
		</clipPath>
		<path clip-path="url(#SVGID_8_)" fill="#C7D271" d="M179.829,75.227l-0.053,0.136c-2.031-0.731-4.183-0.757-6.184-1.625
			c-0.46,0.089-0.887,0.303-0.97,0.783c0.452,2.874,1.241,6.119,3.188,8.279c1.403,0.379,3.208-0.258,4.682,0.239
			c0.139-1.318-0.646-2.538-0.752-3.979c-0.099-0.795,0.428-1.585,0.171-2.304C180.077,76.297,179.937,75.763,179.829,75.227"/>
	</g>
	<g>
		<defs>
			<rect id="SVGID_9_" x="130.752" y="73.736" width="53.533" height="47.594"/>
		</defs>
		<clipPath id="SVGID_10_">
			<use xlink:href="#SVGID_9_"  overflow="visible"/>
		</clipPath>
		<path clip-path="url(#SVGID_10_)" fill="#C7D271" d="M148.363,81.067c-0.015-0.503-0.246-0.845-0.601-1.123
			c-0.454-0.114-3.26-0.716-4.882-1.351c-0.817-0.088-1.724-0.031-1.791,0.974c-0.511,2.804,1.259,4.869,1.986,7.357
			c1.397,1.277,3.479,0.92,5.236,1.371C147.661,85.753,147.859,83.401,148.363,81.067"/>
	</g>
	<g>
		<defs>
			<rect id="SVGID_11_" x="130.752" y="73.736" width="53.533" height="47.594"/>
		</defs>
		<clipPath id="SVGID_12_">
			<use xlink:href="#SVGID_11_"  overflow="visible"/>
		</clipPath>
		<path clip-path="url(#SVGID_12_)" fill="#C7D271" d="M143.998,102.606c-0.858-0.031-1.882,0.084-3.145-0.007
			c-1.613,0.129-2.107,1.997-2.788,3.368c-1.453,3.107-2.419,6.629-3.092,9.896c-0.175,1.791-0.228,3.611-0.135,5.465
			c0.298,0.02,1.035-0.215,1.099-0.41c-0.008,0,1.8-4.766,1.8-4.768c2.328-4.956,4.048-6.303,6.814-7.976
			c1.716-0.408,7.908-0.337,10.431-2.915c-0.289-4.277-0.41-9.015-1.955-13.102c-1.168-1.623-3.353-2.335-5.185-2.924
			c-3.022,0.465-3.664,3.751-5.954,6.548c-1.111,1.375-2.456,3.339-3.742,2.529c-1.649-0.82-3.708-2.211-5.215-3.394
			c-0.6-0.48-1.515-0.272-2.184,0.026c1.173,2.146,3.729,3.374,5.239,5.281c0.754,0.538,2.192,2.296,3.311,1.869
			c1.644-1.086,1.662-1.528,3.441-2.42c0.713-0.257,1.726-1.048,2.375-0.356C144.805,100.401,144.56,102.613,143.998,102.606"/>
	</g>
</g>
</svg>
