<?xml version="1.0" encoding="utf-8"?>
<!-- Generator: Adobe Illustrator 16.0.4, SVG Export Plug-In . SVG Version: 6.00 Build 0)  -->
<!DOCTYPE svg PUBLIC "-//W3C//DTD SVG 1.0//EN" "http://www.w3.org/TR/2001/REC-SVG-20010904/DTD/svg10.dtd">
<svg version="1.0" id="Calque_1" xmlns="http://www.w3.org/2000/svg" xmlns:xlink="http://www.w3.org/1999/xlink" x="0px" y="0px"
	 width="325px" height="225px" viewBox="0 0 325 225" enable-background="new 0 0 325 225" xml:space="preserve">
<path fill="#7B7B7B" d="M54.272,192.503c-0.44-0.002-0.824-0.776-1.15-2.338c-0.286-1.521-0.568-3.045-0.852-4.565
	c-0.453-1.694-1.049-2.607-1.782-2.737c-0.287,0.153-0.702,1.532-1.253,4.13c-0.552,2.601-0.873,3.901-0.963,3.907
	c-0.017,0.002-0.036,0.006-0.056,0.006c-0.199-0.001-0.48-0.074-0.842-0.219l-0.146-2.167c-0.013-0.177,0.124-1.53,0.408-4.058
	c0.284-2.521,0.447-3.786,0.493-3.789l0.247,0.119l0.205,0.119c0-0.039,0.306-0.289,0.925-0.752c0.681-0.513,1.371-0.794,2.069-0.84
	c0.004-0.001,0.011,0,0.015-0.001c0.542,0.001,1.288,2.095,2.243,6.277c0.828,3.548,1.266,5.678,1.312,6.374l-0.051,0.242
	l-0.062,0.105c-0.175,0.104-0.421,0.167-0.738,0.186C54.291,192.502,54.282,192.504,54.272,192.503 M37.704,191.723
	c-0.641-0.002-1.363-0.026-2.166-0.07c0.012-1.157-0.005-2.109-0.056-2.853c-0.011-0.496-0.033-0.917-0.068-1.253
	c-0.033-0.337-0.049-0.519-0.052-0.537c-0.079-2.174-0.094-4.27-0.047-6.291c0.02-1.749,0.004-2.984-0.045-3.704
	c-0.063-0.949-0.21-2.129-0.441-3.541c-0.009-0.137,0.213-0.468,0.663-0.999c0.453-0.525,0.865-0.917,1.231-1.17
	c0.588-0.379,1.564-0.832,2.937-1.354c1.484-0.529,2.618-0.819,3.411-0.875c0.018,0.001,0.034-0.002,0.051-0.003
	c0.219,0.001,0.495,0.09,0.833,0.267c0.364,0.191,0.557,0.422,0.575,0.693c0.023,0.315-0.234,0.582-0.76,0.798
	c-0.42,0.165-0.812,0.26-1.172,0.282c-0.09,0.008-0.248,0.038-0.469,0.1c-0.224,0.062-0.38,0.098-0.47,0.101
	c-0.881,0.06-1.852,0.418-2.918,1.082c-1.197,0.759-1.771,1.511-1.72,2.255c0,0.021,0.053,0.271,0.153,0.735
	c0.099,0.472,0.145,0.81,0.136,1.013c0.051,0.428,0.12,0.934,0.204,1.516l0.051,0.779c0.141,0.123,0.243,0.182,0.312,0.181
	c0.003,0.001,0.007,0.001,0.008,0.001c2.862-1.28,4.687-1.946,5.478-2c0.06-0.003,0.115-0.008,0.17-0.005
	c0.321,0.002,0.562,0.075,0.727,0.219c0.246,0.278,0.479,0.545,0.7,0.803c-0.037,0.118-0.192,0.342-0.464,0.68
	c-0.048-0.044-0.11-0.067-0.186-0.066c-0.071,0-0.157,0.021-0.257,0.062c-0.265,0.107-0.409,0.16-0.431,0.163
	c-0.724,0.051-2.823,0.86-6.3,2.429l0.024,0.374c-0.044,0.364-0.038,0.943,0.015,1.731c0.201,0.645,0.313,1.101,0.329,1.374
	c0.015,0.178-0.02,0.286-0.096,0.326l-0.111,0.126c0.126,1.852,0.25,3.201,0.375,4.056c0.044,0.007,0.099,0.013,0.166,0.013
	c0.222,0.001,0.548-0.042,0.983-0.123c0.647-0.133,1.007-0.205,1.074-0.209l1.083-0.071c0.089-0.007,0.365-0.063,0.821-0.172
	c0.457-0.112,0.754-0.17,0.891-0.178c0.003-0.003,0.01-0.002,0.02-0.002c0.155-0.001,0.61,0.104,1.362,0.317
	c-0.651,1.787-2.364,2.775-5.139,2.961C38.696,191.712,38.227,191.727,37.704,191.723 M86.297,190.625
	c-0.446-0.002-0.688-0.28-0.723-0.836c-0.009-0.137,0.048-0.54,0.173-1.218c0.125-0.677,0.175-1.162,0.155-1.455
	c-0.006-0.091-0.032-0.895-0.075-2.41c-0.047-1.517-0.072-2.33-0.08-2.444c-0.06-0.879,0.176-1.339,0.705-1.374
	c0.011-0.001,0.025-0.001,0.039,0c0.669,0.003,1.087,1.279,1.26,3.826c0.034,0.495,0.05,1.021,0.055,1.577
	c0.003,0.476,0.002,0.717-0.003,0.716c0,0-0.001-0.009,0-0.021c0.156,2.347-0.316,3.558-1.424,3.635
	C86.35,190.623,86.323,190.625,86.297,190.625 M58.434,190.365c-0.156-0.001-0.291-0.007-0.401-0.021
	c-0.075-0.105-0.126-0.377-0.157-0.808c-0.001-0.042,0.136-0.896,0.423-2.562c0.285-1.659,0.406-2.648,0.361-2.964
	c-0.144-0.033-0.333-0.05-0.556-0.049c-0.131,0-0.276,0.003-0.43,0.014c-0.205,0.013-0.543,0.037-1.016,0.07
	c-0.476,0.032-0.813,0.057-1.016,0.068c-0.126,0.008-0.247,0.013-0.362,0.015c-0.938-0.002-1.423-0.305-1.465-0.903
	c-0.015-0.218,0.154-0.404,0.507-0.556c0.242-0.105,0.455-0.162,0.635-0.176c0.396,0.008,0.743,0.01,1.045,0.009
	c1.005,0.004,1.505-0.017,1.5-0.061c0-0.012,0.104-0.024,0.316-0.031c0.197-0.033,0.417-0.072,0.661-0.119
	c0.016,0.001,0.033,0.003,0.049,0.003c0.399,0.003,0.569-0.452,0.505-1.364c-0.025-0.384-0.112-0.999-0.261-1.853
	c-0.138-0.717-0.19-1.132-0.152-1.25c0.013-0.136,0.129-0.438,0.349-0.908c0.347-0.566,0.643-0.86,0.891-0.876
	c0.009,0.001,0.019,0,0.025,0.001c0.189,0,0.304,0.163,0.347,0.485c0.123,0.448,0.274,1.193,0.458,2.245
	c0.04,0.272,0.11,0.786,0.207,1.552c0.084,0.611,0.1,1.29,0.044,2.039c0.865-0.005,1.893-0.005,3.084-0.005
	c0.014,0,0.028-0.001,0.042,0.001c0.252,0,0.477,0.163,0.672,0.495c0.095,0.062,0.149,0.205,0.165,0.431
	c-0.005,0.192-0.036,0.287-0.087,0.288c-0.009-0.001-0.019-0.003-0.03-0.011c-0.322,0.272-0.72,0.422-1.192,0.454
	c-0.057,0.005-0.117,0.008-0.183,0.006c-0.306-0.002-0.718-0.045-1.239-0.133c-0.52-0.085-0.932-0.129-1.238-0.131
	c-0.064,0-0.127,0.003-0.18,0.003c-0.29,2.451-0.452,3.773-0.482,3.982c-0.294,1.699-0.632,2.557-1.016,2.587
	C58.935,190.355,58.659,190.363,58.434,190.365 M68.229,189.623c-0.351,0-0.7-0.084-1.045-0.249
	c-0.397-0.187-0.606-0.438-0.63-0.756c-0.135-2.01,0.074-3.781,0.63-5.312c0.808-2.162,2.227-3.314,4.258-3.449
	c0.17-0.011,0.333-0.018,0.49-0.016c1.253,0.002,2.055,0.385,2.406,1.147c-0.101,0.141-0.207,0.275-0.312,0.394
	c-0.167,0.218-0.318,0.327-0.454,0.338c-0.013,0-0.028,0.001-0.048,0.001c-0.131,0-0.428-0.021-0.893-0.057
	c-0.465-0.037-0.762-0.057-0.891-0.058c-0.019,0-0.036,0-0.048,0.001c-2.144,0.146-3.119,1.66-2.926,4.548
	c0.013,0.181-0.019,0.49-0.091,0.925c-0.073,0.434-0.1,0.788-0.082,1.06c0.023,0.338,0.114,0.685,0.275,1.034l-0.187,0.286
	l-0.295,0.154C68.335,189.62,68.283,189.624,68.229,189.623 M78.866,189.038c-1.981-0.006-3.267-1.207-3.854-3.604
	c-0.081-0.835,0.075-1.707,0.471-2.617c0.223-0.378,0.445-0.766,0.668-1.167c0.326-0.563,0.867-1.122,1.622-1.672
	c0.931-0.676,1.836-1.042,2.716-1.101c0.042-0.004,0.083-0.004,0.126-0.003c0.326-0.001,0.688,0.087,1.082,0.262
	c0.56,0.235,0.854,0.567,0.882,0.994c0.047,0.699-0.366,1.557-1.238,2.568c-0.875,1.008-1.659,1.54-2.36,1.584
	c0.042-0.002-0.336-0.114-1.145-0.329c-0.008-0.137-0.023-0.356-0.043-0.66c-0.021-0.305-0.033-0.501-0.04-0.591
	c-0.869,1.235-1.275,2.262-1.222,3.071c0.07,1.064,0.956,1.6,2.659,1.604c0.213,0,0.44-0.01,0.678-0.025
	c0.384-0.023,1.384-0.173,2.999-0.438l1.149-0.077l0.067,0.982c-0.223,0.062-0.787,0.27-1.692,0.622
	c-0.751,0.3-1.179,0.453-1.279,0.462l-0.355,0.058l-0.354,0.024c-0.102,0.009-0.298,0.02-0.593,0.04
	c-0.069-0.001-0.134,0-0.193,0.001c-0.188-0.001-0.316,0-0.383,0.004C79.105,189.034,78.985,189.037,78.866,189.038 M80.711,180.663
	c-1.479,0.597-2.452,1.323-2.917,2.166l0.575-0.036c0.933-0.63,1.41-0.961,1.432-0.981C80.34,181.414,80.642,181.031,80.711,180.663
	 M97.544,187.656c-0.349-0.002-0.698-0.086-1.045-0.25c-0.396-0.188-0.607-0.438-0.628-0.754c-0.135-2.01,0.074-3.782,0.629-5.313
	c0.809-2.162,2.227-3.315,4.258-3.448c0.172-0.011,0.336-0.021,0.492-0.019c1.252,0.004,2.054,0.386,2.405,1.148
	c-0.103,0.145-0.207,0.275-0.312,0.396c-0.168,0.215-0.318,0.325-0.453,0.335c-0.014,0.001-0.028,0.002-0.048,0.002
	c-0.129,0-0.426-0.018-0.891-0.061c-0.468-0.032-0.767-0.055-0.893-0.053c-0.021,0-0.035,0-0.047-0.001
	c-2.145,0.146-3.119,1.66-2.925,4.55c0.011,0.18-0.019,0.489-0.092,0.926c-0.074,0.435-0.101,0.785-0.081,1.059
	c0.024,0.338,0.113,0.686,0.274,1.034l-0.188,0.287l-0.294,0.154C97.652,187.655,97.599,187.658,97.544,187.656 M109.014,187.128
	c-0.167,0.001-0.522-0.157-1.071-0.471c-0.562-0.326-0.92-0.562-1.066-0.713l0.126-0.161l0.115-0.301
	c0.179-0.009,0.479-0.028,0.896-0.057c0.418-0.027,0.673-0.045,0.763-0.053c0.406-0.026,1.163-0.214,2.274-0.562
	c1.333-0.431,1.987-0.825,1.961-1.186c-0.022-0.293-0.346-0.767-0.981-1.43c-0.63-0.659-0.973-1.351-1.021-2.076
	c-0.049-0.72,0.473-1.571,1.562-2.551c1.05-0.911,1.936-1.388,2.66-1.438c0.014,0.002,0.03,0.001,0.048,0.001
	c0.271,0.002,0.492,0.157,0.664,0.479c0.183,0.34,0.249,0.692,0.206,1.058c-0.632,0.384-1.263,0.766-1.894,1.147
	c-0.915,0.579-1.356,1.075-1.33,1.481c0.018,0.226,0.387,0.779,1.115,1.663c0.727,0.88,1.104,1.535,1.133,1.961
	c0.027,0.383-0.486,0.956-1.53,1.719c-1.05,0.762-1.688,1.152-1.914,1.165l-0.302,0.089l-0.264,0.085l-2.134,0.142
	C109.024,187.128,109.02,187.127,109.014,187.128 M105.389,187.063c-0.204,0-0.399-0.065-0.592-0.196
	c-0.217-0.143-0.326-0.293-0.338-0.453c-0.022-0.335,0.132-1.379,0.469-3.125c0.388-2.021,0.766-3.304,1.137-3.851
	c0.446,0.241,0.701,0.407,0.764,0.49c0.064,0.09,0.104,0.289,0.126,0.607c0.041,0.654-0.069,1.817-0.346,3.49
	c-0.341,1.998-0.727,3.008-1.156,3.036C105.432,187.062,105.411,187.063,105.389,187.063 M121.422,186.18
	c-1.984-0.006-3.268-1.204-3.855-3.602c-0.077-0.835,0.078-1.709,0.469-2.619c0.227-0.375,0.448-0.765,0.672-1.165
	c0.326-0.568,0.866-1.122,1.622-1.672c0.929-0.677,1.835-1.041,2.714-1.104c0.042,0,0.083-0.004,0.126-0.004
	c0.329,0.001,0.689,0.092,1.084,0.265c0.557,0.233,0.852,0.567,0.88,0.996c0.048,0.7-0.363,1.552-1.237,2.566
	c-0.871,1.011-1.66,1.538-2.358,1.587c0.046-0.006-0.337-0.115-1.145-0.33c-0.008-0.137-0.024-0.358-0.043-0.661
	c-0.021-0.306-0.034-0.501-0.041-0.593c-0.87,1.237-1.274,2.261-1.22,3.073c0.071,1.063,0.956,1.596,2.657,1.603
	c0.214,0,0.44-0.007,0.681-0.022c0.383-0.027,1.383-0.174,2.995-0.439l1.152-0.076l0.015,0.203c0.228-0.018,0.374-0.024,0.438-0.029
	c0.405-0.024,1.166-0.213,2.276-0.562c1.332-0.431,1.986-0.825,1.96-1.188c-0.021-0.291-0.349-0.771-0.98-1.43
	c-0.636-0.658-0.976-1.353-1.024-2.072c-0.048-0.72,0.476-1.573,1.562-2.552c1.052-0.913,1.938-1.389,2.657-1.438
	c0.021-0.002,0.035-0.001,0.053-0.001c0.268,0.001,0.491,0.159,0.663,0.481c0.18,0.334,0.248,0.692,0.207,1.052
	c-0.635,0.383-1.265,0.768-1.895,1.15c-0.916,0.584-1.359,1.076-1.332,1.482c0.017,0.226,0.387,0.776,1.116,1.662
	c0.728,0.877,1.105,1.531,1.135,1.962c0.024,0.385-0.488,0.958-1.535,1.719c-1.047,0.762-1.686,1.15-1.911,1.166l-0.299,0.087
	l-0.267,0.087l-2.135,0.141c-0.004,0.001-0.006,0.001-0.016,0.001c-0.164,0.001-0.521-0.157-1.068-0.472
	c-0.123-0.072-0.236-0.137-0.34-0.2c-0.247,0.095-0.552,0.212-0.909,0.352c-0.746,0.298-1.176,0.451-1.277,0.459l-0.353,0.061
	l-0.354,0.023c-0.101,0.008-0.3,0.02-0.597,0.038c-0.067-0.002-0.135-0.001-0.192-0.001c-0.188,0.001-0.316,0.002-0.383,0.005
	C121.659,186.178,121.539,186.181,121.422,186.18 M123.264,177.808c-1.479,0.6-2.451,1.322-2.913,2.168l0.573-0.039
	c0.931-0.63,1.409-0.954,1.431-0.98C122.897,178.559,123.199,178.175,123.264,177.808 M89.061,185.428
	c-0.122,0.001-0.187-0.007-0.191-0.024c-0.016-0.032-0.263-0.07-0.738-0.104c-0.017-0.225-0.031-0.448-0.046-0.678
	c0.024-0.318,0.136-0.494,0.339-0.53l1.696-0.047c0.647-0.133,1.296-0.268,1.946-0.401c0.209-0.239,0.409-0.467,0.599-0.679
	c0.315-0.362,0.461-0.729,0.436-1.11c-0.037-0.562-0.411-1.04-1.116-1.441c-0.62-0.356-1.275-0.531-1.96-0.532
	c-0.095-0.001-0.189,0.001-0.284,0.008c-1.286,0.087-2.165,0.189-2.629,0.313c-0.469,0.118-0.737,0.184-0.804,0.19
	c-0.025,0.001-0.052,0.002-0.079,0.002c-0.266-0.001-0.518-0.096-0.757-0.287c-0.007-0.791,0.344-1.292,1.055-1.5
	c0.244-0.084,1.144-0.189,2.698-0.316c0.33-0.027,0.641-0.039,0.936-0.039c2.663,0.008,4.067,1.118,4.218,3.33
	c0.072,1.085-0.262,1.963-0.999,2.636c-0.737,0.675-1.67,1.049-2.8,1.122l-0.982,0.067
	C89.361,185.423,89.183,185.429,89.061,185.428 M107.513,174.679c-0.55-0.118-0.845-0.475-0.889-1.063
	c-0.026-0.405,0.04-0.785,0.196-1.132c0.22-0.445,0.532-0.68,0.94-0.711c0.043-0.006,0.08-0.004,0.118-0.005
	c0.6,0.003,0.923,0.34,0.969,1.019c0.011,0.16-0.165,0.486-0.53,0.988C107.957,174.275,107.688,174.58,107.513,174.679"/>
<g>
	<path fill="#7B7B7B" d="M49.903,148.92c-1.35-1.895-2.908-2.843-4.672-2.847c-0.118,0-0.234,0.005-0.354,0.014
		c-0.072,0.005-0.261,0.052-0.572,0.143c-0.312,0.091-0.506,0.139-0.586,0.145l-0.233,0.057l-0.248,0.057
		c-0.005-0.001-0.01,0.002-0.013,0.001c-0.074,0.002-0.21-0.039-0.406-0.118c-0.197-0.076-0.332-0.116-0.405-0.117
		c-0.004,0-0.009,0.001-0.012,0.001c-0.403,0.025-0.606,0.55-0.609,1.573c0.03,0.72,0.06,1.432,0.091,2.136
		c-0.133,2.476-0.267,4.95-0.399,7.427c-0.116,2.211-0.122,3.858-0.014,4.945c0.031,0.205,0.009,0.386-0.069,0.531
		c-0.063,0.119-0.104,0.177-0.116,0.177c-0.004-0.001-0.005-0.003-0.005-0.01c0.005,0.087,0.032,0.214,0.077,0.378
		c0.048,0.162,0.072,0.27,0.075,0.321l1.53-0.102c0.16-0.767,0.243-1.354,0.252-1.76c0.632,0.322,1.11,0.48,1.427,0.481
		c0.02,0,0.039,0.002,0.059,0c0.087-0.006,0.336-0.053,0.744-0.144c0.408-0.088,0.646-0.135,0.716-0.141
		c1.841-0.124,3.319-1.212,4.433-3.259c0.922-1.733,1.328-3.452,1.213-5.154C51.703,152.13,51.071,150.551,49.903,148.92z
		 M48.775,158.538c-1.127,1.592-2.646,2.45-4.558,2.58c-0.003,0-0.006,0-0.009,0c-0.07,0-0.192-0.059-0.36-0.174
		c-0.166-0.116-0.294-0.174-0.381-0.175c-0.006,0.001-0.009,0.001-0.01,0.003c-0.155,0.012-0.261,0.019-0.317,0.034
		c-0.128-1.167-0.122-2.67,0.017-4.507c0.21-2.89,0.337-5.603,0.378-8.142c0.117-0.097,0.381-0.219,0.795-0.369
		c0.412-0.151,0.699-0.232,0.855-0.244c0.086-0.005,0.174-0.007,0.258-0.006c1.359,0.002,2.505,0.779,3.438,2.321
		c0.753,1.253,1.173,2.521,1.26,3.802C50.261,155.469,49.805,157.096,48.775,158.538z"/>
	<path fill="#7B7B7B" d="M59.09,159.854c-1.253,0.208-2.031,0.322-2.33,0.343c-0.184,0.011-0.359,0.019-0.525,0.018
		c-1.324-0.003-2.01-0.42-2.068-1.243c-0.04-0.634,0.275-1.43,0.951-2.391c0.005,0.066,0.015,0.222,0.032,0.459
		c0.015,0.236,0.027,0.409,0.034,0.514c0.627,0.169,0.924,0.254,0.888,0.256c0.544-0.037,1.154-0.445,1.835-1.232
		c0.679-0.785,1-1.45,0.962-1.993c-0.02-0.331-0.251-0.59-0.686-0.773c-0.305-0.134-0.588-0.203-0.84-0.205
		c-0.034,0.001-0.065,0.003-0.098,0.006c-0.684,0.046-1.388,0.329-2.11,0.854c-0.589,0.427-1.009,0.86-1.26,1.301
		c-0.172,0.311-0.348,0.613-0.522,0.905c-0.304,0.708-0.426,1.387-0.366,2.034c0.458,1.862,1.455,2.797,2.997,2.801
		c0.092,0.001,0.188-0.002,0.283-0.009c0.053-0.004,0.152-0.006,0.297-0.006c0.047,0,0.095,0,0.152,0.001
		c0.229-0.015,0.381-0.025,0.46-0.029l0.277-0.021l0.274-0.044c0.079-0.005,0.409-0.123,0.993-0.356
		c0.704-0.274,1.143-0.438,1.317-0.483l-0.053-0.764L59.09,159.854z M57.417,154.998c-0.051,0.283-0.288,0.581-0.707,0.895
		c-0.014,0.019-0.386,0.273-1.11,0.761l-0.446,0.029C55.512,156.024,56.266,155.463,57.417,154.998z"/>
	<path fill="#7B7B7B" d="M108.731,157.101c-0.273-4.028-0.817-6.042-1.638-6.044c-0.016,0-0.025,0.001-0.039,0
		c-0.473,0.028-0.83,0.214-1.072,0.548c-0.305,0.46-0.575,0.742-0.815,0.848c-0.319-2.203-0.944-3.305-1.883-3.308
		c-0.027,0.001-0.055,0-0.087,0.004c-0.438,0.029-0.962,0.559-1.583,1.588c-0.332,0.567-0.654,1.145-0.967,1.73l-0.198-0.199
		c-0.182,0.188-0.405,1.065-0.668,2.635c-0.241,1.441-0.352,2.288-0.335,2.532c0.019,0.266,0.135,0.485,0.351,0.664
		c0.192,0.163,0.407,0.244,0.641,0.245c0.027,0.001,0.051,0.002,0.075-0.004c0.297-0.023,0.57-0.809,0.818-2.355
		c0.28-1.87,0.529-3.022,0.746-3.462c0.53-1.038,0.959-1.612,1.286-1.726l0.171,0.175c0.092,0.33,0.155,0.757,0.188,1.282
		c0.035,0.475,0.042,1.188,0.026,2.139c-0.014,0.954-0.013,1.59,0.01,1.906c0.02,0.261,0.049,0.473,0.095,0.627
		c0.014-0.003,0.025-0.002,0.04-0.002c0.105-0.002,0.258,0.025,0.454,0.072c0.209,0.051,0.345,0.078,0.403,0.078
		c0.006,0.001,0.01,0,0.012,0.001c0.121-0.007,0.465-0.657,1.032-1.946c0.628-1.382,0.949-2.081,0.967-2.1l0.172,0.172
		c0.078,2.516,0.159,3.816,0.235,3.897c0.056,0.83,0.295,1.244,0.721,1.246c0.017,0,0.031,0.001,0.049-0.001
		c0.229-0.016,0.479-0.102,0.753-0.262c0.008-0.125,0.019-0.302,0.027-0.531C108.73,157.322,108.737,157.172,108.731,157.101z"/>
	<path fill="#7B7B7B" d="M120.957,148.17c-0.005-0.001-0.009-0.001-0.011,0.001c-0.544,0.037-1.081,0.252-1.611,0.65
		c-0.479,0.361-0.717,0.554-0.721,0.587l-0.155-0.093l-0.193-0.093c-0.035,0.002-0.165,0.985-0.383,2.947
		c-0.22,1.961-0.325,3.016-0.315,3.154l0.11,1.683c0.284,0.109,0.502,0.167,0.657,0.166c0.014-0.001,0.028-0.001,0.043-0.002
		c0.069-0.003,0.32-1.016,0.749-3.037c0.428-2.021,0.752-3.089,0.972-3.212c0.571,0.102,1.032,0.814,1.386,2.128
		c0.222,1.184,0.441,2.369,0.663,3.551c0.254,1.209,0.552,1.814,0.896,1.817c0.006-0.001,0.015-0.001,0.018-0.005
		c0.247-0.014,0.437-0.062,0.571-0.142l0.048-0.082l0.039-0.188c-0.038-0.546-0.378-2.195-1.021-4.953
		C121.958,149.8,121.375,148.171,120.957,148.17z"/>
	<path fill="#7B7B7B" d="M131.24,151.48c0.039,0,0.064-0.076,0.067-0.226c-0.014-0.174-0.055-0.283-0.13-0.334
		c-0.152-0.257-0.323-0.387-0.523-0.389c-0.008,0.001-0.019,0-0.029,0.003c-0.926-0.001-1.726,0.001-2.399,0.004
		c0.043-0.583,0.032-1.109-0.033-1.586c-0.075-0.59-0.128-0.991-0.159-1.203c-0.146-0.818-0.264-1.402-0.356-1.748
		c-0.034-0.251-0.124-0.378-0.27-0.377c-0.007-0.001-0.015-0.001-0.021,0.002c-0.192,0.012-0.425,0.238-0.694,0.681
		c-0.17,0.362-0.262,0.6-0.271,0.703c-0.029,0.091,0.013,0.415,0.119,0.972c0.114,0.661,0.184,1.144,0.203,1.438
		c0.048,0.71-0.084,1.064-0.394,1.062c-0.013,0.001-0.024,0-0.038-0.002c-0.188,0.036-0.363,0.066-0.516,0.095
		c-0.163,0.004-0.243,0.013-0.243,0.024c0.001,0.032-0.386,0.051-1.166,0.049c-0.236-0.003-0.509-0.005-0.814-0.008
		c-0.14,0.01-0.307,0.054-0.493,0.135c-0.273,0.12-0.407,0.262-0.397,0.432c0.032,0.464,0.413,0.698,1.142,0.701
		c0.088-0.001,0.182-0.003,0.281-0.009c0.157-0.012,0.421-0.03,0.788-0.054c0.371-0.025,0.633-0.045,0.79-0.055
		c0.123-0.009,0.233-0.012,0.336-0.012c0.177-0.001,0.318,0.014,0.434,0.042c0.033,0.241-0.061,1.01-0.281,2.303
		c-0.223,1.29-0.331,1.957-0.328,1.992c0.021,0.331,0.062,0.54,0.117,0.624c0.09,0.011,0.193,0.014,0.317,0.015
		c0.176,0,0.386-0.01,0.638-0.024c0.299-0.021,0.562-0.69,0.792-2.011c0.021-0.16,0.15-1.189,0.374-3.091
		c0.043-0.002,0.088-0.005,0.141-0.004c0.239,0.001,0.559,0.034,0.965,0.102c0.4,0.067,0.724,0.102,0.959,0.103
		c0.051,0.003,0.1,0,0.144-0.007c0.369-0.022,0.678-0.141,0.929-0.351C131.223,151.479,131.23,151.479,131.24,151.48z"/>
	<path fill="#7B7B7B" d="M134.871,151.201c-0.022-0.315,0.322-0.7,1.034-1.152c0.49-0.298,0.98-0.595,1.472-0.891
		c0.034-0.285-0.021-0.56-0.16-0.824c-0.135-0.246-0.305-0.371-0.517-0.373c-0.014,0.001-0.024,0-0.04,0.002
		c-0.559,0.038-1.248,0.41-2.064,1.114c-0.847,0.766-1.253,1.425-1.215,1.985c0.037,0.561,0.301,1.1,0.794,1.613
		c0.494,0.515,0.744,0.881,0.761,1.11c0.021,0.281-0.485,0.588-1.524,0.923c-0.86,0.267-1.451,0.414-1.765,0.435
		c-0.071,0.004-0.268,0.017-0.593,0.038c-0.326,0.024-0.559,0.038-0.7,0.047l-0.088,0.231l-0.096,0.124
		c0.111,0.119,0.387,0.302,0.826,0.552c0.426,0.246,0.702,0.369,0.832,0.37c0.004,0,0.011-0.001,0.013,0l1.658-0.112l0.207-0.067
		l0.234-0.067c0.176-0.011,0.669-0.312,1.485-0.905c0.815-0.593,1.211-1.036,1.192-1.335c-0.02-0.332-0.312-0.842-0.881-1.526
		C135.17,151.805,134.882,151.376,134.871,151.201z"/>
	<path fill="#7B7B7B" d="M97.824,157.255c-1.255,0.21-2.033,0.323-2.328,0.342c-0.187,0.015-0.359,0.019-0.526,0.018
		c-1.322-0.003-2.01-0.416-2.065-1.242c-0.042-0.633,0.273-1.43,0.95-2.393c0.004,0.07,0.014,0.225,0.029,0.461
		c0.016,0.238,0.025,0.408,0.034,0.514c0.627,0.17,0.925,0.254,0.889,0.259c0.542-0.037,1.155-0.449,1.833-1.234
		c0.677-0.786,1.002-1.45,0.964-1.993c-0.021-0.334-0.25-0.592-0.688-0.774c-0.304-0.134-0.586-0.202-0.84-0.203
		c-0.034-0.001-0.066,0.001-0.098,0.002c-0.686,0.046-1.392,0.33-2.11,0.856c-0.589,0.427-1.009,0.858-1.259,1.298
		c-0.177,0.312-0.349,0.616-0.523,0.909c-0.308,0.707-0.43,1.385-0.366,2.033c0.456,1.861,1.455,2.798,2.994,2.803
		c0.094-0.002,0.188-0.005,0.287-0.01c0.054-0.004,0.153-0.004,0.301-0.004c0.046,0,0.096-0.001,0.148-0.002
		c0.229-0.012,0.383-0.021,0.46-0.028l0.278-0.019l0.273-0.045c0.08-0.006,0.411-0.126,0.994-0.358
		c0.704-0.274,1.141-0.437,1.314-0.485l-0.052-0.759L97.824,157.255z M96.15,152.397c-0.056,0.285-0.286,0.584-0.708,0.896
		c-0.015,0.015-0.388,0.27-1.113,0.759l-0.445,0.029C94.242,153.424,95,152.861,96.15,152.397z"/>
	<path fill="#7B7B7B" d="M115.561,156.069c-1.258,0.206-2.032,0.319-2.331,0.338c-0.185,0.012-0.363,0.017-0.526,0.018
		c-1.322-0.003-2.012-0.417-2.066-1.244c-0.042-0.633,0.275-1.431,0.949-2.391c0.007,0.071,0.015,0.224,0.032,0.46
		c0.015,0.238,0.025,0.408,0.034,0.515c0.629,0.17,0.925,0.256,0.889,0.258c0.544-0.036,1.154-0.447,1.834-1.233
		c0.676-0.787,1-1.448,0.963-1.993c-0.022-0.334-0.251-0.594-0.688-0.774c-0.305-0.137-0.584-0.203-0.841-0.206
		c-0.033,0.001-0.065,0.003-0.097,0.005c-0.684,0.047-1.388,0.334-2.111,0.854c-0.588,0.426-1.007,0.86-1.258,1.302
		c-0.174,0.309-0.35,0.611-0.521,0.905c-0.308,0.707-0.429,1.386-0.366,2.033c0.454,1.862,1.455,2.798,2.994,2.802
		c0.092,0.001,0.187-0.003,0.287-0.007c0.05-0.003,0.149-0.002,0.29-0.003c0.048-0.001,0.101-0.001,0.157,0.001
		c0.229-0.015,0.382-0.027,0.461-0.033l0.275-0.018l0.274-0.045c0.081-0.004,0.41-0.124,0.996-0.358
		c0.701-0.274,1.14-0.436,1.315-0.485l-0.055-0.761L115.561,156.069z M113.883,151.207c-0.053,0.287-0.286,0.585-0.704,0.896
		c-0.018,0.016-0.389,0.271-1.116,0.76l-0.443,0.028C111.979,152.234,112.732,151.672,113.883,151.207z"/>
	<path fill="#7B7B7B" d="M62.929,159.929c0.001,0,0.001-0.187,0-0.558c-0.004-0.431-0.018-0.841-0.043-1.229
		c-0.134-1.978-0.458-2.97-0.979-2.971c-0.007,0.001-0.018,0-0.027,0.001c-0.412,0.028-0.593,0.383-0.547,1.065
		c0.005,0.091,0.025,0.724,0.06,1.902c0.037,1.178,0.057,1.804,0.061,1.872c0.016,0.229-0.023,0.605-0.122,1.131
		c-0.097,0.525-0.143,0.843-0.136,0.948c0.03,0.43,0.216,0.645,0.563,0.646c0.02,0,0.041,0,0.062-0.002
		c0.859-0.059,1.228-0.997,1.104-2.823C62.927,159.925,62.927,159.929,62.929,159.929z"/>
	<path fill="#7B7B7B" d="M64.761,153.125c-0.231,0-0.473,0.009-0.729,0.027c-1.207,0.102-1.907,0.183-2.098,0.248
		c-0.551,0.16-0.825,0.55-0.821,1.164c0.185,0.149,0.383,0.223,0.589,0.223c0.021-0.001,0.04-0.003,0.06-0.003
		c0.052-0.003,0.262-0.052,0.625-0.147c0.362-0.093,1.045-0.174,2.044-0.242c0.075-0.006,0.146-0.008,0.22-0.008
		c0.532,0.002,1.042,0.141,1.526,0.414c0.549,0.312,0.84,0.686,0.869,1.122c0.02,0.297-0.094,0.583-0.338,0.863
		c-0.147,0.165-0.304,0.342-0.467,0.529c-0.504,0.103-1.01,0.207-1.513,0.31l-1.318,0.036c-0.157,0.027-0.244,0.165-0.264,0.415
		c0.013,0.173,0.022,0.351,0.037,0.525c0.37,0.026,0.562,0.055,0.572,0.079c0.005,0.014,0.056,0.019,0.15,0.02
		c0.095,0,0.235-0.004,0.419-0.015l0.764-0.051c0.875-0.06,1.603-0.351,2.175-0.874s0.832-1.204,0.775-2.048
		C67.922,153.994,66.831,153.131,64.761,153.125z"/>
	<path fill="#7B7B7B" d="M71.229,149.684c-0.015-0.231-0.114-0.479-0.292-0.75c-0.226-0.301-0.455-0.452-0.692-0.454
		c-0.014,0-0.025,0.001-0.039,0.004c-0.268,0.016-0.456,0.303-0.562,0.856c0.008,0.122,0.017,0.218,0.021,0.29
		c0.022,0.068,0.029,0.429,0.021,1.08c-0.032,1.869-0.055,2.986-0.075,3.352c-0.015,0.36-0.132,1.429-0.341,3.205
		c-0.196,1.706-0.292,2.594-0.288,2.664c0.032,0.47,0.305,0.705,0.823,0.706c0.061,0.002,0.126-0.003,0.197-0.011l0.402-0.024
		c0.152-0.293,0.349-1.863,0.593-4.721C71.229,152.907,71.307,150.84,71.229,149.684z"/>
	<path fill="#7B7B7B" d="M85.813,158.271c-0.041,0.005-0.079,0.006-0.122,0.006c-0.321,0.001-0.719-0.08-1.204-0.232
		c-0.55-0.177-0.962-0.359-1.237-0.552c-0.095-0.365,0.28-1.202,1.124-2.521c0.845-1.315,1.533-1.991,2.059-2.028
		c0.016,0.002,0.027,0.15,0.027,0.447c0.011,0.371,0.066,0.648,0.166,0.835c0.132,0.286,0.355,0.428,0.667,0.429
		c0.022,0,0.049-0.001,0.075-0.004c0.228-0.016,0.408-0.193,0.545-0.539c0.122-0.288,0.172-0.602,0.149-0.935
		c-0.03-0.456-0.202-0.846-0.516-1.167c-0.284-0.296-0.618-0.444-0.994-0.446c-0.035,0.001-0.071,0.002-0.104,0.006
		c-0.705,0.045-1.704,0.88-3.004,2.502c-1.22,1.545-1.812,2.533-1.784,2.976c0.07,1.049,0.814,1.785,2.236,2.201
		c0.752,0.233,1.523,0.353,2.309,0.353c0.188,0.002,0.375-0.003,0.569-0.018c0.772-0.053,1.581-0.213,2.424-0.493
		c1-0.322,1.611-0.692,1.83-1.115c-1.479,0.045-2.551,0.104-3.214,0.164C86.654,158.214,85.988,158.257,85.813,158.271z"/>
	<path fill="#7B7B7B" d="M81.085,158.721c-0.233-0.585-0.365-1.121-0.4-1.61c-0.017-0.245-0.008-0.757,0.017-1.534
		c0.026-0.746,0.041-1.115,0.043-1.115c-0.014-0.225-0.158-0.4-0.428-0.524c-0.165-0.058-0.329-0.126-0.493-0.201
		c0.47-0.333,0.717-0.497,0.733-0.501l-0.022-0.342l-0.227-0.197c-1.755,0.083-3.413,0.705-4.976,1.867
		c-1.674,1.274-2.46,2.686-2.359,4.227c0.025,0.39,0.229,0.739,0.613,1.058c0.353,0.291,0.706,0.44,1.062,0.441
		c0.029,0,0.061-0.001,0.091-0.004c1.367-0.092,2.902-1.269,4.6-3.535c0.147,0.625,0.296,1.261,0.444,1.901
		c0.402,1.181,0.905,1.771,1.506,1.773c0.021,0,0.044,0.002,0.068-0.005c0.212-0.015,0.412-0.143,0.608-0.385
		C81.636,159.828,81.345,159.391,81.085,158.721z M79.196,154.816c-0.108,0.335-0.298,0.729-0.566,1.189
		c-0.418,0.626-0.991,1.281-1.718,1.965c-0.867,0.782-1.56,1.189-2.087,1.225l-0.277,0.02l-0.144,0.01
		c-0.167-0.132-0.258-0.267-0.266-0.406c-0.043-0.649,0.287-1.396,0.987-2.234c0.458-0.541,0.889-0.957,1.292-1.248
		c0.673-0.469,1.207-0.792,1.602-0.968c0.392-0.177,0.777-0.348,1.154-0.514l0.343-0.023
		C79.411,154.156,79.308,154.485,79.196,154.816z"/>
</g>
<path fill="#7B7B7B" d="M54.257,151.06c-0.049-0.019-0.098-0.092-0.151-0.219c-0.051-0.129-0.056-0.24-0.014-0.337
	c0.02-0.05,0.823-0.565,2.405-1.551c1.571-0.977,2.373-1.465,2.401-1.465l0,0c0.227,0.097,0.375,0.353,0.448,0.769
	c0.051,0.327,0.045,0.566-0.017,0.713c-0.234,0.552-1.027,1.029-2.372,1.436C56.062,150.613,55.16,150.836,54.257,151.06"/>
<g>
	<path fill="#7B7B7B" d="M115.107,130.435c-1.13,0.186-1.83,0.286-2.098,0.304c-0.166,0.012-0.324,0.017-0.475,0.018
		c-1.189-0.003-1.81-0.379-1.859-1.122c-0.037-0.57,0.246-1.286,0.856-2.151c0.003,0.063,0.013,0.2,0.026,0.414
		c0.017,0.214,0.026,0.368,0.033,0.462c0.564,0.154,0.832,0.229,0.801,0.231c0.49-0.035,1.039-0.402,1.65-1.111
		c0.611-0.705,0.902-1.306,0.868-1.793c-0.021-0.303-0.227-0.537-0.619-0.699c-0.274-0.121-0.527-0.181-0.757-0.182
		c-0.028,0-0.058,0.002-0.087,0.004c-0.614,0.041-1.249,0.298-1.899,0.77c-0.531,0.384-0.908,0.774-1.135,1.171
		c-0.155,0.277-0.312,0.554-0.469,0.813c-0.275,0.637-0.385,1.249-0.331,1.831c0.414,1.679,1.312,2.52,2.699,2.523
		c0.083-0.001,0.168-0.005,0.254-0.004c0.049-0.005,0.135-0.005,0.261-0.006c0.043,0.001,0.092,0,0.145,0.001
		c0.203-0.012,0.344-0.021,0.413-0.027l0.248-0.017l0.248-0.039c0.071-0.005,0.369-0.111,0.895-0.324
		c0.634-0.248,1.027-0.393,1.185-0.437l-0.048-0.687L115.107,130.435z M113.604,126.056c-0.046,0.255-0.259,0.523-0.637,0.806
		c-0.016,0.016-0.349,0.245-1.001,0.687l-0.403,0.025C111.887,126.98,112.568,126.474,113.604,126.056z"/>
	<path fill="#7B7B7B" d="M108.377,131.548c-0.178-0.304-0.435-0.815-0.77-1.53c-0.334-0.717-0.503-1.128-0.511-1.24
		c-0.009-0.125,0.174-0.731,0.545-1.819c0.37-1.087,0.521-2.138,0.454-3.146c-0.03-0.478-0.145-0.976-0.339-1.501
		c-0.217-0.64-0.473-1.031-0.769-1.188c-0.817,0.847-1.246,2.74-1.286,5.679c-0.029,0.033-0.094,0.055-0.197,0.06
		c-0.103,0.006-0.239,0.045-0.408,0.122c-0.169,0.076-0.286,0.116-0.35,0.119l-0.266-0.077c-0.679,0.045-1.611,0.565-2.797,1.562
		c-1.262,1.062-1.866,1.971-1.817,2.728c0.06,0.884,0.588,1.329,1.585,1.331c0.085,0,0.175-0.003,0.264-0.006
		c1.344-0.091,2.883-1.004,4.624-2.738c0.218,0.412,0.443,0.826,0.678,1.238c0.422,0.721,0.722,1.084,0.896,1.082
		c0.004,0,0.006,0.001,0.01,0.001c0.267-0.02,0.414-0.136,0.439-0.353C108.387,131.657,108.391,131.547,108.377,131.548z
		 M103.728,130.5c-1.262,0.659-2.113,0.988-2.553,0.985c-0.06,0.002-0.112-0.005-0.155-0.018c0.217-0.807,0.765-1.536,1.646-2.181
		c0.2-0.124,0.657-0.377,1.372-0.76c0.717-0.381,1.129-0.574,1.24-0.582l0.549-0.037l0.057,0.164l0.064,0.258
		C105.989,128.976,105.252,129.7,103.728,130.5z M106.881,125.506l0.1-1.125l0.108-0.007l-0.078,1.126L106.881,125.506z"/>
	<path fill="#7B7B7B" d="M83.25,133.423c-0.233-0.582-0.366-1.117-0.399-1.609c-0.017-0.246-0.01-0.757,0.016-1.535
		c0.026-0.745,0.042-1.115,0.044-1.115c0,0,0,0,0,0.002c-0.014-0.229-0.157-0.402-0.431-0.524c-0.162-0.06-0.327-0.129-0.489-0.205
		c0.471-0.33,0.714-0.496,0.733-0.498l-0.023-0.344l-0.226-0.196c-1.755,0.085-3.415,0.705-4.975,1.866
		c-1.677,1.275-2.464,2.687-2.36,4.23c0.025,0.386,0.23,0.735,0.612,1.055c0.353,0.293,0.707,0.44,1.062,0.442
		c0.03-0.001,0.06-0.003,0.091-0.004c1.369-0.094,2.902-1.271,4.601-3.535c0.147,0.626,0.294,1.26,0.444,1.899
		c0.403,1.182,0.904,1.77,1.507,1.771c0.021,0,0.043-0.001,0.065-0.001c0.209-0.013,0.413-0.142,0.607-0.387
		C83.799,134.531,83.504,134.095,83.25,133.423z M81.363,129.52c-0.11,0.335-0.299,0.729-0.568,1.191
		c-0.418,0.625-0.991,1.28-1.72,1.965c-0.864,0.779-1.558,1.188-2.085,1.221l-0.276,0.02l-0.145,0.009
		c-0.168-0.129-0.255-0.266-0.266-0.403c-0.043-0.649,0.286-1.395,0.987-2.237c0.456-0.537,0.886-0.957,1.289-1.246
		c0.674-0.467,1.208-0.789,1.601-0.967c0.394-0.179,0.78-0.348,1.156-0.515l0.343-0.021
		C81.579,128.857,81.472,129.186,81.363,129.52z"/>
	<path fill="#7B7B7B" d="M68.47,120.723c-0.629-0.358-1.404-0.537-2.322-0.539c-0.175-0.002-0.354,0.006-0.542,0.02
		c-0.912,0.061-2.328,0.639-4.245,1.736c-2.223,1.26-3.298,2.432-3.225,3.521c0.025,0.385,0.172,0.611,0.441,0.67
		c0.269,0.062,0.535,0.109,0.802,0.146l-0.84,8.751c0.038,0.314,0.079,0.64,0.119,0.971c0.139,0.549,0.357,0.826,0.655,0.827
		c0.009,0.001,0.022-0.002,0.033,0c0.211-0.015,0.433-0.101,0.67-0.258c-0.044-0.387-0.014-1.118,0.089-2.205
		c0.117-1.153,0.165-2.007,0.146-2.553c-0.003-0.299,0.146-1.5,0.446-3.602c0.268-1.785,0.337-3.123,0.207-4.014
		c0.41-0.47,1.088-0.972,2.04-1.515c1.018-0.562,1.845-0.863,2.477-0.905c0.261-0.018,0.505-0.028,0.732-0.027
		c1.398,0.003,2.119,0.354,2.166,1.051c0.086,1.306-0.85,2.579-2.81,3.825c-1.235,0.79-2.481,1.388-3.74,1.788l0.036,0.556
		c0.085-0.057,0.293-0.088,0.629-0.096c0.512,0.021,0.734,0.031,0.664,0.037c0.088-0.006,0.271-0.037,0.548-0.092
		c0.278-0.054,0.453-0.082,0.522-0.087c0.404-0.025,0.846-0.135,1.326-0.327l0.268-0.163l0.166-0.078
		c0.901-0.218,1.792-0.894,2.666-2.028c0.876-1.135,1.278-2.217,1.209-3.252C69.739,121.915,69.293,121.195,68.47,120.723z"/>
	<path fill="#7B7B7B" d="M87.736,125.245c-0.003,0-0.008-0.001-0.011,0.001c-0.544,0.039-1.081,0.254-1.608,0.649
		c-0.479,0.36-0.72,0.556-0.721,0.583l-0.158-0.09l-0.192-0.091c-0.035,0.003-0.163,0.983-0.383,2.946
		c-0.221,1.962-0.327,3.014-0.318,3.155l0.114,1.682c0.28,0.111,0.5,0.168,0.657,0.167c0.012,0.001,0.026,0,0.04,0
		c0.069-0.007,0.318-1.019,0.747-3.038c0.429-2.022,0.753-3.093,0.973-3.213c0.572,0.104,1.033,0.812,1.386,2.129
		c0.222,1.183,0.44,2.368,0.661,3.551c0.254,1.21,0.553,1.814,0.895,1.816c0.008-0.001,0.013,0,0.021-0.002
		c0.245-0.016,0.437-0.065,0.573-0.146l0.047-0.085l0.04-0.185c-0.037-0.545-0.378-2.195-1.021-4.953
		C88.735,126.874,88.156,125.245,87.736,125.245z"/>
	<path fill="#7B7B7B" d="M73.394,124.385c-0.016-0.229-0.114-0.479-0.292-0.746c-0.224-0.303-0.454-0.454-0.69-0.455
		c-0.015-0.001-0.027,0-0.04,0c-0.268,0.02-0.456,0.305-0.561,0.859c0.008,0.118,0.015,0.219,0.02,0.288
		c0.021,0.067,0.028,0.429,0.021,1.081c-0.031,1.869-0.055,2.986-0.074,3.35c-0.02,0.363-0.133,1.431-0.343,3.207
		c-0.198,1.705-0.291,2.595-0.287,2.662c0.032,0.471,0.306,0.706,0.822,0.709c0.062-0.001,0.127-0.003,0.197-0.012l0.404-0.026
		c0.152-0.29,0.349-1.862,0.591-4.716C73.394,127.609,73.471,125.543,73.394,124.385z"/>
</g>
</svg>
