<?xml version="1.0" encoding="utf-8"?>
<!-- Generator: Adobe Illustrator 16.0.4, SVG Export Plug-In . SVG Version: 6.00 Build 0)  -->
<!DOCTYPE svg PUBLIC "-//W3C//DTD SVG 1.0//EN" "http://www.w3.org/TR/2001/REC-SVG-20010904/DTD/svg10.dtd">
<svg version="1.0" id="Calque_1" xmlns="http://www.w3.org/2000/svg" xmlns:xlink="http://www.w3.org/1999/xlink" x="0px" y="0px"
	 width="325px" height="225px" viewBox="0 0 325 225" enable-background="new 0 0 325 225" xml:space="preserve">
<g>
	<path fill="#7B7B7B" d="M199.646,207.639c-1.071,0-2.367-0.541-3.893-1.621c-1.65-1.168-2.626-2.195-2.922-3.078l-0.049-0.556
		c0.148-0.079,0.341-0.22,0.572-0.428c0.776,0.651,1.555,1.303,2.33,1.955c1.211,0.933,2.125,1.399,2.746,1.399
		c0.033,0,0.066-0.002,0.1-0.004l2.097-0.185c2.454-0.215,4.216-1.372,5.282-3.468c0.717-1.473,1.154-3.621,1.314-6.452
		c0.188-3.179,0.348-4.959,0.471-5.347l-0.303-0.256c-0.172,0.205-0.783,0.627-1.84,1.266c-1.056,0.642-1.722,0.974-2.001,0.996
		l-0.793,0.068c-0.04,0.004-0.079,0.006-0.12,0.006c-0.51,0-0.964-0.287-1.363-0.859c-0.321-0.473-0.5-0.912-0.537-1.316
		c-0.117-1.334,0.824-2.761,2.818-4.281c1.818-1.383,3.318-2.121,4.5-2.227c0.014-0.002,0.031-0.002,0.045-0.002
		c0.203,0,0.409,0.115,0.619,0.343c0.225,0.247,0.346,0.479,0.365,0.697c0.014,0.155-0.857,0.937-2.611,2.341
		c-1.847,1.444-2.839,2.268-2.978,2.467c0.376,0,1.149-0.445,2.325-1.33c1.173-0.884,1.838-1.334,1.994-1.348
		c0.076-0.009,0.151-0.011,0.227-0.011c1.068,0,1.667,0.728,1.794,2.179c0.388,4.412,0.009,8.34-1.127,11.788
		c-1.429,4.444-3.896,6.821-7.403,7.128l-1.398,0.123C199.823,207.635,199.734,207.639,199.646,207.639 M148.4,199.591
		c-0.603,0-1.375-0.289-2.318-0.87c-1.191-0.744-1.829-1.582-1.91-2.519c-0.002-0.032,0.579-1.697,1.746-5.004
		c1.166-3.302,1.724-5.233,1.675-5.794c-0.106-1.211-0.976-1.814-2.609-1.814c-0.218,0-0.448,0.012-0.691,0.032
		c-0.157,0.013-0.702,0.116-1.64,0.308c-0.939,0.19-1.471,0.291-1.594,0.305c-0.021,0-0.043,0.002-0.067,0.002
		c-0.294,0-0.63-0.166-1.009-0.494c-0.406-0.356-0.618-0.629-0.634-0.812c-0.075-0.869,1.19-1.42,3.8-1.647
		c0.2-0.019,0.404-0.027,0.608-0.027c1.066,0,2.198,0.236,3.395,0.709c1.879,0.744,2.884,1.845,3.012,3.306
		c0.076,0.871-0.286,2.652-1.082,5.353c-0.577,1.991-1.168,3.998-1.772,6.024c0.189,0.158,0.346,0.237,0.466,0.237
		c0.008,0,0.016,0,0.023,0c0.746-0.065,2.044-0.51,3.898-1.327c1.853-0.82,2.794-1.229,2.826-1.232
		c0.181-0.018,0.348-0.023,0.502-0.023c0.318,0,0.576,0.034,0.773,0.104c-0.144,0.863-1.077,1.919-2.799,3.16
		c-1.723,1.242-3.205,1.916-4.446,2.023C148.503,199.591,148.453,199.591,148.4,199.591 M165.338,197.975
		c-0.148,0-0.589-0.103-1.32-0.307c-0.861-0.205-1.42-0.328-1.677-0.369c0.054-0.098,0.043-0.238-0.034-0.419
		c-0.146-0.235-0.225-0.403-0.232-0.497c0.09-0.037,0.633-0.1,1.626-0.188c1.46-0.131,2.546-0.771,3.259-1.93
		c-0.642-0.883-1.267-1.767-1.876-2.652c-0.895-1.299-1.385-2.428-1.471-3.393c-0.075-0.867,0.31-2.547,1.156-5.029
		c-0.318-0.441-1.254-0.737-2.798-0.885c-0.732-0.065-1.396-0.103-1.994-0.103c-0.382,0-0.737,0.013-1.064,0.043
		c-0.125,0.011-0.246,0.045-0.368,0.103c-0.119,0.058-0.243,0.094-0.365,0.103c-0.018,0.002-0.035,0.002-0.053,0.002
		c-0.271,0-0.615-0.17-1.026-0.519c-0.44-0.365-0.671-0.691-0.694-0.971c-0.017-0.186,0.074-0.398,0.273-0.635
		c0.198-0.237,0.39-0.362,0.576-0.38c0.353-0.029,0.733-0.044,1.141-0.044c1.214,0,2.675,0.134,4.385,0.406
		c3.271,0.559,4.969,1.521,5.088,2.889c0.021,0.246-0.247,1.131-0.802,2.652c-0.557,1.519-0.823,2.371-0.809,2.558
		c0.064,0.746,0.68,1.78,1.844,3.103s1.776,2.325,1.836,3.008c0.066,0.744-0.633,1.541-2.092,2.39
		c-1.193,0.669-2.021,1.022-2.488,1.063C165.354,197.975,165.346,197.975,165.338,197.975 M189.081,195.889
		c-0.884,0-1.36-0.408-1.433-1.227c-0.012-0.124,0.127-1.702,0.414-4.73c0.308-3.154,0.472-5.056,0.492-5.701
		c0.02-0.641,0.022-2.621,0.01-5.938c-0.008-1.156-0.033-1.796-0.076-1.919c-0.01-0.124-0.025-0.294-0.045-0.513
		c0.17-0.985,0.49-1.496,0.965-1.536c0.029-0.005,0.058-0.005,0.086-0.005c0.412,0,0.822,0.26,1.225,0.779
		c0.328,0.474,0.51,0.909,0.545,1.313c0.178,2.05,0.115,5.718-0.191,11.002c-0.327,5.067-0.621,7.862-0.883,8.387l-0.713,0.062
		C189.336,195.881,189.205,195.889,189.081,195.889 M221.24,195.479c-0.604,0-1.151-1.062-1.645-3.188
		c-0.433-2.09-0.865-4.181-1.3-6.271c-0.672-2.319-1.517-3.56-2.53-3.722c-0.388,0.222-0.926,2.132-1.611,5.728
		c-0.688,3.599-1.094,5.4-1.219,5.414c-0.028,0.002-0.061,0.002-0.095,0.002c-0.272,0-0.657-0.09-1.147-0.271l-0.26-2.982
		c-0.021-0.246,0.127-2.114,0.446-5.602c0.321-3.484,0.513-5.232,0.574-5.236c0.017-0.002,0.03-0.004,0.047-0.004
		c0.131,0,0.231,0.053,0.297,0.159c0.065,0.111,0.155,0.164,0.265,0.164c0.011,0,0.021,0,0.031,0h-0.004
		c-0.08,0,0.335-0.356,1.249-1.073c0.923-0.723,1.862-1.123,2.827-1.207c0.01-0.002,0.018-0.002,0.023-0.002
		c0.746,0,1.832,2.862,3.263,8.586c1.239,4.867,1.901,7.783,1.985,8.746c0.015,0.155-0.008,0.264-0.064,0.334l-0.081,0.147
		c-0.237,0.146-0.573,0.237-1.008,0.276C221.27,195.477,221.254,195.479,221.24,195.479 M195.584,194.949
		c-0.27,0-0.536-0.086-0.798-0.254c-0.298-0.193-0.457-0.399-0.478-0.615c-0.039-0.467,0.146-1.906,0.562-4.321
		c0.475-2.797,0.96-4.573,1.457-5.338c0.621,0.319,0.979,0.541,1.066,0.658c0.088,0.116,0.151,0.392,0.189,0.828
		c0.078,0.901-0.047,2.507-0.377,4.819c-0.415,2.76-0.92,4.166-1.508,4.219C195.661,194.947,195.623,194.949,195.584,194.949
		 M228.368,192.34c-2.666,0-4.431-1.617-5.294-4.859c-0.133-1.146,0.058-2.353,0.574-3.619c0.297-0.526,0.594-1.067,0.89-1.625
		c0.433-0.788,1.162-1.574,2.188-2.354c1.262-0.954,2.498-1.483,3.711-1.591c0.07-0.007,0.145-0.009,0.217-0.009
		c0.441,0,0.927,0.11,1.455,0.333c0.776,0.307,1.192,0.756,1.244,1.346c0.084,0.963-0.463,2.15-1.637,3.57
		c-1.176,1.416-2.244,2.168-3.205,2.251c0.061-0.005-0.47-0.146-1.588-0.425c-0.016-0.185-0.043-0.486-0.078-0.906
		c-0.037-0.42-0.061-0.692-0.072-0.815c-1.164,1.729-1.696,3.152-1.599,4.272c0.124,1.421,1.298,2.133,3.519,2.133
		c0.35,0,0.723-0.018,1.125-0.053c0.525-0.047,1.898-0.275,4.117-0.688l1.584-0.139l0.023,0.278
		c0.316-0.027,0.518-0.045,0.605-0.054c0.561-0.049,1.599-0.327,3.119-0.835c1.822-0.631,2.713-1.193,2.67-1.689
		c-0.035-0.401-0.5-1.049-1.393-1.941c-0.891-0.895-1.381-1.836-1.468-2.831c-0.087-0.991,0.606-2.181,2.082-3.562
		c1.422-1.282,2.628-1.969,3.624-2.057c0.027-0.002,0.056-0.002,0.083-0.002c0.366,0,0.669,0.213,0.911,0.645
		c0.26,0.464,0.365,0.947,0.313,1.451c-0.86,0.545-1.721,1.09-2.579,1.635c-1.242,0.828-1.838,1.523-1.789,2.08
		c0.026,0.312,0.553,1.063,1.582,2.257c1.027,1.192,1.567,2.086,1.618,2.676c0.046,0.526-0.644,1.331-2.065,2.411
		c-1.424,1.08-2.291,1.63-2.602,1.656c-0.154,0.016-0.293,0.059-0.411,0.131c-0.118,0.074-0.241,0.117-0.364,0.126l-2.937,0.258
		c-0.009,0.002-0.019,0.002-0.028,0.002c-0.229,0-0.725-0.207-1.479-0.622c-0.17-0.092-0.327-0.181-0.472-0.264
		c-0.344,0.136-0.758,0.307-1.244,0.509c-1.026,0.435-1.608,0.656-1.748,0.669c-0.141,0.014-0.303,0.04-0.485,0.089
		c-0.187,0.019-0.351,0.03-0.487,0.044c-0.141,0.012-0.414,0.035-0.815,0.071c-0.407,0.002-0.673,0.011-0.798,0.022
		C228.777,192.332,228.568,192.34,228.368,192.34 M230.793,180.748c-2.021,0.865-3.338,1.891-3.956,3.068l0.791-0.069
		c1.269-0.894,1.915-1.356,1.944-1.392C230.307,181.792,230.713,181.255,230.793,180.748 M198.191,177.825
		c-0.764-0.15-1.182-0.632-1.252-1.438c-0.049-0.56,0.031-1.082,0.24-1.57c0.287-0.619,0.713-0.955,1.271-1.004
		c0.071-0.006,0.14-0.008,0.204-0.008c0.804,0,1.244,0.459,1.324,1.375c0.021,0.221-0.215,0.678-0.701,1.377
		C198.793,177.255,198.432,177.682,198.191,177.825"/>
	<path fill="#7B7B7B" d="M149.578,166.863c-1.983,0-3.297-1.205-3.94-3.618c-0.098-0.853,0.044-1.749,0.427-2.692
		c0.223-0.39,0.443-0.795,0.663-1.21c0.321-0.587,0.865-1.171,1.63-1.751c0.939-0.712,1.86-1.105,2.762-1.185
		c0.052-0.005,0.106-0.007,0.161-0.007c0.328,0,0.689,0.084,1.082,0.248c0.579,0.229,0.888,0.562,0.927,1
		c0.062,0.719-0.344,1.604-1.217,2.658c-0.876,1.055-1.671,1.613-2.388,1.676c0.046-0.004-0.347-0.108-1.181-0.313
		c-0.012-0.142-0.032-0.364-0.06-0.677c-0.027-0.312-0.044-0.516-0.053-0.607c-0.866,1.287-1.261,2.346-1.188,3.18
		c0.092,1.06,0.965,1.588,2.619,1.588c0.259,0,0.539-0.014,0.836-0.039c0.392-0.033,1.415-0.204,3.064-0.512l1.18-0.104l0.018,0.208
		c0.235-0.021,0.386-0.034,0.451-0.039c0.416-0.036,1.19-0.244,2.321-0.622c1.357-0.468,2.019-0.887,1.986-1.257
		c-0.027-0.301-0.372-0.784-1.034-1.447c-0.665-0.664-1.029-1.365-1.093-2.105c-0.066-0.738,0.452-1.625,1.551-2.651
		c1.057-0.952,1.955-1.464,2.694-1.528c0.022,0,0.044-0.002,0.064-0.002c0.271,0,0.498,0.159,0.677,0.48
		c0.193,0.343,0.271,0.705,0.234,1.076c-0.641,0.408-1.28,0.812-1.921,1.22c-0.924,0.614-1.368,1.131-1.331,1.549
		c0.02,0.229,0.412,0.79,1.177,1.679c0.765,0.889,1.166,1.553,1.204,1.991c0.035,0.392-0.478,0.99-1.537,1.794
		c-1.061,0.803-1.705,1.217-1.936,1.235c-0.115,0.008-0.218,0.042-0.307,0.096l-0.271,0.095l-2.184,0.19
		c-0.007,0.001-0.015,0.001-0.022,0.001c-0.171,0-0.54-0.154-1.102-0.461c-0.128-0.07-0.245-0.137-0.351-0.198
		c-0.255,0.103-0.563,0.229-0.925,0.378c-0.764,0.323-1.198,0.491-1.301,0.5c-0.104,0.01-0.225,0.029-0.362,0.065
		c-0.139,0.011-0.259,0.022-0.364,0.032c-0.104,0.01-0.306,0.025-0.607,0.054c-0.303,0.003-0.501,0.008-0.593,0.017
		C149.882,166.857,149.729,166.863,149.578,166.863 M151.383,158.234c-1.505,0.646-2.486,1.406-2.945,2.285l0.589-0.051
		c0.944-0.664,1.427-1.011,1.448-1.035C151.02,159.016,151.323,158.613,151.383,158.234 M168.27,165.23
		c-1.984,0-3.299-1.209-3.942-3.619c-0.099-0.854,0.045-1.752,0.429-2.692c0.223-0.394,0.443-0.797,0.663-1.212
		c0.321-0.586,0.864-1.17,1.629-1.751c0.938-0.71,1.859-1.104,2.763-1.185c0.051-0.004,0.105-0.008,0.16-0.008
		c0.327,0,0.688,0.084,1.084,0.247c0.577,0.23,0.887,0.564,0.924,1.005c0.064,0.715-0.342,1.603-1.215,2.655
		c-0.877,1.056-1.673,1.614-2.388,1.677c0.046-0.005-0.349-0.109-1.183-0.316c-0.012-0.137-0.03-0.362-0.06-0.676
		c-0.026-0.312-0.045-0.515-0.053-0.607c-0.865,1.289-1.263,2.348-1.188,3.182c0.092,1.059,0.965,1.588,2.619,1.588
		c0.258,0,0.537-0.015,0.836-0.039c0.393-0.035,1.414-0.205,3.063-0.513l1.18-0.104l0.089,1.006
		c-0.229,0.068-0.802,0.292-1.725,0.675c-0.764,0.324-1.195,0.489-1.301,0.499c-0.104,0.008-0.225,0.031-0.361,0.064
		c-0.139,0.014-0.26,0.023-0.363,0.033c-0.104,0.008-0.308,0.026-0.607,0.053c-0.303,0.002-0.5,0.009-0.592,0.018
		C168.572,165.225,168.419,165.23,168.27,165.23 M170.072,156.602c-1.506,0.644-2.485,1.404-2.944,2.285l0.59-0.053
		c0.943-0.665,1.425-1.01,1.446-1.036C169.709,157.379,170.014,156.979,170.072,156.602 M186.238,164.477
		c-0.787,0-1.459-0.768-2.018-2.3c-0.213-0.843-0.426-1.676-0.637-2.495c-2.182,3.033-4.173,4.627-5.977,4.785
		c-0.051,0.006-0.1,0.008-0.148,0.008c-0.46,0-0.922-0.185-1.384-0.556c-0.515-0.407-0.792-0.864-0.837-1.377
		c-0.178-2.033,0.822-3.915,3.001-5.644c2.028-1.574,4.2-2.44,6.517-2.596l0.301,0.254l0.041,0.448
		c-0.023,0.003-0.342,0.228-0.953,0.679c0.217,0.098,0.436,0.185,0.649,0.258c0.364,0.154,0.558,0.383,0.585,0.683
		c-0.001-0.002-0.001-0.003-0.001-0.003c-0.005,0-0.015,0.49-0.028,1.475c-0.016,1.025-0.009,1.7,0.021,2.024
		c0.057,0.646,0.247,1.353,0.569,2.116c0.356,0.877,0.756,1.447,1.197,1.712c-0.251,0.323-0.516,0.497-0.793,0.522
		C186.309,164.477,186.273,164.477,186.238,164.477 M183.736,155.826l-0.451,0.037c-0.492,0.229-0.995,0.468-1.51,0.71
		c-0.516,0.243-1.211,0.683-2.088,1.317c-0.522,0.396-1.078,0.955-1.67,1.684c-0.901,1.127-1.314,2.117-1.24,2.975
		c0.017,0.186,0.136,0.361,0.361,0.526l0.189-0.017c0.104-0.009,0.227-0.021,0.363-0.031c0.693-0.062,1.601-0.617,2.72-1.672
		c0.944-0.92,1.682-1.801,2.214-2.64c0.344-0.61,0.583-1.138,0.718-1.583C183.48,156.691,183.609,156.256,183.736,155.826
		 M191.271,163.271c-2.267-0.059-3.519-1.463-3.76-4.215c-0.041-0.483-0.051-0.983-0.025-1.5c0.113-1.639,0.33-2.742,0.654-3.307
		c0.816,0.021,1.271,0.564,1.365,1.628c0.034,0.396,0.021,1.046-0.038,1.96c-0.061,0.914-0.073,1.566-0.038,1.96
		c0.086,0.974,0.492,1.459,1.228,1.459c0.051,0,0.104-0.002,0.157-0.008c0.879-0.077,1.453-0.58,1.719-1.511
		c0.128-0.407,0.252-1.397,0.369-2.971c0.121-1.291,0.343-2.207,0.67-2.748c0.176,0.148,0.436,0.475,0.783,0.979
		c0.43,0.64,0.658,1.153,0.693,1.548c0.112,1.27-0.23,2.676-1.027,4.211C193.162,162.396,192.246,163.232,191.271,163.271
		 M210.43,162.467c-0.386,0-0.68-0.359-0.873-1.072c-0.062-0.438-0.123-0.862-0.185-1.277l0.876-11.573
		c-0.352-0.038-0.709-0.096-1.062-0.168c-0.355-0.074-0.557-0.364-0.602-0.874c-0.125-1.434,1.262-3.01,4.163-4.73
		c2.501-1.5,4.354-2.303,5.555-2.406c0.302-0.027,0.593-0.04,0.875-0.04c1.14,0,2.112,0.217,2.919,0.651
		c1.1,0.601,1.705,1.537,1.816,2.81c0.119,1.362-0.383,2.806-1.508,4.325s-2.279,2.436-3.465,2.748
		c-0.004-0.002-0.01-0.006-0.02-0.006c-0.033,0-0.1,0.037-0.197,0.112c-0.121,0.093-0.236,0.166-0.348,0.222
		c-0.631,0.265-1.211,0.422-1.742,0.468c-0.092,0.008-0.32,0.053-0.688,0.131c-0.36,0.077-0.603,0.122-0.721,0.132
		c0.086-0.008-0.207-0.016-0.877-0.025c-0.44,0.015-0.717,0.062-0.826,0.141l-0.063-0.73c1.651-0.565,3.28-1.386,4.886-2.461
		c2.555-1.697,3.756-3.402,3.605-5.119c-0.078-0.89-0.979-1.332-2.701-1.332c-0.348,0-0.73,0.018-1.148,0.056
		c-0.832,0.069-1.914,0.491-3.244,1.261c-1.239,0.741-2.121,1.425-2.649,2.055c0.194,1.174,0.142,2.939-0.165,5.299
		c-0.339,2.785-0.504,4.375-0.492,4.771c0.042,0.72-0.002,1.845-0.124,3.37c-0.106,1.434-0.127,2.404-0.062,2.91
		c-0.307,0.214-0.598,0.332-0.875,0.357C210.468,162.466,210.448,162.467,210.43,162.467 M237.4,161.328
		c-0.446,0-0.693-0.279-0.741-0.84c-0.013-0.139,0.038-0.557,0.151-1.252c0.113-0.699,0.157-1.196,0.133-1.498
		c-0.01-0.092-0.053-0.914-0.131-2.469c-0.076-1.556-0.119-2.389-0.129-2.506c-0.082-0.902,0.151-1.375,0.691-1.423
		c0.018-0.002,0.032-0.002,0.049-0.002c0.682,0,1.133,1.298,1.361,3.896c0.043,0.511,0.074,1.05,0.088,1.619
		c0.014,0.489,0.016,0.733,0.014,0.733c-0.003,0-0.003-0.006-0.003-0.019c0.209,2.402-0.251,3.654-1.384,3.754
		C237.465,161.326,237.432,161.328,237.4,161.328 M229.677,159.857c-1.983,0-3.298-1.205-3.94-3.619
		c-0.1-0.854,0.045-1.75,0.428-2.692c0.223-0.394,0.441-0.796,0.663-1.211c0.319-0.587,0.864-1.17,1.629-1.751
		c0.94-0.71,1.86-1.105,2.762-1.186c0.052-0.006,0.107-0.006,0.161-0.006c0.328,0,0.689,0.082,1.081,0.246
		c0.58,0.23,0.89,0.563,0.929,1.004c0.063,0.717-0.344,1.603-1.218,2.656c-0.876,1.055-1.671,1.613-2.387,1.676
		c0.046-0.004-0.349-0.108-1.181-0.313c-0.013-0.14-0.033-0.366-0.062-0.677c-0.026-0.312-0.044-0.516-0.051-0.608
		c-0.867,1.288-1.265,2.349-1.19,3.181c0.094,1.06,0.967,1.59,2.618,1.59c0.261,0,0.539-0.016,0.836-0.041
		c0.396-0.033,1.415-0.205,3.065-0.513l1.179-0.104l0.089,1.007c-0.227,0.065-0.801,0.292-1.725,0.675
		c-0.764,0.324-1.197,0.488-1.301,0.499c-0.104,0.008-0.226,0.03-0.361,0.065c-0.139,0.013-0.26,0.022-0.363,0.031
		c-0.104,0.01-0.309,0.027-0.607,0.053c-0.301,0.004-0.498,0.01-0.592,0.019C229.979,159.852,229.826,159.857,229.677,159.857
		 M231.48,151.229c-1.504,0.645-2.485,1.404-2.945,2.285l0.591-0.053c0.942-0.665,1.426-1.009,1.446-1.035
		C231.117,152.007,231.422,151.605,231.48,151.229 M253.544,158.588c-0.342,0-0.819-0.132-1.433-0.395
		c-0.846-0.346-1.217-0.731-1.114-1.16c0.308-0.213,0.61-0.333,0.911-0.359c0.639,0.182,1.062,0.271,1.27,0.271
		c0.018,0,0.034-0.002,0.047-0.004c1.063-0.092,2.467-0.562,4.211-1.416c2.322-1.109,3.428-2.325,3.313-3.644
		c-0.089-1.017-0.828-1.873-2.217-2.565c-1.281-0.541-2.563-1.08-3.845-1.619c-1.387-0.672-2.121-1.471-2.203-2.396
		c-0.092-1.062,1.358-2.854,4.354-5.377c0.867-0.728,2.833-2.229,5.896-4.5c0,0.025,0.082,0.151,0.242,0.382
		c0.158,0.23,0.246,0.416,0.26,0.555c0.031,0.393-1.459,1.839-4.479,4.34c-3.02,2.499-4.498,4.107-4.435,4.824
		c0.024,0.302,0.739,0.75,2.145,1.352c1.863,0.814,3.181,1.48,3.947,1.995c1.438,0.991,2.207,2.065,2.31,3.222
		c0.144,1.641-0.925,3.145-3.205,4.508c-1.815,1.069-3.44,1.666-4.875,1.791c-0.093,0.008-0.258,0.039-0.496,0.094
		c-0.24,0.058-0.407,0.091-0.5,0.097C253.616,158.587,253.582,158.588,253.544,158.588 M269.986,156.037
		c-0.076-0.088-0.289-0.244-0.635-0.469c-0.246-0.144-0.383-0.362-0.408-0.666c-0.057-0.646,0.205-0.995,0.781-1.045
		c0.037-0.004,0.072-0.004,0.107-0.004c0.605,0,0.961,0.479,1.066,1.438C270.684,155.475,270.379,155.723,269.986,156.037
		 M240.104,155.943c-0.1,0-0.15-0.008-0.158-0.021c-0.016-0.033-0.266-0.064-0.758-0.092c-0.021-0.23-0.041-0.461-0.062-0.691
		c0.019-0.328,0.13-0.515,0.336-0.555l1.739-0.083c0.662-0.151,1.324-0.302,1.986-0.449c0.213-0.251,0.412-0.487,0.604-0.712
		c0.313-0.375,0.456-0.757,0.421-1.148c-0.049-0.571-0.439-1.059-1.173-1.457c-0.625-0.336-1.274-0.504-1.953-0.504
		c-0.119,0-0.239,0.004-0.362,0.016c-1.318,0.115-2.216,0.24-2.69,0.375c-0.478,0.136-0.752,0.206-0.82,0.212
		c-0.034,0.003-0.067,0.003-0.103,0.003c-0.264,0-0.519-0.09-0.762-0.277c-0.024-0.812,0.326-1.332,1.051-1.559
		c0.25-0.092,1.17-0.218,2.763-0.383c0.397-0.039,0.772-0.061,1.127-0.061c2.621,0,4.033,1.111,4.226,3.332
		c0.096,1.108-0.226,2.018-0.967,2.721c-0.74,0.707-1.691,1.111-2.846,1.211l-1.008,0.089
		C240.425,155.934,240.229,155.943,240.104,155.943 M215.225,151.916c0.002,0,0.002,0,0.002,0S215.227,151.916,215.225,151.916
		 M269.415,151.157c-0.099,0-0.183-0.032-0.249-0.099l-0.252-0.101c-0.064,0.005-0.127,0.008-0.188,0.008
		c-0.527,0-0.812-0.229-0.851-0.687c-0.013-0.139,0.058-0.35,0.206-0.631c0.15-0.277,0.314-0.439,0.499-0.48l0.291-0.27
		c0.051,0.043,0.368,0.203,0.95,0.477c0.291,0.162,0.457,0.438,0.49,0.831c0.018,0.161-0.097,0.356-0.332,0.589
		c-0.236,0.229-0.412,0.35-0.526,0.359C269.439,151.157,269.428,151.157,269.415,151.157 M246.789,144.787
		c-0.141,0-0.35-0.08-0.623-0.241c-0.296-0.174-0.451-0.34-0.463-0.502c-0.012-0.114,0.14-0.522,0.451-1.228
		c0.449-0.994,0.691-1.526,0.732-1.602c0.189-0.227,0.516-0.359,0.979-0.4c0.007,0,0.011,0,0.016,0c0.229,0,0.53,0.429,0.9,1.283
		c0.021,0.23-0.256,0.731-0.828,1.504c-0.573,0.771-0.954,1.168-1.139,1.184C246.807,144.785,246.796,144.787,246.789,144.787"/>
	<path fill="#7B7B7B" d="M146.547,154.485c-0.08-0.034-0.163-0.156-0.246-0.364c-0.086-0.209-0.093-0.396-0.024-0.556
		c0.033-0.078,1.347-0.931,3.939-2.553c2.576-1.609,3.885-2.416,3.93-2.416l0,0c0.374,0.157,0.62,0.577,0.741,1.26
		c0.085,0.539,0.078,0.93-0.023,1.168c-0.385,0.908-1.681,1.697-3.885,2.367C149.507,153.743,148.03,154.106,146.547,154.485"/>
</g>
<g>
	<path fill="#7B7B7B" d="M129.43,168.8c-0.386,0-0.68-0.359-0.873-1.072c-0.062-0.438-0.123-0.862-0.185-1.277l0.876-11.573
		c-0.352-0.038-0.709-0.096-1.062-0.168c-0.355-0.074-0.557-0.364-0.602-0.874c-0.125-1.434,1.262-3.01,4.163-4.73
		c2.501-1.5,4.354-2.303,5.555-2.406c0.302-0.027,0.593-0.04,0.875-0.04c1.14,0,2.112,0.217,2.919,0.651
		c1.1,0.601,1.705,1.537,1.816,2.81c0.119,1.362-0.383,2.806-1.508,4.325s-2.279,2.436-3.465,2.748
		c-0.004-0.002-0.01-0.006-0.02-0.006c-0.033,0-0.1,0.037-0.197,0.112c-0.121,0.093-0.236,0.166-0.348,0.222
		c-0.631,0.265-1.211,0.422-1.742,0.468c-0.092,0.008-0.32,0.053-0.688,0.131c-0.36,0.077-0.603,0.122-0.721,0.132
		c0.086-0.008-0.207-0.016-0.877-0.025c-0.44,0.015-0.717,0.062-0.826,0.141l-0.063-0.73c1.651-0.565,3.28-1.386,4.886-2.461
		c2.555-1.697,3.756-3.402,3.605-5.119c-0.078-0.89-0.979-1.332-2.701-1.332c-0.348,0-0.73,0.018-1.148,0.056
		c-0.832,0.069-1.914,0.491-3.244,1.261c-1.239,0.741-2.121,1.425-2.649,2.055c0.194,1.174,0.142,2.939-0.165,5.299
		c-0.339,2.785-0.504,4.375-0.492,4.771c0.042,0.72-0.002,1.845-0.124,3.37c-0.106,1.434-0.127,2.404-0.062,2.91
		c-0.307,0.214-0.598,0.332-0.875,0.357C129.468,168.799,129.448,168.8,129.43,168.8"/>
	<path fill="#7B7B7B" d="M141.637,167.02c0.347,0,0.689-0.078,1.034-0.232c0.411-0.186,0.631-0.438,0.658-0.764
		c0.18-2.057,0.002-3.877-0.533-5.461c-0.781-2.235-2.21-3.443-4.284-3.627c-0.213-0.019-0.417-0.026-0.609-0.026
		c-1.22,0-2.013,0.375-2.379,1.128c0.104,0.148,0.208,0.287,0.313,0.41c0.166,0.227,0.317,0.343,0.456,0.355
		c0.02,0.002,0.046,0.002,0.082,0.002c0.146,0,0.44-0.013,0.879-0.041c0.443-0.025,0.737-0.039,0.884-0.039
		c0.034,0,0.062,0.002,0.08,0.004c2.189,0.191,3.154,1.768,2.896,4.725c-0.016,0.188,0.009,0.503,0.075,0.951
		c0.065,0.447,0.086,0.811,0.062,1.089c-0.031,0.346-0.132,0.698-0.302,1.056l0.183,0.297c0.062,0.1,0.162,0.154,0.3,0.166
		C141.5,167.016,141.568,167.02,141.637,167.02"/>
</g>
</svg>
