<?xml version="1.0" encoding="utf-8"?>
<!-- Generator: Adobe Illustrator 16.0.4, SVG Export Plug-In . SVG Version: 6.00 Build 0)  -->
<!DOCTYPE svg PUBLIC "-//W3C//DTD SVG 1.0//EN" "http://www.w3.org/TR/2001/REC-SVG-20010904/DTD/svg10.dtd">
<svg version="1.0" id="Calque_1" xmlns="http://www.w3.org/2000/svg" xmlns:xlink="http://www.w3.org/1999/xlink" x="0px" y="0px"
	 width="325px" height="225px" viewBox="0 0 325 225" enable-background="new 0 0 325 225" xml:space="preserve">
<g>
	<path fill="#7B7B7B" d="M196.983,156.286c-0.069-0.017-0.155-0.104-0.255-0.259c-0.101-0.157-0.137-0.303-0.105-0.443
		c0.015-0.069,0.948-0.959,2.796-2.668c1.837-1.694,2.772-2.548,2.809-2.555h0.002c0.326,0.072,0.589,0.374,0.79,0.906
		c0.151,0.422,0.203,0.739,0.158,0.95c-0.171,0.791-1.099,1.627-2.779,2.505C199.264,155.231,198.126,155.752,196.983,156.286"/>
	<path fill="#7B7B7B" d="M217.625,179.761c-0.332,0.062-0.676,0.103-1.027,0.115l-1.216,0.045c-0.971,0.037-2.147-0.486-3.526-1.569
		c-1.381-1.081-2.183-2.012-2.399-2.787l-0.02-0.486c0.133-0.062,0.303-0.175,0.512-0.345c0.646,0.597,1.293,1.194,1.938,1.791
		c1.062,0.907,1.861,1.349,2.403,1.331l1.821-0.072c0.36-0.011,0.706-0.052,1.034-0.113c1.618-0.306,2.847-1.194,3.688-2.664
		c0.683-1.242,1.153-3.086,1.411-5.53c0.3-2.744,0.514-4.282,0.636-4.611l-0.255-0.233c-0.153,0.169-0.703,0.507-1.643,1.017
		c-0.849,0.459-1.413,0.716-1.694,0.769c-0.031,0.007-0.059,0.01-0.081,0.01l-0.689,0.028c-0.487,0.016-0.903-0.251-1.249-0.805
		c-0.259-0.423-0.396-0.812-0.409-1.161c-0.045-1.162,0.827-2.358,2.621-3.59c1.37-0.938,2.529-1.5,3.472-1.678
		c0.182-0.034,0.354-0.053,0.519-0.059c0.19-0.009,0.377,0.1,0.56,0.323c0.185,0.225,0.281,0.429,0.29,0.617
		c0.004,0.136-0.784,0.773-2.363,1.916c-1.659,1.172-2.553,1.843-2.683,2.012c0.043-0.001,0.09-0.003,0.145-0.014
		c0.364-0.069,1.007-0.415,1.926-1.04c1.015-0.688,1.604-1.049,1.769-1.08c0.007-0.001,0.011-0.002,0.017-0.003
		c1.054-0.039,1.604,0.614,1.658,1.965c0.147,3.836-0.347,7.222-1.475,10.16C222.054,177.368,220.157,179.282,217.625,179.761
		 M243.034,167.743l-0.932,0.035c-0.649,0.026-0.993-0.461-1.03-1.461c-0.028-0.736,0.18-1.148,0.625-1.232
		c0.043-0.008,0.091-0.013,0.141-0.014c0.24-0.009,0.573,0.141,0.99,0.447c0.418,0.309,0.631,0.584,0.642,0.829
		c-0.001-0.006-0.002-0.01-0.003-0.01C243.441,166.343,243.298,166.813,243.034,167.743 M229.698,168.263
		c-0.143,0.026-0.274,0.044-0.396,0.048c-2.511,0.097-3.807-0.868-3.886-2.895c-0.034-0.916,0.572-2.347,1.825-4.288
		c0.969-1.525,2.011-2.903,3.127-4.137c1.386,0.136,2.533,0.821,3.448,2.058c0.855,1.132,1.31,2.398,1.361,3.802
		c0.03,0.731-0.081,1.397-0.329,2.002c-0.344,0.906-1.271,1.737-2.785,2.5C231.082,167.849,230.295,168.15,229.698,168.263
		 M231.239,159.238c-0.635,0.119-1.446,1.08-2.44,2.884c-1.049,1.907-1.494,3.168-1.337,3.785c0.471,0.198,0.892,0.303,1.271,0.316
		c0.61,0.005,1.159-0.039,1.645-0.131c0.938-0.177,1.647-0.534,2.124-1.068c0.621-0.7,0.947-1.78,0.972-3.245
		c-0.067-0.321-0.364-0.83-0.891-1.525c-0.529-0.694-0.938-1.038-1.235-1.028C231.312,159.226,231.277,159.23,231.239,159.238
		 M212.328,168.755c-0.017,0.003-0.034,0.006-0.05,0.007c-0.27,0.011-0.531-0.074-0.781-0.255c-0.251-0.18-0.379-0.366-0.387-0.554
		c-0.013-0.404,0.21-1.644,0.669-3.716c0.53-2.402,1.025-3.923,1.49-4.562c0.525,0.304,0.824,0.508,0.897,0.615
		c0.069,0.104,0.113,0.348,0.128,0.724c0.029,0.785-0.146,2.172-0.531,4.158C213.302,167.469,212.824,168.661,212.328,168.755
		 M207.469,169.269l-0.619,0.026c-0.989,0.064-1.501-0.309-1.531-1.119c-0.003-0.108,0.182-1.469,0.562-4.081
		c0.398-2.72,0.622-4.355,0.666-4.913c0.044-0.556,0.132-2.27,0.261-5.143c0.041-1.003,0.046-1.557,0.016-1.665
		c-0.004-0.105-0.011-0.257-0.019-0.445c0.176-0.784,0.446-1.212,0.815-1.281c0.026-0.006,0.057-0.008,0.085-0.011
		c0.387-0.014,0.752,0.231,1.101,0.731c0.264,0.421,0.405,0.81,0.417,1.16c0.068,1.781-0.143,4.956-0.633,9.518
		C208.09,166.421,207.718,168.829,207.469,169.269 M242.914,162.025c-0.006,0.001-0.012,0.003-0.02,0.004
		c-0.754,0.029-1.167-0.835-1.232-2.59c-0.036-0.918,0.213-3.918,0.749-8.995c0.606-5.703,1.18-8.607,1.712-8.707
		c0.008-0.002,0.017-0.003,0.023-0.004c0.298-0.011,0.611,0.23,0.941,0.717c0.327,0.488,0.499,0.852,0.508,1.097
		c0.034,0.863-0.267,4-0.896,9.406C244.021,158.905,243.426,161.929,242.914,162.025 M200.204,169.463
		c-0.021,0.003-0.038,0.007-0.05,0.007c-0.104,0.003-0.223,0.019-0.357,0.044c-0.021,0.004-0.045,0.01-0.066,0.014
		c-0.162,0.006-0.305,0.012-0.427,0.016c-0.12,0.005-0.357,0.014-0.708,0.027c-0.353-0.013-0.582-0.018-0.69-0.014
		c-2.619,0.099-4.259-1.379-4.917-4.437c-0.065-0.998,0.151-2.035,0.651-3.107c0.281-0.445,0.562-0.901,0.84-1.372
		c0.406-0.666,1.074-1.312,1.994-1.943c0.882-0.603,1.744-0.984,2.576-1.142c0.239-0.045,0.473-0.07,0.705-0.079
		c0.432-0.019,0.91,0.1,1.435,0.351c0.658,0.297,1,0.706,1.019,1.217c0.032,0.839-0.491,1.846-1.567,3.024
		c-0.954,1.044-1.812,1.635-2.579,1.78c-0.101,0.019-0.198,0.029-0.294,0.033c0.002,0,0.002,0,0.002,0
		c0.038-0.007-0.417-0.152-1.356-0.436c-0.008-0.159-0.018-0.424-0.032-0.79c-0.011-0.364-0.021-0.601-0.025-0.708
		c-1.083,1.449-1.603,2.658-1.565,3.629c0.054,1.435,1.364,2.1,3.931,2.003c0.459-0.02,1.658-0.161,3.594-0.423l1.378-0.055
		l0.044,1.176c-0.268,0.064-0.949,0.293-2.041,0.686C200.882,169.263,200.383,169.429,200.204,169.463 M199.958,159.617
		c-1.786,0.665-2.973,1.493-3.556,2.49l0.691-0.026c1.132-0.719,1.714-1.095,1.74-1.12
		C199.491,160.502,199.866,160.053,199.958,159.617 M182.554,170.227c-2.709-0.791-4.163-3.846-4.367-9.167
		c-0.062-1.566,0.03-4.071,0.28-7.516c0.317-4.715,0.844-7.142,1.572-7.279c0.02-0.004,0.033-0.006,0.053-0.006
		c0.298-0.013,0.54,0.143,0.729,0.46c0.186,0.315,0.285,0.592,0.295,0.832c0-0.02-0.002-0.028-0.004-0.027
		c-0.025,0.005-0.145,1.536-0.349,4.594c-0.223,3.335-0.293,6.084-0.21,8.244c0.04,1.054,0.114,1.956,0.223,2.711
		c0.246,1.586,0.416,2.538,0.508,2.86c0.368,1.284,0.898,1.954,1.589,2.007c1.003-0.714,2.147-2.933,3.438-6.662
		c1.034-3.288,2.061-6.559,3.07-9.815c1.055-3.371,1.836-5.104,2.348-5.2c0.004-0.001,0.007-0.002,0.01-0.002
		c0.244-0.036,0.457,0.098,0.646,0.4c0.188,0.305,0.287,0.592,0.298,0.86c0.067,1.107-0.518,3.442-1.76,7.007
		c-1.413,4.084-2.187,6.495-2.32,7.23C186.933,166.312,184.919,169.136,182.554,170.227 M215.162,154.046
		c-0.655-0.165-0.998-0.599-1.025-1.302c-0.017-0.485,0.073-0.936,0.274-1.35c0.242-0.453,0.56-0.72,0.957-0.795
		c0.06-0.011,0.124-0.018,0.187-0.02c0.813-0.032,1.233,0.385,1.268,1.25c0.008,0.19-0.216,0.575-0.667,1.162
		C215.705,153.577,215.373,153.928,215.162,154.046 M181.116,147.558c0-0.002-0.001-0.004-0.001-0.007
		C181.115,147.552,181.116,147.556,181.116,147.558"/>
	<path fill="#7B7B7B" d="M202.503,146.966c-0.167,0.032-0.338,0.05-0.513,0.057l-0.607,0.024c-0.485,0.019-1.075-0.243-1.766-0.787
		c-0.692-0.538-1.091-1.004-1.201-1.393l-0.007-0.243l0.255-0.173c0.324,0.3,0.646,0.599,0.968,0.896
		c0.53,0.454,0.935,0.676,1.204,0.664l0.911-0.033c0.179-0.008,0.352-0.026,0.515-0.057c0.811-0.153,1.425-0.598,1.845-1.336
		c0.343-0.62,0.578-1.541,0.707-2.764c0.15-1.37,0.256-2.14,0.317-2.305l-0.128-0.114c-0.077,0.082-0.35,0.251-0.821,0.506
		c-0.424,0.229-0.705,0.358-0.845,0.385c-0.017,0.003-0.032,0.004-0.044,0.005l-0.345,0.014c-0.242,0.01-0.451-0.124-0.621-0.404
		c-0.133-0.209-0.198-0.403-0.209-0.578c-0.021-0.581,0.417-1.181,1.312-1.796c0.687-0.469,1.267-0.748,1.736-0.837
		c0.09-0.017,0.178-0.027,0.259-0.029c0.097-0.003,0.188,0.05,0.281,0.161c0.09,0.11,0.142,0.215,0.144,0.309
		c0.002,0.069-0.39,0.388-1.182,0.959c-0.828,0.587-1.277,0.921-1.34,1.004c0.021,0.001,0.045,0,0.07-0.005
		c0.183-0.034,0.504-0.208,0.965-0.521c0.505-0.346,0.8-0.524,0.882-0.54c0.005-0.001,0.008-0.001,0.01-0.002
		c0.525-0.02,0.803,0.308,0.83,0.982c0.072,1.919-0.175,3.61-0.74,5.08C204.718,145.77,203.77,146.727,202.503,146.966
		 M233.475,140.113c-0.042-0.054-0.159-0.149-0.354-0.288c-0.141-0.091-0.212-0.225-0.221-0.399
		c-0.011-0.332,0.111-0.524,0.374-0.574c0.034-0.006,0.073-0.011,0.112-0.011c0.393-0.015,0.604,0.273,0.643,0.868
		C233.896,139.808,233.712,139.941,233.475,140.113 M226.17,140.639l-1.275,0.049c-0.095,0.003-0.308-0.094-0.64-0.3
		c-0.073-0.043-0.139-0.085-0.199-0.124c-0.152,0.052-0.334,0.116-0.549,0.194c-0.406,0.149-0.655,0.231-0.746,0.248
		c-0.01,0.002-0.021,0.004-0.024,0.003l-0.211,0.029l-0.216,0.008c-0.06,0.003-0.177,0.008-0.354,0.015
		c-0.176-0.007-0.292-0.009-0.346-0.007c-1.311,0.051-2.128-0.689-2.459-2.219c-0.032-0.5,0.076-1.019,0.326-1.555
		c0.142-0.221,0.28-0.449,0.422-0.686c0.203-0.333,0.534-0.657,0.995-0.973c0.441-0.3,0.873-0.492,1.29-0.57
		c0.117-0.022,0.233-0.036,0.351-0.042c0.216-0.009,0.455,0.052,0.718,0.178c0.329,0.147,0.5,0.354,0.51,0.608
		c0.016,0.417-0.245,0.92-0.784,1.512c-0.478,0.52-0.906,0.819-1.29,0.892c-0.05,0.01-0.1,0.013-0.146,0.014l0,0
		c0.02-0.004-0.206-0.072-0.678-0.218c-0.003-0.079-0.008-0.212-0.015-0.396c-0.009-0.183-0.011-0.3-0.013-0.354
		c-0.541,0.724-0.8,1.328-0.782,1.817c0.028,0.714,0.682,1.05,1.965,0.999c0.232-0.009,0.829-0.08,1.8-0.21l0.687-0.028l0.007,0.122
		c0.137-0.005,0.226-0.009,0.263-0.01c0.092-0.002,0.21-0.019,0.358-0.047c0.252-0.048,0.588-0.132,1.008-0.249
		c0.803-0.232,1.2-0.46,1.193-0.673c-0.009-0.177-0.195-0.469-0.562-0.872c-0.369-0.406-0.56-0.826-0.577-1.257
		c-0.017-0.434,0.31-0.931,0.978-1.497c0.554-0.455,1.03-0.718,1.425-0.792c0.066-0.013,0.127-0.021,0.188-0.021
		c0.177-0.009,0.315,0.092,0.417,0.298c0.103,0.206,0.139,0.416,0.106,0.636c-0.386,0.218-0.77,0.436-1.152,0.652
		c-0.554,0.333-0.829,0.618-0.82,0.863c0.007,0.136,0.219,0.471,0.637,1.009c0.42,0.539,0.636,0.938,0.645,1.193
		c0.01,0.231-0.306,0.561-0.944,0.999c-0.602,0.412-0.979,0.631-1.135,0.66c-0.01,0.002-0.02,0.004-0.027,0.003l-0.18,0.048
		L226.17,140.639 M222.638,135.784c-0.895,0.331-1.487,0.745-1.776,1.244l0.343-0.012c0.567-0.361,0.856-0.547,0.872-0.562
		C222.406,136.226,222.593,136.001,222.638,135.784 M213.309,141.53c-0.022,0.005-0.044,0.009-0.065,0.01
		c-0.487,0.021-0.877-0.446-1.17-1.396c-0.1-0.496-0.2-0.985-0.3-1.47c-1.221,1.533-2.32,2.394-3.296,2.577
		c-0.107,0.021-0.212,0.034-0.317,0.038c-0.296,0.013-0.59-0.111-0.876-0.364c-0.287-0.251-0.435-0.527-0.447-0.824
		c-0.045-1.188,0.591-2.254,1.907-3.197c0.894-0.626,1.825-1.032,2.788-1.214c0.354-0.067,0.714-0.104,1.078-0.11l0.167,0.155
		l0.01,0.265l0,0c-0.018,0.003-0.209,0.127-0.573,0.366l0.37,0.17c0.207,0.099,0.315,0.236,0.32,0.411v-0.003
		c-0.002,0.001-0.023,0.287-0.058,0.857c-0.04,0.598-0.055,0.992-0.046,1.179c0.013,0.378,0.102,0.793,0.269,1.247
		c0.184,0.521,0.397,0.863,0.649,1.03C213.585,141.414,213.448,141.504,213.309,141.53 M211.708,136.445
		c-0.294,0.121-0.592,0.243-0.899,0.369c-0.306,0.127-0.724,0.363-1.25,0.707c-0.317,0.215-0.657,0.527-1.019,0.934
		c-0.559,0.63-0.825,1.195-0.809,1.695c0.005,0.106,0.07,0.213,0.196,0.315l0.111-0.002l0.213-0.01
		c0.046-0.002,0.098-0.01,0.147-0.019c0.388-0.073,0.882-0.363,1.48-0.876c0.576-0.508,1.029-1,1.363-1.473
		c0.218-0.345,0.371-0.646,0.462-0.897c0.094-0.256,0.18-0.505,0.265-0.752L211.708,136.445 M215.127,140.921
		c-0.242,0.009-0.483-0.047-0.718-0.166c-0.235-0.12-0.355-0.274-0.362-0.464c-0.046-1.2,0.108-2.255,0.466-3.163
		c0.449-1.104,1.161-1.75,2.132-1.933c0.149-0.028,0.307-0.047,0.471-0.052c0.918-0.036,1.489,0.206,1.711,0.724l-0.192,0.231
		c-0.093,0.111-0.178,0.175-0.253,0.189c-0.008,0.001-0.015,0.003-0.023,0.002c-0.055,0.003-0.241-0.014-0.56-0.047
		c-0.318-0.036-0.505-0.054-0.561-0.051c-0.129,0.004-0.249,0.02-0.363,0.041c-1.034,0.195-1.521,1.069-1.459,2.626
		c0.002,0.108-0.021,0.292-0.072,0.551c-0.052,0.257-0.073,0.471-0.066,0.634c0.006,0.2,0.055,0.408,0.144,0.622l-0.115,0.166
		L215.127,140.921 M233.325,137.258c-0.008,0.002-0.017,0.003-0.021,0.002l-0.166-0.064l-0.143-0.063
		c-0.38,0.012-0.573-0.127-0.585-0.425c-0.002-0.081,0.043-0.201,0.139-0.36c0.093-0.156,0.193-0.243,0.298-0.263
		c0.002,0,0.006-0.001,0.006-0.001l0.178-0.151c0.027,0.027,0.209,0.129,0.54,0.306c0.165,0.103,0.254,0.266,0.26,0.498
		c0.004,0.093-0.064,0.204-0.21,0.331C233.49,137.183,233.392,137.245,233.325,137.258 M191.431,141.972l-1.277,0.047
		c-0.094,0.005-0.308-0.095-0.641-0.3c-0.072-0.044-0.137-0.084-0.198-0.122c-0.151,0.051-0.335,0.117-0.55,0.192
		c-0.407,0.147-0.655,0.232-0.744,0.249c-0.012,0.002-0.02,0.004-0.023,0.005l-0.215,0.026l-0.213,0.008
		c-0.06,0.005-0.177,0.008-0.354,0.015c-0.179-0.007-0.291-0.01-0.348-0.007c-1.308,0.05-2.127-0.689-2.458-2.219
		c-0.03-0.499,0.077-1.017,0.326-1.555c0.142-0.22,0.279-0.45,0.42-0.686c0.203-0.333,0.536-0.654,0.999-0.972
		c0.439-0.304,0.869-0.49,1.287-0.569c0.117-0.022,0.236-0.036,0.353-0.041c0.215-0.011,0.454,0.05,0.719,0.175
		c0.328,0.148,0.498,0.353,0.508,0.608c0.016,0.419-0.244,0.922-0.783,1.512c-0.477,0.522-0.907,0.818-1.291,0.891
		c-0.049,0.01-0.099,0.015-0.146,0.018c0,0,0,0,0.002,0c0.018-0.004-0.207-0.076-0.682-0.219c-0.001-0.082-0.006-0.212-0.014-0.397
		c-0.006-0.181-0.01-0.299-0.013-0.354c-0.543,0.726-0.803,1.33-0.781,1.818c0.027,0.714,0.682,1.047,1.965,0.998
		c0.229-0.008,0.83-0.077,1.797-0.211l0.691-0.024l0.002,0.121c0.138-0.004,0.226-0.009,0.265-0.012
		c0.091-0.004,0.21-0.019,0.359-0.047c0.253-0.048,0.588-0.13,1.009-0.248c0.802-0.234,1.199-0.459,1.189-0.676
		c-0.005-0.172-0.192-0.463-0.56-0.868c-0.369-0.407-0.559-0.824-0.574-1.255c-0.019-0.435,0.309-0.933,0.976-1.5
		c0.553-0.454,1.028-0.717,1.426-0.791c0.063-0.013,0.127-0.021,0.187-0.022c0.176-0.006,0.314,0.094,0.416,0.299
		c0.103,0.205,0.139,0.419,0.106,0.635c-0.384,0.221-0.768,0.437-1.151,0.655c-0.555,0.332-0.828,0.619-0.818,0.861
		c0.004,0.137,0.217,0.472,0.636,1.01c0.42,0.538,0.635,0.936,0.645,1.194c0.01,0.228-0.307,0.562-0.944,0.998
		c-0.602,0.412-0.979,0.632-1.134,0.661c-0.011,0.002-0.021,0.004-0.028,0.005l-0.18,0.046L191.431,141.972 M187.896,137.114
		c-0.893,0.332-1.483,0.747-1.779,1.246l0.348-0.012c0.566-0.361,0.856-0.547,0.869-0.563
		C187.663,137.557,187.853,137.331,187.896,137.114 M212.904,136.946L212.904,136.946L212.904,136.946 M182.617,142.288
		l-0.309,0.011c-0.493,0.035-0.751-0.153-0.767-0.558c-0.002-0.054,0.092-0.735,0.278-2.04c0.202-1.358,0.312-2.178,0.335-2.458
		c0.021-0.278,0.064-1.133,0.131-2.571c0.021-0.499,0.023-0.779,0.008-0.832l-0.008-0.222c0.085-0.392,0.223-0.606,0.407-0.642
		c0.014-0.002,0.025-0.005,0.041-0.006c0.192-0.007,0.377,0.116,0.552,0.365c0.132,0.212,0.203,0.407,0.209,0.579
		c0.034,0.893-0.072,2.479-0.317,4.761C182.929,140.862,182.742,142.065,182.617,142.288 M168.939,143.829
		c-0.063,0.013-0.139,0.022-0.218,0.025c-0.272,0.012-0.492-0.46-0.663-1.414c-0.146-0.915-0.286-1.829-0.431-2.744
		c-0.242-1.018-0.581-1.574-1.017-1.664c-0.174,0.088-0.445,0.901-0.819,2.446c-0.371,1.533-0.588,2.308-0.642,2.317
		c0,0,0,0-0.001,0c-0.121,0.003-0.298-0.045-0.532-0.142l-0.051-1.298c-0.004-0.105,0.1-0.913,0.314-2.413
		c0.211-1.5,0.33-2.253,0.357-2.259l0,0l0.146,0.076l0.12,0.077c0-0.025,0.19-0.171,0.566-0.436
		c0.321-0.227,0.643-0.371,0.966-0.433c0.096-0.018,0.189-0.027,0.284-0.032c0.325-0.011,0.737,1.251,1.241,3.788
		c0.167,0.807,0.298,1.493,0.404,2.054c0.112-0.004,0.188-0.009,0.223-0.008c0.09-0.004,0.21-0.021,0.358-0.049
		c0.254-0.048,0.59-0.13,1.009-0.248c0.803-0.235,1.2-0.457,1.192-0.674c-0.007-0.176-0.194-0.468-0.562-0.87
		c-0.367-0.406-0.56-0.825-0.575-1.257c-0.019-0.432,0.309-0.933,0.977-1.498c0.553-0.453,1.03-0.717,1.428-0.792
		c0.062-0.012,0.125-0.019,0.186-0.021c0.176-0.007,0.313,0.094,0.417,0.299c0.103,0.205,0.137,0.417,0.105,0.635
		c-0.385,0.219-0.769,0.436-1.152,0.654c-0.553,0.332-0.827,0.618-0.818,0.862c0.004,0.136,0.218,0.472,0.637,1.01
		c0.422,0.539,0.635,0.936,0.644,1.192c0.012,0.229-0.305,0.564-0.942,1.001c-0.602,0.41-0.979,0.63-1.135,0.66
		c-0.01,0.001-0.021,0.002-0.028,0.003l-0.181,0.048l-0.16,0.047l-1.277,0.048c-0.035,0.003-0.095-0.012-0.169-0.044
		c0.059,0.37,0.091,0.629,0.095,0.779l-0.033,0.144l-0.039,0.063C169.104,143.79,169.028,143.812,168.939,143.829 M165.512,136.836
		L165.512,136.836L165.512,136.836 M163.943,143.425c-0.021,0.004-0.043,0.008-0.066,0.007c-0.485,0.02-0.877-0.446-1.17-1.395
		c-0.1-0.498-0.2-0.988-0.298-1.471c-1.221,1.535-2.32,2.393-3.296,2.577c-0.106,0.02-0.211,0.033-0.314,0.037
		c-0.298,0.011-0.591-0.111-0.878-0.361c-0.287-0.253-0.435-0.529-0.446-0.827c-0.048-1.187,0.587-2.252,1.905-3.194
		c0.896-0.631,1.824-1.035,2.788-1.218c0.355-0.066,0.712-0.103,1.076-0.108l0.168,0.157l0.011,0.262l0,0
		c-0.019,0.004-0.209,0.126-0.575,0.368l0.372,0.167c0.208,0.103,0.313,0.239,0.32,0.413l0,0c-0.003,0-0.022,0.286-0.059,0.856
		c-0.037,0.597-0.054,0.989-0.048,1.177c0.015,0.379,0.108,0.795,0.272,1.248c0.182,0.521,0.396,0.863,0.647,1.028
		C164.219,143.308,164.082,143.398,163.943,143.425 M162.343,138.34c-0.294,0.118-0.594,0.24-0.899,0.368
		c-0.308,0.125-0.722,0.361-1.249,0.707c-0.318,0.214-0.659,0.525-1.021,0.932c-0.557,0.632-0.826,1.193-0.807,1.695
		c0.004,0.106,0.069,0.214,0.195,0.316l0.112-0.004l0.212-0.007c0.049-0.004,0.098-0.009,0.151-0.019
		c0.386-0.073,0.878-0.363,1.479-0.875c0.575-0.511,1.031-1,1.364-1.476c0.217-0.347,0.37-0.644,0.462-0.898
		c0.092-0.251,0.18-0.504,0.265-0.75L162.343,138.34 M155.838,143.267c-0.031,0.006-0.064,0.009-0.103,0.013
		c-0.148,0.003-0.397-0.311-0.746-0.943c-0.19-0.361-0.374-0.719-0.548-1.077c-1.331,1.249-2.512,1.974-3.554,2.171
		c-0.156,0.029-0.31,0.048-0.46,0.053c-0.999,0.039-1.515-0.352-1.547-1.172c-0.023-0.648,0.516-1.409,1.618-2.282
		c0.911-0.722,1.644-1.134,2.204-1.24c0.078-0.015,0.151-0.024,0.224-0.027l0.225,0.074c0.01,0,0.023-0.002,0.04-0.006
		c0.059-0.011,0.146-0.041,0.262-0.089c0.105-0.041,0.193-0.068,0.268-0.083c0.029-0.005,0.057-0.01,0.083-0.011l0.169-0.047
		c0.106-2.505,0.52-4.109,1.236-4.814c0.249,0.14,0.457,0.484,0.628,1.031c0.151,0.454,0.236,0.885,0.251,1.288
		c0.034,0.863-0.122,1.757-0.464,2.675c-0.344,0.922-0.515,1.434-0.511,1.541c0.005,0.095,0.142,0.452,0.407,1.068
		c0.27,0.62,0.476,1.063,0.62,1.326c0.013-0.001,0.007,0.092-0.019,0.275C156.097,143.145,156.004,143.235,155.838,143.267
		 M153.557,139.569c-0.122,0.022-0.471,0.178-1.046,0.464c-0.622,0.309-1.02,0.513-1.192,0.616c-0.767,0.528-1.253,1.136-1.458,1.82
		c0.094,0.029,0.229,0.025,0.406-0.008c0.415-0.079,1.057-0.329,1.93-0.753c1.319-0.647,1.97-1.243,1.947-1.8l-0.049-0.219
		l-0.045-0.143l-0.47,0.02C153.576,139.565,153.568,139.567,153.557,139.569 M155.122,136.566l-0.113,0.959l0.11-0.006l0.097-0.957
		L155.122,136.566"/>
</g>
</svg>
