<?xml version="1.0" encoding="utf-8"?>
<!-- Generator: Adobe Illustrator 16.0.4, SVG Export Plug-In . SVG Version: 6.00 Build 0)  -->
<!DOCTYPE svg PUBLIC "-//W3C//DTD SVG 1.1//EN" "http://www.w3.org/Graphics/SVG/1.1/DTD/svg11.dtd">
<svg version="1.1" id="Calque_1" xmlns="http://www.w3.org/2000/svg" xmlns:xlink="http://www.w3.org/1999/xlink" x="0px" y="0px"
	 width="325px" height="225px" viewBox="0 0 325 225" enable-background="new 0 0 325 225" xml:space="preserve">
<g>
	
		<polyline fill="none" stroke="#B2B2B3" stroke-width="2" stroke-linecap="round" stroke-linejoin="round" stroke-miterlimit="10" points="
		98.239,106.76 164.531,56.013 227.166,105.389 	"/>
	
		<polyline fill="none" stroke="#B2B2B3" stroke-width="2" stroke-linecap="round" stroke-linejoin="round" stroke-miterlimit="10" points="
		190.134,75.671 190.134,62.315 204.579,62.315 204.579,84.358 	"/>
	<g>
		<path fill="#AFC631" d="M116.734,100.743h16.298l5.831,20.717h0.132l5.631-20.717h16.099v31.54H150.39v-24.561h-0.132
			l-7.222,24.561h-8.613l-7.619-24.561h-0.132v24.561h-9.938V100.743L116.734,100.743z"/>
		<path fill="#AFC631" d="M176.689,100.743h13.912l11.793,31.54h-11.527l-1.723-6.008h-11.328l-1.658,6.008h-11.526L176.689,100.743
			z M183.447,106.485h-0.133l-3.908,14.047h8.082L183.447,106.485z"/>
	</g>
	<g>
		<path d="M114.025,138.247h6.164l2.938,13.438h0.058l2.966-13.438h6.133v19.039h-3.801v-15.199h-0.058l-3.657,15.199h-3.226
			l-3.657-15.199h-0.058v15.199h-3.802V138.247L114.025,138.247z"/>
		<path d="M139.099,138.247h5.126l5.444,19.039h-4.32l-0.951-4.026h-5.471l-0.951,4.026h-4.319L139.099,138.247z M139.647,150.111
			h4.032l-1.988-8.559h-0.058L139.647,150.111z"/>
		<path d="M151.159,157.286v-19.039h4.146v19.039H151.159z"/>
		<path d="M161.581,151.339v0.562c0,1.785,0.547,2.934,2.735,2.934c1.269,0,2.478-0.747,2.478-2.346c0-1.734-0.95-2.375-3.687-3.256
			c-3.687-1.174-5.385-2.586-5.385-5.758c0-3.709,2.447-5.601,6.364-5.601c3.686,0,6.365,1.466,6.365,5.119v0.532h-3.975
			c0-1.784-0.662-2.826-2.246-2.826c-1.873,0-2.362,1.094-2.362,2.213c0,1.175,0.375,1.895,2.132,2.588l3.197,1.28
			c3.109,1.253,3.916,2.719,3.916,5.038c0,4.027-2.65,5.842-7.143,5.842c-4.695,0-6.538-2.028-6.538-5.549v-0.772H161.581
			L161.581,151.339z"/>
		<path d="M179.602,137.874c6.222,0,6.998,4.104,6.998,9.894c0,5.785-0.776,9.894-6.998,9.894c-6.221,0-6.996-4.106-6.996-9.894
			C172.604,141.979,173.381,137.874,179.602,137.874z M179.602,154.833c2.448,0,2.853-1.947,2.853-7.065
			c0-5.095-0.403-7.067-2.853-7.067c-2.447,0-2.851,1.974-2.851,7.067C176.751,152.886,177.154,154.833,179.602,154.833z"/>
		<path d="M193.677,138.247l5.011,13.039h0.059v-13.039h3.801v19.039h-4.722l-5.068-13.334h-0.059v13.334h-3.802v-19.039H193.677z"
			/>
	</g>
</g>
</svg>
