<?xml version="1.0" encoding="utf-8"?>
<!-- Generator: Adobe Illustrator 16.0.4, SVG Export Plug-In . SVG Version: 6.00 Build 0)  -->
<!DOCTYPE svg PUBLIC "-//W3C//DTD SVG 1.1//EN" "http://www.w3.org/Graphics/SVG/1.1/DTD/svg11.dtd">
<svg version="1.1" id="Calque_1" xmlns="http://www.w3.org/2000/svg" xmlns:xlink="http://www.w3.org/1999/xlink" x="0px" y="0px"
	 width="325px" height="225px" viewBox="0 0 325 225" enable-background="new 0 0 325 225" xml:space="preserve">
<g>
	<path fill="#030000" d="M117.782,54.707c-3.277-1.571-2.705-3.202-0.467-5.48c7.599-7.729,16.261-13.802,26.293-17.907
		c0.818-0.332,1.642-0.713,2.455-1.084c0.08-0.04,0.11-0.206,0.25-0.501c-6.127-4.894-10.76-11.192-15.307-17.536
		c-0.994-1.39-3.935-3.232-0.878-5.305c3.031-2.062,5.792-0.989,7.393,2.153c3.202,6.293,6.168,12.777,12.868,16.401
		c1.536,0.813,2.61,1.044,4.226,0.251c8.853-4.306,17.646-4.271,26.167,0.928c1.415,0.868,2.369,0.236,3.533-0.366
		c5.335-2.74,9.295-6.795,11.874-12.215c0.884-1.867,2.098-3.634,2.63-5.596c0.813-2.956,2.675-3.448,5.27-3.086
		c3.533,0.497,4.251,1.476,2.429,4.447c-4.266,6.9-9.088,13.395-15.291,18.735c-0.578,0.497-1.21,0.918-2.233,1.681
		c7.924,3.237,15.222,6.82,21.484,12.165c2.148,1.822,4.221,3.764,6.399,5.551c2.469,2.002,2.64,3.744-0.312,5.375
		c-0.261,1.782-1.736,2.545-3.021,3.308c-11.914,7.061-24.271,12.988-38.167,15.227c-11.418,1.842-22.378,0.125-33.018-3.804
		c-7.468-2.77-14.875-5.872-21.445-10.559C119.785,56.674,118.41,56.107,117.782,54.707z"/>
	<path fill="#292928" d="M117.782,54.707c7.905,4.567,15.819,9.104,24.436,12.235c14.394,5.234,28.797,6.153,43.693,1.38
		c11.031-3.548,21.028-8.792,30.664-15.006c0.833,1.27,1.687,2.535,2.52,3.789c0.326,1.792-1.179,2.068-2.213,2.74
		c-2.977,1.44-5.781,3.207-8.657,4.823c-1.185,0.748-2.465,1.29-3.749,1.807c-2.103,0.808-4.221,1.581-6.198,2.675
		c-5.34,1.676-10.771,3.062-16.13,4.638c-10.685,1.245-21.37,1.245-32.07,0.351c-1.796-0.943-3.784-1.3-5.721-1.796
		c-2.68-1.044-5.661-1.149-8.221-2.6c-5.701-2.529-11.453-4.958-17.169-7.448c-1.601-0.712-3.448-1.234-3.563-3.483
		C116.202,57.442,116.995,56.072,117.782,54.707z"/>
	<path fill="#64291F" d="M87.858,123.759c-0.025-0.582-0.058-1.174-0.088-1.751c-0.918-1.992-0.472-4-0.05-5.992
		c0.555-2.62,1.275-5.21,1.29-7.91c1.049-0.432,2.133-0.833,2.168-2.248c3.556-7.292,5.998-15.056,9.591-22.328
		c3.889-7.915,8.316-15.382,16.135-20.266c1.756-1.094,2.996-1.506,4.838-0.547c2.409,1.234,4.958,2.173,7.428,3.267
		c1.44,2.243-0.572,2.54-1.827,3.016c-2.017,0.763-4.195,1.044-6.228,1.807c-7.668,2.791-11.819,9.124-14.96,15.955
		c-4.03,8.778-8.316,17.48-11.009,26.845c-0.745,2.59-1.864,5.114-3.29,7.423C90.987,122.43,90.3,124.487,87.858,123.759z"/>
	<path fill="#763125" d="M117.757,203.341c-6.84-4.894-12.226-11.116-16.594-18.258c1.465-1.576,1.533-1.646,3.245-0.101
		c2.479,2.243,4.858,4.597,7.267,6.916c8.02,7.703,18.022,10.645,28.606,12.18c3.001,0.432,5.892-0.266,8.602-1.621
		c1.852-0.315,3.694-0.351,5.496,0.352c2.083,2.238,4.963,3.528,6.961,5.893c-1.46,5.059-6.529,7.442-12.627,5.952
		c-10.088-3.749-20.587-6.46-30.213-11.428C118.299,203.12,118.003,203.266,117.757,203.341z"/>
	<path fill="#853326" d="M247.36,159.804c-2.379,6.926-4.401,14.002-8.627,20.13c-0.628-1.069-0.115-1.952,0.517-2.775
		c-5.44,7.247-10.811,14.555-18.529,19.673c-1.866-0.024-3.914,2.043-5.565-0.477c0.487-2.374,2.726-2.931,4.326-4.141
		c8.964-6.825,16.477-14.925,21.054-25.329c2.339-5.314,3.377-11.076,4.176-16.838c1.605-7.658,1.636-15.196-1.586-22.509
		c-0.241-0.526-0.387-1.059-0.462-1.616c-1.947-8.21-5.571-15.794-8.868-23.473c-2.435-5.666-5.18-11.231-8.206-16.637
		c-2.544-4.537-5.57-8.672-10.027-11.553c-0.963-0.713-1.882-1.445-2.067-2.74c2.138-1.887,3.829-0.181,5.4,0.868
		c5.274,3.528,8.426,8.813,11.362,14.238c0.547,1.009,0.963,2.098,1.621,3.041c0.486,0.823,0.848,1.687,1.199,2.57
		c1.455,3.453,2.454,7.116,4.477,10.333c0.312,0.457,0.542,0.938,0.758,1.43c3.017,8.196,6.78,16.091,9.26,24.492
		c1.305,4.401,1.305,8.848,1.495,13.319c0.051,1.009-0.296,2.067,0.553,2.916c0.216,1.279,1.756,1.29,2.228,2.318
		c-1.551,1.717-1.982,3.794-2.218,6.022C249.373,155.452,249.263,157.946,247.36,159.804z"/>
	<path fill="#8A3528" d="M149.305,202.738c-2.886,3.348-6.745,2.65-10.369,2.238c-14.178-1.596-25.595-8.376-34.978-18.936
		c-0.605-0.683-1.104-2.94-2.795-0.958c-2.801-3.669-4.949-7.694-6.685-11.97c2.105-2.048,3.084,0.171,4.075,1.27
		c2.035,2.273,3.704,4.873,6.426,6.469c3.473,3.082,6.665,6.435,10.374,9.3c5.786,4.492,12.311,5.656,19.332,5.36
		c1.159-0.051,2.309-0.307,3.488-0.171c3.182,0.512,6.289,1.26,9.064,2.996C148.652,199.451,149.591,200.801,149.305,202.738z"/>
	<path fill="#7F3125" d="M87.858,123.759c4.497-3.106,5.149-8.306,6.979-12.853c5.031-12.446,8.778-25.515,17.832-35.954
		c2.333-2.69,5.179-4.547,8.752-5.134c0.191,2.695-2.118,3.959-3.322,5.867c-6.284,6.062-9.606,13.827-12.597,21.801
		c-0.765,2.038-1.676,4.03-2.602,6.013c-4.429,5.5-4.871,12.677-7.95,18.765c-1.619,3.202-3.144,6.494-3.992,10.037
		c-0.853,3.523-1.471,7.066-1.353,10.715c0.058,1.812,0.033,3.639-1.556,4.954c-0.474,0.286-0.853,0.21-1.142-0.262
		c0.025-6.358,0.015-12.717,0.128-19.065C87.055,127.001,86.975,125.28,87.858,123.759z"/>
	<path fill="#8C3D2D" d="M87.489,148.155c1.694-2.144,0.914-4.678,1.006-7.036c0.181-4.768,1.114-9.33,2.929-13.757
		c2.266-5.565,5.237-10.83,6.527-16.798c0.622-2.87,2.391-5.34,4.113-7.738c1.659,0.873,0.858,2.168,0.501,3.303
		c-0.421,1.345-1.031,2.629-1.139,4.04c-0.72,3.187-2.549,5.997-3.084,9.249c-3.776,9.154-6.306,18.539-5.443,28.592
		c0.138,1.666,0.196,3.342,0.5,4.988c0.173,8.241,3.694,15.212,8.21,21.807c0.53,2.419,3.747,3.754,2.74,6.78
		c-2.524-1.37-4.09-3.679-5.884-5.802c-1.011-1.189-1.5-3.554-3.987-2.675c-1.671-3.905-3.335-7.81-5.006-11.719
		c-1.696-3.579-2.098-7.488-2.785-11.312C86.548,149.319,86.661,148.562,87.489,148.155z"/>
	<path fill="#53241B" d="M129.631,66.641c-0.948-0.432-1.872-0.873-2.82-1.28c-2.389-0.979-6.033-3.423-6.931-2.655
		c-2.695,2.299-6.233,3.393-8.497,6.313c-3.875,4.999-7.559,10.058-10.035,15.91c-2.529,5.937-5.099,11.869-7.704,17.766
		c-0.54,1.235-0.683,2.871-2.472,3.167c1.28-5.265,2.76-10.464,5.134-15.362c0.206-2.72,2.62-4.758,2.318-7.628
		c0.105-4.768,3.194-8.431,4.665-12.697c1.628-0.14,2.341-1.294,3.014-2.589c1.044-2.063,2.369-3.995,3.267-6.108
		c1.179-2.815,2.705-4.351,5.827-2.655c2.991,2.881,7.066,3.593,10.62,5.33c3.604,1.757,7.333,3.222,11.006,4.818
		C133.687,70.998,131.659,68.81,129.631,66.641z"/>
	<path fill="#592219" d="M235.982,79.65c2.7,7.317,5.396,14.629,8.086,21.947c0.643,1.731,0.432,3.909,2.539,4.878
		c-0.07,2.534,2.51,5.034,0.11,7.604c-3.041-1.525-4.015-4.547-5.149-7.373c-4.165-10.373-8.005-20.872-14.178-30.328
		c-2.896-4.437-6.158-8.512-10.183-12.015c-1.626-1.405-3.132-3.077-0.241-4.833c3.875,1.822,6.524,5.114,9.405,8.095
		c3.357,3.488,5.455,7.959,8.803,11.448C235.517,79.168,235.787,79.369,235.982,79.65z"/>
	<path fill="#6B3428" d="M149.566,213.845c4.763,1.145,8.521-0.537,11.513-5.149c2.042-1.61,4.466-2.157,6.966-2.484
		c2.73,3.514,1.636,7.614,1.762,11.533c-0.065,0.176-0.126,0.337-0.186,0.512c-0.553,2.53-1.958,3.282-4.617,2.981
		c-5.069-0.562-10.158-0.823-15.077-2.334C149.872,217.207,148.381,215.627,149.566,213.845z"/>
	<path fill="#67291F" d="M223.19,200.003c-9.596,10.128-21.5,15.955-35.016,18.775c-0.582,0.07-1.149-0.021-1.687-0.266
		c-1.832-2.148-0.085-3.398,1.38-4.256c2.636-1.557,5.416-2.846,8.281-3.976c6.896-2.715,13.892-5.229,20.175-9.284
		c1.832-0.878,3.453-2.203,5.456-2.69C223.311,197.931,223.451,198.166,223.19,200.003z"/>
	<path fill="#682B20" d="M149.566,213.845c-0.401,1.727,2.349,3.222,0.361,5.059c-11.985-2.589-22.946-7.292-32.175-15.562
		c0-1.45,0.717-1.28,1.731-0.843c6.103,2.635,12.185,5.244,18.529,7.316C141.882,211.074,145.998,211.722,149.566,213.845z"/>
	<path fill="#642A20" d="M217.128,59.655c-1.235,1.375-1.375,2.359,0.321,3.749c9.439,7.749,14.574,18.438,19.537,29.224
		c3.277,7.117,4.743,15.057,9.877,21.305c1.602,1.516,2.264,3.468,2.686,5.551c-0.342,0.336-0.693,0.683-1.034,1.019
		c-3.282-1.746-4.481-5.009-5.912-8.101c-4.647-10.037-8.406-20.481-13.716-30.222c-1.731-3.167-3.674-6.213-6.118-8.898
		c-2.991-3.308-6.323-6.022-10.961-6.74c-1.616-0.251-3.302-0.743-4.11-2.504c2.886-1.667,5.591-3.619,8.773-4.712
		c0.256-0.131,0.441-0.131,0.547,0.015C217.117,59.475,217.158,59.58,217.128,59.655z"/>
	<path fill="#702A20" d="M207.692,64.026c9.676,1.822,16.486,7.433,21.079,15.955c2.243,4.181,4.477,8.412,6.424,12.737
		c3.021,6.695,5.681,13.561,8.732,20.246c1.194,2.649,3.041,5.034,4.587,7.528c0.07,0.934,0.141,1.852,0.226,2.79
		c-0.607,2.851-1.892,1.335-2.604,0.221c-1.028-1.616-1.797-3.423-2.539-5.214c-1.987-4.753-3.453-9.727-5.947-14.269
		c-0.126-0.336-0.262-0.683-0.392-1.023c-2.033-3.303-2.675-7.227-4.753-10.5c-0.552-0.567-0.838-1.26-0.818-2.058
		c-2.675-5.41-5.324-10.831-9.61-15.232c-3.393-3.488-7.338-5.927-12.211-6.88c-2.022-0.396-4.521-0.09-5.686-2.544
		C205.344,65.206,206.518,64.614,207.692,64.026z"/>
	<path fill="#7B2A1F" d="M223.19,200.003c0.462-1.831-0.643-1.108-1.436-0.878c-1.827,0.517-3.031,2.379-5.109,2.323
		c-1.565,0.879-3.137,1.752-4.798,2.425c-1.254,0.507-2.6,1.345-3.844-0.096c0.582-2.464,3.062-2.429,4.697-3.428
		c2.494-1.511,4.938-3.202,7.824-3.995c7.257-6.027,13.164-13.354,19.588-20.28c-0.462,1.29-0.918,2.574-1.38,3.864
		C234.975,187.732,229.75,194.388,223.19,200.003z"/>
	<path fill="#6B3428" d="M186.624,218.041c0.517,0.24,1.034,0.491,1.546,0.737c-5.124,1.867-10.515,1.907-15.854,2.459
		c-2.534,0.267-1.476-2.299-2.694-2.976l-0.056-0.291c0.195-2.224-0.221-4.507,0.748-6.646c1.706-2.032,3.644-1.847,5.34-0.19
		C178.835,214.241,182.76,216.073,186.624,218.041z"/>
	<path fill="#4D2118" d="M217.128,59.655c-0.227-0.105-0.442-0.221-0.663-0.336c0.793-0.823,2.174-0.968,2.63-2.213
		c2.931-1.545,4.246,0.041,5.701,2.459c1.731,2.861,2.681,6.303,5.616,8.371c1.771,3.804,4.401,7.237,5.185,11.493
		c-0.547,0.959-1.265,1.506-1.928,0.201C229.685,71.7,223.351,65.718,217.128,59.655z"/>
	<path fill="#100100" d="M89.01,108.105c1.154,0.718,1.463,1.717,1.006,2.981c-1.26,3.538-1.624,7.257-2.246,10.921
		c-4.748-2.083-6.582-4.356-5.91-7.789C82.616,110.404,84.945,108.181,89.01,108.105z"/>
	<path fill="#171006" d="M87.489,148.155c0.658,4.411,1.31,8.828,1.978,13.239c-7.179-0.919-10.341-5.45-7.39-10.63
		c1.064-1.847,2.472-3.212,4.821-3.051C87.083,147.889,87.271,148.024,87.489,148.155z"/>
	<path fill="#78281E" d="M237.645,104.021c2.058,1.134,2.112,3.413,2.94,5.229c2.008,4.427,3.232,9.194,5.887,13.34
		c0.582,0.924,0.854,2.6,2.259,0.692c1.892,7.076,0.732,14.283,0.889,21.44c-1.015,0.311-1.104-0.497-1.069-1.069
		c0.607-12.221-4.612-22.91-8.888-33.841C238.919,107.905,238.326,105.947,237.645,104.021z"/>
	<path fill="#0E0000" d="M103.296,70.174c0.535,0.522,1.377,1.024,0.745,1.872c-2.394,3.227-3.212,7.197-5.184,10.625
		c-0.13,0.251-0.258,0.332-0.392,0.251c-0.161-0.11-0.226-0.186-0.201-0.256c-2.755-1.792-4.04-4.261-2.903-7.453
		C96.661,71.564,99.273,69.667,103.296,70.174z"/>
	<path fill="#0E0000" d="M249.538,119.468c-1.872-1.364-2.067-3.548-2.68-5.545c1.023-2.52-2.123-4.903-0.241-7.448
		c3.554,0.537,6.313,2.243,6.826,5.992C253.869,115.554,252.569,118.104,249.538,119.468z"/>
	<path fill="#1C0C00" d="M247.36,159.804c0.702-3.699,1.445-7.383,2.088-11.097c0.251-1.476,0.742-2.328,2.398-1.671
		c2.39,1.661,3.704,3.949,2.991,6.825C253.904,157.636,251.074,159.367,247.36,159.804z"/>
	<path fill="#140000" d="M235.597,79.429c-2.646-3.011-3.097-7.247-5.752-10.258c-0.125-0.146,0.356-0.823,0.567-1.24
		c3.418-0.376,5.762,1.456,7.081,4.236c1.235,2.62,0.583,5.305-1.511,7.483C235.893,79.514,235.757,79.439,235.597,79.429z"/>
	<path fill="#64291F" d="M98.27,82.666c0.201-0.055,0.396-0.055,0.587,0.005c0.58,3.071-1.588,5.25-2.544,7.819
		C96.071,87.66,98.834,85.582,98.27,82.666z"/>
	<path fill="#1F1A18" d="M191.763,53.789c-4.01,1.3-7.894,3.171-10.338,6.539c-5.521,7.593-12.828,9.696-21.641,8.331
		c-6.866-1.064-13.46-2.88-19.377-6.71c-3.132-2.022-5.245-4.843-7.142-7.935c2.881-0.848,5.43,0.848,8.17,1.054
		c1.546,1.917,1.817,4.798,4.457,5.902c0.296,0.19,0.572,0.421,0.853,0.642c1.907,1.345,3.97,2.249,6.273,2.62
		c0.708,0.06,1.416,0.13,2.118,0.321c4.015,1.254,8.061,2.283,12.256,0.743c2.007-1.014,4.015-1.998,6.032-3.001
		c5.354-6.022,3.789-11.473-3.904-13.229c-4.387-0.999-8.582-2.64-12.918-3.784c-1.254-0.332-2.449-0.843-2.906-2.269
		c-0.015-1.736,0.452-3.202,2.198-3.959c6.188,5.234,14.309,5.003,21.465,7.533c1.536,0.542,3.076,0.452,3.824-1.435
		c0.161-0.096,0.326-0.181,0.492-0.271c2.855,1.245,3.824,4.627,6.675,5.876C189.425,51.836,191.262,52.067,191.763,53.789z"/>
	<path fill="#CBC7C6" d="M130.841,51.946c-7.352-8.657-6.579-6.905,1.927-12.838c6.178-4.316,13.154-6.971,20.471-8.762
		c3.072-0.753,4.286-0.181,3.132,3.151c-0.412,1.205-0.452,2.535-0.662,3.81c0.146,1.992-1.255,3.448-1.782,5.204
		c-1.676,1.456-2.816-0.276-4.06-0.803c-4.718-2.023-11.955-0.392-15.242,3.353c-1.962,2.258-1.039,5.25-2.333,7.613
		C131.684,52.694,131.177,52.503,130.841,51.946z"/>
	<path fill="#D0CDCC" d="M177.695,35.219c-1.671-5.666-1.274-6.138,4.171-4.914c8.793,1.978,16.702,5.872,24.085,11.001
		c2.098,1.456,2.539,2.815,0.873,4.974c-1.877,2.419-3.518,5.034-6.614,6.108c-2.766-0.105-2.756-2.258-2.996-4.141
		c-0.729-5.485-6.134-10.77-11.714-10.645C182.458,37.653,180.02,36.9,177.695,35.219z"/>
	<path fill="#E4E2E1" d="M177.695,35.219c0.256-0.271,0.537-0.537,0.799-0.808c2.098,2.78,5.028,1.887,7.898,2.078
		c5.832,0.412,11.312,6.313,11.714,12.025c0.11,1.636,0.522,3.051,2.093,3.864c-2.549,2.048-5.535,1.486-8.437,1.411
		c-1.27-1.074-3.327-0.874-4.21-2.585c2.233-2.087,4.421-4.186,3.769-7.693c-0.271-1.456-0.788-2.74-2.313-3.288
		c-1.626-0.582-3.036-0.141-4.171,1.125c-1.124,1.225-2.138,2.56-3.593,3.413l0.101,0.216l-0.171,0.166
		C180.02,41.834,178.223,38.747,177.695,35.219z"/>
	<path fill="#4B4544" d="M153.26,42.983c0.813-1.887,1.636-3.784,2.459-5.676c0.522,0.527,0.366,1.139,0.176,1.741
		c-0.557,1.42-1.114,2.841-1.671,4.256c0.07,1.46,0.04,2.54,2.289,2.53c5.084-0.041,9.861,1.807,14.414,3.839
		c5.676,2.535,6.579,8.994,2.269,13.751c-1.797,0.914-3.604,1.832-5.4,2.745c-0.809,0.231-1.516,0.075-2.078-0.572
		c-0.382-0.954,0.291-1.385,0.903-1.847c1.124-0.652,2.389-1.014,3.493-1.696c2.911-3.157,2.635-7.197-0.938-9.234
		c-2.62-1.486-5.335-2.971-8.457-3.222c-2.073-0.075-4.105,0.146-6.128,0.527c-5.014,0.904-5.274,0.567-3.628-4.25
		C151.493,44.729,151.925,43.49,153.26,42.983z"/>
	<path fill="#35302E" d="M130.841,51.946c0.507,0.161,0.999,0.321,1.496,0.492c0.577-0.281,1.16-0.241,1.762-0.096
		c2.705,1.35,5.631,1.22,8.532,1.24c1.18,0.171,2.474,0.447,2.755,1.747c0.989,4.507,4.391,6.409,8.186,7.99
		c0.482,0.201,0.823,0.602,1.144,1.014c0.065,0.196,0.116,0.381,0.171,0.567c-0.567,0.386-1.159,0.276-1.736,0.035
		c-2.61-0.502-4.994-1.511-7.142-3.102l0,0c-2.083-1.536-3.539-3.503-4.171-6.033c-2.971-0.055-5.856-0.502-8.562-1.787
		C132.452,53.342,131.117,53.261,130.841,51.946z"/>
	<path fill="#F1F0F0" d="M162.213,34.085c-0.522,0.808-0.652,1.922-1.857,1.736c-1.24-0.19-2.007-5.565-1.174-7.939
		c0.311-0.903,1.245-1.922,1.777-1.38C163.076,28.68,162.278,31.51,162.213,34.085z"/>
	<path fill="#F5F5F5" d="M173.535,26.461c0.964,0.934,1.314,2.148,1.255,3.463c-0.08,1.857,0.582,3.905-1.054,5.451
		c-0.577,0.542-1.104,0.311-1.581-0.301c-0.959-1.205-0.929-7.097,0.055-8.226C172.582,26.421,172.948,26.181,173.535,26.461z"/>
	<path fill="#040000" d="M150.249,73.808c1.044-0.472,2.078-1.084,3.287-0.863c8.923,1.661,17.822,0.893,26.724-0.055
		c0.733-0.075,1.486,0.306,2.239,0.487c1.39,0.146,1.62,1.38,2.157,2.338c1.22,2.459,0.949,5.104,0.894,7.719
		c-0.211,1.516-0.903,2.926-1.054,4.457c-0.913,2.951-2.761,5.189-5.31,6.865c-1.386,0.653-2.66,1.506-4.011,2.198
		c-1.084,0.462-2.197,0.753-3.387,0.462c-1.064-0.341-1.918-1.004-2.048-2.108c-0.472-3.829-2.118-7.408-2.419-11.146
		c-0.943,2.022-2.781,1.812-4.497,1.42c-3.759-0.863-7.468-1.917-11.428-1.696c-2.007,0.1-2.991-1.235-3.157-3.192
		c-0.125-1.556-0.06-3.102,0.181-4.632C148.703,75.042,149.074,74.099,150.249,73.808z"/>
	<path fill="#8C2119" d="M183.939,75.745c-0.492-0.793-0.969-1.586-1.44-2.369c4.878-2.74,10.469-3.292,15.678-5.029
		c3.714-0.211,7.393,0.05,11.026,0.743c1.752,0.326,3.568,0.643,4.437,2.54c0.843,0.663,1.687,1.305,2.545,1.967
		c0.622,1.004,2.403,1.767,1.425,3.162c-1.396,1.968-3.303,0.081-4.983,0.231c-1.18-0.11-2.374-0.141-3.448-0.743
		c-3.166-2.555-6.825-1.666-10.338-1.315C193.871,75.449,188.963,76.528,183.939,75.745z"/>
	<path fill="#972019" d="M150.249,73.808c-0.396,0.963-0.788,1.937-1.185,2.901c0,0.597-0.221,1.094-0.667,1.495
		c-3.679,0.783-7.353,0.342-11.026-0.07c-2.936-0.327-5.832-0.361-8.712,0.391c-2.389-0.522-4.778-1.023-7.237-0.983
		c-1.516-1.174-0.341-2.018,0.417-2.78c1.014-1.014,2.379-1.501,3.689-2.028c2.73-1.003,5.581-1.104,8.411-0.923
		c3.744,0.236,7.468-0.101,11.202-0.141C146.906,72.232,149.194,71.535,150.249,73.808z"/>
	<path fill="#801F18" d="M145.134,71.68c-3.347,1.927-7.016,1.164-10.554,1.084c-2.966-0.075-5.877,0.06-8.793,0.612
		c-2.875-0.191-5.169,2.791-8.241,1.505c1.29-1.686,2.59-3.382,3.875-5.059c2.449-1.787,6.062-0.623,8.21-3.177
		c2.495,0.683,4.583,2.675,7.398,2.323C139.729,69.868,142.429,70.777,145.134,71.68z"/>
	<path fill="#78281E" d="M213.635,71.63c-3.252-1.646-6.775-2.108-10.339-2.128c-1.842-0.01-3.508-0.341-5.119-1.154
		c1.747-1.44,3.895-1.938,5.992-2.564c0.833,0.326,1.656,0.843,2.52,0.948c14.288,1.626,20.406,11.869,24.988,23.708
		c-2.198-1.606-2.645-4.301-3.96-6.459c-2.645-4.316-5.591-8.326-9.816-11.197C216.701,71.986,215.336,70.938,213.635,71.63z"/>
	<path fill="#801F18" d="M149.305,202.738c-0.642-1.124-1.285-2.253-1.917-3.383c0.853-2.91,3.368-4.431,5.511-6.122
		c2.941-2.304,5.736-4.668,8.105-7.584c1.696-2.087,3.709-3.954,6.72-3.944c2.098,3.106,1.284,6.379,0.526,9.651
		c-3.879,2.78-6.729,6.705-10.514,9.596c-1.104,0.848-2.018,2.018-3.533,2.208C152.537,203.17,150.861,203.622,149.305,202.738z"/>
	<path fill="#712018" d="M154.193,203.16c4.647-3.824,8.05-9.079,13.601-11.874c1.194,0.301,1.124,1.314,1.099,2.157
		c-0.125,4.392,1.159,8.889-0.969,13.135c-2.077,1.319-4.446,1.776-6.835,2.112C158.243,207.521,155.548,206.161,154.193,203.16z"/>
	<path fill="#943A2B" d="M243.386,125.938c0.13,0.341,0.266,0.683,0.401,1.028c2.56,7.438,2.339,15.127,1.962,22.811
		c-1.866,19.844-12.331,34.263-28.445,45.113c-0.748,0.501-1.602,0.843-1.968,1.751c-5.907,4.512-15.849,5.26-20.732,1.576
		c0.793-3.669,4.417-3.749,6.831-5.355c4.772-0.652,9.38-2.058,14.057-3.146c3.935-0.974,6.771-3.709,9.656-6.264
		c7.839-6.955,14.685-14.624,16.723-25.395c1.826-9.686,1.089-19.302-1.034-28.848c-0.657-3.006-1.29-6.077-2.966-8.768
		c-2.705-7.658-6.078-15.035-9.711-22.298c-1.265-2.549-2.439-5.124-4.387-7.252c-0.793-1.335-1.571-2.68-0.974-4.316
		c2.806-1.837,3.653,0.712,4.552,2.278c2.831,4.898,5.189,10.047,7.478,15.197C237.995,111.213,240.977,118.47,243.386,125.938z"/>
	<path fill="#833527" d="M194.559,197.8c6.158,3.734,12.17,1.185,18.192-0.427c0.863-0.23,1.727-0.486,2.585-0.728
		c1.781,0.914,3.408-1.189,5.189-0.291c-3.709,3.182-8.16,5.084-12.437,7.287c-2.735,3.453-16.606,7.232-20.386,5.525
		c-1.185-0.542-2.153-1.415-2.977-2.434c-0.787-1.274-0.923-2.625-0.491-4.05c1.399-2.465,3.452-4.261,5.962-5.561
		C191.733,196.816,193.349,196.049,194.559,197.8z"/>
	<path fill="#8C3426" d="M243.386,125.938c-2.018-4.844-4.085-9.691-6.053-14.56c-3.066-7.599-6.735-14.905-10.6-22.123
		c-0.713-1.315-1.245-3.347-3.599-2.489c-0.878-0.04-1.37-0.637-1.727-1.31c-1.821-3.428-4.21-6.269-7.834-7.905
		c-0.577-0.256-0.964-0.803-1.014-1.49c0.492,0,1.004-0.05,1.49,0.025c0.969,0.161,1.958,1.355,2.821,0.532
		c1.179-1.114-0.729-1.927-0.688-3.032c5.952,3.664,9.193,9.531,12.245,15.458c5.581,10.86,10.208,22.152,14.529,33.564
		C243.355,123.694,243.938,124.738,243.386,125.938z"/>
	<path fill="#8C3426" d="M245.749,149.776c-0.958-5.938,0.096-12.015-1.249-17.962c-0.361-1.556-1.48-3.106-0.713-4.858
		C247.476,134.309,247.159,141.997,245.749,149.776z"/>
	<path fill="#78281E" d="M232.5,92.498c2.865,2.911,3.488,6.846,4.753,10.5C234.396,100.066,233.765,96.131,232.5,92.498z"/>
	<path fill="#8D221A" d="M167.623,181.896c-3.092,1.426-5.26,3.87-7.618,6.269c-3.925,4.005-8.386,7.493-12.617,11.191
		c-3.001-1.661-6.354-2.268-9.571-3.276c-0.592-0.638-0.752-1.351-0.381-2.153c0.693-1.039,1.762-1.485,2.886-1.802
		c6.233-1.747,10.846-5.711,14.685-10.72c1.185-1.536,2.429-2.996,3.825-4.342c2.77-2.328,4.447-6.133,8.712-6.429
		C169.565,174.368,169.556,178.127,167.623,181.896z"/>
	<path fill="#9B3A2B" d="M137.722,194.327c0.03,0.582,0.06,1.169,0.095,1.752c-12.742,2.564-22.393-2.946-30.765-11.784
		c-0.868-0.929-1.802-1.807-2.703-2.705c-0.166-2.569-3.3-3.684-3.139-6.414c0.615-0.241,1.192-0.105,1.742,0.195
		c2.289,1.682,4.08,3.895,6.304,5.666c3.091,2.465,6.253,4.457,10.434,3.81c3.92,2.219,8.07,3.939,12.17,5.752
		C133.938,191.637,136.517,191.913,137.722,194.327z"/>
	<path fill="#8B2A1F" d="M117.546,74.882c2.786-0.316,5.209-2.589,8.241-1.505c-1.365,1.395-4.346,1.054-4.306,3.975
		c0.02,0.186,0.03,0.372,0.03,0.562c-5.29,3.373-7.393,9.165-10.594,14.133c-1.762,0.843-2.369,2.56-3.087,4.181
		c-1.545,3.498-3.003,7.006-4.584,10.474c-0.562,1.255-1.044,2.63-2.544,3.142c-0.961-2.609,2.349-4.396,1.357-7.016
		c2.178-5.049,4.527-10.027,6.504-15.151C110.53,82.621,113.762,78.576,117.546,74.882z"/>
	<path fill="#A3523E" d="M102.653,175.788c-0.481-0.201-0.966-0.411-1.448-0.612c-5.144-6.238-8.454-13.204-8.481-21.46
		c0.068-1.691,0.103-3.388,1.425-4.697c1.576-0.954,2.178,0.381,2.56,1.35c2.732,6.79,5.982,13.396,7.724,20.547
		c0.394,1.596,0.778,3.317-0.464,4.788C103.569,176.164,103.105,176.189,102.653,175.788z"/>
	<path fill="#9E3426" d="M100.711,109.853c2.404-5.546,4.795-11.106,7.224-16.642c0.658-1.476,1.14-3.533,3.458-1.667
		c1.681,1.656,1.465,3.398,0.201,5.18c-3.327,4.948-4.938,10.699-7.496,16.02c-1.558,4.286-2.931,8.632-3.784,13.124
		c-0.394,2.098-0.52,4.306-1.854,6.128c-0.314,0.326-0.7,0.437-1.142,0.346c-2.168-2.785-0.893-5.866-0.692-8.827
		c0.088-1.376,0.898-2.646,0.806-4.075C97.318,115.824,99.683,113.069,100.711,109.853z"/>
	<path fill="#9D4231" d="M97.427,119.438c-0.108,4.165-0.236,8.341-0.354,12.511c0.108,5.145-0.597,10.233-1.074,15.327
		c-0.062,0.647-0.466,1.185-1.117,1.476c-0.712,1.646-1.438,3.303-2.153,4.959c-1.443-8.015-1.443-15.93,0.946-23.834
		C94.739,126.318,95.891,122.811,97.427,119.438z"/>
	<path fill="#533029" d="M167.623,181.896c0.321-3.724,0.552-7.438-0.15-11.151c-1.074-2.489-1.1-4.943,0.291-7.342
		c0.612-0.222,1.164-0.091,1.696,0.266c1.576,1.591,1.084,3.618,1.189,5.525c0.216,3.137-0.021,6.273,0.141,9.41
		c0.165,2.574,0.155,5.154,0.115,7.729c0.211,4.065-0.055,8.136,0.241,12.206c-0.382,2.905,0.221,5.816-0.021,8.728
		c-0.035,1.575-0.211,3.151-0.467,4.707c-0.692,1.938,0.116,4.155-1.099,5.998c-1.346-3.685,0.08-7.754-1.637-11.388
		c0.136-5.1,0.422-10.198-0.13-15.297C168.005,188.154,168.275,185.018,167.623,181.896z"/>
	<path fill="#6E3226" d="M170.664,211.968c-0.707-1.44-0.446-2.986-0.486-4.497c1.119-1.078,2.545-1.139,3.93-0.908
		c3.634,0.593,7.191-1.561,10.825-0.251c3.167,2.981,6.7,2.806,10.604,1.597c4.221-1.306,8.672-1.907,12.547-4.271
		c3.207,0.703,5.541-2.083,8.552-2.193c-1.46,1.912-3.559,2.82-5.681,3.719c-7.037,2.972-14.093,5.917-21.094,8.984
		c-1.621,0.712-3.864,1.184-3.232,3.889c-4.678-0.105-8.146-2.659-11.167-5.826C173.746,210.427,172.36,210.151,170.664,211.968z"/>
	<path fill="#F7F7F7" d="M181.254,44.76c0.441-2.068,2.148-3.383,3.423-4.748c2.529-2.675,6.72-0.989,7.543,2.76
		c0.884,4.105-0.737,7.046-4.662,8.431C184.501,49.989,183.276,46.973,181.254,44.76z"/>
	<path fill="#352F2E" d="M173.194,63.424c3.668-8.351,0.908-13.25-9.064-15.563c-3.684-0.863-7.442-2.068-11.382-0.392
		c-0.02-1.816,0.863-2.931,1.476-4.166c5.36,1.727,10.655,3.604,16.19,4.848c3.122,0.708,6.735,1.516,7.137,5.922
		C177.922,58.054,176.17,61.959,173.194,63.424z"/>
	<path fill="#35302E" d="M165.66,65.256c0.713,0.296,1.421,0.603,2.134,0.914c-4.487,1.521-8.803,1.205-12.918-1.27l-0.02-0.116
		C158.529,63.379,162.133,63.54,165.66,65.256z"/>
	<path fill="#352F2E" d="M141.827,55.801c1.395,2.022,2.79,4.025,4.175,6.042C143.363,60.694,141.265,59.173,141.827,55.801z"/>
	<path fill="#352F2E" d="M146.008,61.833c2.379,1.034,4.757,2.062,7.142,3.102C150.299,64.995,147.905,63.981,146.008,61.833z"/>
	<path fill="#E2E0DF" d="M133.737,53.111c-0.472-0.231-0.934-0.462-1.4-0.683c-1.199-6.263,2.304-10.785,8.341-11.95
		c4.728-0.918,8.999-1.445,12.582,2.504c-0.492,1.215-0.984,2.429-1.48,3.644c-0.367,0.105-0.728,0.085-1.069-0.04
		c-4.472-4.477-8.06-4.592-13.159-0.452c-1.265,1.029-2.108,2.178-1.938,3.895C135.774,51.505,135.734,52.925,133.737,53.111z"/>
	<path fill="#6D6766" d="M151.292,46.446c0.15,0.081,0.316,0.131,0.487,0.181c-0.376,1.009-0.748,2.033-1.225,3.312
		c3.668-0.612,6.931-1.847,10.374-1.109c2.981,0.452,5.611,1.902,8.206,3.232c4.281,2.188,4.612,7.287,0.929,10.865
		c-0.894,0.753-1.907,1.16-3.066,1.225c-0.612,0.171-1.129,0.041-1.501-0.492c0.035-1.445,1.315-1.722,2.229-2.364
		c2.67-1.877,2.916-3.659,0.863-6.033c-4.141-4.812-13.059-5.827-17.987-2.042c-1.862,1.43-1.907,4.186,0,6.012
		c0.903,0.884,2.158,1.426,2.249,2.931c-3.312,0.858-6.976-2.5-6.745-6.278c0.095-1.265,0.542-2.5,0.261-3.799
		C147.648,49.909,148.632,47.439,151.292,46.446z"/>
	<path fill="#5D5655" d="M165.565,63.51c0.481,0.21,0.959,0.421,1.426,0.642c-0.442,0.361-0.889,0.738-1.331,1.104
		c-3.593-0.15-7.201-0.316-10.805-0.472c-4.647-1.877-9.551-3.443-10.363-9.541c-0.116-0.918-1.4-0.296-1.982-0.803
		c0.602-2.314,2.263-2.083,3.995-1.691c0.617,0.13,1.44-0.291,0.999,1.174c-1.38,4.698-0.02,6.715,5.119,8.241
		C157.014,61.924,161.33,62.335,165.565,63.51z"/>
	<path fill="#5D5655" d="M170.052,62.927c3.559-5.792,2.505-9.043-3.854-11.824c-1.757-0.753-3.514-1.516-5.27-2.273
		c3.87,0.055,7.227,1.776,10.027,4.075C174.559,55.841,173.877,60.99,170.052,62.927z"/>
	<path fill="#FDFCFC" d="M146.515,52.745c-1.35,0.507-2.886,0.592-3.99,1.691c-3.016,0.171-6.107,0.783-8.783-1.325
		c0.502-0.532,1.481-0.934,1.165-1.817c-0.999-2.75,0.035-4.552,2.298-6.123c3.026-2.093,6.148-3.744,9.952-3.011
		c2.299,0.452,2.771,2.855,4.146,4.286C150.359,49.036,147.895,50.481,146.515,52.745z"/>
	<path fill="#BC201A" d="M178.424,94.214c2.298-1.776,4.095-3.965,5.34-6.6c3.463-1.892,7.001-2.444,10.699-0.683
		c0.08,0.376,0.201,0.798,0.011,1.125c-5.771,10.313-5.13,21.114-2.51,32.07c0.136,1.084-0.472,1.947-0.854,2.886
		c-1.816,4.456-1.124,8.431,2.249,11.939c0.817,0.857,2.283,1.37,1.927,3.006c-1.746,0.938-1.244,2.469-1.284,4.025
		c-0.086,3.156,2.438,5.941,1.184,9.209c-2.905,2.168-5.455,2.429-7.729-1.029c-1.641-2.529-4.793-2.058-7.217-3.046
		c-1.104-1.18-0.813-2.625-0.763-4.03c0.221-6.67,0.301-13.314-0.361-19.994c-0.863-8.552-0.663-17.185-1.611-25.736
		C177.359,96.181,177.34,95.037,178.424,94.214z"/>
	<path fill="#BD3224" d="M178.424,94.214c0.557,10.103,0.822,20.235,1.791,30.308c0.703,7.463,0.261,14.855,0.061,22.283
		c0.226,0.658-0.021,1.175-0.527,1.606c-1.244,0.392-2.408,0.261-3.442-0.622c-0.673-1.325-0.587-2.751-0.527-4.15
		c0.647-14.545-0.718-29.004-1.696-43.482c-0.095-1.375-0.567-2.851,0.959-3.824C175.979,95.333,177.139,94.661,178.424,94.214z"/>
	<path fill="#312B29" d="M148.241,78.014c0.286-0.432,0.552-0.863,0.823-1.305c0,0.763,0.05,1.521-0.01,2.278
		c-0.256,2.991,0.598,4.738,4.085,4.015c3.433-0.723,6.514,1.124,9.792,1.585c3.453,0.487,3.448,0.532,4.582-3.116
		c1.004,4.291,2.032,8.186,2.79,12.135c0.286,1.48,0.372,2.805,2.038,3.307c-0.035,0.863-0.657,1.18-1.335,1.45
		c-0.692,0.176-1.4,0.216-2.103,0.266c-1.411,0.07-2.836-0.06-4.246-0.17c-0.548-0.075-1.074-0.221-1.591-0.432
		c-1.682-0.663-1.867-2.188-2.259-3.694c-1.034-4.015-3.076-5.671-7.247-6.103c-1.636-0.171-3.362-0.061-4.521-1.586
		c-0.577-0.738-0.969-1.591-1.32-2.449c-0.401-1.054-0.697-2.118-0.657-3.257C147.197,79.871,147.046,78.661,148.241,78.014z"/>
	<path fill="#B83C2B" d="M170.82,97.808c0.507-0.306,1.009-0.603,1.521-0.903c0.903-0.191,1.807-0.382,2.7-0.572
		c0.331,6.117,0.643,12.245,1.014,18.368c0.643,10.996,1.42,21.982,0.432,33.003c-1.466,3.132-4.296,4.768-7.092,6.439
		c-1.199-3.132-0.777-6.359-0.643-9.576c0.126-0.376,0.297-0.723,0.507-1.049c4.256-4.817,4.633-10.689,4.377-16.662
		C173.188,117.135,172.883,107.378,170.82,97.808z"/>
	<path fill="#A11A17" d="M183.939,75.745c0.256-0.291,0.547-0.853,0.758-0.813c6.584,0.853,12.947-1.39,19.462-1.385
		c2.078-0.005,4.126,0.03,5.189,2.314c-1.42,1.711-3.006,3.197-5.134,3.99c-6.791-1.104-12.934,1.716-19.308,3.202
		C184.511,80.624,184.897,78.094,183.939,75.745z"/>
	<path fill="#B21717" d="M184.907,83.052c4.035-3.352,9.234-2.926,13.872-4.346c1.947-0.602,3.749-0.306,5.471,0.723
		c0.712,1.601,0.256,3.066-0.542,4.487c-2.836,1.887-5.888,3.182-9.405,3.046c-3.549-0.507-7.006,0.688-10.55,0.652
		C183.467,85.923,184.597,84.593,184.907,83.052z"/>
	<path fill="#030000" d="M203.105,84.016c0.381-1.536,0.763-3.062,1.149-4.587c1.48-1.495,2.855-3.146,5.094-3.568
		c1.063,0.065,2.138,0.135,3.207,0.201c5.295,1.822,8.557,5.656,10.579,10.705c0.342,1.28,0.678,2.55,1.02,3.824
		c1.31,1.978,0.18,3.674-0.612,5.41c-0.783,1.355-1.982,2.208-3.333,2.891C211.306,101.01,201.941,92.859,203.105,84.016z"/>
	<path fill="#A9261D" d="M148.241,78.014c-0.25,1.044,0.261,2.229-0.542,3.167c-5.029,2.103-10.338,2.138-15.653,2.022
		c-1.706-0.632-2.078-2.349-2.986-3.634c-0.251-0.502-0.332-1.003-0.11-1.541c1.134-1.029,2.519-1.285,3.964-1.18
		C138.013,77.201,143.132,77.617,148.241,78.014z"/>
	<path fill="#8B2A1F" d="M128.949,78.029c0.12,0.316,0.251,0.652,0.371,0.983c-2.74,0.346-5.37,0.09-7.754-1.42l-0.085-0.241
		C124.156,75.615,126.52,77.1,128.949,78.029z"/>
	<path fill="#91221A" d="M170.002,186.277c-0.02-2.545-0.04-5.084-0.061-7.629c0.502-0.672,0.361-1.48,0.382-2.223
		c0.035-2.711,1.591-3.308,3.834-2.721c2.61,0.683,5.36,1.491,7.247,3.393c5.992,6.048,12.788,11.021,19.944,15.538
		c0.091,0.201,0.166,0.406,0.251,0.598c-2.349,1.521-4.697,3.046-7.041,4.562c-1.405-0.04-2.806-0.085-4.201-0.125
		c-2.018-0.11-2.985-1.782-4.346-2.896c-2.072-1.696-4.04-3.513-6.053-5.265C177.048,186.979,173.946,185.444,170.002,186.277z"/>
	<path fill="#9D4634" d="M238.518,119.619c5.596,13.028,6.87,26.463,3.724,40.295c-3.081,13.525-12.868,21.801-23.297,29.524
		c-0.983,0.724-2.389,0.879-3.588,1.306c-0.337-2.193,1.756-2.821,2.685-4.201c4.01-2.9,8.296-5.525,10.9-9.972
		c10.635-10.138,11.955-22.921,10.384-36.536c0.021-3.604-0.341-7.177-0.728-10.756c0.08-2.022-0.521-3.965-0.748-5.946
		C237.685,122.053,236.892,120.587,238.518,119.619z"/>
	<path fill="#A83829" d="M238.518,119.619c-0.657,3.297,1.556,6.349,0.873,9.666c-1.897-0.332-2.037-2.078-2.56-3.383
		c-0.983-2.47-2.143-4.823-3.679-6.986c-2.865-4.607-3.317-10.188-6.088-14.905c-1.546-2.625-3.062-5.33-4.336-8.121
		c0.201-1.837,1.691-3.322,1.42-5.29c2.791,1.415,3.434,4.356,4.652,6.815C232.425,104.643,235.988,111.91,238.518,119.619z"/>
	<path fill="#A03527" d="M218.623,187.08c-1.094,1.22-2.188,2.439-3.272,3.664c-4.617,0.627-8.902,3.102-13.751,2.494l-0.01-0.016
		c1.821-3.342,5.561-4.712,7.819-7.618c1.395-0.868,2.619-2.188,4.526-1.722C215.176,185.394,217.133,185.911,218.623,187.08z"/>
	<path fill="#802018" d="M170.002,186.277c2.73-2.56,5.35-1.471,7.829,0.361c4.497,3.307,8.673,6.996,12.526,11.036
		c-1.877,1.722-3.743,3.447-5.615,5.174c-1.842,0.593-2.846-0.777-3.899-1.797c-1.837-1.756-3.664-3.532-5.571-5.214
		c-1.656-1.461-3.041-2.229-3.393,0.948c-0.09,0.768-0.492,1.445-1.325,1.712C169.565,194.458,170.303,190.342,170.002,186.277z"/>
	<path fill="#712119" d="M170.554,198.498c0.101-0.231,0.171-0.497,0.312-0.703c1.009-1.465-0.983-4.045,1.265-4.748
		c2.349-0.732,3.272,1.973,4.858,3.077c2.83,1.947,4.557,5.189,7.754,6.725c0.07,1.159,0.125,2.319,0.19,3.474
		c-4.843,1.294-9.812,1.199-14.755,1.154C170.81,204.5,169.354,201.443,170.554,198.498z"/>
	<path fill="#9B201A" d="M137.722,194.327c-2.138-0.929-4.276-1.847-6.414-2.771c0.061-3.062,2.454-4.517,4.567-5.701
		c5.621-3.172,11.071-6.515,15.899-10.83c0.964-0.858,2.113-1.471,3.483-1.456c1.938,0.718,3.834,1.486,4.116,3.936
		C153.917,185.384,147.257,191.697,137.722,194.327z"/>
	<path fill="#9B2C21" d="M159.373,177.499c-1.466-1.199-2.911-2.389-4.367-3.583c-0.446-3.914,2.775-6.043,4.356-8.969
		c2.434-2.338,3.744-6.103,7.895-6.273c2.032,1.33,1.21,3.082,0.688,4.793c-0.15,2.43-0.316,4.854-0.472,7.272
		C164.141,172.24,162.238,175.457,159.373,177.499z"/>
	<path fill="#A62A20" d="M160.416,165.289c-1.917,2.806-4.055,5.471-5.41,8.632c-6.956,6.564-16.11,10.088-23.036,16.678
		c-0.281,0.261-0.452,0.642-0.663,0.963c-4.266-1.887-8.722-3.382-12.517-6.238c-1.395-1.837-5.039-3.036-1.796-6.223
		c1.626-0.241,3.262-1.386,4.928-0.136c6.183,7.268,19.528,4.913,23.367-4.165c1.189-2.826,2.042-5.792,3.468-8.532
		C152.657,166.188,156.391,163.828,160.416,165.289z"/>
	<path fill="#A74835" d="M117.115,179.527c-2.188,2.725,1.711,3.693,1.676,5.786c-2.429,1.265-4.346,0.743-6.589-0.943
		c-3.468-2.59-7.001-5.014-9.548-8.582c2.133-0.858,1.305-2.63,0.986-3.97c-1.932-8.045-5.43-15.523-8.758-23.056
		c1.112-5.551-0.045-11.403,2.191-16.808c0.236,0.11,0.477,0.205,0.72,0.311c1.026,0.849,0.991,2.038,0.966,3.192
		c-0.201,8.526,2.301,16.456,5.262,24.32c0.989,2.65,2.073,3.252,4.231,1.31c0.392,0.121,0.643,0.367,0.793,0.743
		c0.161,0.929-0.15,1.776-0.442,2.64c-2.002,5.987-0.441,9.832,5.099,12.798C114.902,177.906,116.553,177.926,117.115,179.527z"/>
	<path fill="#050000" d="M121.566,77.592c2.705-0.221,5.365-0.111,7.754,1.42c1.28,0.989,1.46,2.655,2.339,3.885
		c1.24,1.38,0.672,3.006,0.632,4.567c-0.793,4.321-2.931,7.854-6.238,10.715c-2.795,1.837-5.676,3.383-9.204,2.7
		c-2.193-1.084-5.245-1.245-5.034-4.818c-0.14-1.506-0.281-3.011-0.431-4.507C112.498,85.235,115.66,80.413,121.566,77.592z"/>
	<path fill="#B13426" d="M108.076,161.254c-0.688,1.009-0.577,2.886-2.108,2.931c-1.829,0.056-1.834-1.901-2.354-3.116
		c-3.962-9.194-6.331-18.705-5.827-28.808c1.428-6.654,2.728-13.35,5.179-19.729c1.849,0.854,1.347,2.58,1.377,4.025
		c0.063,3.743-0.186,7.482-0.672,11.191c-1.337,10.103,0.313,19.764,3.998,29.179C108.212,158.277,109.306,159.688,108.076,161.254z
		"/>
	<path fill="#AE2A20" d="M108.076,161.254c-2.866-7.979-5.787-16-5.796-24.582c0-6.408,0.697-12.812,1.109-19.211
		c0.098-1.666,0.261-3.322-0.417-4.929c2.018-4.688,4.015-9.395,6.093-14.062c0.522-1.184,0.663-2.956,2.75-2.409
		c1.245,2.313,3.548,3.177,5.742,4.201c-4.196,1.099-5.019,4.883-6.66,8.115c-7.405,14.6-8.032,29.595-3.031,45.032
		c0.683,2.113,1.571,4.07,2.635,5.982c0.116,1.341-0.657,1.883-1.827,2.078C108.473,161.39,108.277,161.314,108.076,161.254z"/>
	<path fill="#9D271E" d="M209.865,185.836c-1.947,3.372-5.244,5.229-8.266,7.387c-6.715-2.865-12.562-7.025-17.51-12.325
		c-2.56-2.745-5.541-4.507-8.924-5.893c-2.745-1.129-4.521-1.063-4.321,2.58c0.03,0.567-0.321,0.948-0.897,1.063
		c-0.035-3.116-0.076-6.243-0.121-9.359c0.553-0.919,0.603-1.947,0.582-2.956c-0.125-4.843,1.159-5.982,5.968-5.274
		c0.627,0.095,1.244,0.245,1.847,0.491c2.138,1.696,3.794,3.864,5.049,6.238c2.309,4.352,5.431,8.061,8.521,11.854
		c3.669,4.502,8,6.68,13.832,5.465c1.124-0.226,2.288-0.421,3.442-0.085C209.429,185.193,209.7,185.464,209.865,185.836z"/>
	<path fill="#AA2F23" d="M177.972,161.881c-0.612,0.382-1.215,0.176-1.856,0.086c-4.487-0.633-5.21,0.005-5.21,4.381
		c0.01,1.104,0.502,2.409-1.084,2.941c-0.171-1.747-0.341-3.474-0.521-5.215c-0.321-3.357-1.446-6.745,0.371-10.022
		c1.476-2.966,4.592-4.186,6.815-6.349c1.094-0.09,2.168-0.03,3.151,0.527c1.752,1.521,2.158,3.488,1.893,5.681
		C180.33,156.566,181.013,160.055,177.972,161.881z"/>
	<path fill="#673C34" d="M169.671,154.052c-0.352,3.333,0.692,6.721-0.371,10.022c-0.452-0.2-0.903-0.406-1.355-0.607
		c-0.211-1.485-0.411-2.966-0.622-4.451c-1.496-3.648-0.251-7.493-0.823-11.222c-0.01-1.189-0.04-2.399,0.772-3.403
		c0.733-0.557,1.416-0.787,1.968,0.231C169.39,147.769,169.535,150.91,169.671,154.052z"/>
	<path fill="#807A79" d="M165.565,63.51c-4.401,0.411-8.712,0.02-12.933-1.35c-0.718-0.958-1.771-1.43-2.705-2.093
		c-2.474-1.767-2.595-6.269,0-7.599c5.977-3.051,11.985-4.175,18.218,1.074c4.406,3.714,3.924,6.825-1.265,9.184
		C166.419,62.927,165.997,63.249,165.565,63.51z"/>
	<path fill="#C00013" d="M203.105,84.016c0.833,4.07,2.288,7.829,5.436,10.75c3.287,3.042,7.006,4.577,11.527,3.403
		c1.511,0.13,2.209,1.25,2.74,2.429c6.951,15.367,10.178,31.257,6.374,48.049c-0.683,3.017-1.877,5.872-3.634,8.452
		c-0.497,0.462-1.063,0.817-1.727,0.753c-5.941-0.598-9.364,2.745-11.879,7.527c-0.316,0.562-0.592,1.135-0.748,1.771
		c-0.211,0.844-0.251,1.928-1.385,2.063c-1.164,0.141-1.998-0.603-2.43-1.576c-1.535-3.573-4.617-5.837-7.337-8.291
		c-2.655-2.389-4.276-5.023-4.632-8.512c-1.902-3.538-2.083-7.513-2.681-11.362c-0.386-2.51,1.185-1.922,2.585-1.49
		c1.154-0.833,2.484-0.477,3.749-0.512c4.085-0.105,6.951-2.068,8.326-5.712c1.495-3.935,0.411-8.125-3.223-11.131
		c-2.83-2.344-6.107-2.435-9.465-1.09c-0.983,0.387-1.677,1.807-3.052,0.924c-1.952-2.815-2.414-6.233-2.469-9.354
		c-0.15-8.372-0.627-16.964,5.119-24.135C197.243,85.983,200.18,84.99,203.105,84.016z"/>
	<path fill="#B31516" d="M195.417,150.825c2.509,7.709,10.966,10.675,13.771,18.072c1.901-0.964-0.061-3.202,1.957-3.653
		c1.736,3.353,1.305,7.247,2.67,10.699c-0.617,2.695-2.67,3.915-4.979,4.894c-3.979,0.437-7.458-1.229-10.278-3.559
		c-3.904-3.242-7.688-6.79-9.877-11.593c-1.023-2.259-2.73-4.015-4.246-5.912c-1.616-2.008-3.172-4.045-3.493-6.73
		c-0.426-1.605-0.862-3.207-1.3-4.812c0.211-0.472,0.422-0.954,0.628-1.42c3.724-0.442,6.865,0.371,8.923,3.864
		c1.044,1.771,2.318,2.414,3.784,0.261C193.66,149.922,194.589,150.554,195.417,150.825z"/>
	<path fill="#040000" d="M191.658,120.462c4.602-3.277,9.625-3.573,13.188-0.783c3.77,2.961,5.225,8.894,3.242,13.279
		c-2.088,4.588-6.118,6.174-12.763,5.02C188.34,132.316,187.352,127.573,191.658,120.462z"/>
	<path fill="#C76B51" d="M163.759,97.496c0.432,0.121,0.858,0.246,1.29,0.367c3.307,0.206,2.905,2.805,2.926,4.853
		c0.061,8.592,0.291,17.174,0.2,25.761c-0.02,2.665,0.663,5.391-0.321,8.021c-2.238,3.457-4.301,7.056-7.638,9.636
		c-1.074,0.712-2.052,1.556-3.162,2.229c-7.478,4.566-14.484,3.337-19.663-3.734c-1.727-2.358-3.744-4.201-6.163-5.706
		c-0.396-0.537-0.632-1.089-0.101-1.682c2.208-0.486,4.005,0.959,6.042,1.274c0.592,0.191,1.12,0.482,1.566,0.929
		c0.703,0.914,1.194,1.978,1.958,2.871c3.644,4.226,8.19,4.732,12.642,1.33c4.647-3.563,7.162-8.522,8.261-14.053
		c1.882-9.636,0.557-19.262-0.898-28.842c-0.301-1.967-1.947-2.605-3.282-3.553c-0.522-0.627-1.355-1.22-0.306-2.078
		C159.924,94.269,161.234,97.557,163.759,97.496z"/>
	<path fill="#C14E38" d="M170.82,97.808c2.494,2.845,2.138,6.489,2.454,9.826c0.863,9.335,2.037,18.68,0.843,28.115
		c-0.422,3.388-2.037,5.927-4.386,8.175c-1.576-1.39-1.26-3.316-1.275-5.054c-0.15-11.975-0.101-23.949-0.622-35.913
		c-0.08-1.757-0.291-3.654,1.285-5.034C169.681,97.883,170.248,97.848,170.82,97.808z"/>
	<path fill="#CA563D" d="M148.211,83.926c0.361,0.718,0.732,1.445,1.094,2.168c-0.125,0.161-0.256,0.321-0.391,0.477
		c-7.172,2.193-9.676,8.266-11.959,14.479c-2.173,5.922-3.604,12.005-3.679,18.348c-0.05,0.422-0.181,0.818-0.402,1.195
		c-2.278,1.917-2.454,5.439-5.234,6.985c-1.742-1.646-1.315-3.854-1.229-5.802c0.412-10.037,2.896-19.638,6.72-28.897
		c0.989-2.409,2.55-4.486,4.497-6.233C140.954,85,144.146,82.701,148.211,83.926z"/>
	<path fill="#7F5549" d="M169.119,97.928c-1.039,7.272,0.19,14.534,0.1,21.812c-0.11,8.055,0.321,16.13,0.518,24.19
		c-0.166,0.226-0.316,0.467-0.487,0.702c-0.552-0.276-1.084-0.312-1.605,0.091c-2.429-2.74-0.793-5.727-0.513-8.622
		c-0.07-11.77-0.135-23.538-0.165-35.312c-0.005-1.445-0.497-2.459-1.917-2.916C166.408,97.883,167.764,97.903,169.119,97.928z"/>
	<path fill="#494140" d="M163.759,97.496c-2.584,0.341-4.527-1.455-6.835-2.007c-3.062-0.412-4.808-2.62-6.6-4.778
		c-0.587-1.581-2.264-2.835-1.471-4.828c0.156,0.065,0.306,0.131,0.452,0.211c1.114,1.004,2.419,1.084,3.885,1.129
		c5.194,0.17,8.025,2.589,8.732,7.729C162.133,96.402,162.785,96.914,163.759,97.496z"/>
	<path fill="#BA3C2B" d="M148.211,83.926c-3.353,0.226-6.309,1.937-9.525,2.635c-2.249,1.42-4.643,0.201-6.956,0.427
		c-0.02-1.375-0.045-2.72-0.065-4.09c5.345-0.567,10.695-1.139,16.035-1.716C147.87,82.099,148.04,83.012,148.211,83.926z"/>
	<path fill="#B92E22" d="M224.917,156.923c6.514-13.335,5.901-27.106,2.368-41.008c-1.591-6.224-3.562-12.336-7.217-17.746
		c0.889-0.763,1.777-1.531,2.66-2.289c1.189,0.371,1.706,1.335,2.369,2.338c4.04,6.278,5.58,13.636,8.843,20.251
		c3.733,12.491,2.358,24.802-1.456,36.978c-1.224,3.89-2.398,4.326-6.313,2.941C225.604,158.027,225.117,157.601,224.917,156.923z"
		/>
	<path fill="#AD523C" d="M239.978,139.684c1.391,7.909,1.4,15.818-0.979,23.497c-1.727,5.566-5.646,9.923-9.44,14.254
		c-1.967,1.329-3.759,1.65-5.063-0.874c0.105-0.672,0.432-1.234,0.969-1.605c3.548-2.43,4.712-5.962,4.688-10.048
		c0-1.033,0.03-2.067,0.577-3.001c3.102-5.987,4.857-12.467,7.066-18.78C238.267,141.812,238.438,140.326,239.978,139.684z"/>
	<path fill="#B24431" d="M239.978,139.684c-2.138,6.7-3.909,13.53-6.95,19.904c-0.562,1.214-0.673,2.865-2.465,3.142
		c-1.741-1.501-3.995-2.575-4.371-5.225c3.965,1.355,4.562,0.753,5.852-3.674c3.268-11.307,3.814-22.699,1.677-34.247
		c-0.07-0.347,0.141-0.748,0.211-1.119c2.71,3.151,3.372,7.347,5.46,10.814C240.008,132.728,240.444,136.181,239.978,139.684z"/>
	<path fill="#AB3F2E" d="M224.696,177.058c1.605,0.196,3.161,1.21,4.857,0.377c-2.68,4.315-6.715,7.086-10.936,9.641
		c-2.138-0.005-4.261-0.021-4.673-2.866c-0.17-0.351-0.341-0.853-0.11-1.104c1.897-2.148,2.048-4.522,1.055-7.087
		C218.161,176.305,221.454,176.501,224.696,177.058z"/>
	<path fill="#AF281F" d="M214.879,176.199c5.265,3.317,0.035,5.416-0.934,8.016c-1.359,0.537-2.729,1.078-4.085,1.621
		c-0.235-0.111-0.472-0.216-0.718-0.326c-0.747-1.697-1.701-3.368-0.286-5.189c1.586-1.581,3.824-2.53,4.623-4.849
		C214.132,175.371,214.608,175.593,214.879,176.199z"/>
	<path fill="#A9392A" d="M167.151,147.874c0.737,3.704,0.437,7.428,0.171,11.146c-3.328,0.954-4.803,3.955-6.906,6.269
		c-3.834-0.166-7.417,2.614-11.392,0.993c-0.407,0.07-0.713-0.09-0.898-0.461c-0.03-0.377,0.035-0.748,0.191-1.109
		c2.695-2.82,5.856-5.159,8.431-8.115C160.437,153.932,162.529,149.395,167.151,147.874z"/>
	<path fill="#040000" d="M108.664,161.47c0.632-0.532,1.265-1.069,1.907-1.601c3.744-3.413,9.465-3.037,13.375,1.134
		c2.424,2.574,4.266,5.546,3.829,9.365c-0.923,3.633-1.545,7.482-6.208,8.32c-1.541-0.035-2.835,1.275-4.452,0.833
		c-3.503-1.019-6.871-2.263-8.933-5.605C105.557,169.655,106.38,165.535,108.664,161.47z"/>
	<path fill="#B0201A" d="M121.566,178.699c3.106-1.963,4.713-4.919,5.476-8.417c1.014,0.035,1.064,1.104,1.686,1.562
		c5.842,0.15,10.831-2.595,16-4.708c1.165-0.486,2.133-1.516,3.554-1.164c0.256,0.105,0.492,0.211,0.743,0.311
		c-1.445,7.177-3.679,13.978-11.252,16.969c-5.014,1.982-10.058,1.234-14.775-1.325C121.857,181.309,121.07,180.204,121.566,178.699
		z"/>
	<path fill="#C01F1A" d="M127.815,172.311c-0.251-0.668-0.512-1.346-0.763-2.023c-0.461-3.954-1.887-7.452-5.234-9.831
		c-3.578-2.524-7.373-2.796-11.247-0.582c-4.477-2.425-4-7.338-5.079-11.167c-4.678-16.582-0.532-32.009,7.086-46.864
		c1.34-2.6,3.382-0.909,4.979-1.581c2.926,0.115,5.365-1.255,7.829-2.57c0.963,1.285,0.582,2.685,0.296,4.06
		c-2.369,11.423-3.959,22.966-5.214,34.559c-0.818,6.78,1.235,12.929,4.316,18.806c1.726,3.302,3.724,6.464,5.008,9.987
		c0.623,1.711,0.994,3.473,0.783,5.295C130.379,171.999,129.692,173.058,127.815,172.311z"/>
	<path fill="#C53B2A" d="M119.574,136.637c0.752-11.864,2.84-23.547,5.089-35.195c0.241-1.245,0.472-2.495,0.723-3.744
		c3.106-2.981,5.199-6.555,6.333-10.705c2.188-2.434,4.658,0.176,6.956-0.427c-8.522,11.202-10.825,24.2-10.971,37.836
		c-0.01,1.004-0.09,2.008-0.13,3.007c0.964,1.003,0.753,2.192,0.552,3.382c-2.299,9.17,1.525,16.176,7.834,22.318
		c1.18,1.145,2.746,1.938,3.378,3.604c0.361,1.837,0.642,3.658-0.964,5.134c-2.64,0.347-4.818-0.934-6.77-2.328
		C123.81,153.927,119.434,146.438,119.574,136.637z"/>
	<path fill="#A71C18" d="M208.867,180.32c-0.251,1.741,0.898,3.423,0.28,5.189c-8.085,2.429-14.127,0.064-19.467-6.67
		c-4.316-5.426-7.212-11.744-11.709-16.959c0.994-2.95,1.987-5.896,2.971-8.838c2.705,5.114,6.745,9.31,9.802,14.233
		C194.794,173.785,200.265,179.577,208.867,180.32z"/>
	<path fill="#B7523B" d="M167.151,147.874c-3.393,3.001-6.243,6.6-9.962,9.255c-2.354,1.314-4.703,1.767-7.051,0
		c-0.909-1.205-0.507-2.374,0.105-3.539c2.625-3.282,6.801-4.777,9.436-8.06c3.081-2.675,4.983-6.278,7.452-9.43
		c0.161,2.875,0.342,5.746,0.518,8.622C167.482,145.771,167.322,146.825,167.151,147.874z"/>
	<path fill="#948F8E" d="M152.989,60.614c-2.148-0.351-3.398-1.902-3.333-4.226c0.07-2.444,2.258-3.398,4.01-4.266
		c4.432-2.213,11.217-0.607,14.459,3.137c2.715,3.122,2.138,5.621-1.987,6.324C161.872,62.32,157.4,62.867,152.989,60.614z"/>
	<path fill="#090000" d="M214.879,176.199c-0.461-0.24-0.923-0.486-1.39-0.732c-2.399-3.041-2.43-6.614-2.344-10.229
		c3.693-7.156,6.735-8.988,13.771-8.315c0.421,0.195,0.853,0.387,1.274,0.582c1.706,1.541,3.513,2.996,4.387,5.225
		c1.896,6.363-1.119,10.705-5.872,14.328C221.293,178.257,218.051,177.7,214.879,176.199z"/>
	<path fill="#D78D71" d="M150.896,90.013c2.002,1.822,4.01,3.649,6.027,5.476c0.351,0.392,0.703,0.773,1.069,1.165
		c3.162,12.808,4.708,25.63-0.316,38.348c-1.656,4.206-4.803,7.021-9.385,7.814c-3.408,0.582-5.48-0.914-6.369-4.356
		c0.296-0.798,0.798-1.455,1.345-2.093c0.562-0.633,1.229-1.054,2.107-1.069c4.713,0.723,7.764-0.993,8.888-5.676
		c2.158-9.054,1.817-18.188-0.181-27.236c-0.441-1.958-1.164-4.276-3.724-4.376c-2.394-0.095-3.538,1.802-4.447,3.744
		c-1.987,4.216-3.724,8.502-4.386,13.159c-0.226,1.656-0.311,3.106,1.596,3.81c0.622,0.728,1.977,1.26,0.642,2.494
		c-2.459,0.275-4.356-1.154-6.404-2.113c-1.957-1.33-1.747-3.327-1.485-5.234c1.003-7.086,3.538-13.681,7.111-19.824
		C145.2,90.239,148.04,89.015,150.896,90.013z"/>
	<path fill="#CF7D61" d="M142.55,138.229c1.31,3.543,3.131,4.521,6.655,3.457c6.178-1.882,8.331-7.041,9.475-12.541
		c1.958-9.295,1.174-18.645-0.457-27.935c-0.261-1.516-0.728-3.001-0.231-4.557c3.202,0.592,3.568,2.851,3.95,5.671
		c1.22,9.079,2.439,18.158,0.663,27.267c-1.209,6.224-4.085,11.593-9.365,15.447c-5.641,4.11-13.435,1.28-14.72-5.38
		C139.393,137.877,140.623,137.089,142.55,138.229z"/>
	<path fill="#C64E38" d="M151.092,153.636c-0.321,1.033-1.235,1.962-0.512,3.156c-2.64,2.59-7.197,2.575-11.819-0.04
		c-3.699-3.142-7.308-6.278-9.581-10.775c-2.529-4.979-3.693-9.981-1.897-15.417c2.022,1.877,3.011,4.316,3.764,6.886
		c0.15,0.321,0.311,0.657,0.462,0.974c1.525,2.363,2.288,5.159,4.045,7.393c3.142,4.015,7.126,6.534,12.321,6.896
		C148.999,152.797,150.218,152.627,151.092,153.636z"/>
	<path fill="#39312E" d="M131.052,137.45c-2.022-1.882-2.966-4.347-3.759-6.886c0.095-1.054,0.19-2.107,0.291-3.162
		c1.436-2.529,1.817-5.836,5.099-7.021c1.676-0.863,2.981-0.302,3.021,1.485c0.11,5.385,0.803,10.654,2.269,15.844
		c0.181,0.633-0.276,1.22-0.894,1.546C134.771,139.639,132.984,138.293,131.052,137.45z"/>
	<path fill="#C96247" d="M151.092,153.636c-10.148,1.631-19.292-7.599-19.583-15.212c2.549,0.959,4.497,2.278,6.087,4.843
		c4.733,7.634,12.411,8.849,19.829,3.679c0.728-0.507,1.485-0.953,2.248-1.42C157.867,149.34,154.148,151.151,151.092,153.636z"/>
	<path fill="#524B49" d="M137.079,139.257c-0.01-4.432-2.56-8.446-2.107-12.974c0.11-1.124-0.261-2.328-0.021-3.412
		c0.502-2.118-0.783-2.329-2.268-2.484c0.13-0.201,0.246-0.412,0.351-0.633c0.612-1.3,1.736-1.42,2.971-1.31
		c3.513,0.396,5.054,2.138,4.813,5.887c-0.181,2.826,0.798,5.621,2.178,8.161c0.748,1.399,1.431,2.774,0.663,4.386
		c-0.05,0.713-0.437,1.154-1.104,1.36c-1.541-0.035-2.75,0.798-4.035,1.43C138.033,139.522,137.551,139.388,137.079,139.257z"/>
	<path fill="#D16F53" d="M135.704,119.137c-0.883,0.206-1.787,0.401-2.68,0.612c-1.847-2.153-0.487-4.376-0.231-6.609
		c0.793-7.172,3.553-13.666,6.484-20.13c1.887-4.156,5.465-5.978,9.576-7.127c0.673,1.375,1.355,2.74,2.038,4.13
		c-3.463-0.587-5.565,2.053-6.755,4.171c-3.744,6.669-6.826,13.701-7.337,21.541c-0.07,1.059-0.221,2.062,0.943,2.649
		C137.476,119.679,136.266,118.575,135.704,119.137z"/>
	<path fill="#BB291F" d="M119.574,136.637c0.863,8.582,4.457,15.648,11.247,21.134c2.299,1.842,5.024,2.575,7.508,3.865
		c3.97-0.342,7.086,1.736,10.273,3.598c-0.1,0.246-0.21,0.497-0.321,0.743c-5.28,3.769-11.493,5.33-17.586,7.102
		c-0.893,0.266-2.338,0.943-2.886-0.768c2.143-0.011,2.033-1.471,1.933-2.962c-0.301-4.968-3.066-8.948-5.46-13.003
		c-3.132-5.325-4.306-11.156-5.209-17.109C118.962,138.409,119.398,137.506,119.574,136.637z"/>
	<path fill="#BB3F2D" d="M148.607,165.233c-3.859,0.04-6.811-2.464-10.273-3.598c0.136-1.632,0.291-3.247,0.432-4.879
		c3.935,0.11,7.859,2.249,11.814,0.04c2.158,1.079,4.401,0.256,6.61,0.326C154.846,160.37,151.789,162.87,148.607,165.233z"/>
	<path fill="#A6A2A1" d="M155.237,59.926c-1.696-0.567-3.122-1.496-3.162-3.453c-0.055-2.108,1.927-2.128,3.232-2.74
		c3.769-1.747,7.277-1.084,10.343,1.53c2.083,1.762,1.621,4.296-1.019,5.034C161.53,61.181,158.318,61.171,155.237,59.926z"/>
	<path fill="#DA967A" d="M142.289,119.333c-1.525-0.507-2.309-1.306-2.062-3.137c0.778-5.842,2.926-11.207,5.496-16.412
		c0.963-1.967,2.72-3.197,5.008-3.041c2.048,0.15,3.147,1.656,3.684,3.473c2.971,10.118,3.187,20.376,0.557,30.508
		c-1.39,5.36-5.436,7.012-9.892,5.034c-0.176-2.329,0.401-4.462,1.687-6.398c3.171,0.326,4.497-1.335,5.008-4.302
		c1.004-5.801,1.074-11.562-0.206-17.31c-0.251-1.129-0.477-2.454-1.842-2.694c-1.606-0.312-2.244,1.019-2.791,2.188
		c-1.214,2.56-2.319,5.17-2.891,7.99C143.754,116.668,143.854,118.384,142.289,119.333z"/>
	<path fill="#DEA186" d="M142.289,119.333c0.527-4.623,1.978-8.964,3.955-13.164c0.723-1.526,1.606-2.78,3.347-2.71
		c1.842,0.08,2.384,1.585,2.775,3.177c1.636,6.725,1.425,13.465,0.105,20.195c-0.276,1.395-1.074,2.564-2.218,3.518
		c-1.762,1.48-2.404,0.452-2.886-1.14c-1.2-2.699-2.6-5.334-3.322-8.235C143.925,119.925,142.991,119.749,142.289,119.333z"/>
	<path fill="#6B6260" d="M144.045,120.974c1.907,2.429,3.422,5.004,3.322,8.235c-0.723,2.204-0.949,4.572-2.289,6.545
		c-0.482,0.376-0.963,0.737-1.425,1.114c-1.174-4.271-4.206-8.015-3.87-12.683c0.216-3.137-0.507-5.139-4.08-5.049
		c0.678-0.256,1.365-0.512,2.038-0.763C139.845,119.237,141.942,120.101,144.045,120.974z"/>
</g>
</svg>
