<?xml version="1.0" encoding="utf-8"?>
<!-- Generator: Adobe Illustrator 16.0.4, SVG Export Plug-In . SVG Version: 6.00 Build 0)  -->
<!DOCTYPE svg PUBLIC "-//W3C//DTD SVG 1.0//EN" "http://www.w3.org/TR/2001/REC-SVG-20010904/DTD/svg10.dtd">
<svg version="1.0" xmlns="http://www.w3.org/2000/svg" xmlns:xlink="http://www.w3.org/1999/xlink" x="0px" y="0px" width="325px"
	 height="225px" viewBox="0 0 325 225" enable-background="new 0 0 325 225" xml:space="preserve">
<g id="Calque_1">
	<path fill="#E6E8E8" d="M199.938,87.357c0-9.279-7.522-16.803-16.805-16.803c-0.908,0-1.8,0.074-2.67,0.213
		c0.001-0.071,0.005-0.141,0.005-0.213c0-5.768-4.677-10.444-10.444-10.444c-1.631,0-3.176,0.374-4.551,1.042
		c-2.652-3.92-7.14-6.498-12.229-6.498c-8.147,0-14.753,6.604-14.753,14.753c0,0.914,0.088,1.809,0.248,2.678
		c-1.959-0.701-4.069-1.083-6.268-1.083c-10.276,0-18.606,8.329-18.606,18.606c0,8.376,5.534,15.458,13.146,17.791
		c-1.956,2.175-3.146,5.052-3.146,8.208c0,6.783,5.499,12.283,12.284,12.283c2.962,0,5.678-1.051,7.8-2.795
		c0.643,8.815,7.998,15.77,16.979,15.77c9.159,0,16.626-7.23,17.007-16.297c0.823,0.147,1.67,0.229,2.535,0.229
		c7.807,0,14.137-6.327,14.137-14.138c0-3.311-1.142-6.354-3.047-8.761C196.566,98.992,199.938,93.568,199.938,87.357z"/>
	<g>
		<path fill="#050507" d="M204.023,85.496c0-10.162-8.235-18.4-18.396-18.4c-0.996,0-1.973,0.081-2.926,0.233
			c0.002-0.078,0.006-0.155,0.006-0.233c0-6.316-5.121-11.437-11.438-11.437c-1.787,0-3.479,0.411-4.984,1.141
			c-2.902-4.293-7.816-7.115-13.389-7.115c-8.921,0-16.154,7.232-16.154,16.153c0,1.002,0.095,1.981,0.27,2.934
			c-2.145-0.767-4.455-1.187-6.863-1.187c-11.252,0-20.374,9.121-20.374,20.373c0,9.173,6.061,16.928,14.395,19.483
			c-2.141,2.381-3.445,5.532-3.445,8.987c0,7.43,6.022,13.45,13.45,13.45c3.243,0,6.219-1.147,8.542-3.062
			c0.703,9.654,8.757,17.27,18.591,17.27c10.029,0,18.206-7.919,18.624-17.845c0.9,0.161,1.826,0.253,2.774,0.253
			c8.551,0,15.479-6.932,15.479-15.481c0-3.626-1.25-6.956-3.336-9.594C200.336,98.233,204.023,92.296,204.023,85.496z
			 M191.561,101.899c1.905,2.407,3.047,5.45,3.047,8.761c0,7.811-6.33,14.138-14.137,14.138c-0.865,0-1.712-0.082-2.535-0.229
			c-0.381,9.066-7.849,16.297-17.007,16.297c-8.981,0-16.336-6.954-16.979-15.77c-2.122,1.744-4.838,2.795-7.8,2.795
			c-6.785,0-12.284-5.5-12.284-12.283c0-3.156,1.19-6.033,3.146-8.208c-7.612-2.333-13.146-9.415-13.146-17.791
			c0-10.277,8.33-18.606,18.606-18.606c2.199,0,4.309,0.382,6.268,1.083c-0.16-0.869-0.248-1.764-0.248-2.678
			c0-8.149,6.606-14.753,14.753-14.753c5.089,0,9.577,2.578,12.229,6.498c1.375-0.668,2.92-1.042,4.551-1.042
			c5.768,0,10.444,4.676,10.444,10.444c0,0.072-0.004,0.142-0.005,0.213c0.87-0.139,1.762-0.213,2.67-0.213
			c9.282,0,16.805,7.524,16.805,16.803C199.938,93.568,196.566,98.992,191.561,101.899z"/>
		<path fill="#FFFFFF" d="M199.531,83.693c-1.674-7.517-8.377-13.139-16.398-13.139c-0.908,0-1.8,0.074-2.67,0.213
			c0.001-0.071,0.005-0.141,0.005-0.213c0-5.768-4.677-10.444-10.444-10.444c-1.631,0-3.176,0.374-4.551,1.042
			c-2.652-3.92-7.14-6.498-12.229-6.498c-8.147,0-14.753,6.604-14.753,14.753c0,0.914,0.088,1.809,0.248,2.678
			c-1.959-0.701-4.069-1.083-6.268-1.083c-9.02,0-16.537,6.417-18.242,14.934c-0.238,1.188-0.364,2.415-0.364,3.672
			c0,7.241,4.139,13.513,10.178,16.587c0.945,0.481,1.938,0.888,2.968,1.204c-1.165,1.295-2.055,2.841-2.586,4.542
			c1.562,4.991,6.219,8.608,11.723,8.608c2.962,0,5.678-1.049,7.8-2.795c0.643,8.818,7.998,15.771,16.979,15.771
			c9.159,0,16.625-7.232,17.008-16.299c0.822,0.148,1.668,0.229,2.532,0.229c6.539,0,12.037-4.438,13.653-10.466
			c-0.505-1.881-1.389-3.607-2.562-5.091c0.944-0.549,1.832-1.188,2.648-1.905c3.512-3.08,5.729-7.599,5.729-12.638
			C199.938,86.099,199.794,84.873,199.531,83.693z"/>
	</g>
	<path opacity="0.99" fill="#050507" d="M204.023,85.496c0-10.162-8.235-18.4-18.396-18.4c-0.996,0-1.973,0.081-2.926,0.233
		c0.002-0.078,0.006-0.155,0.006-0.233c0-6.316-5.121-11.437-11.438-11.437c-1.787,0-3.479,0.411-4.984,1.141
		c-2.902-4.293-7.816-7.115-13.389-7.115c-8.921,0-16.154,7.232-16.154,16.153c0,1.002,0.095,1.981,0.27,2.934
		c-2.145-0.767-4.455-1.187-6.863-1.187c-11.252,0-20.374,9.121-20.374,20.373c0,9.173,6.061,16.928,14.395,19.483
		c-2.141,2.381-3.445,5.532-3.445,8.987c0,7.43,6.022,13.45,13.45,13.45c3.243,0,6.219-1.147,8.542-3.062
		c0.703,9.654,8.757,17.27,18.591,17.27c10.029,0,18.206-7.919,18.624-17.845c0.9,0.161,1.826,0.253,2.774,0.253
		c8.551,0,15.479-6.932,15.479-15.481c0-3.626-1.25-6.956-3.336-9.594C200.336,98.233,204.023,92.296,204.023,85.496z
		 M191.561,101.899c1.905,2.407,3.047,5.45,3.047,8.761c0,7.811-6.33,14.138-14.137,14.138c-0.865,0-1.712-0.082-2.535-0.229
		c-0.381,9.066-7.849,16.297-17.007,16.297c-8.981,0-16.336-6.954-16.979-15.77c-2.122,1.744-4.838,2.795-7.8,2.795
		c-6.785,0-12.284-5.5-12.284-12.283c0-3.156,1.19-6.033,3.146-8.208c-7.612-2.333-13.146-9.415-13.146-17.791
		c0-10.277,8.33-18.606,18.606-18.606c2.199,0,4.309,0.382,6.268,1.083c-0.16-0.869-0.248-1.764-0.248-2.678
		c0-8.149,6.606-14.753,14.753-14.753c5.089,0,9.577,2.578,12.229,6.498c1.375-0.668,2.92-1.042,4.551-1.042
		c5.768,0,10.444,4.676,10.444,10.444c0,0.072-0.004,0.142-0.005,0.213c0.87-0.139,1.762-0.213,2.67-0.213
		c9.282,0,16.805,7.524,16.805,16.803C199.938,93.568,196.566,98.992,191.561,101.899z"/>
</g>
<g id="Calque_2">
	<path opacity="0.99" fill="#050507" d="M125.763,155.708c-3.513,0-6.367,2.851-6.367,6.369c0,3.515,2.854,6.364,6.367,6.364
		c3.518,0,6.37-2.852,6.37-6.364C132.132,158.559,129.28,155.708,125.763,155.708z M125.762,166.514
		c-2.583,0-4.676-2.094-4.676-4.677s2.094-4.676,4.676-4.676s4.676,2.093,4.676,4.676S128.345,166.514,125.762,166.514z"/>
	<path fill="#FFFFFF" d="M125.762,164.366c2.362,0,4.278-1.915,4.278-4.275c0-0.053-0.006-0.104-0.008-0.155
		c-0.73-1.634-2.365-2.772-4.27-2.772c-1.901,0-3.536,1.142-4.265,2.772c-0.002,0.053-0.008,0.104-0.008,0.155
		C121.489,162.451,123.405,164.366,125.762,164.366z"/>
	<path opacity="0.99" fill="#050507" d="M140.692,140.324c-5.872,0-10.627,4.756-10.627,10.628c0,5.868,4.755,10.624,10.627,10.624
		c5.865,0,10.619-4.756,10.619-10.624C151.311,145.08,146.557,140.324,140.692,140.324z M140.989,158.424
		c-4.586,0-8.31-3.72-8.31-8.309c0-4.594,3.724-8.312,8.31-8.312c4.588,0,8.309,3.719,8.309,8.312
		C149.298,154.704,145.577,158.424,140.989,158.424z"/>
	<path opacity="0.99" fill="#C7D271" d="M174.371,85.765c0.195,2.503,1.662,8.586,0.307,11.681C174.34,98.217,174.127,98.701,174,99
		c0,0-5.16,1.426-7.318,1.959c-2.15,0.537-10.926,1.618-15.288,1.354c-4.347-0.262-11.175-1.156-12.411-2.466
		c-1.227-1.324-4.593-6.231-4.414-9.182c0.185-2.94,0.8-7.018,2.829-8.468c2.034-1.456,6.5-2.536,8.502-3.046
		c2.585-0.657,10.136-2.052,12.838-1.842c2.717,0.188,9.302-0.622,12.354,2.067C174.151,82.066,174.162,83.257,174.371,85.765
		 M176.889,104.768c-0.43,1.114-0.832,2.5-2.166,2.533c-1.325,0.027-3.379,0.282-4.174-0.021c-0.789-0.309-1.736-0.723-1.938-1.1
		c-0.208-0.366-0.24-1.698-0.24-1.698c0.913-0.913,1.78-1.155,3.192-1.592c1.433-0.436,2.565-0.846,3.494-0.563
		C175.998,102.607,177.338,103.645,176.889,104.768 M147.865,106.884c-0.142,1.078-0.402,2.441-1.793,2.073
		c-1.399-0.356-2.886,0.624-3.489,0.558c-0.603-0.055-1.857-0.367-2.197-0.795c-1.076-1.328,0.528-2.584,0.528-2.584
		c1.327-1.098,3.111-1.188,4.763-1.124C147.323,105.072,148.011,105.79,147.865,106.884 M180.226,73.806
		c0.642-2.159-0.151-2.461-3.802-3.075c-6.144-1.035-15.697-0.47-19.379-0.149c-3.667,0.316-14.238,2.421-19.222,6.241
		c-4.956,3.802-5.943,13.774-5.796,18.013c0.162,4.247,3.347,15.796,4.212,18.279c0.864,2.484,1.971,5.064,4.037,5.396
		c2.037,0.355,4.963-0.404,5.836-1.635c0.865-1.24,0.6-3.129,0.947-3.832c0.351-0.709,3.91-2.282,5.604-2.421
		c1.677-0.142,11.727-0.916,15.166-0.802c3.422,0.105,3.832,0.632,3.981,1.701c0.146,1.07,0.362,1.359,1.389,2.475
		c1.031,1.117,2.979,1.346,5.873,0.99c2.894-0.359,2.476-4.667,1.782-7.069c-0.686-2.395-2.055-10.933-2.104-12.485
		C178.711,93.895,178.739,78.815,180.226,73.806"/>
</g>
</svg>
