<?xml version="1.0" encoding="utf-8"?>
<!-- Generator: Adobe Illustrator 16.0.4, SVG Export Plug-In . SVG Version: 6.00 Build 0)  -->
<!DOCTYPE svg PUBLIC "-//W3C//DTD SVG 1.1//EN" "http://www.w3.org/Graphics/SVG/1.1/DTD/svg11.dtd">
<svg version="1.1" id="Calque_1" xmlns="http://www.w3.org/2000/svg" xmlns:xlink="http://www.w3.org/1999/xlink" x="0px" y="0px"
	 width="325px" height="225px" viewBox="0 0 325 225" enable-background="new 0 0 325 225" xml:space="preserve">
<g>
	<path fill="#909090" d="M129.504,85.388L128.426,136l15.557,10.307l-0.604,14.193l-22.054-14.741L121.77,80L129.504,85.388z"/>
	<g>
		<path fill="#AFC631" d="M145.57,120.348l4.66-1.576l3.078,16.531l5.75-19.533l4.645-1.584l-9.146,30.49l-1.317,17.461
			l-4.126,1.514l1.323-17.75L145.57,120.348z"/>
		<path fill="#AFC631" d="M176.512,121.463c-0.172-0.854-0.414-1.574-0.729-2.158c-0.315-0.584-0.692-0.992-1.129-1.229
			c-0.438-0.234-0.914-0.264-1.428-0.086c-0.938,0.328-1.77,1.037-2.492,2.13c-0.723,1.096-1.344,2.438-1.865,4.038
			c-0.52,1.603-0.945,3.363-1.276,5.285c-0.329,1.925-0.571,3.88-0.727,5.859c-0.149,1.9-0.201,3.715-0.156,5.438
			c0.045,1.726,0.213,3.232,0.506,4.516c0.293,1.284,0.731,2.233,1.313,2.854c0.584,0.619,1.343,0.755,2.275,0.402
			c1.27-0.477,2.334-1.771,3.195-3.882c0.863-2.108,1.494-4.7,1.895-7.774l4.029-1.482c-0.334,2.834-0.814,5.461-1.438,7.877
			c-0.625,2.425-1.361,4.564-2.213,6.427c-0.853,1.864-1.795,3.401-2.83,4.608s-2.133,2.035-3.293,2.479
			c-1.442,0.553-2.692,0.446-3.75-0.316c-1.058-0.766-1.899-2.057-2.525-3.868c-0.629-1.817-1.042-4.076-1.244-6.774
			c-0.202-2.699-0.176-5.701,0.079-9.004c0.261-3.386,0.715-6.605,1.362-9.654c0.648-3.049,1.455-5.795,2.418-8.229
			c0.964-2.434,2.074-4.461,3.33-6.083s2.611-2.68,4.063-3.177c1.048-0.356,2.009-0.336,2.884,0.062
			c0.873,0.398,1.623,1.149,2.25,2.253c0.627,1.111,1.099,2.583,1.414,4.423c0.316,1.84,0.432,4.03,0.346,6.574l-4.037,1.438
			C176.762,123.302,176.686,122.318,176.512,121.463z"/>
		<path fill="#AFC631" d="M199.256,102.092l-0.695,8.12l-10.047,3.488l-0.789,9.514l9.207-3.299l-0.642,7.507l-9.196,3.378
			l-0.904,10.878l10.217-3.883l-0.694,8.112l-14.358,5.577l3.656-44.575L199.256,102.092z M187.168,106.817l2.98-5.374l4.144-0.566
			l-4.519,5.566L187.168,106.817z"/>
		<path fill="#AFC631" d="M216.589,96.376l-0.714,7.926l-10.081,3.423l-0.813,9.32l9.237-3.262l-0.659,7.341l-9.229,3.356
			l-0.932,10.66l10.252-3.882l-0.715,7.931l-14.412,5.619l3.776-43.732L216.589,96.376z"/>
	</g>
	<path fill="none" stroke="#B2B2B3" stroke-width="2" stroke-linecap="round" stroke-linejoin="round" stroke-miterlimit="10" d="
		M202.033,99.378c3.545-1.088,6.415-2.186,8.146-3.201c0,0,4.471-0.788,1.577-9.204c-2.894-8.417-7.364-16.307-7.364-16.307
		s-8.414-15.78-21.828-13.939c-15.957,2.19-18.17,5.058-52.271,11.277"/>
	<path fill="none" stroke="#B2B2B3" stroke-width="2" stroke-linecap="round" stroke-linejoin="round" stroke-miterlimit="10" d="
		M121.398,72.288c0,0,8.717-10.312,17.133,4.942l9.579,23.943c0,0,0.525,5.523,12.624,5.523c1.512,0,3.3-0.094,5.286-0.269"/>
	
		<path fill="#FFFFFF" stroke="#B2B2B3" stroke-width="2.1152" stroke-linecap="round" stroke-linejoin="round" stroke-miterlimit="10" d="
		M164.879,100.914c0,0,5.295,16.307,5.59,18.674c0,0,3.235,1.314,5-0.79c1.766-2.103-1.765-17.884-4.412-18.936
		C168.41,98.811,164.879,100.914,164.879,100.914z"/>
	
		<path fill="#FFFFFF" stroke="#B2B2B3" stroke-width="2.1152" stroke-linecap="round" stroke-linejoin="round" stroke-miterlimit="10" d="
		M193.121,95.391c0,0,5.296,16.306,5.59,18.673c0,0,3.234,1.315,5-0.789c1.766-2.104-1.766-17.884-4.412-18.937
		C196.65,93.288,193.121,95.391,193.121,95.391z"/>
	
		<path fill="none" stroke="#B2B2B3" stroke-width="2.1152" stroke-linecap="round" stroke-linejoin="round" stroke-miterlimit="10" d="
		M175.616,57.559c0,0-10.224-10.225-14.313-10.225s-17.721,2.045-21.128,5.453c-3.408,3.408-1.771,10.732-1.771,10.732
		c-0.7-11.725,2.483-4.943,5.178-5.279c5.453-0.682,21.811-5.453,21.811-5.453S168.801,52.105,175.616,57.559z"/>
	<path fill="none" stroke="#B2B2B3" stroke-width="2" stroke-linecap="round" stroke-linejoin="round" stroke-miterlimit="10" d="
		M173.959,103.473c6.66-0.978,14.154-2.449,20.718-4.077"/>
</g>
</svg>
