<?xml version="1.0" encoding="utf-8"?>
<!-- Generator: Adobe Illustrator 16.0.4, SVG Export Plug-In . SVG Version: 6.00 Build 0)  -->
<!DOCTYPE svg PUBLIC "-//W3C//DTD SVG 1.1//EN" "http://www.w3.org/Graphics/SVG/1.1/DTD/svg11.dtd">
<svg version="1.1" id="Calque_1" xmlns="http://www.w3.org/2000/svg" xmlns:xlink="http://www.w3.org/1999/xlink" x="0px" y="0px"
	 width="325px" height="225px" viewBox="0 0 325 225" enable-background="new 0 0 325 225" xml:space="preserve">
<g id="Calque_1_1_">
	<g>
		<g>
			<g>
				<defs>
					<rect id="SVGID_1_" x="87.576" y="150.624" width="153.424" height="42.731"/>
				</defs>
				<clipPath id="SVGID_2_">
					<use xlink:href="#SVGID_1_"  overflow="visible"/>
				</clipPath>
				<path clip-path="url(#SVGID_2_)" fill="#FFFFFF" d="M239.843,189.938c0,0.352-0.267,0.479-1.435,0.479h-0.553l0.01-0.166
					c0.027-0.569,0.443-1.058,1.039-1.058C239.477,189.191,239.843,189.441,239.843,189.938 M241,190.084
					c0-1.188-0.955-1.922-1.984-1.922c-1.416,0-2.427,1.039-2.427,2.693c0,1.518,1.203,2.49,2.437,2.49
					c1.361,0,1.791-0.486,1.791-1.121v-0.387h-0.043c-0.396,0.368-1.004,0.471-1.519,0.471c-0.728,0-1.297-0.396-1.39-1.021h0.81
					C240.311,191.288,241,190.993,241,190.084 M235.301,186.675c0-0.331-0.21-0.469-0.515-0.469c-0.358,0-0.578,0.175-0.873,0.44
					c-0.265,0.237-0.485,0.541-0.687,0.854v0.046h0.41c0.33,0,0.754-0.092,1.059-0.219
					C235.072,187.171,235.301,186.941,235.301,186.675 M234.898,189.938c0,0.352-0.269,0.479-1.438,0.479h-0.551l0.01-0.166
					c0.024-0.569,0.438-1.058,1.04-1.058C234.531,189.191,234.898,189.441,234.898,189.938 M236.057,190.084
					c0-1.188-0.955-1.922-1.986-1.922c-1.413,0-2.424,1.039-2.424,2.693c0,1.518,1.201,2.49,2.436,2.49
					c1.359,0,1.791-0.486,1.791-1.121v-0.387h-0.046c-0.396,0.368-0.999,0.471-1.515,0.471c-0.729,0-1.299-0.396-1.392-1.021h0.81
					C235.366,191.288,236.057,190.993,236.057,190.084 M231.506,192.538v-0.267h-0.331c-0.579,0-0.837-0.156-0.837-0.653v-4.171
					c0-0.471-0.266-0.828-0.881-0.828h-0.35v5.119c0,1.002,0.552,1.545,1.568,1.545C231.223,193.283,231.506,193.07,231.506,192.538
					 M228.691,192.538v-0.267h-0.33c-0.578,0-0.836-0.156-0.836-0.653v-4.171c0-0.471-0.268-0.828-0.881-0.828h-0.351v5.119
					c0,1.002,0.549,1.545,1.567,1.545C228.408,193.283,228.691,193.07,228.691,192.538 M224.255,191.555
					c0,0.506-0.259,0.764-0.792,0.764c-0.542,0-0.854-0.229-0.854-0.614c0-0.404,0.265-0.626,1.203-0.626h0.44L224.255,191.555
					L224.255,191.555z M225.457,191.545v-1.139c0-1.709-0.991-2.225-2.094-2.225c-1.307,0-1.803,0.659-1.803,1.213v0.396h0.045
					c0.186-0.229,0.682-0.569,1.574-0.569c0.732,0,1.064,0.211,1.064,0.909v0.063h-0.434c-1.82,0-2.465,0.672-2.465,1.555
					c0,0.91,0.811,1.57,1.986,1.57h0.248C224.686,193.318,225.457,192.594,225.457,191.545 M220.411,190.332
					c0.415-1.001,0.864-2.499,0.864-2.852c0-0.349-0.238-0.539-0.541-0.539h-0.699c-0.238,1.59-0.735,3.133-1.407,4.584
					c-0.744-1.58-1.065-2.738-1.269-3.896c-0.062-0.378-0.33-0.688-0.799-0.688h-0.727c0.283,2.004,1.109,4.217,2.104,5.836
					c0.222,0.356,0.531,0.506,0.912,0.506h0.106C219.594,192.279,220.035,191.251,220.411,190.332 M215.578,189.984h-2.145
					c-0.356,0-0.57,0.219-0.57,0.521v0.47h2.115c0.379,0,0.6-0.185,0.6-0.507V189.984z M211.119,191.555
					c0,0.506-0.258,0.764-0.79,0.764c-0.542,0-0.856-0.229-0.856-0.614c0-0.404,0.27-0.626,1.207-0.626h0.439V191.555
					L211.119,191.555z M212.324,191.545v-1.139c0-1.709-0.992-2.225-2.096-2.225c-1.307,0-1.805,0.659-1.805,1.213v0.396h0.047
					c0.184-0.229,0.682-0.569,1.57-0.569c0.736,0,1.066,0.211,1.066,0.909v0.063h-0.432c-1.822,0-2.465,0.672-2.465,1.555
					c0,0.91,0.809,1.57,1.984,1.57h0.248C211.552,193.318,212.324,192.594,212.324,191.545 M208.066,192.538v-0.267h-0.33
					c-0.579,0-0.838-0.156-0.838-0.653v-4.171c0-0.471-0.266-0.828-0.881-0.828h-0.351v5.119c0,1.002,0.554,1.545,1.569,1.545
					C207.783,193.283,208.066,193.07,208.066,192.538 M204.852,189.984h-2.143c-0.357,0-0.57,0.219-0.57,0.521v0.47h2.114
					c0.378,0,0.599-0.185,0.599-0.507V189.984L204.852,189.984z M200.468,189.938c0,0.352-0.268,0.479-1.437,0.479h-0.551
					l0.009-0.166c0.026-0.569,0.442-1.058,1.038-1.058C200.1,189.191,200.468,189.441,200.468,189.938 M201.624,190.084
					c0-1.188-0.955-1.922-1.985-1.922c-1.414,0-2.425,1.039-2.425,2.693c0,1.518,1.203,2.49,2.435,2.49
					c1.36,0,1.793-0.486,1.793-1.121v-0.387h-0.045c-0.396,0.368-1.002,0.471-1.519,0.471c-0.728,0-1.296-0.396-1.39-1.021h0.811
					C200.936,191.288,201.624,190.993,201.624,190.084 M196.432,193.236v-2.887c0-1.406-0.964-2.188-2.133-2.188
					c-1.544,0-2.232,1.075-2.232,2.124v2.141c0,0.463,0.342,0.811,0.863,0.811h0.366v-2.867c0-0.707,0.367-1.111,0.902-1.111
					c0.635,0,1.002,0.367,1.002,1.203v1.967c0,0.461,0.348,0.811,0.899,0.811h0.332V193.236L196.432,193.236z M191.559,189.479
					v-0.44c0-0.376-0.266-0.81-1.029-0.81c-1.305,0-1.825,0.944-1.825,1.938v2.278c0,0.516,0.348,0.791,0.897,0.791h0.34v-2.85
					c0-0.755,0.304-1.058,0.856-1.058c0.319,0,0.532,0.071,0.714,0.147h0.047V189.479L191.559,189.479z M186.706,191.555
					c0,0.506-0.255,0.764-0.79,0.764c-0.542,0-0.855-0.229-0.855-0.614c0-0.404,0.269-0.626,1.205-0.626h0.44V191.555
					L186.706,191.555z M187.91,191.545v-1.139c0-1.709-0.991-2.225-2.096-2.225c-1.308,0-1.803,0.659-1.803,1.213v0.396h0.049
					c0.184-0.229,0.68-0.569,1.568-0.569c0.736,0,1.066,0.211,1.066,0.909v0.063h-0.434c-1.818,0-2.463,0.672-2.463,1.555
					c0,0.91,0.807,1.57,1.984,1.57h0.25C187.139,193.318,187.91,192.594,187.91,191.545 M183.111,193.236
					c0-1.26-0.185-3.998-0.303-4.99c-0.103-0.863-0.562-1.305-1.261-1.305h-0.146c-0.258,0.211-0.662,0.846-0.982,1.846
					l-0.729,2.234c-0.062,0.211-0.127,0.403-0.172,0.644c-0.058-0.285-0.166-0.662-0.359-1.195l-0.873-2.463
					c-0.239-0.67-0.854-1.065-1.729-1.065h-0.269c-0.229,1.25-0.505,4.054-0.505,5.459c0,0.535,0.32,0.836,0.79,0.836h0.44
					c0-1.146,0.109-3.676,0.275-4.574c0.091,0.22,0.238,0.598,0.35,0.917l0.899,2.655c0.229,0.682,0.597,1.002,1.013,1.002h0.34
					c0.174-0.248,0.366-0.67,0.516-1.12l0.882-2.701c0.093-0.285,0.213-0.542,0.294-0.745c0.104,0.626,0.24,2.934,0.24,3.73
					c0,0.57,0.328,0.836,0.808,0.836H183.111L183.111,193.236z M172.146,189.938c0,0.352-0.268,0.479-1.437,0.479h-0.551l0.01-0.166
					c0.024-0.569,0.438-1.058,1.039-1.058C171.779,189.191,172.146,189.441,172.146,189.938 M173.307,190.084
					c0-1.188-0.955-1.922-1.986-1.922c-1.416,0-2.424,1.039-2.424,2.693c0,1.518,1.201,2.49,2.436,2.49
					c1.359,0,1.791-0.486,1.791-1.121v-0.387h-0.046c-0.396,0.368-1,0.471-1.519,0.471c-0.728,0-1.297-0.396-1.388-1.021h0.81
					C172.616,191.288,173.307,190.993,173.307,190.084 M166.871,190.895c0,0.9-0.303,1.416-0.993,1.416
					c-0.707,0-1.241-0.672-1.241-1.703c0-0.799,0.404-1.404,1.03-1.404C166.329,189.201,166.871,189.65,166.871,190.895
					 M168.111,190.949v-3.493c0-0.496-0.258-0.837-0.846-0.837h-0.377v2.324c-0.193-0.435-0.736-0.781-1.231-0.781
					c-1.443,0-2.233,1.059-2.233,2.686c0,1.36,1.004,2.5,2.307,2.5C167.432,193.348,168.111,192.393,168.111,190.949
					 M158.938,190.709h-1.663c0.369-0.672,1.232-1.92,1.663-2.491V190.709z M161.153,191.205v-0.496h-0.992v-2.886
					c0-0.589-0.313-0.882-0.753-0.882h-0.459c-0.874,0.705-2.235,2.757-2.666,3.547c-0.083,0.156-0.167,0.34-0.167,0.688
					c0,0.286,0.276,0.569,0.689,0.569h2.132v0.68c0,0.533,0.304,0.812,0.735,0.812h0.488v-1.489h0.47
					C160.978,191.747,161.153,191.525,161.153,191.205 M151.622,192.014c-0.21,0.223-0.588,0.361-0.91,0.361
					c-0.689,0-1.084-0.27-1.084-0.984c0-0.406,0.312-0.736,0.625-0.92C150.537,190.875,151.273,191.674,151.622,192.014
					 M151.439,188.402c0,0.356-0.258,0.623-0.801,0.937c-0.185-0.267-0.424-0.522-0.424-0.864c0-0.432,0.222-0.662,0.636-0.662
					C151.219,187.812,151.439,188.016,151.439,188.402 M154.123,192.658c-0.312-0.02-0.579-0.11-0.993-0.506l-0.184-0.176
					c0.312-0.422,0.744-1.121,0.744-1.637c0-0.469-0.239-0.646-0.515-0.646h-0.247c-0.019,0.58-0.323,1.254-0.645,1.609
					c-0.339-0.332-0.862-0.945-1.129-1.287c0.799-0.449,1.332-1.021,1.332-1.646c0-0.901-0.642-1.451-1.581-1.451
					c-1.194,0-1.819,0.789-1.819,1.616c0,0.423,0.285,0.865,0.587,1.214c-0.615,0.351-1.222,1.002-1.222,1.767
					c0,1.047,0.717,1.828,2.105,1.828c0.946,0,1.451-0.388,1.709-0.671l0.322,0.312c0.322,0.312,0.652,0.369,0.928,0.369
					C153.947,193.355,154.123,193.117,154.123,192.658 M145.822,191.371c0-0.625-0.615-1.203-1.167-1.323
					c0.643-0.14,1.13-0.56,1.13-1.463c0-1.058-0.882-1.754-2.252-1.754c-1.285,0-1.949,0.696-1.949,1.212v0.533h0.047
					c0.332-0.434,0.983-0.672,1.683-0.672c0.844,0,1.23,0.342,1.23,0.902c0,0.449-0.304,0.789-1.23,0.824
					c-0.269,0.012-0.507,0.021-0.681,0.037v0.414c0,0.312,0.211,0.468,0.762,0.479c0.781,0.02,1.186,0.238,1.186,0.848
					c0,0.479-0.341,0.854-1.167,0.854c-0.846,0-1.443-0.267-1.83-0.681h-0.046v0.497c0,0.855,0.819,1.268,1.812,1.268
					C144.995,193.348,145.822,192.557,145.822,191.371 M138.983,191.674c0-0.79-0.55-1.24-1.58-1.404
					c-0.846-0.141-0.993-0.24-0.993-0.487c0-0.322,0.239-0.554,0.993-0.554c0.589,0,1.158,0.203,1.415,0.459h0.045v-0.467
					c0-0.479-0.458-1.059-1.581-1.059c-1.268,0-2.104,0.79-2.104,1.721c0,0.753,0.504,1.165,1.553,1.312
					c0.855,0.121,1.03,0.257,1.03,0.543c0,0.367-0.294,0.543-0.902,0.543c-0.589,0-1.222-0.223-1.488-0.469h-0.046v0.561
					c0,0.506,0.679,0.975,1.589,0.975C138.25,193.348,138.983,192.723,138.983,191.674 M134.912,189.479v-0.44
					c0-0.376-0.267-0.81-1.03-0.81c-1.304,0-1.827,0.944-1.827,1.938v2.278c0,0.516,0.348,0.791,0.899,0.791h0.339v-2.85
					c0-0.755,0.304-1.058,0.856-1.058c0.322,0,0.532,0.071,0.717,0.147h0.046V189.479L134.912,189.479z M131.042,191.016v-1.858
					c0-0.578-0.302-0.882-1.019-0.882h-0.22v2.785c0,0.844-0.359,1.194-0.865,1.194c-0.561,0-1.002-0.368-1.002-1.278v-1.819
					c0-0.578-0.312-0.882-1.02-0.882h-0.229v2.82c0,1.442,0.964,2.252,2.188,2.252C130.317,193.348,131.042,192.557,131.042,191.016
					 M124.766,189.938c0,0.352-0.268,0.479-1.436,0.479h-0.551l0.009-0.166c0.027-0.569,0.441-1.058,1.039-1.058
					C124.397,189.191,124.766,189.441,124.766,189.938 M125.923,190.084c0-1.188-0.955-1.922-1.985-1.922
					c-1.415,0-2.425,1.039-2.425,2.693c0,1.518,1.203,2.49,2.435,2.49c1.361,0,1.792-0.486,1.792-1.121v-0.387h-0.046
					c-0.395,0.368-1.001,0.471-1.517,0.471c-0.727,0-1.297-0.396-1.388-1.021h0.809
					C125.234,191.288,125.923,190.993,125.923,190.084 M118.249,188.475v2.979c0,1.157,0.605,1.84,1.854,1.84
					c0.717,0,1.085-0.321,1.085-0.828v-0.438h-0.046c-0.193,0.119-0.496,0.176-0.893,0.176c-0.495,0-0.78-0.25-0.78-0.893v-1.939
					h0.983c0.506,0,0.736-0.331,0.736-0.588v-0.506h-1.719v-1.121h-0.285c-0.193,0-0.413,0.146-0.579,0.339
					C118.34,187.805,118.249,187.988,118.249,188.475 M117.494,189.873v-0.58c0-0.588-0.561-1.064-1.352-1.064
					c-1.691,0-2.674,1.211-2.674,2.629c0,1.416,1.176,2.474,2.536,2.474c0.892,0,1.47-0.433,1.47-1.03v-0.568h-0.045
					c-0.174,0.229-0.596,0.459-1.306,0.459c-0.836,0-1.369-0.614-1.369-1.517c0-0.733,0.634-1.313,1.351-1.313
					c0.708,0,1.175,0.229,1.342,0.516h0.047V189.873z M111.778,189.938c0,0.352-0.268,0.479-1.436,0.479h-0.55l0.007-0.166
					c0.029-0.569,0.443-1.058,1.041-1.058C111.41,189.191,111.778,189.441,111.778,189.938 M112.935,190.084
					c0-1.188-0.956-1.922-1.985-1.922c-1.417,0-2.427,1.039-2.427,2.693c0,1.518,1.203,2.49,2.436,2.49
					c1.361,0,1.791-0.486,1.791-1.121v-0.387h-0.045c-0.395,0.368-1.002,0.471-1.517,0.471c-0.727,0-1.297-0.396-1.389-1.021h0.81
					C112.245,191.288,112.935,190.993,112.935,190.084 M107.98,191.674c0-0.79-0.551-1.24-1.58-1.404
					c-0.847-0.141-0.994-0.24-0.994-0.487c0-0.322,0.239-0.554,0.994-0.554c0.588,0,1.158,0.203,1.416,0.459h0.044v-0.467
					c0-0.479-0.458-1.059-1.579-1.059c-1.27,0-2.105,0.79-2.105,1.721c0,0.753,0.505,1.165,1.553,1.312
					c0.855,0.121,1.03,0.257,1.03,0.543c0,0.367-0.294,0.543-0.901,0.543c-0.588,0-1.223-0.223-1.489-0.469h-0.046v0.561
					c0,0.506,0.68,0.975,1.59,0.975C107.246,193.348,107.98,192.723,107.98,191.674 M101.785,191.674c0-0.79-0.55-1.24-1.58-1.404
					c-0.848-0.141-0.994-0.24-0.994-0.487c0-0.322,0.238-0.554,0.994-0.554c0.588,0,1.157,0.203,1.416,0.459h0.044v-0.467
					c0-0.479-0.459-1.059-1.579-1.059c-1.27,0-2.105,0.79-2.105,1.721c0,0.753,0.505,1.165,1.552,1.312
					c0.856,0.121,1.031,0.257,1.031,0.543c0,0.367-0.294,0.543-0.901,0.543c-0.588,0-1.223-0.223-1.489-0.469h-0.046v0.561
					c0,0.506,0.68,0.975,1.59,0.975C101.05,193.348,101.785,192.723,101.785,191.674 M96.299,189.938
					c0,0.352-0.267,0.479-1.434,0.479h-0.553l0.01-0.166c0.027-0.569,0.441-1.058,1.039-1.058
					C95.931,189.191,96.299,189.441,96.299,189.938 M97.456,190.084c0-1.188-0.955-1.922-1.985-1.922
					c-1.416,0-2.426,1.039-2.426,2.693c0,1.518,1.203,2.49,2.435,2.49c1.361,0,1.792-0.486,1.792-1.121v-0.387h-0.046
					c-0.395,0.368-1.001,0.471-1.516,0.471c-0.727,0-1.297-0.396-1.389-1.021h0.809C96.767,191.288,97.456,190.993,97.456,190.084
					 M91.023,190.895c0,0.9-0.302,1.416-0.993,1.416c-0.709,0-1.243-0.672-1.243-1.703c0-0.799,0.405-1.404,1.031-1.404
					C90.479,189.201,91.023,189.65,91.023,190.895 M92.263,190.949v-3.493c0-0.496-0.257-0.837-0.844-0.837h-0.376v2.324
					c-0.194-0.435-0.736-0.781-1.233-0.781c-1.444,0-2.232,1.059-2.232,2.686c0,1.36,1.001,2.5,2.306,2.5
					C91.584,193.348,92.263,192.393,92.263,190.949"/>
			</g>
		</g>
		<g>
			<g>
				<defs>
					<rect id="SVGID_3_" x="87.576" y="150.624" width="153.424" height="42.731"/>
				</defs>
				<clipPath id="SVGID_4_">
					<use xlink:href="#SVGID_3_"  overflow="visible"/>
				</clipPath>
				<path clip-path="url(#SVGID_4_)" fill="#FFFFFF" d="M211.191,181.409c0-0.791-0.551-1.242-1.58-1.407
					c-0.846-0.139-0.993-0.24-0.993-0.488c0-0.322,0.239-0.553,0.993-0.553c0.588,0,1.158,0.203,1.414,0.461h0.048v-0.469
					c0-0.477-0.46-1.055-1.581-1.055c-1.268,0-2.104,0.787-2.104,1.717c0,0.754,0.506,1.169,1.555,1.314
					c0.854,0.117,1.027,0.258,1.027,0.543c0,0.366-0.295,0.541-0.9,0.541c-0.59,0-1.223-0.222-1.488-0.47h-0.048v0.562
					c0,0.504,0.682,0.974,1.592,0.974C210.457,183.08,211.191,182.456,211.191,181.409 M204.133,178.21v2.979
					c0,1.156,0.605,1.836,1.855,1.836c0.719,0,1.086-0.321,1.086-0.826v-0.439h-0.047c-0.193,0.119-0.495,0.174-0.892,0.174
					c-0.497,0-0.78-0.25-0.78-0.894v-1.938h0.982c0.505,0,0.734-0.33,0.734-0.588v-0.505h-1.719v-1.12h-0.287
					c-0.189,0-0.41,0.146-0.576,0.34C204.227,177.539,204.133,177.723,204.133,178.21 M203.581,179.211v-0.441
					c0-0.375-0.267-0.808-1.028-0.808c-1.305,0-1.828,0.945-1.828,1.938v2.276c0,0.517,0.35,0.79,0.899,0.79h0.34v-2.849
					c0-0.755,0.304-1.058,0.854-1.058c0.32,0,0.533,0.072,0.717,0.146h0.046V179.211z M198.665,180.581
					c0,0.81-0.349,1.397-1.067,1.397c-0.814,0-1.178-0.59-1.178-1.572c0-0.819,0.361-1.408,1.066-1.408
					C198.299,178.998,198.665,179.587,198.665,180.581 M195.145,180.581c0,1.313,0.854,2.499,2.344,2.499
					c1.602,0,2.455-1.186,2.455-2.674c0-1.314-0.854-2.508-2.346-2.508C195.998,177.898,195.145,179.092,195.145,180.581
					 M193.325,180.663c0,0.791-0.413,1.325-1.013,1.325c-0.735,0-1.224-0.562-1.224-1.555c0-0.855,0.375-1.445,1.058-1.445
					C192.938,178.988,193.325,179.497,193.325,180.663 M194.593,180.343c0-1.251-0.937-2.444-2.251-2.444
					c-1.748,0-2.482,1.139-2.482,2.783v2.998c0,0.531,0.426,0.854,0.865,0.854h0.383v-2.188c0.25,0.424,0.701,0.734,1.254,0.734
					C193.803,183.08,194.593,181.934,194.593,180.343 M189.087,181.409c0-0.791-0.552-1.242-1.581-1.407
					c-0.846-0.139-0.992-0.24-0.992-0.488c0-0.322,0.239-0.553,0.992-0.553c0.59,0,1.158,0.203,1.414,0.461h0.047v-0.469
					c0-0.477-0.459-1.055-1.58-1.055c-1.27,0-2.104,0.787-2.104,1.717c0,0.754,0.504,1.169,1.552,1.314
					c0.854,0.117,1.03,0.258,1.03,0.543c0,0.366-0.295,0.541-0.902,0.541c-0.59,0-1.221-0.222-1.488-0.47h-0.045v0.562
					c0,0.504,0.68,0.974,1.588,0.974C188.354,183.08,189.087,182.456,189.087,181.409 M184.509,182.969v-2.886
					c0-1.405-0.966-2.185-2.132-2.185c-1.544,0-2.232,1.072-2.232,2.121v2.142c0,0.459,0.338,0.808,0.864,0.808h0.365v-2.867
					c0-0.707,0.369-1.11,0.901-1.11c0.635,0,1.002,0.366,1.002,1.202v1.97c0,0.459,0.35,0.81,0.899,0.81h0.331L184.509,182.969
					L184.509,182.969z M178.148,181.288c0,0.506-0.258,0.763-0.791,0.763c-0.543,0-0.854-0.229-0.854-0.615
					c0-0.403,0.267-0.625,1.205-0.625h0.44V181.288L178.148,181.288z M179.354,181.277v-1.139c0-1.709-0.992-2.225-2.096-2.225
					c-1.305,0-1.801,0.661-1.801,1.211v0.396h0.044c0.185-0.23,0.681-0.57,1.572-0.57c0.735,0,1.065,0.211,1.065,0.908v0.065h-0.433
					c-1.817,0-2.464,0.669-2.464,1.552c0,0.912,0.808,1.572,1.984,1.572h0.248C178.581,183.053,179.354,182.327,179.354,181.277
					 M174.96,179.211v-0.441c0-0.375-0.269-0.808-1.03-0.808c-1.306,0-1.828,0.945-1.828,1.938v2.276c0,0.517,0.349,0.79,0.898,0.79
					h0.341v-2.849c0-0.755,0.306-1.058,0.856-1.058c0.32,0,0.533,0.072,0.716,0.146h0.047V179.211z M172.173,177.068v-0.396h-4.226
					c-0.516,0-0.764,0.388-0.764,0.688v0.412h1.812v4.349c0,0.562,0.319,0.845,0.761,0.845h0.508v-5.191h1.156
					C171.834,177.775,172.173,177.372,172.173,177.068 M163.959,179.671c0,0.349-0.268,0.478-1.436,0.478h-0.551l0.008-0.164
					c0.028-0.569,0.443-1.058,1.04-1.058C163.59,178.927,163.959,179.174,163.959,179.671 M165.115,179.816
					c0-1.188-0.955-1.918-1.985-1.918c-1.414,0-2.425,1.037-2.425,2.689c0,1.52,1.203,2.49,2.436,2.49
					c1.36,0,1.793-0.487,1.793-1.119v-0.391h-0.047c-0.396,0.369-1.002,0.474-1.518,0.474c-0.727,0-1.296-0.396-1.389-1.022h0.811
					C164.427,181.021,165.115,180.729,165.115,179.816 M158.683,180.627c0,0.9-0.304,1.417-0.993,1.417
					c-0.708,0-1.241-0.673-1.241-1.701c0-0.8,0.404-1.407,1.03-1.407C158.14,178.936,158.683,179.387,158.683,180.627
					 M159.923,180.682v-3.492c0-0.496-0.257-0.836-0.845-0.836H158.7v2.324c-0.192-0.431-0.734-0.779-1.23-0.779
					c-1.444,0-2.234,1.057-2.234,2.685c0,1.358,1.002,2.499,2.307,2.499C159.242,183.08,159.923,182.124,159.923,180.682
					 M150.116,178.21v2.979c0,1.156,0.607,1.836,1.855,1.836c0.718,0,1.085-0.321,1.085-0.826v-0.439h-0.046
					c-0.193,0.119-0.497,0.174-0.892,0.174c-0.496,0-0.781-0.25-0.781-0.894v-1.938h0.983c0.505,0,0.736-0.33,0.736-0.588v-0.505
					h-1.719v-1.12h-0.285c-0.193,0-0.413,0.146-0.578,0.34C150.208,177.539,150.116,177.723,150.116,178.21 M148.075,181.288
					c0,0.506-0.258,0.763-0.792,0.763c-0.542,0-0.855-0.229-0.855-0.615c0-0.403,0.268-0.625,1.206-0.625h0.441V181.288
					L148.075,181.288z M149.279,181.277v-1.139c0-1.709-0.993-2.225-2.095-2.225c-1.305,0-1.802,0.661-1.802,1.211v0.396h0.046
					c0.183-0.23,0.68-0.57,1.571-0.57c0.736,0,1.067,0.211,1.067,0.908v0.065h-0.432c-1.821,0-2.463,0.669-2.463,1.552
					c0,0.912,0.808,1.572,1.984,1.572h0.249C148.508,183.053,149.279,182.327,149.279,181.277 M144.683,179.605v-0.58
					c0-0.586-0.561-1.063-1.352-1.063c-1.691,0-2.674,1.212-2.674,2.628s1.176,2.473,2.537,2.473c0.891,0,1.471-0.433,1.471-1.025
					v-0.57h-0.046c-0.175,0.229-0.598,0.46-1.305,0.46c-0.836,0-1.37-0.616-1.37-1.519c0-0.735,0.634-1.314,1.351-1.314
					c0.708,0,1.178,0.229,1.342,0.516h0.046V179.605z M140.382,182.273v-0.27h-0.231c-0.542,0-0.753-0.156-0.753-0.65v-2.315
					c0-0.625-0.33-0.921-0.881-0.921h-0.35v3.355c0,1,0.524,1.543,1.479,1.543C140.169,183.016,140.382,182.805,140.382,182.273
					 M139.499,176.932c0-0.395-0.331-0.717-0.727-0.717c-0.394,0-0.716,0.322-0.716,0.717c0,0.396,0.322,0.727,0.716,0.727
					C139.168,177.656,139.499,177.327,139.499,176.932 M135.759,180.627c0,0.9-0.304,1.417-0.994,1.417
					c-0.708,0-1.241-0.673-1.241-1.701c0-0.8,0.405-1.407,1.031-1.407C135.216,178.936,135.759,179.387,135.759,180.627
					 M136.999,180.682v-3.492c0-0.496-0.258-0.836-0.845-0.836h-0.377v2.324c-0.193-0.431-0.735-0.779-1.232-0.779
					c-1.443,0-2.232,1.057-2.232,2.685c0,1.358,1,2.499,2.306,2.499C136.318,183.08,136.999,182.124,136.999,180.682
					 M131.529,182.969v-2.886c0-1.405-0.963-2.185-2.132-2.185c-1.543,0-2.232,1.072-2.232,2.121v2.142
					c0,0.459,0.34,0.808,0.864,0.808h0.367v-2.867c0-0.707,0.368-1.11,0.902-1.11c0.634,0,1.002,0.366,1.002,1.202v1.97
					c0,0.459,0.348,0.81,0.9,0.81h0.329V182.969L131.529,182.969z M125.519,181.904c0.229-0.533,1.094-2.795,1.094-3.318
					c0-0.402-0.185-0.578-0.58-0.578h-0.532c-0.111,1.012-0.561,2.51-0.966,3.438c-0.451-0.871-0.819-1.901-0.993-2.858
					c-0.065-0.351-0.377-0.578-0.717-0.578h-0.653c0.166,1.167,1.103,3.632,1.756,4.613c-0.266,0.696-0.422,0.885-0.874,0.91
					l-0.698,0.046v0.238c0,0.459,0.404,0.764,0.864,0.764C124.111,184.579,124.599,184.073,125.519,181.904 M121.85,181.023
					c0-0.849-0.56-1.445-1.708-1.686c-1.177-0.248-1.472-0.479-1.472-0.855c0-0.486,0.359-0.808,1.333-0.808
					c0.69,0,1.249,0.2,1.635,0.614h0.038v-0.578c0-0.523-0.423-1.148-1.893-1.148c-1.482,0-2.363,0.992-2.363,2.041
					c0,0.854,0.607,1.391,1.673,1.619c1.333,0.284,1.5,0.478,1.5,0.908c0,0.508-0.304,0.828-1.252,0.828
					c-0.763,0-1.332-0.307-1.754-0.682h-0.027v0.562c0,0.742,0.652,1.239,1.92,1.239C121.006,183.08,121.85,182.264,121.85,181.023"
					/>
			</g>
		</g>
		<g>
			<g>
				<defs>
					<rect id="SVGID_5_" x="87.576" y="150.624" width="153.424" height="42.731"/>
				</defs>
				<clipPath id="SVGID_6_">
					<use xlink:href="#SVGID_5_"  overflow="visible"/>
				</clipPath>
				<path clip-path="url(#SVGID_6_)" fill="#FFFFFF" d="M225.041,155.104c0.874,0,1.498,0.606,1.498,1.854
					c0,1.275-0.712,2.02-1.707,2.02c-0.95,0-1.586-0.771-1.586-1.812C223.246,155.961,224.018,155.104,225.041,155.104
					 M228.523,158.203v-1.365c0-2.048-1.272-3.5-3.26-3.5c-2.582,0-4.062,1.822-4.062,4.078c0,1.884,1.378,3.232,3.32,3.232
					c1.143,0,1.896-0.609,2.062-1.188v0.192l0.031,0.814c0.044,1.155-0.654,1.84-2.093,1.84c-1.146,0-2.062-0.354-2.537-0.861
					h-0.088v0.906c0,0.947,1.125,1.748,2.771,1.748c2.581,0,3.915-1.793,3.915-3.797c0-0.268-0.019-0.695-0.028-1.021
					C228.539,158.93,228.523,158.469,228.523,158.203 M220.709,155.457v-0.71c0-0.606-0.43-1.306-1.66-1.306
					c-2.105,0-2.947,1.525-2.947,3.127v3.679c0,0.831,0.562,1.274,1.449,1.274h0.551v-4.599c0-1.216,0.487-1.705,1.379-1.705
					c0.518,0,0.858,0.118,1.156,0.237L220.709,155.457L220.709,155.457z M212.777,157.667c0,1.306-0.562,2.255-1.723,2.255
					c-1.318,0-1.896-0.949-1.896-2.537c0-1.318,0.578-2.269,1.72-2.269C212.186,155.116,212.777,156.064,212.777,157.667
					 M207.1,157.667c0,2.123,1.377,4.033,3.778,4.033c2.582,0,3.96-1.91,3.96-4.315c0-2.119-1.378-4.047-3.781-4.047
					C208.477,153.338,207.1,155.266,207.1,157.667 M206.014,160.248c0-0.695-0.578-1.275-1.272-1.275
					c-0.696,0-1.274,0.58-1.274,1.275s0.578,1.273,1.274,1.273C205.436,161.521,206.014,160.943,206.014,160.248 M199.001,157.445
					h-2.683c0.593-1.082,1.986-3.098,2.683-4.02V157.445z M202.573,158.245v-0.8h-1.603v-4.657c0-0.947-0.505-1.422-1.214-1.422
					h-0.739c-1.41,1.143-3.604,4.448-4.305,5.724c-0.133,0.253-0.265,0.549-0.265,1.113c0,0.458,0.442,0.917,1.11,0.917h3.438v1.097
					c0,0.861,0.489,1.305,1.187,1.305h0.785v-2.399h0.756C202.292,159.12,202.573,158.766,202.573,158.245 M193.497,158.514
					c0-1.01-0.992-1.943-1.88-2.137c1.037-0.221,1.822-0.904,1.822-2.357c0-1.705-1.424-2.83-3.633-2.83
					c-2.074,0-3.143,1.125-3.143,1.953v0.862h0.068c0.535-0.698,1.592-1.084,2.718-1.084c1.362,0,1.987,0.55,1.987,1.454
					c0,0.729-0.489,1.277-1.987,1.337c-0.433,0.015-0.816,0.029-1.099,0.06v0.666c0,0.504,0.342,0.756,1.229,0.771
					c1.261,0.028,1.914,0.386,1.914,1.366c0,0.771-0.55,1.381-1.884,1.381c-1.364,0-2.329-0.432-2.949-1.102h-0.076v0.804
					c0,1.379,1.32,2.045,2.922,2.045C192.166,161.7,193.497,160.426,193.497,158.514 M185.818,154.466
					c0-0.653-0.254-0.948-0.937-0.948h-0.846c-0.295,2-0.993,4.121-1.749,5.617c-0.848-1.646-1.247-3.187-1.528-4.669
					c-0.073-0.43-0.504-0.948-1.187-0.948h-1.067c0.179,2.162,1.544,5.647,2.626,7.293c0.4,0.594,0.711,0.801,1.307,0.801h0.385
					c0.891-1.217,1.779-3.144,2.312-4.61C185.626,155.667,185.818,154.703,185.818,154.466 M178.743,160.396v-0.43h-0.533
					c-0.935,0-1.351-0.254-1.351-1.054v-6.731c0-0.757-0.43-1.334-1.422-1.334h-0.562v8.26c0,1.615,0.891,2.49,2.534,2.49
					C178.284,161.598,178.743,161.257,178.743,160.396 M173.168,161.521v-4.807c0-2.268-1.482-3.379-3.32-3.379
					c-0.964,0-1.839,0.504-2.3,1.245c-0.575-0.771-1.391-1.245-2.43-1.245c-2.417,0-3.559,1.452-3.559,3.635v3.098
					c0,0.92,0.623,1.453,1.437,1.453h0.533v-4.715c0-1.1,0.58-1.705,1.351-1.705c0.877,0,1.485,0.562,1.485,1.881v3.086
					c0,0.949,0.576,1.453,1.449,1.453h0.533v-4.76c0-1.098,0.549-1.66,1.352-1.66c0.876,0,1.469,0.562,1.469,1.881v3.086
					c0,0.949,0.432,1.453,1.512,1.453H173.168L173.168,161.521z M160.299,156.275h-3.456c-0.58,0-0.92,0.354-0.92,0.844v0.756h3.411
					c0.609,0,0.965-0.296,0.965-0.814V156.275z M150.689,153.843v4.804c0,1.869,0.978,2.965,2.994,2.965
					c1.156,0,1.75-0.519,1.75-1.334v-0.711h-0.074c-0.312,0.193-0.801,0.281-1.439,0.281c-0.8,0-1.26-0.397-1.26-1.438v-3.131h1.587
					c0.815,0,1.186-0.531,1.186-0.947v-0.814h-2.773v-1.81h-0.459c-0.311,0-0.667,0.237-0.933,0.549
					C150.837,152.762,150.689,153.057,150.689,153.843 M149.798,160.396v-0.43h-0.371c-0.875,0-1.217-0.254-1.217-1.054v-3.736
					c0-1.01-0.532-1.481-1.422-1.481h-0.564v5.412c0,1.615,0.845,2.49,2.387,2.49C149.458,161.598,149.798,161.257,149.798,160.396
					 M148.374,151.779c0-0.637-0.532-1.155-1.17-1.155c-0.637,0-1.156,0.521-1.156,1.155c0,0.637,0.52,1.172,1.156,1.172
					C147.842,152.951,148.374,152.417,148.374,151.779 M144.726,159.003c0-1.276-0.888-2.004-2.548-2.271
					c-1.366-0.224-1.603-0.387-1.603-0.785c0-0.521,0.386-0.891,1.603-0.891c0.949,0,1.867,0.325,2.282,0.739h0.074v-0.756
					c0-0.771-0.74-1.704-2.548-1.704c-2.048,0-3.396,1.273-3.396,2.771c0,1.218,0.814,1.886,2.504,2.123
					c1.381,0.191,1.662,0.414,1.662,0.875c0,0.593-0.475,0.875-1.454,0.875c-0.949,0-1.971-0.355-2.4-0.756h-0.075v0.902
					c0,0.812,1.097,1.57,2.565,1.57C143.542,161.7,144.726,160.693,144.726,159.003 M137.52,160.248
					c0-0.695-0.579-1.275-1.274-1.275c-0.697,0-1.275,0.58-1.275,1.275s0.579,1.273,1.275,1.273
					C136.941,161.521,137.52,160.943,137.52,160.248 M134.229,154.331c0-0.606-0.4-0.858-0.964-0.858h-0.831
					c-0.312,1.811-0.742,3.66-1.498,5.336c-0.564-1.125-1.053-2.785-1.291-3.869c-0.192-0.873-0.8-1.127-1.408-1.127h-0.653
					c-0.386,1.689-0.785,3.41-1.512,4.996c-0.667-1.451-1.039-2.963-1.276-4.328c-0.074-0.442-0.475-0.963-1.156-0.963h-1.069
					c0.356,2.668,1.127,4.98,2.284,7.025c0.269,0.475,0.832,1.068,1.423,1.068h0.268c0.711-0.963,1.646-3.439,1.898-4.656
					c0.223,1.217,0.83,2.697,1.32,3.588c0.266,0.491,0.741,1.068,1.363,1.068h0.327c0.52-0.771,1.261-2.24,1.853-3.93
					C133.902,156.021,134.229,154.645,134.229,154.331 M122.514,154.331c0-0.606-0.401-0.858-0.964-0.858h-0.831
					c-0.311,1.811-0.742,3.66-1.497,5.336c-0.563-1.125-1.054-2.785-1.292-3.869c-0.191-0.873-0.8-1.127-1.408-1.127h-0.652
					c-0.386,1.689-0.786,3.41-1.513,4.996c-0.668-1.451-1.039-2.963-1.275-4.328c-0.075-0.442-0.476-0.963-1.157-0.963h-1.067
					c0.356,2.668,1.127,4.98,2.283,7.025c0.268,0.475,0.831,1.068,1.424,1.068h0.267c0.711-0.963,1.646-3.439,1.899-4.656
					c0.222,1.217,0.829,2.697,1.32,3.588c0.266,0.491,0.741,1.068,1.363,1.068h0.327c0.519-0.771,1.26-2.24,1.854-3.93
					C122.188,156.021,122.514,154.645,122.514,154.331 M110.799,154.331c0-0.606-0.4-0.858-0.964-0.858h-0.83
					c-0.312,1.811-0.742,3.66-1.498,5.336c-0.564-1.125-1.053-2.785-1.291-3.869c-0.193-0.873-0.801-1.127-1.41-1.127h-0.651
					c-0.385,1.689-0.786,3.41-1.513,4.996c-0.667-1.451-1.038-2.963-1.275-4.328c-0.075-0.442-0.476-0.963-1.157-0.963h-1.068
					c0.356,2.668,1.127,4.98,2.285,7.025c0.266,0.475,0.83,1.068,1.423,1.068h0.267c0.712-0.963,1.647-3.439,1.898-4.656
					c0.223,1.217,0.831,2.697,1.32,3.588c0.268,0.491,0.742,1.068,1.365,1.068h0.326c0.52-0.771,1.261-2.24,1.854-3.93
					C110.473,156.021,110.799,154.645,110.799,154.331"/>
			</g>
		</g>
	</g>
</g>
</svg>
