<?xml version="1.0" encoding="utf-8"?>
<!-- Generator: Adobe Illustrator 16.0.4, SVG Export Plug-In . SVG Version: 6.00 Build 0)  -->
<!DOCTYPE svg PUBLIC "-//W3C//DTD SVG 1.1//EN" "http://www.w3.org/Graphics/SVG/1.1/DTD/svg11.dtd">
<svg version="1.1" id="Calque_1" xmlns="http://www.w3.org/2000/svg" xmlns:xlink="http://www.w3.org/1999/xlink" x="0px" y="0px"
	 width="325px" height="225px" viewBox="0 0 325 225" enable-background="new 0 0 325 225" xml:space="preserve">
<g id="Calque_2">
	<g>
		<path fill="#853326" d="M29.292,84.743c3.717-15.01,10.654-28.886,16.938-42.931c4.647-10.354,9.934-20.532,15.74-30.429
			C66.83,3.074,72.643-4.492,81.213-9.791c1.857-1.299,3.626-2.651,3.979-5.006c-4.153-3.433-7.39-0.32-10.419,1.598
			C64.623-6.727,58.592,2.967,52.981,12.88c-1.055,1.853-1.866,3.849-3.118,5.562c-0.938,1.509-1.637,3.095-2.31,4.696
			c-2.793,6.326-4.688,13.007-8.561,18.895c-0.6,0.84-1.053,1.732-1.46,2.618C31.781,59.649,24.555,74.08,19.858,89.438
			c-2.495,8.047-2.464,16.18-2.807,24.335c-0.087,1.865,0.578,3.781-1.048,5.33c-0.042,0.239-0.121,0.446-0.214,0.64
			c0.403,2.491,0.738,4.997,0.986,7.516c0.167,1.692,0.289,3.387,0.384,5.081c1.295,4.661,2.328,9.349,3.063,14.066
			c0.081,0.08,0.156,0.162,0.242,0.24c4.626,12.636,8.584,25.558,16.721,36.72c1.227-1.958,0.239-3.565-0.993-5.052
			c10.544,13.178,20.938,26.502,35.872,35.799c3.595-0.053,7.533,3.71,10.718-0.899c-0.951-4.327-5.292-5.315-8.375-7.532
			c-17.305-12.414-31.859-27.152-40.732-46.115c-4.541-9.707-6.582-20.229-8.164-30.75c-3.172-13.979-3.249-27.748,2.902-41.123
			C28.887,86.739,29.174,85.751,29.292,84.743z"/>
		<path fill="#592219" d="M78.387-36.692c-7.456,3.354-12.534,9.386-18.058,14.851C53.87-15.453,49.865-7.279,43.433-0.879
			c-0.653,0.203-1.169,0.54-1.547,1.056c-5.164,13.396-10.315,26.757-15.451,40.14c-1.011,2.598-0.91,5.734-3.081,7.769
			c-0.737,4.456-1.688,8.901-2.868,13.327c-0.023,0.16-0.051,0.319-0.074,0.479c0.269,0.407,0.578,0.814,0.984,1.223
			c5.855-2.791,7.722-8.32,9.872-13.473c7.967-18.988,15.299-38.165,27.141-55.493c5.569-8.119,11.838-15.562,19.549-21.998
			C81.099-30.429,83.995-33.479,78.387-36.692z"/>
		<path fill="#67291F" d="M67.306,219.908c18.557,18.449,41.536,29.025,67.613,34.092c1.136,0.125,2.229-0.049,3.249-0.494
			c3.515-3.926,0.151-6.214-2.69-7.77c-5.068-2.807-10.446-5.156-15.978-7.198c-13.298-4.919-26.796-9.481-38.939-16.843
			c-3.541-1.6-6.693-4.008-10.544-4.887C67.054,216.143,66.769,216.575,67.306,219.908z"/>
		<path fill="#642A20" d="M79.37-37.067c-0.497-0.227-0.858-0.239-1.074,0.031c-0.168,0.262-0.258,0.46-0.197,0.579
			c2.403,2.508,2.671,4.324-0.594,6.862C59.371-15.396,49.533,4.154,40.041,23.894c-6.285,12.987-9.054,27.517-18.905,38.952
			c-0.37,0.334-0.711,0.68-1.031,1.036c-0.068,0.432-0.125,0.864-0.2,1.296c-0.55,3.187-1.147,6.407-1.821,9.626
			c6.235-3.227,8.537-9.138,11.252-14.785C38.234,41.672,45.397,22.57,55.569,4.75c3.328-5.803,7.059-11.346,11.768-16.287
			c5.734-6.049,12.141-11.049,21.066-12.389c3.114-0.46,6.361-1.363,7.916-4.608C90.754-31.538,85.513-35.104,79.37-37.067z"/>
		<path fill="#702A20" d="M96.319-28.534C77.668-25.151,64.573-14.822,55.78,0.734c-4.282,7.662-8.566,15.403-12.302,23.322
			c-5.777,12.241-10.86,24.792-16.696,37.045c-2.239,4.766-5.728,9.067-8.668,13.56c-0.063,0.305-0.125,0.61-0.189,0.916
			c-0.111,1.453-0.218,2.909-0.36,4.375c1.211,5.203,3.676,2.425,5.02,0.418c1.984-2.984,3.447-6.291,4.87-9.557
			c3.805-8.691,6.597-17.788,11.375-26.107c0.257-0.607,0.502-1.233,0.747-1.86c3.909-6.036,5.122-13.218,9.108-19.21
			c1.055-1.059,1.602-2.311,1.549-3.756c5.129-9.91,10.2-19.82,18.434-27.882c6.516-6.388,14.091-10.88,23.483-12.641
			c3.896-0.747,8.725-0.204,10.962-4.694C100.85-26.385,98.572-27.456,96.319-28.534z"/>
		<path fill="#7B2A1F" d="M67.306,219.908c-0.91-3.325,1.241-2.014,2.763-1.6c3.527,0.93,5.867,4.314,9.858,4.215
			c3.033,1.59,6.06,3.17,9.258,4.392c2.433,0.92,5.031,2.452,7.444-0.194c-1.162-4.484-5.922-4.41-9.09-6.244
			c-4.832-2.752-9.551-5.81-15.136-7.244c-13.991-10.965-25.455-24.299-37.886-36.893c0.903,2.335,1.786,4.68,2.668,7.026
			C44.531,197.582,54.613,209.725,67.306,219.908z"/>
		<path fill="#6B3428" d="M157.401,257.745c-7.608-0.577-15.183-1.252-22.482-3.745c0.971-0.451,1.986-0.907,2.964-1.357
			c6.301-3.059,12.672-5.961,18.207-10.227C156.362,247.546,156.786,252.661,157.401,257.745z"/>
		<path fill="#4D2118" d="M78.099-36.457c0.427-0.193,0.849-0.409,1.271-0.611c-1.519-1.503-4.186-1.76-5.082-4.021
			c-5.66-2.803-8.186,0.094-10.964,4.522c-3.322,5.217-5.136,11.516-10.771,15.321C49.144-14.295,44.1-7.998,42.634-0.2
			c1.058,1.723,2.438,2.717,3.703,0.332C53.972-14.371,66.138-25.327,78.099-36.457z"/>
		<path fill="#78281E" d="M38.829,44.705c-3.969,2.09-4.048,6.242-5.64,9.568c-3.829,8.119-6.164,16.825-11.274,24.396
			c-1.111,1.69-1.628,4.76-4.351,1.281c-3.6,12.93-1.309,26.098-1.561,39.151c1.952,0.58,2.121-0.9,2.035-1.936
			c-1.229-22.32,8.755-41.871,16.947-61.863C36.394,51.812,37.533,48.239,38.829,44.705z"/>
		<path fill="#8C2119" d="M142.169-7.264c0.952-1.447,1.853-2.898,2.778-4.332c-9.429-4.979-20.215-5.943-30.263-9.093
			c-7.144-0.348-14.249,0.146-21.237,1.42c-3.362,0.612-6.888,1.206-8.54,4.676c-1.619,1.204-3.229,2.38-4.894,3.592
			c-1.201,1.852-4.624,3.246-2.726,5.795c2.691,3.585,6.365,0.131,9.59,0.375c2.269-0.185,4.598-0.253,6.653-1.351
			c6.092-4.698,13.145-3.091,19.911-2.466C123.014-7.732,132.489-5.797,142.169-7.264z"/>
		<path fill="#78281E" d="M84.907-14.592c6.264-3.043,13.061-3.889,19.919-3.953c3.542-0.03,6.742-0.66,9.858-2.144
			c-3.367-2.604-7.534-3.511-11.572-4.649c-1.604,0.629-3.185,1.552-4.85,1.745C70.715-20.526,59.009-1.778,50.233,19.879
			c4.237-2.94,5.079-7.873,7.598-11.827C62.9,0.142,68.538-7.201,76.677-12.455C79.007-13.926,81.625-15.843,84.907-14.592z"/>
		<path fill="#943A2B" d="M27.911,84.767c-0.25,0.617-0.522,1.243-0.786,1.891c-4.886,13.589-4.387,27.643-3.616,41.681
			c3.716,36.235,23.965,62.504,55.122,82.199c1.448,0.938,3.079,1.542,3.8,3.204c11.41,8.18,30.569,9.496,39.963,2.754
			c-1.567-6.727-8.549-6.816-13.202-9.758c-9.192-1.163-18.09-3.704-27.109-5.66c-7.597-1.748-13.077-6.739-18.676-11.387
			c-15.155-12.642-28.378-26.614-32.388-46.281c-3.584-17.671-2.216-35.254,1.825-52.688c1.243-5.5,2.448-11.101,5.656-16.027
			c5.177-13.996,11.612-27.502,18.57-40.79c2.428-4.655,4.66-9.367,8.409-13.266c1.539-2.455,3.021-4.883,1.847-7.892
			c-5.389-3.338-7.026,1.32-8.731,4.192c-5.43,8.974-9.943,18.38-14.327,27.81C38.19,57.839,32.493,71.104,27.911,84.767z"/>
		<path fill="#833527" d="M122.488,215.725c-11.851,6.84-23.477,2.242-35.087-0.681c-1.651-0.424-3.337-0.858-4.971-1.303
			c-3.447,1.657-6.59-2.161-10.027-0.509c7.169,5.795,15.771,9.236,24.033,13.242c5.299,6.307,32.05,13.094,39.321,9.969
			c2.291-1.004,4.139-2.59,5.733-4.459c1.507-2.334,1.753-4.787,0.897-7.41c-2.704-4.479-6.673-7.741-11.508-10.123
			C127.923,213.916,124.79,212.518,122.488,215.725z"/>
		<path fill="#8C3426" d="M27.911,84.767c3.846-8.855,7.811-17.724,11.557-26.628c5.856-13.906,12.894-27.258,20.296-40.453
			c1.374-2.407,2.394-6.137,6.929-4.574c1.696-0.074,2.644-1.174,3.321-2.408c3.491-6.259,8.078-11.474,15.04-14.487
			c1.122-0.466,1.873-1.45,1.967-2.726c-0.954,0.006-1.941-0.08-2.881,0.051c-1.844,0.312-3.748,2.496-5.422,1.008
			c-2.296-2.027,1.37-3.543,1.296-5.549C68.559-4.285,62.345,6.444,56.507,17.308c-10.69,19.869-19.525,40.519-27.775,61.396
			C27.938,80.662,26.841,82.586,27.911,84.767z"/>
		<path fill="#8C3426" d="M23.509,128.338c1.787-10.857-0.282-21.967,2.301-32.824c0.672-2.847,2.81-5.676,1.32-8.873
			C20.068,100.097,20.72,114.122,23.509,128.338z"/>
		<path fill="#78281E" d="M48.685,23.635c-5.51,5.34-6.688,12.531-9.108,19.21C45.07,37.473,46.266,30.286,48.685,23.635z"/>
		<path fill="#6E3226" d="M96.437,226.477c7.477,4.291,16.067,5.367,24.225,7.726c7.527,2.19,14.328,2.496,20.434-2.966
			c4.913-1.698,9.758-0.284,14.631,0.328c0.066,4.442,0.225,8.885,0.502,13.313c-5.071,4.377-10.914,7.587-18.345,7.765
			c1.213-4.943-3.124-5.787-6.255-7.082c-13.522-5.562-27.138-10.895-40.714-16.283c-4.105-1.637-8.141-3.277-10.987-6.752
			C85.739,222.718,90.263,227.781,96.437,226.477z"/>
		<path fill="#BD3224" d="M149.677,81.799c1.787-18.395,2.246-36.906,3.267-55.363c2.107,0.699,4.044,1.727,5.703,3.138
			c-0.287,19.129-0.172,38.267-0.777,57.394c-0.379,11.961-0.166,23.937,0.058,35.913c-0.152,0.479-0.334,0.953-0.586,1.42
			c-1.974,1.614-4.209,1.866-6.629,1.152c-0.966-0.783-1.449-1.746-1.008-2.949C149.266,108.951,148.372,95.445,149.677,81.799z"/>
		<path fill="#A11A17" d="M142.169-7.264c-0.479-0.512-1.052-1.552-1.458-1.475c-12.689,1.602-24.96-2.455-37.52-2.41
			c-4.027,0.011-7.949,0.08-9.999,4.246c2.764,3.129,5.819,5.821,9.914,7.263c13.099-2.05,24.953,3.068,37.237,5.741
			C141.102,1.668,140.318-2.973,142.169-7.264z"/>
		<path fill="#B21717" d="M140.344,6.102c-7.788-6.111-17.808-5.288-26.757-7.857c-3.767-1.076-7.236-0.535-10.552,1.355
			c-1.348,2.938-0.473,5.602,1.07,8.193c5.491,3.438,11.371,5.771,18.16,5.514c6.834-0.939,13.525,1.215,20.346,1.1
			C143.152,11.342,140.961,8.924,140.344,6.102z"/>
		<path fill="#030000" d="M105.282,7.966c-0.748-2.803-1.501-5.591-2.247-8.366c-2.852-2.719-5.515-5.73-9.843-6.502
			c-2.061,0.146-4.118,0.276-6.172,0.393C76.833-3.145,70.553,3.865,66.692,13.111c-0.644,2.343-1.287,4.658-1.941,6.992
			c-2.519,3.609-0.313,6.709,1.21,9.879c1.517,2.457,3.846,4.006,6.464,5.238C89.586,39.052,107.588,24.106,105.282,7.966z"/>
		<path fill="#91221A" d="M109.342,206.34c13.776-8.29,26.836-17.422,38.361-28.513c2.596-2.487,6.06-3.948,9.654-5.048
			c-0.173,2.383-0.365,4.765-0.606,7.146c-0.562,5.566-0.712,11.146-0.478,16.694c-1.972,1.042-3.864,2.354-5.71,3.881
			c-3.849,3.229-7.659,6.531-11.631,9.654c-2.62,2.041-4.465,5.107-8.36,5.312c-2.692,0.084-5.376,0.181-8.084,0.259
			c-4.549-2.762-9.083-5.531-13.61-8.274C109.033,207.061,109.184,206.689,109.342,206.34z"/>
		<path fill="#9D4634" d="M37.232,73.195c-10.682,23.826-13.052,48.391-6.898,73.622c5.998,24.691,24.949,39.744,45.088,53.772
			c1.898,1.332,4.627,1.588,6.933,2.366c0.651-4.002-3.392-5.15-5.197-7.637c-7.76-5.305-16.052-10.051-21.086-18.172
			c-20.574-18.44-23.19-41.795-20.253-66.651c-0.05-6.586,0.616-13.111,1.34-19.649c-0.158-3.702,0.974-7.248,1.409-10.873
			C38.871,77.639,40.388,74.957,37.232,73.195z"/>
		<path fill="#A83829" d="M37.232,73.195c1.294,6.029-2.935,11.613-1.623,17.658c3.668-0.629,3.923-3.79,4.918-6.199
			c1.887-4.503,4.104-8.812,7.059-12.777c5.486-8.441,6.344-18.628,11.621-27.266c2.977-4.783,5.874-9.743,8.33-14.861
			c-0.414-3.337-3.287-6.059-2.786-9.646c-5.382,2.593-6.604,7.965-8.929,12.48C48.898,45.816,42.079,59.097,37.232,73.195z"/>
		<path fill="#A03527" d="M76.019,196.282c2.122,2.225,4.246,4.461,6.336,6.674c8.923,1.125,17.185,5.633,26.523,4.493l0.012-0.047
			c-3.533-6.092-10.761-8.575-15.115-13.889c-2.672-1.556-5.051-3.955-8.739-3.104C82.67,193.197,78.895,194.154,76.019,196.282z"/>
		<path fill="#802018" d="M154.637,195.236c0.517-0.36,1.035-0.696,1.559-1.019c0.043,2.087,0.142,4.169,0.298,6.245
			c-0.113,1.592-0.22,3.186-0.291,4.779c-0.15,3.345-0.272,6.705-0.363,10.072c-2.325,2.067-4.606,4.172-6.894,6.271
			c-2.051,1.862-3.965,4.365-7.504,3.296c-3.617-3.128-7.233-6.271-10.869-9.416C137.973,208.07,145.993,201.297,154.637,195.236z"
			/>
		<path fill="#712119" d="M155.751,233.178c-4.926-0.214-9.828-0.738-14.656-1.941c0.103-2.125,0.204-4.25,0.347-6.354
			c5.99-2.732,9.285-8.438,14.468-12.031C155.693,219.602,155.612,226.391,155.751,233.178z"/>
		<path fill="#9D271E" d="M94.423,192.48c2.224-0.614,4.47-0.275,6.641,0.139c11.263,2.179,19.597-1.82,26.63-10.07
			c5.929-6.959,11.923-13.746,16.364-21.706c2.403-4.325,5.569-8.307,9.697-11.421c1.15-0.451,2.336-0.732,3.554-0.91
			c0.311-0.045,0.604-0.08,0.897-0.117c-0.039,8.889-0.301,17.77-1.02,26.639c-5.481,2.389-10.358,5.398-14.627,9.742
			c-9.502,9.72-20.767,17.354-33.67,22.627c-5.847-3.911-12.223-7.295-15.995-13.438C93.21,193.277,93.734,192.791,94.423,192.48z"
			/>
		<path fill="#AA2F23" d="M150.919,125.096c1.907-1.004,3.967-1.107,6.076-0.971c0.312,0.287,0.642,0.557,0.971,0.825
			c0.156,8.389,0.299,16.776,0.233,25.157c-0.134,0.019-0.261,0.033-0.398,0.052c-1.224,0.165-2.39,0.558-3.574-0.142
			c-5.858-3.312-4.581-9.688-6.922-14.517C146.779,131.486,147.559,127.891,150.919,125.096z"/>
		<path fill="#C00013" d="M67.391,38.359c1.034-2.146,2.367-4.201,5.265-4.446c8.739,2.095,15.929-0.7,22.216-6.298
			c6.046-5.33,8.828-12.209,10.411-19.649c5.564,1.73,11.122,3.48,16.706,5.254c7.107-3.224,13.923-2.239,20.623,1.187
			c2.395,4.817,5.866,8.819,10.332,12.029c2.064,1.495,2.045,3.596,1.796,5.747c-1.784,15.639-1.325,31.393-2.957,47.026
			c-1.239,12.16-1.044,24.322-0.556,36.502c0.087,2.557,0.662,5.199-1.463,7.348c-4.671,1.836-10.742,0.989-13.898,5.629
			c-4.356,6.317-9.271,5.867-14.873,1.91c-0.131-0.322-0.231-0.639-0.322-0.955c-0.053,0.099-0.101,0.196-0.155,0.295
			c-0.657,6.375-3.767,11.203-8.86,15.588c-5.228,4.496-11.162,8.636-14.105,15.166c-0.817,1.783-2.411,3.15-4.671,2.896
			c-2.181-0.237-2.262-2.213-2.66-3.745c-0.308-1.158-0.867-2.205-1.471-3.232c-4.861-8.713-11.475-14.797-22.927-13.674
			c-1.273,0.125-2.383-0.543-3.338-1.387c-3.399-4.683-5.727-9.9-7.043-15.4C47.982,95.501,54.103,66.482,67.391,38.359z"/>
		<path fill="#B31516" d="M120.515,129.938c-4.774,14.106-21.069,19.568-26.416,33.086c-3.685-1.732,0.092-5.842-3.799-6.66
			c-3.309,6.136-2.467,13.254-5.065,19.562c1.21,4.927,5.162,7.134,9.608,8.896c7.685,0.757,14.373-2.279,19.788-6.555
			c7.51-5.935,14.796-12.443,18.98-21.227c1.947-4.162,5.214-7.365,8.134-10.838c3.12-3.669,6.097-7.393,6.695-12.311
			c0.809-2.934,1.639-5.863,2.479-8.795c-0.411-0.849-0.823-1.736-1.215-2.594c-7.188-0.77-13.228,0.744-17.186,7.12
			c-2.014,3.25-4.462,4.431-7.298,0.487C123.904,128.279,122.129,129.449,120.515,129.938z"/>
		<path fill="#B92E22" d="M63.691,141.257c-12.625-24.321-11.551-49.468-4.818-74.893c3.024-11.374,6.796-22.556,13.782-32.451
			c-1.699-1.382-3.403-2.774-5.118-4.163c-2.292,0.687-3.29,2.435-4.545,4.297c-7.754,11.474-10.665,24.93-16.924,37.031
			c-7.114,22.842-4.384,45.295,3.052,67.527c2.4,7.105,4.648,7.881,12.171,5.319C62.371,143.279,63.333,142.479,63.691,141.257z"/>
		<path fill="#AD523C" d="M34.566,109.868c-2.648,14.437-2.618,28.897,2.02,42.893c3.384,10.159,10.952,18.095,18.311,25.976
			c3.796,2.412,7.238,3.01,9.746-1.615c-0.199-1.234-0.849-2.253-1.892-2.91c-6.859-4.426-9.109-10.87-9.101-18.33
			c0-1.896-0.065-3.785-1.124-5.48c-6.008-10.93-9.436-22.737-13.739-34.26C37.85,113.741,37.525,111.027,34.566,109.868z"/>
		<path fill="#B24431" d="M34.566,109.868c4.159,12.207,7.614,24.681,13.521,36.302c1.086,2.229,1.305,5.229,4.757,5.729
			c3.375-2.75,7.694-4.732,8.401-9.566c-7.656,2.488-8.784,1.408-11.293-6.67c-6.385-20.637-7.514-41.429-3.454-62.54
			c0.131-0.629-0.292-1.352-0.43-2.043c-5.197,5.766-6.441,13.426-10.459,19.775C34.451,97.15,33.643,103.475,34.566,109.868z"/>
		<path fill="#AB3F2E" d="M64.257,178.023c-3.105,0.39-6.095,2.236-9.36,0.711c5.167,7.889,12.964,12.926,21.122,17.548
			c4.134-0.005,8.215-0.054,9.01-5.244c0.328-0.653,0.644-1.562,0.19-2.034c-3.668-3.914-3.969-8.24-2.076-12.934
			C76.838,176.616,70.503,176.986,64.257,178.023z"/>
		<path fill="#AF281F" d="M83.162,176.404c-10.123,6.093-0.02,9.892,1.866,14.634c2.611,0.971,5.245,1.957,7.866,2.925
			c0.45-0.204,0.901-0.404,1.38-0.596c1.439-3.098,3.252-6.176,0.511-9.487c-3.062-2.86-7.376-4.577-8.95-8.821
			C84.601,174.871,83.684,175.284,83.162,176.404z"/>
		<path fill="#A71C18" d="M94.785,183.88c0.479,3.188-1.717,6.282-0.511,9.487c15.608,4.385,27.238,0.041,37.485-12.305
			c8.297-9.916,13.822-21.476,22.467-31.045c-1.935-5.369-3.855-10.742-5.786-16.127c-5.179,9.361-12.93,17.049-18.807,26.076
			C121.859,171.861,111.371,182.473,94.785,183.88z"/>
		<path fill="#090000" d="M83.162,176.404c0.901-0.432,1.776-0.891,2.673-1.346c4.617-5.562,4.65-12.105,4.465-18.697
			c-7.152-13.034-13.024-16.367-26.601-15.094c-0.8,0.346-1.643,0.696-2.454,1.062c-3.279,2.812-6.744,5.482-8.418,9.561
			c-3.607,11.637,2.221,19.559,11.43,26.133C70.828,180.206,77.064,179.176,83.162,176.404z"/>
	</g>
</g>
<g id="Calque_1_1_">
</g>
</svg>
