<?xml version="1.0" encoding="utf-8"?>
<!-- Generator: Adobe Illustrator 16.0.4, SVG Export Plug-In . SVG Version: 6.00 Build 0)  -->
<!DOCTYPE svg PUBLIC "-//W3C//DTD SVG 1.1//EN" "http://www.w3.org/Graphics/SVG/1.1/DTD/svg11.dtd">
<svg version="1.1" id="Calque_1" xmlns="http://www.w3.org/2000/svg" xmlns:xlink="http://www.w3.org/1999/xlink" x="0px" y="0px"
	 width="325px" height="225px" viewBox="0 0 325 225" enable-background="new 0 0 325 225" xml:space="preserve">
<g>
	<g>
		<path fill="#050507" d="M125.763,155.708c-3.513,0-6.367,2.851-6.367,6.369c0,3.515,2.854,6.364,6.367,6.364
			c3.518,0,6.37-2.853,6.37-6.364C132.132,158.559,129.28,155.708,125.763,155.708z"/>
		<circle fill="#E6E8E8" cx="125.762" cy="161.837" r="4.676"/>
		<g>
			<path fill="#FFFFFF" d="M125.762,164.366c2.362,0,4.278-1.915,4.278-4.275c0-0.053-0.006-0.104-0.008-0.155
				c-0.73-1.634-2.365-2.771-4.27-2.771c-1.901,0-3.536,1.143-4.265,2.771c-0.002,0.053-0.008,0.104-0.008,0.155
				C121.489,162.451,123.405,164.366,125.762,164.366z"/>
		</g>
	</g>
	<g>
		<path fill="#050507" d="M140.692,140.324c-5.872,0-10.627,4.756-10.627,10.628c0,5.868,4.755,10.624,10.627,10.624
			c5.865,0,10.619-4.756,10.619-10.624C151.311,145.08,146.557,140.324,140.692,140.324z"/>
		<path fill="#E6E8E8" d="M140.989,141.803c-4.586,0-8.31,3.719-8.31,8.312c0,4.589,3.724,8.309,8.31,8.309
			c4.588,0,8.309-3.72,8.309-8.309C149.298,145.521,145.577,141.803,140.989,141.803z"/>
		<g>
			<path fill="#FFFFFF" d="M140.989,156.264c4.222,0,7.702-3.152,8.231-7.229c-0.529-4.078-4.009-7.229-8.231-7.229
				c-4.22,0-7.701,3.149-8.232,7.229C133.288,153.111,136.769,156.264,140.989,156.264z"/>
		</g>
	</g>
	<g>
		<path fill="#050507" d="M204.023,85.496c0-10.162-8.235-18.4-18.396-18.4c-0.996,0-1.973,0.081-2.926,0.233
			c0.002-0.078,0.006-0.155,0.006-0.233c0-6.316-5.121-11.437-11.438-11.437c-1.787,0-3.479,0.411-4.984,1.141
			c-2.902-4.293-7.816-7.115-13.389-7.115c-8.921,0-16.154,7.232-16.154,16.153c0,1.002,0.095,1.981,0.27,2.934
			c-2.145-0.767-4.455-1.187-6.863-1.187c-11.252,0-20.374,9.121-20.374,20.373c0,9.173,6.061,16.928,14.395,19.483
			c-2.141,2.381-3.445,5.532-3.445,8.987c0,7.43,6.022,13.45,13.45,13.45c3.243,0,6.219-1.147,8.542-3.062
			c0.703,9.654,8.757,17.27,18.591,17.27c10.029,0,18.206-7.919,18.624-17.845c0.9,0.161,1.826,0.253,2.774,0.253
			c8.551,0,15.479-6.932,15.479-15.481c0-3.626-1.25-6.956-3.336-9.594C200.336,98.233,204.023,92.296,204.023,85.496z"/>
		<path fill="#E6E8E8" d="M199.938,87.357c0-9.279-7.521-16.803-16.805-16.803c-0.908,0-1.8,0.074-2.67,0.213
			c0.001-0.071,0.005-0.141,0.005-0.213c0-5.768-4.677-10.444-10.444-10.444c-1.631,0-3.176,0.374-4.551,1.042
			c-2.652-3.92-7.14-6.498-12.229-6.498c-8.147,0-14.753,6.604-14.753,14.753c0,0.914,0.088,1.809,0.248,2.678
			c-1.959-0.701-4.069-1.083-6.268-1.083c-10.276,0-18.606,8.329-18.606,18.606c0,8.376,5.534,15.458,13.146,17.791
			c-1.956,2.175-3.146,5.052-3.146,8.208c0,6.783,5.499,12.283,12.284,12.283c2.962,0,5.678-1.052,7.8-2.795
			c0.643,8.814,7.998,15.77,16.979,15.77c9.159,0,16.626-7.23,17.007-16.297c0.822,0.146,1.67,0.229,2.535,0.229
			c7.807,0,14.137-6.326,14.137-14.138c0-3.311-1.143-6.354-3.047-8.761C196.566,98.992,199.938,93.568,199.938,87.357z"/>
		<path fill="#FFFFFF" d="M199.531,83.693c-1.674-7.517-8.377-13.139-16.398-13.139c-0.908,0-1.8,0.074-2.67,0.213
			c0.001-0.071,0.005-0.141,0.005-0.213c0-5.768-4.677-10.444-10.444-10.444c-1.631,0-3.176,0.374-4.551,1.042
			c-2.652-3.92-7.14-6.498-12.229-6.498c-8.147,0-14.753,6.604-14.753,14.753c0,0.914,0.088,1.809,0.248,2.678
			c-1.959-0.701-4.069-1.083-6.268-1.083c-9.02,0-16.537,6.417-18.242,14.934c-0.238,1.188-0.364,2.415-0.364,3.672
			c0,7.241,4.139,13.513,10.178,16.587c0.945,0.481,1.938,0.888,2.968,1.204c-1.165,1.295-2.055,2.841-2.586,4.542
			c1.562,4.991,6.219,8.608,11.723,8.608c2.962,0,5.678-1.049,7.8-2.795c0.643,8.818,7.998,15.771,16.979,15.771
			c9.159,0,16.625-7.232,17.008-16.299c0.821,0.147,1.668,0.229,2.531,0.229c6.539,0,12.037-4.438,13.653-10.466
			c-0.505-1.881-1.39-3.607-2.562-5.091c0.943-0.549,1.832-1.188,2.647-1.905c3.512-3.08,5.729-7.599,5.729-12.638
			C199.938,86.099,199.794,84.873,199.531,83.693z"/>
	</g>
</g>
<g>
	<path fill="#C2D26A" d="M157.735,71.136c0.797-2.827,1.384-5.814,3.198-8.053c2.667-0.32,5.014,0.746,6.394,2.933
		c0.112,0.64,0.644,0.745,0.909,1.281c-0.586,4.051-2.289,8.372-6.132,10.346c-1.496,0.425-2.67-0.642-3.999-1.014
		C156.667,75.186,157.678,72.893,157.735,71.136z"/>
	<path fill="#C2D26A" d="M172.555,73.054c1.598-0.107,3.147,0.534,4.271,1.92c0.21,2.24-2.296,3.679-3.2,5.653
		c-1.493,0.798-2.829,2.079-4.479,2.557c-1.543-1.438-0.961-3.945-0.533-5.756C169.307,75.508,170.157,73.215,172.555,73.054z"/>
	<path fill="#C2D26A" d="M133.682,115.023c1.065-3.256,4.8-4.002,7.042-6.133c0.268,2.291-1.445,4.37-2.829,6.133
		c-0.319,0.689,0.479,1.119,1.015,1.438c0.905,0.643,1.388,1.707,2.082,2.557c1.653,1.443,4.424,2.084,6.395,1.018
		c2.724-1.229,6.028-2.883,6.401-6.293c-0.054-1.76-0.054-3.466,0.482-4.959c1.492-0.264,2.825,1.015,4.477,0.375
		c4-0.055,7.358-3.627,9.332-6.667c0.269-1.281,1.119-2.506,0.801-3.84c-2.348-3.572-5.438-6.611-8.693-9.332
		c-2.13-1.065-4.373-3.253-6.931-1.652c-1.391,0.692-2.292,1.92-3.307,3.039c-0.16,4.586,1.706,9.918-2.08,13.438h-0.641
		c2.935-4.424,0.587-10.185-0.478-14.718c0.268-3.197,2.08-5.917,4.478-8.156c1.92-0.641,4.003-1.015,5.868-0.641L158,81
		c6.188,0.587,10.982,6.611,12.902,11.998c1.652,5.013,1.438,10.93-2.024,14.984c-4.002,3.466-10.56,0.908-13.975,5.491
		c-2.399,3.789-4.532,10.613-10.607,9.602c-2.028-0.105-4.159-0.588-6.024-1.492C136.511,119.555,133.309,117.953,133.682,115.023z"
		/>
	<path fill="#C2D26A" d="M180.023,84.199c0.476,0.96,0.584,2.24,0.476,3.308c-1.226,1.44-3.144,2.186-5.115,1.651
		c-0.75-0.267-1.655-0.373-2.026-1.279c-0.528-0.748,0-1.708,0.371-2.401C175.598,84.467,177.995,81.907,180.023,84.199z"/>
	<path fill="#C2D26A" d="M182.05,95.343c-1.278,1.548-3.25,1.761-5.017,1.761c-0.693-0.694-1.331-1.653-0.85-2.668
		c0.318-0.159,0.318-0.691,0.479-1.012c1.227-1.226,4.105-2.24,5.121-0.157C182.209,93.799,181.995,94.649,182.05,95.343z"/>
	<path fill="#C2D26A" d="M180.771,102.757c-0.746,0.96-2.028,1.332-3.201,1.119c-0.428,0-0.746-0.425-0.906-0.747
		c-0.055-1.066-0.055-2.454,1.277-2.454l0.643-0.106C178.688,102.011,181.409,100.675,180.771,102.757z"/>
</g>
</svg>
