<?xml version="1.0" encoding="utf-8"?>
<!-- Generator: Adobe Illustrator 16.0.4, SVG Export Plug-In . SVG Version: 6.00 Build 0)  -->
<!DOCTYPE svg PUBLIC "-//W3C//DTD SVG 1.0//EN" "http://www.w3.org/TR/2001/REC-SVG-20010904/DTD/svg10.dtd">
<svg version="1.0" id="Calque_1" xmlns="http://www.w3.org/2000/svg" xmlns:xlink="http://www.w3.org/1999/xlink" x="0px" y="0px"
	 width="325px" height="225px" viewBox="0 0 325 225" enable-background="new 0 0 325 225" xml:space="preserve">
<g>
	<path d="M40.095,34.451h-0.934c-2.837,0-4.406-1.586-4.406-4.477v-7.701h0.987c0.987,0,1.498,0.563,1.498,1.763v5.78
		c0,1.833,0.423,2.503,2.238,2.503h0.617c1.146,0,2.08-0.265,2.52-0.441v0.829C42.615,33.764,42.087,34.451,40.095,34.451z"/>
	<path d="M44.021,26.68h-0.476v-0.106c0.476-0.44,0.811-1.304,0.811-1.815c0-0.334-0.088-0.599-0.282-0.793
		c-0.264-0.264-0.476-0.476-0.476-1.021c0-0.723,0.582-1.305,1.375-1.305c0.917,0,1.516,0.705,1.516,2.01
		C46.488,25.199,45.378,26.68,44.021,26.68z"/>
	<path d="M51.985,30.609h-1.551c0.176,1.198,1.269,1.956,2.661,1.956c0.987,0,2.15-0.193,2.908-0.898h0.088v0.74
		c0,1.216-0.829,2.15-3.437,2.15c-2.362,0-4.67-1.868-4.67-4.776c0-3.173,1.938-5.164,4.652-5.164c1.974,0,3.807,1.41,3.807,3.684
		C56.444,30.045,55.123,30.609,51.985,30.609z M52.426,26.591c-1.146,0-1.938,0.935-1.991,2.027l-0.018,0.317h1.057
		c2.238,0,2.75-0.247,2.75-0.917C54.224,27.067,53.519,26.591,52.426,26.591z"/>
	<path d="M65.993,34.346c-1.058,0-1.728-0.67-1.728-1.551v-3.771c0-1.604-0.705-2.309-1.921-2.309c-1.022,0-1.728,0.775-1.728,2.132
		v5.499h-0.704c-1.006,0-1.658-0.67-1.658-1.551v-4.106c0-2.009,1.321-4.071,4.283-4.071c2.237,0,4.09,1.498,4.09,4.194v5.534
		H65.993z"/>
	<path d="M71.786,34.557c-1.744,0-3.049-0.899-3.049-1.868v-1.075h0.088c0.512,0.476,1.729,0.898,2.855,0.898
		c1.162,0,1.727-0.335,1.727-1.04c0-0.546-0.334-0.811-1.974-1.039c-2.009-0.282-2.978-1.075-2.978-2.521
		c0-1.78,1.604-3.296,4.034-3.296c2.15,0,3.031,1.11,3.031,2.027v0.898h-0.088c-0.494-0.493-1.587-0.881-2.716-0.881
		c-1.443,0-1.901,0.44-1.901,1.057c0,0.477,0.281,0.67,1.901,0.935c1.976,0.317,3.031,1.181,3.031,2.696
		C75.75,33.358,74.34,34.557,71.786,34.557z"/>
	<path d="M81.141,30.609H79.59c0.176,1.198,1.269,1.956,2.66,1.956c0.986,0,2.149-0.193,2.907-0.898h0.089v0.74
		c0,1.216-0.828,2.15-3.437,2.15c-2.362,0-4.671-1.868-4.671-4.776c0-3.173,1.938-5.164,4.652-5.164c1.974,0,3.808,1.41,3.808,3.684
		C85.6,30.045,84.278,30.609,81.141,30.609z M81.581,26.591c-1.145,0-1.938,0.935-1.99,2.027l-0.018,0.317h1.057
		c2.238,0,2.75-0.247,2.75-0.917C83.379,27.067,82.674,26.591,81.581,26.591z"/>
	<path d="M100.646,34.346c-1.286,0-1.798-0.6-1.798-1.728v-3.665c0-1.569-0.705-2.238-1.744-2.238c-0.951,0-1.604,0.669-1.604,1.974
		v5.657h-0.636c-1.04,0-1.728-0.6-1.728-1.728v-3.665c0-1.569-0.723-2.238-1.764-2.238c-0.916,0-1.604,0.723-1.604,2.026v5.604
		h-0.635c-0.969,0-1.709-0.635-1.709-1.728v-3.683c0-2.591,1.356-4.318,4.229-4.318c1.231,0,2.202,0.564,2.89,1.48
		c0.547-0.881,1.586-1.48,2.731-1.48c2.187,0,3.948,1.322,3.948,4.019v5.71L100.646,34.346L100.646,34.346z"/>
	<path d="M108.024,34.557c-2.432,0-4.477-1.992-4.477-4.847v-8.055h0.811c0.916,0,1.551,0.529,1.551,1.64v2.767
		c0.477-0.688,1.287-1.445,2.574-1.445c2.414,0,4.264,1.974,4.264,4.776C112.747,32.248,110.915,34.557,108.024,34.557z
		 M108.024,26.715c-1.198,0-2.098,1.181-2.098,2.661c0,2.186,0.935,3.084,2.344,3.084c1.182,0,2.027-1.128,2.027-2.661
		C110.297,27.49,109.469,26.715,108.024,26.715z"/>
	<path d="M117.731,34.433c-1.957,0-3.014-1.04-3.014-2.961v-9.816h0.668c1.182,0,1.693,0.688,1.693,1.586v8.002
		c0,0.951,0.492,1.251,1.604,1.251h0.635v0.511C119.317,34.028,118.77,34.433,117.731,34.433z"/>
	<path d="M123.93,30.609h-1.551c0.178,1.198,1.27,1.956,2.662,1.956c0.985,0,2.149-0.193,2.907-0.898h0.089v0.74
		c0,1.216-0.828,2.15-3.438,2.15c-2.362,0-4.672-1.868-4.672-4.776c0-3.173,1.939-5.164,4.654-5.164c1.973,0,3.807,1.41,3.807,3.684
		C128.39,30.045,127.069,30.609,123.93,30.609z M124.372,26.591c-1.146,0-1.938,0.935-1.99,2.027l-0.019,0.317h1.058
		c2.238,0,2.75-0.247,2.75-0.917C126.17,27.067,125.463,26.591,124.372,26.591z"/>
	<path d="M138.094,34.557c-2.502,0-4.424-2.186-4.424-4.794c0-3.119,1.517-5.146,4.282-5.146c0.952,0,1.992,0.67,2.361,1.498v-4.459
		h0.724c1.129,0,1.621,0.652,1.621,1.604v6.696C142.66,32.724,141.356,34.557,138.094,34.557z M137.971,26.608
		c-1.198,0-1.975,1.164-1.975,2.697c0,1.974,1.022,3.26,2.381,3.26c1.32,0,1.901-0.986,1.901-2.714
		C140.28,27.473,139.241,26.608,137.971,26.608z"/>
	<path d="M148.506,30.609h-1.55c0.175,1.198,1.269,1.956,2.66,1.956c0.988,0,2.15-0.193,2.908-0.898h0.088v0.74
		c0,1.216-0.828,2.15-3.438,2.15c-2.36,0-4.669-1.868-4.669-4.776c0-3.173,1.938-5.164,4.652-5.164c1.975,0,3.807,1.41,3.807,3.684
		C152.965,30.045,151.643,30.609,148.506,30.609z M148.947,26.591c-1.146,0-1.939,0.935-1.992,2.027l-0.018,0.317h1.056
		c2.238,0,2.75-0.247,2.75-0.917C150.744,27.067,150.039,26.591,148.947,26.591z"/>
	<path d="M157.648,34.557c-1.744,0-3.049-0.899-3.049-1.868v-1.075h0.088c0.512,0.476,1.729,0.898,2.855,0.898
		c1.162,0,1.727-0.335,1.727-1.04c0-0.546-0.334-0.811-1.975-1.039c-2.008-0.282-2.977-1.075-2.977-2.521
		c0-1.78,1.604-3.296,4.035-3.296c2.148,0,3.029,1.11,3.029,2.027v0.898h-0.088c-0.494-0.493-1.586-0.881-2.715-0.881
		c-1.443,0-1.902,0.44-1.902,1.057c0,0.477,0.281,0.67,1.902,0.935c1.977,0.317,3.031,1.181,3.031,2.696
		C161.613,33.358,160.205,34.557,157.648,34.557z"/>
	<path fill="#C53518" d="M170.914,30.609h-1.551c0.176,1.198,1.27,1.956,2.662,1.956c0.986,0,2.148-0.193,2.906-0.898h0.09v0.74
		c0,1.216-0.83,2.15-3.438,2.15c-2.361,0-4.67-1.868-4.67-4.776c0-3.173,1.938-5.164,4.652-5.164c1.973,0,3.807,1.41,3.807,3.684
		C175.373,30.045,174.051,30.609,170.914,30.609z M171.355,26.591c-1.146,0-1.939,0.935-1.992,2.027l-0.018,0.317h1.057
		c2.238,0,2.75-0.247,2.75-0.917C173.152,27.067,172.447,26.591,171.355,26.591z M172.766,23.014
		c-0.582,0.247-1.395,0.423-2.027,0.423h-0.793v-0.088c0.387-0.6,0.811-1.181,1.322-1.64c0.562-0.511,0.986-0.846,1.674-0.846
		c0.582,0,0.986,0.265,0.986,0.899C173.928,22.272,173.488,22.714,172.766,23.014z"/>
	<path fill="#C53518" d="M180.287,34.433c-1.957,0-3.014-1.04-3.014-2.961v-9.816h0.668c1.182,0,1.691,0.688,1.691,1.586v8.002
		c0,0.951,0.494,1.251,1.605,1.251h0.633v0.511C181.873,34.028,181.326,34.433,180.287,34.433z"/>
	<path fill="#C53518" d="M187.121,34.557c-2.344,0-4.193-1.552-4.193-4.318v-5.41h0.439c1.357,0,1.957,0.581,1.957,1.691v3.489
		c0,1.745,0.846,2.45,1.92,2.45c0.971,0,1.658-0.67,1.658-2.291v-5.34h0.422c1.375,0,1.957,0.581,1.957,1.691v3.561
		C191.281,33.042,189.889,34.557,187.121,34.557z"/>
	<path fill="#C53518" d="M196.439,34.557c-1.744,0-3.049-0.899-3.049-1.868v-1.075h0.09c0.51,0.476,1.727,0.898,2.854,0.898
		c1.162,0,1.729-0.335,1.729-1.04c0-0.546-0.336-0.811-1.975-1.039c-2.01-0.282-2.979-1.075-2.979-2.521
		c0-1.78,1.604-3.296,4.035-3.296c2.148,0,3.031,1.11,3.031,2.027v0.898h-0.09c-0.492-0.493-1.586-0.881-2.713-0.881
		c-1.445,0-1.904,0.44-1.904,1.057c0,0.477,0.283,0.67,1.904,0.935c1.973,0.317,3.031,1.181,3.031,2.696
		C200.406,33.358,198.996,34.557,196.439,34.557z"/>
</g>
<g>
	<path d="M38.756,51.792h-1.551c0.176,1.198,1.269,1.956,2.661,1.956c0.987,0,2.15-0.193,2.908-0.898h0.088v0.74
		c0,1.216-0.829,2.15-3.437,2.15c-2.362,0-4.67-1.868-4.67-4.776c0-3.173,1.938-5.164,4.652-5.164c1.974,0,3.807,1.41,3.807,3.684
		C43.215,51.228,41.893,51.792,38.756,51.792z M39.196,47.772c-1.146,0-1.938,0.935-1.991,2.027l-0.018,0.317h1.057
		c2.238,0,2.75-0.247,2.75-0.917C40.994,48.25,40.289,47.772,39.196,47.772z"/>
	<path d="M45.801,44.514c0.317-0.37,0.74-0.652,1.11-0.652h0.546v2.15h3.296v0.969c0,0.494-0.441,1.128-1.41,1.128h-1.886v3.719
		c0,1.233,0.546,1.71,1.498,1.71c0.758,0,1.339-0.106,1.709-0.335h0.088v0.846c0,0.97-0.705,1.586-2.08,1.586
		c-2.397,0-3.56-1.304-3.56-3.524v-5.71C45.114,45.465,45.29,45.112,45.801,44.514z"/>
	<path d="M59.173,55.616c-1.957,0-3.014-1.04-3.014-2.961v-9.816h0.669c1.181,0,1.692,0.688,1.692,1.586v8.002
		c0,0.951,0.494,1.251,1.604,1.251h0.634v0.511C60.759,55.21,60.213,55.616,59.173,55.616z"/>
	<path d="M61.99,47.862h-0.476v-0.106c0.476-0.44,0.811-1.304,0.811-1.815c0-0.334-0.088-0.599-0.282-0.793
		c-0.264-0.264-0.476-0.476-0.476-1.021c0-0.723,0.582-1.305,1.375-1.305c0.917,0,1.516,0.705,1.516,2.01
		C64.458,46.382,63.347,47.862,61.99,47.862z"/>
	<path d="M69.954,51.792h-1.551c0.176,1.198,1.269,1.956,2.661,1.956c0.987,0,2.15-0.193,2.908-0.898h0.088v0.74
		c0,1.216-0.829,2.15-3.437,2.15c-2.362,0-4.67-1.868-4.67-4.776c0-3.173,1.938-5.164,4.653-5.164c1.974,0,3.807,1.41,3.807,3.684
		C74.413,51.228,73.092,51.792,69.954,51.792z M70.395,47.772c-1.146,0-1.938,0.935-1.991,2.027l-0.018,0.317h1.057
		c2.238,0,2.75-0.247,2.75-0.917C72.193,48.25,71.488,47.772,70.395,47.772z M71.805,44.196c-0.582,0.247-1.393,0.423-2.027,0.423
		h-0.793v-0.088c0.388-0.6,0.811-1.181,1.322-1.64c0.564-0.511,0.987-0.846,1.674-0.846c0.582,0,0.987,0.265,0.987,0.899
		C72.968,43.456,72.528,43.896,71.805,44.196z"/>
	<path d="M84.843,50.594v7.931l-0.775-0.018c-0.986-0.018-1.568-0.493-1.568-1.568v-2.433c-0.389,0.775-1.356,1.234-2.309,1.234
		c-2.38,0-4.407-1.886-4.407-4.688c0-2.996,1.938-5.252,4.829-5.252C83.345,45.8,84.843,47.615,84.843,50.594z M78.146,50.628
		c0,1.956,0.828,3.014,2.291,3.014c1.322,0,2.062-0.793,2.062-2.767c0-2.027-0.758-2.979-2.186-2.979
		C79.237,47.896,78.146,48.901,78.146,50.628z"/>
	<path d="M91.323,55.74c-2.344,0-4.194-1.552-4.194-4.318v-5.41h0.44c1.356,0,1.957,0.581,1.957,1.691v3.489
		c0,1.745,0.846,2.45,1.92,2.45c0.97,0,1.656-0.67,1.656-2.291v-5.34h0.424c1.375,0,1.957,0.581,1.957,1.691v3.561
		C95.483,54.224,94.091,55.74,91.323,55.74z"/>
	<path d="M99.231,45.342c-0.758,0-1.373-0.635-1.373-1.393c0-0.758,0.615-1.374,1.373-1.374s1.394,0.616,1.394,1.374
		C100.625,44.707,99.989,45.342,99.231,45.342z M100.905,55.616c-1.832,0-2.836-1.04-2.836-2.961v-6.433h0.668
		c1.059,0,1.692,0.564,1.692,1.763v4.441c0,0.951,0.404,1.251,1.445,1.251h0.438v0.511C102.315,55.21,101.911,55.616,100.905,55.616
		z"/>
	<path d="M108.429,55.74c-1.057,0-1.921-0.6-2.396-1.41v4.194h-0.739c-0.847,0-1.656-0.617-1.656-1.639V51.14
		c0-3.154,1.41-5.34,4.758-5.34c2.521,0,4.318,2.291,4.318,4.688C112.712,53.537,111.196,55.74,108.429,55.74z M108.024,47.896
		c-1.305,0-2.027,1.128-2.027,2.767c0,1.903,0.935,2.979,2.345,2.979c1.146,0,1.938-1.022,1.938-2.538
		C110.28,48.866,109.538,47.896,108.024,47.896z"/>
	<path d="M118.118,51.792h-1.551c0.176,1.198,1.269,1.956,2.659,1.956c0.987,0,2.15-0.193,2.908-0.898h0.088v0.74
		c0,1.216-0.828,2.15-3.437,2.15c-2.361,0-4.67-1.868-4.67-4.776c0-3.173,1.938-5.164,4.651-5.164c1.974,0,3.808,1.41,3.808,3.684
		C122.577,51.228,121.255,51.792,118.118,51.792z M118.558,47.772c-1.145,0-1.938,0.935-1.99,2.027l-0.018,0.317h1.057
		c2.238,0,2.75-0.247,2.75-0.917C120.356,48.25,119.651,47.772,118.558,47.772z"/>
	<path d="M132.28,55.74c-2.502,0-4.422-2.186-4.422-4.794c0-3.119,1.516-5.146,4.281-5.146c0.952,0,1.991,0.67,2.361,1.498v-4.459
		h0.723c1.128,0,1.622,0.652,1.622,1.604v6.696C136.847,53.907,135.542,55.74,132.28,55.74z M132.157,47.791
		c-1.197,0-1.974,1.164-1.974,2.697c0,1.974,1.021,3.26,2.38,3.26c1.321,0,1.902-0.986,1.902-2.714
		C134.467,48.655,133.427,47.791,132.157,47.791z"/>
	<path d="M143.327,55.74c-2.344,0-4.194-1.552-4.194-4.318v-5.41h0.44c1.356,0,1.957,0.581,1.957,1.691v3.489
		c0,1.745,0.846,2.45,1.92,2.45c0.97,0,1.656-0.67,1.656-2.291v-5.34h0.424c1.375,0,1.957,0.581,1.957,1.691v3.561
		C147.487,54.224,146.095,55.74,143.327,55.74z"/>
	<path fill="#C53518" d="M157.278,55.74c-2.432,0-3.683-0.952-3.683-2.38v-1.075h0.054c0.811,0.723,1.902,1.305,3.365,1.305
		c1.814,0,2.396-0.617,2.396-1.586c0-0.829-0.316-1.199-2.873-1.745c-2.045-0.44-3.207-1.463-3.207-3.102
		c0-2.01,1.691-3.913,4.529-3.913c2.819,0,3.631,1.199,3.631,2.203v1.11h-0.07c-0.74-0.793-1.814-1.181-3.137-1.181
		c-1.869,0-2.558,0.617-2.558,1.551c0,0.723,0.563,1.163,2.82,1.639c2.203,0.459,3.276,1.604,3.276,3.226
		C161.825,54.17,160.204,55.74,157.278,55.74z"/>
	<path fill="#C53518" d="M165.276,55.528c-0.705,0-1.463-0.546-1.463-1.604V43.456h1.092c0.617,0,1.287,0.511,1.287,1.286v10.786
		H165.276L165.276,55.528z"/>
	<path fill="#C53518" d="M175.618,45.571h-2.221v9.957h-0.97c-0.847,0-1.463-0.546-1.463-1.621v-8.336h-3.472v-0.794
		c0-0.581,0.476-1.321,1.463-1.321h8.105v0.758C177.063,44.794,176.411,45.571,175.618,45.571z"/>
</g>
<g>
	<path fill="#1E1E1C" d="M38.58,98.892c-1.957,0-3.014-1.039-3.014-2.961v-9.815h0.669c1.181,0,1.692,0.688,1.692,1.586v8.002
		c0,0.952,0.494,1.251,1.604,1.251h0.634v0.512C40.166,98.488,39.62,98.892,38.58,98.892z"/>
	<path fill="#1E1E1C" d="M44.781,95.069H43.23c0.176,1.198,1.269,1.956,2.661,1.956c0.987,0,2.15-0.193,2.908-0.898h0.088v0.74
		c0,1.217-0.829,2.15-3.437,2.15c-2.362,0-4.67-1.867-4.67-4.776c0-3.173,1.938-5.164,4.653-5.164c1.974,0,3.807,1.41,3.807,3.685
		C49.24,94.505,47.918,95.069,44.781,95.069z M45.221,91.05c-1.146,0-1.938,0.935-1.991,2.026l-0.018,0.317h1.057
		c2.238,0,2.75-0.247,2.75-0.917C47.019,91.527,46.314,91.05,45.221,91.05z"/>
	<path fill="#1E1E1C" d="M55.246,99.017c-2.344,0-4.194-1.553-4.194-4.318v-5.41h0.44c1.357,0,1.957,0.581,1.957,1.691v3.488
		c0,1.746,0.846,2.451,1.921,2.451c0.969,0,1.657-0.67,1.657-2.291v-5.34h0.423c1.375,0,1.957,0.58,1.957,1.69v3.562
		C59.405,97.501,58.013,99.017,55.246,99.017z"/>
	<path fill="#1E1E1C" d="M67.084,91.597c-0.353-0.143-0.758-0.282-1.375-0.282c-1.057,0-1.639,0.582-1.639,2.026v5.463h-0.652
		c-1.057,0-1.727-0.527-1.727-1.516v-4.371c0-1.902,1.004-3.719,3.507-3.719c1.463,0,1.974,0.829,1.974,1.553v0.846H67.084z"/>
	<path fill="#1E1E1C" d="M71.365,99.017c-1.746,0-3.05-0.898-3.05-1.867v-1.076h0.088c0.511,0.477,1.727,0.898,2.855,0.898
		c1.163,0,1.728-0.336,1.728-1.041c0-0.545-0.336-0.811-1.975-1.039c-2.009-0.281-2.978-1.074-2.978-2.52
		c0-1.781,1.604-3.297,4.036-3.297c2.15,0,3.031,1.11,3.031,2.027v0.898h-0.088c-0.493-0.494-1.587-0.882-2.714-0.882
		c-1.445,0-1.904,0.44-1.904,1.058c0,0.477,0.283,0.67,1.904,0.935c1.974,0.317,3.031,1.181,3.031,2.696
		C75.33,97.818,73.919,99.017,71.365,99.017z"/>
	<path fill="#C53518" d="M94.305,98.804c-1.287,0-1.797-0.6-1.797-1.727v-3.666c0-1.568-0.705-2.238-1.746-2.238
		c-0.951,0-1.604,0.67-1.604,1.975v5.656h-0.635c-1.039,0-1.727-0.6-1.727-1.727v-3.666c0-1.568-0.723-2.238-1.762-2.238
		c-0.918,0-1.604,0.724-1.604,2.026v5.604h-0.636c-0.969,0-1.709-0.635-1.709-1.729v-3.684c0-2.59,1.355-4.317,4.229-4.317
		c1.234,0,2.204,0.563,2.891,1.479c0.547-0.881,1.586-1.479,2.732-1.479c2.186,0,3.947,1.322,3.947,4.019v5.711H94.305
		L94.305,98.804z"/>
	<path fill="#C53518" d="M100.73,95.069H99.18c0.176,1.198,1.27,1.956,2.662,1.956c0.986,0,2.148-0.193,2.906-0.898h0.09v0.74
		c0,1.217-0.83,2.15-3.439,2.15c-2.359,0-4.67-1.867-4.67-4.776c0-3.173,1.939-5.164,4.652-5.164c1.975,0,3.807,1.41,3.807,3.685
		C105.189,94.505,103.869,95.069,100.73,95.069z M101.172,91.05c-1.146,0-1.939,0.935-1.992,2.026l-0.018,0.317h1.057
		c2.238,0,2.75-0.247,2.75-0.917C102.969,91.527,102.264,91.05,101.172,91.05z"/>
	<path fill="#C53518" d="M108.463,88.618c-0.758,0-1.373-0.635-1.373-1.394c0-0.758,0.615-1.373,1.373-1.373
		s1.393,0.615,1.393,1.373C109.855,87.983,109.221,88.618,108.463,88.618z M110.139,98.892c-1.834,0-2.838-1.039-2.838-2.961V89.5
		h0.67c1.057,0,1.691,0.563,1.691,1.762v4.441c0,0.951,0.404,1.252,1.443,1.252h0.441v0.51
		C111.547,98.488,111.143,98.892,110.139,98.892z"/>
	<path fill="#C53518" d="M115.969,98.892c-1.957,0-3.014-1.039-3.014-2.961v-9.815h0.67c1.18,0,1.689,0.688,1.689,1.586v8.002
		c0,0.952,0.494,1.251,1.605,1.251h0.633v0.512C117.555,98.488,117.008,98.892,115.969,98.892z"/>
	<path fill="#C53518" d="M121.713,98.892c-1.957,0-3.014-1.039-3.014-2.961v-9.815h0.668c1.182,0,1.691,0.688,1.691,1.586v8.002
		c0,0.952,0.494,1.251,1.605,1.251h0.635v0.512C123.299,98.488,122.752,98.892,121.713,98.892z"/>
	<path fill="#C53518" d="M127.914,95.069h-1.551c0.176,1.198,1.268,1.956,2.66,1.956c0.986,0,2.15-0.193,2.908-0.898h0.088v0.74
		c0,1.217-0.828,2.15-3.438,2.15c-2.361,0-4.67-1.867-4.67-4.776c0-3.173,1.938-5.164,4.652-5.164c1.975,0,3.807,1.41,3.807,3.685
		C132.373,94.505,131.051,95.069,127.914,95.069z M128.354,91.05c-1.146,0-1.938,0.935-1.99,2.026l-0.02,0.317h1.059
		c2.238,0,2.748-0.247,2.748-0.917C130.15,91.527,129.447,91.05,128.354,91.05z"/>
	<path fill="#C53518" d="M138.377,99.017c-2.344,0-4.193-1.553-4.193-4.318v-5.41h0.439c1.355,0,1.957,0.581,1.957,1.691v3.488
		c0,1.746,0.846,2.451,1.92,2.451c0.971,0,1.658-0.67,1.658-2.291v-5.34h0.422c1.375,0,1.957,0.58,1.957,1.69v3.562
		C142.537,97.501,141.145,99.017,138.377,99.017z"/>
	<path fill="#C53518" d="M150.217,91.597c-0.354-0.143-0.758-0.282-1.375-0.282c-1.057,0-1.639,0.582-1.639,2.026v5.463h-0.652
		c-1.057,0-1.727-0.527-1.727-1.516v-4.371c0-1.902,1.004-3.719,3.506-3.719c1.463,0,1.975,0.829,1.975,1.553v0.846H150.217z"/>
	<path fill="#C53518" d="M154.496,99.017c-1.744,0-3.049-0.898-3.049-1.867v-1.076h0.088c0.512,0.477,1.729,0.898,2.855,0.898
		c1.162,0,1.727-0.336,1.727-1.041c0-0.545-0.334-0.811-1.975-1.039c-2.008-0.281-2.977-1.074-2.977-2.52
		c0-1.781,1.604-3.297,4.035-3.297c2.148,0,3.029,1.11,3.029,2.027v0.898h-0.088c-0.494-0.494-1.586-0.882-2.715-0.882
		c-1.443,0-1.902,0.44-1.902,1.058c0,0.477,0.281,0.67,1.902,0.935c1.977,0.317,3.031,1.181,3.031,2.696
		C158.461,97.818,157.051,99.017,154.496,99.017z"/>
	<path fill="#C53518" d="M171.092,93.429c-0.635,1.744-1.691,4.035-2.75,5.48h-0.457c-0.705,0-1.076-0.246-1.551-0.951
		c-1.287-1.955-2.908-6.098-3.119-8.67h1.268c0.812,0,1.322,0.615,1.41,1.127c0.336,1.762,0.811,3.596,1.816,5.551
		c0.896-1.778,1.727-4.299,2.078-6.678h1.006c0.811,0,1.107,0.352,1.107,1.127C171.902,90.697,171.674,91.843,171.092,93.429z"/>
	<path fill="#C53518" d="M177.574,89.076c2.855,0,4.494,2.291,4.494,4.812c0,2.855-1.639,5.129-4.705,5.129
		c-2.855,0-4.494-2.273-4.494-4.795C172.869,91.367,174.508,89.076,177.574,89.076z M177.363,91.192
		c-1.357,0-2.045,1.128-2.045,2.696c0,1.886,0.688,3.014,2.256,3.014c1.375,0,2.045-1.128,2.045-2.68
		C179.619,92.319,178.914,91.192,177.363,91.192z"/>
	<path fill="#C53518" d="M187.475,95.069h-1.551c0.176,1.198,1.268,1.956,2.66,1.956c0.986,0,2.148-0.193,2.908-0.898h0.088v0.74
		c0,1.217-0.828,2.15-3.438,2.15c-2.361,0-4.67-1.867-4.67-4.776c0-3.173,1.938-5.164,4.652-5.164c1.973,0,3.807,1.41,3.807,3.685
		C191.934,94.505,190.611,95.069,187.475,95.069z M187.914,91.05c-1.146,0-1.939,0.935-1.99,2.026l-0.018,0.317h1.057
		c2.238,0,2.75-0.247,2.75-0.917C189.713,91.527,189.008,91.05,187.914,91.05z"/>
	<path fill="#C53518" d="M197.939,99.017c-2.344,0-4.195-1.553-4.195-4.318v-5.41h0.441c1.357,0,1.955,0.581,1.955,1.691v3.488
		c0,1.746,0.848,2.451,1.922,2.451c0.969,0,1.656-0.67,1.656-2.291v-5.34h0.424c1.373,0,1.955,0.58,1.955,1.69v3.562
		C202.098,97.501,200.705,99.017,197.939,99.017z"/>
	<path fill="#C53518" d="M211.24,98.945c-1.004,0-1.691-0.562-2.52-1.814l-1.041-1.568c-0.6,0.688-0.986,1.217-1.25,1.676
		c-0.318,0.545-0.441,1.021-0.529,1.604h-1.074c-0.547,0-0.971-0.371-0.971-0.846c0-1.129,0.652-2.062,1.834-3.332l0.775-0.828
		l-1.006-1.445c-1.059-1.532-1.656-2.379-1.691-3.102h1.41c0.459,0,1.039,0.299,2.098,1.797l0.969,1.375
		c1.516-1.709,1.764-2.203,1.922-3.154h0.898c0.688,0,0.969,0.477,0.969,1.005c0,0.424-0.352,1.163-1.109,2.149
		c-0.389,0.512-0.881,1.094-1.445,1.729l1.039,1.516c1.023,1.498,1.445,1.887,2.273,2.062
		C212.791,98.435,212.281,98.945,211.24,98.945z"/>
</g>
<g>
	<g>
		<path fill="#C53518" d="M81.328,77.942c-1.745,0-3.049-0.898-3.049-1.867v-1.076h0.088c0.511,0.476,1.728,0.898,2.854,0.898
			c1.164,0,1.728-0.335,1.728-1.04c0-0.546-0.335-0.811-1.974-1.039c-2.01-0.282-2.979-1.075-2.979-2.521
			c0-1.78,1.604-3.296,4.035-3.296c2.15,0,3.031,1.11,3.031,2.027v0.898h-0.088c-0.494-0.493-1.586-0.881-2.715-0.881
			c-1.444,0-1.902,0.44-1.902,1.057c0,0.477,0.281,0.67,1.902,0.935c1.975,0.317,3.031,1.181,3.031,2.696
			C85.294,76.743,83.884,77.942,81.328,77.942z"/>
		<path fill="#C53518" d="M91.388,68.001c2.855,0,4.494,2.291,4.494,4.812c0,2.855-1.639,5.129-4.705,5.129
			c-2.855,0-4.494-2.273-4.494-4.794C86.683,70.292,88.321,68.001,91.388,68.001z M91.177,70.117c-1.357,0-2.045,1.128-2.045,2.696
			c0,1.886,0.688,3.014,2.256,3.014c1.375,0,2.045-1.127,2.045-2.679C93.433,71.244,92.728,70.117,91.177,70.117z"/>
		<path fill="#C53518" d="M101.923,77.942c-2.345,0-4.194-1.552-4.194-4.318v-5.41h0.44c1.356,0,1.957,0.581,1.957,1.691v3.489
			c0,1.745,0.846,2.45,1.92,2.45c0.969,0,1.657-0.67,1.657-2.291v-5.34h0.423c1.375,0,1.957,0.581,1.957,1.691v3.561
			C106.083,76.426,104.689,77.942,101.923,77.942z"/>
		<path fill="#C53518" d="M116.052,77.73c-0.986,0-1.604-0.563-1.604-1.586v-3.878c0-1.551-0.846-2.167-1.886-2.167
			c-0.74,0-1.709,0.563-1.709,2.238v5.393h-0.775c-1.11,0-1.62-0.616-1.62-1.586V65.04h0.739c1.128,0,1.675,0.635,1.675,1.516v2.715
			c0.352-0.564,1.163-1.27,2.061-1.27c2.451,0,3.896,1.463,3.896,4.159v5.569L116.052,77.73L116.052,77.73z"/>
		<path fill="#C53518" d="M122.974,77.888h-0.475c-2.257,0-3.808-1.269-3.808-3.014c0-1.691,1.233-2.979,4.724-2.979h0.827v-0.123
			c0-1.339-0.634-1.744-2.044-1.744c-1.71,0-2.662,0.651-3.014,1.092h-0.088v-0.758c0-1.057,0.951-2.326,3.453-2.326
			c2.115,0,4.02,0.987,4.02,4.266v2.185C126.569,76.497,125.089,77.888,122.974,77.888z M124.261,73.588h-0.846
			c-1.799,0-2.31,0.423-2.31,1.198c0,0.74,0.599,1.181,1.639,1.181c1.022,0,1.517-0.493,1.517-1.463V73.588z"/>
		<path fill="#C53518" d="M129.896,67.543c-0.759,0-1.375-0.635-1.375-1.393c0-0.758,0.616-1.374,1.375-1.374
			c0.758,0,1.392,0.616,1.392,1.374C131.288,66.908,130.654,67.543,129.896,67.543z M131.57,77.818c-1.833,0-2.837-1.04-2.837-2.961
			v-6.433h0.669c1.058,0,1.692,0.564,1.692,1.763v4.441c0,0.951,0.404,1.251,1.445,1.251h0.439v0.511
			C132.98,77.413,132.575,77.818,131.57,77.818z"/>
		<path fill="#C53518" d="M135.075,66.715c0.316-0.37,0.74-0.652,1.11-0.652h0.546v2.15h3.296v0.969c0,0.494-0.44,1.128-1.41,1.128
			h-1.886v3.719c0,1.233,0.546,1.709,1.498,1.709c0.758,0,1.339-0.105,1.709-0.334h0.088v0.846c0,0.97-0.705,1.586-2.08,1.586
			c-2.396,0-3.561-1.305-3.561-3.524v-5.71C134.388,67.666,134.564,67.314,135.075,66.715z"/>
		<path fill="#C53518" d="M162.292,66.715c0.316-0.37,0.74-0.652,1.11-0.652h0.546v2.15h3.296v0.969c0,0.494-0.44,1.128-1.41,1.128
			h-1.886v3.719c0,1.233,0.546,1.709,1.498,1.709c0.758,0,1.339-0.105,1.709-0.334h0.088v0.846c0,0.97-0.705,1.586-2.08,1.586
			c-2.396,0-3.561-1.305-3.561-3.524v-5.71C161.604,67.666,161.781,67.314,162.292,66.715z"/>
		<path fill="#C53518" d="M144.994,73.994h-1.551c0.176,1.198,1.269,1.956,2.661,1.956c0.986,0,2.15-0.192,2.908-0.897h0.088v0.739
			c0,1.217-0.829,2.15-3.438,2.15c-2.361,0-4.67-1.867-4.67-4.776c0-3.173,1.938-5.164,4.653-5.164c1.974,0,3.807,1.41,3.807,3.684
			C149.453,73.43,148.132,73.994,144.994,73.994z M145.436,69.975c-1.146,0-1.938,0.935-1.991,2.027l-0.018,0.317h1.057
			c2.238,0,2.75-0.247,2.75-0.917C147.233,70.452,146.527,69.975,145.436,69.975z"/>
	</g>
	<g>
		<path fill="#1E1E1C" d="M42.634,71.779c-0.635,1.744-1.691,4.035-2.75,5.48h-0.458c-0.705,0-1.075-0.246-1.552-0.951
			c-1.285-1.956-2.907-6.098-3.119-8.671h1.27c0.812,0,1.322,0.616,1.41,1.128c0.334,1.762,0.811,3.595,1.814,5.551
			c0.898-1.779,1.728-4.3,2.08-6.679h1.004c0.811,0,1.111,0.353,1.111,1.128C43.444,69.046,43.215,70.191,42.634,71.779z"/>
		<path fill="#1E1E1C" d="M49.114,67.426c2.854,0,4.494,2.291,4.494,4.812c0,2.855-1.64,5.129-4.705,5.129
			c-2.855,0-4.494-2.273-4.494-4.794C44.409,69.717,46.048,67.426,49.114,67.426z M48.903,69.541c-1.356,0-2.043,1.128-2.043,2.696
			c0,1.886,0.687,3.014,2.256,3.014c1.373,0,2.043-1.128,2.043-2.679C51.159,70.668,50.454,69.541,48.903,69.541z"/>
		<path fill="#1E1E1C" d="M59.649,77.366c-2.344,0-4.193-1.552-4.193-4.318v-5.41h0.439c1.357,0,1.957,0.581,1.957,1.691v3.489
			c0,1.745,0.846,2.45,1.92,2.45c0.971,0,1.657-0.67,1.657-2.291v-5.34h0.423c1.375,0,1.957,0.581,1.957,1.691v3.561
			C63.81,75.85,62.417,77.366,59.649,77.366z"/>
		<path fill="#1E1E1C" d="M68.968,77.366c-1.744,0-3.049-0.899-3.049-1.868v-1.075h0.089c0.511,0.476,1.728,0.898,2.854,0.898
			c1.164,0,1.728-0.335,1.728-1.04c0-0.546-0.335-0.811-1.974-1.039c-2.01-0.282-2.979-1.075-2.979-2.521
			c0-1.78,1.604-3.296,4.035-3.296c2.149,0,3.03,1.11,3.03,2.027v0.898h-0.088c-0.492-0.493-1.586-0.881-2.713-0.881
			c-1.445,0-1.904,0.44-1.904,1.057c0,0.477,0.283,0.67,1.904,0.935c1.974,0.317,3.03,1.181,3.03,2.696
			C72.934,76.167,71.524,77.366,68.968,77.366z"/>
	</g>
	<path fill="#C53518" d="M159.175,77.942c-1.057,0-1.727-0.67-1.727-1.551V72.62c0-1.604-0.705-2.309-1.922-2.309
		c-1.021,0-1.727,0.775-1.727,2.132v5.499h-0.705c-1.006,0-1.657-0.67-1.657-1.551v-4.106c0-2.009,1.321-4.071,4.282-4.071
		c2.238,0,4.09,1.498,4.09,4.194v5.534H159.175z"/>
</g>
<g>
	<g>
		<path fill="#1E1E1C" d="M39.038,120.533h-0.476c-2.256,0-3.807-1.27-3.807-3.015c0-1.69,1.233-2.979,4.723-2.979h0.828v-0.123
			c0-1.338-0.634-1.744-2.044-1.744c-1.709,0-2.661,0.652-3.014,1.093H35.16v-0.759c0-1.057,0.952-2.325,3.454-2.325
			c2.115,0,4.019,0.987,4.019,4.266v2.185C42.634,119.141,41.153,120.533,39.038,120.533z M40.325,116.232h-0.846
			c-1.798,0-2.309,0.424-2.309,1.198c0,0.739,0.599,1.181,1.639,1.181c1.022,0,1.516-0.492,1.516-1.463V116.232z"/>
		<path fill="#1E1E1C" d="M45.961,110.188c-0.758,0-1.375-0.635-1.375-1.393s0.617-1.375,1.375-1.375
			c0.758,0,1.392,0.617,1.392,1.375S46.719,110.188,45.961,110.188z M47.635,120.461c-1.833,0-2.837-1.039-2.837-2.961v-6.433h0.669
			c1.058,0,1.692,0.563,1.692,1.763v4.441c0,0.951,0.405,1.251,1.445,1.251h0.44v0.511C49.045,120.057,48.64,120.461,47.635,120.461
			z"/>
		<path fill="#1E1E1C" d="M58.101,120.373c-1.057,0-1.727-0.67-1.727-1.551v-3.771c0-1.604-0.705-2.31-1.921-2.31
			c-1.022,0-1.727,0.775-1.727,2.133v5.498h-0.705c-1.004,0-1.657-0.67-1.657-1.551v-4.105c0-2.01,1.322-4.071,4.283-4.071
			c2.238,0,4.089,1.498,4.089,4.194v5.533H58.101z"/>
		<path fill="#1E1E1C" d="M63.894,120.586c-1.745,0-3.049-0.899-3.049-1.868v-1.075h0.088c0.511,0.477,1.727,0.898,2.855,0.898
			c1.163,0,1.727-0.336,1.727-1.041c0-0.545-0.335-0.811-1.974-1.039c-2.009-0.281-2.978-1.074-2.978-2.521
			c0-1.78,1.604-3.296,4.036-3.296c2.15,0,3.031,1.109,3.031,2.027v0.897h-0.088c-0.494-0.493-1.586-0.881-2.714-0.881
			c-1.445,0-1.903,0.44-1.903,1.058c0,0.477,0.282,0.67,1.903,0.935c1.974,0.317,3.031,1.181,3.031,2.696
			C67.86,119.387,66.45,120.586,63.894,120.586z"/>
		<path fill="#1E1E1C" d="M71.152,110.188c-0.758,0-1.375-0.635-1.375-1.393s0.617-1.375,1.375-1.375
			c0.758,0,1.392,0.617,1.392,1.375S71.91,110.188,71.152,110.188z M72.827,120.461c-1.833,0-2.837-1.039-2.837-2.961v-6.433h0.669
			c1.058,0,1.692,0.563,1.692,1.763v4.441c0,0.951,0.405,1.251,1.445,1.251h0.44v0.511
			C74.236,120.057,73.831,120.461,72.827,120.461z"/>
		<path fill="#1E1E1C" d="M88.083,115.439v7.932l-0.774-0.019c-0.987-0.019-1.569-0.493-1.569-1.567v-2.434
			c-0.387,0.775-1.355,1.234-2.309,1.234c-2.379,0-4.405-1.887-4.405-4.688c0-2.996,1.938-5.252,4.829-5.252
			C86.585,110.646,88.083,112.461,88.083,115.439z M81.387,115.475c0,1.956,0.829,3.014,2.292,3.014c1.32,0,2.061-0.793,2.061-2.767
			c0-2.027-0.758-2.979-2.185-2.979C82.48,112.744,81.387,113.748,81.387,115.475z"/>
		<path fill="#1E1E1C" d="M94.566,120.586c-2.344,0-4.195-1.553-4.195-4.318v-5.41h0.441c1.357,0,1.956,0.581,1.956,1.691v3.488
			c0,1.746,0.847,2.45,1.921,2.45c0.969,0,1.656-0.67,1.656-2.291v-5.34h0.424c1.374,0,1.956,0.581,1.956,1.69v3.562
			C98.725,119.07,97.332,120.586,94.566,120.586z"/>
		<path fill="#1E1E1C" d="M101.187,112.707h-0.475v-0.105c0.475-0.439,0.811-1.305,0.811-1.814c0-0.334-0.089-0.6-0.283-0.793
			c-0.264-0.265-0.475-0.477-0.475-1.021c0-0.723,0.581-1.305,1.374-1.305c0.917,0,1.517,0.705,1.517,2.01
			C103.656,111.228,102.544,112.707,101.187,112.707z"/>
		<path fill="#1E1E1C" d="M109.453,120.533h-0.477c-2.256,0-3.807-1.27-3.807-3.015c0-1.69,1.231-2.979,4.723-2.979h0.828v-0.123
			c0-1.338-0.635-1.744-2.045-1.744c-1.709,0-2.66,0.652-3.014,1.093h-0.088v-0.759c0-1.057,0.951-2.325,3.455-2.325
			c2.114,0,4.018,0.987,4.018,4.266v2.185C113.046,119.141,111.566,120.533,109.453,120.533z M110.738,116.232h-0.846
			c-1.798,0-2.309,0.424-2.309,1.198c0,0.739,0.6,1.181,1.639,1.181c1.021,0,1.516-0.492,1.516-1.463V116.232L110.738,116.232z"/>
		<path fill="#1E1E1C" d="M125.712,114.998c-0.635,1.744-1.691,4.035-2.75,5.48h-0.457c-0.705,0-1.076-0.246-1.553-0.951
			c-1.285-1.956-2.906-6.098-3.119-8.671h1.27c0.811,0,1.322,0.616,1.41,1.128c0.335,1.762,0.811,3.596,1.814,5.551
			c0.899-1.779,1.729-4.3,2.08-6.679h1.004c0.812,0,1.11,0.353,1.11,1.128C126.523,112.267,126.294,113.412,125.712,114.998z"/>
		<path fill="#1E1E1C" d="M132.195,110.646c2.854,0,4.494,2.291,4.494,4.812c0,2.855-1.64,5.129-4.706,5.129
			c-2.854,0-4.493-2.272-4.493-4.793C127.49,112.937,129.126,110.646,132.195,110.646z M131.983,112.761
			c-1.356,0-2.044,1.128-2.044,2.696c0,1.886,0.688,3.014,2.256,3.014c1.374,0,2.045-1.128,2.045-2.68
			C134.24,113.889,133.535,112.761,131.983,112.761z"/>
		<path fill="#1E1E1C" d="M141.408,120.586c-1.746,0-3.05-0.899-3.05-1.868v-1.075h0.089c0.51,0.477,1.728,0.898,2.854,0.898
			c1.163,0,1.728-0.336,1.728-1.041c0-0.545-0.336-0.811-1.975-1.039c-2.01-0.281-2.979-1.074-2.979-2.521
			c0-1.78,1.604-3.296,4.035-3.296c2.15,0,3.031,1.109,3.031,2.027v0.897h-0.088c-0.493-0.493-1.587-0.881-2.714-0.881
			c-1.445,0-1.904,0.44-1.904,1.058c0,0.477,0.283,0.67,1.904,0.935c1.974,0.317,3.03,1.181,3.03,2.696
			C145.373,119.387,143.962,120.586,141.408,120.586z"/>
		<path fill="#1E1E1C" d="M155.906,120.586c-1.057,0-1.922-0.601-2.396-1.41v4.193h-0.74c-0.846,0-1.654-0.617-1.654-1.639v-5.745
			c0-3.153,1.408-5.34,4.758-5.34c2.52,0,4.316,2.291,4.316,4.688C160.189,118.383,158.674,120.586,155.906,120.586z M155.5,112.744
			c-1.303,0-2.025,1.127-2.025,2.767c0,1.903,0.934,2.979,2.344,2.979c1.146,0,1.938-1.022,1.938-2.539
			C157.756,113.711,157.018,112.744,155.5,112.744z"/>
		<path fill="#1E1E1C" d="M167.428,113.166c-0.352-0.143-0.758-0.282-1.375-0.282c-1.057,0-1.639,0.581-1.639,2.026v5.463h-0.652
			c-1.057,0-1.727-0.527-1.727-1.516v-4.371c0-1.902,1.004-3.719,3.508-3.719c1.463,0,1.973,0.829,1.973,1.552v0.847H167.428
			L167.428,113.166z"/>
		<path fill="#1E1E1C" d="M173.1,110.646c2.855,0,4.494,2.291,4.494,4.812c0,2.855-1.639,5.129-4.705,5.129
			c-2.855,0-4.494-2.272-4.494-4.793C168.395,112.937,170.033,110.646,173.1,110.646z M172.889,112.761
			c-1.357,0-2.045,1.128-2.045,2.696c0,1.886,0.688,3.014,2.256,3.014c1.375,0,2.045-1.128,2.045-2.68
			C175.145,113.889,174.439,112.761,172.889,112.761z"/>
		<path fill="#1E1E1C" d="M186.631,113.924c-0.318-0.547-1.217-0.987-2.574-0.987c-1.375,0-2.59,1.11-2.59,2.521
			c0,1.729,1.021,2.908,2.625,2.908c1.357,0,2.168-0.44,2.504-0.882h0.088v1.093c0,1.146-1.109,1.975-2.82,1.975
			c-2.607,0-4.863-2.026-4.863-4.74s1.885-5.041,5.129-5.041c1.516,0,2.59,0.917,2.59,2.045v1.11L186.631,113.924L186.631,113.924z"
			/>
		<path fill="#1E1E1C" d="M196.107,120.373c-0.986,0-1.604-0.563-1.604-1.586v-3.877c0-1.552-0.846-2.168-1.885-2.168
			c-0.74,0-1.709,0.563-1.709,2.238v5.393h-0.775c-1.111,0-1.621-0.617-1.621-1.586v-11.104h0.738c1.129,0,1.676,0.635,1.676,1.516
			v2.715c0.354-0.563,1.162-1.27,2.062-1.27c2.449,0,3.895,1.463,3.895,4.159v5.569H196.107L196.107,120.373z"/>
		<path fill="#1E1E1C" d="M202.73,116.638h-1.551c0.176,1.198,1.27,1.956,2.66,1.956c0.988,0,2.15-0.193,2.908-0.898h0.088v0.74
			c0,1.216-0.828,2.15-3.438,2.15c-2.359,0-4.67-1.868-4.67-4.776c0-3.173,1.939-5.164,4.652-5.164c1.973,0,3.807,1.41,3.807,3.685
			C207.189,116.074,205.867,116.638,202.73,116.638z M203.172,112.619c-1.146,0-1.939,0.936-1.992,2.027l-0.018,0.316h1.057
			c2.238,0,2.75-0.246,2.75-0.916C204.969,113.096,204.264,112.619,203.172,112.619z"/>
		<path fill="#1E1E1C" d="M211.873,120.586c-1.744,0-3.049-0.899-3.049-1.868v-1.075h0.088c0.512,0.477,1.727,0.898,2.854,0.898
			c1.162,0,1.729-0.336,1.729-1.041c0-0.545-0.334-0.811-1.975-1.039c-2.01-0.281-2.979-1.074-2.979-2.521
			c0-1.78,1.604-3.296,4.035-3.296c2.15,0,3.031,1.109,3.031,2.027v0.897h-0.088c-0.494-0.493-1.586-0.881-2.715-0.881
			c-1.445,0-1.902,0.44-1.902,1.058c0,0.477,0.281,0.67,1.902,0.935c1.975,0.317,3.031,1.181,3.031,2.696
			C215.838,119.387,214.428,120.586,211.873,120.586z"/>
	</g>
	<path fill="#1E1E1C" d="M108.596,109.115c0.546,0.248,1.308,0.424,1.9,0.424h0.744v-0.088c-0.363-0.601-0.761-1.182-1.24-1.641
		c-0.527-0.511-0.925-0.846-1.569-0.846c-0.545,0-0.925,0.265-0.925,0.898C107.506,108.375,107.918,108.816,108.596,109.115z"/>
	<g>
		<path d="M221.342,121.246c-0.926,0-1.692-0.768-1.692-1.692s0.767-1.693,1.692-1.693s1.693,0.769,1.693,1.693
			S222.268,121.246,221.342,121.246z"/>
		<path d="M222.332,116.477l0.501-11.245c0-0.897-0.51-1.586-1.691-1.586h-0.668v12.349
			C221.261,115.983,221.547,116.473,222.332,116.477z"/>
	</g>
</g>
</svg>
