<?xml version="1.0" encoding="utf-8"?>
<!-- Generator: Adobe Illustrator 16.0.4, SVG Export Plug-In . SVG Version: 6.00 Build 0)  -->
<!DOCTYPE svg PUBLIC "-//W3C//DTD SVG 1.1//EN" "http://www.w3.org/Graphics/SVG/1.1/DTD/svg11.dtd">
<svg version="1.1" id="Calque_1" xmlns="http://www.w3.org/2000/svg" xmlns:xlink="http://www.w3.org/1999/xlink" x="0px" y="0px"
	 width="325px" height="225px" viewBox="0 0 325 225" enable-background="new 0 0 325 225" xml:space="preserve">
<g>
	<path fill="#C3D36A" d="M155.483,76.309c2.109-2.786,1.997-6.547,2.734-9.967c1.997-2.055,5.302-0.632,7.927-0.8l0.969,0.97
		l-0.174,4.614l-2.052,3.594C161.982,76.769,158.96,75.741,155.483,76.309z"/>
	<path fill="#C3D36A" d="M125.929,84.646c3.309-1.771,7.014-2.45,10.437-3.932c3.985-0.857,8.171-2.857,11.667-2.911
		c3.766-0.167,8.678,0.063,12.498,1.543c0.628,0.348,1.185,0.903,0.458,2.051c-1.199,2.848-2.965,5.932-1.656,9.289
		c1.597,3.938,2.338,8.209,3.539,12.314c0.511,1.48,0.396,2.678,0.396,4.387c-2.338,4.221-5.015,8.379-7.24,12.713
		c-0.323,0.795-0.29,0.926-0.69,1.719c0.175,0.395,0.298,0.66,0.69,0.615c2.852-0.057,5.644,0.912,7.925,2.279
		c-1.599,0.23-2.906-0.402-4.619,0c-3.821-0.564-7.922,0.057-11.907-0.514c1.995-1.025,3.87-2.164,6.153-2.451
		c-0.004-0.006,0-0.014,0-0.023c0.922-0.186,1.229-0.357,1.229-0.357v-0.064c0.012-0.002,0.018-0.002,0.023-0.006
		c0.004-0.09,0.004-0.178,0.006-0.271c0.141-4.176,0.917-8.225,4.097-11.068c0.344-0.918,1.082-1.996,0.398-3.025
		c-2.277-2.506-6.211-9.692-7.007-10.087c-3.478,4.048-5.815,8.945-9.404,12.996c-4.274,1.422-8.953,0.225-13.284-0.574
		c-0.287,1.029-0.623,2.568-0.287,3.824c-0.112,2.107,0.345,4.441,0,6.438c-1.192-2.107-0.965-5.07-1.766-7.525
		c-0.34-2.678-1.824-4.898-2.335-7.521c0.344-0.965,1.08,0.059,1.537,0.289c1.255,0.625,1.77,2.668,3.25,2.447
		c3.194-1.768,7.298-2.168,10.832-2.34c1.024-4.512,4.897-13.734,7.124-19.089c0,0-0.682-0.348-1.674-0.782l-3.397-1.556
		c-2.51-0.796-4.962,0.284-7.525,0.113c-3.252,0.856-6.668,1.711-9.973,1.936C125.308,85.103,125.76,84.93,125.929,84.646z"/>
	<path fill="#C3D36A" d="M178.848,89.747c-1.953-0.247-3.73-0.022-5.453,0.198c-1.861,0.234-3.626,0.456-5.553,0.1
		c-1.513-0.916-2.768-2.222-4.084-3.598l-2.75-2.759l-0.029,0.997c-0.134,2.776,0.673,5.278,2.276,7.039
		c2.784,2.329,7.19,1.797,10.407,0.265c1.384,0.191,2.471-0.284,3.521-0.753c0.572-0.258,1.122-0.496,1.71-0.628L178.848,89.747z"/>
	<path fill="#C3D36A" d="M121.234,102.918c0.798,0.168,1.767,0.051,2.224,0.682c0.285,1.197-0.308,2.082-1.207,2.627
		c-0.475,0.258-1.299,0.277-2.103-0.459C119.637,105.312,119.565,102.902,121.234,102.918z"/>
	<path fill="#C3D36A" d="M125.222,113.461c-0.398,1.08-1.495,0.738-2.233,0.508c-0.397-0.166-1.057-0.225-1.3-0.793
		c-0.227-0.859-0.287-1.881,0.515-2.453c1.024-0.225,2.277-0.283,3.019,0.518C125.506,111.982,125.506,112.715,125.222,113.461z"/>
	<path fill="#C3D36A" d="M125.791,122.186c-1.311,0.451-2.106-0.805-2.621-1.662c0.173-0.621,0.173-1.475,0.969-1.76
		c1.201-0.061,2.509-0.061,3.135,1.078C127.5,120.926,126.479,121.611,125.791,122.186z"/>
	<path fill="#C3D36A" d="M148.202,129.141c-0.57,0.967-1.823,0.852-2.734,0.684c-0.686-0.684-1.257-1.594-0.799-2.625
		c0.458-0.285,0.572-0.906,1.086-0.963c1.024-0.121,1.766,0.738,2.337,1.361C148.316,128.059,148.146,128.627,148.202,129.141z"/>
	<path fill="#C3D36A" d="M156.41,130.334c-0.969,0.17-2.619,0.518-2.85-0.91c-0.513-0.855,0.398-1.482,0.291-2.336
		c0.509-0.688,1.65-0.398,2.333-0.285C156.183,126.803,158.427,128.42,156.41,130.334z"/>
	<path fill="#C3D36A" d="M162.055,128.283c0.054-1.195,1.421-1.023,2.164-1.48c0.685,0.111,1.254,0.795,1.653,1.367
		c0.175,0.742-0.343,1.197-0.282,1.938c-0.742,0.686-1.711,0.455-2.563,0.113C162.282,129.881,162.167,129.029,162.055,128.283z"/>
</g>
</svg>
