<?xml version="1.0" encoding="utf-8"?>
<!-- Generator: Adobe Illustrator 16.0.4, SVG Export Plug-In . SVG Version: 6.00 Build 0)  -->
<!DOCTYPE svg PUBLIC "-//W3C//DTD SVG 1.0//EN" "http://www.w3.org/TR/2001/REC-SVG-20010904/DTD/svg10.dtd">
<svg version="1.0" id="Calque_1" xmlns="http://www.w3.org/2000/svg" xmlns:xlink="http://www.w3.org/1999/xlink" x="0px" y="0px"
	 width="325px" height="225px" viewBox="0 0 325 225" enable-background="new 0 0 325 225" xml:space="preserve">
<g enable-background="new    ">
	<path fill="#1E1E1C" d="M41.924,73.874H40.92c-2.044,0-3.349-0.811-3.349-2.679v-9.076c0.582-0.229,2.062-0.458,2.979-0.458h1.251
		c2.767,0,5.675,1.851,5.675,5.886C47.476,71.195,45.079,73.874,41.924,73.874z M41.431,63.688h-0.529
		c-0.3,0-0.917,0.124-0.917,0.124v6.926c0,0.705,0.317,1.022,1.216,1.022h0.406c1.991,0,3.401-1.692,3.401-3.878
		C45.009,65.186,43.511,63.688,41.431,63.688z"/>
	<path fill="#1E1E1C" d="M52.846,70.032h-1.551c0.176,1.198,1.269,1.956,2.661,1.956c0.987,0,2.15-0.193,2.908-0.898h0.088v0.74
		c0,1.216-0.829,2.15-3.437,2.15c-2.362,0-4.67-1.868-4.67-4.776c0-3.173,1.938-5.164,4.652-5.164c1.974,0,3.807,1.41,3.807,3.684
		C57.305,69.469,55.983,70.032,52.846,70.032z M53.287,66.014c-1.146,0-1.938,0.935-1.991,2.027l-0.018,0.317h1.057
		c2.238,0,2.75-0.247,2.75-0.917C55.084,66.49,54.379,66.014,53.287,66.014z"/>
	<path fill="#1E1E1C" d="M63.911,73.98c-1.058,0-1.921-0.6-2.397-1.41v4.194h-0.74c-0.846,0-1.657-0.617-1.657-1.639V69.38
		c0-3.154,1.41-5.34,4.758-5.34c2.521,0,4.318,2.291,4.318,4.688C68.193,71.777,66.677,73.98,63.911,73.98z M63.505,66.138
		c-1.304,0-2.026,1.128-2.026,2.767c0,1.903,0.934,2.979,2.344,2.979c1.146,0,1.938-1.022,1.938-2.538
		C65.761,67.106,65.021,66.138,63.505,66.138z"/>
	<path fill="#1E1E1C" d="M74.233,73.98c-2.344,0-4.194-1.552-4.194-4.318v-5.41h0.44c1.357,0,1.957,0.581,1.957,1.691v3.489
		c0,1.745,0.846,2.45,1.921,2.45c0.969,0,1.657-0.67,1.657-2.291v-5.34h0.423c1.375,0,1.957,0.581,1.957,1.691v3.561
		C78.393,72.465,77,73.98,74.233,73.98z"/>
	<path fill="#1E1E1C" d="M82.142,63.582c-0.758,0-1.375-0.635-1.375-1.393s0.617-1.374,1.375-1.374c0.758,0,1.392,0.616,1.392,1.374
		S82.9,63.582,82.142,63.582z M83.816,73.856c-1.833,0-2.837-1.04-2.837-2.961v-6.433h0.669c1.058,0,1.692,0.564,1.692,1.763v4.441
		c0,0.951,0.405,1.251,1.445,1.251h0.44v0.511C85.226,73.451,84.821,73.856,83.816,73.856z"/>
	<path fill="#1E1E1C" d="M89.418,73.98c-1.745,0-3.049-0.899-3.049-1.868v-1.075h0.088c0.511,0.476,1.727,0.898,2.855,0.898
		c1.163,0,1.727-0.335,1.727-1.04c0-0.546-0.335-0.811-1.974-1.039c-2.009-0.282-2.978-1.075-2.978-2.521
		c0-1.78,1.604-3.296,4.036-3.296c2.15,0,3.031,1.11,3.031,2.027v0.898h-0.088c-0.494-0.493-1.586-0.881-2.714-0.881
		c-1.445,0-1.903,0.44-1.903,1.057c0,0.477,0.282,0.67,1.903,0.935c1.974,0.317,3.031,1.181,3.031,2.696
		C93.383,72.781,91.974,73.98,89.418,73.98z"/>
	<path fill="#1E1E1C" d="M105.732,73.769h-5.586c-0.688,0-1.216-0.528-1.216-1.198c0-0.793,0.405-1.675,2.273-3.226l2.82-2.344
		c0.652-0.528,0.829-1.093,0.829-1.621c0-1.093-0.758-1.78-2.098-1.78c-1.762,0-2.767,0.493-3.56,1.568h-0.088v-0.863
		c0-1.41,1.075-2.82,4.089-2.82c2.326,0,4.036,1.64,4.036,3.578c0,1.798-0.687,2.591-2.52,4.036l-1.868,1.462
		c-0.405,0.317-0.952,0.829-1.146,1.146h5.657v0.881C107.354,73.346,106.702,73.769,105.732,73.769z"/>
	<path fill="#1E1E1C" d="M113.553,73.98c-2.662,0-4.547-2.08-4.547-6.027c0-4.389,1.851-6.469,4.741-6.469
		c2.767,0,4.371,2.345,4.371,5.992C118.118,71.988,116.179,73.98,113.553,73.98z M113.747,71.865c1.163,0,1.991-1.181,1.991-3.842
		c0-3.313-0.723-4.424-2.185-4.424c-1.199,0-2.168,1.075-2.168,3.859C111.385,70.772,112.213,71.865,113.747,71.865z"/>
	<path fill="#1E1E1C" d="M127.682,73.927h-0.476c-2.256,0-3.807-1.269-3.807-3.014c0-1.691,1.233-2.979,4.723-2.979h0.828v-0.123
		c0-1.339-0.634-1.744-2.044-1.744c-1.71,0-2.662,0.651-3.014,1.092h-0.088v-0.758c0-1.057,0.952-2.326,3.454-2.326
		c2.115,0,4.019,0.987,4.019,4.266v2.185C131.277,72.535,129.796,73.927,127.682,73.927z M128.968,69.627h-0.846
		c-1.798,0-2.309,0.423-2.309,1.198c0,0.74,0.599,1.181,1.639,1.181c1.022,0,1.516-0.493,1.516-1.463V69.627L128.968,69.627z"/>
	<path fill="#1E1E1C" d="M140.877,73.769c-1.057,0-1.727-0.67-1.727-1.551v-3.771c0-1.604-0.705-2.309-1.921-2.309
		c-1.022,0-1.727,0.775-1.727,2.132v5.499h-0.705c-1.004,0-1.657-0.67-1.657-1.551v-4.106c0-2.009,1.322-4.071,4.283-4.071
		c2.238,0,4.089,1.498,4.089,4.194v5.534H140.877z"/>
	<path fill="#1E1E1C" d="M146.671,73.98c-1.745,0-3.049-0.899-3.049-1.868v-1.075h0.088c0.511,0.476,1.727,0.898,2.855,0.898
		c1.163,0,1.727-0.335,1.727-1.04c0-0.546-0.335-0.811-1.974-1.039c-2.009-0.282-2.979-1.075-2.979-2.521
		c0-1.78,1.604-3.296,4.036-3.296c2.15,0,3.031,1.11,3.031,2.027v0.898h-0.088c-0.494-0.493-1.586-0.881-2.714-0.881
		c-1.445,0-1.903,0.44-1.903,1.057c0,0.477,0.282,0.67,1.903,0.935c1.974,0.317,3.031,1.181,3.031,2.696
		C150.637,72.781,149.227,73.98,146.671,73.98z"/>
	<path fill="#1E1E1C" d="M152.713,76.2h-0.476v-0.105c0.476-0.44,0.811-1.304,0.811-1.815c0-0.335-0.088-0.599-0.282-0.793
		c-0.265-0.264-0.476-0.476-0.476-1.021c0-0.723,0.582-1.305,1.375-1.305c0.917,0,1.516,0.705,1.516,2.009
		C155.181,74.721,154.07,76.2,152.713,76.2z"/>
</g>
<path fill="#C53518" d="M168.688,73.231c-1.057,0-1.727-0.67-1.727-1.551v-3.771c0-1.604-0.705-2.309-1.922-2.309
	c-1.021,0-1.727,0.775-1.727,2.132v5.499h-0.705c-1.004,0-1.657-0.67-1.657-1.551v-4.106c0-2.009,1.322-4.071,4.283-4.071
	c2.237,0,4.089,1.498,4.089,4.194v5.534H168.688z"/>
<path fill="#C53518" d="M212.521,73.231c-1.057,0-1.727-0.67-1.727-1.551v-3.771c0-1.604-0.705-2.309-1.922-2.309
	c-1.021,0-1.727,0.775-1.727,2.132v5.499h-0.705c-1.004,0-1.657-0.67-1.657-1.551v-4.106c0-2.009,1.322-4.071,4.283-4.071
	c2.237,0,4.089,1.498,4.089,4.194v5.534H212.521z"/>
<path fill="#C53518" d="M175.875,63.503c2.854,0,4.493,2.291,4.493,4.812c0,2.855-1.639,5.129-4.706,5.129
	c-2.854,0-4.494-2.273-4.494-4.794C171.168,65.794,172.808,63.503,175.875,63.503z M175.662,65.618
	c-1.357,0-2.044,1.128-2.044,2.696c0,1.886,0.687,3.014,2.257,3.014c1.375,0,2.043-1.128,2.043-2.679
	C177.918,66.746,177.213,65.618,175.662,65.618z"/>
<path fill="#C53518" d="M186.408,73.443c-2.344,0-4.193-1.552-4.193-4.318v-5.41h0.439c1.357,0,1.957,0.581,1.957,1.691v3.489
	c0,1.745,0.846,2.45,1.921,2.45c0.97,0,1.657-0.67,1.657-2.291v-5.34h0.423c1.375,0,1.957,0.581,1.957,1.691v3.561
	C190.567,71.927,189.176,73.443,186.408,73.443z"/>
<path fill="#C53518" d="M195.727,73.443c-1.745,0-3.049-0.899-3.049-1.868V70.5h0.088c0.511,0.476,1.727,0.898,2.855,0.898
	c1.162,0,1.727-0.335,1.727-1.04c0-0.546-0.336-0.811-1.975-1.039c-2.009-0.282-2.979-1.075-2.979-2.521
	c0-1.78,1.604-3.296,4.035-3.296c2.15,0,3.031,1.11,3.031,2.027v0.898h-0.088c-0.494-0.493-1.586-0.881-2.714-0.881
	c-1.444,0-1.903,0.44-1.903,1.057c0,0.477,0.283,0.67,1.903,0.935c1.974,0.317,3.031,1.181,3.031,2.696
	C199.691,72.244,198.282,73.443,195.727,73.443z"/>
<path fill="#C53518" d="M219.305,63.503c2.855,0,4.494,2.291,4.494,4.812c0,2.855-1.639,5.129-4.705,5.129
	c-2.855,0-4.494-2.273-4.494-4.794C214.601,65.794,216.238,63.503,219.305,63.503z M219.094,65.618
	c-1.357,0-2.045,1.128-2.045,2.696c0,1.886,0.688,3.014,2.256,3.014c1.375,0,2.045-1.128,2.045-2.679
	C221.351,66.746,220.646,65.618,219.094,65.618z"/>
<path fill="#C53518" d="M229.84,73.443c-2.344,0-4.194-1.552-4.194-4.318v-5.41h0.44c1.356,0,1.957,0.581,1.957,1.691v3.489
	c0,1.745,0.846,2.45,1.92,2.45c0.97,0,1.658-0.67,1.658-2.291v-5.34h0.422c1.375,0,1.957,0.581,1.957,1.691v3.561
	C234,71.927,232.607,73.443,229.84,73.443z"/>
<path fill="#C53518" d="M239.158,73.443c-1.744,0-3.049-0.899-3.049-1.868V70.5h0.088c0.512,0.476,1.727,0.898,2.855,0.898
	c1.162,0,1.727-0.335,1.727-1.04c0-0.546-0.335-0.811-1.975-1.039c-2.008-0.282-2.979-1.075-2.979-2.521
	c0-1.78,1.604-3.296,4.036-3.296c2.149,0,3.031,1.11,3.031,2.027v0.898h-0.089c-0.493-0.493-1.586-0.881-2.713-0.881
	c-1.445,0-1.903,0.44-1.903,1.057c0,0.477,0.282,0.67,1.903,0.935c1.974,0.317,3.031,1.181,3.031,2.696
	C243.125,72.244,241.713,73.443,239.158,73.443z"/>
<g>
	<path fill="#C53518" d="M40.544,91.172h-1.551c0.176,1.198,1.269,1.956,2.661,1.956c0.987,0,2.15-0.193,2.908-0.898h0.088v0.74
		c0,1.216-0.829,2.15-3.437,2.15c-2.362,0-4.67-1.868-4.67-4.776c0-3.173,1.938-5.164,4.653-5.164c1.974,0,3.807,1.41,3.807,3.684
		C45.003,90.608,43.682,91.172,40.544,91.172z M40.984,87.153c-1.146,0-1.938,0.935-1.991,2.027l-0.018,0.317h1.057
		c2.238,0,2.75-0.247,2.75-0.917C42.783,87.63,42.078,87.153,40.984,87.153z M42.396,83.576c-0.582,0.247-1.393,0.423-2.027,0.423
		h-0.793v-0.088c0.388-0.6,0.811-1.181,1.322-1.64c0.564-0.511,0.987-0.846,1.674-0.846c0.582,0,0.987,0.265,0.987,0.899
		C43.559,82.836,43.118,83.276,42.396,83.576z"/>
	<path fill="#C53518" d="M54.004,88.458c-0.317-0.547-1.216-0.987-2.573-0.987c-1.375,0-2.591,1.11-2.591,2.521
		c0,1.728,1.022,2.908,2.626,2.908c1.357,0,2.167-0.441,2.502-0.882h0.088v1.093c0,1.146-1.11,1.974-2.82,1.974
		c-2.608,0-4.864-2.026-4.864-4.74c0-2.714,1.886-5.041,5.128-5.041c1.516,0,2.591,0.917,2.591,2.045v1.11L54.004,88.458
		L54.004,88.458z"/>
	<path fill="#C53518" d="M60.064,85.18c2.855,0,4.494,2.291,4.494,4.812c0,2.855-1.639,5.129-4.706,5.129
		c-2.855,0-4.494-2.273-4.494-4.794C55.358,87.471,56.998,85.18,60.064,85.18z M59.854,87.295c-1.357,0-2.044,1.128-2.044,2.696
		c0,1.886,0.687,3.014,2.256,3.014c1.375,0,2.044-1.128,2.044-2.679C62.108,88.423,61.403,87.295,59.854,87.295z"/>
	<path fill="#C53518" d="M79.639,94.908c-1.287,0-1.799-0.6-1.799-1.728v-3.665c0-1.569-0.705-2.238-1.744-2.238
		c-0.951,0-1.601,0.669-1.601,1.974v5.657h-0.634c-1.04,0-1.727-0.6-1.727-1.728v-3.665c0-1.569-0.723-2.238-1.763-2.238
		c-0.917,0-1.604,0.723-1.604,2.026v5.604h-0.635c-0.969,0-1.709-0.635-1.709-1.728v-3.683c0-2.591,1.357-4.318,4.23-4.318
		c1.233,0,2.203,0.564,2.89,1.48c0.546-0.881,1.583-1.48,2.729-1.48c2.188,0,3.947,1.322,3.947,4.019v5.71L79.639,94.908
		L79.639,94.908z"/>
	<path fill="#C53518" d="M86.77,85.18c2.854,0,4.494,2.291,4.494,4.812c0,2.855-1.641,5.129-4.707,5.129
		c-2.854,0-4.494-2.273-4.494-4.794C82.062,87.471,83.701,85.18,86.77,85.18z M86.557,87.295c-1.355,0-2.043,1.128-2.043,2.696
		c0,1.886,0.688,3.014,2.256,3.014c1.373,0,2.043-1.128,2.043-2.679C88.812,88.423,88.107,87.295,86.557,87.295z"/>
	<path fill="#C53518" d="M97.62,95.12c-2.433,0-4.478-1.992-4.478-4.847v-8.055h0.812c0.916,0,1.551,0.529,1.551,1.64v2.767
		c0.476-0.688,1.286-1.445,2.572-1.445c2.414,0,4.266,1.974,4.266,4.776C102.344,92.811,100.51,95.12,97.62,95.12z M97.62,87.277
		c-1.198,0-2.097,1.181-2.097,2.661c0,2.186,0.934,3.084,2.344,3.084c1.181,0,2.025-1.128,2.025-2.661
		C99.895,88.053,99.064,87.277,97.62,87.277z"/>
	<path fill="#C53518" d="M105.688,84.722c-0.758,0-1.375-0.635-1.375-1.393c0-0.758,0.617-1.374,1.375-1.374
		s1.394,0.616,1.394,1.374C107.08,84.087,106.445,84.722,105.688,84.722z M107.361,94.996c-1.832,0-2.838-1.04-2.838-2.961v-6.433
		h0.67c1.059,0,1.69,0.564,1.69,1.763v4.441c0,0.951,0.405,1.251,1.445,1.251h0.438v0.511
		C108.771,94.591,108.366,94.996,107.361,94.996z"/>
	<path fill="#C53518" d="M113.191,94.996c-1.955,0-3.012-1.04-3.012-2.961v-9.816h0.668c1.182,0,1.691,0.688,1.691,1.586v8.002
		c0,0.951,0.493,1.251,1.604,1.251h0.635v0.511C114.779,94.591,114.232,94.996,113.191,94.996z"/>
	<path fill="#C53518" d="M117.297,84.722c-0.758,0-1.375-0.635-1.375-1.393c0-0.758,0.617-1.374,1.375-1.374
		s1.393,0.616,1.393,1.374C118.689,84.087,118.055,84.722,117.297,84.722z M118.971,94.996c-1.832,0-2.836-1.04-2.836-2.961v-6.433
		h0.67c1.057,0,1.69,0.564,1.69,1.763v4.441c0,0.951,0.405,1.251,1.444,1.251h0.439v0.511
		C120.381,94.591,119.977,94.996,118.971,94.996z"/>
	<path fill="#C53518" d="M124.573,95.12c-1.745,0-3.05-0.899-3.05-1.868v-1.075h0.088c0.512,0.476,1.728,0.898,2.854,0.898
		c1.164,0,1.729-0.335,1.729-1.04c0-0.546-0.334-0.811-1.973-1.039c-2.012-0.282-2.979-1.075-2.979-2.521
		c0-1.78,1.604-3.296,4.036-3.296c2.147,0,3.031,1.11,3.031,2.027v0.898h-0.091c-0.491-0.493-1.586-0.881-2.714-0.881
		c-1.443,0-1.902,0.44-1.902,1.057c0,0.477,0.281,0.67,1.902,0.935c1.975,0.317,3.031,1.181,3.031,2.696
		C128.538,93.921,127.128,95.12,124.573,95.12z"/>
	<path fill="#C53518" d="M134.632,85.18c2.854,0,4.494,2.291,4.494,4.812c0,2.855-1.64,5.129-4.705,5.129
		c-2.854,0-4.493-2.273-4.493-4.794C129.928,87.471,131.564,85.18,134.632,85.18z M134.421,87.295c-1.356,0-2.045,1.128-2.045,2.696
		c0,1.886,0.688,3.014,2.256,3.014c1.375,0,2.046-1.128,2.046-2.679C136.678,88.423,135.973,87.295,134.421,87.295z"/>
	<path fill="#C53518" d="M148.71,94.908c-1.058,0-1.728-0.67-1.728-1.551v-3.771c0-1.604-0.705-2.309-1.922-2.309
		c-1.021,0-1.729,0.775-1.729,2.132v5.499h-0.705c-1.004,0-1.654-0.67-1.654-1.551v-4.106c0-2.009,1.32-4.071,4.28-4.071
		c2.238,0,4.09,1.498,4.09,4.194v5.534H148.71z"/>
	<path fill="#C53518" d="M154.504,95.12c-1.744,0-3.049-0.899-3.049-1.868v-1.075h0.088c0.512,0.476,1.727,0.898,2.854,0.898
		c1.164,0,1.729-0.335,1.729-1.04c0-0.546-0.335-0.811-1.976-1.039c-2.01-0.282-2.979-1.075-2.979-2.521
		c0-1.78,1.604-3.296,4.036-3.296c2.149,0,3.03,1.11,3.03,2.027v0.898h-0.088c-0.493-0.493-1.586-0.881-2.715-0.881
		c-1.444,0-1.902,0.44-1.902,1.057c0,0.477,0.281,0.67,1.902,0.935c1.975,0.317,3.03,1.181,3.03,2.696
		C158.469,93.921,157.059,95.12,154.504,95.12z"/>
</g>
<path fill="#C53518" d="M170.126,95.228c-1.058,0-1.921-0.6-2.397-1.41v4.194h-0.74c-0.846,0-1.656-0.617-1.656-1.64v-5.745
	c0-3.154,1.41-5.34,4.758-5.34c2.521,0,4.318,2.291,4.318,4.688C174.408,93.024,172.893,95.228,170.126,95.228z M169.72,87.385
	c-1.304,0-2.026,1.128-2.026,2.767c0,1.903,0.935,2.979,2.344,2.979c1.146,0,1.938-1.022,1.938-2.538
	C171.976,88.354,171.236,87.385,169.72,87.385z"/>
<path fill="#C53518" d="M180.52,85.287c2.855,0,4.494,2.291,4.494,4.812c0,2.855-1.639,5.129-4.706,5.129
	c-2.854,0-4.493-2.273-4.493-4.794C175.814,87.578,177.453,85.287,180.52,85.287z M180.308,87.403c-1.356,0-2.044,1.128-2.044,2.696
	c0,1.887,0.688,3.014,2.256,3.014c1.375,0,2.045-1.127,2.045-2.679C182.564,88.53,181.859,87.403,180.308,87.403z"/>
<path fill="#C53518" d="M191.054,95.228c-2.344,0-4.194-1.552-4.194-4.318V85.5h0.44c1.356,0,1.957,0.581,1.957,1.691v3.489
	c0,1.745,0.846,2.45,1.921,2.45c0.969,0,1.657-0.67,1.657-2.291v-5.34h0.423c1.375,0,1.957,0.581,1.957,1.691v3.561
	C195.214,93.712,193.82,95.228,191.054,95.228z"/>
<path fill="#C53518" d="M202.893,87.808c-0.354-0.142-0.758-0.282-1.375-0.282c-1.057,0-1.639,0.582-1.639,2.026v5.464h-0.652
	c-1.057,0-1.727-0.528-1.727-1.516v-4.371c0-1.903,1.004-3.719,3.507-3.719c1.463,0,1.974,0.829,1.974,1.552v0.846H202.893z"/>
<path fill="#C53518" d="M45.62,110.673c-0.635,1.744-1.692,4.035-2.75,5.479h-0.458c-0.705,0-1.075-0.245-1.551-0.95
	c-1.286-1.956-2.908-6.098-3.119-8.671h1.269c0.811,0,1.322,0.616,1.41,1.128c0.335,1.762,0.811,3.595,1.815,5.551
	c0.899-1.779,1.727-4.3,2.08-6.679h1.004c0.811,0,1.11,0.353,1.11,1.128C46.43,107.94,46.201,109.086,45.62,110.673z"/>
<path fill="#C53518" d="M52.103,106.319c2.855,0,4.494,2.291,4.494,4.812c0,2.855-1.639,5.129-4.706,5.129
	c-2.855,0-4.494-2.273-4.494-4.794C47.396,108.61,49.035,106.319,52.103,106.319z M51.89,108.435c-1.357,0-2.044,1.128-2.044,2.696
	c0,1.887,0.687,3.014,2.256,3.014c1.375,0,2.044-1.127,2.044-2.679C54.146,109.562,53.441,108.435,51.89,108.435z"/>
<path fill="#C53518" d="M61.314,116.26c-1.745,0-3.049-0.898-3.049-1.867v-1.076h0.088c0.511,0.478,1.727,0.898,2.855,0.898
	c1.163,0,1.727-0.335,1.727-1.04c0-0.546-0.335-0.811-1.974-1.039c-2.009-0.282-2.978-1.075-2.978-2.521
	c0-1.78,1.604-3.296,4.036-3.296c2.15,0,3.031,1.11,3.031,2.027v0.898h-0.088c-0.494-0.493-1.586-0.881-2.714-0.881
	c-1.445,0-1.903,0.44-1.903,1.057c0,0.477,0.282,0.67,1.903,0.935c1.974,0.317,3.031,1.181,3.031,2.696
	C65.279,115.061,63.87,116.26,61.314,116.26z"/>
<g enable-background="new    ">
	<path fill="#1E1E1C" d="M75.001,116.26c-2.502,0-4.423-2.186-4.423-4.794c0-3.119,1.516-5.146,4.283-5.146
		c0.952,0,1.991,0.67,2.361,1.498v-4.459h0.723c1.128,0,1.622,0.652,1.622,1.604v6.696C79.566,114.427,78.262,116.26,75.001,116.26z
		 M74.878,108.311c-1.199,0-1.974,1.164-1.974,2.697c0,1.974,1.022,3.26,2.379,3.26c1.322,0,1.903-0.984,1.903-2.712
		C77.188,109.175,76.147,108.311,74.878,108.311z"/>
	<path fill="#1E1E1C" d="M85.413,112.312h-1.551c0.176,1.198,1.27,1.956,2.66,1.956c0.986,0,2.15-0.191,2.908-0.896h0.088v0.738
		c0,1.218-0.828,2.15-3.436,2.15c-2.363,0-4.673-1.867-4.673-4.776c0-3.173,1.938-5.164,4.653-5.164c1.973,0,3.807,1.41,3.807,3.684
		C89.872,111.748,88.55,112.312,85.413,112.312z M85.853,108.293c-1.145,0-1.938,0.935-1.99,2.027l-0.018,0.317h1.057
		c2.238,0,2.75-0.247,2.75-0.917C87.651,108.77,86.946,108.293,85.853,108.293z M87.263,104.716
		c-0.582,0.247-1.395,0.423-2.026,0.423h-0.793v-0.088c0.388-0.6,0.812-1.181,1.321-1.64c0.562-0.511,0.986-0.846,1.675-0.846
		c0.581,0,0.987,0.265,0.987,0.899C88.427,103.976,87.985,104.416,87.263,104.716z"/>
	<path fill="#1E1E1C" d="M96.478,116.26c-1.059,0-1.922-0.6-2.397-1.41v4.194h-0.739c-0.848,0-1.658-0.617-1.658-1.64v-5.745
		c0-3.154,1.41-5.34,4.761-5.34c2.521,0,4.315,2.291,4.315,4.688C100.759,114.057,99.243,116.26,96.478,116.26z M96.071,108.417
		c-1.305,0-2.025,1.128-2.025,2.767c0,1.903,0.936,2.979,2.344,2.979c1.146,0,1.938-1.022,1.938-2.538
		C98.327,109.386,97.587,108.417,96.071,108.417z"/>
	<path fill="#1E1E1C" d="M105.708,116.136c-1.957,0-3.015-1.04-3.015-2.961v-9.816h0.669c1.182,0,1.691,0.688,1.691,1.586v8.002
		c0,0.952,0.494,1.251,1.604,1.251h0.635v0.511C107.294,115.73,106.747,116.136,105.708,116.136z"/>
	<path fill="#1E1E1C" d="M112.208,116.206h-0.477c-2.256,0-3.807-1.269-3.807-3.015c0-1.69,1.232-2.979,4.724-2.979h0.827v-0.123
		c0-1.339-0.633-1.744-2.043-1.744c-1.711,0-2.662,0.651-3.014,1.092h-0.09v-0.758c0-1.057,0.951-2.326,3.453-2.326
		c2.115,0,4.021,0.987,4.021,4.266v2.185C115.804,114.814,114.323,116.206,112.208,116.206z M113.494,111.906h-0.846
		c-1.798,0-2.31,0.423-2.31,1.197c0,0.739,0.6,1.182,1.64,1.182c1.022,0,1.516-0.493,1.516-1.463V111.906L113.494,111.906z"/>
	<path fill="#1E1E1C" d="M124.857,109.598c-0.317-0.547-1.216-0.987-2.573-0.987c-1.375,0-2.59,1.11-2.59,2.521
		c0,1.728,1.021,2.908,2.625,2.908c1.357,0,2.168-0.44,2.503-0.882h0.089v1.093c0,1.146-1.111,1.974-2.82,1.974
		c-2.606,0-4.862-2.024-4.862-4.74c0-2.714,1.886-5.041,5.128-5.041c1.516,0,2.592,0.917,2.592,2.045v1.11L124.857,109.598
		L124.857,109.598z"/>
	<path fill="#1E1E1C" d="M130.212,112.312h-1.551c0.176,1.198,1.27,1.956,2.661,1.956c0.987,0,2.149-0.191,2.907-0.896h0.089v0.738
		c0,1.218-0.829,2.15-3.437,2.15c-2.361,0-4.67-1.867-4.67-4.776c0-3.173,1.938-5.164,4.65-5.164c1.975,0,3.809,1.41,3.809,3.684
		C134.671,111.748,133.349,112.312,130.212,112.312z M130.652,108.293c-1.146,0-1.938,0.935-1.991,2.027l-0.018,0.317h1.057
		c2.238,0,2.75-0.247,2.75-0.917C132.45,108.77,131.745,108.293,130.652,108.293z"/>
	<path fill="#1E1E1C" d="M149.718,116.048c-1.287,0-1.799-0.6-1.799-1.728v-3.667c0-1.569-0.705-2.238-1.744-2.238
		c-0.951,0-1.604,0.669-1.604,1.974v5.657h-0.636c-1.038,0-1.728-0.6-1.728-1.729v-3.666c0-1.569-0.723-2.238-1.763-2.238
		c-0.917,0-1.604,0.723-1.604,2.026v5.604h-0.636c-0.97,0-1.71-0.635-1.71-1.729v-3.684c0-2.591,1.357-4.318,4.229-4.318
		c1.234,0,2.203,0.564,2.893,1.48c0.546-0.881,1.586-1.48,2.73-1.48c2.186,0,3.947,1.322,3.947,4.019v5.71L149.718,116.048
		L149.718,116.048z"/>
	<path fill="#1E1E1C" d="M156.144,112.312h-1.551c0.176,1.198,1.27,1.956,2.66,1.956c0.986,0,2.148-0.191,2.906-0.896h0.09v0.738
		c0,1.218-0.828,2.15-3.438,2.15c-2.361,0-4.672-1.867-4.672-4.776c0-3.173,1.938-5.164,4.652-5.164c1.975,0,3.807,1.41,3.807,3.684
		C160.603,111.748,159.28,112.312,156.144,112.312z M156.585,108.293c-1.146,0-1.938,0.935-1.992,2.027l-0.018,0.317h1.057
		c2.238,0,2.75-0.247,2.75-0.917C158.382,108.77,157.677,108.293,156.585,108.293z"/>
	<path fill="#1E1E1C" d="M170.15,116.048c-1.058,0-1.728-0.67-1.728-1.551v-3.771c0-1.604-0.705-2.309-1.92-2.309
		c-1.023,0-1.729,0.775-1.729,2.132v5.499h-0.705c-1.005,0-1.657-0.67-1.657-1.551v-4.106c0-2.009,1.322-4.071,4.283-4.071
		c2.236,0,4.089,1.498,4.089,4.194v5.534H170.15L170.15,116.048z"/>
	<path fill="#1E1E1C" d="M173.847,105.033c0.316-0.37,0.74-0.652,1.109-0.652h0.547v2.15h3.297v0.969
		c0,0.494-0.441,1.128-1.41,1.128h-1.887v3.719c0,1.233,0.547,1.709,1.497,1.709c0.759,0,1.341-0.105,1.712-0.334h0.088v0.846
		c0,0.97-0.705,1.586-2.08,1.586c-2.396,0-3.562-1.305-3.562-3.524v-5.71C173.16,105.984,173.337,105.632,173.847,105.033z"/>
	<path fill="#1E1E1C" d="M183.079,116.26c-1.744,0-3.049-0.898-3.049-1.867v-1.076h0.088c0.512,0.478,1.729,0.898,2.855,0.898
		c1.162,0,1.727-0.335,1.727-1.04c0-0.546-0.334-0.811-1.973-1.039c-2.01-0.282-2.979-1.075-2.979-2.521
		c0-1.78,1.604-3.296,4.035-3.296c2.149,0,3.031,1.11,3.031,2.027v0.898h-0.089c-0.493-0.493-1.586-0.881-2.715-0.881
		c-1.443,0-1.901,0.44-1.901,1.057c0,0.477,0.28,0.67,1.901,0.935c1.976,0.317,3.031,1.181,3.031,2.696
		C187.044,115.061,185.634,116.26,183.079,116.26z"/>
	<path fill="#1E1E1C" d="M190.214,116.048c-0.828,0-1.517-0.688-1.517-1.516c0-0.828,0.688-1.517,1.517-1.517
		c0.83,0,1.517,0.688,1.517,1.517C191.729,115.359,191.042,116.048,190.214,116.048z"/>
</g>
<g>
	<path d="M46.725,167.936c-1.181,0-1.93-0.748-1.93-1.732v-4.211c0-1.792-0.787-2.58-2.145-2.58c-1.143,0-1.93,0.865-1.93,2.383
		v6.141h-0.787c-1.121,0-1.851-0.748-1.851-1.732v-4.585c0-2.245,1.476-4.548,4.784-4.548c2.5,0,4.566,1.674,4.566,4.686v6.18
		H46.725L46.725,167.936z"/>
	<path d="M54.751,157.07c3.188,0,5.02,2.56,5.02,5.374c0,3.189-1.831,5.729-5.257,5.729c-3.188,0-5.02-2.537-5.02-5.354
		C49.496,159.63,51.326,157.07,54.751,157.07z M54.516,159.434c-1.516,0-2.283,1.26-2.283,3.011c0,2.106,0.768,3.366,2.52,3.366
		c1.536,0,2.283-1.26,2.283-2.993C57.035,160.693,56.248,159.434,54.516,159.434z"/>
	<path d="M66.518,168.174c-2.617,0-4.684-1.734-4.684-4.823v-6.043h0.491c1.516,0,2.187,0.648,2.187,1.889v3.896
		c0,1.95,0.943,2.735,2.145,2.735c1.082,0,1.852-0.748,1.852-2.559v-5.965h0.473c1.535,0,2.186,0.649,2.186,1.888v3.979
		C71.163,166.48,69.609,168.174,66.518,168.174z"/>
	<path d="M76.926,168.174c-1.949,0-3.405-1.005-3.405-2.087v-1.201h0.099c0.57,0.532,1.928,1.004,3.188,1.004
		c1.299,0,1.929-0.375,1.929-1.163c0-0.608-0.374-0.906-2.205-1.16c-2.244-0.314-3.326-1.2-3.326-2.816
		c0-1.987,1.791-3.682,4.508-3.682c2.402,0,3.386,1.238,3.386,2.264v1.002H81c-0.552-0.551-1.771-0.983-3.031-0.983
		c-1.613,0-2.125,0.491-2.125,1.181c0,0.534,0.314,0.749,2.125,1.045c2.205,0.354,3.386,1.319,3.386,3.011
		C81.355,166.834,79.781,168.174,76.926,168.174z"/>
	<path fill="#C53518" d="M93.121,168.174c-1.183,0-2.146-0.672-2.678-1.575v4.684h-0.827c-0.944,0-1.851-0.689-1.851-1.831v-6.416
		c0-3.522,1.575-5.965,5.314-5.965c2.815,0,4.824,2.56,4.824,5.237C97.904,165.713,96.211,168.174,93.121,168.174z M92.668,159.415
		c-1.457,0-2.264,1.259-2.264,3.091c0,2.125,1.044,3.327,2.619,3.327c1.279,0,2.164-1.142,2.164-2.836
		C95.188,160.494,94.361,159.415,92.668,159.415z"/>
	<path fill="#C53518" d="M104.73,157.07c3.188,0,5.02,2.56,5.02,5.374c0,3.189-1.831,5.729-5.256,5.729
		c-3.189,0-5.02-2.537-5.02-5.354C99.475,159.63,101.305,157.07,104.73,157.07z M104.494,159.434c-1.516,0-2.284,1.26-2.284,3.011
		c0,2.106,0.769,3.366,2.521,3.366c1.535,0,2.283-1.26,2.283-2.993C107.014,160.693,106.227,159.434,104.494,159.434z"/>
	<path fill="#C53518" d="M116.496,168.174c-2.619,0-4.685-1.734-4.685-4.823v-6.043h0.49c1.516,0,2.187,0.648,2.187,1.889v3.896
		c0,1.95,0.944,2.735,2.146,2.735c1.082,0,1.85-0.748,1.85-2.559v-5.965h0.472c1.535,0,2.186,0.649,2.186,1.888v3.979
		C121.142,166.48,119.586,168.174,116.496,168.174z"/>
	<path fill="#C53518" d="M129.72,159.886c-0.393-0.16-0.847-0.315-1.536-0.315c-1.18,0-1.83,0.649-1.83,2.264v6.102h-0.729
		c-1.181,0-1.929-0.589-1.929-1.693v-4.883c0-2.124,1.121-4.153,3.918-4.153c1.634,0,2.203,0.926,2.203,1.733v0.946H129.72z"/>
	<path fill="#C53518" d="M134.499,168.174c-1.948,0-3.405-1.005-3.405-2.087v-1.201h0.099c0.571,0.532,1.931,1.004,3.187,1.004
		c1.301,0,1.931-0.375,1.931-1.163c0-0.608-0.373-0.906-2.205-1.16c-2.245-0.314-3.327-1.2-3.327-2.816
		c0-1.987,1.791-3.682,4.507-3.682c2.401,0,3.385,1.238,3.385,2.264v1.002h-0.098c-0.549-0.551-1.771-0.983-3.031-0.983
		c-1.612,0-2.125,0.491-2.125,1.181c0,0.534,0.314,0.749,2.125,1.045c2.205,0.354,3.386,1.319,3.386,3.011
		C138.929,166.834,137.354,168.174,134.499,168.174z"/>
	<path fill="#C53518" d="M145.658,168.174c-2.619,0-4.687-1.734-4.687-4.823v-6.043h0.493c1.516,0,2.184,0.648,2.184,1.889v3.896
		c0,1.95,0.947,2.735,2.146,2.735c1.082,0,1.851-0.748,1.851-2.559v-5.965h0.472c1.536,0,2.186,0.649,2.186,1.888v3.979
		C150.303,166.48,148.748,168.174,145.658,168.174z"/>
	<path fill="#C53518" d="M154.491,156.559c-0.847,0-1.536-0.709-1.536-1.555c0-0.847,0.689-1.536,1.536-1.536
		c0.846,0,1.555,0.689,1.555,1.536C156.046,155.85,155.337,156.559,154.491,156.559z M156.36,168.034
		c-2.046,0-3.167-1.161-3.167-3.308v-7.186h0.748c1.181,0,1.888,0.628,1.888,1.97v4.96c0,1.062,0.453,1.396,1.613,1.396h0.491v0.572
		C157.936,167.582,157.484,168.034,156.36,168.034z"/>
	<path fill="#C53518" d="M167.105,161.933c-0.708,1.947-1.888,4.507-3.07,6.12h-0.511c-0.787,0-1.202-0.275-1.733-1.062
		c-1.438-2.185-3.247-6.811-3.484-9.686h1.418c0.907,0,1.477,0.688,1.575,1.26c0.373,1.97,0.907,4.018,2.026,6.201
		c1.004-1.987,1.931-4.804,2.323-7.461h1.122c0.907,0,1.24,0.396,1.24,1.26C168.012,158.881,167.756,160.161,167.105,161.933z"/>
	<path fill="#C53518" d="M174.345,157.07c3.189,0,5.021,2.56,5.021,5.374c0,3.189-1.831,5.729-5.256,5.729
		c-3.189,0-5.02-2.537-5.02-5.354C169.09,159.63,170.92,157.07,174.345,157.07z M174.109,159.434c-1.516,0-2.284,1.26-2.284,3.011
		c0,2.106,0.769,3.366,2.52,3.366c1.536,0,2.284-1.26,2.284-2.993C176.629,160.693,175.842,159.434,174.109,159.434z"/>
	<path fill="#C53518" d="M190.069,167.936c-1.184,0-1.932-0.748-1.932-1.732v-4.211c0-1.792-0.787-2.58-2.146-2.58
		c-1.141,0-1.931,0.865-1.931,2.383v6.141h-0.787c-1.121,0-1.849-0.748-1.849-1.732v-4.585c0-2.245,1.476-4.548,4.78-4.548
		c2.5,0,4.569,1.674,4.569,4.686v6.18H190.069L190.069,167.936z"/>
	<path fill="#C53518" d="M196.54,168.174c-1.948,0-3.405-1.005-3.405-2.087v-1.201h0.099c0.571,0.532,1.929,1.004,3.187,1.004
		c1.301,0,1.931-0.375,1.931-1.163c0-0.608-0.373-0.906-2.205-1.16c-2.245-0.314-3.327-1.2-3.327-2.816
		c0-1.987,1.791-3.682,4.507-3.682c2.4,0,3.386,1.238,3.386,2.264v1.002h-0.101c-0.549-0.551-1.771-0.983-3.031-0.983
		c-1.612,0-2.125,0.491-2.125,1.181c0,0.534,0.314,0.749,2.125,1.045c2.205,0.354,3.387,1.319,3.387,3.011
		C200.97,166.834,199.395,168.174,196.54,168.174z"/>
	<path fill="#C53518" d="M206.842,167.936c-0.926,0-1.692-0.768-1.692-1.692s0.767-1.693,1.692-1.693s1.693,0.769,1.693,1.693
		S207.768,167.936,206.842,167.936z"/>
</g>
<g enable-background="new    ">
	<path fill="#1E1E1C" d="M51.315,143.182c-0.027,1.46-0.769,2.253-3.949,2.253h-1.934c-4.425,0-6.758-2.438-6.758-7.076v-3.364
		c0-1.723,0.132-3.658,0.344-5.114c0.292-2.174,1.298-2.728,2.784-2.728h9.487v1.221c0,1.271-0.769,1.909-2.438,1.909h-6.229
		c-0.187,1.326-0.264,3.1-0.264,4.241h6.995v1.295c0,1.192-0.741,1.67-2.198,1.67h-4.797v1.059c0,3.155,1.033,3.766,3.842,3.766
		h1.166c1.325,0,2.676-0.106,3.976-0.399L51.315,143.182z"/>
	<path fill="#1E1E1C" d="M65.274,145.302c-1.589,0-2.597-1.007-2.597-2.332v-5.67c0-2.413-1.059-3.473-2.888-3.473
		c-1.537,0-2.597,1.164-2.597,3.207v8.268h-1.061c-1.509,0-2.491-1.007-2.491-2.332v-6.174c0-3.021,1.988-6.122,6.44-6.122
		c3.366,0,6.149,2.253,6.149,6.308v8.32H65.274L65.274,145.302z"/>
	<path fill="#1E1E1C" d="M85.487,145.302h-8.4c-1.035,0-1.829-0.791-1.829-1.799c0-1.192,0.609-2.521,3.418-4.854l4.241-3.524
		c0.981-0.793,1.247-1.644,1.247-2.438c0-1.644-1.14-2.676-3.154-2.676c-2.65,0-4.161,0.74-5.354,2.356h-0.133v-1.296
		c0-2.121,1.617-4.241,6.149-4.241c3.497,0,6.068,2.467,6.068,5.381c0,2.705-1.033,3.897-3.79,6.067l-2.809,2.2
		c-0.609,0.476-1.432,1.245-1.723,1.724h8.506v1.325C87.926,144.668,86.944,145.302,85.487,145.302z"/>
	<path fill="#1E1E1C" d="M97.25,145.622c-4.003,0-6.837-3.128-6.837-9.063c0-6.6,2.784-9.728,7.129-9.728
		c4.161,0,6.573,3.525,6.573,9.011C104.113,142.626,101.199,145.622,97.25,145.622z M97.54,142.441c1.749,0,2.995-1.777,2.995-5.777
		c0-4.982-1.087-6.652-3.286-6.652c-1.803,0-3.26,1.614-3.26,5.801C93.99,140.797,95.235,142.441,97.54,142.441z"/>
	<path fill="#1E1E1C" d="M112.163,145.302c-1.245,0-2.2-0.791-2.2-2.355v-12.031l-1.749,0.636c-0.504,0.185-0.954,0.265-1.352,0.265
		c-1.006,0-1.617-0.53-1.749-1.325l-0.158-0.925l3.286-1.46c1.829-0.793,2.439-0.954,3.418-0.954c1.166,0,1.936,0.978,1.936,1.933
		v16.218H112.163z"/>
	<path fill="#1E1E1C" d="M129.438,141.01h-1.352v4.292h-1.405c-1.246,0-2.12-0.793-2.12-2.333v-1.962h-6.148
		c-1.193,0-1.988-0.821-1.988-1.643c0-1.009,0.238-1.537,0.477-1.988c1.247-2.28,5.168-8.187,7.686-10.229h1.325
		c1.272,0,2.173,0.845,2.173,2.542v8.32h2.862v1.433C130.95,140.374,130.446,141.01,129.438,141.01z M124.562,130.831
		c-1.246,1.645-3.737,5.249-4.797,7.182h4.797V130.831z"/>
	<path fill="#1E1E1C" d="M133.698,148.96h-0.715v-0.157c0.715-0.66,1.219-1.962,1.219-2.729c0-0.504-0.132-0.901-0.424-1.192
		c-0.398-0.399-0.716-0.717-0.716-1.536c0-1.087,0.875-1.962,2.068-1.962c1.379,0,2.28,1.061,2.28,3.021
		C137.41,146.735,135.739,148.96,133.698,148.96z"/>
</g>
<path fill="#C53518" d="M207.832,163.166l0.501-11.245c0-0.897-0.51-1.586-1.691-1.586h-0.668v12.349
	C206.761,162.673,207.047,163.162,207.832,163.166z"/>
</svg>
