<?xml version="1.0" encoding="utf-8"?>
<!-- Generator: Adobe Illustrator 16.0.4, SVG Export Plug-In . SVG Version: 6.00 Build 0)  -->
<!DOCTYPE svg PUBLIC "-//W3C//DTD SVG 1.1//EN" "http://www.w3.org/Graphics/SVG/1.1/DTD/svg11.dtd">
<svg version="1.1" id="Calque_1" xmlns="http://www.w3.org/2000/svg" xmlns:xlink="http://www.w3.org/1999/xlink" x="0px" y="0px"
	 width="325px" height="225px" viewBox="0 0 325 225" enable-background="new 0 0 325 225" xml:space="preserve">
<g>
	<path fill="#FFFFFF" d="M74.369,164.268c-0.263,0-0.72-0.467-1.373-1.4c-0.551-0.816-0.87-1.354-0.957-1.611
		c-0.355-1.188-0.557-2.096-0.604-2.721c-0.301-0.232-0.688-0.35-1.161-0.35c-0.035,0-0.07,0-0.105,0.002
		c-0.131,0.006-0.195,0.02-0.194,0.045c0.002,0.055-0.063,0.082-0.193,0.086c-0.007,0.002-0.015,0.002-0.023,0.002
		c-0.254,0-0.519-0.148-0.795-0.443c-0.285-0.303-0.43-0.545-0.437-0.729c-0.004-0.131,0.016-0.295,0.061-0.492
		s0.067-0.348,0.063-0.451c0.609,0.051,1.224,0.078,1.845,0.078c0.259,0,0.52-0.004,0.781-0.014
		c0.246-1.184,0.505-2.367,0.777-3.553c0.432-1.816,1.009-3.232,1.731-4.25c0.996-1.393,2.263-2.117,3.802-2.17
		c0.3-0.01,0.553-0.016,0.76-0.016c0.35,0,0.567,0.016,0.651,0.045c0.238,0.096,0.576,0.438,1.014,1.021l-0.111,1.297l-1.476-0.771
		c-1.617,0.057-2.893,1.277-3.828,3.658c-0.192,0.477-0.583,1.992-1.173,4.545c0.658,0.289,1.662,0.434,3.014,0.434
		c0.121,0,0.244,0,0.369-0.004c2.194,0.002,3.382,0.014,3.565,0.033c-0.114,0.473-0.778,0.902-1.991,1.283
		c-0.879,0.266-1.501,0.404-1.866,0.418c-2.056,0.072-3.084,0.107-3.084,0.107c0.001,0,0.012,0,0.033-0.002
		c-0.076,0.057-0.109,0.227-0.099,0.514c0.029,0.836,0.375,1.764,1.037,2.783c0.615,0.949,0.943,1.422,0.985,1.422
		c0.003,0,0.005-0.002,0.004-0.008c0.028,0.783-0.311,1.188-1.015,1.211C74.374,164.268,74.371,164.268,74.369,164.268
		 M85.644,163.953c-0.27-0.012-0.466-0.018-0.587-0.018c-0.032,0-0.058,0-0.08,0c-0.073,0.004-0.146,0.004-0.217,0.004
		c-2.403,0-3.908-1.434-4.515-4.303c-0.06-0.963,0.153-1.963,0.639-2.998c0.273-0.428,0.544-0.867,0.816-1.32
		c0.395-0.641,1.039-1.264,1.932-1.869c1.096-0.744,2.154-1.133,3.171-1.168c0.023-0.002,0.047-0.002,0.071-0.002
		c0.398,0,0.835,0.115,1.311,0.344c0.637,0.293,0.964,0.686,0.982,1.18c0.028,0.811-0.481,1.779-1.524,2.912
		c-1.044,1.135-1.971,1.715-2.779,1.742c0.052,0-0.383-0.143-1.307-0.424c-0.005-0.156-0.014-0.41-0.026-0.764
		c-0.013-0.352-0.021-0.58-0.024-0.684c-1.048,1.395-1.556,2.561-1.523,3.5c0.045,1.301,1.166,1.951,3.363,1.951
		c0.138,0,0.279-0.002,0.425-0.008c0.443-0.016,1.601-0.146,3.472-0.396l1.33-0.045l0.04,1.133c-0.26,0.062-0.918,0.281-1.975,0.658
		c-0.877,0.318-1.373,0.477-1.491,0.482c-0.117,0.004-0.254,0.021-0.409,0.053c-0.156,0.006-0.293,0.01-0.411,0.014
		C86.211,163.932,85.982,163.939,85.644,163.953 M86.992,154.35c-1.727,0.635-2.874,1.432-3.441,2.393l0.665-0.023
		c1.098-0.691,1.66-1.051,1.686-1.078C86.539,155.201,86.902,154.77,86.992,154.35 M95.37,163.525c-0.337,0-0.609-0.014-0.814-0.041
		c-0.082-0.127-0.132-0.439-0.15-0.934c-0.002-0.053,0.193-1.031,0.583-2.938c0.39-1.908,0.566-3.043,0.527-3.408
		c-0.211-0.055-0.496-0.082-0.855-0.082c-0.09,0-0.184,0.002-0.283,0.006c-0.235,0.008-0.626,0.021-1.174,0.041
		c-0.547,0.018-0.938,0.033-1.173,0.041c-0.078,0.002-0.154,0.004-0.227,0.004c-1.206,0-1.822-0.367-1.848-1.098
		c-0.009-0.252,0.193-0.459,0.605-0.623c0.284-0.111,0.53-0.17,0.738-0.178c1.127,0.051,1.93,0.076,2.409,0.076
		c0.354,0,0.53-0.014,0.529-0.041c0-0.016,0.121-0.023,0.364-0.025c0.229-0.031,0.485-0.068,0.767-0.113
		c0.027,0.004,0.052,0.006,0.077,0.006c0.445,0,0.65-0.52,0.613-1.557c-0.015-0.443-0.093-1.158-0.231-2.146
		c-0.134-0.83-0.177-1.311-0.129-1.443c0.02-0.158,0.165-0.502,0.434-1.033c0.421-0.643,0.775-0.967,1.062-0.979
		c0.005,0,0.01,0,0.015,0c0.226,0,0.358,0.191,0.397,0.574c0.122,0.518,0.27,1.387,0.443,2.609c0.037,0.311,0.097,0.91,0.181,1.795
		c0.075,0.707,0.067,1.492-0.025,2.352c0.998,0.027,2.184,0.064,3.557,0.109c0.008,0,0.016,0,0.024,0
		c0.303,0,0.562,0.199,0.78,0.598c0.107,0.074,0.165,0.242,0.174,0.504c-0.014,0.221-0.05,0.33-0.109,0.33
		c-0.011,0-0.023-0.004-0.036-0.012c-0.381,0.301-0.846,0.461-1.393,0.479c-0.03,0.002-0.061,0.002-0.094,0.002
		c-0.362,0-0.875-0.066-1.538-0.199c-0.665-0.131-1.178-0.199-1.54-0.199c-0.032,0-0.063,0-0.093,0.002
		c-0.424,2.809-0.658,4.33-0.702,4.568c-0.402,1.945-0.825,2.926-1.268,2.941C95.749,163.521,95.55,163.525,95.37,163.525
		 M109.387,163.123c-0.27-0.01-0.466-0.018-0.587-0.018c-0.032,0-0.058,0-0.08,0.002c-0.073,0.004-0.146,0.004-0.217,0.004
		c-2.403,0-3.908-1.434-4.515-4.303c-0.06-0.965,0.153-1.965,0.639-3c0.273-0.426,0.544-0.865,0.816-1.32
		c0.395-0.641,1.039-1.264,1.932-1.869c1.096-0.742,2.154-1.131,3.171-1.168c0.023,0,0.046,0,0.07,0
		c0.398,0,0.836,0.113,1.312,0.344c0.637,0.291,0.964,0.684,0.982,1.18c0.028,0.809-0.481,1.779-1.524,2.912
		c-1.044,1.133-1.971,1.713-2.779,1.742c0.052-0.002-0.383-0.143-1.307-0.424c-0.005-0.158-0.014-0.412-0.026-0.764
		c-0.013-0.352-0.021-0.58-0.024-0.684c-1.048,1.395-1.556,2.561-1.523,3.498c0.045,1.301,1.166,1.951,3.363,1.951
		c0.138,0,0.279-0.002,0.425-0.006c0.444-0.018,1.601-0.148,3.472-0.396l1.33-0.047l0.04,1.135c-0.26,0.062-0.918,0.281-1.975,0.656
		c-0.877,0.318-1.373,0.479-1.491,0.482c-0.117,0.004-0.253,0.021-0.409,0.055c-0.156,0.004-0.293,0.01-0.411,0.014
		C109.954,163.104,109.725,163.111,109.387,163.123 M110.735,153.52c-1.727,0.637-2.874,1.434-3.441,2.393l0.665-0.023
		c1.098-0.689,1.66-1.049,1.686-1.078C110.282,154.373,110.645,153.941,110.735,153.52 M128.547,162.533
		c-0.187,0-0.596-0.195-1.226-0.584c-0.64-0.395-1.042-0.682-1.205-0.859c-0.001-0.025,0.05-0.086,0.15-0.182
		c0.102-0.094,0.15-0.207,0.145-0.338c0.209-0.008,0.555-0.02,1.037-0.035c0.483-0.018,0.776-0.027,0.88-0.031
		c0.469-0.016,1.35-0.203,2.643-0.562c1.551-0.445,2.32-0.877,2.305-1.295c-0.012-0.338-0.371-0.9-1.077-1.686
		c-0.707-0.783-1.074-1.594-1.103-2.428c-0.029-0.834,0.603-1.797,1.896-2.887c1.244-1.01,2.283-1.529,3.118-1.559
		c0.01,0,0.02,0,0.029,0c0.325,0,0.584,0.193,0.775,0.58c0.196,0.398,0.263,0.807,0.199,1.227c-0.743,0.418-1.485,0.834-2.228,1.252
		c-1.074,0.639-1.603,1.191-1.586,1.662c0.009,0.262,0.416,0.912,1.223,1.953c0.806,1.043,1.219,1.812,1.236,2.309
		c0.016,0.443-0.595,1.084-1.832,1.924c-1.238,0.84-1.986,1.264-2.247,1.271c-0.131,0.006-0.247,0.035-0.349,0.092
		c-0.103,0.055-0.206,0.086-0.31,0.09l-2.465,0.086C128.553,162.533,128.55,162.533,128.547,162.533 M143.964,161.916
		c-0.27-0.012-0.466-0.016-0.587-0.016c-0.031,0-0.058,0-0.079,0c-0.074,0.002-0.147,0.004-0.218,0.004
		c-2.403,0-3.908-1.436-4.515-4.305c-0.06-0.963,0.153-1.963,0.64-2.998c0.272-0.426,0.543-0.867,0.815-1.32
		c0.395-0.641,1.039-1.264,1.932-1.869c1.097-0.744,2.154-1.133,3.171-1.168c0.023,0,0.047-0.002,0.071-0.002
		c0.398,0,0.835,0.115,1.312,0.346c0.636,0.291,0.963,0.684,0.981,1.18c0.028,0.809-0.48,1.779-1.524,2.912s-1.97,1.713-2.778,1.742
		c0.052-0.002-0.384-0.145-1.308-0.426c-0.005-0.156-0.014-0.41-0.026-0.762c-0.013-0.352-0.021-0.58-0.024-0.686
		c-1.048,1.396-1.556,2.562-1.523,3.5c0.046,1.301,1.166,1.951,3.363,1.951c0.138,0,0.28-0.002,0.426-0.008
		c0.443-0.016,1.6-0.146,3.471-0.395l1.33-0.047l0.008,0.234c0.265-0.008,0.435-0.016,0.509-0.018
		c0.469-0.016,1.35-0.205,2.643-0.562c1.551-0.445,2.319-0.877,2.305-1.295c-0.012-0.338-0.371-0.9-1.077-1.686
		c-0.707-0.785-1.074-1.594-1.103-2.428c-0.029-0.834,0.603-1.797,1.896-2.887c1.244-1.008,2.283-1.529,3.118-1.559
		c0.01,0,0.019,0,0.029,0c0.325,0,0.583,0.193,0.774,0.58c0.197,0.398,0.264,0.807,0.2,1.227c-0.743,0.418-1.485,0.836-2.228,1.254
		c-1.074,0.637-1.603,1.189-1.587,1.66c0.009,0.262,0.417,0.912,1.224,1.955c0.806,1.043,1.219,1.811,1.236,2.307
		c0.015,0.443-0.596,1.084-1.832,1.924c-1.238,0.84-1.987,1.264-2.247,1.273c-0.131,0.004-0.247,0.033-0.349,0.09
		c-0.103,0.055-0.207,0.086-0.311,0.09l-2.464,0.086c-0.003,0-0.006,0-0.009,0c-0.186,0-0.595-0.195-1.225-0.584
		c-0.139-0.086-0.267-0.166-0.383-0.242c-0.292,0.1-0.646,0.223-1.062,0.371c-0.876,0.318-1.373,0.479-1.491,0.482
		c-0.117,0.004-0.253,0.021-0.409,0.053c-0.156,0.006-0.293,0.012-0.411,0.016C144.531,161.896,144.302,161.904,143.964,161.916
		 M145.313,152.312c-1.728,0.637-2.875,1.432-3.442,2.393l0.665-0.023c1.099-0.691,1.661-1.051,1.686-1.078
		C144.859,153.164,145.223,152.734,145.313,152.312 M232.613,160.855c-0.516,0-0.934-0.91-1.254-2.734
		c-0.271-1.768-0.541-3.533-0.812-5.299c-0.461-1.969-1.111-3.041-1.953-3.223c-0.334,0.168-0.867,1.742-1.598,4.717
		c-0.732,2.977-1.15,4.467-1.254,4.471c-0.01,0-0.02,0-0.029,0c-0.234,0-0.566-0.092-0.998-0.279l-0.088-2.502
		c-0.008-0.209,0.199-1.764,0.621-4.664c0.42-2.898,0.656-4.35,0.709-4.352c0.006,0,0.012,0,0.016,0
		c0.123,0,0.209,0.049,0.264,0.146c0.055,0.1,0.131,0.148,0.229,0.148c0.004,0,0.008,0,0.012,0h-0.002
		c-0.072,0,0.289-0.279,1.088-0.84c0.805-0.564,1.609-0.859,2.418-0.889c0.002,0,0.006,0,0.008,0c0.625,0,1.412,2.441,2.361,7.32
		c0.312,1.559,0.566,2.883,0.764,3.967c0.223-0.008,0.365-0.012,0.432-0.014c0.471-0.018,1.35-0.205,2.645-0.562
		c1.551-0.445,2.318-0.877,2.305-1.295c-0.014-0.338-0.371-0.9-1.078-1.686c-0.705-0.785-1.074-1.594-1.104-2.43
		c-0.027-0.834,0.604-1.795,1.898-2.885c1.242-1.01,2.283-1.529,3.117-1.559c0.01,0,0.02,0,0.029,0c0.324,0,0.584,0.193,0.773,0.58
		c0.197,0.396,0.264,0.807,0.201,1.227c-0.744,0.416-1.486,0.834-2.229,1.252c-1.074,0.639-1.604,1.191-1.588,1.66
		c0.01,0.262,0.418,0.914,1.225,1.955c0.807,1.043,1.219,1.812,1.234,2.307c0.018,0.443-0.594,1.086-1.832,1.926
		c-1.236,0.84-1.984,1.264-2.246,1.271c-0.131,0.006-0.246,0.035-0.35,0.092c-0.102,0.055-0.205,0.084-0.309,0.088l-2.465,0.088
		c-0.004,0-0.006,0-0.01,0c-0.072,0-0.18-0.031-0.318-0.09c0.109,0.713,0.172,1.215,0.182,1.504
		c0.004,0.131-0.018,0.223-0.068,0.275l-0.074,0.121c-0.205,0.111-0.49,0.174-0.855,0.186
		C232.623,160.855,232.619,160.855,232.613,160.855 M180.531,160.795c-0.516,0-1.174-0.277-1.979-0.834
		c-0.963-0.672-1.459-1.402-1.484-2.186c-0.002-0.027,0.557-1.395,1.678-4.105c1.119-2.709,1.67-4.299,1.654-4.771
		c-0.039-1.092-0.848-1.639-2.426-1.639c-0.082,0-0.168,0.002-0.256,0.006c-0.131,0.004-0.592,0.066-1.385,0.186
		c-0.791,0.119-1.24,0.18-1.344,0.184c-0.008,0-0.016,0-0.023,0c-0.254,0-0.539-0.152-0.854-0.459
		c-0.324-0.314-0.49-0.551-0.496-0.707c-0.025-0.73,1.057-1.135,3.248-1.211c0.066-0.002,0.133-0.004,0.201-0.004
		c0.982,0,2.021,0.252,3.115,0.75c1.537,0.705,2.328,1.668,2.371,2.893c0.027,0.732-0.354,2.207-1.137,4.428
		c-0.57,1.639-1.152,3.291-1.746,4.957c0.158,0.146,0.289,0.221,0.391,0.221c0.004,0,0.006,0,0.01,0
		c0.625-0.023,1.73-0.336,3.314-0.939s2.389-0.904,2.416-0.906c0.068-0.002,0.133-0.004,0.195-0.004
		c0.373,0,0.662,0.043,0.867,0.125c-0.158,0.719-0.984,1.559-2.479,2.52s-2.762,1.461-3.805,1.498
		C180.562,160.795,180.547,160.795,180.531,160.795 M223.229,160.008c-0.916,0-1.648-0.9-2.197-2.703
		c-0.191-0.959-0.381-1.904-0.57-2.838c-2.627,3.277-4.957,4.951-6.992,5.021c-0.021,0.002-0.045,0.002-0.066,0.002
		c-0.551,0-1.092-0.236-1.621-0.705c-0.553-0.49-0.838-1.023-0.859-1.598c-0.08-2.293,1.154-4.348,3.701-6.158
		c2.371-1.65,4.861-2.494,7.471-2.533l0.324,0.303l0.018,0.508c-0.027,0-0.396,0.236-1.111,0.705
		c0.238,0.121,0.477,0.23,0.717,0.326c0.396,0.195,0.602,0.463,0.615,0.801c0-0.002,0-0.002,0-0.002
		c-0.006,0-0.045,0.551-0.119,1.652c-0.078,1.15-0.109,1.91-0.096,2.273c0.023,0.73,0.195,1.535,0.514,2.41
		c0.348,1.006,0.764,1.67,1.244,1.994c-0.301,0.35-0.607,0.531-0.92,0.541C223.262,160.008,223.246,160.008,223.229,160.008
		 M220.859,150.145l-0.51,0.018c-0.566,0.229-1.145,0.465-1.736,0.707c-0.594,0.244-1.4,0.695-2.42,1.357
		c-0.613,0.412-1.271,1.012-1.975,1.791c-1.08,1.213-1.604,2.303-1.57,3.268c0.008,0.209,0.133,0.414,0.373,0.613
		c0.027-0.002,0.1-0.004,0.217-0.008s0.254-0.008,0.41-0.014c0.781-0.027,1.832-0.598,3.15-1.715
		c1.115-0.98,1.996-1.924,2.645-2.834c0.42-0.668,0.719-1.246,0.898-1.736C220.52,151.104,220.693,150.621,220.859,150.145
		 M191.875,159.85c-0.16,0-0.32-0.02-0.482-0.061c-0.078-0.023-0.299-0.139-0.658-0.35c-0.352-0.203-0.594-0.307-0.727-0.307
		c-0.002,0-0.006,0-0.008,0c-0.012,0-0.023,0.002-0.035,0.002c-0.504,0-0.859-0.406-1.064-1.217
		c-0.15-0.543-0.238-1.217-0.268-2.027c-0.076-2.164,0.166-4.209,0.727-6.135c0.623-2.201,1.479-3.301,2.566-3.301
		c0.006,0,0.014,0,0.02,0c1.229,0.035,2.139,1.439,2.732,4.213c0.461,2.02,0.652,3.723,0.57,5.111
		c-0.064,1.176-0.436,2.143-1.113,2.896s-1.41,1.146-2.191,1.172C191.92,159.85,191.898,159.85,191.875,159.85 M192.498,148.785
		c-0.621,0.178-1.156,0.955-1.604,2.328c-0.426,1.268-0.617,2.516-0.574,3.74c0.031,0.912,0.23,1.539,0.594,1.879
		c0.354,0.328,0.682,0.492,0.986,0.492c0.01,0,0.02,0,0.029,0c0.965-0.033,1.395-1.562,1.289-4.588
		c-0.057-1.617-0.189-2.662-0.402-3.139C192.604,149.023,192.498,148.785,192.498,148.785 M258.016,157.814
		c-0.6,0-0.916-0.471-0.947-1.416c-0.029-0.781,0.219-1.182,0.74-1.199c0.006,0,0.012,0,0.02,0c0.232,0,0.545,0.145,0.936,0.436
		c0.402,0.299,0.607,0.566,0.615,0.801c0-0.006-0.002-0.008-0.002-0.008c-0.023,0-0.162,0.451-0.42,1.355l-0.9,0.031
		C258.043,157.814,258.029,157.814,258.016,157.814 M258.809,152.266c-0.709,0-1.094-0.836-1.15-2.506
		c-0.031-0.885,0.221-3.779,0.754-8.68c0.613-5.583,1.182-8.384,1.703-8.403c0.006,0,0.012,0,0.018,0
		c0.283,0,0.578,0.231,0.889,0.693c0.316,0.473,0.479,0.826,0.486,1.061c0.029,0.835-0.27,3.86-0.896,9.077
		c-0.686,5.82-1.275,8.74-1.77,8.756C258.83,152.266,258.82,152.266,258.809,152.266"/>
</g>
<g>
	<g>
		<path fill="#FFFFFF" d="M64.319,45.632c-0.234,0-0.577-0.217-1.028-0.649c-0.46-0.441-0.746-0.777-0.857-1.008l1.931-19.845
			c-0.008-0.235,0.12-0.526,0.383-0.875c0.264-0.348,0.541-0.528,0.83-0.538c0.008,0,0.017-0.001,0.026-0.001
			c0.357,0,0.692,0.257,1.006,0.769c0.319,0.525,0.459,0.918,0.416,1.181L65.78,39.354l0.173-0.006l0.019,0.548l-0.232,0.008
			l-0.002-0.042l-0.04,0.472c-0.01,0-0.021-0.001-0.03-0.001c-0.204,0-0.3,0.174-0.288,0.522l0.071,2.036
			c0.158,0.147,0.289,0.221,0.392,0.221c0.003,0,0.006,0,0.008,0c0.052-0.002,0.7-0.123,1.945-0.362
			c1.245-0.239,1.946-0.362,2.103-0.367l1.095-0.038c0.104-0.004,0.43-0.041,0.975-0.113c0.547-0.071,0.885-0.109,1.016-0.114
			c0.072-0.002,0.145-0.003,0.215-0.003c1.501,0,2.271,0.585,2.312,1.756c0.019,0.495-0.626,0.766-1.93,0.811
			c-1.46,0.051-3.093,0.212-4.897,0.485c-1.806,0.271-3.256,0.427-4.351,0.465C64.328,45.632,64.323,45.632,64.319,45.632
			 M83.168,44.465c-0.27-0.011-0.466-0.017-0.587-0.017c-0.032,0-0.058,0-0.08,0.001c-0.073,0.003-0.146,0.004-0.218,0.004
			c-2.402,0-3.907-1.435-4.514-4.303c-0.061-0.964,0.152-1.964,0.639-2.999c0.273-0.427,0.544-0.867,0.816-1.321
			c0.395-0.64,1.038-1.263,1.932-1.869c1.096-0.743,2.154-1.133,3.171-1.168c0.023-0.001,0.047-0.001,0.071-0.001
			c0.397,0,0.835,0.115,1.311,0.344c0.637,0.291,0.964,0.685,0.981,1.18c0.028,0.809-0.48,1.779-1.523,2.912
			c-1.044,1.133-1.971,1.714-2.778,1.742c0.052-0.002-0.384-0.143-1.308-0.424c-0.005-0.157-0.014-0.411-0.026-0.763
			c-0.013-0.352-0.021-0.58-0.023-0.684c-1.048,1.394-1.556,2.56-1.523,3.499c0.045,1.301,1.166,1.951,3.362,1.951
			c0.138,0,0.28-0.002,0.426-0.008c0.443-0.015,1.602-0.147,3.473-0.395l1.33-0.046l0.039,1.134c-0.26,0.062-0.918,0.28-1.975,0.656
			c-0.877,0.319-1.373,0.479-1.491,0.483c-0.117,0.004-0.254,0.022-0.408,0.054c-0.157,0.005-0.294,0.01-0.411,0.014
			S83.506,44.453,83.168,44.465 M84.517,34.862c-1.728,0.635-2.874,1.432-3.441,2.392l0.665-0.024
			c1.098-0.69,1.66-1.049,1.686-1.077C84.063,35.714,84.426,35.283,84.517,34.862"/>
	</g>
</g>
<g>
	<path fill="#7C7C7B" d="M110.203,189.138c-0.279,0-0.558-0.338-0.835-1.016c-0.252-0.558-0.382-0.991-0.394-1.302
		c-0.006-0.18,0.388-2.526,1.185-7.04c0.796-4.514,1.202-6.926,1.216-7.234c0.328-0.218,0.608-0.332,0.839-0.34
		c0.019,0,0.037,0,0.055,0c0.71,0,1.084,0.501,1.119,1.508c0.022,0.643-0.388,3.286-1.232,7.931
		c-0.883,4.981-1.531,7.479-1.942,7.493C110.212,189.138,110.208,189.138,110.203,189.138 M121.073,188.68
		c-0.648,0-0.99-0.464-1.021-1.394c-0.021-0.593,0.201-1.618,0.665-3.079c0.464-1.46,0.903-2.569,1.314-3.333
		c-0.154,0.007-0.417,0.072-0.785,0.201c-0.37,0.13-0.607,0.196-0.71,0.199c-0.003,0-0.007,0-0.011,0
		c-0.107,0-0.317-0.043-0.631-0.132c-0.311-0.087-0.531-0.132-0.663-0.132c-0.006,0-0.012,0-0.019,0
		c-0.02,0.002-0.039,0.002-0.058,0.002c-0.396,0-0.826-0.141-1.29-0.419c-0.487-0.292-0.738-0.644-0.752-1.056
		c-0.041-1.159,1.217-2.44,3.771-3.844c2.251-1.239,3.879-1.875,4.883-1.912c0.001,0,0.001,0,0.002,0
		c0.079,0,0.322,0.147,0.729,0.439c0.41,0.295,0.617,0.508,0.622,0.635c0.004,0.13-0.024,0.261-0.083,0.391
		c-0.06,0.13-0.088,0.234-0.085,0.312c-1.184,0.067-2.612,0.505-4.286,1.312c-1.672,0.805-2.766,1.629-3.278,2.472
		c0.049,0.069,0.171,0.103,0.364,0.103c0.021,0,0.043,0,0.065,0c0.901-0.031,1.981-0.47,3.242-1.312
		c1.259-0.843,1.915-1.266,1.966-1.269c0.01,0,0.021,0,0.03,0c0.323,0,0.616,0.183,0.878,0.548c0.191,0.326,0.292,0.606,0.299,0.838
		c0-0.002,0-0.002,0-0.002c-0.025,0-0.765,1.511-2.219,4.53c-1.479,3.072-2.179,4.965-2.103,5.681
		c-0.121,0.134-0.384,0.206-0.788,0.222C121.105,188.68,121.089,188.68,121.073,188.68 M134.243,188.22
		c-0.648,0-0.989-0.464-1.021-1.394c-0.021-0.593,0.201-1.618,0.666-3.079c0.465-1.46,0.903-2.569,1.315-3.333
		c-0.155,0.005-0.417,0.072-0.786,0.201c-0.371,0.13-0.606,0.196-0.709,0.199c-0.004,0-0.008,0-0.013,0
		c-0.107,0-0.317-0.044-0.629-0.132c-0.311-0.087-0.532-0.132-0.663-0.132c-0.007,0-0.013,0-0.019,0
		c-0.02,0.002-0.039,0.002-0.058,0.002c-0.396,0-0.827-0.141-1.291-0.419c-0.488-0.292-0.738-0.644-0.752-1.056
		c-0.041-1.159,1.216-2.44,3.771-3.844c2.251-1.239,3.879-1.876,4.884-1.912c0,0,0,0,0.001,0c0.08,0,0.322,0.147,0.729,0.438
		c0.41,0.296,0.617,0.509,0.621,0.637c0.006,0.129-0.023,0.259-0.082,0.39c-0.061,0.132-0.089,0.235-0.086,0.312
		c-1.183,0.067-2.612,0.505-4.285,1.31c-1.673,0.807-2.766,1.633-3.278,2.476c0.049,0.067,0.169,0.102,0.364,0.102
		c0.021,0,0.042-0.001,0.064-0.001c0.901-0.031,1.981-0.471,3.241-1.313c1.26-0.842,1.915-1.266,1.967-1.268c0.01,0,0.02,0,0.03,0
		c0.322,0,0.616,0.183,0.879,0.547c0.191,0.327,0.291,0.607,0.3,0.838c0-0.001,0-0.001-0.001-0.001c-0.025,0-0.765,1.511-2.22,4.53
		c-1.478,3.072-2.179,4.965-2.103,5.681c-0.122,0.134-0.384,0.208-0.787,0.222C134.276,188.22,134.26,188.22,134.243,188.22
		 M147.671,187.79c-0.716,0-1.11-1.03-1.182-3.09c-0.058-1.647,0.037-3.379,0.283-5.191l-0.24-0.225
		c-0.174,0.187-0.313,0.282-0.415,0.285c-0.062,0.002-0.124,0.004-0.184,0.004c-2.121,0-3.228-1.341-3.322-4.02
		c-0.027-0.773,0.06-1.626,0.259-2.561c0.29-1.273,0.706-1.92,1.247-1.939c0.002,0,0.004,0,0.006,0c0.155,0,0.425,0.204,0.808,0.609
		c0.388,0.413,0.585,0.694,0.59,0.85c0.004,0.129-0.099,0.687-0.309,1.674c-0.211,0.988-0.314,1.532-0.31,1.636
		c0.021,0.617,0.181,1.166,0.482,1.646c0.07,0.086,0.274,0.13,0.613,0.13c0.053,0,0.107-0.002,0.166-0.003
		c0.574-0.536,1.048-1.726,1.422-3.569c0.306-1.583,0.677-2.383,1.116-2.397c0.009,0,0.019,0,0.028,0
		c0.299,0,0.598,0.161,0.897,0.49c0.308,0.336,0.467,0.635,0.476,0.892c0.015,0.438-0.289,2.253-0.912,5.445
		c-0.623,3.193-0.906,5.601-0.85,7.224c0.029,0.823,0.13,1.504,0.303,2.038c0.13,0.021-0.186,0.045-0.946,0.072
		C147.688,187.79,147.68,187.79,147.671,187.79 M175.408,187.016c-0.509,0-1.16-0.275-1.953-0.823
		c-0.951-0.664-1.441-1.385-1.468-2.16c0-0.026,0.551-1.377,1.657-4.052c1.105-2.677,1.649-4.247,1.633-4.712
		c-0.036-1.078-0.836-1.618-2.393-1.618c-0.083,0-0.168,0-0.254,0.004c-0.129,0.005-0.584,0.065-1.365,0.183
		c-0.784,0.119-1.228,0.18-1.33,0.184c-0.006,0-0.013,0-0.021,0c-0.252,0-0.532-0.152-0.844-0.454
		c-0.32-0.312-0.483-0.544-0.488-0.699c-0.026-0.721,1.044-1.118,3.206-1.193c0.065-0.002,0.132-0.004,0.197-0.004
		c0.972,0,1.998,0.248,3.078,0.74c1.519,0.694,2.299,1.646,2.342,2.856c0.024,0.723-0.35,2.179-1.123,4.37
		c-0.562,1.618-1.139,3.251-1.724,4.896c0.155,0.145,0.283,0.217,0.386,0.217c0.003,0,0.005,0,0.008,0
		c0.619-0.021,1.709-0.329,3.274-0.927c1.564-0.595,2.359-0.894,2.386-0.894c0.066-0.003,0.131-0.005,0.191-0.005
		c0.369,0,0.654,0.043,0.856,0.124c-0.155,0.709-0.972,1.538-2.446,2.486c-1.476,0.952-2.728,1.443-3.758,1.479
		C175.44,187.014,175.424,187.016,175.408,187.016 M196.682,186.116c-0.278,0-0.558-0.336-0.834-1.012
		c-0.253-0.56-0.385-0.993-0.395-1.302c-0.007-0.18,0.389-2.528,1.184-7.042c0.797-4.514,1.203-6.925,1.218-7.234
		c0.328-0.218,0.606-0.332,0.839-0.34c0.019,0,0.036-0.002,0.055-0.002c0.713,0,1.085,0.503,1.12,1.508
		c0.022,0.645-0.388,3.288-1.232,7.933c-0.882,4.979-1.53,7.479-1.942,7.491C196.689,186.116,196.687,186.116,196.682,186.116
		 M188.155,186.027c-0.158,0-0.318-0.02-0.477-0.06c-0.079-0.021-0.295-0.138-0.649-0.345c-0.348-0.201-0.587-0.303-0.718-0.303
		c-0.003,0-0.006,0-0.008,0c-0.012,0-0.023,0-0.035,0c-0.498,0-0.848-0.399-1.052-1.199c-0.148-0.537-0.235-1.204-0.264-2.002
		c-0.074-2.138,0.165-4.156,0.717-6.058c0.615-2.175,1.46-3.26,2.535-3.26c0.007,0,0.014,0,0.02,0
		c1.213,0.034,2.111,1.421,2.698,4.159c0.455,1.995,0.644,3.677,0.562,5.046c-0.062,1.163-0.429,2.116-1.099,2.861
		c-0.671,0.745-1.392,1.131-2.165,1.158C188.2,186.027,188.177,186.027,188.155,186.027 M188.77,175.102
		c-0.614,0.177-1.142,0.943-1.584,2.299c-0.42,1.252-0.609,2.482-0.565,3.693c0.03,0.901,0.227,1.521,0.586,1.854
		c0.348,0.327,0.673,0.488,0.975,0.488c0.01,0,0.018,0,0.029-0.001c0.952-0.033,1.376-1.542,1.271-4.53
		c-0.056-1.597-0.188-2.629-0.397-3.099C188.875,175.338,188.77,175.102,188.77,175.102 M207.809,185.689
		c-0.718,0-1.111-1.029-1.183-3.091c-0.058-1.647,0.036-3.377,0.282-5.191l-0.239-0.223c-0.175,0.187-0.313,0.282-0.416,0.285
		c-0.062,0.002-0.123,0.004-0.185,0.004c-2.119,0-3.226-1.341-3.319-4.021c-0.028-0.772,0.06-1.626,0.257-2.56
		c0.292-1.273,0.708-1.922,1.249-1.939c0.001,0,0.003,0,0.005,0c0.154,0,0.425,0.203,0.808,0.61c0.39,0.412,0.586,0.694,0.591,0.849
		c0.005,0.129-0.098,0.687-0.309,1.674c-0.211,0.986-0.313,1.532-0.311,1.635c0.021,0.618,0.182,1.168,0.483,1.646
		c0.069,0.088,0.274,0.132,0.612,0.132c0.053,0,0.107-0.001,0.165-0.003c0.573-0.536,1.049-1.727,1.423-3.57
		c0.305-1.582,0.676-2.382,1.115-2.397c0.01,0,0.02,0,0.027,0c0.301,0,0.599,0.163,0.897,0.489c0.309,0.338,0.469,0.637,0.477,0.893
		c0.015,0.438-0.288,2.252-0.912,5.447c-0.623,3.192-0.907,5.6-0.85,7.221c0.028,0.825,0.131,1.505,0.303,2.04
		c0.13,0.021-0.186,0.045-0.945,0.071C207.825,185.689,207.816,185.689,207.809,185.689"/>
	<path fill="#7C7C7B" d="M164.406,182.101c-1.214-0.137-1.993-0.202-2.334-0.202c-0.076,0-0.816-0.035-2.221-0.103
		c-1.404-0.069-2.154-0.103-2.25-0.103c-0.095,0-0.313-0.034-0.655-0.102c-0.379,0-0.606,0-0.684,0c-0.645,0-1.043-0.34-1.195-1.018
		c-0.229-1.02,0.151-1.529,1.138-1.529l1.595,0.103c0.077-0.069,0.437-0.103,1.082-0.103c0.646,0.067,1.006,0.103,1.082,0.103
		l4.271-0.103c0.228,0,0.399,0,0.513,0c-0.305,0-0.493,0.057-0.57,0.17c-0.113,0,0.114,0.114,0.685,0.34c0.266,0,0.513,0,0.74,0
		c0.417,0.067,0.589,0.44,0.513,1.121C166.041,181.626,165.47,182.101,164.406,182.101"/>
</g>
<g>
	<path fill="#FFFFFF" d="M89.082,149.161c-0.041,0-0.082-0.002-0.123-0.008c-1.335-0.163-2.192-1.182-2.881-2
		c-0.29-0.345-0.832-1.029-1.025-0.96c-0.201,0.027-0.441,0.609-0.601,0.994c-0.284,0.688-0.606,1.468-1.427,1.706
		c-0.53,0.15-1.086-0.152-1.239-0.683c-0.14-0.481,0.1-0.983,0.542-1.187c0.08-0.125,0.196-0.406,0.276-0.601
		c0.333-0.808,0.838-2.029,2.178-2.213c1.288-0.164,2.14,0.84,2.826,1.654c0.511,0.607,1.04,1.235,1.594,1.304
		c0.548,0.066,0.938,0.565,0.871,1.114C90.011,148.79,89.579,149.161,89.082,149.161z"/>
</g>
</svg>
