<?xml version="1.0" encoding="utf-8"?>
<!-- Generator: Adobe Illustrator 16.0.4, SVG Export Plug-In . SVG Version: 6.00 Build 0)  -->
<!DOCTYPE svg PUBLIC "-//W3C//DTD SVG 1.0//EN" "http://www.w3.org/TR/2001/REC-SVG-20010904/DTD/svg10.dtd">
<svg version="1.0" id="Calque_2" xmlns="http://www.w3.org/2000/svg" xmlns:xlink="http://www.w3.org/1999/xlink" x="0px" y="0px"
	 width="325px" height="225px" viewBox="0 0 325 225" enable-background="new 0 0 325 225" xml:space="preserve">
<g>
	<g>
		<path fill="#B2B2B3" d="M111.188,174.013c-0.183,0-0.366-0.054-0.524-0.161c-0.318-0.215-0.473-0.603-0.39-0.978l17.484-78.966
			c0.112-0.505,0.616-0.823,1.116-0.712c0.505,0.112,0.824,0.612,0.712,1.116l-16.971,76.652l13.272-9.096
			c0.309-0.212,0.714-0.218,1.03-0.019l13.818,8.743c0.437,0.276,0.567,0.854,0.291,1.292c-0.276,0.436-0.854,0.568-1.292,0.29
			l-13.297-8.413l-14.719,10.087C111.558,173.958,111.373,174.013,111.188,174.013z"/>
	</g>
	<g>
		<path fill="#B2B2B3" d="M145.072,82.255c-0.494,0-0.916-0.376-0.962-0.878c-0.095-1.036-2.241-25.458,6.118-34.156
			c2.106-2.193,4.708-3.224,7.729-3.068c7.101,0.371,13.542,5.951,19.147,16.585c4.098,7.776,6.152,15.316,6.237,15.633
			c0.139,0.516-0.166,1.046-0.682,1.185c-0.516,0.136-1.047-0.166-1.186-0.682c-0.081-0.3-8.263-29.988-23.618-30.79
			c-2.48-0.132-4.51,0.681-6.234,2.476c-7.749,8.062-5.609,32.395-5.587,32.64c0.049,0.532-0.343,1.003-0.874,1.052
			C145.132,82.253,145.102,82.255,145.072,82.255z"/>
	</g>
	<g>
		<g>
			<path fill="#AFC631" d="M143.562,101.319l-0.099-0.782c-0.241-1.933-0.963-3.454-2.063-3.27
				c-1.224,0.205-1.594,1.727-1.412,3.203c0.811,6.5,9.717,1.723,11.229,13.688c0.881,6.966-1.457,10.585-6.488,11.516
				c-4.724,0.874-7.664-1.088-8.511-7.936l-0.142-1.157l5.515-0.985l0.097,0.783c0.351,2.812,1.244,3.689,2.349,3.487
				c1.165-0.209,1.667-1.714,1.44-3.507c-0.812-6.487-9.354-1.68-10.801-13.383c-0.822-6.664,1.081-10.706,5.879-11.494
				c4.951-0.812,7.446,1.915,8.332,8.932L143.562,101.319z"/>
		</g>
		<g>
			<path fill="#AFC631" d="M150.289,90.54l5.686-0.936l1.526,11.954l3.487-0.597l-1.531-11.927l5.684-0.934l4.196,32.376
				l-5.705,1.053l-1.72-13.381l-3.491,0.614l1.716,13.409l-5.707,1.054L150.289,90.54z"/>
		</g>
		<g>
			<path fill="#AFC631" d="M174.896,85.855c5.808-0.95,8.412,3.389,10.004,15.361c1.596,11.97,0.222,16.999-5.605,18.074
				c-5.828,1.074-8.438-3.265-10.006-15.355C167.718,91.841,169.092,86.805,174.896,85.855z M178.549,113.614
				c1.749-0.317,1.622-2.69,0.479-11.374c-1.146-8.688-1.639-10.997-3.381-10.706s-1.619,2.667-0.478,11.377
				C176.309,111.616,176.801,113.93,178.549,113.614z"/>
		</g>
		<g>
			<path fill="#AFC631" d="M184.604,84.91l8.526-1.395c4.341-0.71,6.87,3.185,7.627,8.728c0.882,6.478-1.198,10.294-5.823,11.107
				l-1.99,0.352l1.634,12.132l-5.704,1.048L184.604,84.91z M192.139,97.721l1.071-0.183c1.438-0.248,2.041-1.581,1.681-4.254
				c-0.354-2.626-1.287-3.746-2.726-3.506l-1.071,0.179L192.139,97.721z"/>
		</g>
		<g>
			<path d="M139.309,133.886l8.812-1.665c5.104-0.969,7.56,4.275,8.265,9.854c0.979,7.71-1.769,11.847-6.535,12.812l-2.699,0.549
				l1.867,14.944l-5.056,1.071L139.309,133.886z M146.457,149.877l2.242-0.447c1.996-0.397,3.139-2.449,2.656-6.266
				c-0.457-3.659-1.701-5.562-4.219-5.076l-2.101,0.404L146.457,149.877z"/>
		</g>
		<g>
			<path d="M162.427,167.539l-4.728-37.135l5.033-0.949l4.749,37.013L162.427,167.539z"/>
		</g>
		<g>
			<path d="M172.273,127.652l9.381,23.951l0.07-0.017l-3.295-25.101l4.61-0.869l4.834,36.535l-5.755,1.219l-9.53-24.475
				l-0.069,0.016l3.353,25.779l-4.634,0.978l-4.766-36.924L172.273,127.652z"/>
		</g>
		<g>
			<path d="M199.072,133.621c-0.362-2.688-1.663-5.926-3.689-5.537c-2.449,0.469-2.938,4.323-1.725,13.385
				c1.174,8.756,2.472,14.131,5.384,13.524c1.192-0.247,2.867-2.522,2.341-6.425l-0.502-3.699l-3.328,0.671l-0.726-5.381
				l8.161-1.621l2.648,19.446l-3.721,0.787l-0.453-3.347l-0.068,0.017c-0.811,3.088-2.363,4.666-4.717,5.164
				c-6.213,1.314-8.339-5.164-10.016-17.774c-1.63-12.257-0.508-18.907,5.924-20.116c5.521-1.038,8.314,2.639,9.314,9.965
				L199.072,133.621z"/>
		</g>
	</g>
</g>
</svg>
