<?xml version="1.0" encoding="utf-8"?>
<!-- Generator: Adobe Illustrator 16.0.4, SVG Export Plug-In . SVG Version: 6.00 Build 0)  -->
<!DOCTYPE svg PUBLIC "-//W3C//DTD SVG 1.1//EN" "http://www.w3.org/Graphics/SVG/1.1/DTD/svg11.dtd">
<svg version="1.1" id="Calque_1" xmlns="http://www.w3.org/2000/svg" xmlns:xlink="http://www.w3.org/1999/xlink" x="0px" y="0px"
	 width="325px" height="225px" viewBox="0 0 325 225" enable-background="new 0 0 325 225" xml:space="preserve">
<g>
	<path fill="#7B7B7B" d="M121.061,187.463c-0.685,0-1.524-0.307-2.514-0.92c-1.144-0.71-1.831-1.352-2.064-1.925l-0.054-0.369
		c0.096-0.055,0.216-0.157,0.362-0.305c0.542,0.399,1.085,0.803,1.626,1.202c0.804,0.545,1.411,0.818,1.824,0.818
		c0.042,0,0.083-0.003,0.12-0.009l1.384-0.205c1.619-0.242,2.741-1.08,3.365-2.516c0.416-1.006,0.62-2.451,0.611-4.336
		c-0.003-2.115,0.028-3.306,0.095-3.566l-0.211-0.155c-0.105,0.141-0.495,0.443-1.169,0.913c-0.674,0.466-1.103,0.713-1.287,0.741
		l-0.523,0.079c-0.046,0.005-0.09,0.008-0.135,0.008c-0.316,0-0.612-0.171-0.885-0.517c-0.234-0.299-0.37-0.584-0.409-0.85
		c-0.133-0.881,0.432-1.87,1.695-2.958c1.152-0.989,2.117-1.542,2.896-1.658c0.017-0.004,0.034-0.005,0.054-0.005
		c0.127,0,0.261,0.069,0.401,0.204c0.159,0.154,0.25,0.303,0.272,0.445c0.014,0.104-0.532,0.656-1.639,1.661
		c-1.167,1.032-1.791,1.619-1.875,1.758c0.249-0.017,0.745-0.342,1.488-0.976c0.743-0.637,1.167-0.963,1.27-0.978
		c0.084-0.013,0.164-0.018,0.24-0.018c0.655,0,1.052,0.457,1.188,1.374c0.435,2.912,0.345,5.536-0.269,7.871
		c-0.767,3.007-2.309,4.684-4.625,5.029l-0.923,0.139C121.27,187.456,121.168,187.463,121.061,187.463 M88.549,183.85
		c-0.677,0-1.349-0.075-2.017-0.226c-1.709-0.353-2.655-1.143-2.839-2.372c-0.077-0.514,0.526-1.734,1.811-3.666
		c1.372-2.029,2.47-3.104,3.289-3.227c0.087-0.016,0.17-0.02,0.253-0.02c0.393,0,0.754,0.144,1.083,0.433
		c0.397,0.349,0.636,0.79,0.716,1.323c0.059,0.39,0.029,0.761-0.086,1.113c-0.125,0.417-0.322,0.645-0.589,0.686
		c-0.061,0.009-0.12,0.013-0.177,0.013c-0.321,0-0.567-0.146-0.736-0.442c-0.135-0.21-0.227-0.532-0.269-0.966
		c-0.032-0.349-0.058-0.522-0.079-0.522l0,0c-0.615,0.09-1.356,0.951-2.224,2.579c-0.867,1.629-1.229,2.651-1.082,3.07
		c0.345,0.199,0.847,0.376,1.51,0.529c0.479,0.109,0.886,0.166,1.224,0.166c0.128,0,0.246-0.009,0.355-0.025
		c0.204-0.031,0.983-0.146,2.336-0.349c0.777-0.137,2.029-0.305,3.76-0.502c-0.215,0.516-0.897,1.013-2.041,1.486
		c-0.967,0.404-1.901,0.677-2.802,0.812C89.479,183.812,89.012,183.85,88.549,183.85 M97.603,182.352
		c-1.387,0-2.178-0.648-2.371-1.943c-0.105-0.698,0.238-1.839,1.028-3.425c0.61-1.242,1.289-2.383,2.036-3.415
		c0.016-0.004,0.03-0.004,0.045-0.004c1.048,0,1.966,0.43,2.754,1.28c0.748,0.791,1.2,1.72,1.36,2.786
		c0.082,0.551,0.055,1.07-0.083,1.552c-0.187,0.719-0.823,1.434-1.911,2.141c-0.879,0.57-1.555,0.893-2.026,0.963
		C98.137,182.329,97.86,182.352,97.603,182.352 M99.275,175.183c-0.016,0-0.03,0.003-0.047,0.006
		c-0.491,0.074-1.057,0.881-1.697,2.422c-0.64,1.542-0.873,2.542-0.699,2.998c0.309,0.092,0.591,0.14,0.844,0.14
		c0.051,0,0.102-0.003,0.15-0.007c1.363-0.14,2.287-0.55,2.772-1.23c0.415-0.586,0.571-1.437,0.467-2.554
		c-0.077-0.241-0.347-0.604-0.808-1.09C99.827,175.414,99.5,175.183,99.275,175.183 M104.592,181.44
		c-0.521,0-0.819-0.253-0.894-0.758c-0.014-0.081,0.014-1.133,0.083-3.156c0.074-2.107,0.106-3.376,0.096-3.804
		c-0.014-0.428-0.091-1.741-0.235-3.941c-0.053-0.767-0.095-1.19-0.127-1.27c-0.013-0.083-0.03-0.194-0.051-0.338
		c0.072-0.661,0.263-1.016,0.576-1.062c0.033-0.005,0.064-0.007,0.098-0.007c0.261,0,0.529,0.157,0.804,0.469
		c0.236,0.302,0.375,0.582,0.415,0.851c0.203,1.353,0.308,3.79,0.32,7.31c-0.012,3.375-0.094,5.243-0.246,5.601l-0.47,0.071
		C104.825,181.43,104.703,181.44,104.592,181.44 M109.05,180.775c-0.521,0-0.819-0.255-0.893-0.76
		c-0.013-0.081,0.015-1.134,0.083-3.156c0.076-2.106,0.107-3.373,0.096-3.802c-0.013-0.428-0.092-1.741-0.235-3.943
		c-0.054-0.766-0.096-1.189-0.128-1.27c-0.011-0.081-0.029-0.194-0.05-0.338c0.072-0.659,0.263-1.014,0.578-1.062
		c0.031-0.005,0.063-0.007,0.096-0.007c0.261,0,0.528,0.157,0.804,0.471c0.236,0.301,0.374,0.584,0.416,0.848
		c0.2,1.354,0.308,3.791,0.319,7.311c-0.011,3.377-0.094,5.244-0.245,5.601l-0.471,0.07
		C109.286,180.763,109.163,180.775,109.05,180.775 M115.673,179.695c-1.633-0.002-2.786-1.009-3.458-3.021
		c-0.136-0.756-0.055-1.564,0.235-2.426c0.175-0.36,0.35-0.733,0.524-1.114c0.255-0.543,0.706-1.092,1.358-1.65
		c0.797-0.686,1.598-1.087,2.397-1.207c0.082-0.013,0.167-0.019,0.255-0.019c0.261,0,0.551,0.057,0.868,0.166
		c0.528,0.172,0.821,0.454,0.881,0.842c0.094,0.636-0.218,1.449-0.942,2.437c-0.722,0.988-1.4,1.531-2.034,1.625
		c0.039-0.006-0.317-0.079-1.071-0.218c-0.019-0.121-0.047-0.322-0.09-0.6c-0.041-0.275-0.067-0.457-0.08-0.538
		c-0.702,1.196-0.998,2.161-0.888,2.9c0.128,0.856,0.812,1.283,2.049,1.283c0.333,0,0.704-0.03,1.116-0.092
		c0.35-0.052,1.251-0.259,2.706-0.623l1.045-0.156l0.133,0.892c-0.2,0.07-0.699,0.304-1.5,0.694
		c-0.662,0.33-1.041,0.501-1.133,0.516l-0.319,0.08l-0.323,0.048c-0.093,0.014-0.271,0.041-0.538,0.08
		c-0.269,0.02-0.445,0.034-0.527,0.048C116.106,179.677,115.886,179.695,115.673,179.695 M117.064,171.894
		c-1.304,0.657-2.138,1.389-2.5,2.198l0.522-0.079c0.806-0.645,1.217-0.979,1.233-1.002
		C116.785,172.605,117.032,172.234,117.064,171.894 M131.448,177.336c-1.634,0-2.786-1.006-3.458-3.02
		c-0.134-0.754-0.057-1.564,0.234-2.425c0.178-0.361,0.352-0.732,0.527-1.116c0.253-0.541,0.706-1.09,1.357-1.648
		c0.797-0.686,1.597-1.088,2.397-1.206c0.081-0.014,0.166-0.02,0.253-0.02c0.263,0,0.553,0.055,0.868,0.165
		c0.529,0.173,0.824,0.454,0.881,0.843c0.096,0.636-0.219,1.447-0.941,2.436c-0.722,0.987-1.4,1.529-2.036,1.625
		c0.041-0.007-0.316-0.077-1.069-0.218c-0.02-0.122-0.049-0.321-0.09-0.599c-0.042-0.276-0.069-0.456-0.08-0.539
		c-0.702,1.195-0.999,2.162-0.887,2.898c0.128,0.858,0.81,1.286,2.049,1.286c0.333,0,0.704-0.03,1.116-0.093
		c0.347-0.051,1.251-0.259,2.706-0.623l1.043-0.156l0.134,0.892c-0.198,0.071-0.698,0.304-1.5,0.695
		c-0.664,0.329-1.041,0.501-1.132,0.515l-0.32,0.079l-0.322,0.051c-0.092,0.013-0.272,0.039-0.538,0.079
		c-0.271,0.019-0.447,0.037-0.528,0.048C131.882,177.318,131.662,177.336,131.448,177.336 M132.84,169.537
		c-1.306,0.654-2.14,1.386-2.499,2.196l0.521-0.078c0.805-0.646,1.217-0.98,1.234-1.003
		C132.561,170.248,132.808,169.876,132.84,169.537"/>
	<path fill="#7B7B7B" d="M120.276,168.178c-1.324-0.338-2.644-0.663-3.958-0.977c-1.97-0.6-3.128-1.304-3.471-2.113
		c-0.09-0.214-0.098-0.563-0.021-1.045c0.109-0.607,0.328-0.983,0.662-1.125l0,0c0.039,0,1.21,0.721,3.51,2.158
		c2.317,1.449,3.49,2.211,3.521,2.282c0.061,0.144,0.054,0.307-0.022,0.495C120.421,168.039,120.348,168.149,120.276,168.178"/>
</g>
</svg>
