<?xml version="1.0" encoding="utf-8"?>
<!-- Generator: Adobe Illustrator 16.0.4, SVG Export Plug-In . SVG Version: 6.00 Build 0)  -->
<!DOCTYPE svg PUBLIC "-//W3C//DTD SVG 1.0//EN" "http://www.w3.org/TR/2001/REC-SVG-20010904/DTD/svg10.dtd">
<svg version="1.0" id="Calque_1" xmlns="http://www.w3.org/2000/svg" xmlns:xlink="http://www.w3.org/1999/xlink" x="0px" y="0px"
	 width="325px" height="225px" viewBox="0 0 325 225" enable-background="new 0 0 325 225" xml:space="preserve">
<g>
	<g opacity="0.5">
		<defs>
			<filter id="Adobe_OpacityMaskFilter" filterUnits="userSpaceOnUse" x="141.667" y="110.549" width="35" height="31.784">
				<feFlood  style="flood-color:white;flood-opacity:1" result="back"/>
				<feBlend  in="SourceGraphic" in2="back" mode="normal"/>
			</filter>
		</defs>
		<mask maskUnits="userSpaceOnUse" x="141.667" y="110.549" width="35" height="31.784" id="SVGID_1_">
			<g filter="url(#Adobe_OpacityMaskFilter)">
				<image overflow="visible" width="40" height="37" xlink:href="22E4795A28BDFBD.jpg"  transform="matrix(1 0 0 1 139 108)">
				</image>
			</g>
		</mask>
		<g mask="url(#SVGID_1_)">
			<ellipse fill="#AFAFAF" cx="159.168" cy="126.441" rx="17.5" ry="15.892"/>
		</g>
	</g>
	<path fill="#030000" d="M176.406,115.509c0.306-0.638,0.623-0.526,1.066-0.091c1.504,1.479,2.686,3.164,3.484,5.116
		c0.064,0.159,0.139,0.319,0.211,0.478c0.008,0.016,0.04,0.021,0.098,0.049c0.952-1.192,2.178-2.094,3.412-2.979
		c0.271-0.193,0.629-0.766,1.032-0.171c0.401,0.59,0.192,1.127-0.419,1.438c-1.225,0.623-2.486,1.2-3.191,2.504
		c-0.158,0.299-0.203,0.508-0.049,0.822c0.838,1.723,0.831,3.434-0.181,5.092c-0.169,0.275-0.046,0.461,0.071,0.688
		c0.533,1.038,1.322,1.809,2.377,2.311c0.363,0.172,0.707,0.408,1.089,0.512c0.575,0.158,0.671,0.521,0.601,1.025
		c-0.097,0.688-0.287,0.827-0.865,0.473c-1.343-0.83-2.606-1.769-3.646-2.976c-0.097-0.112-0.179-0.235-0.327-0.435
		c-0.63,1.542-1.327,2.962-2.367,4.181c-0.354,0.418-0.732,0.821-1.08,1.245c-0.39,0.48-0.729,0.514-1.046-0.061
		c-0.347-0.051-0.495-0.338-0.644-0.588c-1.374-2.318-2.527-4.723-2.963-7.427c-0.358-2.222-0.024-4.354,0.74-6.425
		c0.539-1.453,1.143-2.895,2.055-4.173C176.023,115.898,176.134,115.631,176.406,115.509z"/>
	<path fill="#292928" d="M176.406,115.509c-0.889,1.538-1.771,3.078-2.381,4.755c-1.019,2.801-1.197,5.604-0.269,8.502
		c0.69,2.146,1.711,4.092,2.92,5.967c-0.247,0.162-0.493,0.328-0.737,0.49c-0.349,0.063-0.402-0.229-0.533-0.431
		c-0.28-0.579-0.624-1.125-0.938-1.685c-0.146-0.23-0.251-0.479-0.352-0.729c-0.157-0.409-0.308-0.821-0.521-1.206
		c-0.326-1.039-0.596-2.096-0.902-3.139c-0.242-2.079-0.242-4.158-0.068-6.24c0.184-0.35,0.253-0.736,0.35-1.113
		c0.203-0.521,0.224-1.102,0.506-1.6c0.492-1.109,0.965-2.229,1.449-3.341c0.139-0.312,0.24-0.671,0.678-0.693
		C175.874,115.201,176.141,115.355,176.406,115.509z"/>
	<path fill="#64291F" d="M162.97,109.686c0.113-0.005,0.228-0.011,0.34-0.017c0.388-0.179,0.778-0.092,1.166-0.01
		c0.51,0.108,1.014,0.248,1.539,0.251c0.084,0.204,0.162,0.415,0.438,0.422c1.419,0.692,2.93,1.167,4.345,1.866
		c1.54,0.757,2.993,1.618,3.943,3.14c0.213,0.342,0.293,0.583,0.106,0.941c-0.24,0.469-0.423,0.965-0.636,1.445
		c-0.437,0.28-0.494-0.111-0.587-0.355c-0.148-0.393-0.203-0.816-0.352-1.212c-0.543-1.492-1.775-2.3-3.104-2.911
		c-1.708-0.784-3.401-1.618-5.224-2.142c-0.504-0.145-0.995-0.363-1.444-0.64C163.229,110.295,162.828,110.161,162.97,109.686z"/>
	<path fill="#763125" d="M147.485,115.504c0.952-1.331,2.163-2.379,3.552-3.229c0.307,0.285,0.321,0.298,0.02,0.631
		c-0.437,0.482-0.895,0.945-1.346,1.414c-1.499,1.561-2.071,3.507-2.37,5.566c-0.084,0.584,0.052,1.146,0.315,1.674
		c0.062,0.36,0.069,0.719-0.068,1.069c-0.435,0.405-0.686,0.966-1.146,1.354c-0.985-0.284-1.449-1.271-1.159-2.457
		c0.73-1.963,1.257-4.006,2.224-5.879C147.528,115.609,147.499,115.552,147.485,115.504z"/>
	<path fill="#853326" d="M155.956,140.723c-1.347-0.463-2.724-0.856-3.917-1.679c0.208-0.122,0.38-0.022,0.54,0.101
		c-1.41-1.059-2.832-2.104-3.828-3.605c0.005-0.363-0.397-0.762,0.093-1.083c0.462,0.095,0.57,0.53,0.806,0.842
		c1.328,1.744,2.904,3.206,4.928,4.097c1.035,0.455,2.156,0.657,3.277,0.812c1.49,0.312,2.957,0.318,4.38-0.309
		c0.102-0.047,0.206-0.075,0.314-0.09c1.598-0.379,3.073-1.084,4.567-1.726c1.103-0.474,2.186-1.008,3.237-1.597
		c0.883-0.495,1.688-1.084,2.248-1.951c0.139-0.188,0.281-0.366,0.533-0.402c0.367,0.416,0.035,0.745-0.169,1.051
		c-0.687,1.026-1.715,1.64-2.771,2.211c-0.196,0.106-0.408,0.188-0.592,0.315c-0.16,0.095-0.328,0.165-0.5,0.233
		c-0.672,0.283-1.385,0.478-2.011,0.871c-0.089,0.061-0.183,0.105-0.278,0.147c-1.595,0.587-3.131,1.319-4.766,1.802
		c-0.856,0.254-1.722,0.254-2.592,0.291c-0.196,0.01-0.402-0.058-0.567,0.107c-0.249,0.042-0.251,0.342-0.451,0.434
		c-0.334-0.302-0.739-0.386-1.172-0.432C156.803,141.114,156.318,141.093,155.956,140.723z"/>
	<path fill="#8A3528" d="M147.602,121.643c-0.652-0.562-0.516-1.312-0.436-2.018c0.311-2.759,1.63-4.98,3.685-6.806
		c0.133-0.118,0.572-0.215,0.186-0.544c0.714-0.545,1.497-0.963,2.329-1.301c0.399,0.41-0.033,0.6-0.247,0.793
		c-0.442,0.396-0.948,0.721-1.258,1.25c-0.6,0.676-1.252,1.297-1.81,2.019c-0.874,1.126-1.101,2.396-1.043,3.762
		c0.01,0.226,0.06,0.449,0.033,0.679c-0.099,0.619-0.245,1.224-0.583,1.764C148.241,121.516,147.979,121.698,147.602,121.643z"/>
	<path fill="#7F3125" d="M162.97,109.686c0.604,0.875,1.616,1.002,2.5,1.358c2.422,0.979,4.965,1.708,6.996,3.47
		c0.523,0.454,0.885,1.008,0.999,1.703c-0.524,0.037-0.771-0.412-1.142-0.646c-1.18-1.223-2.69-1.869-4.242-2.451
		c-0.396-0.149-0.784-0.326-1.17-0.506c-1.07-0.862-2.467-0.948-3.651-1.547c-0.623-0.315-1.264-0.612-1.953-0.777
		c-0.686-0.166-1.375-0.286-2.085-0.263c-0.353,0.011-0.708,0.006-0.964-0.303c-0.056-0.092-0.041-0.166,0.051-0.222
		c1.237,0.005,2.474,0.003,3.71,0.025C162.339,109.53,162.674,109.514,162.97,109.686z"/>
	<path fill="#8C3D2D" d="M158.223,109.614c0.417,0.33,0.91,0.178,1.369,0.196c0.928,0.035,1.815,0.217,2.677,0.57
		c1.083,0.441,2.107,1.019,3.268,1.27c0.559,0.121,1.039,0.465,1.506,0.8c-0.17,0.323-0.422,0.167-0.643,0.098
		c-0.262-0.082-0.512-0.201-0.786-0.222c-0.62-0.14-1.167-0.496-1.8-0.6c-1.781-0.735-3.607-1.227-5.563-1.059
		c-0.324,0.027-0.65,0.038-0.971,0.097c-1.603,0.034-2.959,0.719-4.243,1.598c-0.47,0.103-0.73,0.729-1.319,0.533
		c0.267-0.491,0.716-0.796,1.129-1.145c0.231-0.197,0.691-0.292,0.52-0.776c0.76-0.325,1.52-0.649,2.281-0.974
		c0.696-0.33,1.457-0.408,2.201-0.542C157.996,109.431,158.144,109.453,158.223,109.614z"/>
	<path fill="#53241B" d="M174.084,117.814c0.084-0.185,0.17-0.364,0.249-0.549c0.19-0.465,0.666-1.174,0.517-1.349
		c-0.447-0.524-0.66-1.213-1.229-1.653c-0.973-0.754-1.957-1.471-3.096-1.953c-1.155-0.492-2.31-0.992-3.457-1.499
		c-0.24-0.105-0.559-0.133-0.616-0.481c1.024,0.249,2.036,0.537,2.989,0.999c0.529,0.04,0.926,0.51,1.484,0.451
		c0.928,0.021,1.641,0.622,2.471,0.908c0.027,0.317,0.252,0.456,0.504,0.586c0.401,0.203,0.777,0.461,1.188,0.636
		c0.548,0.229,0.847,0.526,0.517,1.134c-0.561,0.582-0.699,1.375-1.037,2.066c-0.342,0.701-0.627,1.427-0.938,2.142
		C173.236,118.604,173.662,118.209,174.084,117.814z"/>
	<path fill="#592219" d="M171.553,138.509c-1.424,0.525-2.847,1.05-4.271,1.573c-0.337,0.125-0.761,0.084-0.949,0.494
		c-0.493-0.014-0.979,0.488-1.479,0.021c0.297-0.592,0.885-0.781,1.435-1.002c2.019-0.811,4.062-1.558,5.901-2.759
		c0.863-0.563,1.656-1.198,2.338-1.981c0.273-0.316,0.599-0.609,0.94-0.047c-0.354,0.754-0.995,1.27-1.575,1.83
		c-0.679,0.653-1.549,1.062-2.228,1.713C171.646,138.418,171.607,138.471,171.553,138.509z"/>
	<path fill="#6B3428" d="M145.441,121.693c-0.223,0.927,0.104,1.658,1.002,2.24c0.313,0.397,0.42,0.869,0.483,1.355
		c-0.684,0.531-1.481,0.318-2.244,0.343c-0.034-0.013-0.066-0.024-0.1-0.036c-0.492-0.107-0.638-0.381-0.58-0.898
		c0.11-0.986,0.16-1.977,0.454-2.934C144.786,121.753,145.094,121.463,145.441,121.693z"/>
	<path fill="#67291F" d="M148.134,136.02c-1.971-1.867-3.104-4.184-3.653-6.813c-0.014-0.113,0.004-0.224,0.051-0.328
		c0.418-0.356,0.662-0.017,0.829,0.269c0.302,0.513,0.553,1.054,0.773,1.611c0.528,1.342,1.018,2.703,1.807,3.926
		c0.171,0.356,0.428,0.672,0.523,1.062C148.537,136.043,148.491,136.07,148.134,136.02z"/>
	<path fill="#682B20" d="M145.441,121.693c-0.336-0.078-0.627,0.457-0.985,0.07c0.504-2.332,1.419-4.465,3.029-6.261
		c0.282,0,0.249,0.14,0.164,0.337c-0.513,1.188-1.021,2.371-1.424,3.605C145.98,120.198,145.854,120.999,145.441,121.693z"/>
	<path fill="#642A20" d="M175.443,134.84c-0.268-0.24-0.459-0.268-0.729,0.062c-1.508,1.837-3.588,2.836-5.687,3.802
		c-1.385,0.638-2.93,0.923-4.146,1.922c-0.295,0.312-0.675,0.44-1.08,0.522c-0.065-0.066-0.133-0.135-0.198-0.201
		c0.34-0.639,0.975-0.872,1.576-1.15c1.953-0.904,3.985-1.636,5.881-2.669c0.616-0.337,1.209-0.715,1.731-1.19
		c0.644-0.582,1.172-1.23,1.312-2.133c0.049-0.314,0.145-0.643,0.487-0.8c0.324,0.562,0.704,1.088,0.917,1.707
		c0.025,0.05,0.025,0.086-0.003,0.106C175.479,134.838,175.458,134.846,175.443,134.84z"/>
	<path fill="#702A20" d="M174.593,133.004c-0.354,1.883-1.446,3.208-3.104,4.102c-0.813,0.437-1.637,0.871-2.479,1.25
		c-1.303,0.588-2.639,1.105-3.939,1.699c-0.516,0.232-0.979,0.592-1.465,0.893c-0.182,0.014-0.36,0.027-0.543,0.044
		c-0.555-0.118-0.259-0.368-0.043-0.507c0.314-0.2,0.666-0.35,1.015-0.494c0.925-0.387,1.893-0.672,2.776-1.157
		c0.065-0.024,0.133-0.051,0.199-0.076c0.643-0.396,1.406-0.521,2.043-0.925c0.11-0.107,0.245-0.163,0.4-0.159
		c1.053-0.521,2.107-1.036,2.964-1.87c0.679-0.66,1.153-1.428,1.339-2.376c0.077-0.394,0.018-0.88,0.495-1.106
		C174.363,132.547,174.479,132.775,174.593,133.004z"/>
	<path fill="#7B2A1F" d="M148.134,136.02c0.356,0.09,0.216-0.125,0.171-0.279c-0.101-0.355-0.463-0.59-0.452-0.994
		c-0.171-0.305-0.341-0.61-0.472-0.934c-0.099-0.244-0.262-0.506,0.019-0.748c0.479,0.113,0.472,0.596,0.667,0.914
		c0.294,0.485,0.623,0.961,0.777,1.522c1.173,1.412,2.599,2.562,3.946,3.812c-0.251-0.09-0.501-0.179-0.752-0.269
		C150.522,138.312,149.227,137.296,148.134,136.02z"/>
	<path fill="#6B3428" d="M144.624,128.904c-0.047,0.101-0.095,0.201-0.143,0.301c-0.364-0.997-0.371-2.046-0.479-3.085
		c-0.052-0.493,0.447-0.287,0.579-0.524l0.057-0.011c0.433,0.038,0.877-0.043,1.293,0.146c0.395,0.332,0.359,0.709,0.037,1.039
		C145.364,127.389,145.007,128.152,144.624,128.904z"/>
	<path fill="#4D2118" d="M175.443,134.84c0.021-0.044,0.043-0.086,0.065-0.129c0.16,0.154,0.188,0.423,0.431,0.512
		c0.301,0.57-0.008,0.826-0.479,1.109c-0.557,0.337-1.227,0.521-1.629,1.093c-0.74,0.345-1.408,0.856-2.236,1.009
		c-0.187-0.106-0.293-0.246-0.039-0.375C173.1,137.283,174.264,136.051,175.443,134.84z"/>
	<path fill="#100100" d="M166.016,109.91c-0.14,0.225-0.334,0.285-0.58,0.196c-0.688-0.245-1.412-0.316-2.125-0.437
		c0.405-0.924,0.848-1.281,1.516-1.15C165.568,108.666,166.001,109.119,166.016,109.91z"/>
	<path fill="#171006" d="M158.223,109.614c-0.859,0.128-1.718,0.255-2.576,0.385c0.178-1.397,1.06-2.012,2.068-1.438
		c0.359,0.207,0.625,0.481,0.594,0.938C158.275,109.535,158.248,109.572,158.223,109.614z"/>
	<path fill="#78281E" d="M166.811,138.832c-0.221,0.4-0.664,0.411-1.018,0.572c-0.861,0.391-1.789,0.629-2.596,1.146
		c-0.18,0.113-0.505,0.166-0.135,0.439c-1.376,0.368-2.779,0.143-4.171,0.173c-0.061-0.197,0.097-0.215,0.208-0.208
		c2.378,0.118,4.458-0.897,6.584-1.729C166.055,139.08,166.436,138.965,166.811,138.832z"/>
	<path fill="#0E0000" d="M173.396,112.69c-0.102,0.104-0.199,0.268-0.364,0.145c-0.628-0.466-1.4-0.625-2.067-1.009
		c-0.049-0.025-0.064-0.05-0.049-0.076c0.021-0.031,0.036-0.044,0.05-0.039c0.349-0.536,0.829-0.786,1.45-0.565
		C173.126,111.399,173.495,111.907,173.396,112.69z"/>
	<path fill="#0E0000" d="M163.805,141.146c0.266-0.364,0.69-0.402,1.079-0.521c0.49,0.199,0.954-0.413,1.449-0.047
		c-0.104,0.691-0.437,1.229-1.166,1.328C164.566,141.989,164.07,141.736,163.805,141.146z"/>
	<path fill="#1C0C00" d="M155.956,140.723c0.72,0.137,1.437,0.281,2.159,0.406c0.288,0.049,0.454,0.145,0.326,0.467
		c-0.324,0.465-0.769,0.721-1.328,0.582C156.378,141.996,156.041,141.445,155.956,140.723z"/>
	<path fill="#140000" d="M171.596,138.434c0.586-0.515,1.41-0.603,1.996-1.119c0.028-0.024,0.16,0.069,0.241,0.11
		c0.073,0.665-0.283,1.121-0.824,1.378c-0.51,0.24-1.032,0.113-1.456-0.294C171.579,138.491,171.594,138.465,171.596,138.434z"/>
	<path fill="#64291F" d="M170.966,111.712c0.011,0.039,0.011,0.077-0.001,0.114c-0.598,0.113-1.021-0.309-1.521-0.495
		C169.994,111.284,170.398,111.822,170.966,111.712z"/>
	<path fill="#1F1A18" d="M176.585,129.904c-0.253-0.78-0.617-1.536-1.272-2.012c-1.478-1.074-1.887-2.496-1.621-4.211
		c0.207-1.336,0.561-2.619,1.306-3.771c0.394-0.609,0.942-1.021,1.544-1.39c0.165,0.561-0.165,1.057-0.205,1.59
		c-0.373,0.301-0.934,0.354-1.148,0.867c-0.037,0.058-0.082,0.111-0.125,0.166c-0.262,0.371-0.438,0.772-0.51,1.221
		c-0.012,0.138-0.025,0.275-0.062,0.412c-0.244,0.781-0.444,1.568-0.145,2.385c0.197,0.391,0.389,0.781,0.584,1.174
		c1.172,1.042,2.232,0.737,2.574-0.76c0.194-0.854,0.514-1.67,0.736-2.514c0.064-0.244,0.164-0.477,0.441-0.565
		c0.338-0.003,0.623,0.088,0.771,0.428c-1.019,1.204-0.974,2.784-1.466,4.177c-0.105,0.299-0.088,0.599,0.279,0.744
		c0.019,0.031,0.035,0.063,0.053,0.096c-0.242,0.556-0.9,0.744-1.144,1.299C176.965,129.449,176.92,129.807,176.585,129.904z"/>
	<path fill="#CBC7C6" d="M176.943,118.05c1.685-1.431,1.344-1.28,2.498,0.375c0.84,1.202,1.356,2.56,1.705,3.983
		c0.146,0.598,0.035,0.834-0.613,0.609c-0.234-0.08-0.493-0.088-0.741-0.129c-0.388,0.028-0.671-0.244-1.013-0.347
		c-0.283-0.326,0.054-0.548,0.156-0.79c0.394-0.918,0.076-2.326-0.652-2.966c-0.439-0.382-1.021-0.202-1.481-0.454
		C176.798,118.214,176.835,118.115,176.943,118.05z"/>
	<path fill="#D0CDCC" d="M180.198,127.167c1.103-0.325,1.194-0.248,0.956,0.812c-0.385,1.711-1.143,3.25-2.141,4.687
		c-0.283,0.408-0.548,0.494-0.968,0.17c-0.471-0.365-0.979-0.685-1.188-1.287c0.021-0.538,0.439-0.536,0.806-0.583
		c1.067-0.142,2.096-1.193,2.071-2.279C179.725,128.094,179.871,127.619,180.198,127.167z"/>
	<path fill="#E4E2E1" d="M180.198,127.167c0.053,0.05,0.104,0.104,0.157,0.155c-0.541,0.408-0.367,0.979-0.404,1.537
		c-0.08,1.135-1.229,2.201-2.34,2.279c-0.318,0.021-0.594,0.102-0.752,0.407c-0.398-0.496-0.289-1.077-0.274-1.642
		c0.209-0.247,0.17-0.647,0.503-0.819c0.406,0.435,0.814,0.86,1.497,0.733c0.283-0.053,0.533-0.153,0.64-0.45
		c0.113-0.316,0.027-0.591-0.219-0.812c-0.238-0.219-0.498-0.416-0.664-0.699l-0.042,0.02l-0.032-0.033
		C178.911,127.619,179.512,127.27,180.198,127.167z"/>
	<path fill="#4B4544" d="M178.688,122.412c0.367,0.158,0.736,0.318,1.104,0.479c-0.103,0.102-0.222,0.071-0.339,0.034
		c-0.276-0.108-0.553-0.217-0.828-0.325c-0.284,0.014-0.494,0.008-0.492,0.445c0.008,0.989-0.352,1.919-0.747,2.805
		c-0.493,1.104-1.75,1.28-2.676,0.441c-0.178-0.35-0.356-0.701-0.534-1.051c-0.045-0.157-0.015-0.295,0.111-0.404
		c0.186-0.074,0.27,0.057,0.359,0.176c0.127,0.219,0.197,0.465,0.33,0.68c0.614,0.566,1.4,0.513,1.797-0.183
		c0.289-0.51,0.578-1.038,0.627-1.646c0.015-0.403-0.028-0.799-0.103-1.192c-0.176-0.976-0.11-1.026,0.827-0.706
		C178.348,122.068,178.589,122.152,178.688,122.412z"/>
	<path fill="#35302E" d="M176.943,118.05c-0.031,0.099-0.062,0.194-0.096,0.291c0.055,0.112,0.047,0.226,0.019,0.343
		c-0.263,0.526-0.237,1.096-0.241,1.66c-0.033,0.229-0.087,0.481-0.34,0.536c-0.877,0.192-1.247,0.854-1.555,1.593
		c-0.039,0.094-0.117,0.16-0.197,0.223c-0.038,0.013-0.074,0.022-0.11,0.033c-0.075-0.11-0.054-0.226-0.007-0.338
		c0.098-0.508,0.294-0.972,0.604-1.39l0,0c0.299-0.405,0.682-0.688,1.174-0.812c0.011-0.578,0.098-1.14,0.348-1.666
		C176.672,118.363,176.688,118.104,176.943,118.05z"/>
	<path fill="#F1F0F0" d="M180.419,124.154c-0.157-0.102-0.374-0.127-0.338-0.361c0.037-0.241,1.083-0.391,1.545-0.229
		c0.176,0.061,0.374,0.242,0.269,0.346C181.471,124.322,180.92,124.167,180.419,124.154z"/>
	<path fill="#F5F5F5" d="M181.902,126.357c-0.182,0.188-0.418,0.256-0.674,0.244c-0.361-0.016-0.76,0.113-1.061-0.205
		c-0.105-0.112-0.061-0.215,0.059-0.308c0.234-0.187,1.381-0.181,1.601,0.011C181.91,126.172,181.957,126.243,181.902,126.357z"/>
	<path fill="#040000" d="M172.689,121.826c0.092,0.203,0.211,0.404,0.168,0.64c-0.323,1.736-0.174,3.468,0.011,5.2
		c0.015,0.143-0.06,0.289-0.095,0.436c-0.028,0.271-0.269,0.315-0.455,0.42c-0.479,0.237-0.993,0.185-1.502,0.174
		c-0.295-0.041-0.569-0.176-0.867-0.205c-0.574-0.178-1.01-0.537-1.336-1.033c-0.127-0.27-0.293-0.518-0.428-0.78
		c-0.09-0.211-0.146-0.428-0.09-0.659c0.066-0.207,0.195-0.373,0.41-0.398c0.745-0.092,1.441-0.412,2.169-0.471
		c-0.394-0.184-0.353-0.541-0.276-0.875c0.168-0.731,0.373-1.453,0.33-2.224c-0.02-0.391,0.24-0.582,0.621-0.614
		c0.303-0.024,0.604-0.012,0.901,0.035C172.449,121.525,172.633,121.598,172.689,121.826z"/>
	<path fill="#8C2119" d="M172.312,128.382c0.154-0.096,0.309-0.188,0.461-0.28c0.533,0.949,0.641,2.037,0.979,3.051
		c0.041,0.723-0.01,1.438-0.145,2.146c-0.063,0.341-0.125,0.694-0.494,0.863c-0.129,0.164-0.254,0.328-0.383,0.495
		c-0.195,0.121-0.344,0.468-0.615,0.277c-0.383-0.271-0.016-0.643-0.045-0.97c0.021-0.229,0.027-0.462,0.145-0.671
		c0.497-0.616,0.324-1.328,0.256-2.012C172.37,130.314,172.16,129.359,172.312,128.382z"/>
	<path fill="#972019" d="M172.689,121.826c-0.188-0.077-0.377-0.153-0.564-0.23c-0.116,0-0.213-0.043-0.291-0.13
		c-0.152-0.716-0.066-1.431,0.014-2.146c0.063-0.571,0.07-1.135-0.076-1.695c0.102-0.465,0.199-0.93,0.191-1.408
		c0.229-0.295,0.393-0.066,0.541,0.081c0.197,0.197,0.292,0.463,0.395,0.718c0.195,0.531,0.215,1.086,0.18,1.637
		c-0.046,0.729,0.02,1.453,0.027,2.18C172.996,121.176,173.132,121.621,172.689,121.826z"/>
	<path fill="#801F18" d="M173.104,120.831c-0.375-0.651-0.227-1.365-0.211-2.054c0.015-0.577-0.012-1.144-0.119-1.711
		c0.037-0.56-0.543-1.006-0.293-1.604c0.328,0.251,0.658,0.504,0.984,0.754c0.348,0.477,0.121,1.18,0.618,1.598
		c-0.133,0.485-0.521,0.892-0.452,1.439C173.456,119.779,173.279,120.305,173.104,120.831z"/>
	<path fill="#78281E" d="M173.113,134.16c0.32-0.633,0.41-1.318,0.414-2.012c0.002-0.358,0.066-0.683,0.225-0.996
		c0.28,0.34,0.377,0.758,0.499,1.166c-0.063,0.162-0.164,0.322-0.185,0.49c-0.316,2.78-2.31,3.971-4.613,4.862
		c0.312-0.428,0.837-0.515,1.257-0.771c0.84-0.515,1.62-1.088,2.179-1.91C173.044,134.757,173.248,134.491,173.113,134.16z"/>
	<path fill="#801F18" d="M147.602,121.643c0.219-0.125,0.438-0.25,0.658-0.373c0.566,0.166,0.862,0.655,1.191,1.072
		c0.449,0.572,0.909,1.116,1.476,1.577c0.406,0.33,0.77,0.722,0.768,1.308c-0.605,0.408-1.242,0.25-1.878,0.103
		c-0.541-0.755-1.305-1.31-1.868-2.046c-0.165-0.215-0.392-0.393-0.429-0.688C147.518,122.271,147.43,121.945,147.602,121.643z"/>
	<path fill="#712018" d="M147.52,122.594c0.744,0.904,1.766,1.566,2.31,2.646c-0.058,0.232-0.256,0.219-0.42,0.214
		c-0.854-0.024-1.729,0.226-2.555-0.188c-0.257-0.404-0.346-0.865-0.411-1.33C146.671,123.382,146.936,122.857,147.52,122.594z"/>
	<path fill="#943A2B" d="M162.546,139.949c-0.066,0.025-0.133,0.052-0.2,0.078c-1.447,0.498-2.943,0.455-4.439,0.382
		c-3.861-0.363-6.667-2.399-8.778-5.535c-0.098-0.146-0.164-0.312-0.341-0.383c-0.878-1.149-1.023-3.084-0.306-4.034
		c0.714,0.154,0.729,0.859,1.042,1.329c0.127,0.929,0.4,1.825,0.612,2.735c0.189,0.766,0.722,1.317,1.219,1.879
		c1.353,1.525,2.845,2.857,4.941,3.254c1.885,0.355,3.756,0.212,5.613-0.201c0.585-0.128,1.183-0.251,1.706-0.577
		c1.49-0.526,2.926-1.183,4.339-1.89c0.496-0.246,0.997-0.475,1.411-0.854c0.26-0.154,0.521-0.306,0.84-0.189
		c0.357,0.546-0.139,0.711-0.443,0.886c-0.953,0.551-1.955,1.01-2.957,1.455C165.411,138.9,163.999,139.48,162.546,139.949z"/>
	<path fill="#833527" d="M148.563,130.448c-0.727,1.198-0.231,2.368,0.083,3.54c0.045,0.168,0.094,0.336,0.141,0.503
		c-0.177,0.347,0.232,0.663,0.057,1.01c-0.619-0.722-0.989-1.588-1.418-2.42c-0.672-0.532-1.407-3.231-1.075-3.967
		c0.105-0.23,0.275-0.419,0.473-0.579c0.248-0.153,0.511-0.18,0.789-0.096c0.479,0.272,0.829,0.672,1.082,1.16
		C148.754,129.898,148.904,130.213,148.563,130.448z"/>
	<path fill="#8C3426" d="M162.546,139.949c0.942-0.393,1.886-0.795,2.833-1.178c1.479-0.597,2.9-1.311,4.305-2.062
		c0.256-0.139,0.651-0.242,0.484-0.7c0.008-0.171,0.124-0.267,0.255-0.336c0.667-0.354,1.22-0.819,1.538-1.524
		c0.05-0.112,0.156-0.188,0.29-0.197c0,0.096,0.01,0.195-0.005,0.29c-0.031,0.188-0.264,0.381-0.104,0.549
		c0.217,0.229,0.375-0.142,0.59-0.134c-0.713,1.158-1.854,1.789-3.008,2.383c-2.113,1.086-4.311,1.986-6.531,2.827
		C162.983,139.943,162.78,140.057,162.546,139.949z"/>
	<path fill="#8C3426" d="M157.907,140.409c1.156-0.187,2.338,0.019,3.496-0.243c0.302-0.07,0.604-0.288,0.945-0.139
		C160.917,140.745,159.421,140.684,157.907,140.409z"/>
	<path fill="#78281E" d="M169.053,137.831c-0.566,0.558-1.332,0.679-2.043,0.925C167.58,138.2,168.346,138.077,169.053,137.831z"/>
	<path fill="#8D221A" d="M151.657,125.207c-0.277-0.602-0.752-1.023-1.219-1.482c-0.78-0.764-1.458-1.632-2.178-2.455
		c0.323-0.584,0.441-1.236,0.638-1.862c0.124-0.115,0.262-0.146,0.419-0.074c0.202,0.135,0.289,0.343,0.35,0.562
		c0.34,1.213,1.112,2.11,2.086,2.857c0.299,0.23,0.583,0.473,0.845,0.744c0.453,0.539,1.193,0.865,1.251,1.695
		C153.122,125.585,152.391,125.583,151.657,125.207z"/>
	<path fill="#9B3A2B" d="M149.239,119.389c-0.114,0.006-0.228,0.012-0.341,0.019c-0.499-2.479,0.573-4.357,2.293-5.986
		c0.18-0.169,0.351-0.351,0.526-0.526c0.5-0.032,0.717-0.642,1.248-0.611c0.047,0.12,0.021,0.232-0.038,0.339
		c-0.327,0.445-0.758,0.794-1.103,1.227c-0.479,0.602-0.867,1.217-0.741,2.03c-0.431,0.763-0.766,1.57-1.119,2.368
		C149.762,118.652,149.708,119.154,149.239,119.389z"/>
	<path fill="#8B2A1F" d="M172.48,115.463c0.062,0.542,0.504,1.014,0.293,1.604c-0.271-0.266-0.205-0.846-0.773-0.838
		c-0.036,0.004-0.072,0.006-0.109,0.006c-0.656-1.029-1.783-1.438-2.75-2.062c-0.164-0.343-0.498-0.461-0.813-0.601
		c-0.681-0.301-1.363-0.584-2.038-0.892c-0.244-0.109-0.512-0.203-0.611-0.495c0.508-0.187,0.855,0.457,1.365,0.264
		c0.982,0.424,1.951,0.881,2.948,1.266C170.975,114.098,171.762,114.727,172.48,115.463z"/>
	<path fill="#A3523E" d="M152.846,112.565c0.039-0.094,0.08-0.188,0.119-0.282c1.214-1.001,2.569-1.645,4.176-1.65
		c0.329,0.013,0.659,0.02,0.914,0.277c0.185,0.307-0.074,0.424-0.263,0.498c-1.321,0.532-2.606,1.164-3.998,1.503
		c-0.31,0.077-0.645,0.151-0.931-0.09C152.773,112.743,152.768,112.653,152.846,112.565z"/>
	<path fill="#9E3426" d="M165.676,112.187c1.079,0.468,2.161,0.933,3.238,1.406c0.287,0.128,0.688,0.222,0.324,0.673
		c-0.322,0.327-0.661,0.285-1.008,0.039c-0.963-0.647-2.082-0.961-3.117-1.458c-0.834-0.303-1.68-0.57-2.553-0.736
		c-0.408-0.077-0.838-0.101-1.193-0.361c-0.063-0.061-0.085-0.136-0.067-0.222c0.542-0.422,1.142-0.174,1.718-0.135
		c0.268,0.017,0.515,0.175,0.793,0.157C164.514,111.527,165.05,111.987,165.676,112.187z"/>
	<path fill="#9D4231" d="M163.811,111.548c-0.811-0.021-1.623-0.046-2.435-0.069c-1.001,0.021-1.991-0.116-2.982-0.209
		c-0.126-0.012-0.231-0.091-0.287-0.217c-0.321-0.139-0.643-0.28-0.965-0.419c1.559-0.281,3.099-0.281,4.638,0.184
		C162.472,111.025,163.154,111.249,163.811,111.548z"/>
	<path fill="#533029" d="M151.657,125.207c0.725,0.062,1.448,0.107,2.17-0.029c0.485-0.209,0.962-0.214,1.429,0.057
		c0.043,0.119,0.018,0.227-0.052,0.33c-0.309,0.307-0.704,0.211-1.075,0.231c-0.61,0.042-1.221-0.004-1.831,0.027
		c-0.501,0.032-1.003,0.03-1.504,0.022c-0.791,0.041-1.583-0.011-2.375,0.047c-0.565-0.074-1.132,0.043-1.698-0.004
		c-0.307-0.007-0.613-0.041-0.916-0.091c-0.377-0.135-0.809,0.022-1.167-0.214c0.717-0.262,1.509,0.016,2.216-0.318
		c0.992,0.026,1.984,0.082,2.976-0.025C150.44,125.281,151.05,125.334,151.657,125.207z"/>
	<path fill="#6E3226" d="M145.806,125.799c0.28-0.138,0.581-0.087,0.875-0.095c0.21,0.218,0.222,0.495,0.177,0.765
		c-0.116,0.707,0.303,1.399,0.048,2.106c-0.58,0.616-0.545,1.304-0.31,2.063c0.254,0.821,0.371,1.688,0.831,2.441
		c-0.137,0.624,0.405,1.078,0.427,1.664c-0.372-0.284-0.549-0.692-0.724-1.105c-0.578-1.369-1.151-2.742-1.748-4.104
		c-0.139-0.315-0.23-0.752-0.757-0.629c0.021-0.91,0.518-1.585,1.134-2.173C146.106,126.398,146.159,126.129,145.806,125.799z"/>
	<path fill="#F7F7F7" d="M178.342,127.859c0.402,0.086,0.658,0.418,0.924,0.666c0.521,0.492,0.192,1.308-0.537,1.468
		c-0.799,0.172-1.371-0.144-1.641-0.907C177.324,128.491,177.911,128.253,178.342,127.859z"/>
	<path fill="#352F2E" d="M174.71,126.291c1.625,0.714,2.578,0.177,3.028-1.764c0.168-0.717,0.402-1.448,0.076-2.215
		c0.354-0.004,0.57,0.168,0.811,0.287c-0.336,1.043-0.701,2.073-0.943,3.15c-0.138,0.607-0.295,1.311-1.152,1.389
		C175.755,127.211,174.995,126.87,174.71,126.291z"/>
	<path fill="#35302E" d="M174.354,124.825c-0.058,0.139-0.117,0.276-0.178,0.415c-0.296-0.873-0.234-1.713,0.247-2.514l0.022-0.004
		C174.719,123.438,174.688,124.139,174.354,124.825z"/>
	<path fill="#352F2E" d="M176.193,120.188c-0.394,0.271-0.783,0.543-1.176,0.812C175.241,120.486,175.537,120.078,176.193,120.188z"
		/>
	<path fill="#352F2E" d="M175.02,121.001c-0.201,0.463-0.401,0.926-0.604,1.39C174.404,121.836,174.602,121.37,175.02,121.001z"/>
	<path fill="#E2E0DF" d="M176.717,118.613c0.045-0.092,0.09-0.182,0.133-0.272c1.219-0.233,2.099,0.448,2.325,1.623
		c0.179,0.92,0.281,1.751-0.487,2.448c-0.236-0.096-0.473-0.191-0.709-0.288c-0.021-0.071-0.017-0.142,0.008-0.208
		c0.871-0.87,0.894-1.568,0.088-2.561c-0.2-0.246-0.424-0.41-0.758-0.377C177.029,119.01,176.753,119.002,176.717,118.613z"/>
	<path fill="#6D6766" d="M178.014,122.029c-0.016,0.029-0.025,0.062-0.035,0.095c-0.196-0.073-0.396-0.146-0.645-0.238
		c0.119,0.714,0.359,1.349,0.216,2.019c-0.088,0.58-0.37,1.092-0.629,1.597c-0.426,0.833-1.418,0.897-2.114,0.181
		c-0.146-0.174-0.226-0.371-0.238-0.597c-0.033-0.119-0.008-0.22,0.096-0.292c0.281,0.007,0.335,0.256,0.46,0.434
		c0.365,0.52,0.712,0.567,1.174,0.168c0.937-0.806,1.134-2.541,0.397-3.5c-0.278-0.362-0.814-0.371-1.17,0
		c-0.172,0.176-0.277,0.42-0.57,0.438c-0.167-0.645,0.486-1.357,1.222-1.312c0.246,0.019,0.486,0.105,0.739,0.051
		C177.34,121.32,177.82,121.512,178.014,122.029z"/>
	<path fill="#5D5655" d="M174.693,124.807c-0.041,0.094-0.082,0.187-0.125,0.277c-0.07-0.086-0.144-0.173-0.215-0.259
		c0.029-0.699,0.062-1.401,0.092-2.103c0.365-0.904,0.67-1.858,1.856-2.017c0.179-0.022,0.058-0.272,0.156-0.386
		c0.45,0.117,0.405,0.44,0.329,0.777c-0.025,0.12,0.057,0.28-0.229,0.194c-0.914-0.269-1.307-0.004-1.604,0.996
		C175.002,123.143,174.922,123.982,174.693,124.807z"/>
	<path fill="#5D5655" d="M174.807,125.68c1.127,0.692,1.76,0.487,2.301-0.75c0.146-0.342,0.295-0.684,0.442-1.025
		c-0.011,0.753-0.346,1.406-0.793,1.951C176.186,126.557,175.184,126.424,174.807,125.68z"/>
	<path fill="#FDFCFC" d="M176.788,121.1c-0.099-0.263-0.115-0.562-0.329-0.776c-0.033-0.587-0.152-1.188,0.258-1.709
		c0.104,0.098,0.182,0.288,0.354,0.227c0.535-0.194,0.886,0.007,1.191,0.447c0.407,0.589,0.729,1.196,0.586,1.937
		c-0.088,0.447-0.556,0.539-0.834,0.807C177.51,121.848,177.229,121.368,176.788,121.1z"/>
	<path fill="#BC201A" d="M168.719,127.309c0.346,0.447,0.771,0.797,1.284,1.039c0.368,0.674,0.476,1.362,0.133,2.082
		c-0.073,0.016-0.155,0.039-0.219,0.002c-2.007-1.123-4.108-0.998-6.24-0.488c-0.211,0.026-0.379-0.092-0.562-0.166
		c-0.867-0.354-1.64-0.219-2.323,0.438c-0.167,0.159-0.266,0.444-0.585,0.375c-0.182-0.34-0.48-0.242-0.783-0.25
		c-0.614-0.017-1.156,0.475-1.792,0.23c-0.422-0.565-0.473-1.062,0.2-1.504c0.492-0.319,0.401-0.933,0.593-1.404
		c0.23-0.215,0.511-0.158,0.784-0.148c1.298,0.043,2.591,0.059,3.891-0.07c1.664-0.168,3.344-0.129,5.008-0.313
		C168.336,127.102,168.559,127.098,168.719,127.309z"/>
	<path fill="#BD3224" d="M168.719,127.309c-1.966,0.108-3.938,0.16-5.897,0.349c-1.453,0.137-2.891,0.051-4.336,0.012
		c-0.128,0.044-0.229-0.004-0.313-0.103c-0.076-0.242-0.051-0.469,0.121-0.67c0.258-0.131,0.535-0.114,0.808-0.103
		c2.83,0.126,5.643-0.14,8.46-0.33c0.268-0.019,0.555-0.11,0.744,0.187C168.501,126.833,168.632,127.059,168.719,127.309z"/>
	<path fill="#312B29" d="M171.871,121.436c0.084,0.056,0.168,0.107,0.254,0.16c-0.148,0-0.296,0.01-0.443-0.002
		c-0.582-0.05-0.922,0.116-0.781,0.795c0.141,0.668-0.219,1.268-0.309,1.905c-0.095,0.672-0.104,0.671,0.606,0.892
		c-0.835,0.195-1.593,0.396-2.361,0.543c-0.288,0.056-0.546,0.072-0.644,0.396c-0.168-0.007-0.229-0.128-0.282-0.26
		c-0.034-0.135-0.042-0.272-0.052-0.409c-0.014-0.274,0.012-0.552,0.033-0.826c0.015-0.106,0.043-0.209,0.084-0.31
		c0.129-0.327,0.426-0.363,0.719-0.439c0.781-0.201,1.104-0.599,1.188-1.41c0.033-0.318,0.012-0.654,0.309-0.88
		c0.144-0.112,0.31-0.188,0.477-0.257c0.205-0.078,0.412-0.136,0.634-0.128C171.51,121.232,171.745,121.203,171.871,121.436z"/>
	<path fill="#B83C2B" d="M168.02,125.829c0.06,0.099,0.117,0.196,0.176,0.296c0.037,0.176,0.074,0.352,0.111,0.525
		c-1.19,0.064-2.383,0.125-3.574,0.197c-2.14,0.125-4.277,0.276-6.421,0.084c-0.61-0.285-0.928-0.836-1.253-1.38
		c0.609-0.233,1.237-0.151,1.863-0.125c0.073,0.024,0.141,0.058,0.204,0.099c0.938,0.828,2.08,0.901,3.242,0.852
		C164.259,126.29,166.157,126.23,168.02,125.829z"/>
	<path fill="#A11A17" d="M172.312,128.382c0.057,0.05,0.166,0.106,0.158,0.147c-0.166,1.281,0.271,2.52,0.27,3.787
		c0.001,0.404-0.006,0.803-0.45,1.01c-0.333-0.276-0.622-0.585-0.776-0.999c0.215-1.321-0.334-2.517-0.623-3.757
		C171.363,128.493,171.855,128.568,172.312,128.382z"/>
	<path fill="#B21717" d="M170.891,128.57c0.652,0.785,0.569,1.797,0.846,2.699c0.117,0.379,0.06,0.729-0.141,1.064
		c-0.312,0.139-0.597,0.05-0.873-0.105c-0.367-0.552-0.619-1.146-0.593-1.83c0.099-0.69-0.134-1.363-0.127-2.053
		C170.332,128.29,170.591,128.51,170.891,128.57z"/>
	<path fill="#030000" d="M170.703,132.111c0.299,0.074,0.596,0.148,0.893,0.224c0.291,0.288,0.612,0.556,0.694,0.991
		c-0.013,0.207-0.026,0.416-0.039,0.624c-0.354,1.03-1.101,1.665-2.083,2.059c-0.249,0.066-0.496,0.132-0.744,0.198
		c-0.385,0.255-0.715,0.035-1.053-0.119c-0.264-0.152-0.43-0.386-0.562-0.648C167.396,133.707,168.982,131.885,170.703,132.111z"/>
	<path fill="#A9261D" d="M171.871,121.436c-0.203-0.049-0.434,0.051-0.616-0.105c-0.409-0.979-0.416-2.012-0.394-3.046
		c0.123-0.332,0.457-0.404,0.707-0.581c0.098-0.049,0.195-0.064,0.3-0.021c0.2,0.221,0.25,0.49,0.229,0.771
		C172.029,119.445,171.948,120.441,171.871,121.436z"/>
	<path fill="#8B2A1F" d="M171.868,117.682c-0.062,0.023-0.127,0.049-0.191,0.072c-0.067-0.533-0.018-1.045,0.276-1.509l0.047-0.017
		C172.338,116.749,172.049,117.209,171.868,117.682z"/>
	<path fill="#91221A" d="M150.805,125.67c0.495-0.004,0.989-0.008,1.484-0.012c0.131,0.098,0.288,0.07,0.433,0.074
		c0.527,0.007,0.643,0.31,0.529,0.746c-0.133,0.508-0.29,1.043-0.66,1.41c-1.177,1.166-2.144,2.488-3.023,3.881
		c-0.039,0.018-0.079,0.032-0.117,0.049c-0.295-0.457-0.592-0.914-0.887-1.37c0.008-0.273,0.016-0.546,0.024-0.817
		c0.022-0.393,0.347-0.581,0.564-0.846c0.33-0.403,0.683-0.786,1.024-1.178C150.668,127.041,150.967,126.438,150.805,125.67z"/>
	<path fill="#9D4634" d="M163.775,139.002c-2.535,1.089-5.149,1.337-7.84,0.725c-2.632-0.6-4.242-2.504-5.745-4.533
		c-0.141-0.191-0.171-0.465-0.254-0.698c0.427-0.065,0.549,0.342,0.817,0.522c0.565,0.78,1.075,1.614,1.941,2.121
		c1.972,2.069,4.46,2.326,7.109,2.021c0.701,0.004,1.396-0.066,2.093-0.142c0.393,0.016,0.771-0.102,1.157-0.146
		C163.302,138.84,163.587,138.686,163.775,139.002z"/>
	<path fill="#A83829" d="M163.775,139.002c-0.642-0.128-1.235,0.303-1.88,0.17c0.064-0.369,0.404-0.396,0.658-0.498
		c0.48-0.191,0.938-0.417,1.359-0.716c0.896-0.558,1.982-0.646,2.9-1.185c0.511-0.301,1.037-0.596,1.58-0.844
		c0.357,0.039,0.646,0.329,1.029,0.276c-0.275,0.543-0.848,0.668-1.326,0.905C166.689,137.816,165.275,138.51,163.775,139.002z"/>
	<path fill="#A03527" d="M150.649,135.131c-0.238-0.213-0.475-0.426-0.713-0.637c-0.122-0.898-0.604-1.732-0.486-2.676l0.003-0.002
		c0.651,0.354,0.917,1.082,1.483,1.521c0.169,0.271,0.426,0.51,0.335,0.881C150.977,134.46,150.876,134.841,150.649,135.131z"/>
	<path fill="#802018" d="M150.805,125.67c0.498,0.531,0.286,1.041-0.07,1.523c-0.644,0.875-1.362,1.688-2.148,2.438
		c-0.335-0.365-0.671-0.729-1.007-1.093c-0.115-0.358,0.152-0.554,0.35-0.759c0.342-0.357,0.687-0.713,1.015-1.084
		c0.284-0.322,0.433-0.592-0.185-0.66c-0.149-0.018-0.281-0.096-0.333-0.258C149.213,125.585,150.014,125.729,150.805,125.67z"/>
	<path fill="#712119" d="M148.427,125.777c0.045,0.02,0.097,0.033,0.137,0.061c0.285,0.196,0.787-0.191,0.924,0.246
		c0.142,0.457-0.384,0.637-0.599,0.945c-0.379,0.551-1.01,0.887-1.309,1.509c-0.225,0.014-0.451,0.024-0.675,0.037
		c-0.252-0.942-0.234-1.909-0.225-2.871C147.259,125.827,147.854,125.544,148.427,125.777z"/>
	<path fill="#9B201A" d="M149.239,119.389c0.18-0.416,0.359-0.832,0.539-1.248c0.595,0.012,0.878,0.478,1.109,0.889
		c0.617,1.094,1.268,2.154,2.107,3.094c0.167,0.188,0.287,0.411,0.284,0.678c-0.14,0.377-0.289,0.746-0.766,0.801
		C150.979,122.54,149.75,121.244,149.239,119.389z"/>
	<path fill="#9B2C21" d="M152.513,123.602c0.233-0.285,0.465-0.566,0.697-0.85c0.762-0.087,1.176,0.54,1.745,0.848
		c0.455,0.474,1.188,0.729,1.221,1.536c-0.259,0.396-0.6,0.235-0.933,0.134c-0.472-0.029-0.944-0.062-1.415-0.092
		C153.536,124.529,152.91,124.159,152.513,123.602z"/>
	<path fill="#A62A20" d="M154.889,123.805c-0.546-0.373-1.065-0.789-1.68-1.053c-1.277-1.354-1.963-3.135-3.245-4.482
		c-0.051-0.055-0.125-0.088-0.187-0.129c0.367-0.83,0.658-1.697,1.213-2.436c0.358-0.271,0.591-0.98,1.211-0.35
		c0.047,0.316,0.27,0.635,0.027,0.959c-1.414,1.203-0.956,3.8,0.81,4.547c0.55,0.231,1.127,0.397,1.66,0.675
		C154.714,122.295,155.173,123.021,154.889,123.805z"/>
	<path fill="#A74835" d="M152.118,115.379c-0.53-0.426-0.718,0.333-1.126,0.326c-0.246-0.473-0.144-0.846,0.184-1.282
		c0.504-0.675,0.976-1.362,1.67-1.858c0.167,0.415,0.512,0.254,0.772,0.192c1.566-0.376,3.021-1.057,4.487-1.704
		c1.08,0.216,2.218-0.009,3.27,0.426c-0.021,0.046-0.04,0.093-0.06,0.14c-0.165,0.2-0.397,0.193-0.621,0.188
		c-1.66-0.039-3.203,0.448-4.733,1.024c-0.515,0.192-0.633,0.403-0.255,0.823c-0.023,0.076-0.071,0.125-0.144,0.154
		c-0.181,0.031-0.346-0.029-0.514-0.086c-1.165-0.39-1.913-0.086-2.49,0.992C152.434,114.948,152.43,115.27,152.118,115.379z"/>
	<path fill="#050000" d="M171.953,116.245c0.043,0.526,0.021,1.044-0.276,1.509c-0.192,0.249-0.517,0.284-0.756,0.455
		c-0.269,0.241-0.585,0.131-0.889,0.123c-0.841-0.154-1.528-0.57-2.085-1.214c-0.357-0.544-0.658-1.104-0.525-1.791
		c0.211-0.427,0.242-1.021,0.938-0.979c0.293-0.027,0.586-0.055,0.877-0.084C170.466,114.48,171.404,115.096,171.953,116.245z"/>
	<path fill="#B13426" d="M155.674,113.62c-0.196-0.134-0.561-0.112-0.57-0.41c-0.011-0.356,0.37-0.357,0.606-0.458
		c1.789-0.771,3.64-1.232,5.606-1.134c1.295,0.278,2.597,0.531,3.838,1.008c-0.166,0.36-0.502,0.262-0.783,0.268
		c-0.729,0.012-1.456-0.036-2.177-0.131c-1.966-0.26-3.846,0.061-5.678,0.778C156.253,113.646,155.979,113.859,155.674,113.62z"/>
	<path fill="#AE2A20" d="M155.674,113.62c1.553-0.558,3.113-1.126,4.783-1.128c1.247,0,2.493,0.136,3.738,0.216
		c0.324,0.019,0.646,0.051,0.959-0.081c0.912,0.393,1.828,0.781,2.736,1.186c0.23,0.102,0.575,0.129,0.469,0.535
		c-0.45,0.242-0.618,0.69-0.817,1.117c-0.214-0.816-0.95-0.977-1.579-1.296c-2.841-1.441-5.759-1.563-8.763-0.59
		c-0.411,0.133-0.792,0.306-1.164,0.513c-0.26,0.022-0.366-0.128-0.404-0.355C155.648,113.697,155.662,113.659,155.674,113.62z"/>
	<path fill="#9D271E" d="M150.891,133.427c-0.656-0.379-1.018-1.021-1.438-1.608c0.558-1.307,1.368-2.444,2.399-3.407
		c0.534-0.498,0.877-1.078,1.146-1.736c0.22-0.534,0.207-0.88-0.502-0.841c-0.11,0.006-0.184-0.062-0.207-0.175
		c0.607-0.007,1.215-0.015,1.822-0.023c0.178,0.107,0.378,0.117,0.575,0.113c0.942-0.024,1.164,0.226,1.026,1.161
		c-0.018,0.122-0.048,0.242-0.096,0.359c-0.33,0.416-0.752,0.738-1.213,0.982c-0.847,0.449-1.569,1.057-2.307,1.658
		c-0.876,0.714-1.3,1.557-1.064,2.691c0.044,0.219,0.082,0.445,0.017,0.67C151.016,133.342,150.963,133.395,150.891,133.427z"/>
	<path fill="#AA2F23" d="M155.552,127.221c-0.074-0.119-0.034-0.236-0.017-0.361c0.123-0.873-0.001-1.014-0.852-1.014
		c-0.215,0.002-0.469,0.098-0.572-0.211c0.339-0.033,0.675-0.066,1.014-0.102c0.654-0.062,1.313-0.281,1.95,0.072
		c0.578,0.287,0.815,0.894,1.236,1.326c0.017,0.213,0.006,0.422-0.103,0.613c-0.296,0.341-0.678,0.42-1.105,0.368
		C156.586,127.68,155.907,127.812,155.552,127.221z"/>
	<path fill="#673C34" d="M157.075,125.605c-0.648-0.068-1.307,0.135-1.95-0.072c0.039-0.088,0.079-0.176,0.118-0.264
		c0.289-0.041,0.578-0.08,0.867-0.121c0.71-0.291,1.458-0.049,2.183-0.16c0.232-0.002,0.467-0.008,0.662,0.15
		c0.109,0.143,0.154,0.275-0.045,0.383C158.298,125.551,157.687,125.579,157.075,125.605z"/>
	<path fill="#807A79" d="M174.693,124.807c-0.08-0.856-0.004-1.695,0.263-2.517c0.187-0.14,0.278-0.345,0.407-0.526
		c0.344-0.481,1.22-0.505,1.479,0c0.594,1.163,0.812,2.332-0.209,3.545c-0.723,0.857-1.328,0.764-1.787-0.246
		C174.807,124.973,174.744,124.891,174.693,124.807z"/>
	<path fill="#C00013" d="M170.703,132.111c-0.792,0.162-1.523,0.445-2.092,1.058c-0.592,0.64-0.891,1.363-0.662,2.243
		c-0.025,0.294-0.243,0.43-0.473,0.533c-2.99,1.353-6.082,1.98-9.35,1.24c-0.587-0.133-1.142-0.365-1.644-0.707
		c-0.09-0.097-0.16-0.207-0.147-0.336c0.116-1.156-0.534-1.822-1.465-2.312c-0.109-0.062-0.22-0.115-0.344-0.146
		c-0.164-0.041-0.375-0.049-0.402-0.27c-0.027-0.227,0.117-0.389,0.307-0.473c0.695-0.299,1.136-0.898,1.613-1.428
		c0.465-0.517,0.978-0.832,1.656-0.901c0.689-0.37,1.462-0.405,2.211-0.521c0.489-0.075,0.374,0.23,0.29,0.503
		c0.162,0.225,0.093,0.483,0.1,0.729c0.02,0.795,0.402,1.353,1.111,1.62c0.766,0.291,1.581,0.08,2.166-0.627
		c0.456-0.551,0.474-1.188,0.212-1.842c-0.075-0.191-0.352-0.326-0.18-0.594c0.548-0.38,1.213-0.47,1.82-0.48
		c1.629-0.029,3.301-0.122,4.696,0.996C170.32,130.971,170.514,131.542,170.703,132.111z"/>
	<path fill="#B31516" d="M157.703,130.615c-1.5,0.488-2.077,2.134-3.516,2.68c0.187,0.37,0.623-0.012,0.711,0.381
		c-0.653,0.338-1.41,0.254-2.082,0.52c-0.525-0.12-0.762-0.52-0.952-0.969c-0.085-0.774,0.239-1.451,0.692-2
		c0.631-0.76,1.321-1.496,2.256-1.922c0.439-0.199,0.781-0.531,1.15-0.826c0.391-0.314,0.787-0.617,1.31-0.68
		c0.312-0.083,0.624-0.168,0.936-0.253c0.092,0.041,0.186,0.082,0.277,0.122c0.086,0.725-0.073,1.336-0.752,1.736
		c-0.345,0.203-0.47,0.451-0.051,0.736C157.879,130.273,157.756,130.454,157.703,130.615z"/>
	<path fill="#040000" d="M163.611,129.884c0.638,0.896,0.695,1.873,0.152,2.566c-0.576,0.733-1.73,1.017-2.583,0.631
		c-0.893-0.406-1.201-1.19-0.977-2.483C161.305,129.238,162.228,129.046,163.611,129.884z"/>
	<path fill="#C76B51" d="M168.08,124.455c-0.023,0.084-0.048,0.167-0.071,0.251c-0.04,0.644-0.546,0.565-0.944,0.569
		c-1.672,0.012-3.342,0.057-5.013,0.039c-0.519-0.004-1.049,0.129-1.561-0.062c-0.672-0.436-1.373-0.837-1.875-1.486
		c-0.138-0.209-0.302-0.399-0.433-0.615c-0.889-1.455-0.65-2.818,0.726-3.826c0.459-0.336,0.818-0.729,1.111-1.199
		c0.104-0.077,0.212-0.123,0.327-0.02c0.095,0.43-0.187,0.779-0.248,1.176c-0.037,0.115-0.094,0.218-0.181,0.305
		c-0.178,0.137-0.385,0.232-0.558,0.381c-0.823,0.709-0.921,1.594-0.259,2.46c0.693,0.904,1.658,1.394,2.734,1.607
		c1.875,0.366,3.748,0.108,5.612-0.175c0.383-0.059,0.507-0.379,0.691-0.639c0.122-0.102,0.237-0.264,0.404-0.06
		C168.708,123.709,168.068,123.964,168.08,124.455z"/>
	<path fill="#C14E38" d="M168.02,125.829c-0.554,0.485-1.263,0.416-1.912,0.478c-1.816,0.168-3.634,0.396-5.47,0.164
		c-0.659-0.082-1.153-0.396-1.591-0.854c0.271-0.307,0.646-0.245,0.984-0.248c2.33-0.029,4.66-0.02,6.988-0.121
		c0.342-0.016,0.711-0.057,0.979,0.25C168.005,125.607,168.012,125.718,168.02,125.829z"/>
	<path fill="#CA563D" d="M170.721,121.43c-0.14,0.07-0.281,0.143-0.422,0.213c-0.031-0.024-0.062-0.05-0.093-0.076
		c-0.427-1.396-1.608-1.883-2.817-2.327c-1.152-0.423-2.336-0.701-3.57-0.716c-0.082-0.01-0.159-0.035-0.232-0.078
		c-0.373-0.443-1.058-0.478-1.359-1.019c0.32-0.339,0.75-0.256,1.128-0.239c1.953,0.08,3.821,0.563,5.623,1.308
		c0.469,0.192,0.873,0.496,1.213,0.875C170.512,120.018,170.959,120.639,170.721,121.43z"/>
	<path fill="#7F5549" d="M167.996,125.498c-1.415-0.202-2.828,0.037-4.244,0.02c-1.567-0.021-3.138,0.062-4.707,0.101
		c-0.044-0.032-0.091-0.062-0.137-0.095c0.054-0.107,0.061-0.211-0.017-0.312c0.533-0.473,1.114-0.154,1.678-0.1
		c2.29-0.014,4.58-0.026,6.871-0.032c0.281-0.001,0.479-0.097,0.567-0.373C168.005,124.971,168.001,125.234,167.996,125.498z"/>
	<path fill="#494140" d="M168.08,124.455c-0.066-0.503,0.283-0.881,0.391-1.33c0.08-0.596,0.51-0.936,0.93-1.284
		c0.308-0.114,0.552-0.44,0.939-0.286c-0.013,0.03-0.025,0.06-0.041,0.088c-0.195,0.217-0.211,0.471-0.22,0.756
		c-0.033,1.011-0.504,1.562-1.504,1.699C168.293,124.139,168.193,124.266,168.08,124.455z"/>
	<path fill="#BA3C2B" d="M170.721,121.43c-0.044-0.652-0.377-1.228-0.513-1.854c-0.276-0.438-0.039-0.903-0.083-1.354
		c0.268-0.004,0.529-0.009,0.796-0.013c0.11,1.04,0.222,2.081,0.334,3.12C171.076,121.363,170.898,121.396,170.721,121.43z"/>
	<path fill="#B92E22" d="M156.517,136.355c2.595,1.268,5.274,1.148,7.979,0.461c1.211-0.31,2.4-0.693,3.453-1.404
		c0.148,0.173,0.298,0.346,0.445,0.518c-0.072,0.231-0.26,0.332-0.455,0.461c-1.222,0.786-2.653,1.086-3.94,1.721
		c-2.43,0.727-4.826,0.459-7.195-0.283c-0.757-0.238-0.842-0.467-0.572-1.229C156.302,136.489,156.385,136.395,156.517,136.355z"/>
	<path fill="#AD523C" d="M159.871,139.286c-1.539,0.271-3.078,0.272-4.572-0.19c-1.083-0.336-1.931-1.099-2.773-1.837
		c-0.259-0.383-0.322-0.731,0.17-0.985c0.13,0.021,0.24,0.084,0.312,0.188c0.473,0.69,1.16,0.917,1.955,0.912
		c0.201,0,0.402,0.006,0.584,0.112c1.165,0.604,2.426,0.945,3.654,1.375C159.457,138.953,159.746,138.986,159.871,139.286z"/>
	<path fill="#B24431" d="M159.871,139.286c-1.303-0.416-2.632-0.761-3.873-1.353c-0.236-0.109-0.557-0.131-0.611-0.479
		c0.292-0.339,0.501-0.777,1.017-0.851c-0.264,0.771-0.147,0.888,0.714,1.139c2.201,0.636,4.417,0.742,6.664,0.326
		c0.067-0.014,0.146,0.027,0.218,0.041c-0.613,0.527-1.429,0.656-2.104,1.062C161.225,139.292,160.553,139.377,159.871,139.286z"/>
	<path fill="#AB3F2E" d="M152.599,136.312c-0.038,0.312-0.235,0.615-0.073,0.945c-0.84-0.521-1.379-1.307-1.876-2.128
		c0.001-0.416,0.004-0.829,0.557-0.909c0.069-0.033,0.166-0.066,0.215-0.021c0.418,0.369,0.88,0.398,1.379,0.205
		C152.745,135.041,152.707,135.682,152.599,136.312z"/>
	<path fill="#AF281F" d="M152.766,134.402c-0.646,1.024-1.054,0.007-1.56-0.182c-0.104-0.265-0.21-0.531-0.315-0.795
		c0.021-0.046,0.042-0.092,0.063-0.14c0.33-0.146,0.656-0.331,1.01-0.056c0.308,0.309,0.492,0.744,0.943,0.899
		C152.927,134.257,152.884,134.35,152.766,134.402z"/>
	<path fill="#A9392A" d="M158.278,125.115c-0.721,0.144-1.446,0.085-2.169,0.033c-0.186-0.647-0.77-0.935-1.22-1.344
		c0.032-0.746-0.509-1.443-0.193-2.217c-0.014-0.079,0.017-0.139,0.089-0.175c0.074-0.006,0.146,0.007,0.216,0.037
		c0.549,0.524,1.004,1.14,1.579,1.641C157.099,123.809,157.982,124.216,158.278,125.115z"/>
	<path fill="#040000" d="M155.632,113.734c0.104,0.123,0.208,0.246,0.312,0.371c0.664,0.729,0.59,1.842-0.221,2.603
		c-0.501,0.472-1.079,0.83-1.822,0.745c-0.707-0.18-1.456-0.301-1.62-1.208c0.007-0.3-0.248-0.552-0.162-0.866
		c0.199-0.682,0.441-1.337,1.091-1.738C154.039,113.13,154.841,113.29,155.632,113.734z"/>
	<path fill="#B0201A" d="M152.28,116.245c0.381,0.604,0.957,0.917,1.637,1.065c-0.007,0.197-0.215,0.207-0.303,0.328
		c-0.03,1.137,0.504,2.107,0.916,3.113c0.094,0.227,0.294,0.415,0.226,0.691c-0.02,0.05-0.041,0.096-0.06,0.145
		c-1.397-0.281-2.72-0.716-3.302-2.189c-0.386-0.976-0.24-1.957,0.258-2.875C151.772,116.302,151.987,116.148,152.28,116.245z"/>
	<path fill="#C01F1A" d="M153.523,117.461c0.13-0.049,0.261-0.1,0.393-0.148c0.77-0.09,1.45-0.367,1.913-1.019
		c0.492-0.696,0.544-1.435,0.114-2.188c0.471-0.871,1.427-0.778,2.172-0.988c3.227-0.91,6.229-0.104,9.119,1.379
		c0.506,0.261,0.177,0.658,0.308,0.969c-0.022,0.569,0.244,1.044,0.5,1.523c-0.25,0.188-0.522,0.113-0.79,0.058
		c-2.223-0.461-4.469-0.771-6.724-1.015c-1.32-0.159-2.516,0.24-3.66,0.84c-0.642,0.336-1.257,0.725-1.943,0.975
		c-0.333,0.121-0.676,0.193-1.03,0.152C153.583,117.96,153.377,117.826,153.523,117.461z"/>
	<path fill="#C53B2A" d="M160.464,115.857c2.309,0.146,4.582,0.553,6.849,0.99c0.242,0.047,0.485,0.092,0.729,0.141
		c0.58,0.604,1.275,1.012,2.083,1.232c0.474,0.426-0.034,0.906,0.083,1.354c-2.18-1.658-4.709-2.106-7.362-2.135
		c-0.195-0.002-0.391-0.018-0.585-0.025c-0.195,0.188-0.427,0.146-0.658,0.107c-1.784-0.447-3.148,0.297-4.343,1.524
		c-0.223,0.229-0.377,0.534-0.701,0.657c-0.358,0.07-0.712,0.125-0.999-0.188c-0.068-0.514,0.181-0.938,0.453-1.317
		C157.1,116.682,158.557,115.83,160.464,115.857z"/>
	<path fill="#A71C18" d="M151.964,133.232c-0.339-0.049-0.666,0.175-1.01,0.055c-0.472-1.573-0.012-2.749,1.298-3.788
		c1.056-0.84,2.285-1.403,3.3-2.278c0.574,0.193,1.147,0.387,1.72,0.578c-0.995,0.526-1.812,1.312-2.77,1.907
		C153.236,130.494,152.109,131.559,151.964,133.232z"/>
	<path fill="#B7523B" d="M158.278,125.115c-0.584-0.66-1.285-1.215-1.801-1.938c-0.256-0.458-0.344-0.915,0-1.372
		c0.234-0.177,0.462-0.099,0.688,0.021c0.639,0.511,0.93,1.323,1.569,1.836c0.52,0.6,1.221,0.97,1.835,1.45
		c-0.56,0.031-1.119,0.066-1.678,0.101C158.687,125.18,158.482,125.148,158.278,125.115z"/>
	<path fill="#948F8E" d="M175.257,122.359c0.068-0.418,0.37-0.661,0.822-0.648c0.476,0.014,0.661,0.439,0.83,0.78
		c0.431,0.862,0.118,2.183-0.61,2.813c-0.607,0.528-1.094,0.416-1.23-0.387C174.925,124.088,174.818,123.218,175.257,122.359z"/>
	<path fill="#090000" d="M152.766,134.402c0.047-0.09,0.095-0.18,0.142-0.271c0.592-0.467,1.288-0.473,1.991-0.456
		c1.392,0.719,1.749,1.311,1.618,2.68c-0.038,0.082-0.075,0.166-0.113,0.248c-0.3,0.332-0.583,0.684-1.017,0.854
		c-1.238,0.369-2.083-0.218-2.788-1.143C152.365,135.65,152.474,135.02,152.766,134.402z"/>
	<path fill="#D78D71" d="M169.536,121.952c-0.354,0.39-0.71,0.78-1.065,1.173c-0.076,0.068-0.15,0.137-0.227,0.208
		c-2.492,0.615-4.987,0.916-7.462-0.062c-0.818-0.322-1.366-0.935-1.52-1.826c-0.113-0.663,0.178-1.066,0.848-1.239
		c0.155,0.058,0.283,0.155,0.407,0.262c0.123,0.109,0.205,0.239,0.208,0.41c-0.141,0.917,0.193,1.511,1.104,1.729
		c1.762,0.42,3.539,0.354,5.3-0.035c0.381-0.086,0.832-0.227,0.852-0.725c0.019-0.466-0.351-0.688-0.729-0.865
		c-0.82-0.387-1.654-0.725-2.561-0.854c-0.322-0.044-0.604-0.061-0.741,0.311c-0.142,0.121-0.245,0.385-0.485,0.125
		c-0.054-0.479,0.225-0.848,0.411-1.246c0.259-0.381,0.647-0.34,1.019-0.289c1.379,0.195,2.662,0.688,3.857,1.384
		C169.492,120.844,169.73,121.396,169.536,121.952z"/>
	<path fill="#CF7D61" d="M160.155,120.328c-0.69,0.255-0.88,0.609-0.673,1.295c0.366,1.202,1.37,1.621,2.44,1.844
		c1.809,0.381,3.628,0.229,5.436-0.089c0.295-0.051,0.584-0.142,0.887-0.045c-0.115,0.623-0.555,0.694-1.104,0.769
		c-1.767,0.237-3.533,0.475-5.306,0.129c-1.211-0.235-2.256-0.795-3.006-1.822c-0.799-1.098-0.249-2.614,1.047-2.864
		C160.223,119.714,160.376,119.953,160.155,120.328z"/>
	<path fill="#C64E38" d="M157.156,121.99c-0.201-0.062-0.381-0.24-0.614-0.1c-0.504-0.514-0.501-1.4,0.008-2.3
		c0.611-0.72,1.222-1.422,2.097-1.864c0.968-0.492,1.942-0.719,3-0.369c-0.366,0.394-0.84,0.586-1.34,0.732
		c-0.063,0.029-0.128,0.061-0.19,0.09c-0.46,0.297-1.003,0.445-1.438,0.787c-0.781,0.611-1.272,1.387-1.342,2.397
		C157.32,121.583,157.353,121.82,157.156,121.99z"/>
	<path fill="#39312E" d="M160.306,118.091c0.366-0.394,0.846-0.577,1.34-0.731c0.205,0.019,0.41,0.037,0.615,0.057
		c0.492,0.279,1.135,0.354,1.366,0.992c0.168,0.326,0.059,0.58-0.289,0.588c-1.048,0.021-2.073,0.156-3.083,0.441
		c-0.123,0.035-0.237-0.054-0.301-0.174C159.88,118.814,160.142,118.467,160.306,118.091z"/>
	<path fill="#C96247" d="M157.156,121.99c-0.317-1.975,1.479-3.754,2.96-3.811c-0.186,0.496-0.443,0.875-0.942,1.185
		c-1.485,0.921-1.722,2.415-0.716,3.858c0.099,0.142,0.186,0.289,0.277,0.438C157.992,123.309,157.64,122.585,157.156,121.99z"/>
	<path fill="#524B49" d="M159.954,119.264c0.863-0.002,1.644-0.498,2.525-0.41c0.219,0.021,0.453-0.051,0.664-0.004
		c0.412,0.098,0.453-0.152,0.483-0.441c0.039,0.025,0.08,0.048,0.123,0.068c0.253,0.119,0.276,0.338,0.255,0.578
		c-0.077,0.684-0.416,0.983-1.145,0.937c-0.55-0.035-1.094,0.155-1.588,0.424c-0.273,0.146-0.54,0.278-0.854,0.129
		c-0.138-0.01-0.224-0.085-0.264-0.215c0.006-0.3-0.156-0.535-0.279-0.785C159.903,119.449,159.929,119.355,159.954,119.264z"/>
	<path fill="#D16F53" d="M163.869,118.996c-0.04-0.172-0.078-0.348-0.119-0.521c0.419-0.359,0.852-0.095,1.286-0.045
		c1.396,0.154,2.659,0.691,3.917,1.262c0.809,0.367,1.163,1.063,1.387,1.863c-0.268,0.131-0.533,0.264-0.804,0.396
		c0.114-0.674-0.399-1.083-0.812-1.314c-1.298-0.729-2.666-1.328-4.191-1.428c-0.206-0.014-0.401-0.043-0.516,0.184
		C163.764,119.341,163.979,119.105,163.869,118.996z"/>
	<path fill="#BB291F" d="M160.464,115.857c-1.67,0.168-3.045,0.867-4.112,2.188c-0.359,0.447-0.501,0.978-0.752,1.461
		c0.066,0.772-0.338,1.379-0.7,1.999c-0.048-0.02-0.097-0.041-0.145-0.062c-0.733-1.027-1.037-2.236-1.382-3.422
		c-0.051-0.174-0.183-0.455,0.15-0.562c0.002,0.417,0.286,0.396,0.576,0.376c0.967-0.059,1.741-0.597,2.53-1.062
		c1.036-0.609,2.171-0.838,3.329-1.014C160.119,115.738,160.295,115.823,160.464,115.857z"/>
	<path fill="#BB3F2D" d="M154.9,121.507c-0.008-0.751,0.479-1.325,0.7-1.999c0.317,0.026,0.632,0.057,0.949,0.084
		c-0.021,0.766-0.437,1.529-0.008,2.299c-0.21,0.42-0.05,0.856-0.063,1.286C155.846,122.721,155.36,122.126,154.9,121.507z"/>
	<path fill="#A6A2A1" d="M175.391,122.797c0.11-0.33,0.291-0.607,0.672-0.615c0.41-0.011,0.414,0.375,0.533,0.629
		c0.34,0.733,0.211,1.416-0.298,2.013c-0.343,0.405-0.836,0.315-0.979-0.198C175.146,124.021,175.148,123.396,175.391,122.797z"/>
	<path fill="#DA967A" d="M163.831,120.277c0.099-0.297,0.254-0.449,0.61-0.401c1.137,0.151,2.181,0.569,3.193,1.069
		c0.383,0.188,0.622,0.529,0.592,0.975c-0.029,0.398-0.322,0.612-0.676,0.717c-1.969,0.578-3.965,0.62-5.936,0.108
		c-1.043-0.271-1.365-1.058-0.98-1.925c0.453-0.034,0.868,0.078,1.245,0.328c-0.063,0.617,0.26,0.875,0.837,0.975
		c1.129,0.195,2.25,0.209,3.368-0.04c0.22-0.049,0.478-0.093,0.524-0.358c0.061-0.312-0.198-0.437-0.426-0.543
		c-0.498-0.236-1.006-0.451-1.555-0.562C164.35,120.562,164.016,120.582,163.831,120.277z"/>
	<path fill="#DEA186" d="M163.831,120.277c0.899,0.103,1.744,0.385,2.562,0.77c0.297,0.141,0.541,0.312,0.527,0.651
		c-0.016,0.358-0.309,0.464-0.618,0.54c-1.309,0.318-2.62,0.277-3.93,0.021c-0.271-0.054-0.499-0.209-0.684-0.432
		c-0.288-0.343-0.088-0.468,0.221-0.562c0.526-0.233,1.039-0.506,1.603-0.646C163.716,120.596,163.75,120.414,163.831,120.277z"/>
	<path fill="#6B6260" d="M163.512,120.619c-0.473,0.371-0.974,0.666-1.603,0.646c-0.428-0.141-0.889-0.185-1.273-0.445
		c-0.073-0.094-0.144-0.188-0.217-0.277c0.831-0.229,1.56-0.818,2.468-0.753c0.61,0.042,1-0.099,0.982-0.794
		c0.05,0.132,0.1,0.266,0.148,0.396C163.85,119.802,163.682,120.21,163.512,120.619z"/>
</g>
</svg>
