<?xml version="1.0" encoding="utf-8"?>
<!-- Generator: Adobe Illustrator 16.0.4, SVG Export Plug-In . SVG Version: 6.00 Build 0)  -->
<!DOCTYPE svg PUBLIC "-//W3C//DTD SVG 1.0//EN" "http://www.w3.org/TR/2001/REC-SVG-20010904/DTD/svg10.dtd">
<svg version="1.0" id="Calque_2" xmlns="http://www.w3.org/2000/svg" xmlns:xlink="http://www.w3.org/1999/xlink" x="0px" y="0px"
	 width="325px" height="225px" viewBox="0 0 325 225" enable-background="new 0 0 325 225" xml:space="preserve">
<g>
	<g>
		<g>
			<path fill="#909090" d="M93.423,101.164l3.942-2.764l4.011,40.893l0.059-0.008l4.226-46.998l4.622-3.58v61.804l-2.78,0.085
				V98.404l-0.062,0.043l-4.757,52.27l-2.534,0.055l-4.352-44.79l-0.053,0.033v44.829l-2.321,0.029L93.423,101.164L93.423,101.164z"
				/>
		</g>
		<g>
			<path fill="#909090" d="M130.745,110.485c0,19.726-1.322,40.712-8.862,40.968c-6.949,0.182-8.062-17.053-8.062-33.314
				c0-16.264,1.113-34.438,8.062-40.352C129.422,71.046,130.745,90.756,130.745,110.485z M116.956,116.797
				c0,15.475,0.56,27.98,4.927,27.506c4.596-0.527,5.214-14.709,5.214-32.085c0-17.373-0.618-30.975-5.214-27.284
				C117.515,88.332,116.956,101.322,116.956,116.797z"/>
		</g>
	</g>
	<g>
		<g>
			<path fill="#AFC631" d="M162.065,85.453l-5.457-2.172l-12.506,55.193l-0.116-0.01V78.259l-5.14-2.046v74.12l7.001,0.069
				l11.938-53.934l0.099,0.035v54.018l4.181,0.041V85.453L162.065,85.453z"/>
		</g>
	</g>
	<g>
		<path fill="#B2B2B3" d="M93.631,94.718c-0.319,0-0.632-0.152-0.826-0.435c-0.312-0.456-0.196-1.078,0.259-1.39l39.084-26.8
			c0.277-0.19,0.631-0.228,0.943-0.102l30.15,12.283c0.512,0.208,0.757,0.792,0.549,1.304c-0.209,0.51-0.793,0.756-1.304,0.549
			l-29.651-12.08l-38.64,26.495C94.023,94.661,93.826,94.718,93.631,94.718z"/>
	</g>
	<g>
		<path fill="#B2B2B3" d="M232.377,152.786c-0.553,0-1-0.448-1-1v-44.903l-32.253-17.076l-32.493,14.871
			c-0.502,0.231-1.096,0.01-1.326-0.493c-0.229-0.502-0.009-1.096,0.494-1.325l32.941-15.076c0.283-0.13,0.609-0.12,0.884,0.025
			l33.222,17.588c0.326,0.173,0.531,0.513,0.531,0.884v45.505C233.377,152.338,232.93,152.786,232.377,152.786z"/>
	</g>
	<g>
		<g>
			<path d="M169.074,110.757l-2.541,1.023v-3.54l7.9-3.468v3.83l-2.562,1.03v17.078l-2.797,0.654V110.757z"/>
		</g>
		<g>
			<path d="M175.91,104.445c0.875-0.641,1.984-1.291,3.053-1.761c1.537-0.676,2.926-0.947,3.844,0.019
				c0.875,0.905,1.153,2.344,1.153,4.351c0,2.488-0.769,4.996-2.222,6.542v0.068c0.982,0.324,1.475,1.605,1.752,4.031
				c0.277,2.509,0.662,5.277,0.918,6.084l-2.926,0.684c-0.191-0.596-0.512-2.809-0.728-5.27c-0.256-2.709-0.703-3.371-1.622-3.082
				l-0.427,0.135v8.865l-2.797,0.654L175.91,104.445L175.91,104.445z M178.707,112.917l0.514-0.178
				c1.215-0.422,1.898-2.209,1.898-4.196c0-1.955-0.49-3.103-1.729-2.662c-0.258,0.105-0.535,0.25-0.685,0.41L178.707,112.917
				L178.707,112.917z"/>
		</g>
		<g>
			<path d="M188.232,117.361l-0.641,5.672l-2.712,0.635l3.118-24.849l3.352-1.471l2.799,24.151l-2.733,0.64l-0.599-5.503
				L188.232,117.361z M190.561,112.978l-0.47-4.989c-0.149-1.439-0.341-3.838-0.47-5.385l-0.064,0.025
				c-0.147,1.69-0.363,4.266-0.512,5.73l-0.535,5.257L190.561,112.978z"/>
		</g>
		<g>
			<path d="M169.148,150.464l-2.834-17.411l2.738-0.496l0.905,7.639c0.209,1.939,0.474,4.128,0.644,6.248l0.037-0.002
				c0.17-2.17,0.379-4.377,0.604-6.461l0.868-7.979l2.721-0.493l-2.909,18.955H169.148z"/>
		</g>
		<g>
			<path d="M177.633,146.018l-0.566,4.446h-2.399l2.758-19.425l2.968-0.538l2.475,19.963h-2.418l-0.529-4.542L177.633,146.018z
				 M179.691,142.93l-0.416-4.104c-0.133-1.188-0.303-3.156-0.416-4.425l-0.058,0.009c-0.131,1.332-0.319,3.364-0.45,4.515
				l-0.474,4.131L179.691,142.93z"/>
		</g>
		<g>
			<path d="M186.74,129.35v21.114h-2.477v-20.666L186.74,129.35z"/>
		</g>
		<g>
			<path d="M188.951,128.948l2.475-0.45v18.35l3.248-0.098v3.714h-5.723V128.948z"/>
		</g>
	</g>
	<g>
		<path fill="#B2B2B3" d="M244.104,154.461H127.411c-0.552,0-1-0.447-1-1c0-0.552,0.448-1,1-1h116.692c0.551,0,1,0.448,1,1
			C245.104,154.014,244.654,154.461,244.104,154.461z"/>
	</g>
	<g>
		<path fill="#B2B2B3" d="M197.387,152.229c-0.553,0-1-0.449-1-1V90.03c0-0.552,0.447-1,1-1s1,0.448,1,1v61.197
			C198.387,151.779,197.938,152.229,197.387,152.229z"/>
	</g>
</g>
</svg>
