<?xml version="1.0" encoding="utf-8"?>
<!-- Generator: Adobe Illustrator 16.0.4, SVG Export Plug-In . SVG Version: 6.00 Build 0)  -->
<!DOCTYPE svg PUBLIC "-//W3C//DTD SVG 1.1//EN" "http://www.w3.org/Graphics/SVG/1.1/DTD/svg11.dtd">
<svg version="1.1" xmlns="http://www.w3.org/2000/svg" xmlns:xlink="http://www.w3.org/1999/xlink" x="0px" y="0px" width="325px"
	 height="225px" viewBox="0 0 325 225" enable-background="new 0 0 325 225" xml:space="preserve">
<g id="Calque_2">
	<g>
		<g>
			<path fill-rule="evenodd" clip-rule="evenodd" fill="#030000" d="M349.895,238.519c-2.649-0.97-5.3-1.936-7.952-2.893
				c-78.731-28.285-159.69-40.14-243.726-25.729c-39.491,6.74-77.244,17.538-113.749,31.288
				c46.958,5.962,93.833,12.227,140.833,17.643c5.393-0.023,10.786-0.045,16.179-0.058c66.931-0.162,133.771,2.096,200.65,4.323
				c2.75,0.088,5.5,0.17,8.251,0.255C350.252,255.069,350.095,246.793,349.895,238.519z"/>
			<path fill-rule="evenodd" clip-rule="evenodd" fill="#292928" d="M349.027,210.152c-7.455-1.694-14.872-3.499-22.013-6.205
				c-14.339-3.446-29.06-5.943-42.315-12.775c-78.986-5.866-157.743-5.086-236.46,4.864c-25.406,7.701-51.025,14.846-76.562,22.384
				c-0.17,7.032-0.321,14.064-0.459,21.097c10.126,1.271,20.249,2.558,30.368,3.854c6.395-2.313,12.822-4.575,19.315-6.73
				c109.471-36.277,215.71-30.509,322.264,7.098c2.307,0.814,4.606,1.644,6.9,2.485
				C349.809,234.194,349.471,222.169,349.027,210.152z"/>
			<path fill-rule="evenodd" clip-rule="evenodd" fill="#1F1A18" d="M125.3,258.827c5.393-0.023,10.786-0.045,16.179-0.058
				c4.617-0.011,9.232,0.016,13.848,0.026c0.759-0.394,1.52-0.777,2.278-1.173c28.358-10.765,55.892-5.479,83.204,2.39
				c27.657,0.675,55.31,1.556,82.967,2.472c-34.823-15.94-71.982-24.689-110.344-30.257c-45.588-6.547-85.632-0.672-119.331,22.881
				C104.497,256.379,114.895,257.628,125.3,258.827z"/>
			<path fill-rule="evenodd" clip-rule="evenodd" fill="#4B4544" d="M141.479,258.77c9.78-0.023,19.557,0.018,29.333,0.09
				c-0.048-1.085-0.321-2.275-0.883-3.602c-4.199-4.742-9.426-5.817-15.314-4.105c-4.863,2.549-9.739,5.084-14.614,7.622
				C140.494,258.773,140.986,258.771,141.479,258.77z"/>
			<path fill-rule="evenodd" clip-rule="evenodd" fill="#35302E" d="M269.872,260.792c-2.382-0.563-4.79-1.065-7.224-1.507
				c-4.251-1.684-8.605-2.568-12.766,0.361c0.057,0.198,0.122,0.407,0.182,0.608C256.667,260.427,263.27,260.602,269.872,260.792z"
				/>
			<path fill-rule="evenodd" clip-rule="evenodd" fill="#8C2119" d="M34.855,181.765c-20.155-2.96-40.028-1.864-59.838,0.417
				c-0.758,2.897-1.629,5.775-2.603,8.638c-0.327,11.578-0.636,23.157-0.901,34.736C-3,219,22.487,212.452,45.707,199.118
				C42.092,193.374,38.569,187.56,34.855,181.765z"/>
			<path fill-rule="evenodd" clip-rule="evenodd" fill="#972019" d="M346.355,158.015c-16.546-0.951-33.074-0.628-49.583,3.082
				c-3.293,3.005-4.786,6.672-4.835,11.117c-2.852,7.145-5.643,14.269-8.516,21.45c7.946,16.667,24.738,11.354,37.862,15.363
				c9.222-0.188,18.441-0.616,27.663-1.048C348.314,191.307,347.479,174.649,346.355,158.015z"/>
			<path fill-rule="evenodd" clip-rule="evenodd" fill="#801F18" d="M348.626,199.963c-9.327,1.231-18.496,3.865-27.342,9.064
				c9.355,3.003,18.69,6.033,28.023,9.069C349.108,212.05,348.881,206.006,348.626,199.963z"/>
			<path fill-rule="evenodd" clip-rule="evenodd" fill="#35302E" d="M172.815,258.879c25.733,0.205,51.456,0.705,77.177,1.374
				l-0.109-0.606c-30.429-17.954-62.307-19.938-95.268-8.494c5.242,2.301,10.555,4.464,15.766,6.604
				C171.192,258.142,172.004,258.516,172.815,258.879z"/>
			<path fill-rule="evenodd" clip-rule="evenodd" fill="#352F2E" d="M281.739,261.148c-6.021-1.434-12.387-2.057-19.091-1.863
				c1.104,0.464,2.201,0.929,3.304,1.393C271.215,260.827,276.477,260.988,281.739,261.148z"/>
			<path fill-rule="evenodd" clip-rule="evenodd" fill="#5D5655" d="M225.672,259.677c-18.45-0.634-36.9-1.266-55.291-1.921
				c-0.413,0.367-0.837,0.723-1.253,1.087C187.98,258.972,206.827,259.271,225.672,259.677z"/>
			<path fill-rule="evenodd" clip-rule="evenodd" fill="#BD3224" d="M104.237-19.835c-1.486,0.017-2.973,0.023-4.46,0.042
				c-9.767,0.119-19.534,0.273-29.3,0.443c1.219,21.523,2.443,43.046,3.846,64.548c9.355-3.418,17.901-8.473,24.745-15.858
				c11.208-7.348,7.564-18.212,6.818-28.34C105.346-5.945,104.795-12.89,104.237-19.835z"/>
			<path fill-rule="evenodd" clip-rule="evenodd" fill="#B83C2B" d="M99.777-19.793c-1.279,0.016-2.559,0.039-3.837,0.056
				c1.041,16.35,2.076,32.704,3.128,49.078c6.608-1.54,13.192-2.926,19.869-4.484c3.714-2.12,7.396-4.468,11.104-6.709
				c-2.856-12.672-5.291-25.394-7.39-38.153C115.025-19.955,107.401-19.887,99.777-19.793z"/>
			<path fill-rule="evenodd" clip-rule="evenodd" fill="#A11A17" d="M27.184,127.899c-16.292,3.961-32.371,9.105-48.524,13.821
				c1.175,16.278-0.712,32.058-5.664,47.336c18.625-2.342,37.349-3.553,56.359-1.268c1.56,0.294,3.695-3.936,5.5-6.024
				C27.557,164.534,30.31,145.757,27.184,127.899z"/>
			<path fill-rule="evenodd" clip-rule="evenodd" fill="#B21717" d="M35.425,94.26c-19.231-0.094-38.133,4.78-57.229,5.967
				c0.389,12.896,0.58,25.793,0.246,38.698c0.332,3.556,0.504,7.086,0.545,10.595c17.168-3.771,33.752-9.342,48.197-21.62
				C29.398,116.475,37.654,106.605,35.425,94.26z"/>
			<path fill-rule="evenodd" clip-rule="evenodd" fill="#A9261D" d="M346.858,165.892c-0.811-12.997-1.786-25.98-2.961-38.948
				c-14.276,2.417-28.354,6.225-42.124,12.157c-5.951,7.05-2.116,15.719-3.809,23.396
				C314.248,163.628,330.55,164.771,346.858,165.892z"/>
			<path fill-rule="evenodd" clip-rule="evenodd" fill="#C00013" d="M80.902,21.904C79.234,8.139,77.98-5.654,76.958-19.462
				c-31.055,0.507-62.105,1.246-93.155,2.002c-0.916,2.093-1.792,4.2-2.631,6.321c-2.664,12.452-4.277,25.099-5.206,37.812
				c0.026,26.695,1.761,53.366,2.406,80.051c19.523,2.971,38.441-2.108,57.054-12.464c8.912-19.562,21.982-35.889,38.898-49.062
				C82.142,39.057,81.961,30.578,80.902,21.904z"/>
			<path fill-rule="evenodd" clip-rule="evenodd" fill="#C76B51" d="M204.468-4.233c-0.826-5.134-1.644-10.271-2.451-15.411
				c-0.963-0.018-1.926-0.042-2.889-0.058c-16.143-0.262-32.287-0.382-48.432-0.394c0.01,0.604,0.025,1.209,0.035,1.813
				c0.238,15.054-2.458,34.333,21.878,35.57c3.234,0.895,6.331,1.782,9.556,2.631c18.614-0.595,28.491,23.547,49.207,17.114
				c7.659-6.369,1.481-10.692-2.402-15.296C219.022,14.781,206.813,10.23,204.468-4.233z"/>
			<path fill-rule="evenodd" clip-rule="evenodd" fill="#C14E38" d="M151.696-20.092c-12.51-0.013-25.02,0.053-37.529,0.164
				c1.864,13.577,5.76,26.716,15.873,38.074c4.186-0.308,8.362-0.672,12.54-1.042c11.57-10.204,9.79-24.216,9.118-37.171
				C151.697-20.075,151.697-20.083,151.696-20.092z"/>
			<path fill-rule="evenodd" clip-rule="evenodd" fill="#CA563D" d="M338.483,78.292c-0.302-2.253-0.62-4.506-0.945-6.759
				c-11.562,12.146-26.089,21.884-45.186,27.889c-0.979,1.206-1.89,2.383-2.781,3.564c2.697,5.336,5.477,10.696,8.178,15.929
				c16.603,4.832,31.161,1.746,44.994-4.073C341.517,102.642,340.112,90.457,338.483,78.292z"/>
			<path fill-rule="evenodd" clip-rule="evenodd" fill="#7F5549" d="M158.238-3.984c-0.064-5.36-0.14-10.721-0.207-16.082
				c-4.286-0.012-8.571-0.025-12.857-0.022c-0.19,12.396-0.946,24.793-2.595,37.192c9.971,0.057,20.016,0.103,30.028,0.183
				C162.082,13.992,158.398,6.612,158.238-3.984z"/>
			<path fill-rule="evenodd" clip-rule="evenodd" fill="#BA3C2B" d="M341.916,106.938c-14.35,5.263-28.646,10.797-44.167,11.978
				c1.374,6.686,2.636,13.436,4.024,20.186c14.237-1.688,28.498-3.35,42.757-5.014C343.76,125.028,342.887,115.979,341.916,106.938z
				"/>
			<path fill-rule="evenodd" clip-rule="evenodd" fill="#D78D71" d="M328.71-12.589c0.034-1.397,0.067-2.789,0.102-4.18
				c-4.495,0.011-8.989,0-13.483-0.032c-0.618,1.361-1.237,2.722-1.863,4.081c-6.576,14.419-14.908,28.456-32.538,27.961
				c-18.958-0.571-24.362-17.621-27.769-32.044c-0.108-0.47-0.208-0.939-0.315-1.409c-12.891-0.421-25.78-0.85-38.673-1.17
				c3.103,15.038,6.648,30.075,10.505,45.109c2.763,2.858,5.448,5.625,8.021,8.464c14.978,13.415,29.922,26.76,44.808,40.028
				c20.335,6.877,40.414-1.409,56.313-27.23C330.825,27.234,328.218,7.429,328.71-12.589z"/>
			<path fill-rule="evenodd" clip-rule="evenodd" fill="#CF7D61" d="M220.683-19.214c-7.185-0.198-14.369-0.371-21.555-0.487
				c-1.497-0.024-2.993-0.032-4.49-0.054c0.188,1.31,0.377,2.621,0.565,3.931c2.938,20.802,5.912,37.478,29.472,41.55
				c3.584-11.438,0.078-22.399-1.949-33.537C222.021-11.61,221.345-15.412,220.683-19.214z"/>
			<path fill-rule="evenodd" clip-rule="evenodd" fill="#D16F53" d="M338.483,78.292c-1.98-14.792-4.545-29.565-6.56-44.387
				c-1.621,3.038-3.261,6.067-4.922,9.083c-8.603,15.667-23.919,35.318-49.498,31.229c5.118,10.104,10.286,20.184,15.376,30.286
				c17.195-4.971,33.108-11.585,46.142-22.02C338.84,81.087,338.67,79.688,338.483,78.292z"/>
			<path fill-rule="evenodd" clip-rule="evenodd" fill="#DA967A" d="M293.188-17.094c-15.786-0.301-31.568-0.831-47.35-1.348
				c1.53,5.914,3.18,11.822,4.964,17.723c4.1,13.316,12.336,24.375,27.469,25.272c16.79,1.061,29.82-8.22,36.71-22.705
				c2.97-6.172,5.845-12.376,8.625-18.614C313.463-16.78,303.321-16.9,293.188-17.094z"/>
		</g>
		<path fill-rule="evenodd" clip-rule="evenodd" fill="#B13426" d="M328.71-12.589c0.034-1.396,0.067-2.79,0.101-4.18
			c-11.878,0.028-23.756-0.098-35.623-0.325c-31.36-0.599-62.7-2.099-94.06-2.608c-13.236-0.215-26.475-0.315-39.712-0.358
			c-0.165,13.981-0.581,27.964-1.439,41.949c-0.57,8.927-0.172,17.589,8.812,23.283c19.435,12.218,34.877,27.927,45.985,47.236
			c28.848,12.602,57.63,15.108,86.706,0.21c14.042,3.564,28.044,7.088,42.035,10.592c-0.919-8.314-1.921-16.621-3.032-24.918
			C334.442,48.112,327.957,18.009,328.71-12.589z"/>
		<path fill-rule="evenodd" clip-rule="evenodd" fill="#040000" d="M283.422,193.664c-7.605,3.475-15.211,8.108-24.172,6.549
			c-65.938-11.62-131.44-5.282-197.032,2.295c-5.385,0.608-10.968-2.163-16.511-3.39c-10.329-1.011-12.083-10.06-16.093-17.062
			c-9.116-18.104-7.326-37.645-7.123-56.845c1.441-11.302,6.413-21.728,7.481-33.028C36.449,70.388,50.01,53.75,68.663,41.161
			c10.121-4.87,19.42-11.233,29.34-16.454c7.993-3.451,16.174-5.646,24.961-3.584c7.864,2.44,14.228,7.278,15.295,15.364
			c3.745,28.25,16.091,54.537,18.589,82.109c6.783-15.069,20.406-13.594,33.056-10.869c27.825,6.079,55.186,13.642,84.39,11.741
			c14.799-0.918,22.169,8.846,23.519,23.289c1.048,11.428,0.628,22.823-1,34.191C294.771,184.469,292.121,191.386,283.422,193.664z"
			/>
		<path fill-rule="evenodd" clip-rule="evenodd" fill="#312B29" d="M297.965,162.496c-2.071,3.195-4.021,6.392-6.027,9.718
			c-0.011-5.69-0.511-11.232-0.043-16.864c1.647-22.001-4.791-34.839-30.392-29.262c-25.302,5.502-48.076-7.889-72.353-11.057
			c-25.46-3.287-25.475-3.668-33.503,23.369c-7.747-31.564-15.594-60.263-21.466-89.328c-2.222-10.903-2.958-20.702-15.245-24.217
			c0.154-6.313,4.719-8.841,9.732-10.789c5.1-1.375,10.338-1.683,15.474-2.146c10.395-0.59,20.929,0.2,31.305,0.973
			c4.041,0.532,7.943,1.586,11.731,3.056c12.482,4.879,13.973,16.039,16.956,27.142c7.952,29.477,23.093,41.583,53.926,44.469
			c12.052,1.13,24.733,0.085,33.401,11.298c4.332,5.383,7.223,11.658,9.89,17.991c3.029,7.709,5.261,15.593,5.056,23.951
			C305.447,148.76,306.691,157.677,297.965,162.496z"/>
		<path fill-rule="evenodd" clip-rule="evenodd" fill="#494140" d="M182.164,19.919c19.021-2.694,33.438,10.409,50.518,14.26
			c22.662,2.856,35.63,19.021,48.995,34.875c4.491,11.53,16.963,20.659,11.203,35.45c-1.177-0.484-2.231-0.967-3.309-1.518
			c-8.353-7.349-17.945-7.81-28.679-8.119c-38.349-0.806-59.485-18.439-64.986-56.301C194.23,27.91,189.423,24.208,182.164,19.919z"
			/>
	</g>
</g>
<g id="Calque_1">
</g>
</svg>
