<?xml version="1.0" encoding="utf-8"?>
<!-- Generator: Adobe Illustrator 16.0.4, SVG Export Plug-In . SVG Version: 6.00 Build 0)  -->
<!DOCTYPE svg PUBLIC "-//W3C//DTD SVG 1.1//EN" "http://www.w3.org/Graphics/SVG/1.1/DTD/svg11.dtd">
<svg version="1.1" id="Calque_1" xmlns="http://www.w3.org/2000/svg" xmlns:xlink="http://www.w3.org/1999/xlink" x="0px" y="0px"
	 width="435px" height="300px" viewBox="-55 -37.5 435 300" enable-background="new -55 -37.5 435 300" xml:space="preserve">
<g id="Calque_1_1_">
</g>
<g>
	<g id="Calque_2">
		<g>
			<g>
				<path fill="#030000" d="M411.649,280.993c-3.521-1.291-7.045-2.576-10.57-3.848c-104.67-37.604-212.302-53.363-324.022-34.206
					C24.556,251.9-25.635,266.257-74.167,284.536c62.428,7.925,124.747,16.256,187.23,23.455c7.17-0.03,14.34-0.06,21.51-0.077
					c88.981-0.216,177.841,2.787,266.753,5.747c3.656,0.118,7.312,0.228,10.97,0.339
					C412.125,302.993,411.917,291.992,411.649,280.993z"/>
				<path fill="#292928" d="M410.496,243.279c-9.911-2.252-19.772-4.652-29.266-8.249c-19.062-4.582-38.633-7.901-56.256-16.984
					c-105.007-7.798-209.71-6.762-314.361,6.467c-33.776,10.237-67.835,19.737-101.786,29.758c-0.226,9.35-0.426,18.698-0.61,28.049
					c13.462,1.689,26.92,3.4,40.373,5.122c8.501-3.074,17.047-6.082,25.678-8.947c145.536-48.228,286.776-40.56,428.434,9.438
					c3.067,1.081,6.124,2.185,9.172,3.305C411.535,275.24,411.086,259.255,410.496,243.279z"/>
				<path fill="#1F1A18" d="M113.062,307.99c7.169-0.029,14.34-0.06,21.509-0.076c6.138-0.017,12.274,0.021,18.411,0.033
					c1.009-0.524,2.021-1.034,3.028-1.559c37.701-14.312,74.305-7.285,110.615,3.177c36.769,0.897,73.532,2.069,110.3,3.287
					c-46.294-21.191-95.695-32.823-146.696-40.226c-60.606-8.705-113.843-0.895-158.644,30.418
					C85.406,304.735,99.229,306.396,113.062,307.99z"/>
				<path fill="#4B4544" d="M134.571,307.914c13.002-0.03,26.001,0.024,38.997,0.119c-0.064-1.44-0.427-3.023-1.173-4.789
					c-5.583-6.304-12.532-7.731-20.36-5.457c-6.465,3.39-12.948,6.759-19.429,10.135
					C133.262,307.919,133.916,307.916,134.571,307.914z"/>
				<path fill="#35302E" d="M305.264,310.603c-3.167-0.749-6.368-1.417-9.604-2.004c-5.653-2.238-11.441-3.414-16.973,0.48
					c0.077,0.263,0.162,0.541,0.243,0.809C287.708,310.117,296.486,310.349,305.264,310.603z"/>
				<path fill="#8C2119" d="M-7.18,205.541c-26.795-3.937-53.215-2.479-79.551,0.553c-1.008,3.853-2.166,7.679-3.461,11.484
					c-0.435,15.394-0.846,30.785-1.198,46.181c33.883-8.717,67.767-17.422,98.637-35.148C2.441,220.974-2.243,213.245-7.18,205.541z
					"/>
				<path fill="#972019" d="M406.944,173.967c-21.998-1.265-43.971-0.837-65.92,4.098c-4.377,3.993-6.361,8.869-6.427,14.778
					c-3.792,9.499-7.502,18.969-11.322,28.517c10.565,22.157,32.889,15.094,50.337,20.425c12.26-0.251,24.517-0.819,36.775-1.395
					C409.549,218.226,408.437,196.079,406.944,173.967z"/>
				<path fill="#801F18" d="M409.962,229.732c-12.398,1.637-24.589,5.139-36.349,12.052c12.437,3.991,24.848,8.021,37.255,12.056
					C410.603,245.802,410.302,237.767,409.962,229.732z"/>
				<path fill="#35302E" d="M176.23,308.059c34.212,0.272,68.409,0.938,102.604,1.827l-0.146-0.807
					c-40.453-23.867-82.833-26.506-126.653-11.292c6.969,3.061,14.032,5.936,20.96,8.78
					C174.073,307.08,175.152,307.576,176.23,308.059z"/>
				<path fill="#352F2E" d="M321.041,311.077c-8.006-1.908-16.47-2.736-25.381-2.479c1.467,0.617,2.926,1.235,4.393,1.852
					C307.049,310.649,314.044,310.863,321.041,311.077z"/>
				<path fill="#5D5655" d="M246.502,309.12c-24.528-0.844-49.058-1.683-73.507-2.555c-0.549,0.488-1.112,0.962-1.666,1.446
					C196.394,308.184,221.448,308.581,246.502,309.12z"/>
				<path fill="#BD3224" d="M85.06-62.477c-1.975,0.022-3.952,0.03-5.929,0.056c-12.985,0.158-25.969,0.363-38.953,0.588
					c1.62,28.614,3.248,57.228,5.113,85.814c12.437-4.544,23.798-11.265,32.897-21.083c14.9-9.768,10.056-24.212,9.065-37.676
					C86.535-44.011,85.802-53.244,85.06-62.477z"/>
				<path fill="#B83C2B" d="M79.131-62.421c-1.701,0.021-3.402,0.052-5.102,0.075c1.384,21.735,2.76,43.478,4.159,65.246
					c8.785-2.047,17.538-3.889,26.415-5.961c4.937-2.818,9.833-5.939,14.762-8.919c-3.797-16.847-7.034-33.76-9.825-50.722
					C99.402-62.637,89.266-62.546,79.131-62.421z"/>
				<path fill="#A11A17" d="M-17.378,133.928c-21.659,5.266-43.036,12.104-64.51,18.376c1.562,21.639-0.947,42.617-7.531,62.93
					c24.762-3.114,49.654-4.724,74.927-1.687c2.074,0.392,4.912-5.232,7.312-8.009C-16.882,182.632-13.222,157.669-17.378,133.928z"
					/>
				<path fill="#B21717" d="M-6.422,89.206c-25.567-0.125-50.695,6.355-76.083,7.933c0.518,17.145,0.771,34.29,0.327,51.447
					c0.441,4.728,0.67,9.421,0.725,14.085c22.824-5.012,44.871-12.419,64.076-28.741C-14.435,118.739-3.458,105.618-6.422,89.206z"
					/>
				<path fill="#A9261D" d="M407.611,184.438c-1.077-17.28-2.373-34.539-3.937-51.78c-18.979,3.214-37.694,8.276-56,16.163
					c-7.912,9.37-2.813,20.897-5.064,31.104C364.26,181.428,385.932,182.948,407.611,184.438z"/>
				<path fill="#C00013" d="M54.037-6.987c-2.217-18.299-3.884-36.637-5.243-54.994C7.508-61.307-33.771-60.324-75.05-59.32
					c-1.218,2.783-2.383,5.584-3.499,8.404c-3.542,16.554-5.686,33.368-6.921,50.269c0.035,35.49,2.341,70.948,3.199,106.424
					c25.955,3.95,51.105-2.802,75.85-16.571C5.427,63.2,22.804,41.494,45.292,23.981C55.686,15.817,55.445,4.545,54.037-6.987z"/>
				<path fill="#C76B51" d="M218.312-41.735c-1.097-6.826-2.186-13.655-3.257-20.488c-1.281-0.024-2.562-0.056-3.842-0.077
					c-21.463-0.348-42.924-0.507-64.388-0.524c0.014,0.803,0.034,1.607,0.047,2.41c0.316,20.014-3.268,45.644,29.086,47.289
					c4.299,1.19,8.415,2.369,12.703,3.498c24.747-0.791,37.878,31.305,65.418,22.752c10.183-8.467,1.97-14.215-3.192-20.335
					C237.66-16.456,221.429-22.507,218.312-41.735z"/>
				<path fill="#C14E38" d="M148.154-62.818c-16.631-0.017-33.263,0.07-49.893,0.217c2.479,18.05,7.658,35.518,21.103,50.618
					c5.564-0.41,11.116-0.893,16.671-1.385c15.382-13.566,13.015-32.194,12.122-49.417
					C148.155-62.796,148.155-62.807,148.154-62.818z"/>
				<path fill="#CA563D" d="M396.478,67.978c-0.4-2.996-0.823-5.99-1.256-8.986c-15.37,16.148-34.684,29.093-60.072,37.077
					c-1.302,1.604-2.513,3.168-3.698,4.738c3.586,7.094,7.282,14.219,10.874,21.176c22.071,6.425,41.427,2.322,59.816-5.415
					C400.513,100.35,398.643,84.15,396.478,67.978z"/>
				<path fill="#7F5549" d="M156.851-41.404c-0.085-7.125-0.185-14.253-0.274-21.38c-5.698-0.017-11.395-0.034-17.093-0.029
					c-0.252,16.479-1.257,32.961-3.45,49.445c13.256,0.076,26.61,0.137,39.921,0.243C161.962-17.505,157.064-27.317,156.851-41.404z
					"/>
				<path fill="#BA3C2B" d="M401.042,106.062c-19.077,6.997-38.084,14.354-58.717,15.924c1.826,8.889,3.504,17.862,5.35,26.836
					c18.927-2.243,37.887-4.453,56.842-6.666C403.493,130.11,402.333,118.08,401.042,106.062z"/>
				<path fill="#D78D71" d="M383.485-52.844c0.046-1.857,0.09-3.708,0.137-5.557c-5.979,0.015-11.953,0-17.926-0.042
					c-0.822,1.81-1.645,3.619-2.477,5.425c-8.742,19.17-19.819,37.831-43.258,37.173c-25.204-0.76-32.388-23.427-36.917-42.602
					c-0.145-0.625-0.276-1.248-0.42-1.873c-17.137-0.56-34.271-1.131-51.414-1.556c4.126,19.993,8.838,39.983,13.967,59.97
					c3.674,3.799,7.243,7.478,10.664,11.252c19.912,17.834,39.779,35.577,59.569,53.215c27.034,9.143,53.729-1.872,74.865-36.2
					C386.298,0.099,382.831-26.23,383.485-52.844z"/>
				<path fill="#CF7D61" d="M239.87-61.651c-9.553-0.264-19.104-0.493-28.657-0.648c-1.99-0.032-3.979-0.042-5.969-0.071
					c0.25,1.741,0.502,3.484,0.751,5.226c3.905,27.655,7.859,49.825,39.182,55.239c4.765-15.206,0.103-29.778-2.591-44.586
					C241.648-51.542,240.75-56.597,239.87-61.651z"/>
				<path fill="#D16F53" d="M396.478,67.978c-2.632-19.665-6.043-39.305-8.721-59.011c-2.155,4.039-4.335,8.066-6.543,12.076
					c-11.437,20.828-31.8,46.954-65.805,41.517c6.804,13.433,13.675,26.834,20.44,40.264c22.86-6.608,44.015-15.401,61.345-29.274
					C396.952,71.694,396.727,69.834,396.478,67.978z"/>
				<path fill="#DA967A" d="M336.26-58.833c-20.985-0.401-41.967-1.104-62.948-1.792c2.034,7.862,4.227,15.716,6.6,23.562
					c5.45,17.703,16.4,32.405,36.519,33.598c22.32,1.41,39.644-10.929,48.804-30.186c3.949-8.206,7.771-16.453,11.466-24.747
					C363.216-58.416,349.731-58.575,336.26-58.833z"/>
			</g>
			<path fill="#B13426" d="M383.485-52.844c0.046-1.856,0.09-3.709,0.134-5.557c-15.79,0.037-31.582-0.13-47.359-0.432
				c-41.689-0.796-83.354-2.791-125.047-3.468c-17.596-0.286-35.198-0.419-52.795-0.476c-0.22,18.587-0.773,37.176-1.913,55.769
				c-0.758,11.868-0.229,23.383,11.716,30.953c25.838,16.244,46.366,37.128,61.133,62.798
				c38.353,16.753,76.617,20.085,115.273,0.279c18.666,4.739,37.28,9.423,55.883,14.082c-1.223-11.053-2.555-22.097-4.032-33.127
				C391.105,27.855,382.484-12.165,383.485-52.844z"/>
			<path fill="#040000" d="M323.276,221.359c-10.11,4.619-20.221,10.778-32.135,8.706c-87.66-15.448-174.743-7.021-261.944,3.051
				c-7.159,0.81-14.581-2.874-21.95-4.506c-13.732-1.344-16.063-13.374-21.395-22.683c-12.119-24.069-9.739-50.048-9.47-75.574
				c1.916-15.024,8.525-28.885,9.946-43.908c8.611-28.975,26.639-51.095,51.438-67.831C51.222,12.14,63.584,3.681,76.772-3.261
				c10.627-4.588,21.503-7.506,33.185-4.765C120.412-4.781,128.872,1.65,130.29,12.4c4.979,37.557,21.393,72.504,24.714,109.159
				c9.018-20.033,27.129-18.072,43.946-14.449c36.991,8.082,73.367,18.137,112.192,15.608c19.674-1.22,29.472,11.762,31.266,30.962
				c1.396,15.194,0.837,30.343-1.329,45.456C338.365,209.135,334.843,218.332,323.276,221.359z"/>
			<path fill="#312B29" d="M342.611,179.923c-2.752,4.248-5.347,8.499-8.014,12.92c-0.014-7.565-0.679-14.932-0.057-22.421
				c2.189-29.248-6.369-46.316-40.403-38.901c-33.638,7.313-63.916-10.488-96.189-14.699c-33.85-4.37-33.868-4.877-44.541,31.067
				c-10.299-41.963-20.731-80.116-28.538-118.757c-2.954-14.495-3.933-27.522-20.268-32.196c0.205-8.393,6.273-11.753,12.938-14.343
				c6.781-1.828,13.744-2.238,20.572-2.854c13.82-0.784,27.823,0.267,41.619,1.294c5.372,0.707,10.561,2.108,15.595,4.062
				c16.596,6.487,18.576,21.323,22.542,36.083c10.573,39.188,30.701,55.282,71.693,59.12c16.021,1.502,32.88,0.113,44.404,15.02
				c5.759,7.157,9.602,15.5,13.148,23.919c4.026,10.249,6.993,20.729,6.722,31.84C352.559,161.661,354.213,173.517,342.611,179.923z
				"/>
			<path fill="#494140" d="M188.66-9.626c25.288-3.581,44.453,13.839,67.16,18.959c30.129,3.796,47.369,25.287,65.137,46.364
				c5.971,15.328,22.553,27.464,14.894,47.128c-1.563-0.643-2.966-1.285-4.399-2.018c-11.104-9.77-23.855-10.383-38.125-10.793
				c-50.984-1.071-79.083-24.514-86.396-74.85C204.702,0.998,198.311-3.924,188.66-9.626z"/>
		</g>
	</g>
</g>
</svg>
