<?xml version="1.0" encoding="utf-8"?>
<!-- Generator: Adobe Illustrator 16.0.4, SVG Export Plug-In . SVG Version: 6.00 Build 0)  -->
<!DOCTYPE svg PUBLIC "-//W3C//DTD SVG 1.1//EN" "http://www.w3.org/Graphics/SVG/1.1/DTD/svg11.dtd">
<svg version="1.1" id="Calque_1" xmlns="http://www.w3.org/2000/svg" xmlns:xlink="http://www.w3.org/1999/xlink" x="0px" y="0px"
	 width="435px" height="300px" viewBox="-55 -37.5 435 300" enable-background="new -55 -37.5 435 300" xml:space="preserve">
<g>
	<g>
		<g>
			<path fill="#050507" d="M113.329,170.444c-4.702,0-8.522,3.801-8.522,8.492c0,4.686,3.82,8.485,8.522,8.485
				c4.709,0,8.525-3.805,8.525-8.485C121.854,174.245,118.036,170.444,113.329,170.444z"/>
			<ellipse fill="#E6E8E8" cx="113.328" cy="178.617" rx="6.258" ry="6.235"/>
			<g>
				<path fill="#FFFFFF" d="M113.328,181.988c3.161,0,5.726-2.554,5.726-5.7c0-0.07-0.008-0.14-0.011-0.207
					c-0.977-2.179-3.166-3.694-5.715-3.694c-2.545,0-4.733,1.524-5.709,3.694c-0.002,0.07-0.01,0.139-0.01,0.207
					C107.608,179.435,110.172,181.988,113.328,181.988z"/>
			</g>
		</g>
		<g>
			<path fill="#050507" d="M133.311,149.933c-7.859,0-14.224,6.341-14.224,14.17c0,7.824,6.364,14.166,14.224,14.166
				c7.851,0,14.213-6.342,14.213-14.166C147.524,156.273,141.161,149.933,133.311,149.933z"/>
			<path fill="#E6E8E8" d="M133.708,151.903c-6.138,0-11.122,4.959-11.122,11.084c0,6.118,4.984,11.078,11.122,11.078
				c6.142,0,11.122-4.96,11.122-11.078C144.83,156.862,139.85,151.903,133.708,151.903z"/>
			<g>
				<path fill="#FFFFFF" d="M133.708,171.185c5.651,0,10.309-4.203,11.018-9.638c-0.708-5.438-5.366-9.638-11.018-9.638
					c-5.648,0-10.307,4.197-11.018,9.638C123.401,166.981,128.06,171.185,133.708,171.185z"/>
			</g>
		</g>
		<g>
			<path fill="#050507" d="M218.078,76.828c0-13.549-11.023-24.533-24.623-24.533c-1.334,0-2.641,0.107-3.916,0.311
				c0.002-0.104,0.008-0.207,0.008-0.311c0-8.422-6.854-15.25-15.309-15.25c-2.393,0-4.657,0.548-6.672,1.521
				c-3.885-5.724-10.461-9.486-17.921-9.486c-11.94,0-21.621,9.643-21.621,21.537c0,1.336,0.126,2.641,0.361,3.912
				c-2.871-1.023-5.963-1.583-9.187-1.583c-15.06,0-27.27,12.161-27.27,27.164c0,12.23,8.112,22.57,19.267,25.977
				c-2.866,3.174-4.611,7.376-4.611,11.982c0,9.906,8.06,17.934,18.002,17.934c4.341,0,8.324-1.53,11.433-4.082
				c0.941,12.872,11.721,23.026,24.884,23.026c13.423,0,24.368-10.559,24.927-23.793c1.205,0.215,2.444,0.337,3.713,0.337
				c11.445,0,20.719-9.242,20.719-20.641c0-4.835-1.673-9.275-4.465-12.792C213.143,93.811,218.078,85.895,218.078,76.828z"/>
			<path fill="#E6E8E8" d="M212.609,79.309c0-12.372-10.066-22.403-22.493-22.403c-1.216,0-2.409,0.098-3.573,0.284
				c0.001-0.095,0.007-0.188,0.007-0.284c0-7.691-6.26-13.926-13.979-13.926c-2.184,0-4.251,0.499-6.092,1.389
				c-3.549-5.227-9.556-8.664-16.367-8.664c-10.904,0-19.746,8.805-19.746,19.671c0,1.218,0.118,2.411,0.332,3.57
				c-2.622-0.935-5.446-1.444-8.389-1.444c-13.754,0-24.903,11.105-24.903,24.808c0,11.168,7.407,20.611,17.595,23.721
				c-2.618,2.9-4.21,6.736-4.21,10.945c0,9.044,7.359,16.378,16.441,16.378c3.964,0,7.6-1.404,10.44-3.727
				c0.86,11.751,10.705,21.025,22.726,21.025c12.259,0,22.254-9.641,22.764-21.729c1.1,0.193,2.235,0.305,3.394,0.305
				c10.448,0,18.921-8.436,18.921-18.851c0-4.415-1.53-8.472-4.078-11.682C208.097,94.823,212.609,87.59,212.609,79.309z"/>
			<path fill="#FFFFFF" d="M212.065,74.424c-2.24-10.023-11.213-17.518-21.949-17.518c-1.216,0-2.409,0.098-3.573,0.284
				c0.001-0.095,0.007-0.188,0.007-0.284c0-7.691-6.26-13.926-13.979-13.926c-2.184,0-4.251,0.499-6.092,1.389
				c-3.549-5.227-9.556-8.664-16.367-8.664c-10.904,0-19.746,8.805-19.746,19.671c0,1.218,0.118,2.411,0.332,3.57
				c-2.623-0.935-5.447-1.444-8.39-1.444c-12.073,0-22.134,8.556-24.417,19.912c-0.318,1.584-0.487,3.22-0.487,4.896
				c0,9.655,5.54,18.018,13.623,22.116c1.265,0.642,2.594,1.185,3.973,1.605c-1.559,1.727-2.75,3.789-3.462,6.056
				c2.091,6.654,8.325,11.478,15.691,11.478c3.964,0,7.6-1.398,10.44-3.727c0.86,11.758,10.704,21.028,22.726,21.028
				c12.258,0,22.252-9.644,22.765-21.731c1.098,0.195,2.232,0.305,3.387,0.305c8.752,0,16.111-5.917,18.274-13.955
				c-0.676-2.509-1.861-4.81-3.43-6.789c1.263-0.732,2.452-1.584,3.543-2.54c4.701-4.107,7.669-10.132,7.669-16.851
				C212.609,77.632,212.417,75.998,212.065,74.424z"/>
		</g>
	</g>
	<g>
		<path fill="#C2D26A" d="M156.122,57.681c1.067-3.769,1.853-7.752,4.281-10.737c3.569-0.426,6.711,0.995,8.558,3.911
			c0.15,0.854,0.861,0.993,1.217,1.708c-0.784,5.402-3.063,11.163-8.208,13.795c-2.002,0.566-3.574-0.856-5.353-1.352
			C154.693,63.082,156.046,60.024,156.122,57.681z"/>
		<path fill="#C2D26A" d="M175.958,60.239c2.139-0.143,4.213,0.712,5.717,2.56c0.281,2.986-3.074,4.905-4.283,7.537
			c-1.998,1.064-3.786,2.772-5.995,3.41c-2.065-1.917-1.286-5.26-0.714-7.675C171.61,63.51,172.749,60.453,175.958,60.239z"/>
		<path fill="#C2D26A" d="M123.928,116.198c1.426-4.342,6.425-5.337,9.426-8.178c0.359,3.055-1.935,5.827-3.787,8.178
			c-0.427,0.918,0.641,1.492,1.358,1.916c1.211,0.857,1.857,2.276,2.787,3.409c2.212,1.925,5.921,2.778,8.56,1.358
			c3.645-1.64,8.068-3.846,8.567-8.391c-0.072-2.347-0.072-4.622,0.645-6.612c1.998-0.352,3.782,1.353,5.993,0.5
			c5.354-0.074,9.849-4.836,12.491-8.889c0.359-1.708,1.498-3.342,1.071-5.121c-3.142-4.762-7.279-8.814-11.635-12.443
			c-2.851-1.42-5.853-4.337-9.277-2.202c-1.861,0.922-3.067,2.56-4.426,4.052c-0.214,6.115,2.283,13.224-2.784,17.917h-0.858
			c3.929-5.898,0.786-13.58-0.64-19.625c0.359-4.262,2.784-7.889,5.994-10.874c2.57-0.855,5.358-1.354,7.854-0.855l1.209,0.494
			c8.282,0.782,14.7,8.814,17.269,15.997c2.212,6.684,1.925,14.574-2.709,19.979c-5.356,4.622-14.135,1.211-18.706,7.321
			c-3.211,5.053-6.065,14.151-14.197,12.804c-2.714-0.14-5.566-0.785-8.063-1.989C127.715,122.239,123.429,120.104,123.928,116.198z
			"/>
		<path fill="#C2D26A" d="M185.955,75.099c0.636,1.28,0.781,2.986,0.636,4.41c-1.64,1.92-4.207,2.915-6.846,2.202
			c-1.004-0.356-2.216-0.498-2.713-1.706c-0.706-0.998,0-2.277,0.497-3.201C180.031,75.456,183.24,72.043,185.955,75.099z"/>
		<path fill="#C2D26A" d="M188.667,89.957c-1.711,2.064-4.351,2.348-6.715,2.348c-0.928-0.925-1.781-2.204-1.137-3.557
			c0.425-0.212,0.425-0.921,0.641-1.35c1.642-1.634,5.495-2.986,6.854-0.209C188.88,87.898,188.594,89.032,188.667,89.957z"/>
		<path fill="#C2D26A" d="M186.956,99.842c-0.999,1.28-2.715,1.776-4.285,1.492c-0.572,0-0.998-0.566-1.213-0.996
			c-0.073-1.421-0.073-3.272,1.71-3.272l0.86-0.141C184.167,98.848,187.81,97.066,186.956,99.842z"/>
	</g>
</g>
</svg>
