<?xml version="1.0" encoding="utf-8"?>
<!-- Generator: Adobe Illustrator 16.0.4, SVG Export Plug-In . SVG Version: 6.00 Build 0)  -->
<!DOCTYPE svg PUBLIC "-//W3C//DTD SVG 1.1//EN" "http://www.w3.org/Graphics/SVG/1.1/DTD/svg11.dtd">
<svg version="1.1" id="Calque_2" xmlns="http://www.w3.org/2000/svg" xmlns:xlink="http://www.w3.org/1999/xlink" x="0px" y="0px"
	 width="435px" height="300px" viewBox="-55 -37.5 435 300" enable-background="new -55 -37.5 435 300" xml:space="preserve">
<g>
	<g>
		<path fill="#B2B2B3" d="M93.821,194.852c-0.245,0-0.49-0.073-0.701-0.216c-0.425-0.287-0.633-0.804-0.522-1.304l23.402-105.288
			c0.15-0.674,0.825-1.098,1.494-0.95c0.676,0.15,1.103,0.816,0.953,1.488L95.731,190.785l17.764-12.128
			c0.413-0.282,0.956-0.29,1.378-0.024l18.495,11.656c0.585,0.368,0.76,1.138,0.39,1.723c-0.369,0.582-1.143,0.758-1.729,0.387
			l-17.797-11.216L94.53,194.63C94.316,194.777,94.068,194.852,93.821,194.852z"/>
	</g>
	<g>
		<path fill="#B2B2B3" d="M139.173,72.506c-0.661,0-1.225-0.501-1.287-1.17c-0.127-1.381-2.999-33.944,8.189-45.541
			c2.819-2.924,6.301-4.299,10.345-4.091c9.505,0.495,18.125,7.935,25.627,22.113c5.485,10.369,8.234,20.422,8.348,20.845
			c0.188,0.688-0.222,1.395-0.912,1.58c-0.691,0.181-1.402-0.222-1.588-0.91c-0.107-0.4-11.06-39.984-31.611-41.053
			c-3.32-0.176-6.037,0.908-8.344,3.301c-10.372,10.75-7.507,43.193-7.478,43.52c0.065,0.709-0.459,1.337-1.17,1.402
			C139.253,72.504,139.213,72.506,139.173,72.506z"/>
	</g>
	<g>
		<g>
			<path fill="#AFC631" d="M137.152,97.925l-0.133-1.042c-0.322-2.578-1.289-4.605-2.761-4.36c-1.638,0.273-2.133,2.303-1.89,4.271
				c1.086,8.667,13.006,2.297,15.03,18.25c1.18,9.288-1.95,14.113-8.684,15.354c-6.323,1.165-10.258-1.45-11.392-10.581
				l-0.189-1.543l7.381-1.313l0.13,1.044c0.47,3.75,1.665,4.92,3.144,4.65c1.56-0.279,2.231-2.285,1.927-4.676
				c-1.086-8.65-12.52-2.24-14.457-17.845c-1.1-8.885,1.447-14.275,7.87-15.326c6.626-1.083,9.966,2.554,11.152,11.91
				L137.152,97.925z"/>
		</g>
		<g>
			<path fill="#AFC631" d="M146.156,83.553l7.61-1.248l2.042,15.939l4.667-0.796l-2.049-15.902l7.607-1.245l5.617,43.168
				l-7.637,1.403l-2.301-17.841l-4.673,0.819l2.297,17.878l-7.639,1.405L146.156,83.553z"/>
		</g>
		<g>
			<path fill="#AFC631" d="M179.093,77.307c7.772-1.267,11.259,4.519,13.39,20.481c2.136,15.959,0.297,22.666-7.503,24.099
				c-7.801,1.433-11.293-4.353-13.393-20.473C169.484,85.288,171.323,78.574,179.093,77.307z M183.981,114.319
				c2.341-0.424,2.171-3.587,0.64-15.166c-1.533-11.585-2.193-14.663-4.524-14.275c-2.332,0.388-2.168,3.556-0.64,15.169
				C180.982,111.655,181.642,114.739,183.981,114.319z"/>
		</g>
		<g>
			<path fill="#AFC631" d="M192.085,76.047l11.412-1.86c5.811-0.947,9.195,4.247,10.209,11.637
				c1.18,8.637-1.604,13.725-7.795,14.809l-2.663,0.47l2.188,16.175l-7.635,1.397L192.085,76.047z M202.171,93.128l1.434-0.244
				c1.925-0.331,2.731-2.108,2.249-5.672c-0.473-3.501-1.723-4.995-3.647-4.675l-1.435,0.239L202.171,93.128z"/>
		</g>
		<g>
			<path d="M131.46,141.348l11.794-2.22c6.832-1.292,10.119,5.7,11.062,13.139c1.311,10.28-2.368,15.796-8.747,17.082l-3.613,0.732
				l2.5,19.926l-6.768,1.428L131.46,141.348z M141.027,162.669l3.001-0.596c2.671-0.529,4.201-3.266,3.555-8.354
				c-0.612-4.879-2.277-7.417-5.646-6.769l-2.812,0.539L141.027,162.669z"/>
		</g>
		<g>
			<path d="M162.402,186.219l-6.328-49.513l6.736-1.266l6.355,49.35L162.402,186.219z"/>
		</g>
		<g>
			<path d="M175.582,133.036l12.556,31.936l0.094-0.023l-4.41-33.469l6.17-1.158l6.47,48.713l-7.702,1.626l-12.756-32.634
				l-0.092,0.021l4.487,34.371l-6.202,1.305l-6.379-49.231L175.582,133.036z"/>
		</g>
		<g>
			<path d="M211.451,140.995c-0.485-3.584-2.227-7.901-4.938-7.383c-3.278,0.625-3.932,5.764-2.309,17.846
				c1.571,11.675,3.309,18.842,7.206,18.033c1.596-0.33,3.838-3.363,3.134-8.566l-0.672-4.933l-4.455,0.895l-0.971-7.175
				l10.923-2.161l3.545,25.929l-4.981,1.049l-0.606-4.463l-0.09,0.023c-1.086,4.117-3.163,6.221-6.313,6.885
				c-8.317,1.752-11.163-6.885-13.407-23.699c-2.182-16.342-0.681-25.209,7.929-26.821c7.39-1.384,11.128,3.519,12.466,13.286
				L211.451,140.995z"/>
		</g>
	</g>
</g>
</svg>
