<?xml version="1.0" encoding="utf-8"?>
<!-- Generator: Adobe Illustrator 16.0.4, SVG Export Plug-In . SVG Version: 6.00 Build 0)  -->
<!DOCTYPE svg PUBLIC "-//W3C//DTD SVG 1.1//EN" "http://www.w3.org/Graphics/SVG/1.1/DTD/svg11.dtd">
<svg version="1.1" id="Calque_1" xmlns="http://www.w3.org/2000/svg" xmlns:xlink="http://www.w3.org/1999/xlink" x="0px" y="0px"
	 width="434.5px" height="300px" viewBox="-62.5 -37.5 434.5 300" enable-background="new -62.5 -37.5 434.5 300"
	 xml:space="preserve">
<g>
	<g id="Calque_1_1_">
		<g>
			<g>
				<g>
					<g>
						<defs>
							<rect id="SVGID_1_" x="55.768" y="163.466" width="204.565" height="56.975"/>
						</defs>
						<clipPath id="SVGID_2_">
							<use xlink:href="#SVGID_1_"  overflow="visible"/>
						</clipPath>
						<path clip-path="url(#SVGID_2_)" fill="#FFFFFF" d="M258.79,215.883c0,0.472-0.355,0.641-1.912,0.641h-0.737l0.013-0.222
							c0.037-0.76,0.592-1.411,1.386-1.411C258.302,214.888,258.79,215.222,258.79,215.883 M260.333,216.078
							c0-1.583-1.273-2.562-2.646-2.562c-1.888,0-3.235,1.386-3.235,3.591c0,2.023,1.604,3.32,3.248,3.32
							c1.815,0,2.389-0.648,2.389-1.494v-0.516h-0.058c-0.527,0.489-1.339,0.627-2.024,0.627c-0.971,0-1.729-0.528-1.854-1.361h1.08
							C259.414,217.685,260.333,217.292,260.333,216.078 M252.734,211.534c0-0.443-0.28-0.625-0.687-0.625
							c-0.478,0-0.771,0.231-1.164,0.586c-0.353,0.314-0.646,0.721-0.915,1.138v0.062h0.547c0.438,0,1.005-0.122,1.411-0.292
							C252.43,212.195,252.734,211.888,252.734,211.534 M252.198,215.883c0,0.472-0.359,0.641-1.918,0.641h-0.734l0.013-0.222
							c0.032-0.76,0.585-1.411,1.387-1.411C251.708,214.888,252.198,215.222,252.198,215.883 M253.742,216.078
							c0-1.583-1.273-2.562-2.648-2.562c-1.883,0-3.231,1.386-3.231,3.591c0,2.023,1.602,3.32,3.248,3.32
							c1.812,0,2.389-0.648,2.389-1.494v-0.516h-0.062c-0.528,0.489-1.332,0.627-2.021,0.627c-0.972,0-1.732-0.528-1.855-1.361
							h1.079C252.821,217.685,253.742,217.292,253.742,216.078 M247.675,219.352v-0.356h-0.441c-0.772,0-1.116-0.209-1.116-0.87
							v-5.562c0-0.628-0.354-1.104-1.175-1.104h-0.466v6.826c0,1.336,0.735,2.06,2.09,2.06
							C247.297,220.344,247.675,220.06,247.675,219.352 M243.922,219.352v-0.356h-0.44c-0.771,0-1.114-0.209-1.114-0.87v-5.562
							c0-0.628-0.358-1.104-1.175-1.104h-0.469v6.826c0,1.336,0.732,2.06,2.089,2.06
							C243.544,220.344,243.922,220.06,243.922,219.352 M238.007,218.039c0,0.675-0.346,1.019-1.057,1.019
							c-0.723,0-1.138-0.305-1.138-0.818c0-0.539,0.353-0.833,1.604-0.833h0.586L238.007,218.039L238.007,218.039z M239.609,218.026
							v-1.519c0-2.278-1.321-2.966-2.792-2.966c-1.742,0-2.403,0.877-2.403,1.617v0.528h0.06c0.248-0.308,0.909-0.761,2.1-0.761
							c0.975,0,1.418,0.281,1.418,1.214v0.083h-0.58c-2.427,0-3.286,0.896-3.286,2.073c0,1.214,1.081,2.094,2.648,2.094h0.331
							C238.581,220.391,239.609,219.425,239.609,218.026 M232.882,216.409c0.553-1.334,1.152-3.331,1.152-3.803
							c0-0.466-0.318-0.719-0.722-0.719h-0.933c-0.317,2.12-0.98,4.178-1.876,6.112c-0.992-2.106-1.421-3.651-1.691-5.195
							c-0.083-0.503-0.44-0.917-1.065-0.917h-0.97c0.378,2.672,1.478,5.623,2.806,7.781c0.296,0.475,0.707,0.675,1.217,0.675h0.141
							C231.792,219.005,232.38,217.636,232.882,216.409 M226.438,215.945h-2.859c-0.476,0-0.761,0.292-0.761,0.695v0.625h2.82
							c0.506,0,0.8-0.245,0.8-0.675V215.945z M220.492,218.039c0,0.675-0.344,1.019-1.054,1.019c-0.723,0-1.142-0.305-1.142-0.818
							c0-0.539,0.36-0.833,1.609-0.833h0.586V218.039L220.492,218.039z M222.099,218.026v-1.519c0-2.278-1.322-2.966-2.794-2.966
							c-1.743,0-2.407,0.877-2.407,1.617v0.528h0.063c0.245-0.308,0.909-0.761,2.093-0.761c0.98,0,1.42,0.281,1.42,1.214v0.083
							h-0.575c-2.43,0-3.286,0.896-3.286,2.073c0,1.214,1.078,2.094,2.646,2.094h0.331
							C221.069,220.391,222.099,219.425,222.099,218.026 M216.422,219.352v-0.356h-0.44c-0.771,0-1.117-0.209-1.117-0.87v-5.562
							c0-0.628-0.355-1.104-1.174-1.104h-0.469v6.826c0,1.336,0.739,2.06,2.091,2.06
							C216.044,220.344,216.422,220.06,216.422,219.352 M212.136,215.945h-2.857c-0.477,0-0.76,0.292-0.76,0.695v0.625h2.818
							c0.504,0,0.799-0.245,0.799-0.675V215.945L212.136,215.945z M206.29,215.883c0,0.472-0.356,0.641-1.915,0.641h-0.734
							l0.012-0.222c0.035-0.76,0.59-1.411,1.384-1.411C205.8,214.888,206.29,215.222,206.29,215.883 M207.832,216.078
							c0-1.583-1.273-2.562-2.647-2.562c-1.885,0-3.232,1.386-3.232,3.591c0,2.023,1.604,3.32,3.246,3.32
							c1.813,0,2.391-0.648,2.391-1.494v-0.516h-0.061c-0.527,0.489-1.336,0.627-2.024,0.627c-0.97,0-1.728-0.528-1.853-1.361h1.08
							C206.914,217.685,207.832,217.292,207.832,216.078 M200.909,220.281v-3.849c0-1.875-1.285-2.917-2.844-2.917
							c-2.059,0-2.977,1.433-2.977,2.831v2.854c0,0.617,0.457,1.081,1.15,1.081h0.488v-3.82c0-0.942,0.49-1.481,1.203-1.481
							c0.847,0,1.336,0.489,1.336,1.604v2.623c0,0.614,0.464,1.08,1.199,1.08h0.443V220.281L200.909,220.281z M194.411,215.271
							v-0.586c0-0.5-0.354-1.08-1.372-1.08c-1.739,0-2.433,1.26-2.433,2.586v3.036c0,0.688,0.464,1.055,1.195,1.055h0.453v-3.8
							c0-1.008,0.406-1.411,1.143-1.411c0.426,0,0.709,0.094,0.951,0.195h0.062V215.271L194.411,215.271z M187.941,218.039
							c0,0.675-0.34,1.019-1.054,1.019c-0.723,0-1.141-0.305-1.141-0.818c0-0.539,0.359-0.833,1.607-0.833h0.587V218.039
							L187.941,218.039z M189.547,218.026v-1.519c0-2.278-1.321-2.966-2.794-2.966c-1.745,0-2.404,0.877-2.404,1.617v0.528h0.065
							c0.245-0.308,0.906-0.761,2.09-0.761c0.98,0,1.421,0.281,1.421,1.214v0.083h-0.578c-2.425,0-3.284,0.896-3.284,2.073
							c0,1.214,1.075,2.094,2.646,2.094h0.334C188.519,220.391,189.547,219.425,189.547,218.026 M183.148,220.281
							c0-1.68-0.247-5.331-0.403-6.653c-0.139-1.151-0.75-1.74-1.683-1.74h-0.195c-0.344,0.281-0.883,1.128-1.309,2.461
							l-0.973,2.979c-0.082,0.281-0.169,0.536-0.229,0.859c-0.076-0.38-0.221-0.883-0.478-1.594l-1.164-3.284
							c-0.319-0.893-1.14-1.422-2.306-1.422h-0.358c-0.306,1.667-0.673,5.406-0.673,7.279c0,0.713,0.427,1.114,1.053,1.114h0.588
							c0-1.526,0.145-4.901,0.365-6.097c0.121,0.292,0.316,0.797,0.468,1.222l1.198,3.539c0.305,0.911,0.795,1.336,1.35,1.336h0.455
							c0.231-0.331,0.486-0.894,0.688-1.492l1.176-3.602c0.123-0.38,0.283-0.722,0.392-0.992c0.138,0.833,0.32,3.911,0.32,4.972
							c0,0.76,0.438,1.114,1.077,1.114H183.148L183.148,220.281z M168.528,215.883c0,0.472-0.357,0.641-1.916,0.641h-0.734
							l0.013-0.222c0.031-0.76,0.583-1.411,1.386-1.411C168.039,214.888,168.528,215.222,168.528,215.883 M170.075,216.078
							c0-1.583-1.273-2.562-2.648-2.562c-1.888,0-3.231,1.386-3.231,3.591c0,2.023,1.602,3.32,3.249,3.32
							c1.811,0,2.388-0.648,2.388-1.494v-0.516h-0.062c-0.528,0.489-1.333,0.627-2.025,0.627c-0.971,0-1.729-0.528-1.851-1.361
							h1.079C169.155,217.685,170.075,217.292,170.075,216.078 M161.495,217.159c0,1.2-0.403,1.888-1.324,1.888
							c-0.942,0-1.655-0.896-1.655-2.271c0-1.065,0.539-1.87,1.374-1.87C160.772,214.901,161.495,215.5,161.495,217.159
							 M163.148,217.231v-4.656c0-0.661-0.344-1.117-1.127-1.117h-0.503v3.1c-0.258-0.581-0.981-1.042-1.642-1.042
							c-1.925,0-2.978,1.411-2.978,3.581c0,1.814,1.338,3.333,3.076,3.333C162.242,220.43,163.148,219.156,163.148,217.231
							 M150.917,216.911H148.7c0.492-0.896,1.643-2.56,2.218-3.32V216.911z M153.871,217.573v-0.662h-1.322v-3.846
							c0-0.787-0.417-1.178-1.004-1.178h-0.612c-1.165,0.94-2.98,3.678-3.555,4.729c-0.11,0.208-0.223,0.453-0.223,0.917
							c0,0.383,0.368,0.76,0.919,0.76h2.842v0.906c0,0.711,0.406,1.081,0.98,1.081h0.651v-1.984h0.626
							C153.637,218.297,153.871,218,153.871,217.573 M141.163,218.651c-0.28,0.297-0.784,0.481-1.213,0.481
							c-0.918,0-1.445-0.359-1.445-1.312c0-0.542,0.416-0.981,0.833-1.227C139.716,217.133,140.697,218.198,141.163,218.651
							 M140.918,213.836c0,0.474-0.344,0.831-1.067,1.25c-0.247-0.356-0.566-0.698-0.566-1.153c0-0.576,0.296-0.883,0.848-0.883
							C140.625,213.05,140.918,213.32,140.918,213.836 M144.498,219.511c-0.416-0.026-0.772-0.146-1.324-0.675l-0.246-0.234
							c0.416-0.562,0.992-1.495,0.992-2.183c0-0.625-0.318-0.861-0.687-0.861h-0.329c-0.025,0.773-0.431,1.672-0.86,2.146
							c-0.453-0.442-1.15-1.261-1.506-1.716c1.065-0.6,1.776-1.362,1.776-2.195c0-1.201-0.855-1.936-2.108-1.936
							c-1.592,0-2.425,1.053-2.425,2.156c0,0.562,0.38,1.151,0.783,1.617c-0.82,0.469-1.629,1.336-1.629,2.357
							c0,1.396,0.956,2.438,2.807,2.438c1.261,0,1.934-0.519,2.278-0.896l0.429,0.417c0.43,0.417,0.87,0.492,1.238,0.492
							C144.262,220.44,144.498,220.122,144.498,219.511 M133.429,217.794c0-0.833-0.82-1.604-1.556-1.763
							c0.857-0.188,1.507-0.747,1.507-1.95c0-1.412-1.177-2.339-3.003-2.339c-1.713,0-2.599,0.927-2.599,1.614v0.711h0.062
							c0.442-0.578,1.311-0.896,2.244-0.896c1.125,0,1.64,0.456,1.64,1.203c0,0.599-0.405,1.052-1.64,1.099
							c-0.359,0.016-0.676,0.026-0.908,0.05v0.552c0,0.414,0.281,0.623,1.016,0.639c1.041,0.025,1.582,0.317,1.582,1.13
							c0,0.638-0.455,1.138-1.556,1.138c-1.128,0-1.924-0.354-2.44-0.906h-0.062v0.662c0,1.141,1.092,1.689,2.416,1.689
							C132.327,220.43,133.429,219.375,133.429,217.794 M124.311,218.198c0-1.053-0.733-1.654-2.107-1.873
							c-1.127-0.188-1.323-0.32-1.323-0.648c0-0.43,0.318-0.739,1.323-0.739c0.786,0,1.544,0.271,1.887,0.612h0.06v-0.623
							c0-0.638-0.611-1.411-2.107-1.411c-1.691,0-2.805,1.055-2.805,2.294c0,1.006,0.672,1.555,2.07,1.75
							c1.14,0.162,1.373,0.344,1.373,0.725c0,0.489-0.392,0.724-1.203,0.724c-0.785,0-1.629-0.297-1.984-0.625h-0.061v0.747
							c0,0.675,0.905,1.3,2.119,1.3C123.333,220.43,124.311,219.597,124.311,218.198 M118.883,215.271v-0.586
							c0-0.5-0.356-1.08-1.374-1.08c-1.738,0-2.436,1.26-2.436,2.586v3.036c0,0.688,0.463,1.055,1.198,1.055h0.452v-3.8
							c0-1.008,0.405-1.411,1.141-1.411c0.43,0,0.709,0.094,0.957,0.195h0.061V215.271L118.883,215.271z M113.723,217.32v-2.477
							c0-0.771-0.402-1.177-1.359-1.177h-0.293v3.713c0,1.125-0.479,1.594-1.153,1.594c-0.748,0-1.336-0.492-1.336-1.705v-2.425
							c0-0.771-0.416-1.177-1.36-1.177h-0.305v3.76c0,1.925,1.285,3.003,2.917,3.003C112.756,220.43,113.723,219.375,113.723,217.32
							 M105.355,215.883c0,0.472-0.357,0.641-1.915,0.641h-0.735l0.012-0.222c0.036-0.76,0.588-1.411,1.386-1.411
							C104.863,214.888,105.355,215.222,105.355,215.883 M106.897,216.078c0-1.583-1.273-2.562-2.646-2.562
							c-1.887,0-3.233,1.386-3.233,3.591c0,2.023,1.604,3.32,3.247,3.32c1.814,0,2.39-0.648,2.39-1.494v-0.516h-0.062
							c-0.527,0.489-1.334,0.627-2.023,0.627c-0.969,0-1.729-0.528-1.85-1.361h1.079
							C105.979,217.685,106.897,217.292,106.897,216.078 M96.666,213.933v3.974c0,1.542,0.807,2.453,2.472,2.453
							c0.956,0,1.447-0.43,1.447-1.104v-0.586h-0.061c-0.257,0.159-0.662,0.237-1.191,0.237c-0.66,0-1.041-0.333-1.041-1.192v-2.584
							h1.312c0.674,0,0.981-0.442,0.981-0.783v-0.678h-2.292v-1.492h-0.379c-0.257,0-0.551,0.193-0.772,0.451
							C96.787,213.039,96.666,213.284,96.666,213.933 M95.659,215.797v-0.773c0-0.784-0.748-1.419-1.803-1.419
							c-2.254,0-3.565,1.614-3.565,3.505c0,1.888,1.568,3.3,3.381,3.3c1.189,0,1.96-0.578,1.96-1.373v-0.758h-0.06
							c-0.232,0.305-0.795,0.612-1.742,0.612c-1.114,0-1.825-0.817-1.825-2.023c0-0.977,0.846-1.75,1.801-1.75
							c0.944,0,1.566,0.305,1.789,0.688h0.063V215.797z M88.037,215.883c0,0.472-0.357,0.641-1.915,0.641h-0.733l0.009-0.222
							c0.039-0.76,0.591-1.411,1.388-1.411C87.547,214.888,88.037,215.222,88.037,215.883 M89.58,216.078
							c0-1.583-1.275-2.562-2.646-2.562c-1.889,0-3.236,1.386-3.236,3.591c0,2.023,1.604,3.32,3.248,3.32
							c1.814,0,2.388-0.648,2.388-1.494v-0.516h-0.06c-0.527,0.489-1.336,0.627-2.023,0.627c-0.969,0-1.729-0.528-1.852-1.361h1.08
							C88.66,217.685,89.58,217.292,89.58,216.078 M82.973,218.198c0-1.053-0.734-1.654-2.106-1.873
							c-1.129-0.188-1.325-0.32-1.325-0.648c0-0.43,0.318-0.739,1.325-0.739c0.784,0,1.544,0.271,1.888,0.612h0.059v-0.623
							c0-0.638-0.61-1.411-2.104-1.411c-1.693,0-2.808,1.055-2.808,2.294c0,1.006,0.674,1.555,2.071,1.75
							c1.14,0.162,1.373,0.344,1.373,0.725c0,0.489-0.392,0.724-1.201,0.724c-0.784,0-1.631-0.297-1.985-0.625h-0.061v0.747
							c0,0.675,0.906,1.3,2.12,1.3C81.995,220.43,82.973,219.597,82.973,218.198 M74.713,218.198c0-1.053-0.733-1.654-2.106-1.873
							c-1.131-0.188-1.326-0.32-1.326-0.648c0-0.43,0.318-0.739,1.326-0.739c0.784,0,1.542,0.271,1.888,0.612h0.059v-0.623
							c0-0.638-0.612-1.411-2.105-1.411c-1.693,0-2.807,1.055-2.807,2.294c0,1.006,0.673,1.555,2.07,1.75
							c1.141,0.162,1.375,0.344,1.375,0.725c0,0.489-0.392,0.724-1.201,0.724c-0.784,0-1.631-0.297-1.986-0.625h-0.061v0.747
							c0,0.675,0.907,1.3,2.12,1.3C73.733,220.43,74.713,219.597,74.713,218.198 M67.398,215.883c0,0.472-0.355,0.641-1.912,0.641
							H64.75l0.013-0.222c0.037-0.76,0.589-1.411,1.386-1.411C66.908,214.888,67.398,215.222,67.398,215.883 M68.941,216.078
							c0-1.583-1.273-2.562-2.646-2.562c-1.888,0-3.235,1.386-3.235,3.591c0,2.023,1.604,3.32,3.247,3.32
							c1.814,0,2.389-0.648,2.389-1.494v-0.516h-0.061c-0.527,0.489-1.334,0.627-2.021,0.627c-0.969,0-1.729-0.528-1.852-1.361
							h1.079C68.023,217.685,68.941,217.292,68.941,216.078 M60.364,217.159c0,1.2-0.402,1.888-1.324,1.888
							c-0.945,0-1.657-0.896-1.657-2.271c0-1.065,0.54-1.87,1.375-1.87C59.639,214.901,60.364,215.5,60.364,217.159 M62.018,217.231
							v-4.656c0-0.661-0.343-1.117-1.125-1.117h-0.501v3.1c-0.258-0.581-0.981-1.042-1.644-1.042c-1.925,0-2.976,1.411-2.976,3.581
							c0,1.814,1.334,3.333,3.074,3.333C61.112,220.43,62.018,219.156,62.018,217.231"/>
					</g>
				</g>
			</g>
			<g>
				<g>
					<g>
						<defs>
							<rect id="SVGID_3_" x="55.768" y="163.466" width="204.565" height="56.975"/>
						</defs>
						<clipPath id="SVGID_4_">
							<use xlink:href="#SVGID_3_"  overflow="visible"/>
						</clipPath>
						<path clip-path="url(#SVGID_4_)" fill="#FFFFFF" d="M220.589,204.513c0-1.055-0.734-1.656-2.107-1.877
							c-1.127-0.186-1.324-0.32-1.324-0.651c0-0.43,0.319-0.737,1.324-0.737c0.784,0,1.545,0.271,1.886,0.615h0.063v-0.625
							c0-0.636-0.613-1.406-2.107-1.406c-1.69,0-2.805,1.049-2.805,2.289c0,1.005,0.674,1.56,2.072,1.752
							c1.139,0.156,1.37,0.344,1.37,0.725c0,0.486-0.395,0.721-1.2,0.721c-0.787,0-1.631-0.297-1.984-0.627h-0.064v0.75
							c0,0.672,0.909,1.299,2.123,1.299C219.609,206.739,220.589,205.909,220.589,204.513 M211.177,200.247v3.972
							c0,1.542,0.808,2.448,2.475,2.448c0.958,0,1.447-0.428,1.447-1.102v-0.586h-0.062c-0.258,0.158-0.66,0.231-1.189,0.231
							c-0.662,0-1.039-0.333-1.039-1.19v-2.586h1.309c0.673,0,0.978-0.439,0.978-0.783v-0.672h-2.292v-1.495h-0.383
							c-0.251,0-0.547,0.195-0.768,0.453C211.302,199.352,211.177,199.597,211.177,200.247 M210.441,201.581v-0.589
							c0-0.5-0.355-1.075-1.371-1.075c-1.739,0-2.438,1.26-2.438,2.583v3.034c0,0.689,0.468,1.055,1.199,1.055h0.453v-3.8
							c0-1.008,0.405-1.411,1.14-1.411c0.427,0,0.711,0.096,0.955,0.195h0.062V201.581z M203.887,203.409
							c0,1.078-0.465,1.861-1.423,1.861c-1.085,0-1.57-0.786-1.57-2.096c0-1.092,0.481-1.878,1.422-1.878
							C203.398,201.297,203.887,202.083,203.887,203.409 M199.192,203.409c0,1.75,1.14,3.33,3.125,3.33
							c2.137,0,3.273-1.58,3.273-3.564c0-1.753-1.138-3.344-3.127-3.344C200.331,199.831,199.192,201.422,199.192,203.409
							 M196.767,203.519c0,1.055-0.551,1.766-1.35,1.766c-0.98,0-1.633-0.75-1.633-2.073c0-1.141,0.5-1.927,1.411-1.927
							C196.25,201.284,196.767,201.964,196.767,203.519 M198.457,203.091c0-1.669-1.249-3.26-3.001-3.26
							c-2.331,0-3.311,1.521-3.311,3.711v3.997c0,0.708,0.569,1.141,1.154,1.141h0.51v-2.919c0.334,0.564,0.936,0.979,1.672,0.979
							C197.403,206.739,198.457,205.211,198.457,203.091 M191.116,204.513c0-1.055-0.736-1.656-2.108-1.877
							c-1.128-0.186-1.323-0.32-1.323-0.651c0-0.43,0.319-0.737,1.323-0.737c0.786,0,1.544,0.271,1.886,0.615h0.062v-0.625
							c0-0.636-0.612-1.406-2.107-1.406c-1.692,0-2.805,1.049-2.805,2.289c0,1.005,0.672,1.56,2.069,1.752
							c1.14,0.156,1.374,0.344,1.374,0.725c0,0.486-0.394,0.721-1.203,0.721c-0.787,0-1.628-0.297-1.984-0.627h-0.061v0.75
							c0,0.672,0.906,1.299,2.117,1.299C190.138,206.739,191.116,205.909,191.116,204.513 M185.012,206.591v-3.846
							c0-1.875-1.288-2.914-2.843-2.914c-2.059,0-2.977,1.43-2.977,2.828v2.856c0,0.612,0.451,1.075,1.152,1.075h0.487v-3.822
							c0-0.943,0.492-1.479,1.202-1.479c0.846,0,1.336,0.487,1.336,1.602v2.628c0,0.611,0.466,1.08,1.197,1.08h0.441
							L185.012,206.591L185.012,206.591z M176.531,204.352c0,0.675-0.344,1.016-1.055,1.016c-0.724,0-1.14-0.305-1.14-0.82
							c0-0.536,0.355-0.833,1.607-0.833h0.587V204.352L176.531,204.352z M178.138,204.336v-1.519c0-2.278-1.322-2.966-2.794-2.966
							c-1.739,0-2.401,0.88-2.401,1.614v0.526h0.059c0.246-0.305,0.908-0.758,2.097-0.758c0.98,0,1.421,0.281,1.421,1.208v0.089
							h-0.578c-2.422,0-3.285,0.891-3.285,2.067c0,1.217,1.076,2.097,2.645,2.097h0.33
							C177.108,206.703,178.138,205.737,178.138,204.336 M172.28,201.581v-0.589c0-0.5-0.358-1.075-1.374-1.075
							c-1.741,0-2.438,1.26-2.438,2.583v3.034c0,0.689,0.466,1.055,1.198,1.055h0.454v-3.8c0-1.008,0.407-1.411,1.142-1.411
							c0.428,0,0.711,0.096,0.955,0.195h0.062V201.581z M168.563,198.724v-0.528h-5.634c-0.688,0-1.018,0.519-1.018,0.917v0.549
							h2.416v5.8c0,0.75,0.426,1.128,1.014,1.128h0.678v-6.922h1.541C168.112,199.667,168.563,199.13,168.563,198.724
							 M157.612,202.195c0,0.464-0.356,0.636-1.915,0.636h-0.734l0.01-0.219c0.037-0.758,0.591-1.409,1.386-1.409
							C157.12,201.203,157.612,201.531,157.612,202.195 M159.154,202.388c0-1.583-1.273-2.557-2.647-2.557
							c-1.885,0-3.233,1.383-3.233,3.586c0,2.025,1.604,3.32,3.248,3.32c1.813,0,2.391-0.651,2.391-1.492v-0.523h-0.062
							c-0.527,0.492-1.336,0.633-2.023,0.633c-0.97,0-1.728-0.529-1.853-1.362h1.082
							C158.236,203.995,159.154,203.604,159.154,202.388 M150.578,203.469c0,1.2-0.406,1.891-1.324,1.891
							c-0.944,0-1.654-0.898-1.654-2.269c0-1.067,0.538-1.877,1.373-1.877C149.854,201.214,150.578,201.815,150.578,203.469
							 M152.23,203.542v-4.656c0-0.662-0.342-1.115-1.126-1.115H150.6v3.1c-0.256-0.573-0.979-1.039-1.64-1.039
							c-1.926,0-2.979,1.411-2.979,3.58c0,1.811,1.336,3.334,3.076,3.334C151.323,206.739,152.23,205.466,152.23,203.542
							 M139.155,200.247v3.972c0,1.542,0.81,2.448,2.474,2.448c0.957,0,1.446-0.428,1.446-1.102v-0.586h-0.062
							c-0.257,0.158-0.662,0.231-1.189,0.231c-0.662,0-1.042-0.333-1.042-1.19v-2.586h1.311c0.674,0,0.981-0.439,0.981-0.783v-0.672
							h-2.292v-1.495h-0.38c-0.257,0-0.55,0.195-0.77,0.453C139.277,199.352,139.155,199.597,139.155,200.247 M136.434,204.352
							c0,0.675-0.344,1.016-1.056,1.016c-0.723,0-1.14-0.305-1.14-0.82c0-0.536,0.356-0.833,1.607-0.833h0.588V204.352
							L136.434,204.352z M138.039,204.336v-1.519c0-2.278-1.324-2.966-2.793-2.966c-1.74,0-2.403,0.88-2.403,1.614v0.526h0.062
							c0.244-0.305,0.906-0.758,2.094-0.758c0.981,0,1.423,0.281,1.423,1.208v0.089h-0.576c-2.428,0-3.284,0.891-3.284,2.067
							c0,1.217,1.078,2.097,2.646,2.097h0.332C137.01,206.703,138.039,205.737,138.039,204.336 M131.911,202.106v-0.773
							c0-0.781-0.748-1.416-1.803-1.416c-2.254,0-3.565,1.614-3.565,3.502c0,1.889,1.568,3.297,3.382,3.297
							c1.188,0,1.961-0.575,1.961-1.364v-0.761h-0.061c-0.234,0.305-0.798,0.612-1.74,0.612c-1.115,0-1.827-0.82-1.827-2.023
							c0-0.981,0.846-1.753,1.802-1.753c0.944,0,1.571,0.305,1.79,0.688h0.061V202.106z M126.176,205.664v-0.359h-0.308
							c-0.723,0-1.004-0.208-1.004-0.867v-3.086c0-0.833-0.44-1.229-1.174-1.229h-0.467v4.475c0,1.333,0.699,2.057,1.972,2.057
							C125.892,206.653,126.176,206.372,126.176,205.664 M124.999,198.542c0-0.526-0.441-0.956-0.969-0.956
							c-0.525,0-0.955,0.43-0.955,0.956c0,0.528,0.429,0.971,0.955,0.971C124.557,199.508,124.999,199.07,124.999,198.542
							 M120.012,203.469c0,1.2-0.405,1.891-1.325,1.891c-0.944,0-1.655-0.898-1.655-2.269c0-1.067,0.541-1.877,1.375-1.877
							C119.288,201.214,120.012,201.815,120.012,203.469 M121.666,203.542v-4.656c0-0.662-0.344-1.115-1.127-1.115h-0.503v3.1
							c-0.257-0.573-0.979-1.039-1.643-1.039c-1.924,0-2.976,1.411-2.976,3.58c0,1.811,1.333,3.334,3.075,3.334
							C120.757,206.739,121.666,205.466,121.666,203.542 M114.372,206.591v-3.846c0-1.875-1.284-2.914-2.842-2.914
							c-2.057,0-2.976,1.43-2.976,2.828v2.856c0,0.612,0.453,1.075,1.152,1.075h0.49v-3.822c0-0.943,0.491-1.479,1.202-1.479
							c0.846,0,1.336,0.487,1.336,1.602v2.628c0,0.611,0.464,1.08,1.201,1.08h0.438V206.591L114.372,206.591z M106.359,205.172
							c0.305-0.711,1.458-3.727,1.458-4.425c0-0.536-0.246-0.771-0.772-0.771h-0.71c-0.147,1.349-0.748,3.347-1.288,4.583
							c-0.602-1.158-1.092-2.533-1.324-3.81c-0.086-0.469-0.502-0.771-0.956-0.771h-0.871c0.221,1.557,1.471,4.844,2.342,6.15
							c-0.355,0.928-0.563,1.18-1.166,1.214l-0.931,0.062v0.315c0,0.611,0.539,1.021,1.152,1.021
							C104.481,208.739,105.132,208.065,106.359,205.172 M101.467,203.997c0-1.133-0.747-1.927-2.277-2.247
							c-1.57-0.331-1.963-0.641-1.963-1.141c0-0.648,0.479-1.078,1.777-1.078c0.92,0,1.666,0.269,2.18,0.82h0.05v-0.771
							c0-0.698-0.564-1.531-2.523-1.531c-1.977,0-3.151,1.322-3.151,2.721c0,1.139,0.809,1.854,2.23,2.159
							c1.777,0.378,2,0.638,2,1.211c0,0.677-0.405,1.104-1.669,1.104c-1.017,0-1.776-0.412-2.338-0.912h-0.036v0.75
							c0,0.99,0.869,1.654,2.56,1.654C100.341,206.739,101.467,205.651,101.467,203.997"/>
					</g>
				</g>
			</g>
			<g>
				<g>
					<g>
						<defs>
							<rect id="SVGID_5_" x="55.768" y="163.466" width="204.565" height="56.975"/>
						</defs>
						<clipPath id="SVGID_6_">
							<use xlink:href="#SVGID_5_"  overflow="visible"/>
						</clipPath>
						<path clip-path="url(#SVGID_6_)" fill="#FFFFFF" d="M239.055,169.438c1.165,0,1.997,0.81,1.997,2.474
							c0,1.698-0.949,2.693-2.275,2.693c-1.268,0-2.115-1.029-2.115-2.417C236.661,170.581,237.69,169.438,239.055,169.438
							 M243.698,173.57v-1.82c0-2.729-1.697-4.667-4.347-4.667c-3.442,0-5.417,2.43-5.417,5.438c0,2.514,1.838,4.311,4.428,4.311
							c1.523,0,2.527-0.812,2.748-1.584v0.256l0.042,1.086c0.059,1.539-0.872,2.453-2.79,2.453c-1.529,0-2.75-0.472-3.383-1.148
							h-0.117v1.208c0,1.263,1.5,2.331,3.693,2.331c3.441,0,5.221-2.391,5.221-5.062c0-0.357-0.026-0.928-0.037-1.362
							C243.719,174.539,243.698,173.925,243.698,173.57 M233.278,169.909v-0.945c0-0.811-0.572-1.742-2.213-1.742
							c-2.808,0-3.93,2.033-3.93,4.169v4.906c0,1.106,0.75,1.698,1.932,1.698h0.734v-6.133c0-1.62,0.65-2.273,1.839-2.273
							c0.691,0,1.145,0.158,1.542,0.317L233.278,169.909L233.278,169.909z M222.703,172.856c0,1.74-0.75,3.006-2.297,3.006
							c-1.758,0-2.528-1.266-2.528-3.383c0-1.758,0.771-3.023,2.293-3.023C221.914,169.456,222.703,170.719,222.703,172.856
							 M215.133,172.856c0,2.831,1.836,5.378,5.038,5.378c3.442,0,5.279-2.547,5.279-5.755c0-2.826-1.837-5.396-5.041-5.396
							C216.969,167.083,215.133,169.653,215.133,172.856 M213.685,176.297c0-0.927-0.771-1.7-1.695-1.7
							c-0.928,0-1.699,0.773-1.699,1.7s0.771,1.698,1.699,1.698C212.914,177.995,213.685,177.224,213.685,176.297 M204.335,172.56
							h-3.577c0.79-1.442,2.648-4.13,3.577-5.359V172.56z M209.098,173.628v-1.068h-2.137v-6.208c0-1.263-0.675-1.896-1.62-1.896
							h-0.984c-1.88,1.523-4.806,5.93-5.74,7.63c-0.178,0.339-0.354,0.731-0.354,1.484c0,0.612,0.589,1.224,1.479,1.224h4.585v1.461
							c0,1.148,0.652,1.74,1.582,1.74h1.047v-3.198h1.008C208.723,174.794,209.098,174.32,209.098,173.628 M196.996,173.984
							c0-1.347-1.323-2.591-2.507-2.849c1.383-0.295,2.43-1.206,2.43-3.144c0-2.273-1.898-3.773-4.844-3.773
							c-2.766,0-4.191,1.5-4.191,2.604v1.15h0.09c0.714-0.932,2.123-1.445,3.625-1.445c1.815,0,2.648,0.732,2.648,1.938
							c0,0.972-0.65,1.703-2.648,1.784c-0.578,0.019-1.088,0.039-1.466,0.078v0.888c0,0.672,0.456,1.008,1.64,1.029
							c1.681,0.036,2.552,0.516,2.552,1.822c0,1.026-0.733,1.842-2.512,1.842c-1.819,0-3.106-0.578-3.933-1.472h-0.102v1.073
							c0,1.838,1.761,2.727,3.896,2.727C195.222,178.234,196.996,176.534,196.996,173.984 M186.758,168.589
							c0-0.873-0.339-1.266-1.25-1.266h-1.128c-0.393,2.666-1.324,5.494-2.332,7.489c-1.131-2.192-1.662-4.247-2.037-6.224
							c-0.097-0.573-0.672-1.266-1.584-1.266h-1.422c0.24,2.883,2.059,7.531,3.502,9.724c0.532,0.792,0.947,1.067,1.743,1.067h0.513
							c1.188-1.622,2.373-4.189,3.082-6.146C186.501,170.19,186.758,168.903,186.758,168.589 M177.324,176.495v-0.573h-0.711
							c-1.246,0-1.801-0.339-1.801-1.406v-8.974c0-1.011-0.573-1.779-1.896-1.779h-0.75v11.014c0,2.153,1.188,3.32,3.379,3.32
							C176.712,178.097,177.324,177.644,177.324,176.495 M169.891,177.995v-6.409c0-3.026-1.977-4.505-4.427-4.505
							c-1.285,0-2.452,0.672-3.067,1.658c-0.767-1.028-1.854-1.658-3.239-1.658c-3.223,0-4.746,1.935-4.746,4.846v4.131
							c0,1.227,0.831,1.938,1.916,1.938h0.711v-6.287c0-1.466,0.773-2.273,1.801-2.273c1.169,0,1.98,0.75,1.98,2.508v4.115
							c0,1.266,0.768,1.938,1.932,1.938h0.711v-6.347c0-1.464,0.731-2.214,1.802-2.214c1.168,0,1.958,0.75,1.958,2.508v4.115
							c0,1.266,0.576,1.938,2.016,1.938H169.891L169.891,177.995z M152.732,171h-4.608c-0.772,0-1.227,0.472-1.227,1.125v1.008
							h4.548c0.812,0,1.287-0.394,1.287-1.086V171z M139.918,167.758v6.403c0,2.492,1.304,3.953,3.992,3.953
							c1.541,0,2.333-0.689,2.333-1.778v-0.948h-0.099c-0.416,0.258-1.067,0.375-1.918,0.375c-1.066,0-1.68-0.528-1.68-1.916v-4.175
							h2.116c1.087,0,1.582-0.708,1.582-1.263v-1.086h-3.697v-2.412h-0.612c-0.415,0-0.89,0.315-1.244,0.732
							C140.116,166.315,139.918,166.708,139.918,167.758 M138.73,176.495v-0.573h-0.495c-1.167,0-1.623-0.339-1.623-1.406v-4.981
							c0-1.347-0.709-1.975-1.896-1.975h-0.752v7.217c0,2.153,1.126,3.32,3.183,3.32C138.277,178.097,138.73,177.644,138.73,176.495
							 M136.832,165.005c0-0.849-0.709-1.539-1.56-1.539c-0.85,0-1.542,0.693-1.542,1.539c0,0.85,0.693,1.562,1.542,1.562
							C136.123,166.567,136.832,165.856,136.832,165.005 M131.968,174.638c0-1.703-1.185-2.672-3.397-3.028
							c-1.821-0.3-2.137-0.516-2.137-1.047c0-0.695,0.514-1.188,2.137-1.188c1.265,0,2.489,0.433,3.042,0.984h0.099v-1.008
							c0-1.028-0.987-2.271-3.398-2.271c-2.73,0-4.528,1.695-4.528,3.692c0,1.625,1.085,2.516,3.338,2.831
							c1.842,0.255,2.216,0.552,2.216,1.166c0,0.792-0.634,1.167-1.939,1.167c-1.265,0-2.627-0.472-3.2-1.008h-0.1v1.203
							c0,1.083,1.462,2.094,3.42,2.094C130.389,178.234,131.968,176.891,131.968,174.638 M122.36,176.297
							c0-0.927-0.772-1.7-1.698-1.7c-0.93,0-1.7,0.773-1.7,1.7s0.771,1.698,1.7,1.698
							C121.588,177.995,122.36,177.224,122.36,176.297 M117.972,168.409c0-0.811-0.533-1.146-1.285-1.146h-1.108
							c-0.416,2.417-0.989,4.881-1.997,7.115c-0.752-1.5-1.404-3.714-1.722-5.159c-0.256-1.164-1.066-1.503-1.877-1.503h-0.871
							c-0.514,2.253-1.047,4.547-2.016,6.662c-0.889-1.936-1.385-3.951-1.701-5.771c-0.098-0.588-0.633-1.283-1.541-1.283h-1.426
							c0.475,3.557,1.503,6.641,3.045,9.367c0.359,0.633,1.109,1.424,1.897,1.424h0.357c0.948-1.283,2.194-4.586,2.53-6.208
							c0.298,1.622,1.107,3.597,1.761,4.784c0.354,0.656,0.987,1.424,1.817,1.424h0.436c0.693-1.028,1.681-2.986,2.471-5.239
							C117.536,170.661,117.972,168.825,117.972,168.409 M102.352,168.409c0-0.811-0.535-1.146-1.286-1.146h-1.108
							c-0.414,2.417-0.989,4.881-1.996,7.115c-0.75-1.5-1.406-3.714-1.723-5.159c-0.255-1.164-1.067-1.503-1.877-1.503h-0.869
							c-0.515,2.253-1.048,4.547-2.018,6.662c-0.891-1.936-1.386-3.951-1.7-5.771c-0.1-0.588-0.635-1.283-1.543-1.283h-1.422
							c0.475,3.557,1.502,6.641,3.044,9.367c0.357,0.633,1.108,1.424,1.898,1.424h0.356c0.948-1.283,2.195-4.586,2.532-6.208
							c0.296,1.622,1.105,3.597,1.76,4.784c0.355,0.656,0.988,1.424,1.818,1.424h0.436c0.691-1.028,1.68-2.986,2.472-5.239
							C101.917,170.661,102.352,168.825,102.352,168.409 M86.732,168.409c0-0.811-0.533-1.146-1.285-1.146H84.34
							c-0.416,2.417-0.989,4.881-1.998,7.115c-0.752-1.5-1.403-3.714-1.721-5.159c-0.257-1.164-1.068-1.503-1.879-1.503h-0.869
							c-0.513,2.253-1.047,4.547-2.017,6.662c-0.889-1.936-1.384-3.951-1.7-5.771c-0.1-0.588-0.635-1.283-1.543-1.283h-1.424
							c0.475,3.557,1.502,6.641,3.046,9.367c0.354,0.633,1.106,1.424,1.897,1.424h0.356c0.949-1.283,2.196-4.586,2.53-6.208
							c0.297,1.622,1.108,3.597,1.76,4.784c0.357,0.656,0.99,1.424,1.82,1.424h0.435c0.693-1.028,1.682-2.986,2.472-5.239
							C86.297,170.661,86.732,168.825,86.732,168.409"/>
					</g>
				</g>
			</g>
		</g>
	</g>
</g>
</svg>
