<?xml version="1.0" encoding="utf-8"?>
<!-- Generator: Adobe Illustrator 16.0.4, SVG Export Plug-In . SVG Version: 6.00 Build 0)  -->
<!DOCTYPE svg PUBLIC "-//W3C//DTD SVG 1.1//EN" "http://www.w3.org/Graphics/SVG/1.1/DTD/svg11.dtd">
<svg version="1.1" id="Calque_1" xmlns="http://www.w3.org/2000/svg" xmlns:xlink="http://www.w3.org/1999/xlink" x="0px" y="0px"
	 width="325px" height="225px" viewBox="0 0 325 225" enable-background="new 0 0 325 225" xml:space="preserve">
<path fill="#7B7B7B" d="M129.957,74.812c-1.439,0-2.576-0.936-3.408-2.808c-0.188-0.419-0.348-0.863-0.486-1.33
	c-0.402-1.495-0.544-2.544-0.431-3.146c0.149-0.047,0.288-0.069,0.423-0.069c0.536,0,0.967,0.366,1.293,1.101
	c0.152,0.34,0.339,0.926,0.569,1.758c0.225,0.833,0.415,1.419,0.567,1.759c0.294,0.663,0.677,0.994,1.146,0.994
	c0.166,0,0.344-0.042,0.533-0.126c0.758-0.337,1.117-0.964,1.068-1.875c-0.012-0.401-0.205-1.321-0.582-2.757
	c-0.29-1.188-0.373-2.073-0.248-2.656c0.201,0.077,0.534,0.289,1,0.633c0.577,0.437,0.94,0.825,1.092,1.166
	c0.49,1.098,0.614,2.454,0.376,4.07c-0.263,1.721-0.825,2.748-1.681,3.083C130.759,74.744,130.346,74.812,129.957,74.812
	 M136.055,71.956c-0.04,0-0.079,0-0.12-0.001l-0.852-1.918c-0.072-0.159-0.401-1.431-0.983-3.818
	c-0.583-2.385-0.855-3.587-0.816-3.605l0.264,0.026l0.223,0.04c-0.012-0.036,0.186-0.367,0.59-0.995
	c0.447-0.688,0.981-1.171,1.601-1.448c0.026-0.013,0.057-0.018,0.09-0.018c0.551,0,1.901,1.655,4.05,4.963
	c1.936,2.946,3.04,4.729,3.314,5.347l0.034,0.237l-0.02,0.116c-0.124,0.152-0.328,0.29-0.607,0.415
	c-0.048,0.02-0.098,0.031-0.149,0.031c-0.398,0-0.964-0.588-1.697-1.759c-0.764-1.287-1.529-2.575-2.293-3.863
	c-0.896-1.271-1.68-1.906-2.351-1.906c-0.061,0-0.12,0.005-0.178,0.016c-0.208,0.235-0.127,1.625,0.238,4.166
	c0.366,2.543,0.51,3.832,0.429,3.868C136.661,71.919,136.404,71.956,136.055,71.956 M144.023,68.55c-0.088,0-0.184-0.011-0.28-0.036
	c-0.242-0.06-0.396-0.158-0.458-0.299c-0.132-0.3-0.337-1.297-0.613-2.995c-0.325-1.962-0.408-3.252-0.252-3.872
	c0.485,0.069,0.771,0.134,0.856,0.191c0.084,0.06,0.192,0.227,0.316,0.508c0.257,0.579,0.542,1.674,0.852,3.283
	c0.354,1.925,0.342,2.974-0.039,3.142C144.284,68.525,144.159,68.55,144.023,68.55 M150.413,65.774
	c-0.695,0-1.556-0.699-2.578-2.099c-0.856-1.175-1.563-2.382-2.113-3.62l-0.214-0.479c0.167-0.433,0.401-0.718,0.699-0.85
	c0.072-0.032,0.147-0.048,0.224-0.048c0.496,0,1.137,0.631,1.926,1.892c0.545,0.956,1.086,1.898,1.621,2.833
	c0.209-0.5,0.442-1.561,0.701-3.185c0.044-0.761,0.092-1.514,0.145-2.255c0.171-1.393,0.435-2.169,0.796-2.329
	c0.031-0.015,0.068-0.022,0.105-0.022c0.121,0,0.267,0.077,0.435,0.229c0.221,0.202,0.355,0.352,0.399,0.451
	c0.329,0.741,0.324,2.369-0.015,4.89c-0.372,2.657-0.948,4.158-1.729,4.505C150.688,65.745,150.555,65.774,150.413,65.774
	 M158.681,61.983c-1.264,0-2.396-0.745-3.398-2.233c-0.351-0.73-0.499-1.575-0.445-2.532c0.077-0.417,0.15-0.844,0.218-1.281
	c0.107-0.622,0.413-1.309,0.916-2.06c0.618-0.922,1.316-1.556,2.098-1.902c0.263-0.117,0.578-0.177,0.941-0.177
	c0.079,0,0.158,0.003,0.24,0.01c0.587,0.025,0.964,0.229,1.132,0.607c0.278,0.62,0.186,1.534-0.269,2.742
	c-0.456,1.208-0.994,1.951-1.611,2.226c0.007-0.003,0-0.004-0.027-0.004c-0.103,0-0.476,0.028-1.124,0.086
	c-0.052-0.121-0.14-0.315-0.26-0.584s-0.197-0.444-0.233-0.525c-0.377,1.413-0.405,2.479-0.084,3.198
	c0.261,0.59,0.746,0.883,1.447,0.883c0.563,0,1.266-0.187,2.107-0.563c0.341-0.149,1.198-0.616,2.576-1.397l1.018-0.454l0.388,0.869
	c-0.184,0.129-0.626,0.506-1.33,1.131c-0.582,0.521-0.917,0.803-1.007,0.842l-0.3,0.17l-0.314,0.141
	c-0.091,0.041-0.267,0.118-0.525,0.233c-0.269,0.096-0.444,0.162-0.522,0.198C159.745,61.857,159.202,61.983,158.681,61.983
	 M158.866,53.521c-1.144,1.037-1.784,2.016-1.924,2.94l0.51-0.228c0.636-0.881,0.96-1.337,0.972-1.366
	C158.78,54.326,158.927,53.876,158.866,53.521 M166.666,58.409c-0.078,0-0.161-0.003-0.242-0.01
	c-0.424-0.038-0.698-0.198-0.823-0.477c-0.792-1.778-1.192-3.458-1.199-5.033c0.011-2.231,0.917-3.749,2.716-4.55
	c0.655-0.292,1.231-0.438,1.721-0.438c0.523,0,0.953,0.166,1.286,0.5c-0.046,0.164-0.097,0.318-0.151,0.462
	c-0.081,0.251-0.181,0.404-0.301,0.458c-0.08,0.035-0.371,0.124-0.871,0.261c-0.501,0.141-0.791,0.227-0.871,0.262
	c-1.898,0.846-2.277,2.546-1.139,5.104c0.074,0.161,0.146,0.449,0.226,0.869c0.079,0.419,0.172,0.75,0.278,0.989
	c0.135,0.3,0.332,0.584,0.594,0.85l-0.071,0.319l-0.219,0.241C167.31,58.346,167,58.409,166.666,58.409 M141.953,56.561
	c-0.44,0-0.761-0.228-0.963-0.682c-0.16-0.36-0.229-0.725-0.201-1.096c0.051-0.477,0.256-0.796,0.616-0.956
	c0.176-0.079,0.339-0.118,0.487-0.118c0.358,0,0.637,0.226,0.839,0.675c0.062,0.14,0.012,0.5-0.151,1.074
	c-0.162,0.576-0.307,0.94-0.431,1.09C142.08,56.557,142.015,56.561,141.953,56.561 M172.862,56.045c-0.199,0-0.496-0.033-0.888-0.1
	c-0.622-0.106-1.024-0.203-1.206-0.289l0.06-0.189l0.007-0.309c0.161-0.071,0.426-0.189,0.796-0.354
	c0.368-0.164,0.593-0.264,0.672-0.299c0.36-0.161,0.986-0.583,1.879-1.268c1.066-0.833,1.526-1.41,1.385-1.73
	c-0.116-0.259-0.57-0.583-1.367-0.972c-0.796-0.388-1.336-0.901-1.618-1.541c-0.286-0.64-0.098-1.585,0.568-2.839
	c0.648-1.174,1.292-1.905,1.932-2.189c0.083-0.037,0.167-0.056,0.252-0.056c0.182,0,0.365,0.085,0.554,0.254
	c0.278,0.248,0.459,0.543,0.542,0.89c-0.446,0.559-0.892,1.117-1.339,1.674c-0.635,0.833-0.871,1.429-0.712,1.79
	c0.091,0.198,0.611,0.577,1.566,1.133c0.953,0.559,1.516,1.027,1.685,1.405c0.151,0.341-0.123,1.031-0.819,2.072
	c-0.698,1.041-1.15,1.605-1.348,1.695l-0.242,0.18l-0.215,0.167l-1.888,0.84C173.067,56.034,172.98,56.045,172.862,56.045
	 M181.188,52.004c-0.092,0-0.185-0.013-0.282-0.035c-0.241-0.061-0.395-0.16-0.457-0.3c-0.132-0.3-0.337-1.298-0.614-2.994
	c-0.325-1.964-0.407-3.255-0.253-3.875c0.486,0.071,0.773,0.135,0.857,0.192c0.086,0.058,0.192,0.228,0.316,0.506
	c0.258,0.58,0.542,1.674,0.852,3.284c0.354,1.925,0.341,2.973-0.037,3.141C181.448,51.979,181.323,52.004,181.188,52.004
	 M187.243,49.506c-0.103-0.072-0.239-0.301-0.41-0.679c-0.017-0.041-0.173-0.862-0.47-2.466c-0.295-1.604-0.516-2.542-0.66-2.813
	c-0.226,0.03-0.527,0.128-0.908,0.297c-0.18,0.081-0.479,0.213-0.897,0.4c-0.42,0.187-0.721,0.321-0.901,0.401
	c-0.453,0.203-0.834,0.303-1.142,0.303c-0.393,0-0.665-0.167-0.815-0.501c-0.084-0.192,0.008-0.417,0.276-0.675
	c0.186-0.175,0.357-0.296,0.519-0.369c1.552-0.547,2.317-0.846,2.293-0.896c-0.005-0.01,0.088-0.055,0.276-0.133
	c0.168-0.096,0.354-0.206,0.56-0.327c0.407-0.109,0.423-0.584,0.049-1.423c-0.149-0.34-0.435-0.871-0.852-1.596
	c-0.365-0.604-0.551-0.963-0.554-1.083c-0.036-0.127-0.031-0.441,0.012-0.939c0.126-0.631,0.298-0.994,0.519-1.093
	c0.039-0.017,0.078-0.026,0.115-0.026c0.135,0,0.264,0.114,0.384,0.342c0.26,0.365,0.646,0.995,1.166,1.888
	c0.126,0.231,0.359,0.679,0.703,1.339c0.28,0.525,0.521,1.138,0.719,1.835c0.784-0.292,1.717-0.635,2.798-1.032
	c0.073-0.032,0.149-0.048,0.226-0.048c0.182,0,0.378,0.087,0.588,0.262c0.107,0.023,0.204,0.136,0.295,0.335
	c0.065,0.197,0.065,0.295,0,0.295c-0.004,0-0.008-0.002-0.013-0.002c-0.203,0.354-0.515,0.624-0.933,0.811
	c-0.281,0.124-0.726,0.245-1.331,0.357c-0.608,0.116-1.052,0.235-1.33,0.359c0.552,2.316,0.848,3.572,0.889,3.771
	c0.299,1.639,0.276,2.534-0.062,2.684C187.87,49.298,187.501,49.44,187.243,49.506 M196.508,45.143
	c-1.266,0-2.399-0.745-3.401-2.233c-0.351-0.73-0.499-1.574-0.446-2.531c0.078-0.418,0.15-0.845,0.22-1.283
	c0.106-0.621,0.411-1.308,0.915-2.059c0.619-0.923,1.317-1.557,2.098-1.903c0.264-0.118,0.577-0.177,0.939-0.177
	c0.081,0,0.16,0.003,0.243,0.01c0.586,0.026,0.963,0.229,1.134,0.608c0.276,0.621,0.183,1.533-0.271,2.743
	c-0.455,1.208-0.994,1.949-1.612,2.227c0.008-0.004-0.002-0.006-0.027-0.006c-0.102,0-0.478,0.029-1.122,0.086
	c-0.055-0.12-0.141-0.314-0.26-0.585c-0.12-0.27-0.2-0.443-0.234-0.524c-0.377,1.414-0.405,2.479-0.085,3.198
	c0.263,0.59,0.746,0.883,1.448,0.883c0.562,0,1.264-0.187,2.106-0.562c0.338-0.151,1.198-0.618,2.572-1.397l1.021-0.455l0.387,0.869
	c-0.18,0.129-0.624,0.507-1.328,1.131c-0.582,0.522-0.916,0.803-1.006,0.843l-0.302,0.169l-0.313,0.141
	c-0.094,0.041-0.266,0.118-0.525,0.234c-0.269,0.095-0.443,0.161-0.523,0.197C197.569,45.016,197.025,45.143,196.508,45.143
	 M196.691,36.681c-1.147,1.037-1.788,2.015-1.926,2.939l0.51-0.227c0.636-0.881,0.959-1.338,0.973-1.367
	C196.604,37.486,196.751,37.037,196.691,36.681 M179.117,40.014c-0.44,0-0.761-0.228-0.964-0.682c-0.161-0.36-0.228-0.725-0.2-1.096
	c0.05-0.477,0.256-0.796,0.615-0.956c0.177-0.08,0.34-0.119,0.487-0.119c0.359,0,0.638,0.226,0.838,0.679
	c0.062,0.139,0.015,0.496-0.149,1.07c-0.164,0.577-0.309,0.94-0.43,1.09C179.244,40.01,179.18,40.014,179.117,40.014"/>
<path fill="#7B7B7B" d="M187.832,36.507c-0.08-0.01-0.177-0.097-0.3-0.255c-0.123-0.16-0.173-0.317-0.153-0.471
	c0.011-0.076,0.937-1.124,2.781-3.139c1.842-2.011,2.777-3.018,2.806-3.018l0,0c0.36,0.048,0.672,0.35,0.939,0.907
	c0.202,0.444,0.29,0.781,0.259,1.013c-0.115,0.872-1.042,1.86-2.78,2.964C190.2,35.16,189.017,35.827,187.832,36.507"/>
</svg>
