<?xml version="1.0" encoding="utf-8"?>
<!-- Generator: Adobe Illustrator 16.0.4, SVG Export Plug-In . SVG Version: 6.00 Build 0)  -->
<!DOCTYPE svg PUBLIC "-//W3C//DTD SVG 1.1//EN" "http://www.w3.org/Graphics/SVG/1.1/DTD/svg11.dtd">
<svg version="1.1" id="Calque_1" xmlns="http://www.w3.org/2000/svg" xmlns:xlink="http://www.w3.org/1999/xlink" x="0px" y="0px"
	 width="435px" height="300px" viewBox="-55 -37.5 435 300" enable-background="new -55 -37.5 435 300" xml:space="preserve">
<g>
	<g>
		<path fill="#909090" d="M118.336,76.684l-1.443,67.483l20.823,13.742l-0.809,18.924l-29.518-19.654l0.595-87.679L118.336,76.684z"
			/>
		<g>
			<path fill="#AFC631" d="M139.84,123.297l6.237-2.102l4.12,22.042l7.696-26.045l6.217-2.111l-12.241,40.653l-1.763,23.281
				l-5.522,2.019l1.771-23.667L139.84,123.297z"/>
			<path fill="#AFC631" d="M181.254,124.784c-0.229-1.139-0.554-2.1-0.975-2.878c-0.422-0.778-0.927-1.323-1.511-1.638
				c-0.587-0.312-1.224-0.352-1.911-0.115c-1.256,0.438-2.37,1.383-3.336,2.84c-0.969,1.461-1.799,3.252-2.496,5.385
				c-0.695,2.137-1.266,4.484-1.709,7.047c-0.44,2.566-0.765,5.173-0.973,7.811c-0.199,2.534-0.269,4.955-0.209,7.252
				c0.061,2.301,0.285,4.31,0.678,6.021c0.392,1.712,0.979,2.978,1.758,3.805c0.781,0.825,1.797,1.008,3.045,0.536
				c1.699-0.635,3.124-2.36,4.276-5.176c1.153-2.811,1.999-6.267,2.537-10.365l5.392-1.976c-0.447,3.778-1.089,7.281-1.926,10.503
				c-0.836,3.232-1.82,6.084-2.962,8.568c-1.141,2.486-2.402,4.535-3.788,6.145c-1.384,1.609-2.854,2.713-4.407,3.307
				c-1.93,0.736-3.603,0.594-5.02-0.422c-1.415-1.021-2.541-2.742-3.379-5.158c-0.842-2.423-1.395-5.435-1.665-9.032
				c-0.27-3.599-0.235-7.602,0.106-12.005c0.35-4.515,0.957-8.807,1.822-12.873c0.868-4.064,1.948-7.727,3.236-10.971
				c1.292-3.245,2.776-5.948,4.458-8.111c1.682-2.163,3.495-3.573,5.438-4.235c1.402-0.475,2.688-0.448,3.859,0.083
				c1.169,0.531,2.173,1.532,3.012,3.004c0.84,1.481,1.472,3.445,1.893,5.898c0.424,2.453,0.578,5.372,0.463,8.766l-5.403,1.917
				C181.589,127.235,181.487,125.925,181.254,124.784z"/>
			<path fill="#AFC631" d="M211.696,98.956l-0.931,10.827l-13.447,4.651l-1.056,12.685l12.323-4.398l-0.859,10.01l-12.309,4.504
				l-1.21,14.504l13.676-5.178l-0.93,10.816l-19.217,7.437l4.893-59.434L211.696,98.956z M195.518,105.256l3.989-7.166l5.546-0.754
				l-6.048,7.421L195.518,105.256z"/>
			<path fill="#AFC631" d="M234.896,91.334l-0.956,10.568l-13.493,4.564l-1.089,12.427l12.364-4.35l-0.883,9.788l-12.352,4.476
				l-1.247,14.213l13.722-5.177l-0.956,10.575l-19.29,7.492l5.053-58.31L234.896,91.334z"/>
		</g>
		<path fill="none" stroke="#B2B2B3" stroke-width="2" stroke-linecap="round" stroke-linejoin="round" stroke-miterlimit="10" d="
			M215.414,95.337c4.745-1.451,8.586-2.915,10.903-4.269c0,0,5.984-1.05,2.11-12.271c-3.875-11.223-9.855-21.743-9.855-21.743
			s-11.263-21.041-29.217-18.585c-21.357,2.92-24.319,6.744-69.963,15.036"/>
		<path fill="none" stroke="#B2B2B3" stroke-width="2" stroke-linecap="round" stroke-linejoin="round" stroke-miterlimit="10" d="
			M107.486,59.217c0,0,11.668-13.749,22.933,6.589l12.82,31.924c0,0,0.703,7.364,16.897,7.364c2.024,0,4.417-0.125,7.075-0.358"/>
		
			<path fill="#FFFFFF" stroke="#B2B2B3" stroke-width="2.1152" stroke-linecap="round" stroke-linejoin="round" stroke-miterlimit="10" d="
			M165.685,97.385c0,0,7.087,21.743,7.481,24.899c0,0,4.33,1.752,6.692-1.054c2.363-2.804-2.362-23.845-5.905-25.248
			C170.411,94.582,165.685,97.385,165.685,97.385z"/>
		
			<path fill="#FFFFFF" stroke="#B2B2B3" stroke-width="2.1152" stroke-linecap="round" stroke-linejoin="round" stroke-miterlimit="10" d="
			M203.485,90.021c0,0,7.089,21.741,7.481,24.897c0,0,4.329,1.753,6.692-1.052c2.363-2.806-2.363-23.846-5.905-25.25
			C208.209,87.217,203.485,90.021,203.485,90.021z"/>
		
			<path fill="none" stroke="#B2B2B3" stroke-width="2.1152" stroke-linecap="round" stroke-linejoin="round" stroke-miterlimit="10" d="
			M180.056,39.579c0,0-13.684-13.633-19.157-13.633s-23.719,2.727-28.28,7.271c-4.561,4.543-2.371,14.309-2.371,14.309
			c-0.937-15.633,3.324-6.59,6.931-7.039c7.299-0.909,29.193-7.271,29.193-7.271S170.934,32.307,180.056,39.579z"/>
		<path fill="none" stroke="#B2B2B3" stroke-width="2" stroke-linecap="round" stroke-linejoin="round" stroke-miterlimit="10" d="
			M177.838,100.797c8.914-1.304,18.944-3.266,27.729-5.436"/>
	</g>
</g>
</svg>
