<?xml version="1.0" encoding="utf-8"?>
<!-- Generator: Adobe Illustrator 16.0.4, SVG Export Plug-In . SVG Version: 6.00 Build 0)  -->
<!DOCTYPE svg PUBLIC "-//W3C//DTD SVG 1.1//EN" "http://www.w3.org/Graphics/SVG/1.1/DTD/svg11.dtd">
<svg version="1.1" id="Calque_1" xmlns="http://www.w3.org/2000/svg" xmlns:xlink="http://www.w3.org/1999/xlink" x="0px" y="0px"
	 width="435px" height="300px" viewBox="-55 -37.5 435 300" enable-background="new -55 -37.5 435 300" xml:space="preserve">
<g>
	<g>
		<g opacity="0.5">
			<defs>
				<filter id="Adobe_OpacityMaskFilter" filterUnits="userSpaceOnUse" x="134.617" y="110.232" width="46.847" height="42.378">
					<feColorMatrix  type="matrix" values="1 0 0 0 0  0 1 0 0 0  0 0 1 0 0  0 0 0 1 0"/>
				</filter>
			</defs>
			<mask maskUnits="userSpaceOnUse" x="134.617" y="110.232" width="46.847" height="42.378" id="SVGID_1_">
				<g filter="url(#Adobe_OpacityMaskFilter)">
					
						<image overflow="visible" enable-background="new    " width="40" height="37" xlink:href="22E4795A28BDFBD.jpg"  transform="matrix(1.3385 0 0 1.3333 131.0459 106.833)">
					</image>
				</g>
			</mask>
			<g mask="url(#SVGID_1_)">
				<ellipse fill="#AFAFAF" cx="158.041" cy="131.421" rx="23.423" ry="21.189"/>
			</g>
		</g>
		<path fill="#030000" d="M181.113,116.845c0.409-0.85,0.834-0.701,1.428-0.121c2.013,1.972,3.594,4.219,4.662,6.822
			c0.085,0.212,0.187,0.426,0.282,0.637c0.011,0.021,0.054,0.028,0.132,0.064c1.273-1.588,2.915-2.791,4.565-3.971
			c0.363-0.258,0.844-1.021,1.382-0.229c0.536,0.787,0.256,1.503-0.561,1.918c-1.641,0.831-3.326,1.6-4.271,3.339
			c-0.212,0.398-0.271,0.677-0.066,1.095c1.123,2.299,1.112,4.58-0.242,6.791c-0.226,0.365-0.062,0.614,0.095,0.916
			c0.713,1.385,1.77,2.412,3.181,3.081c0.486,0.229,0.947,0.544,1.459,0.683c0.769,0.211,0.898,0.695,0.804,1.367
			c-0.129,0.918-0.383,1.103-1.156,0.63c-1.799-1.106-3.489-2.358-4.881-3.968c-0.131-0.149-0.24-0.313-0.438-0.579
			c-0.844,2.056-1.776,3.949-3.169,5.574c-0.473,0.558-0.979,1.095-1.444,1.66c-0.522,0.641-0.977,0.685-1.401-0.081
			c-0.464-0.067-0.661-0.45-0.861-0.783c-1.839-3.092-3.383-6.299-3.967-9.904c-0.479-2.962-0.031-5.805,0.991-8.566
			c0.721-1.938,1.53-3.86,2.75-5.563C180.601,117.364,180.748,117.008,181.113,116.845z"/>
		<path fill="#292928" d="M181.113,116.845c-1.189,2.051-2.371,4.104-3.187,6.34c-1.365,3.734-1.603,7.473-0.361,11.336
			c0.923,2.862,2.29,5.456,3.908,7.956c-0.329,0.216-0.658,0.438-0.985,0.653c-0.468,0.085-0.538-0.305-0.714-0.574
			c-0.375-0.771-0.835-1.5-1.256-2.246c-0.194-0.307-0.336-0.639-0.471-0.973c-0.21-0.545-0.411-1.095-0.696-1.607
			c-0.437-1.386-0.799-2.795-1.208-4.186c-0.324-2.771-0.324-5.544-0.092-8.32c0.246-0.466,0.339-0.981,0.469-1.484
			c0.271-0.693,0.3-1.469,0.677-2.133c0.658-1.479,1.291-2.971,1.939-4.454c0.186-0.415,0.321-0.895,0.907-0.925
			C180.4,116.435,180.758,116.641,181.113,116.845z"/>
		<path fill="#64291F" d="M163.13,109.082c0.15-0.007,0.305-0.015,0.455-0.023c0.519-0.238,1.041-0.123,1.561-0.013
			c0.683,0.144,1.357,0.331,2.061,0.335c0.112,0.272,0.216,0.553,0.585,0.562c1.899,0.922,3.922,1.556,5.815,2.488
			c2.062,1.009,4.007,2.158,5.278,4.186c0.285,0.456,0.392,0.777,0.143,1.255c-0.322,0.625-0.567,1.287-0.853,1.928
			c-0.586,0.372-0.661-0.148-0.785-0.475c-0.197-0.523-0.272-1.088-0.473-1.615c-0.727-1.99-2.375-3.066-4.153-3.882
			c-2.286-1.045-4.552-2.158-6.993-2.856c-0.675-0.193-1.331-0.484-1.932-0.854C163.476,109.893,162.939,109.715,163.13,109.082z"/>
		<path fill="#763125" d="M142.403,116.839c1.274-1.775,2.896-3.172,4.755-4.306c0.411,0.38,0.429,0.398,0.026,0.842
			c-0.585,0.644-1.198,1.261-1.802,1.886c-2.006,2.08-2.771,4.676-3.172,7.42c-0.112,0.78,0.07,1.529,0.422,2.233
			c0.083,0.479,0.092,0.958-0.091,1.425c-0.583,0.54-0.918,1.289-1.534,1.805c-1.318-0.378-1.939-1.694-1.551-3.276
			c0.977-2.617,1.682-5.341,2.976-7.839C142.46,116.979,142.422,116.902,142.403,116.839z"/>
		<path fill="#853326" d="M153.741,150.464c-1.803-0.617-3.646-1.141-5.243-2.238c0.278-0.163,0.508-0.03,0.723,0.134
			c-1.887-1.411-3.791-2.805-5.124-4.806c0.006-0.484-0.531-1.018,0.124-1.444c0.619,0.126,0.763,0.706,1.079,1.122
			c1.778,2.326,3.887,4.275,6.596,5.464c1.385,0.606,2.885,0.875,4.386,1.082c1.994,0.415,3.958,0.423,5.862-0.413
			c0.136-0.062,0.275-0.099,0.42-0.119c2.139-0.506,4.113-1.445,6.113-2.301c1.476-0.632,2.926-1.344,4.333-2.129
			c1.182-0.66,2.259-1.445,3.009-2.602c0.186-0.25,0.375-0.488,0.713-0.537c0.491,0.555,0.047,0.994-0.227,1.401
			c-0.92,1.368-2.295,2.188-3.709,2.948c-0.262,0.142-0.546,0.251-0.792,0.42c-0.215,0.127-0.439,0.221-0.67,0.312
			c-0.899,0.378-1.854,0.637-2.691,1.161c-0.119,0.081-0.244,0.14-0.372,0.195c-2.135,0.783-4.19,1.76-6.379,2.404
			c-1.146,0.338-2.304,0.338-3.469,0.388c-0.263,0.013-0.539-0.078-0.759,0.142c-0.333,0.057-0.337,0.456-0.604,0.58
			c-0.447-0.404-0.989-0.516-1.568-0.577C154.875,150.985,154.226,150.957,153.741,150.464z"/>
		<path fill="#8A3528" d="M142.56,125.023c-0.872-0.749-0.69-1.749-0.583-2.69c0.417-3.678,2.182-6.641,4.933-9.074
			c0.178-0.157,0.765-0.287,0.249-0.726c0.955-0.727,2.003-1.284,3.117-1.734c0.534,0.546-0.044,0.8-0.331,1.057
			c-0.592,0.528-1.27,0.961-1.684,1.667c-0.803,0.901-1.676,1.729-2.423,2.691c-1.169,1.501-1.473,3.194-1.396,5.016
			c0.014,0.301,0.08,0.599,0.044,0.905c-0.133,0.825-0.328,1.633-0.78,2.353C143.415,124.854,143.064,125.098,142.56,125.023z"/>
		<path fill="#7F3125" d="M163.13,109.082c0.808,1.167,2.162,1.336,3.347,1.811c3.241,1.305,6.646,2.277,9.362,4.626
			c0.699,0.605,1.186,1.344,1.337,2.271c-0.7,0.05-1.032-0.55-1.527-0.862c-1.58-1.63-3.602-2.49-5.678-3.267
			c-0.53-0.198-1.05-0.435-1.566-0.674c-1.433-1.15-3.303-1.265-4.887-2.063c-0.834-0.42-1.692-0.815-2.614-1.036
			c-0.918-0.221-1.84-0.381-2.791-0.351c-0.472,0.015-0.948,0.009-1.291-0.403c-0.075-0.123-0.055-0.222,0.068-0.296
			c1.656,0.006,3.312,0.004,4.966,0.033C162.285,108.873,162.733,108.852,163.13,109.082z"/>
		<path fill="#8C3D2D" d="M156.776,108.986c0.558,0.439,1.217,0.237,1.832,0.261c1.243,0.047,2.43,0.289,3.583,0.76
			c1.449,0.588,2.82,1.359,4.375,1.693c0.747,0.162,1.391,0.621,2.016,1.067c-0.228,0.43-0.565,0.223-0.86,0.13
			c-0.351-0.109-0.685-0.268-1.052-0.295c-0.83-0.187-1.562-0.662-2.409-0.8c-2.384-0.979-4.829-1.636-7.447-1.412
			c-0.434,0.036-0.87,0.051-1.3,0.13c-2.145,0.045-3.96,0.958-5.679,2.13c-0.629,0.138-0.977,0.972-1.766,0.711
			c0.357-0.655,0.959-1.062,1.512-1.527c0.309-0.263,0.925-0.39,0.696-1.035c1.017-0.434,2.034-0.865,3.053-1.299
			c0.932-0.44,1.95-0.544,2.946-0.723C156.472,108.742,156.67,108.771,156.776,108.986z"/>
		<path fill="#53241B" d="M178.005,119.919c0.112-0.247,0.228-0.485,0.333-0.731c0.255-0.621,0.892-1.566,0.691-1.8
			c-0.599-0.697-0.883-1.617-1.644-2.203c-1.302-1.006-2.62-1.962-4.144-2.604c-1.547-0.656-3.093-1.323-4.627-1.999
			c-0.322-0.14-0.749-0.178-0.825-0.642c1.371,0.332,2.726,0.716,4.001,1.332c0.708,0.054,1.239,0.68,1.985,0.601
			c1.243,0.028,2.197,0.83,3.309,1.211c0.035,0.423,0.337,0.608,0.674,0.78c0.536,0.271,1.04,0.615,1.59,0.85
			c0.733,0.305,1.135,0.7,0.692,1.512c-0.751,0.775-0.936,1.833-1.388,2.754c-0.458,0.935-0.839,1.903-1.256,2.856
			C176.87,120.972,177.44,120.445,178.005,119.919z"/>
		<path fill="#592219" d="M174.617,147.512c-1.906,0.7-3.811,1.399-5.716,2.098c-0.451,0.167-1.019,0.112-1.271,0.659
			c-0.66-0.019-1.312,0.65-1.98,0.028c0.397-0.79,1.185-1.042,1.921-1.336c2.703-1.082,5.438-2.078,7.897-3.68
			c1.156-0.75,2.217-1.597,3.13-2.641c0.365-0.422,0.803-0.812,1.259-0.062c-0.475,1.005-1.332,1.692-2.108,2.44
			c-0.909,0.869-2.073,1.415-2.981,2.283C174.742,147.391,174.69,147.461,174.617,147.512z"/>
		<path fill="#6B3428" d="M139.667,125.091c-0.298,1.236,0.139,2.211,1.341,2.987c0.419,0.528,0.562,1.157,0.646,1.806
			c-0.915,0.707-1.982,0.424-3.003,0.457c-0.045-0.017-0.088-0.031-0.134-0.047c-0.659-0.143-0.854-0.509-0.776-1.197
			c0.147-1.315,0.214-2.636,0.608-3.912C138.791,125.171,139.203,124.784,139.667,125.091z"/>
		<path fill="#67291F" d="M143.271,144.192c-2.638-2.489-4.155-5.578-4.889-9.083c-0.019-0.151,0.005-0.3,0.069-0.438
			c0.559-0.474,0.885-0.023,1.109,0.359c0.404,0.684,0.74,1.405,1.035,2.147c0.707,1.79,1.362,3.604,2.418,5.235
			c0.229,0.474,0.573,0.896,0.7,1.415C143.812,144.224,143.75,144.261,143.271,144.192z"/>
		<path fill="#682B20" d="M139.667,125.091c-0.449-0.104-0.839,0.609-1.318,0.094c0.674-3.109,1.899-5.954,4.054-8.349
			c0.378,0,0.333,0.188,0.22,0.449c-0.686,1.585-1.367,3.161-1.906,4.806C140.389,123.098,140.22,124.165,139.667,125.091z"/>
		<path fill="#642A20" d="M179.824,142.62c-0.359-0.32-0.614-0.357-0.977,0.083c-2.018,2.449-4.802,3.781-7.611,5.069
			c-1.853,0.85-3.921,1.23-5.55,2.562c-0.395,0.415-0.903,0.587-1.445,0.696c-0.086-0.089-0.178-0.18-0.264-0.269
			c0.454-0.852,1.304-1.162,2.109-1.533c2.613-1.206,5.333-2.182,7.871-3.559c0.823-0.449,1.618-0.953,2.316-1.588
			c0.862-0.775,1.568-1.639,1.757-2.844c0.065-0.418,0.193-0.856,0.65-1.066c0.435,0.749,0.942,1.451,1.228,2.276
			c0.034,0.066,0.034,0.114-0.004,0.142C179.871,142.617,179.844,142.628,179.824,142.62z"/>
		<path fill="#702A20" d="M178.686,140.172c-0.474,2.511-1.936,4.277-4.155,5.469c-1.087,0.583-2.19,1.161-3.317,1.667
			c-1.743,0.783-3.531,1.474-5.272,2.266c-0.69,0.31-1.31,0.789-1.961,1.191c-0.243,0.018-0.48,0.035-0.727,0.059
			c-0.742-0.158-0.346-0.491-0.058-0.678c0.421-0.266,0.892-0.466,1.359-0.657c1.238-0.517,2.533-0.897,3.715-1.543
			c0.088-0.031,0.178-0.067,0.267-0.102c0.86-0.528,1.883-0.695,2.734-1.233c0.148-0.142,0.328-0.217,0.536-0.212
			c1.409-0.695,2.82-1.38,3.967-2.492c0.909-0.88,1.544-1.905,1.792-3.169c0.104-0.525,0.023-1.174,0.663-1.475
			C178.379,139.562,178.533,139.867,178.686,140.172z"/>
		<path fill="#7B2A1F" d="M143.271,144.192c0.477,0.12,0.29-0.166,0.229-0.371c-0.135-0.474-0.62-0.787-0.605-1.325
			c-0.229-0.407-0.456-0.813-0.632-1.246c-0.132-0.325-0.35-0.675,0.025-0.997c0.641,0.15,0.632,0.795,0.893,1.219
			c0.393,0.646,0.834,1.281,1.04,2.029c1.57,1.883,3.479,3.416,5.282,5.082c-0.336-0.119-0.671-0.238-1.007-0.357
			C146.468,147.25,144.735,145.895,143.271,144.192z"/>
		<path fill="#6B3428" d="M138.574,134.706c-0.062,0.134-0.127,0.268-0.191,0.4c-0.487-1.329-0.497-2.728-0.641-4.113
			c-0.069-0.657,0.599-0.383,0.775-0.699l0.077-0.014c0.579,0.051,1.174-0.058,1.73,0.193c0.529,0.443,0.48,0.945,0.049,1.386
			C139.564,132.685,139.086,133.703,138.574,134.706z"/>
		<path fill="#4D2118" d="M179.824,142.62c0.027-0.059,0.058-0.115,0.087-0.172c0.214,0.205,0.251,0.563,0.577,0.682
			c0.402,0.761-0.011,1.102-0.642,1.479c-0.746,0.449-1.644,0.695-2.181,1.457c-0.99,0.46-1.885,1.142-2.991,1.345
			c-0.251-0.141-0.394-0.328-0.053-0.5C176.688,145.878,178.245,144.234,179.824,142.62z"/>
		<path fill="#100100" d="M167.206,109.38c-0.188,0.299-0.447,0.379-0.776,0.261c-0.921-0.327-1.891-0.421-2.845-0.583
			c0.543-1.232,1.136-1.708,2.03-1.533C166.607,107.721,167.187,108.326,167.206,109.38z"/>
		<path fill="#171006" d="M156.776,108.986c-1.15,0.17-2.3,0.34-3.448,0.513c0.239-1.862,1.419-2.683,2.768-1.917
			c0.481,0.276,0.837,0.641,0.795,1.25C156.845,108.88,156.809,108.929,156.776,108.986z"/>
		<path fill="#78281E" d="M168.27,147.942c-0.295,0.534-0.889,0.549-1.362,0.764c-1.152,0.521-2.395,0.838-3.474,1.527
			c-0.24,0.15-0.677,0.221-0.181,0.586c-1.842,0.49-3.72,0.189-5.583,0.23c-0.082-0.264,0.129-0.287,0.278-0.277
			c3.183,0.157,5.966-1.197,8.813-2.307C167.258,148.273,167.768,148.12,168.27,147.942z"/>
		<path fill="#0E0000" d="M177.085,113.087c-0.138,0.139-0.267,0.357-0.487,0.193c-0.841-0.622-1.875-0.833-2.768-1.345
			c-0.065-0.034-0.086-0.067-0.065-0.102c0.029-0.042,0.049-0.059,0.066-0.052c0.467-0.715,1.11-1.048,1.941-0.753
			C176.723,111.365,177.217,112.043,177.085,113.087z"/>
		<path fill="#0E0000" d="M164.246,151.028c0.355-0.485,0.925-0.536,1.444-0.695c0.656,0.266,1.277-0.551,1.94-0.062
			c-0.141,0.922-0.585,1.639-1.561,1.771C165.266,152.152,164.602,151.815,164.246,151.028z"/>
		<path fill="#1C0C00" d="M153.741,150.464c0.963,0.182,1.923,0.375,2.89,0.541c0.385,0.065,0.607,0.193,0.436,0.623
			c-0.434,0.619-1.029,0.961-1.778,0.775C154.306,152.161,153.855,151.427,153.741,150.464z"/>
		<path fill="#140000" d="M174.675,147.411c0.784-0.686,1.887-0.803,2.671-1.492c0.038-0.031,0.215,0.093,0.323,0.147
			c0.098,0.887-0.379,1.495-1.104,1.837c-0.682,0.32-1.381,0.151-1.948-0.392C174.652,147.488,174.672,147.453,174.675,147.411z"/>
		<path fill="#64291F" d="M173.831,111.783c0.015,0.052,0.015,0.103-0.001,0.152c-0.8,0.15-1.367-0.412-2.036-0.66
			C172.531,111.212,173.072,111.929,173.831,111.783z"/>
		<path fill="#1F1A18" d="M181.353,136.039c-0.339-1.04-0.826-2.048-1.703-2.683c-1.978-1.432-2.525-3.328-2.17-5.614
			c0.277-1.781,0.752-3.492,1.749-5.028c0.528-0.812,1.26-1.362,2.066-1.854c0.221,0.749-0.221,1.41-0.274,2.12
			c-0.499,0.402-1.251,0.473-1.536,1.156c-0.05,0.078-0.109,0.148-0.167,0.221c-0.351,0.495-0.587,1.03-0.683,1.629
			c-0.017,0.184-0.034,0.366-0.083,0.549c-0.327,1.041-0.595,2.091-0.194,3.181c0.263,0.521,0.521,1.04,0.782,1.565
			c1.568,1.389,2.986,0.982,3.444-1.014c0.26-1.139,0.688-2.228,0.985-3.353c0.085-0.325,0.218-0.636,0.59-0.753
			c0.452-0.004,0.833,0.117,1.032,0.57c-1.364,1.605-1.305,3.713-1.963,5.57c-0.141,0.398-0.118,0.799,0.373,0.992
			c0.026,0.041,0.048,0.084,0.071,0.128c-0.323,0.741-1.204,0.992-1.531,1.731C181.861,135.433,181.801,135.909,181.353,136.039z"/>
		<path fill="#CBC7C6" d="M181.832,120.233c2.255-1.908,1.799-1.707,3.344,0.5c1.124,1.603,1.814,3.412,2.282,5.311
			c0.194,0.797,0.047,1.112-0.821,0.812c-0.313-0.106-0.66-0.117-0.992-0.172c-0.519,0.037-0.897-0.325-1.355-0.463
			c-0.379-0.436,0.072-0.73,0.21-1.054c0.526-1.224,0.102-3.102-0.874-3.954c-0.588-0.511-1.367-0.27-1.982-0.605
			C181.638,120.452,181.688,120.32,181.832,120.233z"/>
		<path fill="#D0CDCC" d="M186.188,132.39c1.476-0.434,1.599-0.331,1.28,1.082c-0.516,2.281-1.531,4.333-2.865,6.25
			c-0.38,0.544-0.735,0.658-1.297,0.227c-0.63-0.487-1.31-0.914-1.59-1.717c0.027-0.717,0.587-0.713,1.079-0.777
			c1.428-0.188,2.805-1.59,2.771-3.037C185.555,133.625,185.751,132.992,186.188,132.39z"/>
		<path fill="#E4E2E1" d="M186.188,132.39c0.07,0.066,0.139,0.139,0.211,0.207c-0.725,0.544-0.492,1.305-0.541,2.049
			c-0.107,1.514-1.645,2.936-3.132,3.039c-0.427,0.027-0.795,0.136-1.007,0.542c-0.533-0.661-0.387-1.437-0.367-2.19
			c0.279-0.328,0.228-0.861,0.673-1.091c0.544,0.581,1.09,1.146,2.004,0.977c0.379-0.07,0.714-0.203,0.856-0.599
			c0.151-0.422,0.036-0.789-0.293-1.084c-0.319-0.291-0.667-0.555-0.889-0.932l-0.057,0.027l-0.043-0.045
			C184.466,132.992,185.27,132.526,186.188,132.39z"/>
		<path fill="#4B4544" d="M184.167,126.05c0.491,0.211,0.985,0.424,1.478,0.638c-0.137,0.137-0.296,0.095-0.453,0.046
			c-0.37-0.145-0.74-0.289-1.108-0.434c-0.381,0.02-0.661,0.01-0.659,0.594c0.011,1.318-0.471,2.559-0.998,3.739
			c-0.662,1.473-2.343,1.707-3.583,0.589c-0.238-0.467-0.478-0.936-0.715-1.401c-0.061-0.21-0.02-0.394,0.148-0.539
			c0.249-0.099,0.361,0.075,0.481,0.234c0.17,0.292,0.263,0.62,0.441,0.906c0.821,0.755,1.873,0.685,2.405-0.243
			c0.387-0.68,0.774-1.385,0.839-2.194c0.021-0.538-0.037-1.065-0.138-1.59c-0.235-1.301-0.146-1.368,1.106-0.941
			C183.712,125.591,184.034,125.703,184.167,126.05z"/>
		<path fill="#35302E" d="M181.832,120.233c-0.042,0.131-0.084,0.259-0.128,0.388c0.073,0.149,0.062,0.301,0.024,0.457
			c-0.352,0.702-0.317,1.461-0.322,2.214c-0.045,0.306-0.116,0.642-0.455,0.715c-1.174,0.256-1.669,1.139-2.081,2.123
			c-0.052,0.125-0.157,0.214-0.264,0.297c-0.051,0.019-0.1,0.03-0.147,0.045c-0.102-0.146-0.072-0.301-0.01-0.451
			c0.131-0.677,0.394-1.295,0.808-1.853l0,0c0.4-0.54,0.914-0.918,1.571-1.082c0.016-0.771,0.132-1.521,0.467-2.222
			C181.469,120.651,181.489,120.305,181.832,120.233z"/>
		<path fill="#F1F0F0" d="M186.484,128.372c-0.211-0.137-0.501-0.169-0.452-0.481c0.049-0.321,1.449-0.521,2.067-0.305
			c0.235,0.081,0.501,0.323,0.359,0.461C187.892,128.597,187.154,128.39,186.484,128.372z"/>
		<path fill="#F5F5F5" d="M188.47,131.31c-0.243,0.25-0.56,0.342-0.902,0.326c-0.483-0.022-1.018,0.149-1.421-0.273
			c-0.14-0.15-0.082-0.287,0.08-0.412c0.312-0.25,1.849-0.24,2.143,0.016C188.48,131.062,188.543,131.157,188.47,131.31z"/>
		<path fill="#040000" d="M176.139,125.269c0.123,0.271,0.282,0.539,0.225,0.853c-0.433,2.315-0.232,4.624,0.015,6.934
			c0.02,0.19-0.08,0.386-0.127,0.581c-0.038,0.361-0.361,0.42-0.609,0.56c-0.642,0.316-1.329,0.247-2.01,0.231
			c-0.396-0.055-0.763-0.234-1.161-0.271c-0.769-0.238-1.352-0.717-1.788-1.378c-0.17-0.36-0.393-0.691-0.572-1.04
			c-0.12-0.281-0.196-0.57-0.12-0.878c0.087-0.276,0.26-0.497,0.547-0.531c0.998-0.122,1.929-0.55,2.903-0.628
			c-0.528-0.246-0.473-0.721-0.368-1.166c0.225-0.976,0.499-1.938,0.441-2.967c-0.027-0.521,0.32-0.775,0.831-0.817
			c0.405-0.032,0.809-0.017,1.205,0.047C175.816,124.867,176.062,124.964,176.139,125.269z"/>
		<path fill="#8C2119" d="M175.634,134.009c0.205-0.127,0.413-0.251,0.617-0.373c0.714,1.266,0.857,2.716,1.31,4.067
			c0.055,0.965-0.013,1.918-0.193,2.862c-0.085,0.455-0.167,0.926-0.661,1.15c-0.173,0.219-0.34,0.438-0.513,0.66
			c-0.262,0.16-0.46,0.624-0.823,0.369c-0.513-0.361-0.021-0.857-0.061-1.293c0.027-0.307,0.037-0.616,0.193-0.895
			c0.665-0.822,0.435-1.771,0.343-2.683C175.711,136.586,175.43,135.312,175.634,134.009z"/>
		<path fill="#972019" d="M176.139,125.269c-0.253-0.104-0.505-0.205-0.756-0.308c-0.155,0-0.285-0.058-0.39-0.173
			c-0.204-0.955-0.089-1.908,0.019-2.861c0.085-0.762,0.094-1.513-0.102-2.26c0.137-0.62,0.267-1.24,0.256-1.878
			c0.306-0.394,0.525-0.089,0.724,0.108c0.265,0.263,0.392,0.617,0.528,0.957c0.262,0.708,0.288,1.447,0.242,2.182
			c-0.062,0.973,0.027,1.938,0.035,2.908C176.549,124.401,176.73,124.995,176.139,125.269z"/>
		<path fill="#801F18" d="M176.692,123.941c-0.502-0.868-0.303-1.82-0.282-2.738c0.021-0.77-0.016-1.526-0.159-2.281
			c0.05-0.747-0.727-1.341-0.393-2.14c0.439,0.335,0.881,0.672,1.317,1.006c0.466,0.637,0.162,1.574,0.828,2.131
			c-0.178,0.646-0.697,1.189-0.605,1.918C177.164,122.539,176.928,123.239,176.692,123.941z"/>
		<path fill="#78281E" d="M176.706,141.714c0.429-0.844,0.549-1.758,0.554-2.683c0.003-0.478,0.088-0.911,0.301-1.328
			c0.375,0.453,0.505,1.011,0.668,1.555c-0.085,0.216-0.22,0.43-0.247,0.653c-0.424,3.706-3.093,5.295-6.175,6.482
			c0.418-0.57,1.12-0.687,1.683-1.029c1.124-0.686,2.168-1.45,2.916-2.545C176.613,142.509,176.886,142.155,176.706,141.714z"/>
		<path fill="#801F18" d="M142.56,125.023c0.293-0.167,0.586-0.333,0.88-0.497c0.758,0.221,1.154,0.873,1.595,1.43
			c0.601,0.763,1.216,1.488,1.975,2.103c0.544,0.44,1.031,0.962,1.028,1.743c-0.81,0.545-1.662,0.334-2.513,0.139
			c-0.724-1.007-1.747-1.748-2.5-2.729c-0.221-0.287-0.525-0.524-0.574-0.918C142.447,125.862,142.33,125.427,142.56,125.023z"/>
		<path fill="#712018" d="M142.45,126.292c0.996,1.205,2.364,2.088,3.092,3.528c-0.078,0.31-0.343,0.292-0.562,0.285
			c-1.143-0.032-2.314,0.301-3.42-0.251c-0.344-0.539-0.463-1.154-0.55-1.773C141.313,127.343,141.668,126.644,142.45,126.292z"/>
		<path fill="#943A2B" d="M162.562,149.433c-0.088,0.033-0.178,0.068-0.267,0.104c-1.937,0.664-3.94,0.607-5.941,0.51
			c-5.168-0.484-8.924-3.199-11.75-7.381c-0.131-0.193-0.22-0.415-0.456-0.51c-1.175-1.533-1.37-4.112-0.41-5.379
			c0.956,0.205,0.976,1.146,1.395,1.771c0.17,1.238,0.535,2.434,0.819,3.647c0.253,1.021,0.966,1.755,1.631,2.505
			c1.811,2.033,3.808,3.809,6.613,4.339c2.523,0.473,5.027,0.282,7.513-0.269c0.783-0.17,1.583-0.334,2.284-0.77
			c1.994-0.701,3.916-1.576,5.808-2.52c0.663-0.328,1.334-0.634,1.889-1.139c0.348-0.205,0.697-0.408,1.124-0.252
			c0.479,0.729-0.186,0.948-0.594,1.182c-1.275,0.734-2.617,1.346-3.958,1.939C166.396,148.034,164.507,148.808,162.562,149.433z"/>
		<path fill="#833527" d="M143.846,136.765c-0.973,1.598-0.31,3.157,0.111,4.72c0.06,0.224,0.126,0.448,0.189,0.671
			c-0.237,0.462,0.311,0.884,0.076,1.346c-0.829-0.962-1.324-2.117-1.898-3.227c-0.899-0.709-1.883-4.309-1.438-5.289
			c0.141-0.307,0.368-0.559,0.633-0.771c0.332-0.205,0.684-0.24,1.056-0.128c0.641,0.362,1.11,0.896,1.448,1.547
			C144.102,136.031,144.302,136.45,143.846,136.765z"/>
		<path fill="#8C3426" d="M162.562,149.433c1.262-0.523,2.524-1.061,3.792-1.57c1.979-0.797,3.882-1.749,5.762-2.75
			c0.343-0.186,0.872-0.323,0.648-0.934c0.011-0.229,0.166-0.355,0.341-0.448c0.893-0.473,1.633-1.093,2.059-2.032
			c0.066-0.148,0.209-0.25,0.389-0.262c0,0.127,0.013,0.259-0.007,0.387c-0.042,0.25-0.353,0.508-0.139,0.731
			c0.29,0.305,0.502-0.19,0.79-0.179c-0.954,1.543-2.482,2.385-4.026,3.178c-2.828,1.447-5.771,2.646-8.742,3.77
			C163.146,149.425,162.875,149.575,162.562,149.433z"/>
		<path fill="#8C3426" d="M156.353,150.046c1.547-0.249,3.129,0.024,4.679-0.324c0.404-0.094,0.808-0.385,1.265-0.186
			C160.381,150.493,158.379,150.411,156.353,150.046z"/>
		<path fill="#78281E" d="M171.271,146.608c-0.758,0.743-1.782,0.904-2.734,1.232C169.3,147.101,170.324,146.937,171.271,146.608z"
			/>
		<path fill="#8D221A" d="M147.987,129.776c-0.371-0.803-1.007-1.365-1.632-1.977c-1.043-1.019-1.951-2.176-2.916-3.273
			c0.433-0.779,0.591-1.647,0.854-2.482c0.166-0.153,0.351-0.195,0.561-0.099c0.271,0.18,0.387,0.457,0.469,0.75
			c0.455,1.617,1.488,2.812,2.792,3.809c0.4,0.306,0.78,0.632,1.131,0.992c0.605,0.719,1.596,1.152,1.674,2.259
			C149.948,130.28,148.97,130.277,147.987,129.776z"/>
		<path fill="#9B3A2B" d="M144.75,122.019c-0.152,0.008-0.305,0.016-0.456,0.025c-0.668-3.305,0.767-5.81,3.069-7.981
			c0.241-0.226,0.47-0.469,0.704-0.701c0.669-0.042,0.96-0.856,1.67-0.814c0.063,0.16,0.028,0.309-0.051,0.452
			c-0.437,0.592-1.014,1.059-1.476,1.637c-0.641,0.802-1.161,1.622-0.992,2.705c-0.577,1.019-1.025,2.094-1.498,3.158
			C145.451,121.036,145.378,121.706,144.75,122.019z"/>
		<path fill="#8B2A1F" d="M175.858,116.784c0.083,0.723,0.675,1.352,0.393,2.138c-0.363-0.354-0.274-1.128-1.035-1.117
			c-0.049,0.005-0.097,0.008-0.146,0.008c-0.879-1.371-2.387-1.917-3.681-2.749c-0.22-0.457-0.667-0.614-1.088-0.801
			c-0.912-0.4-1.824-0.779-2.728-1.189c-0.327-0.146-0.687-0.271-0.817-0.66c0.68-0.25,1.144,0.609,1.826,0.352
			c1.313,0.565,2.611,1.175,3.946,1.688C173.843,114.964,174.896,115.802,175.858,116.784z"/>
		<path fill="#A3523E" d="M149.579,112.92c0.051-0.125,0.106-0.25,0.159-0.375c1.625-1.335,3.439-2.193,5.59-2.201
			c0.44,0.018,0.881,0.027,1.223,0.37c0.248,0.409-0.099,0.565-0.352,0.664c-1.768,0.709-3.488,1.552-5.351,2.004
			c-0.415,0.102-0.864,0.201-1.247-0.121C149.481,113.157,149.474,113.037,149.579,112.92z"/>
		<path fill="#9E3426" d="M166.751,112.416c1.444,0.624,2.893,1.244,4.334,1.874c0.385,0.171,0.921,0.296,0.435,0.897
			c-0.432,0.437-0.886,0.38-1.35,0.052c-1.288-0.861-2.786-1.281-4.172-1.943c-1.116-0.404-2.248-0.76-3.417-0.981
			c-0.546-0.102-1.122-0.135-1.597-0.481c-0.084-0.082-0.114-0.182-0.09-0.296c0.726-0.562,1.529-0.232,2.3-0.18
			c0.359,0.023,0.689,0.233,1.061,0.209C165.195,111.536,165.913,112.149,166.751,112.416z"/>
		<path fill="#9D4231" d="M164.254,111.564c-1.085-0.028-2.171-0.062-3.258-0.092c-1.34,0.028-2.665-0.155-3.991-0.279
			c-0.168-0.016-0.309-0.121-0.384-0.29c-0.429-0.185-0.861-0.373-1.292-0.559c2.087-0.375,4.148-0.375,6.208,0.245
			C162.463,110.867,163.376,111.166,164.254,111.564z"/>
		<path fill="#533029" d="M147.987,129.776c0.97,0.083,1.938,0.143,2.905-0.039c0.649-0.279,1.287-0.285,1.912,0.075
			c0.058,0.159,0.024,0.304-0.069,0.44c-0.414,0.41-0.942,0.281-1.439,0.309c-0.816,0.056-1.634-0.006-2.451,0.036
			c-0.67,0.043-1.342,0.04-2.013,0.03c-1.059,0.055-2.119-0.016-3.179,0.062c-0.756-0.1-1.515,0.057-2.272-0.006
			c-0.411-0.01-0.821-0.055-1.226-0.122c-0.504-0.18-1.083,0.028-1.562-0.285c0.959-0.351,2.02,0.022,2.966-0.423
			c1.328,0.033,2.655,0.109,3.983-0.034C146.358,129.875,147.174,129.945,147.987,129.776z"/>
		<path fill="#6E3226" d="M140.156,130.565c0.374-0.184,0.777-0.116,1.171-0.127c0.281,0.291,0.297,0.66,0.237,1.02
			c-0.155,0.943,0.406,1.866,0.064,2.809c-0.776,0.822-0.73,1.738-0.415,2.752c0.34,1.094,0.496,2.25,1.112,3.254
			c-0.183,0.832,0.542,1.438,0.572,2.219c-0.498-0.379-0.734-0.924-0.969-1.473c-0.774-1.826-1.541-3.656-2.34-5.473
			c-0.186-0.421-0.308-1.003-1.013-0.84c0.028-1.213,0.693-2.112,1.518-2.896C140.557,131.364,140.628,131.005,140.156,130.565z"/>
		<path fill="#F7F7F7" d="M183.704,133.312c0.538,0.114,0.881,0.558,1.236,0.888c0.698,0.656,0.258,1.744-0.719,1.957
			c-1.069,0.229-1.835-0.191-2.196-1.209C182.342,134.155,183.127,133.837,183.704,133.312z"/>
		<path fill="#352F2E" d="M178.843,131.222c2.175,0.951,3.451,0.235,4.054-2.352c0.225-0.956,0.538-1.932,0.102-2.953
			c0.474-0.006,0.762,0.224,1.085,0.383c-0.45,1.391-0.938,2.763-1.263,4.199c-0.185,0.809-0.395,1.748-1.541,1.853
			C180.241,132.448,179.225,131.993,178.843,131.222z"/>
		<path fill="#35302E" d="M178.365,129.267c-0.076,0.186-0.156,0.369-0.237,0.554c-0.396-1.164-0.313-2.284,0.331-3.352l0.029-0.005
			C178.854,127.417,178.812,128.352,178.365,129.267z"/>
		<path fill="#352F2E" d="M180.828,123.083c-0.528,0.362-1.048,0.725-1.573,1.084C179.554,123.481,179.95,122.938,180.828,123.083z"
			/>
		<path fill="#352F2E" d="M179.257,124.168c-0.269,0.617-0.535,1.234-0.808,1.853C178.434,125.281,178.697,124.66,179.257,124.168z"
			/>
		<path fill="#E2E0DF" d="M181.529,120.984c0.06-0.122,0.12-0.242,0.178-0.363c1.631-0.312,2.81,0.598,3.111,2.164
			c0.239,1.227,0.377,2.335-0.651,3.265c-0.315-0.128-0.633-0.256-0.949-0.385c-0.027-0.095-0.022-0.188,0.011-0.277
			c1.165-1.16,1.197-2.091,0.118-3.414c-0.268-0.328-0.568-0.547-1.016-0.502C181.947,121.513,181.577,121.503,181.529,120.984z"/>
		<path fill="#6D6766" d="M183.265,125.539c-0.021,0.039-0.032,0.082-0.047,0.126c-0.262-0.098-0.529-0.193-0.863-0.317
			c0.16,0.952,0.481,1.798,0.289,2.691c-0.117,0.773-0.495,1.457-0.842,2.13c-0.569,1.111-1.897,1.195-2.829,0.242
			c-0.195-0.232-0.303-0.494-0.319-0.797c-0.043-0.158-0.011-0.293,0.129-0.389c0.376,0.009,0.449,0.341,0.616,0.579
			c0.488,0.692,0.953,0.755,1.571,0.224c1.255-1.075,1.519-3.388,0.53-4.666c-0.371-0.483-1.089-0.495-1.565,0
			c-0.23,0.234-0.37,0.56-0.763,0.583c-0.224-0.859,0.65-1.81,1.636-1.75c0.329,0.026,0.65,0.141,0.989,0.069
			C182.363,124.594,183.006,124.849,183.265,125.539z"/>
		<path fill="#5D5655" d="M178.82,129.242c-0.055,0.125-0.109,0.25-0.167,0.37c-0.094-0.115-0.193-0.23-0.288-0.346
			c0.038-0.932,0.083-1.868,0.123-2.803c0.489-1.206,0.896-2.479,2.483-2.69c0.241-0.028,0.079-0.362,0.21-0.516
			c0.603,0.156,0.541,0.587,0.44,1.036c-0.033,0.16,0.075,0.374-0.308,0.26c-1.224-0.358-1.749-0.006-2.146,1.328
			C179.233,127.023,179.126,128.144,178.82,129.242z"/>
		<path fill="#5D5655" d="M178.973,130.406c1.508,0.923,2.354,0.649,3.079-1c0.196-0.456,0.395-0.911,0.592-1.367
			c-0.014,1.005-0.463,1.875-1.062,2.602C180.817,131.575,179.477,131.398,178.973,130.406z"/>
		<path fill="#FDFCFC" d="M181.624,124.3c-0.132-0.351-0.154-0.749-0.44-1.034c-0.044-0.784-0.204-1.585,0.346-2.278
			c0.138,0.13,0.242,0.383,0.473,0.302c0.717-0.258,1.187,0.011,1.595,0.597c0.545,0.785,0.977,1.594,0.784,2.583
			c-0.117,0.595-0.744,0.719-1.116,1.075C182.59,125.297,182.214,124.657,181.624,124.3z"/>
		<path fill="#BC201A" d="M170.824,132.578c0.462,0.597,1.032,1.062,1.719,1.386c0.492,0.898,0.636,1.816,0.178,2.775
			c-0.099,0.021-0.208,0.053-0.293,0.003c-2.687-1.497-5.499-1.331-8.353-0.651c-0.282,0.035-0.507-0.122-0.752-0.221
			c-1.16-0.472-2.195-0.292-3.109,0.584c-0.223,0.213-0.356,0.593-0.783,0.5c-0.244-0.453-0.643-0.321-1.048-0.333
			c-0.821-0.022-1.547,0.634-2.398,0.306c-0.565-0.752-0.633-1.415,0.268-2.005c0.659-0.425,0.537-1.243,0.793-1.871
			c0.308-0.286,0.684-0.211,1.049-0.196c1.737,0.057,3.468,0.078,5.208-0.094c2.228-0.225,4.476-0.172,6.703-0.418
			C170.312,132.302,170.609,132.297,170.824,132.578z"/>
		<path fill="#BD3224" d="M170.824,132.578c-2.632,0.145-5.271,0.214-7.894,0.466c-1.944,0.183-3.869,0.068-5.803,0.016
			c-0.171,0.059-0.307-0.005-0.419-0.138c-0.102-0.321-0.068-0.625,0.162-0.894c0.345-0.174,0.716-0.15,1.082-0.137
			c3.788,0.168,7.553-0.186,11.324-0.439c0.358-0.025,0.742-0.147,0.996,0.248C170.532,131.944,170.707,132.245,170.824,132.578z"/>
		<path fill="#312B29" d="M175.043,124.747c0.112,0.076,0.225,0.144,0.34,0.214c-0.198,0-0.396,0.013-0.594-0.003
			c-0.778-0.066-1.233,0.155-1.045,1.061c0.189,0.891-0.293,1.691-0.413,2.54c-0.127,0.896-0.139,0.895,0.812,1.188
			c-1.117,0.261-2.132,0.529-3.161,0.725c-0.385,0.075-0.73,0.096-0.861,0.528c-0.225-0.009-0.307-0.171-0.377-0.347
			c-0.046-0.18-0.057-0.363-0.069-0.545c-0.019-0.366,0.016-0.736,0.044-1.102c0.02-0.143,0.058-0.279,0.112-0.413
			c0.173-0.437,0.57-0.484,0.962-0.586c1.046-0.269,1.478-0.798,1.59-1.88c0.044-0.425,0.016-0.873,0.413-1.174
			c0.193-0.149,0.416-0.251,0.639-0.342c0.275-0.104,0.552-0.182,0.849-0.171C174.56,124.477,174.874,124.438,175.043,124.747z"/>
		<path fill="#B83C2B" d="M169.888,130.605c0.081,0.132,0.157,0.262,0.235,0.395c0.05,0.234,0.1,0.469,0.149,0.7
			c-1.593,0.085-3.189,0.167-4.784,0.264c-2.864,0.166-5.724,0.367-8.594,0.111c-0.816-0.38-1.242-1.114-1.677-1.841
			c0.815-0.31,1.655-0.2,2.493-0.167c0.098,0.033,0.189,0.078,0.273,0.133c1.255,1.104,2.784,1.201,4.339,1.136
			C164.854,131.22,167.396,131.141,169.888,130.605z"/>
		<path fill="#A11A17" d="M175.634,134.009c0.076,0.066,0.223,0.143,0.212,0.197c-0.223,1.708,0.362,3.359,0.36,5.049
			c0.002,0.539-0.008,1.07-0.603,1.347c-0.445-0.368-0.832-0.78-1.039-1.332c0.288-1.762-0.447-3.355-0.834-5.009
			C174.363,134.157,175.022,134.258,175.634,134.009z"/>
		<path fill="#B21717" d="M173.73,134.261c0.873,1.047,0.763,2.396,1.132,3.599c0.157,0.505,0.081,0.972-0.188,1.418
			c-0.417,0.187-0.799,0.066-1.169-0.14c-0.491-0.736-0.829-1.528-0.793-2.439c0.132-0.921-0.18-1.818-0.17-2.737
			C172.983,133.887,173.329,134.18,173.73,134.261z"/>
		<path fill="#030000" d="M173.479,138.981c0.4,0.1,0.798,0.197,1.195,0.299c0.39,0.384,0.819,0.74,0.929,1.321
			c-0.017,0.276-0.035,0.555-0.052,0.832c-0.475,1.374-1.474,2.22-2.788,2.745c-0.334,0.088-0.664,0.176-0.996,0.264
			c-0.515,0.34-0.957,0.047-1.409-0.158c-0.353-0.203-0.575-0.515-0.753-0.865C169.054,141.109,171.177,138.68,173.479,138.981z"/>
		<path fill="#A9261D" d="M175.043,124.747c-0.271-0.064-0.58,0.068-0.824-0.139c-0.548-1.307-0.558-2.684-0.527-4.062
			c0.165-0.442,0.612-0.539,0.946-0.774c0.131-0.066,0.262-0.085,0.401-0.027c0.268,0.294,0.335,0.652,0.308,1.027
			C175.255,122.094,175.146,123.422,175.043,124.747z"/>
		<path fill="#8B2A1F" d="M175.039,119.742c-0.082,0.031-0.17,0.065-0.256,0.097c-0.091-0.711-0.023-1.394,0.37-2.012l0.062-0.022
			C175.668,118.499,175.281,119.112,175.039,119.742z"/>
		<path fill="#91221A" d="M146.847,130.394c0.662-0.006,1.323-0.011,1.986-0.016c0.175,0.13,0.386,0.094,0.58,0.099
			c0.705,0.009,0.86,0.413,0.708,0.995c-0.178,0.677-0.388,1.391-0.883,1.88c-1.575,1.555-2.87,3.316-4.046,5.175
			c-0.052,0.023-0.106,0.041-0.156,0.064c-0.396-0.609-0.792-1.219-1.188-1.826c0.011-0.365,0.021-0.729,0.032-1.09
			c0.029-0.523,0.464-0.775,0.755-1.128c0.442-0.538,0.914-1.048,1.37-1.57C146.664,132.222,147.063,131.417,146.847,130.394z"/>
		<path fill="#9D4634" d="M164.207,148.169c-3.393,1.452-6.892,1.783-10.494,0.967c-3.523-0.8-5.678-3.339-7.69-6.045
			c-0.189-0.254-0.229-0.619-0.34-0.93c0.571-0.086,0.735,0.456,1.094,0.695c0.756,1.041,1.439,2.152,2.598,2.828
			c2.64,2.76,5.969,3.102,9.516,2.695c0.938,0.006,1.869-0.088,2.801-0.189c0.526,0.021,1.032-0.136,1.548-0.194
			C163.573,147.953,163.955,147.747,164.207,148.169z"/>
		<path fill="#A83829" d="M164.207,148.169c-0.859-0.17-1.653,0.404-2.517,0.227c0.085-0.492,0.541-0.528,0.881-0.664
			c0.643-0.255,1.256-0.556,1.819-0.954c1.199-0.743,2.653-0.86,3.882-1.579c0.683-0.401,1.388-0.796,2.114-1.125
			c0.478,0.051,0.864,0.438,1.377,0.367c-0.367,0.724-1.136,0.891-1.773,1.205C168.107,146.589,166.215,147.513,164.207,148.169z"/>
		<path fill="#A03527" d="M146.638,143.008c-0.318-0.284-0.636-0.567-0.954-0.849c-0.163-1.198-0.808-2.311-0.65-3.568l0.004-0.002
			c0.871,0.471,1.227,1.442,1.984,2.027c0.227,0.36,0.57,0.681,0.449,1.174C147.077,142.113,146.942,142.621,146.638,143.008z"/>
		<path fill="#802018" d="M146.847,130.394c0.667,0.708,0.382,1.388-0.094,2.031c-0.862,1.166-1.823,2.25-2.875,3.25
			c-0.448-0.487-0.898-0.972-1.348-1.457c-0.154-0.479,0.203-0.738,0.469-1.012c0.458-0.477,0.919-0.951,1.358-1.445
			c0.38-0.43,0.58-0.789-0.248-0.881c-0.199-0.023-0.376-0.127-0.446-0.344C144.716,130.28,145.788,130.472,146.847,130.394z"/>
		<path fill="#712119" d="M143.664,130.536c0.061,0.026,0.13,0.045,0.184,0.081c0.382,0.262,1.054-0.255,1.237,0.328
			c0.19,0.609-0.514,0.849-0.801,1.261c-0.508,0.734-1.353,1.182-1.752,2.012c-0.301,0.018-0.604,0.032-0.904,0.049
			c-0.337-1.256-0.313-2.545-0.301-3.828C142.1,130.603,142.897,130.226,143.664,130.536z"/>
		<path fill="#9B201A" d="M144.75,122.019c0.241-0.555,0.481-1.109,0.722-1.664c0.796,0.016,1.176,0.638,1.485,1.185
			c0.825,1.46,1.696,2.872,2.82,4.126c0.224,0.252,0.384,0.549,0.38,0.904c-0.187,0.504-0.387,0.994-1.025,1.068
			C147.08,126.22,145.435,124.492,144.75,122.019z"/>
		<path fill="#9B2C21" d="M149.133,127.636c0.312-0.381,0.622-0.754,0.933-1.133c1.02-0.116,1.574,0.72,2.335,1.13
			c0.609,0.633,1.59,0.973,1.634,2.048c-0.347,0.529-0.803,0.314-1.249,0.179c-0.632-0.038-1.264-0.082-1.894-0.122
			C150.502,128.872,149.665,128.379,149.133,127.636z"/>
		<path fill="#A62A20" d="M152.313,127.906c-0.731-0.497-1.426-1.052-2.249-1.403c-1.709-1.805-2.627-4.18-4.343-5.977
			c-0.068-0.073-0.167-0.117-0.25-0.172c0.491-1.107,0.881-2.264,1.624-3.248c0.479-0.361,0.791-1.307,1.621-0.466
			c0.063,0.421,0.362,0.847,0.036,1.278c-1.893,1.604-1.28,5.066,1.084,6.062c0.736,0.308,1.508,0.529,2.222,0.9
			C152.079,125.894,152.693,126.862,152.313,127.906z"/>
		<path fill="#A74835" d="M148.604,116.672c-0.71-0.567-0.961,0.444-1.507,0.435c-0.329-0.63-0.192-1.127,0.246-1.709
			c0.675-0.9,1.306-1.816,2.236-2.478c0.223,0.554,0.685,0.339,1.033,0.256c2.096-0.501,4.043-1.409,6.005-2.272
			c1.446,0.288,2.969-0.012,4.377,0.568c-0.028,0.061-0.054,0.124-0.081,0.187c-0.221,0.267-0.531,0.257-0.832,0.251
			c-2.221-0.052-4.287,0.597-6.334,1.365c-0.689,0.257-0.847,0.538-0.341,1.098c-0.031,0.102-0.095,0.167-0.193,0.206
			c-0.242,0.04-0.463-0.039-0.688-0.114c-1.56-0.521-2.561-0.116-3.333,1.321C149.027,116.098,149.022,116.526,148.604,116.672z"/>
		<path fill="#050000" d="M175.153,117.827c0.057,0.701,0.028,1.392-0.37,2.012c-0.258,0.332-0.691,0.379-1.012,0.606
			c-0.359,0.321-0.783,0.175-1.189,0.164c-1.126-0.206-2.046-0.761-2.791-1.618c-0.479-0.726-0.881-1.473-0.703-2.389
			c0.282-0.568,0.324-1.36,1.255-1.306c0.392-0.036,0.784-0.073,1.174-0.112C173.162,115.474,174.418,116.294,175.153,117.827z"/>
		<path fill="#B13426" d="M153.364,114.327c-0.262-0.179-0.751-0.15-0.763-0.547c-0.015-0.475,0.495-0.477,0.811-0.611
			c2.395-1.028,4.872-1.642,7.503-1.511c1.733,0.37,3.476,0.708,5.137,1.343c-0.222,0.48-0.672,0.35-1.048,0.357
			c-0.976,0.017-1.949-0.048-2.915-0.174c-2.631-0.347-5.147,0.081-7.6,1.037C154.139,114.362,153.772,114.646,153.364,114.327z"/>
		<path fill="#AE2A20" d="M153.364,114.327c2.079-0.744,4.167-1.501,6.402-1.504c1.669,0,3.337,0.181,5.004,0.288
			c0.434,0.025,0.863,0.068,1.283-0.107c1.221,0.523,2.447,1.041,3.662,1.58c0.308,0.137,0.77,0.172,0.628,0.714
			c-0.603,0.323-0.827,0.921-1.094,1.489c-0.286-1.088-1.272-1.302-2.114-1.728c-3.802-1.921-7.708-2.084-11.728-0.786
			c-0.55,0.177-1.06,0.407-1.558,0.684c-0.349,0.029-0.49-0.171-0.541-0.475C153.329,114.43,153.348,114.379,153.364,114.327z"/>
		<path fill="#9D271E" d="M146.962,140.735c-0.878-0.505-1.362-1.36-1.924-2.145c0.747-1.742,1.831-3.258,3.21-4.541
			c0.715-0.664,1.174-1.438,1.534-2.315c0.294-0.711,0.277-1.173-0.672-1.121c-0.147,0.008-0.247-0.082-0.277-0.233
			c0.812-0.01,1.626-0.021,2.438-0.031c0.239,0.144,0.506,0.156,0.77,0.151c1.261-0.031,1.558,0.302,1.373,1.548
			c-0.024,0.163-0.064,0.322-0.128,0.479c-0.442,0.555-1.007,0.984-1.624,1.31c-1.133,0.599-2.1,1.409-3.087,2.211
			c-1.173,0.952-1.741,2.075-1.424,3.589c0.059,0.291,0.11,0.592,0.022,0.893C147.129,140.622,147.058,140.692,146.962,140.735z"/>
		<path fill="#AA2F23" d="M153.2,132.461c-0.099-0.159-0.045-0.315-0.022-0.481c0.165-1.164-0.001-1.352-1.14-1.352
			c-0.288,0.002-0.628,0.13-0.766-0.281c0.454-0.045,0.904-0.089,1.357-0.136c0.875-0.083,1.757-0.375,2.61,0.097
			c0.773,0.383,1.091,1.191,1.654,1.768c0.022,0.284,0.008,0.562-0.138,0.816c-0.396,0.455-0.908,0.561-1.479,0.491
			C154.584,133.073,153.676,133.25,153.2,132.461z"/>
		<path fill="#673C34" d="M155.239,130.308c-0.868-0.092-1.75,0.18-2.61-0.097c0.052-0.117,0.106-0.234,0.158-0.352
			c0.387-0.055,0.773-0.106,1.16-0.161c0.95-0.389,1.951-0.065,2.922-0.214c0.311-0.003,0.625-0.011,0.886,0.2
			c0.146,0.19,0.206,0.366-0.06,0.511C156.876,130.234,156.058,130.272,155.239,130.308z"/>
		<path fill="#807A79" d="M178.82,129.242c-0.107-1.141-0.005-2.261,0.352-3.355c0.25-0.187,0.373-0.46,0.545-0.702
			c0.461-0.641,1.633-0.673,1.979,0c0.795,1.551,1.087,3.109-0.28,4.727c-0.967,1.144-1.777,1.02-2.392-0.328
			C178.973,129.464,178.889,129.354,178.82,129.242z"/>
		<path fill="#C00013" d="M173.479,138.981c-1.06,0.217-2.039,0.594-2.8,1.41c-0.792,0.854-1.191,1.818-0.886,2.991
			c-0.034,0.392-0.325,0.573-0.633,0.711c-4.002,1.804-8.141,2.64-12.516,1.653c-0.785-0.178-1.528-0.486-2.2-0.942
			c-0.121-0.13-0.214-0.276-0.197-0.448c0.155-1.541-0.715-2.43-1.961-3.083c-0.146-0.083-0.294-0.153-0.46-0.195
			c-0.22-0.055-0.502-0.065-0.538-0.359c-0.036-0.302,0.157-0.519,0.411-0.63c0.93-0.398,1.52-1.198,2.159-1.904
			c0.622-0.689,1.309-1.109,2.217-1.203c0.922-0.492,1.957-0.539,2.959-0.693c0.654-0.101,0.5,0.306,0.388,0.67
			c0.216,0.3,0.124,0.645,0.133,0.973c0.027,1.061,0.539,1.804,1.487,2.16c1.025,0.389,2.116,0.107,2.899-0.836
			c0.61-0.734,0.635-1.584,0.283-2.455c-0.101-0.256-0.472-0.436-0.241-0.793c0.734-0.507,1.624-0.627,2.437-0.64
			c2.18-0.039,4.418-0.164,6.285,1.328C172.968,137.461,173.227,138.223,173.479,138.981z"/>
		<path fill="#B31516" d="M156.08,136.987c-2.007,0.65-2.78,2.845-4.706,3.572c0.25,0.494,0.834-0.016,0.952,0.508
			c-0.874,0.451-1.888,0.339-2.787,0.693c-0.703-0.159-1.02-0.693-1.274-1.292c-0.114-1.031,0.32-1.935,0.926-2.667
			c0.845-1.013,1.768-1.994,3.02-2.562c0.587-0.266,1.045-0.708,1.539-1.102c0.523-0.418,1.054-0.822,1.753-0.906
			c0.418-0.11,0.835-0.224,1.253-0.337c0.123,0.055,0.249,0.109,0.371,0.163c0.115,0.966-0.097,1.781-1.006,2.314
			c-0.461,0.271-0.629,0.602-0.068,0.982C156.315,136.531,156.15,136.772,156.08,136.987z"/>
		<path fill="#040000" d="M163.987,136.012c0.854,1.194,0.931,2.497,0.204,3.422c-0.771,0.978-2.316,1.355-3.458,0.841
			c-1.195-0.541-1.607-1.587-1.308-3.311C160.901,135.151,162.136,134.895,163.987,136.012z"/>
		<path fill="#C76B51" d="M169.969,128.773c-0.031,0.112-0.063,0.223-0.096,0.335c-0.053,0.857-0.73,0.754-1.264,0.759
			c-2.237,0.016-4.473,0.075-6.709,0.052c-0.694-0.005-1.404,0.172-2.089-0.083c-0.9-0.581-1.838-1.116-2.51-1.981
			c-0.185-0.279-0.404-0.531-0.58-0.82c-1.19-1.94-0.87-3.757,0.972-5.101c0.614-0.448,1.095-0.973,1.487-1.599
			c0.139-0.104,0.284-0.164,0.438-0.027c0.127,0.574-0.25,1.039-0.332,1.568c-0.05,0.152-0.126,0.291-0.242,0.406
			c-0.238,0.184-0.515,0.309-0.747,0.508c-1.102,0.945-1.233,2.127-0.347,3.28c0.928,1.206,2.219,1.859,3.659,2.144
			c2.51,0.486,5.017,0.143,7.512-0.234c0.513-0.078,0.679-0.506,0.925-0.852c0.162-0.136,0.316-0.352,0.54-0.08
			C170.81,127.778,169.953,128.118,169.969,128.773z"/>
		<path fill="#C14E38" d="M169.888,130.605c-0.741,0.647-1.689,0.555-2.56,0.637c-2.43,0.224-4.863,0.528-7.32,0.219
			c-0.882-0.109-1.544-0.527-2.13-1.138c0.363-0.409,0.865-0.327,1.317-0.331c3.119-0.039,6.238-0.026,9.354-0.161
			c0.457-0.021,0.951-0.076,1.31,0.333C169.868,130.31,169.877,130.457,169.888,130.605z"/>
		<path fill="#CA563D" d="M173.503,124.739c-0.187,0.094-0.376,0.191-0.564,0.284c-0.042-0.031-0.083-0.066-0.124-0.102
			c-0.571-1.86-2.152-2.511-3.771-3.102c-1.543-0.565-3.127-0.935-4.779-0.956c-0.109-0.013-0.212-0.047-0.31-0.104
			c-0.499-0.59-1.417-0.637-1.819-1.358c0.428-0.452,1.003-0.341,1.509-0.319c2.614,0.107,5.114,0.752,7.526,1.745
			c0.628,0.255,1.168,0.661,1.623,1.167C173.224,122.856,173.822,123.685,173.503,124.739z"/>
		<path fill="#7F5549" d="M169.856,130.164c-1.894-0.27-3.785,0.05-5.681,0.026c-2.097-0.027-4.2,0.083-6.3,0.135
			c-0.059-0.043-0.122-0.083-0.183-0.127c0.072-0.143,0.082-0.281-0.023-0.416c0.713-0.63,1.491-0.204,2.246-0.134
			c3.065-0.019,6.129-0.034,9.196-0.042c0.377-0.001,0.642-0.13,0.76-0.497C169.868,129.461,169.863,129.812,169.856,130.164z"/>
		<path fill="#494140" d="M169.969,128.773c-0.089-0.671,0.379-1.175,0.523-1.773c0.106-0.794,0.682-1.247,1.244-1.712
			c0.413-0.152,0.739-0.588,1.257-0.382c-0.017,0.04-0.033,0.081-0.055,0.117c-0.262,0.289-0.282,0.629-0.294,1.008
			c-0.045,1.349-0.675,2.083-2.013,2.266C170.254,128.352,170.12,128.521,169.969,128.773z"/>
		<path fill="#BA3C2B" d="M173.503,124.739c-0.059-0.869-0.504-1.637-0.686-2.471c-0.37-0.584-0.053-1.205-0.111-1.805
			c0.358-0.007,0.708-0.014,1.065-0.019c0.147,1.387,0.297,2.774,0.447,4.16C173.979,124.651,173.741,124.695,173.503,124.739z"/>
		<path fill="#B92E22" d="M154.492,144.641c3.473,1.69,7.059,1.53,10.68,0.614c1.621-0.414,3.213-0.924,4.622-1.872
			c0.198,0.23,0.398,0.461,0.596,0.69c-0.097,0.309-0.349,0.442-0.609,0.614c-1.636,1.048-3.551,1.448-5.273,2.294
			c-3.253,0.971-6.46,0.612-9.63-0.376c-1.014-0.317-1.127-0.624-0.766-1.64C154.204,144.819,154.315,144.692,154.492,144.641z"/>
		<path fill="#AD523C" d="M158.981,148.548c-2.06,0.361-4.12,0.363-6.12-0.254c-1.45-0.447-2.584-1.465-3.711-2.449
			c-0.347-0.51-0.431-0.975,0.227-1.313c0.175,0.028,0.322,0.112,0.418,0.251c0.633,0.921,1.553,1.223,2.617,1.217
			c0.269,0,0.539,0.008,0.782,0.149c1.559,0.805,3.247,1.261,4.891,1.833C158.427,148.104,158.814,148.148,158.981,148.548z"/>
		<path fill="#B24431" d="M158.981,148.548c-1.744-0.555-3.523-1.014-5.184-1.803c-0.315-0.146-0.746-0.176-0.817-0.64
			c0.391-0.452,0.67-1.036,1.361-1.134c-0.353,1.027-0.197,1.184,0.956,1.518c2.945,0.848,5.912,0.99,8.92,0.436
			c0.09-0.019,0.194,0.036,0.291,0.055c-0.82,0.701-1.913,0.875-2.816,1.415C160.794,148.556,159.895,148.669,158.981,148.548z"/>
		<path fill="#AB3F2E" d="M149.248,144.583c-0.051,0.416-0.315,0.819-0.098,1.26c-1.125-0.694-1.846-1.742-2.511-2.838
			c0.001-0.555,0.005-1.105,0.746-1.211c0.092-0.044,0.222-0.088,0.288-0.028c0.56,0.492,1.178,0.531,1.846,0.273
			C149.443,142.888,149.393,143.742,149.248,144.583z"/>
		<path fill="#AF281F" d="M149.472,142.036c-0.865,1.365-1.411,0.01-2.088-0.243c-0.139-0.353-0.281-0.707-0.422-1.06
			c0.028-0.062,0.056-0.123,0.084-0.187c0.442-0.195,0.878-0.441,1.352-0.075c0.413,0.412,0.659,0.992,1.263,1.199
			C149.687,141.843,149.629,141.966,149.472,142.036z"/>
		<path fill="#A9392A" d="M156.849,129.653c-0.965,0.191-1.936,0.113-2.903,0.045c-0.249-0.863-1.031-1.248-1.632-1.792
			c0.042-0.995-0.682-1.925-0.259-2.957c-0.019-0.105,0.022-0.185,0.12-0.233c0.099-0.008,0.195,0.01,0.289,0.05
			c0.735,0.698,1.344,1.52,2.114,2.188C155.271,127.911,156.453,128.454,156.849,129.653z"/>
		<path fill="#040000" d="M153.308,114.479c0.139,0.164,0.278,0.328,0.417,0.494c0.889,0.972,0.79,2.456-0.295,3.471
			c-0.671,0.629-1.444,1.106-2.439,0.993c-0.946-0.239-1.949-0.401-2.168-1.61c0.009-0.4-0.332-0.736-0.217-1.155
			c0.266-0.909,0.59-1.782,1.46-2.317C151.175,113.673,152.249,113.887,153.308,114.479z"/>
		<path fill="#B0201A" d="M148.821,117.827c0.51,0.806,1.281,1.223,2.191,1.42c-0.009,0.262-0.288,0.276-0.406,0.438
			c-0.04,1.516,0.675,2.809,1.226,4.15c0.126,0.303,0.394,0.553,0.302,0.92c-0.027,0.068-0.055,0.129-0.08,0.194
			c-1.87-0.374-3.641-0.954-4.419-2.918c-0.517-1.302-0.322-2.609,0.345-3.833C148.141,117.902,148.429,117.698,148.821,117.827z"/>
		<path fill="#C01F1A" d="M150.485,119.448c0.174-0.065,0.35-0.133,0.526-0.198c1.031-0.12,1.941-0.489,2.561-1.358
			c0.658-0.928,0.728-1.912,0.152-2.918c0.631-1.161,1.91-1.036,2.908-1.316c4.319-1.213,8.336-0.139,12.206,1.839
			c0.677,0.348,0.236,0.876,0.412,1.292c-0.03,0.759,0.326,1.392,0.669,2.031c-0.335,0.25-0.699,0.149-1.058,0.076
			c-2.975-0.614-5.981-1.028-9-1.353c-1.767-0.212-3.367,0.319-4.898,1.12c-0.859,0.447-1.683,0.967-2.601,1.301
			c-0.445,0.16-0.904,0.256-1.378,0.201C150.565,120.113,150.289,119.935,150.485,119.448z"/>
		<path fill="#C53B2A" d="M159.775,117.31c3.091,0.194,6.133,0.737,9.167,1.32c0.324,0.062,0.649,0.123,0.977,0.188
			c0.776,0.805,1.706,1.35,2.788,1.644c0.635,0.567-0.046,1.207,0.111,1.805c-2.919-2.211-6.303-2.809-9.854-2.847
			c-0.261-0.002-0.523-0.024-0.784-0.033c-0.261,0.25-0.571,0.195-0.88,0.143c-2.388-0.596-4.214,0.396-5.813,2.031
			c-0.298,0.305-0.504,0.713-0.938,0.877c-0.479,0.092-0.953,0.166-1.337-0.252c-0.091-0.685,0.242-1.25,0.606-1.755
			C155.272,118.409,157.223,117.273,159.775,117.31z"/>
		<path fill="#A71C18" d="M148.398,140.477c-0.454-0.065-0.892,0.233-1.352,0.073c-0.632-2.098-0.016-3.666,1.737-5.051
			c1.414-1.12,3.059-1.871,4.417-3.038c0.768,0.258,1.535,0.516,2.302,0.771c-1.332,0.702-2.425,1.75-3.708,2.543
			C150.101,136.825,148.592,138.245,148.398,140.477z"/>
		<path fill="#B7523B" d="M156.849,129.653c-0.782-0.88-1.72-1.619-2.411-2.584c-0.342-0.611-0.46-1.221,0-1.83
			c0.313-0.235,0.619-0.131,0.921,0.029c0.855,0.681,1.245,1.763,2.1,2.447c0.696,0.8,1.634,1.293,2.456,1.933
			c-0.75,0.042-1.498,0.089-2.246,0.136C157.396,129.739,157.122,129.698,156.849,129.653z"/>
		<path fill="#948F8E" d="M179.575,125.979c0.091-0.558,0.495-0.882,1.101-0.865c0.636,0.019,0.885,0.586,1.11,1.041
			c0.577,1.149,0.158,2.91-0.816,3.751c-0.813,0.703-1.464,0.555-1.647-0.517C179.13,128.284,178.988,127.124,179.575,125.979z"/>
		<path fill="#090000" d="M149.472,142.036c0.063-0.119,0.127-0.239,0.19-0.361c0.792-0.623,1.723-0.631,2.664-0.608
			c1.863,0.96,2.341,1.749,2.166,3.574c-0.051,0.109-0.101,0.222-0.151,0.331c-0.401,0.442-0.781,0.911-1.361,1.138
			c-1.657,0.492-2.788-0.29-3.732-1.523C148.935,143.7,149.081,142.859,149.472,142.036z"/>
		<path fill="#D78D71" d="M171.918,125.437c-0.475,0.52-0.95,1.04-1.426,1.563c-0.103,0.091-0.202,0.183-0.304,0.277
			c-3.336,0.82-6.676,1.222-9.987-0.082c-1.096-0.43-1.829-1.247-2.035-2.435c-0.152-0.885,0.238-1.422,1.135-1.652
			c0.208,0.076,0.379,0.207,0.545,0.349c0.165,0.146,0.274,0.319,0.278,0.547c-0.189,1.223,0.258,2.015,1.478,2.306
			c2.358,0.561,4.737,0.472,7.093-0.047c0.51-0.114,1.114-0.302,1.141-0.966c0.025-0.622-0.47-0.918-0.976-1.153
			c-1.098-0.516-2.214-0.968-3.427-1.14c-0.432-0.059-0.81-0.082-0.992,0.415c-0.189,0.162-0.328,0.514-0.649,0.167
			c-0.072-0.64,0.3-1.132,0.55-1.661c0.347-0.508,0.866-0.453,1.363-0.386c1.846,0.261,3.563,0.917,5.163,1.845
			C171.859,123.958,172.178,124.695,171.918,125.437z"/>
		<path fill="#CF7D61" d="M159.361,123.271c-0.924,0.34-1.178,0.812-0.901,1.727c0.49,1.604,1.834,2.162,3.266,2.459
			c2.421,0.508,4.855,0.305,7.275-0.119c0.395-0.067,0.781-0.188,1.188-0.06c-0.154,0.831-0.743,0.926-1.478,1.024
			c-2.365,0.316-4.729,0.635-7.102,0.172c-1.621-0.312-3.019-1.06-4.023-2.428c-1.07-1.465-0.333-3.486,1.401-3.819
			C159.453,122.452,159.657,122.771,159.361,123.271z"/>
		<path fill="#C64E38" d="M155.348,125.487c-0.269-0.084-0.51-0.32-0.822-0.133c-0.674-0.687-0.67-1.867,0.011-3.068
			c0.818-0.959,1.636-1.896,2.807-2.484c1.296-0.656,2.6-0.959,4.016-0.492c-0.489,0.525-1.124,0.781-1.793,0.976
			c-0.084,0.039-0.171,0.082-0.254,0.121c-0.616,0.396-1.343,0.593-1.925,1.048c-1.046,0.815-1.703,1.851-1.797,3.197
			C155.567,124.944,155.611,125.261,155.348,125.487z"/>
		<path fill="#39312E" d="M159.564,120.288c0.489-0.525,1.132-0.77,1.793-0.976c0.275,0.026,0.549,0.05,0.824,0.077
			c0.658,0.371,1.52,0.473,1.828,1.322c0.225,0.434,0.078,0.773-0.387,0.784c-1.403,0.027-2.775,0.207-4.127,0.587
			c-0.165,0.047-0.317-0.071-0.402-0.231C158.993,121.253,159.344,120.789,159.564,120.288z"/>
		<path fill="#C96247" d="M155.348,125.487c-0.425-2.633,1.979-5.006,3.962-5.081c-0.249,0.66-0.593,1.167-1.261,1.579
			c-1.988,1.229-2.305,3.221-0.958,5.145c0.132,0.189,0.249,0.385,0.37,0.584C156.467,127.245,155.996,126.28,155.348,125.487z"/>
		<path fill="#524B49" d="M159.093,121.852c1.155-0.003,2.2-0.664,3.379-0.547c0.292,0.028,0.606-0.067,0.888-0.005
			c0.552,0.131,0.606-0.202,0.646-0.588c0.053,0.033,0.107,0.064,0.165,0.09c0.339,0.159,0.37,0.451,0.341,0.771
			c-0.103,0.912-0.557,1.311-1.532,1.25c-0.736-0.047-1.464,0.205-2.125,0.564c-0.365,0.195-0.723,0.37-1.143,0.172
			c-0.185-0.013-0.3-0.113-0.354-0.286c0.009-0.401-0.208-0.714-0.373-1.047C159.024,122.099,159.059,121.974,159.093,121.852z"/>
		<path fill="#D16F53" d="M164.333,121.495c-0.054-0.229-0.104-0.464-0.16-0.695c0.562-0.479,1.141-0.127,1.722-0.061
			c1.868,0.206,3.56,0.922,5.243,1.683c1.082,0.489,1.557,1.418,1.855,2.484c-0.357,0.175-0.713,0.352-1.075,0.528
			c0.152-0.898-0.535-1.443-1.086-1.752c-1.739-0.972-3.568-1.771-5.61-1.904c-0.276-0.018-0.537-0.057-0.69,0.245
			C164.191,121.954,164.479,121.641,164.333,121.495z"/>
		<path fill="#BB291F" d="M159.775,117.31c-2.235,0.225-4.076,1.156-5.503,2.917c-0.48,0.597-0.671,1.305-1.007,1.948
			c0.088,1.028-0.452,1.838-0.937,2.665c-0.064-0.027-0.129-0.055-0.194-0.082c-0.981-1.37-1.388-2.981-1.85-4.562
			c-0.069-0.231-0.245-0.606,0.201-0.75c0.002,0.556,0.383,0.528,0.771,0.501c1.294-0.079,2.33-0.795,3.386-1.415
			c1.387-0.812,2.905-1.117,4.456-1.353C159.313,117.151,159.549,117.265,159.775,117.31z"/>
		<path fill="#BB3F2D" d="M152.328,124.843c-0.01-1.002,0.641-1.768,0.937-2.666c0.424,0.035,0.846,0.076,1.27,0.112
			c-0.028,1.021-0.585,2.039-0.01,3.065c-0.281,0.56-0.067,1.142-0.084,1.715C153.594,126.461,152.943,125.668,152.328,124.843z"/>
		<path fill="#A6A2A1" d="M179.754,126.562c0.147-0.44,0.39-0.81,0.899-0.82c0.549-0.015,0.554,0.5,0.714,0.839
			c0.454,0.978,0.282,1.888-0.399,2.685c-0.458,0.539-1.118,0.419-1.311-0.265C179.427,128.195,179.43,127.362,179.754,126.562z"/>
		<path fill="#DA967A" d="M164.281,123.203c0.133-0.396,0.34-0.599,0.817-0.535c1.521,0.202,2.919,0.759,4.272,1.426
			c0.514,0.25,0.833,0.706,0.794,1.3c-0.039,0.531-0.432,0.816-0.906,0.955c-2.635,0.771-5.307,0.827-7.945,0.145
			c-1.396-0.36-1.827-1.41-1.312-2.566c0.606-0.045,1.162,0.104,1.667,0.438c-0.084,0.823,0.348,1.167,1.12,1.3
			c1.513,0.261,3.012,0.278,4.508-0.054c0.296-0.064,0.641-0.123,0.701-0.478c0.082-0.415-0.265-0.582-0.57-0.724
			c-0.666-0.315-1.346-0.602-2.081-0.749C164.976,123.583,164.528,123.609,164.281,123.203z"/>
		<path fill="#DEA186" d="M164.281,123.203c1.204,0.137,2.335,0.513,3.429,1.026c0.397,0.188,0.725,0.416,0.706,0.868
			c-0.021,0.478-0.413,0.618-0.827,0.72c-1.752,0.425-3.507,0.37-5.26,0.027c-0.363-0.071-0.668-0.278-0.916-0.575
			c-0.385-0.457-0.117-0.624,0.296-0.749c0.704-0.311,1.39-0.676,2.145-0.861C164.128,123.628,164.173,123.386,164.281,123.203z"/>
		<path fill="#6B6260" d="M163.854,123.659c-0.633,0.494-1.303,0.888-2.145,0.861c-0.573-0.188-1.19-0.247-1.704-0.594
			c-0.098-0.125-0.192-0.251-0.291-0.369c1.112-0.305,2.088-1.092,3.304-1.004c0.816,0.056,1.338-0.132,1.314-1.059
			c0.066,0.176,0.133,0.354,0.198,0.528C164.307,122.569,164.082,123.113,163.854,123.659z"/>
	</g>
</g>
</svg>
