<?xml version="1.0" encoding="utf-8"?>
<!-- Generator: Adobe Illustrator 16.0.4, SVG Export Plug-In . SVG Version: 6.00 Build 0)  -->
<!DOCTYPE svg PUBLIC "-//W3C//DTD SVG 1.1//EN" "http://www.w3.org/Graphics/SVG/1.1/DTD/svg11.dtd">
<svg version="1.1" id="Calque_1" xmlns="http://www.w3.org/2000/svg" xmlns:xlink="http://www.w3.org/1999/xlink" x="0px" y="0px"
	 width="435px" height="300px" viewBox="-55 -37.5 435 300" enable-background="new -55 -37.5 435 300" xml:space="preserve">
<g>
	<g enable-background="new    ">
		<path fill="#1E1E1C" d="M1.113,61.332H-0.23c-2.736,0-4.483-1.082-4.483-3.572V45.659c0.779-0.305,2.76-0.61,3.987-0.61h1.674
			c3.704,0,7.596,2.468,7.596,7.848C8.544,57.76,5.336,61.332,1.113,61.332z M0.454,47.75h-0.708c-0.401,0-1.227,0.166-1.227,0.166
			v9.234c0,0.94,0.424,1.363,1.628,1.363h0.543c2.665,0,4.552-2.256,4.552-5.171C5.242,49.748,3.238,47.75,0.454,47.75z"/>
		<path fill="#1E1E1C" d="M15.732,56.209h-2.077c0.236,1.597,1.699,2.607,3.562,2.607c1.321,0,2.877-0.257,3.892-1.197h0.118v0.987
			c0,1.621-1.11,2.866-4.601,2.866c-3.162,0-6.25-2.491-6.25-6.368c0-4.23,2.594-6.885,6.227-6.885c2.642,0,5.096,1.88,5.096,4.912
			C21.701,55.458,19.931,56.209,15.732,56.209z M16.322,50.852c-1.534,0-2.594,1.247-2.665,2.703l-0.024,0.422h1.415
			c2.996,0,3.681-0.329,3.681-1.223C18.728,51.487,17.784,50.852,16.322,50.852z"/>
		<path fill="#1E1E1C" d="M30.542,61.473c-1.417,0-2.571-0.8-3.208-1.88v5.592h-0.991c-1.132,0-2.217-0.823-2.217-2.186v-7.66
			c0-4.205,1.887-7.12,6.368-7.12c3.374,0,5.779,3.055,5.779,6.25C36.273,58.536,34.244,61.473,30.542,61.473z M29.999,51.018
			c-1.745,0-2.711,1.504-2.711,3.689c0,2.538,1.25,3.972,3.138,3.972c1.533,0,2.594-1.362,2.594-3.383
			C33.019,52.308,32.028,51.018,29.999,51.018z"/>
		<path fill="#1E1E1C" d="M44.358,61.473c-3.137,0-5.614-2.069-5.614-5.757v-7.214h0.589c1.816,0,2.62,0.775,2.62,2.255v4.652
			c0,2.326,1.133,3.266,2.571,3.266c1.297,0,2.218-0.893,2.218-3.055v-7.12h0.566c1.841,0,2.62,0.774,2.62,2.254v4.748
			C49.926,59.453,48.062,61.473,44.358,61.473z"/>
		<path fill="#1E1E1C" d="M54.944,47.609c-1.015,0-1.84-0.847-1.84-1.857s0.825-1.832,1.84-1.832c1.014,0,1.863,0.822,1.863,1.832
			S55.958,47.609,54.944,47.609z M57.184,61.308c-2.453,0-3.797-1.387-3.797-3.948v-8.577h0.896c1.416,0,2.264,0.752,2.264,2.351
			v5.921c0,1.268,0.542,1.668,1.935,1.668h0.589v0.682C59.072,60.768,58.529,61.308,57.184,61.308z"/>
		<path fill="#1E1E1C" d="M64.683,61.473c-2.336,0-4.081-1.198-4.081-2.491v-1.433h0.118c0.684,0.635,2.312,1.197,3.821,1.197
			c1.557,0,2.312-0.446,2.312-1.387c0-0.728-0.448-1.081-2.642-1.385c-2.689-0.375-3.986-1.433-3.986-3.361
			c0-2.373,2.146-4.395,5.402-4.395c2.878,0,4.057,1.48,4.057,2.703v1.197h-0.118c-0.661-0.657-2.123-1.175-3.632-1.175
			c-1.934,0-2.547,0.587-2.547,1.41c0,0.636,0.377,0.893,2.547,1.247c2.642,0.423,4.057,1.574,4.057,3.595
			C69.989,59.875,68.104,61.473,64.683,61.473z"/>
		<path fill="#1E1E1C" d="M86.518,61.192h-7.477c-0.921,0-1.627-0.704-1.627-1.598c0-1.057,0.542-2.233,3.042-4.301l3.774-3.125
			c0.873-0.704,1.11-1.457,1.11-2.162c0-1.457-1.015-2.373-2.808-2.373c-2.358,0-3.704,0.657-4.765,2.091h-0.118v-1.15
			c0-1.88,1.439-3.761,5.473-3.761c3.114,0,5.402,2.187,5.402,4.771c0,2.397-0.919,3.455-3.373,5.381l-2.5,1.949
			c-0.542,0.423-1.273,1.105-1.533,1.528h7.571v1.174C88.689,60.628,87.817,61.192,86.518,61.192z"/>
		<path fill="#1E1E1C" d="M96.987,61.473c-3.563,0-6.087-2.773-6.087-8.036c0-5.852,2.478-8.625,6.346-8.625
			c3.704,0,5.851,3.127,5.851,7.989C103.097,58.817,100.501,61.473,96.987,61.473z M97.246,58.654c1.557,0,2.665-1.575,2.665-5.123
			c0-4.417-0.967-5.898-2.924-5.898c-1.605,0-2.903,1.433-2.903,5.145C94.084,57.196,95.192,58.654,97.246,58.654z"/>
		<path fill="#1E1E1C" d="M115.897,61.402h-0.637c-3.019,0-5.096-1.691-5.096-4.018c0-2.255,1.65-3.972,6.322-3.972h1.108v-0.164
			c0-1.785-0.849-2.326-2.735-2.326c-2.29,0-3.563,0.868-4.035,1.457h-0.118v-1.011c0-1.409,1.274-3.101,4.623-3.101
			c2.831,0,5.379,1.315,5.379,5.688v2.913C120.709,59.547,118.727,61.402,115.897,61.402z M117.619,55.669h-1.132
			c-2.406,0-3.09,0.563-3.09,1.598c0,0.986,0.802,1.574,2.194,1.574c1.368,0,2.029-0.657,2.029-1.951V55.669L117.619,55.669z"/>
		<path fill="#1E1E1C" d="M133.559,61.192c-1.415,0-2.312-0.893-2.312-2.068v-5.028c0-2.139-0.944-3.078-2.571-3.078
			c-1.368,0-2.312,1.033-2.312,2.842v7.332h-0.944c-1.344,0-2.217-0.893-2.217-2.068v-5.475c0-2.678,1.769-5.428,5.732-5.428
			c2.996,0,5.474,1.998,5.474,5.592v7.379H133.559z"/>
		<path fill="#1E1E1C" d="M141.313,61.473c-2.336,0-4.081-1.198-4.081-2.491v-1.433h0.118c0.684,0.635,2.312,1.197,3.821,1.197
			c1.557,0,2.312-0.446,2.312-1.387c0-0.728-0.449-1.081-2.643-1.385c-2.688-0.375-3.987-1.433-3.987-3.361
			c0-2.373,2.147-4.395,5.402-4.395c2.877,0,4.057,1.48,4.057,2.703v1.197h-0.118c-0.661-0.657-2.123-1.175-3.632-1.175
			c-1.934,0-2.547,0.587-2.547,1.41c0,0.636,0.377,0.893,2.547,1.247c2.642,0.423,4.057,1.574,4.057,3.595
			C146.622,59.875,144.735,61.473,141.313,61.473z"/>
		<path fill="#1E1E1C" d="M149.4,64.434h-0.637v-0.14c0.637-0.587,1.085-1.739,1.085-2.42c0-0.447-0.118-0.798-0.377-1.057
			c-0.355-0.352-0.637-0.635-0.637-1.361c0-0.964,0.779-1.74,1.84-1.74c1.228,0,2.029,0.94,2.029,2.678
			C152.704,62.461,151.217,64.434,149.4,64.434z"/>
	</g>
	<path fill="#C53518" d="M170.782,60.475c-1.415,0-2.312-0.893-2.312-2.068v-5.028c0-2.139-0.943-3.079-2.572-3.079
		c-1.367,0-2.311,1.033-2.311,2.842v7.332h-0.945c-1.343,0-2.217-0.893-2.217-2.068v-5.475c0-2.679,1.769-5.428,5.731-5.428
		c2.996,0,5.475,1.998,5.475,5.592v7.379H170.782L170.782,60.475z"/>
	<path fill="#C53518" d="M229.452,60.475c-1.415,0-2.312-0.893-2.312-2.068v-5.028c0-2.139-0.943-3.079-2.572-3.079
		c-1.366,0-2.312,1.033-2.312,2.842v7.332h-0.943c-1.344,0-2.217-0.893-2.217-2.068v-5.475c0-2.679,1.77-5.428,5.733-5.428
		c2.993,0,5.471,1.998,5.471,5.592v7.379H229.452L229.452,60.475z"/>
	<path fill="#C53518" d="M180.402,47.504c3.819,0,6.014,3.055,6.014,6.416c0,3.807-2.194,6.838-6.299,6.838
		c-3.819,0-6.016-3.03-6.016-6.392C174.102,50.559,176.298,47.504,180.402,47.504z M180.117,50.324
		c-1.816,0-2.735,1.504-2.735,3.594c0,2.515,0.919,4.019,3.021,4.019c1.84,0,2.734-1.504,2.734-3.572
		C183.137,51.828,182.193,50.324,180.117,50.324z"/>
	<path fill="#C53518" d="M194.5,60.757c-3.137,0-5.612-2.069-5.612-5.757v-7.213h0.588c1.817,0,2.62,0.774,2.62,2.255v4.652
		c0,2.327,1.132,3.267,2.57,3.267c1.299,0,2.219-0.894,2.219-3.055v-7.121h0.564c1.841,0,2.619,0.775,2.619,2.254v4.748
		C200.066,58.736,198.205,60.757,194.5,60.757z"/>
	<path fill="#C53518" d="M206.973,60.757c-2.334,0-4.081-1.199-4.081-2.49v-1.434h0.118c0.685,0.635,2.312,1.197,3.822,1.197
		c1.555,0,2.311-0.447,2.311-1.387c0-0.728-0.449-1.082-2.643-1.386c-2.69-0.375-3.987-1.433-3.987-3.361
		c0-2.373,2.146-4.395,5.401-4.395c2.877,0,4.056,1.48,4.056,2.703v1.197h-0.117c-0.662-0.657-2.123-1.174-3.633-1.174
		c-1.934,0-2.548,0.586-2.548,1.409c0,0.636,0.379,0.894,2.548,1.247c2.642,0.422,4.058,1.574,4.058,3.594
		C212.279,59.159,210.394,60.757,206.973,60.757z"/>
	<path fill="#C53518" d="M238.531,47.504c3.822,0,6.016,3.055,6.016,6.416c0,3.807-2.193,6.838-6.298,6.838
		c-3.822,0-6.016-3.03-6.016-6.392C232.236,50.559,234.427,47.504,238.531,47.504z M238.249,50.324
		c-1.817,0-2.737,1.504-2.737,3.594c0,2.515,0.92,4.019,3.02,4.019c1.841,0,2.737-1.504,2.737-3.572
		C241.271,51.828,240.327,50.324,238.249,50.324z"/>
	<path fill="#C53518" d="M252.632,60.757c-3.137,0-5.612-2.069-5.612-5.757v-7.213h0.588c1.814,0,2.62,0.774,2.62,2.255v4.652
		c0,2.327,1.132,3.267,2.569,3.267c1.299,0,2.22-0.894,2.22-3.055v-7.121h0.564c1.841,0,2.619,0.775,2.619,2.254v4.748
		C258.2,58.736,256.337,60.757,252.632,60.757z"/>
	<path fill="#C53518" d="M265.104,60.757c-2.334,0-4.081-1.199-4.081-2.49v-1.434h0.118c0.685,0.635,2.311,1.197,3.82,1.197
		c1.556,0,2.312-0.447,2.312-1.387c0-0.728-0.45-1.082-2.643-1.386c-2.689-0.375-3.988-1.433-3.988-3.361
		c0-2.373,2.147-4.395,5.402-4.395c2.875,0,4.057,1.48,4.057,2.703v1.197h-0.12c-0.658-0.657-2.122-1.174-3.631-1.174
		c-1.935,0-2.546,0.586-2.546,1.409c0,0.636,0.376,0.894,2.546,1.247c2.643,0.422,4.058,1.574,4.058,3.594
		C270.414,59.159,268.523,60.757,265.104,60.757z"/>
	<g>
		<path fill="#C53518" d="M-0.734,84.396H-2.81c0.235,1.598,1.699,2.608,3.561,2.608c1.322,0,2.878-0.257,3.893-1.197h0.118v0.987
			c0,1.621-1.109,2.867-4.6,2.867c-3.161,0-6.25-2.491-6.25-6.369c0-4.23,2.594-6.885,6.228-6.885c2.642,0,5.096,1.88,5.096,4.912
			C5.234,83.644,3.466,84.396-0.734,84.396z M-0.145,79.037c-1.534,0-2.594,1.247-2.665,2.703l-0.024,0.422h1.415
			c2.996,0,3.681-0.329,3.681-1.223C2.263,79.673,1.32,79.037-0.145,79.037z M1.745,74.268c-0.779,0.33-1.865,0.564-2.713,0.564
			h-1.062v-0.117c0.519-0.8,1.086-1.575,1.77-2.187C0.495,71.846,1.061,71.4,1.98,71.4c0.779,0,1.321,0.354,1.321,1.199
			C3.302,73.281,2.712,73.868,1.745,74.268z"/>
		<path fill="#C53518" d="M17.282,80.777c-0.424-0.729-1.627-1.316-3.443-1.316c-1.84,0-3.468,1.48-3.468,3.361
			c0,2.304,1.368,3.877,3.515,3.877c1.817,0,2.9-0.588,3.349-1.176h0.119v1.457c0,1.528-1.486,2.632-3.775,2.632
			c-3.491,0-6.51-2.701-6.51-6.32c0-3.619,2.524-6.721,6.864-6.721c2.029,0,3.468,1.223,3.468,2.727v1.48L17.282,80.777
			L17.282,80.777z"/>
		<path fill="#C53518" d="M25.393,76.407c3.821,0,6.015,3.055,6.015,6.416c0,3.807-2.194,6.839-6.299,6.839
			c-3.821,0-6.015-3.031-6.015-6.392C19.094,79.461,21.29,76.407,25.393,76.407z M25.112,79.227c-1.816,0-2.735,1.504-2.735,3.595
			c0,2.514,0.919,4.018,3.019,4.018c1.84,0,2.736-1.504,2.736-3.572C28.129,80.73,27.185,79.227,25.112,79.227z"/>
		<path fill="#C53518" d="M51.594,89.377c-1.723,0-2.408-0.8-2.408-2.304v-4.887c0-2.093-0.944-2.984-2.334-2.984
			c-1.273,0-2.143,0.892-2.143,2.632v7.543H43.86c-1.392,0-2.312-0.8-2.312-2.304v-4.887c0-2.093-0.967-2.984-2.359-2.984
			c-1.228,0-2.147,0.964-2.147,2.702v7.472h-0.851c-1.296,0-2.287-0.847-2.287-2.304v-4.911c0-3.455,1.816-5.757,5.662-5.757
			c1.651,0,2.949,0.752,3.868,1.973c0.731-1.175,2.119-1.973,3.653-1.973c2.929,0,5.283,1.762,5.283,5.358v7.614L51.594,89.377
			L51.594,89.377z"/>
		<path fill="#C53518" d="M61.138,76.407c3.82,0,6.015,3.055,6.015,6.416c0,3.807-2.196,6.839-6.3,6.839
			c-3.82,0-6.015-3.031-6.015-6.392C54.837,79.461,57.031,76.407,61.138,76.407z M60.853,79.227c-1.813,0-2.734,1.504-2.734,3.595
			c0,2.514,0.921,4.018,3.02,4.018c1.838,0,2.734-1.504,2.734-3.572C63.871,80.73,62.928,79.227,60.853,79.227z"/>
		<path fill="#C53518" d="M75.661,89.66c-3.256,0-5.994-2.656-5.994-6.463v-10.74h1.087c1.226,0,2.076,0.706,2.076,2.187v3.689
			c0.637-0.917,1.721-1.927,3.443-1.927c3.231,0,5.709,2.632,5.709,6.368C81.983,86.582,79.528,89.66,75.661,89.66z M75.661,79.203
			c-1.604,0-2.807,1.575-2.807,3.548c0,2.915,1.25,4.112,3.138,4.112c1.581,0,2.71-1.504,2.71-3.548
			C78.706,80.238,77.593,79.203,75.661,79.203z"/>
		<path fill="#C53518" d="M86.459,75.796c-1.015,0-1.841-0.847-1.841-1.857c0-1.011,0.826-1.832,1.841-1.832
			c1.014,0,1.866,0.821,1.866,1.832C88.322,74.949,87.472,75.796,86.459,75.796z M88.698,89.495c-2.452,0-3.798-1.387-3.798-3.948
			v-8.578h0.896c1.417,0,2.262,0.752,2.262,2.351v5.921c0,1.268,0.542,1.668,1.935,1.668h0.586v0.681
			C90.586,88.955,90.044,89.495,88.698,89.495z"/>
		<path fill="#C53518" d="M96.501,89.495c-2.617,0-4.031-1.387-4.031-3.948V72.458h0.894c1.582,0,2.263,0.918,2.263,2.115v10.669
			c0,1.268,0.66,1.668,2.147,1.668h0.85v0.681C98.627,88.955,97.895,89.495,96.501,89.495z"/>
		<path fill="#C53518" d="M101.998,75.796c-1.015,0-1.841-0.847-1.841-1.857c0-1.011,0.826-1.832,1.841-1.832
			s1.864,0.821,1.864,1.832C103.861,74.949,103.012,75.796,101.998,75.796z M104.238,89.495c-2.452,0-3.796-1.387-3.796-3.948
			v-8.578h0.897c1.414,0,2.262,0.752,2.262,2.351v5.921c0,1.268,0.542,1.668,1.933,1.668h0.587v0.681
			C106.125,88.955,105.584,89.495,104.238,89.495z"/>
		<path fill="#C53518" d="M111.736,89.66c-2.335,0-4.083-1.199-4.083-2.491v-1.434h0.118c0.686,0.635,2.313,1.198,3.82,1.198
			c1.558,0,2.314-0.447,2.314-1.387c0-0.728-0.447-1.082-2.641-1.385c-2.693-0.376-3.987-1.434-3.987-3.361
			c0-2.374,2.147-4.395,5.402-4.395c2.874,0,4.057,1.479,4.057,2.702v1.197h-0.122c-0.657-0.657-2.123-1.174-3.633-1.174
			c-1.931,0-2.545,0.586-2.545,1.41c0,0.635,0.376,0.893,2.545,1.246c2.644,0.423,4.058,1.575,4.058,3.595
			C117.043,88.061,115.156,89.66,111.736,89.66z"/>
		<path fill="#C53518" d="M125.2,76.407c3.82,0,6.015,3.055,6.015,6.416c0,3.807-2.195,6.839-6.297,6.839
			c-3.82,0-6.014-3.031-6.014-6.392C118.904,79.461,121.093,76.407,125.2,76.407z M124.917,79.227c-1.815,0-2.737,1.504-2.737,3.595
			c0,2.514,0.921,4.018,3.02,4.018c1.84,0,2.739-1.504,2.739-3.572C127.938,80.73,126.995,79.227,124.917,79.227z"/>
		<path fill="#C53518" d="M144.042,89.377c-1.416,0-2.312-0.894-2.312-2.068v-5.028c0-2.139-0.944-3.079-2.573-3.079
			c-1.366,0-2.314,1.033-2.314,2.843v7.332h-0.944c-1.344,0-2.213-0.894-2.213-2.068v-5.475c0-2.678,1.767-5.428,5.728-5.428
			c2.996,0,5.474,1.997,5.474,5.592v7.379H144.042z"/>
		<path fill="#C53518" d="M151.798,89.66c-2.334,0-4.081-1.199-4.081-2.491v-1.434h0.118c0.686,0.635,2.312,1.198,3.82,1.198
			c1.558,0,2.314-0.447,2.314-1.387c0-0.728-0.448-1.082-2.645-1.385c-2.69-0.376-3.987-1.434-3.987-3.361
			c0-2.374,2.147-4.395,5.402-4.395c2.876,0,4.055,1.479,4.055,2.702v1.197h-0.118c-0.659-0.657-2.123-1.174-3.634-1.174
			c-1.932,0-2.545,0.586-2.545,1.41c0,0.635,0.376,0.893,2.545,1.246c2.644,0.423,4.056,1.575,4.056,3.595
			C157.104,88.061,155.218,89.66,151.798,89.66z"/>
	</g>
	<path fill="#C53518" d="M172.707,89.804c-1.415,0-2.571-0.8-3.209-1.88v5.592h-0.99c-1.132,0-2.216-0.823-2.216-2.187v-7.66
		c0-4.205,1.888-7.12,6.368-7.12c3.374,0,5.78,3.055,5.78,6.251C178.438,86.865,176.41,89.804,172.707,89.804z M172.165,79.346
		c-1.746,0-2.714,1.505-2.714,3.689c0,2.538,1.252,3.972,3.139,3.972c1.533,0,2.595-1.363,2.595-3.384
		C175.185,80.639,174.193,79.346,172.165,79.346z"/>
	<path fill="#C53518" d="M186.619,76.549c3.821,0,6.015,3.055,6.015,6.416c0,3.807-2.193,6.839-6.298,6.839
		c-3.82,0-6.015-3.031-6.015-6.392C180.321,79.604,182.515,76.549,186.619,76.549z M186.336,79.371
		c-1.815,0-2.736,1.504-2.736,3.595c0,2.516,0.921,4.019,3.02,4.019c1.84,0,2.736-1.503,2.736-3.572
		C189.355,80.873,188.412,79.371,186.336,79.371z"/>
	<path fill="#C53518" d="M200.72,89.804c-3.139,0-5.615-2.07-5.615-5.757v-7.213h0.589c1.816,0,2.62,0.774,2.62,2.254v4.652
		c0,2.326,1.133,3.266,2.571,3.266c1.296,0,2.218-0.893,2.218-3.055v-7.12h0.565c1.841,0,2.62,0.775,2.62,2.254v4.748
		C206.286,87.783,204.421,89.804,200.72,89.804z"/>
	<path fill="#C53518" d="M216.564,79.911c-0.474-0.189-1.015-0.376-1.841-0.376c-1.414,0-2.193,0.776-2.193,2.701v7.286h-0.873
		c-1.414,0-2.311-0.705-2.311-2.021v-5.828c0-2.537,1.344-4.958,4.693-4.958c1.96,0,2.642,1.105,2.642,2.069v1.128H216.564z"/>
	<path fill="#C53518" d="M6.061,110.397c-0.851,2.326-2.265,5.38-3.681,7.306H1.767c-0.944,0-1.439-0.327-2.076-1.267
		c-1.721-2.608-3.892-8.131-4.174-11.562h1.699c1.085,0,1.769,0.821,1.887,1.504c0.448,2.349,1.085,4.793,2.429,7.401
		c1.203-2.372,2.312-5.733,2.784-8.905h1.344c1.085,0,1.486,0.47,1.486,1.504C7.145,106.753,6.838,108.281,6.061,110.397z"/>
	<path fill="#C53518" d="M14.738,104.592c3.821,0,6.015,3.055,6.015,6.416c0,3.808-2.194,6.839-6.299,6.839
		c-3.821,0-6.015-3.031-6.015-6.392C8.438,107.646,10.631,104.592,14.738,104.592z M14.453,107.414
		c-1.816,0-2.736,1.504-2.736,3.594c0,2.516,0.919,4.019,3.02,4.019c1.84,0,2.736-1.503,2.736-3.572
		C17.472,108.916,16.528,107.414,14.453,107.414z"/>
	<path fill="#C53518" d="M27.066,117.847c-2.335,0-4.081-1.198-4.081-2.49v-1.435h0.118c0.684,0.638,2.312,1.198,3.821,1.198
		c1.557,0,2.312-0.447,2.312-1.387c0-0.729-0.448-1.081-2.642-1.385c-2.689-0.376-3.986-1.434-3.986-3.361
		c0-2.374,2.147-4.395,5.402-4.395c2.877,0,4.057,1.48,4.057,2.703v1.197h-0.118c-0.661-0.658-2.123-1.175-3.632-1.175
		c-1.934,0-2.547,0.587-2.547,1.41c0,0.636,0.377,0.893,2.547,1.247c2.642,0.423,4.057,1.575,4.057,3.594
		C32.373,116.247,30.487,117.847,27.066,117.847z"/>
	<g enable-background="new    ">
		<path fill="#1E1E1C" d="M45.386,117.847c-3.349,0-5.92-2.914-5.92-6.392c0-4.158,2.029-6.861,5.732-6.861
			c1.274,0,2.665,0.894,3.161,1.997v-5.945h0.967c1.51,0,2.171,0.87,2.171,2.139v8.929
			C51.496,115.402,49.751,117.847,45.386,117.847z M45.221,107.248c-1.604,0-2.643,1.552-2.643,3.596
			c0,2.632,1.368,4.347,3.185,4.347c1.769,0,2.547-1.312,2.547-3.616C48.313,108.4,46.919,107.248,45.221,107.248z"/>
		<path fill="#1E1E1C" d="M59.322,112.583h-2.076c0.236,1.597,1.7,2.608,3.561,2.608c1.319,0,2.877-0.254,3.893-1.194h0.118v0.983
			c0,1.625-1.108,2.867-4.599,2.867c-3.163,0-6.254-2.49-6.254-6.368c0-4.23,2.594-6.885,6.228-6.885
			c2.641,0,5.096,1.88,5.096,4.912C65.29,111.831,63.521,112.583,59.322,112.583z M59.911,107.224c-1.532,0-2.594,1.247-2.664,2.702
			l-0.023,0.423h1.414c2.996,0,3.681-0.33,3.681-1.223C62.317,107.86,61.374,107.224,59.911,107.224z M61.798,102.455
			c-0.779,0.329-1.867,0.564-2.712,0.564h-1.061v-0.118c0.52-0.799,1.086-1.574,1.768-2.186c0.752-0.682,1.32-1.128,2.242-1.128
			c0.778,0,1.321,0.354,1.321,1.199C63.355,101.468,62.764,102.055,61.798,102.455z"/>
		<path fill="#1E1E1C" d="M74.132,117.847c-1.417,0-2.572-0.8-3.208-1.881v5.593h-0.99c-1.134,0-2.219-0.823-2.219-2.187v-7.66
			c0-4.206,1.887-7.121,6.372-7.121c3.375,0,5.775,3.055,5.775,6.25C79.862,114.909,77.833,117.847,74.132,117.847z M73.587,107.389
			c-1.746,0-2.71,1.504-2.71,3.689c0,2.538,1.252,3.972,3.137,3.972c1.534,0,2.594-1.363,2.594-3.384
			C76.607,108.681,75.616,107.389,73.587,107.389z"/>
		<path fill="#1E1E1C" d="M86.486,117.681c-2.619,0-4.036-1.387-4.036-3.947v-13.088h0.896c1.582,0,2.264,0.917,2.264,2.115v10.669
			c0,1.27,0.661,1.669,2.146,1.669h0.85v0.681C88.609,117.141,87.877,117.681,86.486,117.681z"/>
		<path fill="#1E1E1C" d="M95.186,117.774h-0.639c-3.019,0-5.096-1.691-5.096-4.02c0-2.253,1.65-3.972,6.323-3.972h1.107v-0.164
			c0-1.785-0.848-2.325-2.734-2.325c-2.29,0-3.563,0.868-4.034,1.456h-0.12v-1.011c0-1.409,1.272-3.102,4.622-3.102
			c2.831,0,5.382,1.316,5.382,5.688v2.914C100,115.919,98.017,117.774,95.186,117.774z M96.908,112.042h-1.133
			c-2.406,0-3.092,0.564-3.092,1.596c0,0.984,0.803,1.576,2.195,1.576c1.368,0,2.029-0.658,2.029-1.951V112.042L96.908,112.042z"/>
		<path fill="#1E1E1C" d="M112.116,108.964c-0.424-0.73-1.627-1.316-3.443-1.316c-1.84,0-3.467,1.48-3.467,3.361
			c0,2.304,1.367,3.877,3.514,3.877c1.816,0,2.901-0.587,3.35-1.176h0.12v1.457c0,1.527-1.488,2.632-3.775,2.632
			c-3.488,0-6.508-2.698-6.508-6.32c0-3.619,2.525-6.722,6.864-6.722c2.029,0,3.47,1.223,3.47,2.728v1.479L112.116,108.964
			L112.116,108.964z"/>
		<path fill="#1E1E1C" d="M119.284,112.583h-2.076c0.235,1.597,1.7,2.608,3.561,2.608c1.322,0,2.877-0.254,3.892-1.194h0.119v0.983
			c0,1.625-1.109,2.867-4.6,2.867c-3.16,0-6.25-2.49-6.25-6.368c0-4.23,2.594-6.885,6.224-6.885c2.644,0,5.098,1.88,5.098,4.912
			C125.252,111.831,123.483,112.583,119.284,112.583z M119.873,107.224c-1.534,0-2.594,1.247-2.665,2.702l-0.024,0.423h1.415
			c2.995,0,3.681-0.33,3.681-1.223C122.279,107.86,121.336,107.224,119.873,107.224z"/>
		<path fill="#1E1E1C" d="M145.392,117.563c-1.722,0-2.408-0.799-2.408-2.303v-4.89c0-2.092-0.944-2.984-2.334-2.984
			c-1.272,0-2.147,0.892-2.147,2.632v7.542h-0.851c-1.39,0-2.313-0.801-2.313-2.307v-4.887c0-2.092-0.968-2.983-2.36-2.983
			c-1.227,0-2.146,0.963-2.146,2.701v7.472h-0.851c-1.299,0-2.289-0.847-2.289-2.305v-4.913c0-3.455,1.816-5.757,5.66-5.757
			c1.651,0,2.948,0.752,3.873,1.974c0.73-1.175,2.123-1.974,3.654-1.974c2.926,0,5.283,1.763,5.283,5.359v7.613L145.392,117.563
			L145.392,117.563z"/>
		<path fill="#1E1E1C" d="M153.993,112.583h-2.077c0.236,1.597,1.7,2.608,3.561,2.608c1.32,0,2.875-0.254,3.89-1.194h0.12v0.983
			c0,1.625-1.108,2.867-4.602,2.867c-3.16,0-6.253-2.49-6.253-6.368c0-4.23,2.594-6.885,6.227-6.885c2.644,0,5.096,1.88,5.096,4.912
			C159.961,111.831,158.19,112.583,153.993,112.583z M154.583,107.224c-1.534,0-2.594,1.247-2.667,2.702l-0.023,0.423h1.415
			c2.996,0,3.681-0.33,3.681-1.223C156.988,107.86,156.044,107.224,154.583,107.224z"/>
		<path fill="#1E1E1C" d="M172.74,117.563c-1.417,0-2.313-0.893-2.313-2.067v-5.028c0-2.139-0.944-3.079-2.57-3.079
			c-1.37,0-2.313,1.033-2.313,2.843v7.332H164.6c-1.347,0-2.218-0.893-2.218-2.067v-5.475c0-2.679,1.768-5.428,5.732-5.428
			c2.993,0,5.474,1.997,5.474,5.592v7.378H172.74L172.74,117.563z"/>
		<path fill="#1E1E1C" d="M177.688,102.877c0.422-0.493,0.989-0.87,1.483-0.87h0.732v2.867h4.412v1.292
			c0,0.659-0.589,1.504-1.886,1.504h-2.526v4.959c0,1.644,0.731,2.28,2.004,2.28c1.016,0,1.794-0.141,2.291-0.445h0.117v1.127
			c0,1.293-0.942,2.115-2.782,2.115c-3.208,0-4.769-1.74-4.769-4.699v-7.614C176.769,104.145,177.005,103.676,177.688,102.877z"/>
		<path fill="#1E1E1C" d="M190.045,117.847c-2.335,0-4.082-1.198-4.082-2.49v-1.435h0.118c0.686,0.638,2.315,1.198,3.821,1.198
			c1.556,0,2.312-0.447,2.312-1.387c0-0.729-0.447-1.081-2.643-1.385c-2.689-0.376-3.986-1.434-3.986-3.361
			c0-2.374,2.146-4.395,5.401-4.395c2.875,0,4.057,1.48,4.057,2.703v1.197h-0.12c-0.658-0.658-2.123-1.175-3.634-1.175
			c-1.932,0-2.543,0.587-2.543,1.41c0,0.636,0.373,0.893,2.543,1.247c2.646,0.423,4.058,1.575,4.058,3.594
			C195.352,116.247,193.464,117.847,190.045,117.847z"/>
		<path fill="#1E1E1C" d="M199.594,117.563c-1.106,0-2.029-0.918-2.029-2.021c0-1.104,0.92-2.022,2.029-2.022
			c1.111,0,2.03,0.917,2.03,2.022C201.621,116.646,200.703,117.563,199.594,117.563z"/>
	</g>
	<g>
		<path d="M7.54,186.747c-1.581,0-2.583-0.997-2.583-2.309v-5.614c0-2.39-1.054-3.44-2.871-3.44c-1.53,0-2.583,1.152-2.583,3.178
			v8.188h-1.053c-1.5,0-2.478-0.997-2.478-2.31v-6.113c0-2.994,1.976-6.064,6.403-6.064c3.346,0,6.111,2.232,6.111,6.248v8.239H7.54
			V186.747z"/>
		<path d="M18.282,172.261c4.267,0,6.719,3.412,6.719,7.164c0,4.252-2.451,7.639-7.036,7.639c-4.267,0-6.719-3.381-6.719-7.139
			C11.249,175.673,13.698,172.261,18.282,172.261z M17.967,175.411c-2.029,0-3.056,1.68-3.056,4.016
			c0,2.808,1.028,4.487,3.373,4.487c2.056,0,3.056-1.68,3.056-3.989C21.339,177.091,20.286,175.411,17.967,175.411z"/>
		<path d="M34.032,187.065c-3.503,0-6.27-2.312-6.27-6.43v-8.058h0.657c2.029,0,2.927,0.863,2.927,2.519v5.193
			c0,2.601,1.262,3.647,2.871,3.647c1.448,0,2.479-0.997,2.479-3.411v-7.953h0.633c2.055,0,2.926,0.864,2.926,2.516v5.306
			C40.249,184.808,38.168,187.065,34.032,187.065z"/>
		<path d="M47.962,187.065c-2.608,0-4.557-1.34-4.557-2.783v-1.602h0.133c0.763,0.71,2.58,1.34,4.267,1.34
			c1.738,0,2.582-0.5,2.582-1.552c0-0.81-0.501-1.208-2.951-1.547c-3.003-0.418-4.452-1.599-4.452-3.754
			c0-2.649,2.397-4.91,6.033-4.91c3.216,0,4.533,1.651,4.533,3.02v1.336h-0.134c-0.738-0.734-2.37-1.312-4.057-1.312
			c-2.159,0-2.844,0.655-2.844,1.576c0,0.711,0.421,0.997,2.844,1.393c2.952,0.472,4.532,1.758,4.532,4.015
			C53.89,185.278,51.784,187.065,47.962,187.065z"/>
		<path fill="#C53518" d="M69.639,187.065c-1.583,0-2.872-0.896-3.584-2.1v6.245h-1.106c-1.264,0-2.478-0.919-2.478-2.441v-8.555
			c0-4.696,2.107-7.954,7.112-7.954c3.768,0,6.457,3.414,6.457,6.984C76.041,183.784,73.774,187.065,69.639,187.065z
			 M69.032,175.387c-1.95,0-3.03,1.679-3.03,4.121c0,2.833,1.398,4.437,3.505,4.437c1.712,0,2.897-1.522,2.897-3.781
			C72.405,176.825,71.298,175.387,69.032,175.387z"/>
		<path fill="#C53518" d="M85.177,172.261c4.267,0,6.719,3.412,6.719,7.164c0,4.252-2.451,7.639-7.035,7.639
			c-4.269,0-6.719-3.381-6.719-7.139C78.144,175.673,80.593,172.261,85.177,172.261z M84.861,175.411
			c-2.029,0-3.057,1.68-3.057,4.016c0,2.808,1.029,4.487,3.374,4.487c2.055,0,3.056-1.68,3.056-3.989
			C88.234,177.091,87.181,175.411,84.861,175.411z"/>
		<path fill="#C53518" d="M100.925,187.065c-3.505,0-6.271-2.312-6.271-6.43v-8.058h0.655c2.029,0,2.927,0.863,2.927,2.519v5.193
			c0,2.601,1.264,3.647,2.873,3.647c1.448,0,2.476-0.997,2.476-3.411v-7.953h0.632c2.055,0,2.926,0.864,2.926,2.516v5.306
			C107.144,184.808,105.061,187.065,100.925,187.065z"/>
		<path fill="#C53518" d="M118.625,176.016c-0.526-0.214-1.134-0.422-2.056-0.422c-1.58,0-2.449,0.867-2.449,3.02v8.137h-0.976
			c-1.581,0-2.582-0.786-2.582-2.258v-6.511c0-2.833,1.5-5.537,5.245-5.537c2.187,0,2.948,1.234,2.948,2.311v1.261H118.625
			L118.625,176.016z"/>
		<path fill="#C53518" d="M125.022,187.065c-2.608,0-4.558-1.34-4.558-2.783v-1.602h0.133c0.765,0.71,2.585,1.34,4.266,1.34
			c1.742,0,2.585-0.5,2.585-1.552c0-0.81-0.5-1.208-2.952-1.547c-3.005-0.418-4.453-1.599-4.453-3.754
			c0-2.649,2.397-4.91,6.033-4.91c3.214,0,4.531,1.651,4.531,3.02v1.336h-0.131c-0.735-0.734-2.371-1.312-4.057-1.312
			c-2.158,0-2.844,0.655-2.844,1.576c0,0.711,0.42,0.997,2.844,1.393c2.951,0.472,4.532,1.758,4.532,4.015
			C130.952,185.278,128.843,187.065,125.022,187.065z"/>
		<path fill="#C53518" d="M139.958,187.065c-3.506,0-6.273-2.312-6.273-6.43v-8.058h0.66c2.029,0,2.923,0.863,2.923,2.519v5.193
			c0,2.601,1.268,3.647,2.872,3.647c1.448,0,2.478-0.997,2.478-3.411v-7.953h0.632c2.056,0,2.926,0.864,2.926,2.516v5.306
			C146.175,184.808,144.094,187.065,139.958,187.065z"/>
		<path fill="#C53518" d="M151.781,171.578c-1.134,0-2.056-0.945-2.056-2.073c0-1.129,0.922-2.048,2.056-2.048
			c1.132,0,2.081,0.919,2.081,2.048C153.861,170.633,152.913,171.578,151.781,171.578z M154.282,186.879
			c-2.738,0-4.239-1.548-4.239-4.41v-9.582h1.001c1.581,0,2.527,0.837,2.527,2.626v6.615c0,1.415,0.606,1.86,2.159,1.86h0.658v0.762
			C156.392,186.276,155.786,186.879,154.282,186.879z"/>
		<path fill="#C53518" d="M168.664,178.745c-0.948,2.595-2.527,6.008-4.109,8.158h-0.685c-1.053,0-1.608-0.367-2.319-1.415
			c-1.925-2.913-4.346-9.082-4.663-12.915h1.898c1.213,0,1.977,0.918,2.107,1.68c0.5,2.627,1.214,5.357,2.713,8.268
			c1.343-2.648,2.584-6.404,3.107-9.947h1.504c1.213,0,1.658,0.528,1.658,1.68C169.877,174.675,169.535,176.382,168.664,178.745z"/>
		<path fill="#C53518" d="M178.355,172.261c4.268,0,6.72,3.412,6.72,7.164c0,4.252-2.451,7.639-7.036,7.639
			c-4.268,0-6.719-3.381-6.719-7.139C171.32,175.673,173.77,172.261,178.355,172.261z M178.039,175.411
			c-2.03,0-3.058,1.68-3.058,4.016c0,2.808,1.029,4.487,3.374,4.487c2.055,0,3.056-1.68,3.056-3.989
			C181.411,177.091,180.357,175.411,178.039,175.411z"/>
		<path fill="#C53518" d="M199.399,186.747c-1.584,0-2.585-0.997-2.585-2.309v-5.614c0-2.39-1.054-3.44-2.872-3.44
			c-1.528,0-2.584,1.152-2.584,3.178v8.188h-1.054c-1.501,0-2.476-0.997-2.476-2.31v-6.113c0-2.994,1.977-6.064,6.398-6.064
			c3.346,0,6.115,2.232,6.115,6.248v8.239h-0.943V186.747z"/>
		<path fill="#C53518" d="M208.062,187.065c-2.607,0-4.558-1.34-4.558-2.783v-1.602h0.133c0.764,0.71,2.582,1.34,4.266,1.34
			c1.742,0,2.584-0.5,2.584-1.552c0-0.81-0.499-1.208-2.951-1.547c-3.004-0.418-4.452-1.599-4.452-3.754
			c0-2.649,2.397-4.91,6.032-4.91c3.211,0,4.531,1.651,4.531,3.02v1.336h-0.136c-0.734-0.734-2.37-1.312-4.056-1.312
			c-2.158,0-2.845,0.655-2.845,1.576c0,0.711,0.42,0.997,2.845,1.393c2.951,0.472,4.533,1.758,4.533,4.015
			C213.992,185.278,211.882,187.065,208.062,187.065z"/>
		<path fill="#C53518" d="M221.851,186.747c-1.239,0-2.265-1.023-2.265-2.255s1.026-2.258,2.265-2.258s2.266,1.026,2.266,2.258
			S223.089,186.747,221.851,186.747z"/>
	</g>
	<g enable-background="new    ">
		<path fill="#1E1E1C" d="M13.683,153.742c-0.036,1.948-1.029,3.005-5.285,3.005H5.809c-5.923,0-9.046-3.251-9.046-9.435v-4.485
			c0-2.299,0.177-4.878,0.46-6.819c0.391-2.898,1.737-3.638,3.726-3.638h12.698v1.629c0,1.693-1.029,2.545-3.263,2.545H2.048
			c-0.25,1.769-0.354,4.133-0.354,5.654h9.362v1.727c0,1.59-0.992,2.228-2.942,2.228h-6.42v1.411c0,4.207,1.383,5.022,5.143,5.022
			h1.561c1.773,0,3.582-0.142,5.321-0.532L13.683,153.742z"/>
		<path fill="#1E1E1C" d="M32.366,156.569c-2.126,0-3.476-1.343-3.476-3.108v-7.562c0-3.217-1.417-4.63-3.865-4.63
			c-2.057,0-3.476,1.552-3.476,4.276v11.023h-1.42c-2.02,0-3.334-1.343-3.334-3.108v-8.233c0-4.027,2.661-8.162,8.62-8.162
			c4.505,0,8.23,3.004,8.23,8.411v11.093H32.366L32.366,156.569z"/>
		<path fill="#1E1E1C" d="M59.421,156.569H48.178c-1.386,0-2.448-1.055-2.448-2.398c0-1.59,0.815-3.361,4.575-6.473L55.981,143
			c1.313-1.058,1.669-2.192,1.669-3.25c0-2.192-1.526-3.569-4.222-3.569c-3.547,0-5.569,0.987-7.166,3.143h-0.178v-1.729
			c0-2.827,2.165-5.653,8.23-5.653c4.681,0,8.123,3.289,8.123,7.174c0,3.607-1.383,5.195-5.073,8.089l-3.76,2.935
			c-0.815,0.635-1.917,1.659-2.306,2.299h11.385v1.767C62.685,155.724,61.371,156.569,59.421,156.569z"/>
		<path fill="#1E1E1C" d="M75.165,156.996c-5.357,0-9.151-4.171-9.151-12.085c0-8.799,3.726-12.97,9.542-12.97
			c5.569,0,8.798,4.699,8.798,12.015C84.351,153.001,80.451,156.996,75.165,156.996z M75.554,152.755
			c2.341,0,4.009-2.369,4.009-7.703c0-6.643-1.455-8.869-4.398-8.869c-2.414,0-4.364,2.152-4.364,7.734
			C70.802,150.562,72.468,152.755,75.554,152.755z"/>
		<path fill="#1E1E1C" d="M95.126,156.569c-1.667,0-2.945-1.055-2.945-3.14v-16.042l-2.341,0.848
			c-0.674,0.246-1.277,0.354-1.81,0.354c-1.346,0-2.164-0.706-2.341-1.766l-0.211-1.234l4.398-1.945
			c2.448-1.058,3.265-1.273,4.575-1.273c1.561,0,2.591,1.305,2.591,2.578v21.625h-1.917V156.569z"/>
		<path fill="#1E1E1C" d="M118.248,150.847h-1.81v5.723h-1.88c-1.668,0-2.838-1.058-2.838-3.111v-2.615h-8.229
			c-1.597,0-2.661-1.096-2.661-2.19c0-1.345,0.319-2.05,0.639-2.651c1.669-3.04,6.917-10.915,10.288-13.639h1.773
			c1.703,0,2.908,1.127,2.908,3.391v11.092h3.831v1.91C120.272,149.999,119.597,150.847,118.248,150.847z M111.722,137.274
			c-1.668,2.194-5.002,6.999-6.421,9.577h6.421V137.274z"/>
		<path fill="#1E1E1C" d="M123.95,161.446h-0.958v-0.209c0.958-0.881,1.632-2.616,1.632-3.639c0-0.672-0.177-1.201-0.568-1.59
			c-0.533-0.532-0.958-0.955-0.958-2.048c0-1.449,1.171-2.616,2.768-2.616c1.846,0,3.052,1.416,3.052,4.027
			C128.918,158.479,126.681,161.446,123.95,161.446z"/>
	</g>
	<path fill="#C53518" d="M223.176,180.388l0.67-14.993c0-1.196-0.682-2.114-2.262-2.114h-0.895v16.465
		C221.743,179.73,222.125,180.383,223.176,180.388z"/>
</g>
</svg>
