<?xml version="1.0" encoding="utf-8"?>
<!-- Generator: Adobe Illustrator 16.0.4, SVG Export Plug-In . SVG Version: 6.00 Build 0)  -->
<!DOCTYPE svg PUBLIC "-//W3C//DTD SVG 1.1//EN" "http://www.w3.org/Graphics/SVG/1.1/DTD/svg11.dtd">
<svg version="1.1" id="Calque_1" xmlns="http://www.w3.org/2000/svg" xmlns:xlink="http://www.w3.org/1999/xlink" x="0px" y="0px"
	 width="325px" height="225px" viewBox="0 0 325 225" enable-background="new 0 0 325 225" xml:space="preserve">
<g>
	<path fill="#7B7B7B" d="M179.859,191.87l-1.874,0.051c-0.138,0.005-0.448-0.146-0.934-0.449c-0.438-0.272-0.728-0.479-0.869-0.616
		c-0.216,0.135-0.451,0.265-0.713,0.394c-0.737,0.361-1.325,0.577-1.765,0.652c-0.097,0.017-0.187,0.026-0.269,0.028
		c-1.843,0.05-2.786-0.667-2.827-2.153c-0.017-0.674,0.441-1.717,1.373-3.131c0.722-1.109,1.498-2.111,2.322-3.008
		c1.017,0.11,1.853,0.625,2.514,1.536c0.617,0.837,0.94,1.768,0.968,2.8c0.017,0.536-0.069,1.021-0.256,1.464
		c-0.132,0.34-0.376,0.662-0.737,0.974c0.106-0.006,0.227-0.008,0.36-0.011c0.367-0.01,0.59-0.018,0.67-0.02
		c0.119-0.004,0.275-0.022,0.466-0.054c0.379-0.064,0.894-0.184,1.545-0.358c1.179-0.33,1.767-0.653,1.758-0.972
		c-0.006-0.256-0.275-0.686-0.809-1.286c-0.531-0.599-0.807-1.216-0.824-1.851c-0.018-0.633,0.469-1.36,1.456-2.182
		c0.828-0.663,1.534-1.042,2.121-1.14c0.087-0.016,0.175-0.024,0.256-0.025c0.258-0.008,0.461,0.14,0.606,0.445
		c0.147,0.303,0.195,0.613,0.146,0.932c-0.568,0.313-1.134,0.626-1.7,0.939c-0.819,0.479-1.225,0.897-1.213,1.252
		c0.007,0.199,0.309,0.697,0.917,1.493c0.606,0.794,0.917,1.381,0.924,1.758c0.014,0.336-0.457,0.82-1.4,1.45
		c-0.893,0.597-1.452,0.912-1.674,0.95c-0.017,0.003-0.026,0.005-0.038,0.005l-0.267,0.066L179.859,191.87 M174.935,185.289
		c-0.468,0.079-1.073,0.777-1.816,2.098c-0.785,1.391-1.122,2.311-1.011,2.766c0.341,0.148,0.65,0.229,0.93,0.24
		c0.43,0.008,0.819-0.019,1.164-0.077c0.708-0.119,1.245-0.375,1.605-0.772c0.464-0.51,0.708-1.298,0.741-2.371
		c-0.05-0.235-0.262-0.611-0.645-1.125c-0.381-0.517-0.68-0.771-0.898-0.765C174.983,185.284,174.958,185.285,174.935,185.289
		 M168.268,192.16l-0.454,0.013c-0.729,0.041-1.1-0.236-1.113-0.832c-0.003-0.08,0.146-1.074,0.442-2.985
		c0.312-1.992,0.489-3.19,0.527-3.6c0.036-0.407,0.116-1.663,0.229-3.768c0.04-0.734,0.047-1.144,0.026-1.22
		c-0.002-0.079-0.007-0.188-0.009-0.327c0.135-0.578,0.336-0.889,0.608-0.935c0.02-0.004,0.04-0.005,0.06-0.005
		c0.283-0.009,0.551,0.173,0.803,0.541c0.189,0.312,0.288,0.598,0.295,0.855c0.037,1.308-0.143,3.633-0.536,6.973
		C168.745,190.076,168.453,191.839,168.268,192.16 M162.936,192.245c-0.015,0.002-0.025,0.005-0.035,0.005l-0.31,0.039l-0.311,0.009
		c-0.09,0.003-0.262,0.007-0.521,0.015c-0.259-0.013-0.427-0.019-0.507-0.016c-1.923,0.052-3.112-1.046-3.57-3.294
		c-0.042-0.731,0.128-1.488,0.501-2.273c0.209-0.323,0.419-0.656,0.629-0.997c0.3-0.485,0.794-0.955,1.476-1.408
		c0.664-0.444,1.308-0.718,1.932-0.823c0.164-0.028,0.323-0.044,0.483-0.047c0.316-0.01,0.666,0.079,1.05,0.268
		c0.481,0.225,0.727,0.525,0.735,0.9c0.018,0.615-0.373,1.351-1.171,2.205c-0.714,0.763-1.354,1.192-1.919,1.288
		c-0.067,0.012-0.135,0.02-0.201,0.021c0.002-0.001,0.002-0.001,0.004-0.001c0.025-0.005-0.307-0.116-0.993-0.329
		c-0.004-0.119-0.009-0.312-0.017-0.579c-0.008-0.268-0.014-0.439-0.015-0.52c-0.803,1.054-1.196,1.935-1.177,2.649
		c0.03,1.051,0.986,1.549,2.867,1.497c0.339-0.01,1.218-0.103,2.641-0.281l1.01-0.027l0.023,0.86
		c-0.195,0.047-0.697,0.209-1.504,0.49C163.432,192.104,163.062,192.224,162.936,192.245 M162.837,185.025
		c-1.315,0.473-2.189,1.071-2.627,1.796l0.504-0.013c0.841-0.52,1.267-0.788,1.286-0.809
		C162.486,185.669,162.766,185.345,162.837,185.025 M152.019,192.423c-0.043,0.007-0.086,0.012-0.129,0.014
		c-0.752,0.021-1.352-0.886-1.802-2.716c-0.314-1.28-0.485-2.535-0.52-3.765l-0.013-0.476c0.249-0.262,0.501-0.415,0.753-0.458
		c0.042-0.007,0.083-0.012,0.126-0.011c0.514-0.014,0.902,0.748,1.162,2.287c0.126,0.988,0.252,1.965,0.38,2.933
		c0.347-0.346,0.907-1.154,1.687-2.424c0.301-0.624,0.599-1.236,0.901-1.84c0.594-1.055,1.066-1.611,1.421-1.671
		c0.016-0.003,0.033-0.005,0.05-0.007c0.138-0.004,0.267,0.117,0.381,0.361c0.115,0.246,0.176,0.416,0.179,0.516
		c0.02,0.734-0.547,2.098-1.702,4.093C153.731,191.24,152.771,192.295,152.019,192.423 M133.235,193.16l-1.873,0.052
		c-0.138,0.004-0.45-0.146-0.935-0.45c-0.483-0.304-0.788-0.522-0.911-0.658l0.116-0.138l0.112-0.256
		c0.158-0.004,0.421-0.011,0.787-0.021c0.367-0.01,0.589-0.018,0.668-0.02c0.12-0.003,0.277-0.021,0.467-0.054
		c0.376-0.063,0.891-0.183,1.545-0.358c1.178-0.33,1.766-0.652,1.757-0.97c-0.006-0.258-0.276-0.687-0.81-1.287
		c-0.53-0.6-0.806-1.216-0.823-1.852c-0.018-0.634,0.468-1.36,1.457-2.179c0.826-0.663,1.535-1.042,2.121-1.142
		c0.087-0.015,0.174-0.022,0.254-0.025c0.259-0.008,0.461,0.142,0.607,0.445c0.147,0.304,0.195,0.615,0.147,0.933
		c-0.568,0.313-1.135,0.626-1.699,0.938c-0.821,0.479-1.226,0.896-1.216,1.253c0.006,0.198,0.311,0.696,0.917,1.492
		c0.606,0.796,0.917,1.382,0.928,1.76c0.008,0.336-0.459,0.819-1.403,1.45c-0.892,0.595-1.451,0.912-1.675,0.95
		c-0.016,0.002-0.027,0.005-0.037,0.006l-0.267,0.065L133.235,193.16 M121.694,194.946c-0.093,0.015-0.193,0.024-0.306,0.028
		c-0.397,0.011-0.714-0.686-0.951-2.086c-0.196-1.342-0.391-2.686-0.586-4.029c-0.339-1.496-0.829-2.315-1.468-2.458
		c-0.253,0.127-0.667,1.317-1.238,3.573c-0.569,2.247-0.895,3.374-0.976,3.388l0,0c-0.178,0.006-0.438-0.065-0.779-0.217l-0.052-1.9
		c-0.005-0.158,0.162-1.338,0.496-3.536c0.335-2.195,0.521-3.297,0.563-3.304l0,0l0.211,0.112l0.174,0.109
		c0.002-0.034,0.282-0.243,0.838-0.627c0.482-0.334,0.965-0.54,1.449-0.622c0.129-0.021,0.26-0.035,0.392-0.039
		c0.474-0.013,1.062,1.846,1.76,5.574c0.603,3.135,0.912,5.009,0.928,5.624l-0.054,0.21l-0.057,0.091
		C121.945,194.886,121.83,194.923,121.694,194.946 M116.789,184.634L116.789,184.634L116.789,184.634 M125.833,193.242
		c-0.011,0.002-0.021,0.004-0.032,0.003c-0.476,0.014-0.833,0.003-1.071-0.029c-0.063-0.098-0.099-0.336-0.11-0.711
		c0-0.041,0.152-0.781,0.46-2.229c0.306-1.445,0.446-2.308,0.419-2.583c-0.2-0.055-0.488-0.077-0.866-0.067
		c-0.177,0.006-0.476,0.015-0.891,0.026c-0.416,0.01-0.714,0.018-0.891,0.022c-1.03,0.028-1.554-0.251-1.57-0.843
		c-0.005-0.189,0.151-0.345,0.463-0.47c0.146-0.055,0.278-0.091,0.396-0.11c0.06-0.01,0.114-0.018,0.167-0.017
		c1.292,0.066,2.023,0.087,2.192,0.058c0.026-0.004,0.04-0.01,0.039-0.016c0-0.004,0.008-0.006,0.019-0.008
		c0.037-0.007,0.123-0.009,0.258-0.01c0.175-0.022,0.369-0.05,0.584-0.081c0.044,0.006,0.085,0.007,0.126,0
		c0.29-0.049,0.427-0.441,0.407-1.174c-0.009-0.338-0.064-0.88-0.164-1.633c-0.097-0.631-0.127-0.996-0.091-1.099
		c0.016-0.118,0.13-0.378,0.336-0.781c0.301-0.452,0.557-0.695,0.768-0.73c0.015-0.002,0.03-0.006,0.043-0.005
		c0.178-0.004,0.282,0.141,0.31,0.437c0.089,0.394,0.197,1.055,0.322,1.984c0.025,0.238,0.068,0.692,0.127,1.363
		c0.053,0.538,0.043,1.135-0.032,1.787c0.759,0.027,1.658,0.06,2.703,0.104c0.237-0.009,0.439,0.145,0.605,0.458
		c0.082,0.057,0.125,0.185,0.129,0.383c-0.011,0.158-0.037,0.241-0.078,0.247c-0.011,0.002-0.021,0-0.034-0.007
		c-0.219,0.168-0.473,0.279-0.761,0.327c-0.096,0.017-0.198,0.026-0.301,0.03c-0.276,0.007-0.689-0.047-1.238-0.16
		c-0.547-0.113-0.96-0.166-1.239-0.158c-0.337,2.13-0.523,3.285-0.557,3.464C126.474,192.448,126.158,193.188,125.833,193.242
		 M111.466,193.671c-0.014,0.002-0.024,0.002-0.033,0.004l-0.311,0.035l-0.312,0.011c-0.089,0.002-0.263,0.006-0.519,0.015
		c-0.259-0.015-0.427-0.019-0.505-0.017c-1.922,0.052-3.113-1.045-3.571-3.292c-0.041-0.732,0.128-1.49,0.501-2.275
		c0.21-0.321,0.417-0.655,0.627-0.997c0.304-0.485,0.797-0.956,1.478-1.409c0.663-0.444,1.307-0.718,1.929-0.823
		c0.163-0.028,0.324-0.043,0.485-0.047c0.317-0.009,0.667,0.08,1.048,0.267c0.48,0.225,0.728,0.525,0.739,0.902
		c0.017,0.614-0.375,1.348-1.173,2.202c-0.714,0.764-1.354,1.192-1.918,1.288c-0.068,0.012-0.135,0.019-0.202,0.02
		c0.001,0,0.001,0,0.001,0c0.027-0.005-0.303-0.115-0.991-0.329c-0.004-0.119-0.008-0.313-0.017-0.581
		c-0.005-0.266-0.012-0.438-0.014-0.518c-0.802,1.054-1.194,1.937-1.176,2.649c0.029,1.05,0.984,1.55,2.867,1.497
		c0.336-0.009,1.217-0.104,2.64-0.28l1.01-0.028l0.024,0.862c-0.196,0.044-0.7,0.206-1.503,0.486
		C111.961,193.53,111.595,193.649,111.466,193.671 M111.366,186.448c-1.314,0.473-2.19,1.074-2.627,1.797l0.507-0.013
		c0.838-0.519,1.266-0.788,1.285-0.81C111.018,187.093,111.296,186.768,111.366,186.448 M104.547,194.207
		c-0.066,0.011-0.129,0.018-0.19,0.021c-0.516,0.014-0.786-0.465-0.813-1.436c-0.083-0.097-0.113-1.563-0.091-4.398l-0.185-0.204
		c-0.019,0.021-0.415,0.795-1.184,2.323c-0.685,1.406-1.099,2.119-1.243,2.144c-0.003,0.001-0.005,0.001-0.007,0.001
		c-0.059,0.003-0.213-0.034-0.463-0.106c-0.249-0.072-0.434-0.106-0.554-0.104c-0.044-0.177-0.07-0.415-0.078-0.712
		c-0.011-0.354,0.015-1.072,0.074-2.143c0.06-1.074,0.083-1.875,0.067-2.41c-0.016-0.596-0.071-1.079-0.159-1.455l-0.185-0.201
		c-0.375,0.109-0.881,0.739-1.523,1.887c-0.265,0.484-0.596,1.771-0.993,3.864c-0.34,1.687-0.673,2.559-1.001,2.613
		c-0.009,0.001-0.019,0.002-0.027,0.001c-0.298,0.009-0.563-0.092-0.797-0.305c-0.234-0.211-0.354-0.466-0.362-0.764
		c-0.007-0.275,0.153-1.223,0.486-2.838c0.368-1.755,0.657-2.732,0.87-2.938l0.214,0.233c0.378-0.645,0.768-1.28,1.167-1.906
		c0.693-1.057,1.28-1.628,1.757-1.707c0.035-0.007,0.067-0.009,0.1-0.01c1.109-0.031,1.798,1.24,2.067,3.809
		c0.274-0.105,0.592-0.413,0.956-0.918c0.233-0.295,0.546-0.476,0.938-0.541c0.094-0.017,0.194-0.024,0.296-0.029
		c0.951-0.024,1.49,2.269,1.617,6.886c0.003,0.079-0.007,0.247-0.03,0.506c-0.022,0.258-0.041,0.456-0.057,0.596
		C104.975,194.092,104.753,194.173,104.547,194.207 M85.054,195.959c-0.092,0.016-0.195,0.026-0.309,0.028
		c-0.397,0.012-0.711-0.684-0.948-2.084c-0.195-1.343-0.392-2.687-0.586-4.029c-0.338-1.497-0.829-2.316-1.466-2.457
		c-0.256,0.127-0.668,1.318-1.239,3.574c-0.57,2.243-0.896,3.374-0.976,3.388c-0.001,0-0.001,0-0.001,0
		c-0.178,0.005-0.439-0.067-0.779-0.218l-0.053-1.9c-0.005-0.158,0.16-1.339,0.498-3.539c0.335-2.194,0.521-3.295,0.563-3.302l0,0
		l0.209,0.112l0.175,0.109c0.002-0.034,0.281-0.243,0.838-0.626c0.483-0.333,0.964-0.542,1.448-0.623
		c0.129-0.022,0.263-0.035,0.393-0.04c0.476-0.012,1.062,1.846,1.76,5.574c0.602,3.136,0.912,5.009,0.929,5.623l-0.053,0.21
		l-0.058,0.091C85.305,195.899,85.19,195.936,85.054,195.959 M80.149,185.646L80.149,185.646L80.149,185.646 M91.436,194.222
		c-0.012,0.002-0.023,0.005-0.031,0.005l-0.311,0.039l-0.312,0.009c-0.089,0.001-0.261,0.008-0.521,0.016
		c-0.258-0.014-0.426-0.02-0.506-0.019c-1.921,0.054-3.112-1.042-3.571-3.29c-0.039-0.732,0.128-1.492,0.502-2.274
		c0.21-0.324,0.418-0.657,0.627-0.999c0.302-0.485,0.795-0.954,1.477-1.408c0.664-0.442,1.307-0.718,1.93-0.822
		c0.164-0.028,0.326-0.045,0.486-0.048c0.317-0.01,0.666,0.08,1.048,0.267c0.482,0.227,0.729,0.527,0.738,0.901
		c0.018,0.614-0.374,1.351-1.173,2.206c-0.714,0.763-1.353,1.191-1.918,1.287c-0.068,0.012-0.135,0.018-0.202,0.02
		c0.001,0,0.001,0,0.002,0c0.027-0.005-0.303-0.115-0.993-0.33c-0.003-0.118-0.007-0.312-0.016-0.581
		c-0.007-0.266-0.013-0.439-0.016-0.519c-0.802,1.054-1.194,1.937-1.175,2.648c0.029,1.052,0.984,1.55,2.868,1.497
		c0.336-0.009,1.215-0.102,2.637-0.279l1.012-0.028l0.022,0.862c-0.197,0.046-0.698,0.208-1.503,0.487
		C91.935,194.084,91.567,194.2,91.436,194.222 M91.34,187.004c-1.316,0.471-2.192,1.071-2.627,1.796l0.505-0.014
		c0.838-0.52,1.266-0.787,1.286-0.81C90.99,187.646,91.268,187.321,91.34,187.004 M77.388,196.172
		c-0.092,0.016-0.194,0.025-0.306,0.028c-0.397,0.012-0.714-0.683-0.951-2.084c-0.195-1.342-0.391-2.687-0.587-4.029
		c-0.338-1.497-0.828-2.316-1.465-2.457c-0.254,0.127-0.667,1.316-1.239,3.573c-0.569,2.244-0.895,3.374-0.975,3.388h-0.001
		c-0.179,0.006-0.438-0.067-0.779-0.217l-0.052-1.9c-0.005-0.158,0.161-1.339,0.496-3.538c0.334-2.193,0.521-3.296,0.563-3.303l0,0
		l0.211,0.114l0.174,0.108c0.002-0.033,0.28-0.242,0.837-0.626c0.483-0.334,0.966-0.543,1.449-0.624
		c0.13-0.021,0.262-0.034,0.393-0.039c0.476-0.013,1.061,1.847,1.759,5.574c0.603,3.135,0.913,5.009,0.929,5.625l-0.054,0.209
		l-0.058,0.091C77.638,196.112,77.522,196.148,77.388,196.172 M72.482,185.858L72.482,185.858L72.482,185.858 M66.014,194.879
		c-0.098,0.017-0.187,0.027-0.27,0.029c-1.843,0.05-2.787-0.667-2.827-2.154c-0.018-0.672,0.437-1.716,1.37-3.13
		c0.723-1.109,1.5-2.112,2.327-3.007c1.014,0.11,1.851,0.621,2.511,1.535c0.618,0.835,0.94,1.769,0.969,2.799
		c0.015,0.535-0.071,1.023-0.258,1.463c-0.259,0.662-0.946,1.267-2.061,1.812C67.04,194.588,66.453,194.806,66.014,194.879
		 M67.242,188.269c-0.468,0.078-1.073,0.777-1.817,2.099c-0.784,1.391-1.121,2.312-1.009,2.765c0.341,0.149,0.649,0.229,0.928,0.242
		c0.431,0.008,0.82-0.018,1.167-0.075c0.708-0.12,1.243-0.379,1.604-0.774c0.463-0.508,0.708-1.299,0.738-2.371
		c-0.046-0.236-0.26-0.61-0.641-1.127c-0.38-0.515-0.679-0.769-0.898-0.762C67.291,188.262,67.266,188.265,67.242,188.269
		 M59.593,194.927c-0.012,0.002-0.024,0.003-0.036,0.004c-0.198,0.005-0.387-0.061-0.57-0.193c-0.183-0.133-0.276-0.271-0.279-0.408
		c-0.009-0.298,0.165-1.204,0.52-2.721c0.407-1.756,0.784-2.865,1.127-3.332c0.383,0.227,0.602,0.38,0.652,0.457
		c0.051,0.078,0.082,0.255,0.089,0.534c0.016,0.574-0.125,1.589-0.421,3.046C60.318,193.994,59.957,194.866,59.593,194.927
		 M48.828,196.083c-0.031,0.005-0.061,0.009-0.094,0.01c-0.713,0.018-1.276-0.669-1.691-2.064c-0.141-0.729-0.28-1.45-0.418-2.161
		c-1.826,2.245-3.461,3.489-4.902,3.733c-0.148,0.025-0.292,0.039-0.437,0.042c-0.436,0.014-0.863-0.168-1.278-0.544
		c-0.417-0.374-0.631-0.778-0.644-1.216c-0.049-1.744,0.901-3.297,2.844-4.659c1.349-0.924,2.745-1.506,4.188-1.749
		c0.494-0.084,0.994-0.129,1.499-0.133l0.246,0.232l0.01,0.385l0,0c-0.026,0.005-0.308,0.181-0.847,0.528
		c0.181,0.096,0.362,0.181,0.542,0.254c0.081,0.04,0.151,0.086,0.211,0.134c0-0.005,0-0.009,0-0.016
		c-0.006-0.189,0.149-0.348,0.462-0.47c0.145-0.054,0.277-0.092,0.396-0.111c0.058-0.011,0.113-0.016,0.164-0.018
		c1.295,0.067,2.025,0.087,2.195,0.058c0.024-0.004,0.039-0.009,0.038-0.017c0-0.002,0.005-0.004,0.019-0.006
		c0.037-0.006,0.123-0.01,0.258-0.01c0.173-0.023,0.368-0.05,0.582-0.08c0.045,0.004,0.087,0.004,0.126-0.002
		c0.291-0.05,0.428-0.44,0.408-1.174c-0.009-0.336-0.064-0.878-0.165-1.63c-0.097-0.633-0.127-0.998-0.089-1.1
		c0.016-0.119,0.126-0.38,0.334-0.782c0.303-0.452,0.558-0.695,0.769-0.73c0.014-0.003,0.029-0.004,0.043-0.005
		c0.178-0.007,0.281,0.141,0.309,0.437c0.09,0.396,0.199,1.056,0.322,1.985c0.026,0.236,0.069,0.692,0.127,1.364
		c0.054,0.537,0.043,1.133-0.031,1.788c0.757,0.024,1.659,0.061,2.701,0.1c0.237-0.005,0.441,0.15,0.608,0.461
		c0.08,0.057,0.124,0.187,0.129,0.383c-0.011,0.16-0.038,0.244-0.079,0.251c-0.011,0.002-0.021-0.002-0.033-0.01
		c-0.219,0.17-0.472,0.279-0.762,0.328c-0.096,0.017-0.196,0.028-0.3,0.029c-0.278,0.008-0.691-0.045-1.238-0.158
		c-0.549-0.113-0.961-0.167-1.239-0.159c-0.338,2.132-0.523,3.285-0.558,3.466c-0.307,1.428-0.623,2.17-0.948,2.225
		c-0.011,0.002-0.021,0.002-0.034,0.002c-0.474,0.015-0.832,0.005-1.07-0.029c-0.062-0.097-0.098-0.334-0.109-0.711
		c0-0.04,0.152-0.782,0.459-2.229c0.306-1.445,0.448-2.306,0.42-2.584c-0.2-0.054-0.49-0.073-0.866-0.064
		c-0.177,0.005-0.474,0.014-0.89,0.024c-0.417,0.012-0.714,0.019-0.892,0.023c-0.631,0.019-1.074-0.08-1.325-0.299
		c-0.012,0.141-0.042,0.541-0.092,1.2c-0.064,0.874-0.094,1.448-0.086,1.728c0.016,0.555,0.141,1.166,0.378,1.833
		c0.259,0.767,0.571,1.273,0.933,1.521C49.237,195.916,49.034,196.048,48.828,196.083 M46.565,188.598
		c-0.432,0.171-0.873,0.347-1.325,0.528c-0.45,0.182-1.065,0.521-1.845,1.016c-0.468,0.312-0.97,0.762-1.51,1.353
		c-0.827,0.914-1.23,1.739-1.209,2.472c0.004,0.157,0.097,0.314,0.28,0.468l0.165-0.006l0.311-0.007
		c0.067-0.003,0.135-0.009,0.208-0.021c0.569-0.096,1.301-0.519,2.196-1.267c0.853-0.736,1.527-1.45,2.023-2.137
		c0.323-0.505,0.554-0.941,0.692-1.313c0.14-0.372,0.272-0.736,0.4-1.098L46.565,188.598 M32.969,195.812
		c-0.01,0.002-0.022,0.004-0.032,0.005c-0.476,0.013-0.833,0.003-1.072-0.031c-0.062-0.096-0.099-0.334-0.109-0.712
		c-0.001-0.039,0.152-0.78,0.458-2.227c0.308-1.445,0.448-2.307,0.42-2.585c-0.2-0.053-0.488-0.076-0.865-0.065
		c-0.179,0.006-0.476,0.013-0.891,0.025c-0.416,0.011-0.713,0.019-0.893,0.023c-1.029,0.028-1.552-0.252-1.569-0.843
		c-0.005-0.191,0.151-0.347,0.463-0.468c0.146-0.056,0.276-0.094,0.397-0.114c0.058-0.009,0.113-0.016,0.165-0.018
		c1.295,0.068,2.023,0.088,2.194,0.059c0.024-0.004,0.038-0.008,0.037-0.014c0.001-0.002,0.008-0.005,0.021-0.008
		c0.036-0.005,0.121-0.01,0.256-0.012c0.173-0.021,0.369-0.049,0.583-0.079c0.044,0.007,0.087,0.005,0.127-0.002
		c0.291-0.049,0.427-0.439,0.407-1.173c-0.009-0.335-0.064-0.879-0.164-1.631c-0.098-0.63-0.127-0.997-0.091-1.098
		c0.017-0.119,0.128-0.38,0.334-0.781c0.303-0.453,0.558-0.698,0.768-0.733c0.014-0.002,0.029-0.004,0.044-0.004
		c0.177-0.005,0.282,0.142,0.31,0.436c0.089,0.396,0.197,1.059,0.323,1.984c0.026,0.239,0.068,0.691,0.126,1.366
		c0.055,0.537,0.043,1.133-0.031,1.786c0.757,0.026,1.657,0.06,2.701,0.102c0.238-0.008,0.44,0.147,0.608,0.46
		c0.079,0.058,0.122,0.184,0.129,0.383c-0.013,0.159-0.039,0.241-0.08,0.249c-0.011,0.002-0.022-0.002-0.033-0.009
		c-0.218,0.169-0.472,0.278-0.761,0.327c-0.097,0.017-0.196,0.027-0.301,0.029c-0.277,0.009-0.691-0.044-1.238-0.159
		c-0.548-0.114-0.962-0.168-1.238-0.158c-0.338,2.131-0.524,3.284-0.558,3.465C33.61,195.017,33.293,195.758,32.969,195.812
		 M24.203,196.176l-1.872,0.051c-0.139,0.004-0.451-0.146-0.935-0.45c-0.484-0.302-0.787-0.521-0.911-0.657l0.114-0.14l0.113-0.255
		c0.158-0.005,0.421-0.012,0.786-0.021c0.368-0.011,0.591-0.016,0.67-0.02c0.121-0.002,0.276-0.021,0.468-0.053
		c0.375-0.064,0.89-0.183,1.542-0.358c1.18-0.332,1.767-0.655,1.756-0.972c-0.005-0.258-0.275-0.687-0.808-1.286
		c-0.532-0.601-0.807-1.218-0.824-1.852c-0.018-0.633,0.467-1.361,1.457-2.181c0.827-0.661,1.534-1.041,2.122-1.14
		c0.086-0.015,0.171-0.022,0.254-0.025c0.258-0.008,0.46,0.14,0.606,0.443c0.148,0.304,0.197,0.615,0.146,0.934
		c-0.567,0.312-1.132,0.626-1.698,0.939c-0.82,0.478-1.225,0.896-1.214,1.253c0.004,0.197,0.312,0.694,0.918,1.49
		c0.606,0.798,0.915,1.384,0.926,1.761c0.009,0.336-0.459,0.82-1.403,1.45c-0.893,0.596-1.449,0.912-1.677,0.95
		c-0.013,0.003-0.024,0.004-0.037,0.004l-0.266,0.066L24.203,196.176 M61.788,184.163c-0.48-0.126-0.725-0.446-0.739-0.962
		c-0.011-0.357,0.059-0.686,0.211-0.987c0.18-0.333,0.418-0.525,0.713-0.575c0.043-0.008,0.087-0.012,0.133-0.014
		c0.593-0.017,0.9,0.292,0.917,0.927c0.004,0.139-0.163,0.422-0.498,0.847C62.189,183.823,61.945,184.079,61.788,184.163"/>
	<path fill="#7B7B7B" d="M160.516,182.67l-0.259-0.156l-0.172-0.337c-0.002-0.059,0.571-0.963,1.726-2.709
		c1.148-1.743,1.733-2.617,1.755-2.622l0,0c0.277-0.007,0.55,0.185,0.818,0.574c0.207,0.312,0.313,0.556,0.317,0.733
		c0.02,0.672-0.562,1.532-1.744,2.577C162.145,181.366,161.33,182.014,160.516,182.67"/>
</g>
</svg>
