<?xml version="1.0" encoding="utf-8"?>
<!-- Generator: Adobe Illustrator 16.0.4, SVG Export Plug-In . SVG Version: 6.00 Build 0)  -->
<!DOCTYPE svg PUBLIC "-//W3C//DTD SVG 1.1//EN" "http://www.w3.org/Graphics/SVG/1.1/DTD/svg11.dtd">
<svg version="1.1" id="Calque_2" xmlns="http://www.w3.org/2000/svg" xmlns:xlink="http://www.w3.org/1999/xlink" x="0px" y="0px"
	 width="435px" height="300px" viewBox="-55 -37.5 435 300" enable-background="new -55 -37.5 435 300" xml:space="preserve">
<g>
	<g>
		<g>
			<g>
				<path fill="#909090" d="M70.043,97.719l5.276-3.686l5.369,54.524l0.079-0.011l5.657-62.664l6.187-4.773v82.405l-3.721,0.113
					V94.039l-0.083,0.057l-6.367,69.693l-3.392,0.073l-5.825-59.72l-0.071,0.044v59.771l-3.107,0.039L70.043,97.719L70.043,97.719z"
					/>
			</g>
			<g>
				<path fill="#909090" d="M119.998,110.146c0,26.302-1.77,54.283-11.862,54.624c-9.3,0.242-10.791-22.736-10.791-44.419
					c0-21.685,1.49-45.917,10.791-53.802C118.226,57.561,119.998,83.841,119.998,110.146z M101.541,118.562
					c0,20.633,0.75,37.308,6.594,36.675c6.152-0.703,6.979-19.612,6.979-42.78c0-23.164-0.828-41.299-6.979-36.378
					C102.29,80.609,101.541,97.929,101.541,118.562z"/>
			</g>
		</g>
		<g>
			<g>
				<path fill="#AFC631" d="M161.918,76.771l-7.304-2.896l-16.739,73.591l-0.155-0.014V67.178l-6.879-2.728v98.827l9.371,0.093
					l15.979-71.913l0.132,0.047v72.024l5.597,0.055V76.771L161.918,76.771z"/>
			</g>
		</g>
		<g>
			<path fill="#B2B2B3" d="M70.321,89.124c-0.427,0-0.846-0.202-1.105-0.579c-0.417-0.608-0.263-1.438,0.347-1.854l52.312-35.734
				c0.371-0.253,0.844-0.303,1.262-0.135l40.355,16.377c0.685,0.277,1.013,1.056,0.734,1.739c-0.279,0.68-1.062,1.008-1.745,0.732
				l-39.687-16.107L71.076,88.889C70.846,89.048,70.583,89.124,70.321,89.124z"/>
		</g>
		<g>
			<path fill="#B2B2B3" d="M256.028,166.548c-0.74,0-1.339-0.598-1.339-1.333v-59.871l-43.169-22.768l-43.491,19.828
				c-0.672,0.309-1.467,0.014-1.775-0.657c-0.306-0.669-0.012-1.461,0.662-1.767l44.091-20.101c0.379-0.174,0.815-0.16,1.183,0.033
				l44.466,23.451c0.437,0.23,0.711,0.684,0.711,1.179v60.673C257.366,165.95,256.768,166.548,256.028,166.548z"/>
		</g>
		<g>
			<g>
				<path d="M171.3,110.509l-3.401,1.364v-4.719l10.574-4.625v5.107l-3.43,1.373v22.771l-3.743,0.872V110.509z"/>
			</g>
			<g>
				<path d="M180.449,102.093c1.171-0.854,2.656-1.722,4.086-2.348c2.058-0.902,3.916-1.263,5.145,0.025
					c1.171,1.206,1.544,3.125,1.544,5.801c0,3.317-1.028,6.661-2.974,8.722v0.092c1.314,0.432,1.974,2.141,2.345,5.375
					c0.371,3.345,0.887,7.036,1.229,8.111l-3.916,0.912c-0.256-0.795-0.685-3.745-0.975-7.026c-0.343-3.612-0.941-4.495-2.171-4.109
					l-0.571,0.18v11.82l-3.744,0.872L180.449,102.093L180.449,102.093z M184.192,113.39l0.688-0.237
					c1.626-0.563,2.541-2.946,2.541-5.595c0-2.606-0.656-4.137-2.313-3.549c-0.346,0.14-0.716,0.333-0.917,0.547L184.192,113.39
					L184.192,113.39z"/>
			</g>
			<g>
				<path d="M196.942,119.315l-0.859,7.562l-3.63,0.846l4.174-33.132l4.487-1.961l3.746,32.201l-3.658,0.853l-0.802-7.337
					L196.942,119.315z M200.059,113.471l-0.629-6.652c-0.2-1.919-0.456-5.118-0.629-7.18l-0.086,0.033
					c-0.196,2.253-0.486,5.688-0.686,7.64l-0.716,7.009L200.059,113.471z"/>
			</g>
			<g>
				<path d="M171.398,163.452l-3.793-23.215l3.664-0.662l1.212,10.186c0.279,2.586,0.635,5.505,0.862,8.33l0.05-0.002
					c0.228-2.894,0.507-5.836,0.808-8.615l1.161-10.638l3.643-0.657l-3.894,25.273H171.398L171.398,163.452z"/>
			</g>
			<g>
				<path d="M182.755,157.523l-0.758,5.929h-3.211l3.691-25.9l3.974-0.717l3.312,26.617h-3.236l-0.709-6.057L182.755,157.523z
					 M185.511,153.406l-0.558-5.472c-0.178-1.583-0.405-4.208-0.557-5.9l-0.078,0.013c-0.176,1.776-0.426,4.484-0.602,6.02
					l-0.635,5.509L185.511,153.406z"/>
			</g>
			<g>
				<path d="M194.945,135.3v28.152h-3.315v-27.555L194.945,135.3z"/>
			</g>
			<g>
				<path d="M197.904,134.765l3.312-0.601v24.466l4.347-0.13v4.952h-7.659V134.765z"/>
			</g>
		</g>
		<g>
			<path fill="#B2B2B3" d="M271.724,168.781H115.535c-0.739,0-1.339-0.597-1.339-1.333s0.6-1.334,1.339-1.334h156.188
				c0.737,0,1.339,0.598,1.339,1.334S272.461,168.781,271.724,168.781z"/>
		</g>
		<g>
			<path fill="#B2B2B3" d="M209.195,165.805c-0.74,0-1.339-0.599-1.339-1.333V82.873c0-0.736,0.599-1.333,1.339-1.333
				c0.739,0,1.338,0.598,1.338,1.333v81.596C210.533,165.206,209.932,165.805,209.195,165.805z"/>
		</g>
	</g>
</g>
</svg>
