<?xml version="1.0" encoding="utf-8"?>
<!-- Generator: Adobe Illustrator 16.0.4, SVG Export Plug-In . SVG Version: 6.00 Build 0)  -->
<!DOCTYPE svg PUBLIC "-//W3C//DTD SVG 1.1//EN" "http://www.w3.org/Graphics/SVG/1.1/DTD/svg11.dtd">
<svg version="1.1" id="Calque_1" xmlns="http://www.w3.org/2000/svg" xmlns:xlink="http://www.w3.org/1999/xlink" x="0px" y="0px"
	 width="325px" height="225px" viewBox="0 0 325 225" enable-background="new 0 0 325 225" xml:space="preserve">
<g>
	<path fill="#7B7B7B" d="M182.779,131.527c-0.062-0.032-0.125-0.137-0.182-0.312c-0.057-0.175-0.052-0.328,0.014-0.456
		c0.031-0.062,1.156-0.686,3.375-1.866c2.201-1.17,3.318-1.756,3.361-1.756h0.002c0.295,0.151,0.475,0.51,0.534,1.072
		c0.038,0.448,0.011,0.77-0.086,0.959c-0.37,0.723-1.478,1.293-3.321,1.717C185.25,131.088,184.018,131.303,182.779,131.527"/>
	<path fill="#7B7B7B" d="M279.596,167.342c-0.064-0.031-0.123-0.139-0.181-0.311c-0.06-0.178-0.056-0.33,0.01-0.458
		c0.034-0.063,1.158-0.687,3.378-1.866c2.198-1.171,3.319-1.756,3.359-1.756l0,0c0.297,0.15,0.477,0.51,0.536,1.072
		c0.038,0.449,0.009,0.77-0.089,0.959c-0.365,0.724-1.475,1.293-3.318,1.716C282.064,166.902,280.833,167.117,279.596,167.342"/>
	<g>
		<path fill="#7B7B7B" d="M268.421,201.601c-0.048,0-0.08-0.002-0.101-0.01l-0.398-0.039l-0.389-0.08
			c-0.114-0.023-0.329-0.069-0.65-0.135c-0.313-0.089-0.525-0.145-0.626-0.165c-2.394-0.488-3.556-2.191-3.479-5.112
			c0.163-0.919,0.59-1.812,1.281-2.677c0.353-0.336,0.707-0.689,1.066-1.055c0.517-0.515,1.262-0.954,2.238-1.323
			c0.835-0.313,1.616-0.473,2.34-0.473c0.312,0,0.615,0.03,0.907,0.09c0.396,0.08,0.803,0.289,1.224,0.635
			c0.534,0.417,0.752,0.861,0.656,1.331c-0.154,0.768-0.854,1.565-2.089,2.396c-1.044,0.697-1.919,1.047-2.628,1.047
			c-0.132,0-0.258-0.014-0.379-0.035h0.003c0.028,0-0.351-0.231-1.138-0.691c0.031-0.152,0.08-0.394,0.147-0.728
			c0.064-0.333,0.11-0.551,0.133-0.646c-1.303,1.074-2.044,2.056-2.222,2.947c-0.271,1.311,0.771,2.205,3.123,2.684
			c0.42,0.082,1.538,0.222,3.354,0.411l1.265,0.256l-0.22,1.076c-0.003,0-0.006,0-0.006,0c-0.261,0-0.927,0.06-2.002,0.172
			C269.101,201.557,268.63,201.601,268.421,201.601 M270.32,192.612c-1.766,0.207-3.024,0.695-3.776,1.471l0.631,0.13
			c1.188-0.402,1.801-0.613,1.83-0.634C269.703,193.312,270.143,192.99,270.32,192.612 M254.418,198.612
			c-0.447-0.093-0.854-0.296-1.227-0.617c-0.373-0.321-0.524-0.652-0.457-1.001c0.452-2.202,1.196-4.046,2.247-5.532
			c1.24-1.719,2.722-2.575,4.444-2.575c0.376,0,0.759,0.039,1.155,0.123c1.682,0.34,2.612,1.029,2.786,2.069l-0.455,0.335
			c-0.211,0.156-0.383,0.232-0.522,0.232c-0.023,0-0.047,0-0.064-0.002c-0.101-0.024-0.432-0.136-0.993-0.34
			c-0.567-0.205-0.896-0.319-0.995-0.337c-0.311-0.066-0.604-0.095-0.884-0.095c-1.846,0-3.048,1.376-3.609,4.123
			c-0.041,0.201-0.163,0.523-0.371,0.97s-0.341,0.819-0.4,1.116c-0.076,0.372-0.081,0.771-0.012,1.197l-0.284,0.249L254.418,198.612
			 M245.221,197.765c-0.059,0-0.117-0.005-0.172-0.019c-0.891-0.181-1.392-1.195-1.504-3.048c0.038-0.944,0.072-1.88,0.106-2.8
			c-2.775,2.148-5.068,3.226-6.887,3.226c-0.289,0-0.562-0.027-0.824-0.082c-0.546-0.11-1.021-0.457-1.431-1.044
			c-0.409-0.584-0.56-1.149-0.445-1.693c0.441-2.177,2.067-3.828,4.873-4.957c1.686-0.659,3.338-0.988,4.968-0.988
			c0.887,0,1.761,0.097,2.63,0.292l0.235,0.359l-0.099,0.48l0,0c-0.039,0-0.442,0.137-1.201,0.411
			c0.195,0.173,0.397,0.327,0.597,0.471c0.333,0.273,0.466,0.571,0.401,0.895c0-0.003,0-0.003,0-0.003
			c-0.004,0-0.168,0.508-0.487,1.525c-0.332,1.066-0.529,1.773-0.601,2.12c-0.144,0.689-0.162,1.486-0.061,2.383
			c0.098,1.024,0.34,1.742,0.72,2.155C245.745,197.66,245.471,197.765,245.221,197.765 M244.519,187.824
			c-0.586,0.088-1.182,0.18-1.797,0.271c-0.61,0.099-1.474,0.341-2.581,0.733c-0.668,0.249-1.423,0.662-2.261,1.239
			c-1.29,0.897-2.029,1.801-2.216,2.717c-0.041,0.198,0.031,0.422,0.216,0.662l0.203,0.041l0.388,0.082
			c0.127,0.024,0.259,0.037,0.403,0.037c0.723,0,1.706-0.313,2.95-0.938c1.271-0.672,2.311-1.36,3.128-2.07
			c0.543-0.53,0.956-1.011,1.232-1.427c0.279-0.422,0.551-0.838,0.817-1.249L244.519,187.824 M247.521,197.126
			c-0.02,0-0.046-0.005-0.065-0.008c-0.246-0.052-0.464-0.185-0.648-0.403c-0.19-0.218-0.267-0.416-0.23-0.589
			c0.076-0.367,0.551-1.445,1.429-3.224c1.012-2.061,1.797-3.333,2.357-3.813c0.411,0.396,0.636,0.648,0.679,0.758
			c0.04,0.113,0.027,0.341-0.044,0.689c-0.144,0.717-0.612,1.935-1.399,3.656C248.684,196.146,247.993,197.126,247.521,197.126
			 M229.812,193.835l-0.571-0.113c-0.91-0.16-1.291-0.613-1.142-1.356c0.021-0.097,0.49-1.291,1.413-3.576
			c0.962-2.379,1.525-3.817,1.689-4.311c0.161-0.495,0.619-2.029,1.375-4.608c0.258-0.9,0.386-1.399,0.382-1.505
			c0.019-0.101,0.044-0.236,0.082-0.409c0.322-0.657,0.653-0.985,0.993-0.985c0.036,0,0.072,0.004,0.108,0.012
			c0.354,0.072,0.632,0.374,0.838,0.905c0.145,0.441,0.188,0.821,0.118,1.145c-0.328,1.633-1.225,4.465-2.674,8.495
			C231.006,191.39,230.132,193.488,229.812,193.835 M221.985,192.06c-0.222,0-0.413-0.016-0.578-0.05
			c-2.298-0.469-3.26-1.63-2.884-3.484c0.175-0.84,1.042-2.006,2.604-3.489c1.218-1.169,2.469-2.19,3.751-3.062
			c1.229,0.432,2.119,1.306,2.675,2.629c0.523,1.215,0.655,2.467,0.396,3.754c-0.139,0.667-0.383,1.247-0.741,1.742
			c-0.515,0.744-1.538,1.295-3.08,1.65C223.244,191.956,222.529,192.06,221.985,192.06 M225.137,184.207
			c-0.604,0-1.54,0.691-2.814,2.078c-1.37,1.498-2.055,2.544-2.046,3.137c0.38,0.286,0.743,0.473,1.082,0.57
			c0.667,0.167,1.271,0.25,1.807,0.25c0.758,0,1.383-0.168,1.877-0.51c0.719-0.496,1.251-1.405,1.598-2.725
			c0.013-0.305-0.147-0.834-0.47-1.585c-0.321-0.744-0.624-1.15-0.893-1.204C225.231,184.211,225.187,184.207,225.137,184.207
			 M213.799,190.402c-0.96,0-1.863-0.087-2.712-0.259c-1.386-0.282-2.672-0.8-3.856-1.559c-1.808-1.114-2.561-2.412-2.26-3.896
			c0.129-0.62,1.323-1.767,3.599-3.443c2.168-1.568,3.763-2.353,4.78-2.353c0.116,0,0.228,0.011,0.328,0.034
			c0.593,0.119,1.044,0.463,1.355,1.027c0.312,0.563,0.401,1.167,0.27,1.812c-0.096,0.469-0.283,0.883-0.562,1.239
			c-0.276,0.367-0.554,0.551-0.83,0.551c-0.043,0-0.085-0.004-0.131-0.015c-0.493-0.097-0.783-0.389-0.864-0.869
			c-0.067-0.298-0.037-0.706,0.093-1.218c0.108-0.416,0.152-0.628,0.13-0.632c-0.067-0.015-0.14-0.02-0.215-0.02
			c-0.754,0-1.888,0.681-3.405,2.042c-1.672,1.505-2.51,2.523-2.515,3.063c0.309,0.372,0.812,0.784,1.507,1.235
			c0.694,0.45,1.277,0.724,1.744,0.818c0.25,0.051,1.191,0.244,2.818,0.572c0.949,0.169,2.451,0.499,4.517,0.993
			c-0.467,0.504-1.45,0.786-2.957,0.852C214.35,190.396,214.073,190.402,213.799,190.402 M197.34,187.269l-2.34-0.476
			c-0.174-0.036-0.515-0.31-1.03-0.827c-0.514-0.52-0.823-0.879-0.938-1.08l0.185-0.138l0.21-0.287
			c0.199,0.042,0.527,0.109,0.984,0.199c0.46,0.095,0.734,0.151,0.835,0.171c0.298,0.062,0.783,0.092,1.458,0.092
			c0.336,0,0.725-0.007,1.156-0.024c1.562-0.067,2.378-0.303,2.458-0.694c0.066-0.321-0.145-0.932-0.631-1.83
			c-0.488-0.898-0.65-1.741-0.488-2.535c0.157-0.791,0.97-1.552,2.434-2.285c1.126-0.54,2.057-0.809,2.788-0.809
			c0.179,0,0.342,0.015,0.496,0.046c0.321,0.064,0.528,0.311,0.627,0.728c0.092,0.418,0.066,0.818-0.089,1.198
			c-0.794,0.226-1.585,0.45-2.381,0.675c-1.153,0.359-1.776,0.758-1.868,1.202c-0.048,0.25,0.188,0.954,0.711,2.119
			c0.523,1.162,0.736,1.978,0.643,2.449c-0.086,0.419-0.807,0.887-2.161,1.397c-1.229,0.465-2.005,0.696-2.318,0.696
			c-0.032,0-0.06,0-0.082-0.01l-0.35,0.01L197.34,187.269 M253.329,184.399c-0.559-0.292-0.773-0.76-0.642-1.405
			c0.091-0.444,0.274-0.832,0.546-1.16c0.304-0.344,0.63-0.51,0.984-0.51c0.078,0,0.156,0.005,0.235,0.024
			c0.743,0.15,1.034,0.618,0.871,1.41c-0.033,0.175-0.323,0.475-0.859,0.909C253.927,184.1,253.546,184.343,253.329,184.399"/>
		<path fill="#7B7B7B" d="M282.107,182.188c-0.051,0-0.088,0-0.109-0.006c-0.119-0.023-0.262-0.039-0.424-0.045
			c-0.159-0.031-0.297-0.061-0.417-0.084c-0.121-0.023-0.353-0.07-0.694-0.142c-0.339-0.097-0.562-0.154-0.667-0.179
			c-2.565-0.521-3.806-2.342-3.723-5.465c0.173-0.985,0.629-1.938,1.368-2.863c0.377-0.361,0.757-0.739,1.141-1.131
			c0.551-0.549,1.35-1.021,2.395-1.412c0.892-0.338,1.727-0.506,2.498-0.506c0.334,0,0.658,0.031,0.973,0.096
			c0.423,0.086,0.859,0.312,1.309,0.68c0.569,0.447,0.803,0.921,0.699,1.424c-0.166,0.819-0.909,1.674-2.232,2.561
			c-1.115,0.746-2.052,1.121-2.809,1.121c-0.145,0-0.279-0.014-0.406-0.041c0,0,0,0,0.002,0c0.032,0-0.374-0.246-1.215-0.739
			c0.029-0.16,0.084-0.42,0.158-0.774c0.07-0.355,0.117-0.59,0.14-0.695c-1.392,1.15-2.182,2.201-2.378,3.152
			c-0.283,1.404,0.83,2.358,3.342,2.87c0.45,0.093,1.646,0.238,3.59,0.441l1.347,0.274l-0.231,1.148c-0.002,0-0.004,0-0.006,0
			c-0.279,0-0.99,0.062-2.139,0.184C282.831,182.146,282.328,182.188,282.107,182.188 M284.139,172.58
			c-1.893,0.22-3.236,0.745-4.039,1.574l0.676,0.137c1.27-0.43,1.92-0.654,1.955-0.678
			C283.475,173.325,283.945,172.98,284.139,172.58 M266.938,179.068c-0.023,0-0.045-0.002-0.065-0.004
			c-0.636-0.129-1.104-0.252-1.412-0.371c-0.054-0.147-0.026-0.473,0.075-0.978c0.011-0.051,0.441-0.989,1.294-2.812
			c0.853-1.824,1.304-2.924,1.354-3.301c-0.248-0.131-0.625-0.25-1.127-0.353c-0.236-0.049-0.634-0.129-1.189-0.242
			c-0.557-0.112-0.951-0.192-1.189-0.243c-1.375-0.279-1.984-0.811-1.824-1.6c0.054-0.255,0.306-0.415,0.763-0.482
			c0.153-0.02,0.294-0.029,0.425-0.029c0.134,0,0.253,0.011,0.359,0.031c1.744,0.504,2.715,0.756,2.91,0.756
			c0.021,0,0.035-0.004,0.035-0.01s0.006-0.007,0.019-0.007c0.041,0,0.161,0.022,0.354,0.067c0.237,0.021,0.504,0.048,0.799,0.07
			c0.067,0.027,0.135,0.039,0.196,0.039c0.386,0,0.679-0.477,0.872-1.432c0.09-0.449,0.188-1.188,0.284-2.215
			c0.065-0.867,0.14-1.362,0.221-1.484c0.058-0.152,0.286-0.463,0.685-0.934c0.522-0.489,0.928-0.734,1.216-0.734
			c0.03,0,0.062,0.002,0.091,0.008c0.236,0.049,0.33,0.274,0.275,0.678c-0.002,0.55-0.063,1.46-0.185,2.729
			c-0.04,0.321-0.124,0.938-0.253,1.849c-0.094,0.73-0.292,1.518-0.592,2.361c0.994,0.268,2.182,0.592,3.552,0.969
			c0.313,0.063,0.536,0.328,0.663,0.797c0.088,0.098,0.107,0.281,0.055,0.546c-0.062,0.204-0.125,0.309-0.182,0.309
			c-0.014,0-0.027-0.007-0.042-0.021c-0.297,0.135-0.612,0.201-0.952,0.201c-0.183,0-0.369-0.018-0.564-0.056
			c-0.373-0.075-0.901-0.274-1.594-0.594c-0.693-0.321-1.224-0.519-1.595-0.595c-1.106,2.723-1.707,4.199-1.81,4.427
			C268.025,178.186,267.383,179.068,266.938,179.068 M258.094,177.062c-0.023,0-0.047,0-0.07-0.006
			c-0.264-0.054-0.496-0.195-0.694-0.431c-0.202-0.233-0.282-0.442-0.246-0.629c0.081-0.396,0.591-1.545,1.528-3.449
			c1.082-2.202,1.924-3.562,2.522-4.071c0.438,0.42,0.679,0.689,0.724,0.808s0.029,0.366-0.045,0.735
			c-0.156,0.767-0.658,2.068-1.498,3.91C259.336,176.02,258.596,177.062,258.094,177.062 M253.238,176.413l-0.606-0.123
			c-0.975-0.169-1.382-0.651-1.22-1.446c0.02-0.104,0.521-1.379,1.507-3.822c1.03-2.547,1.633-4.082,1.81-4.611
			c0.174-0.527,0.664-2.172,1.467-4.928c0.277-0.963,0.416-1.5,0.41-1.61c0.021-0.104,0.052-0.251,0.088-0.437
			c0.348-0.703,0.699-1.053,1.063-1.053c0.038,0,0.076,0.004,0.116,0.012c0.377,0.076,0.674,0.398,0.896,0.967
			c0.156,0.473,0.198,0.883,0.129,1.225c-0.355,1.747-1.31,4.773-2.864,9.085C254.516,173.797,253.586,176.044,253.238,176.413
			 M246.271,174.659c-0.024,0-0.047-0.002-0.069-0.007c-0.265-0.053-0.497-0.196-0.696-0.432c-0.201-0.232-0.281-0.443-0.246-0.629
			c0.082-0.396,0.592-1.547,1.529-3.447c1.082-2.203,1.923-3.562,2.523-4.074c0.438,0.422,0.679,0.689,0.725,0.811
			c0.042,0.119,0.027,0.364-0.047,0.732c-0.157,0.768-0.656,2.072-1.498,3.91C247.514,173.613,246.773,174.659,246.271,174.659
			 M241.336,173.96c-0.109,0-0.214-0.01-0.314-0.03l-1.109-0.227c-2.09-0.428-3.449-1.403-4.071-2.938l0.595,0.123
			c0.055-0.266-0.064-0.428-0.354-0.486c0.272-0.137,0.542-0.37,0.804-0.703c0.613,0.646,1.5,1.09,2.663,1.326
			c0.591,0.119,1.104,0.181,1.544,0.181c1.121,0,1.764-0.39,1.922-1.169c0.09-0.449,0.016-1.234-0.223-2.359
			c-0.294-1.271-0.678-1.953-1.152-2.051c-0.065-0.014-0.133-0.021-0.201-0.021c-0.899,0-1.903,1.207-3.01,3.621l-1.072-0.218
			c-0.584-0.118-0.793-0.905-0.635-2.358c0.12-0.994,0.25-1.976,0.391-2.937l2.791-8.854l0.176-0.045
			c0.048-0.021,0.105-0.029,0.175-0.029c0.06,0,0.125,0.007,0.2,0.021c0.316,0.063,0.572,0.262,0.766,0.59
			c0.196,0.33,0.262,0.651,0.196,0.971l-2.179,7.447l0.152,0.277c0.336-0.544,0.892-0.818,1.666-0.818
			c0.266,0,0.559,0.031,0.877,0.097c1.242,0.254,2.137,1.481,2.68,3.687c0.416,1.735,0.533,3.068,0.346,3.996
			c-0.163,0.791-0.707,1.502-1.632,2.125C242.55,173.699,241.889,173.96,241.336,173.96 M228.766,171.238
			c-0.236,0-0.438-0.018-0.613-0.053c-2.461-0.5-3.486-1.742-3.084-3.727c0.183-0.898,1.109-2.141,2.783-3.729
			c1.301-1.25,2.64-2.342,4.014-3.275c1.312,0.461,2.262,1.398,2.855,2.814c0.562,1.297,0.703,2.635,0.426,4.01
			c-0.146,0.714-0.412,1.336-0.793,1.863c-0.549,0.797-1.647,1.387-3.295,1.768C230.109,171.132,229.346,171.238,228.766,171.238
			 M232.135,162.842c-0.644,0-1.648,0.741-3.008,2.223c-1.467,1.603-2.197,2.721-2.188,3.355c0.404,0.305,0.791,0.505,1.156,0.605
			c0.717,0.181,1.359,0.27,1.932,0.27c0.812,0,1.481-0.18,2.009-0.541c0.771-0.529,1.338-1.504,1.709-2.915
			c0.011-0.329-0.157-0.894-0.503-1.692c-0.35-0.803-0.666-1.23-0.957-1.289C232.236,162.844,232.188,162.842,232.135,162.842
			 M222.607,170.555c-0.139,0-0.271-0.015-0.394-0.039c-0.688-0.14-0.899-0.856-0.636-2.154c-0.079-0.15,0.335-2.106,1.234-5.863
			l-0.181-0.325c-0.032,0.021-0.797,0.929-2.29,2.716c-1.328,1.645-2.1,2.465-2.306,2.465c-0.004,0-0.009-0.002-0.013-0.002
			c-0.08-0.015-0.274-0.11-0.582-0.283c-0.312-0.174-0.543-0.276-0.701-0.309c-0.006-0.251,0.033-0.572,0.113-0.968
			c0.097-0.478,0.35-1.417,0.76-2.819c0.408-1.404,0.688-2.465,0.83-3.179c0.164-0.793,0.242-1.452,0.238-1.976l-0.181-0.328
			c-0.53,0.029-1.396,0.709-2.603,2.033c-0.502,0.561-1.338,2.164-2.512,4.817c-0.957,2.106-1.662,3.159-2.115,3.159
			c-0.019,0-0.037-0.003-0.055-0.006c-0.396-0.08-0.719-0.299-0.963-0.65c-0.246-0.352-0.326-0.727-0.246-1.126
			c0.075-0.368,0.584-1.573,1.523-3.614c1.025-2.213,1.714-3.424,2.058-3.629l0.214,0.375c0.701-0.738,1.412-1.464,2.133-2.17
			c1.207-1.148,2.138-1.724,2.795-1.724c0.068,0,0.134,0.007,0.199,0.021c1.479,0.299,2.004,2.196,1.568,5.688
			c0.396-0.058,0.913-0.365,1.55-0.924c0.364-0.289,0.781-0.433,1.263-0.433c0.176,0,0.355,0.019,0.551,0.058
			c1.271,0.258,1.277,3.468,0.022,9.63c-0.021,0.105-0.086,0.328-0.196,0.663c-0.107,0.337-0.195,0.594-0.26,0.772
			C223.131,170.512,222.857,170.555,222.607,170.555 M203.811,166.163c-0.232,0-0.438-0.019-0.61-0.054
			c-2.459-0.5-3.488-1.743-3.084-3.727c0.181-0.898,1.108-2.145,2.782-3.73c1.301-1.25,2.64-2.338,4.013-3.273
			c1.312,0.461,2.265,1.398,2.856,2.812c0.562,1.299,0.703,2.637,0.422,4.012c-0.144,0.715-0.407,1.336-0.789,1.863
			c-0.549,0.799-1.646,1.386-3.295,1.768C205.156,166.052,204.393,166.163,203.811,166.163 M207.184,157.764
			c-0.646,0-1.647,0.741-3.008,2.226c-1.469,1.601-2.199,2.72-2.188,3.354c0.404,0.306,0.789,0.507,1.154,0.608
			c0.717,0.18,1.359,0.27,1.934,0.27c0.812,0,1.48-0.183,2.007-0.541c0.771-0.533,1.338-1.505,1.708-2.918
			c0.011-0.328-0.155-0.894-0.502-1.691c-0.348-0.801-0.667-1.229-0.955-1.291C207.284,157.77,207.234,157.764,207.184,157.764
			 M195.061,164.387c-1.026,0-1.994-0.09-2.898-0.273c-1.48-0.303-2.855-0.855-4.123-1.668c-1.934-1.188-2.738-2.578-2.417-4.166
			c0.135-0.66,1.418-1.887,3.849-3.68c2.317-1.678,4.021-2.517,5.11-2.517c0.126,0,0.243,0.011,0.353,0.033
			c0.637,0.128,1.116,0.495,1.449,1.101c0.33,0.604,0.428,1.251,0.286,1.94c-0.101,0.502-0.301,0.94-0.601,1.321
			c-0.293,0.395-0.59,0.59-0.887,0.59c-0.047,0-0.093-0.004-0.138-0.014c-0.53-0.107-0.839-0.418-0.929-0.932
			c-0.07-0.318-0.036-0.752,0.102-1.303c0.116-0.444,0.163-0.67,0.137-0.674c-0.071-0.016-0.147-0.023-0.229-0.023
			c-0.803,0-2.018,0.73-3.641,2.189c-1.785,1.604-2.683,2.696-2.69,3.273c0.333,0.398,0.869,0.839,1.613,1.318
			c0.741,0.481,1.362,0.773,1.866,0.877c0.264,0.055,1.269,0.258,3.015,0.613c1.011,0.178,2.619,0.531,4.825,1.062
			c-0.496,0.535-1.549,0.838-3.161,0.906C195.648,164.383,195.354,164.387,195.061,164.387 M264.302,163.462
			c-0.597-0.313-0.825-0.815-0.685-1.503c0.097-0.477,0.287-0.891,0.582-1.244c0.322-0.363,0.675-0.547,1.054-0.547
			c0.081,0,0.166,0.012,0.252,0.025c0.793,0.164,1.104,0.664,0.931,1.514c-0.037,0.186-0.344,0.507-0.918,0.969
			C264.939,163.137,264.535,163.398,264.302,163.462 M252.48,161.057c-0.597-0.313-0.826-0.815-0.687-1.504
			c0.097-0.474,0.292-0.89,0.583-1.244c0.323-0.363,0.674-0.545,1.053-0.545c0.084,0,0.166,0.01,0.252,0.025
			c0.793,0.162,1.104,0.666,0.932,1.512c-0.036,0.186-0.344,0.508-0.92,0.971C253.118,160.732,252.714,160.993,252.48,161.057
			 M178.152,160.795c-0.723,0-1.512-0.088-2.367-0.262c-1.083-0.221-2.452-0.608-4.1-1.165c0.377-1.328,0.657-2.429,0.834-3.3
			c0.146-0.577,0.252-1.065,0.318-1.467c0.066-0.397,0.104-0.61,0.109-0.638c0.597-2.522,1.238-4.938,1.931-7.249
			c0.572-2.006,0.944-3.431,1.117-4.277c0.228-1.108,0.429-2.516,0.608-4.213c0.032-0.16,0.392-0.472,1.08-0.938
			c0.687-0.466,1.28-0.786,1.784-0.961c0.796-0.249,2.062-0.46,3.806-0.628c0.808-0.062,1.524-0.092,2.154-0.092
			c0.838,0,1.518,0.053,2.047,0.16c0.266,0.055,0.574,0.248,0.936,0.584c0.355,0.334,0.505,0.658,0.441,0.979
			c-0.076,0.37-0.453,0.595-1.133,0.678c-0.209,0.021-0.414,0.033-0.607,0.033c-0.297,0-0.571-0.023-0.828-0.077
			c-0.104-0.021-0.297-0.032-0.57-0.032c-0.275,0-0.466-0.014-0.57-0.035c-0.343-0.068-0.705-0.104-1.094-0.104
			c-0.777,0-1.648,0.141-2.607,0.426c-1.617,0.497-2.515,1.184-2.691,2.057c-0.005,0.024-0.023,0.326-0.059,0.896
			c-0.034,0.57-0.09,0.972-0.162,1.207c-0.075,0.507-0.158,1.112-0.243,1.808l-0.188,0.914c0.127,0.19,0.23,0.295,0.311,0.312
			c2.777-0.429,4.773-0.644,5.986-0.644c0.401,0,0.717,0.023,0.944,0.07c0.478,0.096,0.8,0.271,0.97,0.527
			c0.192,0.396,0.379,0.777,0.551,1.145c-0.08,0.122-0.33,0.332-0.748,0.633c-0.068-0.102-0.19-0.152-0.368-0.152
			c-0.043,0-0.089,0.002-0.14,0.007c-0.299,0.039-0.479,0.057-0.533,0.057c-0.008,0-0.012-0.002-0.014-0.002
			c-0.166-0.032-0.402-0.049-0.705-0.049c-1.254,0-3.689,0.285-7.311,0.856l-0.089,0.438c-0.166,0.406-0.343,1.071-0.53,1.999
			c0.027,0.806,0.012,1.365-0.054,1.683c-0.044,0.213-0.114,0.33-0.216,0.349l-0.168,0.11c-0.44,2.168-0.723,3.767-0.848,4.785
			c0.227,0.102,0.678,0.18,1.355,0.234c0.787,0.052,1.222,0.084,1.302,0.1l1.271,0.258c0.105,0.021,0.438,0.043,1,0.062
			c0.562,0.017,0.922,0.041,1.08,0.073c0.158,0.033,0.653,0.3,1.488,0.799C181.667,160.111,180.174,160.795,178.152,160.795"/>
	</g>
</g>
</svg>
