<?xml version="1.0" encoding="utf-8"?>
<!-- Generator: Adobe Illustrator 16.0.4, SVG Export Plug-In . SVG Version: 6.00 Build 0)  -->
<!DOCTYPE svg PUBLIC "-//W3C//DTD SVG 1.1//EN" "http://www.w3.org/Graphics/SVG/1.1/DTD/svg11.dtd">
<svg version="1.1" id="Calque_1" xmlns="http://www.w3.org/2000/svg" xmlns:xlink="http://www.w3.org/1999/xlink" x="0px" y="0px"
	 width="325px" height="225px" viewBox="0 0 325 225" enable-background="new 0 0 325 225" xml:space="preserve">
<g>
	<path fill="#7B7B7B" d="M15.34,150.352c-0.344,0-0.55-0.224-0.616-0.671c-0.017-0.117,0.004-0.472,0.064-1.065
		c0.06-0.595,0.071-1.018,0.033-1.27c-0.011-0.077-0.09-0.771-0.236-2.078c-0.146-1.304-0.226-2.008-0.241-2.105
		c-0.113-0.756,0.058-1.167,0.513-1.235c0.022-0.006,0.045-0.006,0.067-0.006c0.561,0,1.002,1.073,1.323,3.218
		c0.064,0.428,0.116,0.88,0.158,1.36c0.036,0.414,0.053,0.619,0.049,0.619c0,0-0.001-0.006-0.003-0.016
		c0.302,2.018-0.023,3.096-0.974,3.238C15.429,150.35,15.384,150.352,15.34,150.352 M23.91,147.078
		c-0.154,0-0.308-0.043-0.461-0.131c-0.195-0.108-0.303-0.23-0.323-0.367c-0.043-0.29,0.018-1.203,0.186-2.733
		c0.19-1.774,0.428-2.911,0.71-3.408c0.404,0.176,0.635,0.301,0.695,0.372c0.06,0.068,0.111,0.24,0.151,0.513
		c0.084,0.562,0.067,1.576-0.051,3.04c-0.156,1.749-0.418,2.651-0.786,2.705C23.991,147.075,23.95,147.078,23.91,147.078
		 M27.091,146.877c-0.152,0-0.464-0.11-0.936-0.332c-0.512-0.241-0.837-0.42-0.973-0.539l0.096-0.148l0.08-0.267
		c0.155-0.022,0.413-0.061,0.771-0.114c0.359-0.054,0.577-0.086,0.655-0.098c0.349-0.052,0.991-0.267,1.926-0.645
		c1.121-0.465,1.658-0.853,1.612-1.163c-0.038-0.252-0.354-0.641-0.948-1.168c-0.595-0.525-0.938-1.1-1.031-1.719
		c-0.093-0.621,0.298-1.394,1.171-2.317c0.842-0.86,1.575-1.337,2.196-1.428c0.03-0.006,0.059-0.007,0.088-0.007
		c0.215,0,0.402,0.122,0.562,0.37c0.181,0.28,0.265,0.58,0.253,0.898c-0.52,0.377-1.039,0.752-1.557,1.126
		c-0.748,0.568-1.096,1.026-1.043,1.375c0.028,0.194,0.388,0.646,1.079,1.356c0.691,0.709,1.065,1.249,1.12,1.617
		c0.049,0.33-0.352,0.859-1.205,1.592c-0.853,0.735-1.375,1.115-1.569,1.143l-0.253,0.099l-0.224,0.091l-1.833,0.275
		C27.116,146.877,27.104,146.877,27.091,146.877 M17.332,145.67c-0.042,0-0.066-0.005-0.07-0.013
		c-0.014-0.026-0.192-0.037-0.54-0.037c-0.033,0-0.068,0-0.105,0c-0.029-0.195-0.058-0.388-0.087-0.581
		c-0.002-0.279,0.083-0.439,0.255-0.486l1.464-0.159c0.551-0.161,1.101-0.321,1.653-0.483c0.165-0.22,0.322-0.431,0.471-0.631
		c0.248-0.33,0.347-0.66,0.299-0.989c-0.072-0.48-0.428-0.869-1.067-1.168c-0.477-0.22-0.965-0.332-1.464-0.332
		c-0.17,0-0.341,0.012-0.514,0.037c-1.105,0.166-1.856,0.318-2.252,0.458c-0.396,0.137-0.623,0.211-0.681,0.218
		c-0.047,0.009-0.095,0.011-0.143,0.011c-0.203,0-0.402-0.064-0.599-0.195c-0.062-0.686,0.206-1.142,0.806-1.37
		c0.206-0.092,0.975-0.244,2.311-0.466c0.5-0.081,0.962-0.122,1.383-0.122c1.94,0,3.042,0.869,3.301,2.606
		c0.14,0.932-0.085,1.715-0.675,2.346c-0.589,0.635-1.369,1.024-2.339,1.168l-0.844,0.126
		C17.613,145.648,17.426,145.67,17.332,145.67 M36.484,145.305c-0.015,0-0.03-0.001-0.043-0.001
		c-0.073-0.087-0.137-0.315-0.192-0.685c-0.006-0.038,0.055-0.786,0.185-2.245c0.129-1.455,0.164-2.317,0.104-2.588
		c-0.07-0.01-0.15-0.017-0.241-0.017c-0.17,0-0.375,0.02-0.616,0.057c-0.175,0.025-0.466,0.069-0.874,0.129
		c-0.408,0.062-0.698,0.105-0.873,0.131c-0.209,0.031-0.398,0.047-0.567,0.047c-0.648,0-1.007-0.229-1.075-0.688
		c-0.028-0.186,0.105-0.359,0.398-0.517c0.203-0.106,0.381-0.172,0.536-0.194c1.473-0.102,2.205-0.176,2.198-0.224
		c-0.001-0.01,0.088-0.027,0.269-0.05c0.168-0.043,0.357-0.094,0.564-0.149c0.002,0,0.003,0,0.004,0c0.374,0,0.5-0.406,0.379-1.217
		c-0.049-0.33-0.168-0.857-0.355-1.584c-0.17-0.608-0.243-0.964-0.219-1.067c0.002-0.12,0.081-0.389,0.236-0.81
		c0.26-0.514,0.497-0.788,0.71-0.82c0.015-0.002,0.028-0.002,0.042-0.002c0.151,0,0.255,0.132,0.314,0.395
		c0.135,0.378,0.32,1.015,0.553,1.912c0.055,0.229,0.149,0.672,0.288,1.324c0.116,0.521,0.177,1.107,0.182,1.76
		c0.748-0.064,1.635-0.139,2.666-0.223c0.025-0.002,0.05-0.005,0.074-0.005c0.205,0,0.396,0.129,0.577,0.385
		c0.086,0.045,0.145,0.168,0.173,0.36c0.009,0.17-0.011,0.257-0.058,0.257c-0.006,0-0.015-0.003-0.023-0.008
		c-0.258,0.258-0.592,0.417-0.999,0.478c-0.128,0.021-0.286,0.028-0.474,0.028c-0.214,0-0.469-0.01-0.762-0.036
		c-0.295-0.024-0.549-0.037-0.764-0.037c-0.188,0-0.346,0.01-0.472,0.028c-0.078,2.135-0.123,3.29-0.136,3.472
		c-0.134,1.486-0.366,2.255-0.696,2.306C37.059,145.271,36.721,145.305,36.484,145.305 M46.358,143.866
		c-1.546,0-2.636-0.953-3.272-2.858c-0.126-0.713-0.052-1.478,0.223-2.293c0.167-0.342,0.332-0.693,0.496-1.056
		c0.241-0.511,0.668-1.03,1.284-1.56c0.755-0.65,1.513-1.029,2.269-1.143c0.078-0.012,0.157-0.019,0.241-0.019
		c0.249,0,0.523,0.053,0.821,0.156c0.501,0.163,0.778,0.431,0.833,0.799c0.089,0.601-0.208,1.369-0.891,2.304
		c-0.683,0.938-1.326,1.447-1.927,1.537c0.039-0.006-0.298-0.073-1.012-0.204c-0.017-0.116-0.045-0.308-0.084-0.569
		c-0.039-0.261-0.064-0.43-0.076-0.508c-0.664,1.131-0.944,2.044-0.84,2.743c0.121,0.81,0.767,1.217,1.939,1.217
		c0.314,0,0.666-0.03,1.056-0.087c0.329-0.051,1.183-0.247,2.559-0.591l0.989-0.149l0.027,0.176c0.196-0.03,0.323-0.05,0.377-0.057
		c0.35-0.053,0.991-0.269,1.926-0.646c1.121-0.464,1.658-0.852,1.611-1.162c-0.037-0.252-0.353-0.64-0.947-1.167
		c-0.594-0.525-0.938-1.099-1.031-1.72c-0.092-0.62,0.297-1.393,1.172-2.316c0.842-0.86,1.574-1.336,2.196-1.43
		c0.029-0.004,0.058-0.007,0.086-0.007c0.216,0,0.402,0.124,0.562,0.371c0.181,0.28,0.266,0.58,0.254,0.9
		c-0.52,0.374-1.038,0.748-1.557,1.123c-0.749,0.569-1.096,1.027-1.045,1.377c0.029,0.194,0.389,0.646,1.081,1.354
		c0.689,0.712,1.063,1.249,1.12,1.619c0.048,0.33-0.353,0.86-1.206,1.592c-0.853,0.732-1.375,1.113-1.57,1.143l-0.252,0.096
		l-0.225,0.096l-1.833,0.272c-0.009,0.002-0.021,0.002-0.034,0.002c-0.152,0-0.464-0.11-0.938-0.333
		c-0.11-0.051-0.213-0.102-0.306-0.146c-0.21,0.099-0.464,0.221-0.762,0.366c-0.627,0.312-0.985,0.475-1.072,0.485L48.3,143.65
		l-0.306,0.047c-0.087,0.012-0.257,0.037-0.509,0.076c-0.255,0.017-0.421,0.033-0.499,0.043
		C46.77,143.85,46.56,143.866,46.358,143.866 M47.676,136.486c-1.236,0.621-2.024,1.313-2.367,2.078l0.494-0.073
		c0.762-0.608,1.151-0.925,1.168-0.949C47.41,137.161,47.645,136.808,47.676,136.486 M24.939,136.225
		c-0.486-0.065-0.766-0.351-0.842-0.856c-0.052-0.349-0.022-0.681,0.09-0.995c0.158-0.398,0.412-0.625,0.761-0.678
		c0.072-0.011,0.14-0.017,0.204-0.017c0.458,0,0.728,0.272,0.809,0.818c0.021,0.134-0.109,0.431-0.388,0.888
		C25.294,135.844,25.083,136.123,24.939,136.225"/>
	<path fill="#7B7B7B" d="M42.661,174.256c-0.136,0-0.241-0.07-0.314-0.215c0.251-0.574,0.527-1.447,0.828-2.622
		c0.308-1.256,0.527-2.043,0.658-2.36c-0.51-1.688-0.952-3.052-1.324-4.084c-0.537-1.468-0.837-2.415-0.901-2.841
		c-0.04-0.272-0.025-0.536,0.045-0.796c0.061-0.227,0.15-0.338,0.269-0.338c0.017,0,0.035,0.002,0.054,0.008
		c0.417,0.136,0.949,1.106,1.596,2.914c0.378,1.073,0.757,2.148,1.136,3.222c0.213-0.29,0.584-1.267,1.108-2.934
		c0.473-1.478,0.826-2.233,1.059-2.269c0.012-0.002,0.025-0.003,0.038-0.003c0.125,0,0.254,0.089,0.388,0.264
		c0.148,0.198,0.228,0.326,0.236,0.384c0.08,0.802-0.538,2.871-1.853,6.211c-1.315,3.339-2.242,5.139-2.778,5.398
		C42.815,174.236,42.733,174.256,42.661,174.256 M35.111,171.781c-0.64,0-1.276-0.07-1.909-0.213
		c-1.617-0.331-2.512-1.08-2.685-2.246c-0.073-0.482,0.498-1.64,1.712-3.467c1.3-1.921,2.338-2.938,3.114-3.054
		c0.081-0.013,0.161-0.019,0.239-0.019c0.373,0,0.713,0.136,1.024,0.41c0.377,0.33,0.603,0.746,0.679,1.251
		c0.055,0.37,0.027,0.72-0.081,1.054c-0.12,0.395-0.306,0.61-0.558,0.649c-0.059,0.008-0.115,0.012-0.167,0.012
		c-0.305,0-0.537-0.139-0.696-0.419c-0.129-0.199-0.214-0.504-0.256-0.914c-0.03-0.33-0.054-0.495-0.073-0.495
		c-0.001,0-0.001,0-0.001,0c-0.582,0.087-1.283,0.901-2.104,2.441c-0.821,1.541-1.162,2.509-1.022,2.906
		c0.325,0.189,0.801,0.357,1.427,0.5c0.454,0.104,0.839,0.157,1.158,0.157c0.122,0,0.233-0.008,0.335-0.023
		c0.194-0.028,0.931-0.139,2.211-0.33c0.734-0.128,1.92-0.288,3.559-0.475c-0.206,0.488-0.849,0.957-1.932,1.406
		c-0.915,0.385-1.798,0.642-2.652,0.769C35.99,171.748,35.55,171.781,35.111,171.781 M53.53,169.028
		c-0.639,0-1.276-0.071-1.909-0.212c-1.617-0.334-2.512-1.081-2.686-2.244c-0.073-0.486,0.499-1.643,1.713-3.47
		c1.3-1.919,2.336-2.938,3.114-3.054c0.08-0.013,0.16-0.019,0.239-0.019c0.372,0,0.712,0.138,1.024,0.41
		c0.376,0.33,0.603,0.748,0.678,1.251c0.055,0.369,0.028,0.722-0.081,1.054c-0.12,0.395-0.306,0.611-0.557,0.647
		c-0.059,0.011-0.115,0.015-0.167,0.015c-0.306,0-0.538-0.14-0.697-0.419c-0.13-0.2-0.213-0.503-0.255-0.914
		c-0.029-0.329-0.054-0.494-0.073-0.494h-0.002c-0.582,0.086-1.283,0.899-2.104,2.44c-0.822,1.541-1.163,2.51-1.023,2.905
		c0.326,0.189,0.802,0.355,1.427,0.5c0.454,0.104,0.84,0.158,1.157,0.158c0.124,0,0.235-0.01,0.336-0.025
		c0.195-0.028,0.932-0.138,2.212-0.329c0.733-0.13,1.92-0.288,3.557-0.475c-0.204,0.487-0.848,0.956-1.932,1.406
		c-0.914,0.386-1.797,0.642-2.651,0.769C54.409,168.997,53.969,169.028,53.53,169.028 M61.26,167.862
		c-0.493,0-0.775-0.237-0.846-0.716c-0.012-0.077,0.014-1.072,0.079-2.987c0.071-1.994,0.102-3.192,0.089-3.598
		c-0.013-0.406-0.086-1.648-0.221-3.729c-0.051-0.726-0.091-1.128-0.121-1.203c-0.013-0.076-0.027-0.183-0.048-0.318
		c0.068-0.626,0.25-0.958,0.545-1.004c0.03-0.005,0.061-0.008,0.091-0.008c0.248,0,0.502,0.148,0.762,0.444
		c0.224,0.285,0.355,0.552,0.392,0.804c0.192,1.281,0.293,3.586,0.303,6.917c-0.01,3.194-0.087,4.962-0.231,5.3l-0.445,0.067
		C61.483,167.852,61.366,167.862,61.26,167.862 M66.636,167.034c-0.36,0-0.729-0.135-1.106-0.398
		c-0.456-0.319-0.714-0.692-0.777-1.119c-0.256-1.707,0.49-3.346,2.24-4.917c1.63-1.434,3.418-2.276,5.363-2.526l0.267,0.197
		l0.057,0.379c-0.021,0.002-0.276,0.21-0.77,0.621c0.189,0.07,0.376,0.132,0.562,0.186c0.314,0.109,0.49,0.293,0.528,0.543v-0.002
		c-0.004,0,0.015,0.414,0.052,1.244c0.039,0.867,0.081,1.436,0.121,1.707c0.082,0.543,0.278,1.129,0.59,1.757
		c0.345,0.722,0.711,1.183,1.099,1.382c-0.195,0.287-0.41,0.449-0.643,0.482c-0.05,0.008-0.103,0.013-0.152,0.013
		c-0.638,0-1.224-0.613-1.757-1.84c-0.224-0.698-0.446-1.39-0.667-2.071c-1.682,2.672-3.281,4.119-4.794,4.345
		C66.779,167.027,66.708,167.034,66.636,167.034 M71.573,159.41l-0.377,0.056c-0.404,0.219-0.816,0.445-1.238,0.676
		c-0.422,0.232-0.986,0.64-1.692,1.22c-0.422,0.361-0.863,0.863-1.322,1.508c-0.703,0.996-1.001,1.855-0.894,2.571
		c0.023,0.157,0.134,0.298,0.331,0.427l0.16-0.023l0.305-0.046c0.583-0.086,1.319-0.604,2.208-1.551
		c0.75-0.825,1.327-1.604,1.733-2.34c0.257-0.534,0.432-0.991,0.523-1.371C71.403,160.152,71.49,159.779,71.573,159.41
		 M77.744,165.355c-1.102,0-1.972-0.354-2.614-1.062l0.436-0.067c-0.023-0.165-0.117-0.249-0.278-0.249
		c-0.026,0-0.055,0.003-0.084,0.007c0.153-0.162,0.278-0.389,0.375-0.68c0.402,0.2,0.869,0.302,1.405,0.302
		c0.235,0,0.482-0.02,0.743-0.059c1.532-0.229,2.24-0.74,2.121-1.536c-0.049-0.329-0.295-0.849-0.739-1.556
		c-0.484-0.745-0.894-1.12-1.23-1.12c-0.023,0-0.045,0.002-0.066,0.004c-0.699,0.106-1.131,1.192-1.299,3.258l-0.785,0.12
		c-0.025,0.002-0.049,0.005-0.074,0.005c-0.392,0-0.708-0.486-0.947-1.46c-0.165-0.709-0.319-1.41-0.461-2.102l-0.293-6.739
		l0.107-0.077l0.252-0.096c0.04-0.005,0.078-0.009,0.115-0.009c0.192,0,0.378,0.073,0.558,0.221
		c0.213,0.176,0.339,0.381,0.373,0.614l0.366,5.626l0.171,0.153c0.126-0.614,0.645-0.988,1.558-1.125
		c0.082-0.012,0.165-0.02,0.246-0.02c0.831,0,1.664,0.623,2.499,1.869c0.717,1.083,1.126,1.965,1.229,2.644
		c0.085,0.581-0.109,1.2-0.587,1.855c-0.477,0.657-0.938,1.02-1.385,1.086l-0.813,0.121
		C78.326,165.332,78.027,165.355,77.744,165.355 M83.17,164.589c-0.492,0-0.774-0.238-0.847-0.718
		c-0.011-0.076,0.015-1.073,0.079-2.985c0.073-1.995,0.103-3.194,0.09-3.599c-0.012-0.404-0.086-1.648-0.222-3.731
		c-0.049-0.724-0.09-1.126-0.121-1.2c-0.012-0.077-0.027-0.185-0.047-0.319c0.067-0.627,0.25-0.961,0.545-1.005
		c0.03-0.005,0.062-0.006,0.091-0.006c0.249,0,0.502,0.147,0.761,0.443c0.223,0.284,0.355,0.554,0.392,0.805
		c0.192,1.28,0.292,3.585,0.303,6.916c-0.011,3.194-0.087,4.961-0.232,5.3l-0.446,0.066
		C83.393,164.577,83.277,164.589,83.17,164.589 M89.437,163.565c-1.546,0-2.637-0.951-3.271-2.856
		c-0.127-0.713-0.054-1.479,0.221-2.294c0.168-0.342,0.333-0.692,0.497-1.056c0.24-0.514,0.669-1.032,1.284-1.561
		c0.757-0.648,1.513-1.029,2.27-1.143c0.078-0.012,0.157-0.017,0.24-0.017c0.249,0,0.523,0.053,0.822,0.155
		c0.5,0.163,0.778,0.43,0.832,0.797c0.09,0.604-0.207,1.372-0.891,2.306c-0.683,0.935-1.326,1.448-1.926,1.538
		c0.039-0.006-0.299-0.073-1.012-0.206c-0.018-0.114-0.047-0.306-0.086-0.568c-0.038-0.26-0.064-0.43-0.076-0.508
		c-0.665,1.132-0.944,2.045-0.839,2.742c0.121,0.812,0.768,1.217,1.938,1.217c0.315,0,0.667-0.029,1.056-0.088
		c0.33-0.048,1.184-0.245,2.559-0.589l0.99-0.148l0.026,0.173c0.197-0.027,0.322-0.047,0.378-0.057
		c0.349-0.05,0.991-0.265,1.926-0.644c1.121-0.464,1.658-0.852,1.612-1.162c-0.038-0.252-0.354-0.644-0.949-1.169
		c-0.594-0.524-0.937-1.098-1.029-1.72c-0.094-0.62,0.297-1.391,1.171-2.315c0.842-0.86,1.574-1.336,2.196-1.43
		c0.029-0.004,0.058-0.006,0.087-0.006c0.215,0,0.402,0.123,0.562,0.371c0.18,0.279,0.266,0.578,0.254,0.897
		c-0.52,0.376-1.039,0.751-1.558,1.126c-0.748,0.566-1.096,1.026-1.043,1.376c0.029,0.192,0.389,0.645,1.08,1.355
		c0.691,0.708,1.065,1.248,1.12,1.616c0.049,0.33-0.352,0.862-1.204,1.595c-0.853,0.732-1.376,1.112-1.57,1.143l-0.253,0.096
		l-0.224,0.093l-1.833,0.274c-0.01,0.001-0.021,0.003-0.035,0.003c-0.151,0-0.463-0.111-0.937-0.333
		c-0.11-0.054-0.212-0.102-0.307-0.149c-0.209,0.102-0.463,0.222-0.76,0.367c-0.628,0.312-0.985,0.474-1.073,0.487l-0.302,0.076
		l-0.305,0.044c-0.088,0.015-0.258,0.04-0.51,0.077c-0.255,0.019-0.421,0.034-0.499,0.045
		C89.848,163.55,89.638,163.565,89.437,163.565 M90.754,156.186c-1.236,0.62-2.025,1.314-2.366,2.08l0.495-0.074
		c0.761-0.61,1.151-0.927,1.167-0.948C90.488,156.859,90.723,156.508,90.754,156.186 M73,160C73,160,73,160,73,160S73,160,73,160"/>
</g>
</svg>
