<?xml version="1.0" encoding="utf-8"?>
<!-- Generator: Adobe Illustrator 16.0.4, SVG Export Plug-In . SVG Version: 6.00 Build 0)  -->
<!DOCTYPE svg PUBLIC "-//W3C//DTD SVG 1.1//EN" "http://www.w3.org/Graphics/SVG/1.1/DTD/svg11.dtd">
<svg version="1.1" id="Calque_1" xmlns="http://www.w3.org/2000/svg" xmlns:xlink="http://www.w3.org/1999/xlink" x="0px" y="0px"
	 width="435px" height="300px" viewBox="-55 -37.5 435 300" enable-background="new -55 -37.5 435 300" xml:space="preserve">
<g>
	<g>
		<g>
			<path fill="#050507" d="M113.329,170.444c-4.702,0-8.522,3.801-8.522,8.492c0,4.686,3.82,8.485,8.522,8.485
				c4.709,0,8.525-3.805,8.525-8.485C121.854,174.245,118.036,170.444,113.329,170.444z"/>
			<ellipse fill="#E6E8E8" cx="113.328" cy="178.617" rx="6.258" ry="6.235"/>
			<g>
				<path fill="#FFFFFF" d="M113.328,181.988c3.161,0,5.726-2.554,5.726-5.7c0-0.07-0.008-0.14-0.011-0.207
					c-0.977-2.179-3.166-3.694-5.715-3.694c-2.545,0-4.733,1.524-5.709,3.694c-0.002,0.07-0.01,0.139-0.01,0.207
					C107.608,179.435,110.172,181.988,113.328,181.988z"/>
			</g>
		</g>
		<g>
			<path fill="#050507" d="M133.311,149.933c-7.859,0-14.224,6.341-14.224,14.17c0,7.824,6.364,14.166,14.224,14.166
				c7.851,0,14.213-6.342,14.213-14.166C147.524,156.273,141.161,149.933,133.311,149.933z"/>
			<path fill="#E6E8E8" d="M133.708,151.903c-6.138,0-11.122,4.959-11.122,11.084c0,6.118,4.984,11.078,11.122,11.078
				c6.142,0,11.122-4.96,11.122-11.078C144.83,156.862,139.85,151.903,133.708,151.903z"/>
			<g>
				<path fill="#FFFFFF" d="M133.708,171.185c5.651,0,10.309-4.203,11.018-9.638c-0.708-5.438-5.366-9.638-11.018-9.638
					c-5.648,0-10.307,4.197-11.018,9.638C123.401,166.981,128.06,171.185,133.708,171.185z"/>
			</g>
		</g>
		<g>
			<path fill="#050507" d="M218.078,76.828c0-13.549-11.023-24.533-24.623-24.533c-1.334,0-2.641,0.107-3.916,0.311
				c0.002-0.104,0.008-0.207,0.008-0.311c0-8.422-6.854-15.25-15.309-15.25c-2.393,0-4.657,0.548-6.672,1.521
				c-3.885-5.724-10.461-9.486-17.921-9.486c-11.94,0-21.621,9.643-21.621,21.537c0,1.336,0.126,2.641,0.361,3.912
				c-2.871-1.023-5.963-1.583-9.187-1.583c-15.06,0-27.27,12.161-27.27,27.164c0,12.23,8.112,22.57,19.267,25.977
				c-2.866,3.174-4.611,7.376-4.611,11.982c0,9.906,8.06,17.934,18.002,17.934c4.341,0,8.324-1.53,11.433-4.082
				c0.941,12.872,11.721,23.026,24.884,23.026c13.423,0,24.368-10.559,24.927-23.793c1.205,0.215,2.444,0.337,3.713,0.337
				c11.445,0,20.719-9.242,20.719-20.641c0-4.835-1.673-9.275-4.465-12.792C213.143,93.811,218.078,85.895,218.078,76.828z"/>
			<path fill="#E6E8E8" d="M212.609,79.309c0-12.372-10.066-22.403-22.493-22.403c-1.216,0-2.409,0.098-3.573,0.284
				c0.001-0.095,0.007-0.188,0.007-0.284c0-7.691-6.26-13.926-13.979-13.926c-2.184,0-4.251,0.499-6.092,1.389
				c-3.549-5.227-9.556-8.664-16.367-8.664c-10.904,0-19.746,8.805-19.746,19.671c0,1.218,0.118,2.411,0.332,3.57
				c-2.622-0.935-5.446-1.444-8.389-1.444c-13.754,0-24.903,11.105-24.903,24.808c0,11.168,7.407,20.611,17.595,23.721
				c-2.618,2.9-4.21,6.736-4.21,10.945c0,9.044,7.359,16.378,16.441,16.378c3.964,0,7.6-1.404,10.44-3.727
				c0.86,11.751,10.705,21.025,22.726,21.025c12.259,0,22.254-9.641,22.764-21.729c1.1,0.193,2.235,0.305,3.394,0.305
				c10.448,0,18.921-8.436,18.921-18.851c0-4.415-1.53-8.472-4.078-11.682C208.097,94.823,212.609,87.59,212.609,79.309z"/>
			<path fill="#FFFFFF" d="M212.065,74.424c-2.24-10.023-11.213-17.518-21.949-17.518c-1.216,0-2.409,0.098-3.573,0.284
				c0.001-0.095,0.007-0.188,0.007-0.284c0-7.691-6.26-13.926-13.979-13.926c-2.184,0-4.251,0.499-6.092,1.389
				c-3.549-5.227-9.556-8.664-16.367-8.664c-10.904,0-19.746,8.805-19.746,19.671c0,1.218,0.118,2.411,0.332,3.57
				c-2.623-0.935-5.447-1.444-8.39-1.444c-12.073,0-22.134,8.556-24.417,19.912c-0.318,1.584-0.487,3.22-0.487,4.896
				c0,9.655,5.54,18.018,13.623,22.116c1.265,0.642,2.594,1.185,3.973,1.605c-1.559,1.727-2.75,3.789-3.462,6.056
				c2.091,6.654,8.325,11.478,15.691,11.478c3.964,0,7.6-1.398,10.44-3.727c0.86,11.758,10.704,21.028,22.726,21.028
				c12.258,0,22.252-9.644,22.765-21.731c1.098,0.195,2.232,0.305,3.387,0.305c8.752,0,16.111-5.917,18.274-13.955
				c-0.676-2.509-1.861-4.81-3.43-6.789c1.263-0.732,2.452-1.584,3.543-2.54c4.701-4.107,7.669-10.132,7.669-16.851
				C212.609,77.632,212.417,75.998,212.065,74.424z"/>
		</g>
	</g>
	<g>
		<g>
			<g>
				<defs>
					<rect id="SVGID_1_" x="120.006" y="61.148" width="71.653" height="63.458"/>
				</defs>
				<clipPath id="SVGID_2_">
					<use xlink:href="#SVGID_1_"  overflow="visible"/>
				</clipPath>
				<path clip-path="url(#SVGID_2_)" fill="#C7D271" d="M157.879,117.172c0.469-3,1.746-7.153,3.498-11.416
					c0.464-0.972,0.672-2.237,1.464-2.973c4.56-0.219,8.44-2.371,12.424-2.475c1.032-2.018,1.518-10.242,1.427-13.007
					c-0.444-3.52-0.844-5.135-3.508-7.815c-1.435-1.047-3.64-2.339-4.756-0.904l-1.944,4.045c-1.092,2.817-1.331,5.758-2.429,8.574
					c-0.726,1.414-6.708,3.96-8.478,4.448c0.575,1.061,2.797,0.886,2.641,2.145c-0.907,0.908-2.501,1.511-3.472,2.377
					c-0.585,3.195,0.687,16.15,0.765,19.177C155.983,119.2,157.086,119.474,157.879,117.172"/>
			</g>
		</g>
		<g>
			<g>
				<defs>
					<rect id="SVGID_3_" x="120.006" y="61.148" width="71.653" height="63.458"/>
				</defs>
				<clipPath id="SVGID_4_">
					<use xlink:href="#SVGID_3_"  overflow="visible"/>
				</clipPath>
				<path clip-path="url(#SVGID_4_)" fill="#C7D271" d="M170.74,65.935l-0.081,0.192c-2.708-0.971-5.585-1.007-8.275-2.166
					c-0.62,0.113-1.185,0.397-1.302,1.048c0.614,3.824,1.655,8.153,4.269,11.03c1.884,0.515,4.31-0.341,6.282,0.319
					c0.179-1.765-0.876-3.386-1.019-5.304c-0.141-1.059,0.578-2.109,0.226-3.071C171.062,67.365,170.872,66.655,170.74,65.935"/>
			</g>
		</g>
		<g>
			<g>
				<defs>
					<rect id="SVGID_5_" x="120.006" y="61.148" width="71.653" height="63.458"/>
				</defs>
				<clipPath id="SVGID_6_">
					<use xlink:href="#SVGID_5_"  overflow="visible"/>
				</clipPath>
				<path clip-path="url(#SVGID_6_)" fill="#C7D271" d="M172.842,114.354c0.474-2.995,1.738-7.148,3.496-11.408
					c0.457-0.974,0.668-2.248,1.469-2.971c4.546-0.223,8.431-2.373,12.409-2.48c1.032-2.019,1.521-10.247,1.433-13.002
					c-0.439-3.514-0.847-5.135-3.521-7.816c-1.415-1.048-3.636-2.341-4.736-0.904l-1.95,4.051c-1.092,2.809-1.326,5.753-2.425,8.559
					c-0.723,1.421-6.712,3.959-8.482,4.452c0.583,1.062,2.8,0.894,2.641,2.152c-0.914,0.904-2.491,1.504-3.472,2.376
					c-0.583,3.212,0.69,16.141,0.772,19.189C170.944,116.397,172.061,116.661,172.842,114.354"/>
			</g>
		</g>
		<g>
			<g>
				<defs>
					<rect id="SVGID_7_" x="120.006" y="61.148" width="71.653" height="63.458"/>
				</defs>
				<clipPath id="SVGID_8_">
					<use xlink:href="#SVGID_7_"  overflow="visible"/>
				</clipPath>
				<path clip-path="url(#SVGID_8_)" fill="#C7D271" d="M185.694,63.136l-0.071,0.181c-2.718-0.975-5.599-1.009-8.277-2.167
					c-0.615,0.119-1.187,0.404-1.298,1.044c0.605,3.832,1.662,8.159,4.268,11.038c1.878,0.506,4.293-0.344,6.267,0.319
					c0.186-1.757-0.865-3.384-1.007-5.306c-0.133-1.06,0.573-2.113,0.229-3.072C186.026,64.562,185.84,63.851,185.694,63.136"/>
			</g>
		</g>
		<g>
			<g>
				<defs>
					<rect id="SVGID_9_" x="120.006" y="61.148" width="71.653" height="63.458"/>
				</defs>
				<clipPath id="SVGID_10_">
					<use xlink:href="#SVGID_9_"  overflow="visible"/>
				</clipPath>
				<path clip-path="url(#SVGID_10_)" fill="#C7D271" d="M143.578,70.922c-0.02-0.67-0.329-1.126-0.804-1.497
					c-0.607-0.152-4.364-0.955-6.535-1.802c-1.093-0.117-2.307-0.041-2.397,1.299c-0.684,3.739,1.686,6.492,2.659,9.81
					c1.87,1.703,4.656,1.227,7.008,1.828C142.639,77.17,142.903,74.035,143.578,70.922"/>
			</g>
		</g>
		<g>
			<g>
				<defs>
					<rect id="SVGID_11_" x="120.006" y="61.148" width="71.653" height="63.458"/>
				</defs>
				<clipPath id="SVGID_12_">
					<use xlink:href="#SVGID_11_"  overflow="visible"/>
				</clipPath>
				<path clip-path="url(#SVGID_12_)" fill="#C7D271" d="M137.736,99.641c-1.148-0.041-2.519,0.112-4.209-0.009
					c-2.159,0.172-2.82,2.663-3.731,4.49c-1.945,4.143-3.238,8.839-4.139,13.195c-0.234,2.389-0.305,4.815-0.181,7.287
					c0.399,0.025,1.385-0.287,1.471-0.547c-0.01,0,2.409-6.354,2.409-6.357c3.116-6.608,5.418-8.404,9.12-10.635
					c2.297-0.543,10.585-0.449,13.962-3.887c-0.387-5.702-0.549-12.02-2.617-17.469c-1.563-2.164-4.488-3.114-6.94-3.899
					c-4.045,0.621-4.904,5.001-7.969,8.73c-1.488,1.833-3.288,4.453-5.009,3.373c-2.207-1.093-4.963-2.948-6.98-4.525
					c-0.803-0.64-2.028-0.363-2.923,0.034c1.57,2.861,4.991,4.499,7.012,7.042c1.01,0.717,2.935,3.061,4.432,2.491
					c2.201-1.448,2.225-2.037,4.606-3.227c0.955-0.342,2.31-1.397,3.179-0.475C138.816,96.701,138.488,99.65,137.736,99.641"/>
			</g>
		</g>
	</g>
</g>
</svg>
