<?xml version="1.0" encoding="utf-8"?>
<!-- Generator: Adobe Illustrator 16.0.4, SVG Export Plug-In . SVG Version: 6.00 Build 0)  -->
<!DOCTYPE svg PUBLIC "-//W3C//DTD SVG 1.1//EN" "http://www.w3.org/Graphics/SVG/1.1/DTD/svg11.dtd">
<svg version="1.1" id="Calque_1" xmlns="http://www.w3.org/2000/svg" xmlns:xlink="http://www.w3.org/1999/xlink" x="0px" y="0px"
	 width="435px" height="300px" viewBox="-55 -37.5 435 300" enable-background="new -55 -37.5 435 300" xml:space="preserve">
<g>
	<g>
		
			<polyline fill="none" stroke="#B2B2B3" stroke-width="2" stroke-linecap="round" stroke-linejoin="round" stroke-miterlimit="10" points="
			76.489,105.18 165.219,37.518 249.054,103.352 		"/>
		
			<polyline fill="none" stroke="#B2B2B3" stroke-width="2" stroke-linecap="round" stroke-linejoin="round" stroke-miterlimit="10" points="
			199.487,63.728 199.487,45.92 218.821,45.92 218.821,75.311 		"/>
		<g>
			<path fill="#AFC631" d="M101.244,97.158h21.815l7.804,27.623h0.177l7.537-27.623h21.548v42.053h-13.833v-32.748h-0.177
				l-9.666,32.748H124.92l-10.197-32.748h-0.177v32.748h-13.302V97.158L101.244,97.158z"/>
			<path fill="#AFC631" d="M181.492,97.158h18.621l15.784,42.053h-15.429l-2.306-8.011h-15.162l-2.22,8.011h-15.428L181.492,97.158z
				 M190.537,104.813h-0.178l-5.23,18.73h10.817L190.537,104.813z"/>
		</g>
		<g>
			<path d="M97.618,147.163h8.25l3.933,17.918h0.078l3.97-17.918h8.209v25.385h-5.088v-20.266h-0.078l-4.895,20.266h-4.318
				l-4.895-20.266h-0.078v20.266h-5.089V147.163L97.618,147.163z"/>
			<path d="M131.179,147.163h6.861l7.286,25.385h-5.782l-1.273-5.368h-7.323l-1.272,5.368h-5.781L131.179,147.163z M131.912,162.981
				h5.397l-2.661-11.412h-0.078L131.912,162.981z"/>
			<path d="M147.321,172.548v-25.385h5.549v25.385H147.321z"/>
			<path d="M161.27,164.618v0.749c0,2.38,0.732,3.913,3.662,3.913c1.697,0,3.315-0.996,3.315-3.128c0-2.312-1.271-3.167-4.934-4.343
				c-4.936-1.564-7.208-3.447-7.208-7.677c0-4.945,3.275-7.468,8.518-7.468c4.933,0,8.52,1.955,8.52,6.826v0.709h-5.32
				c0-2.379-0.886-3.768-3.006-3.768c-2.508,0-3.162,1.458-3.162,2.95c0,1.566,0.502,2.526,2.854,3.45l4.279,1.707
				c4.162,1.671,5.241,3.625,5.241,6.718c0,5.37-3.547,7.789-9.56,7.789c-6.285,0-8.752-2.704-8.752-7.398v-1.03H161.27
				L161.27,164.618z"/>
			<path d="M185.39,146.665c8.329,0,9.367,5.473,9.367,13.191c0,7.714-1.038,13.193-9.367,13.193c-8.326,0-9.363-5.475-9.363-13.193
				C176.023,152.138,177.063,146.665,185.39,146.665z M185.39,169.277c3.277,0,3.819-2.597,3.819-9.421
				c0-6.793-0.539-9.422-3.819-9.422c-3.275,0-3.815,2.632-3.815,9.422C181.574,166.681,182.114,169.277,185.39,169.277z"/>
			<path d="M204.229,147.163l6.706,17.385h0.08v-17.385h5.087v25.385h-6.319l-6.784-17.778h-0.078v17.778h-5.09v-25.385H204.229z"/>
		</g>
	</g>
</g>
</svg>
