<?xml version="1.0" encoding="utf-8"?>
<!-- Generator: Adobe Illustrator 16.0.4, SVG Export Plug-In . SVG Version: 6.00 Build 0)  -->
<!DOCTYPE svg PUBLIC "-//W3C//DTD SVG 1.1//EN" "http://www.w3.org/Graphics/SVG/1.1/DTD/svg11.dtd">
<svg version="1.1" id="Calque_1" xmlns="http://www.w3.org/2000/svg" xmlns:xlink="http://www.w3.org/1999/xlink" x="0px" y="0px"
	 width="325px" height="225px" viewBox="0 0 325 225" enable-background="new 0 0 325 225" xml:space="preserve">
<g id="Calque_2_1_">
	<g>
		<path fill="#853326" d="M284.435,83.743c-3.527-15.01-10.112-28.886-16.076-42.931c-4.412-10.354-9.431-20.532-14.943-30.429
			c-4.612-8.309-10.13-15.875-18.265-21.174c-1.762-1.299-3.442-2.651-3.777-5.006c3.942-3.433,7.016-0.32,9.892,1.598
			c9.634,6.472,15.358,16.166,20.685,26.079c1.001,1.853,1.771,3.849,2.96,5.562c0.891,1.509,1.554,3.095,2.192,4.696
			c2.651,6.326,4.449,13.007,8.126,18.895c0.569,0.84,1.001,1.732,1.387,2.618c5.458,14.998,12.317,29.429,16.776,44.787
			c2.369,8.047,2.338,16.18,2.665,24.335c0.082,1.865-0.549,3.781,0.994,5.33c0.041,0.239,0.115,0.446,0.203,0.64
			c-0.382,2.491-0.7,4.997-0.937,7.516c-0.157,1.692-0.273,3.387-0.364,5.081c-1.229,4.661-2.208,9.349-2.908,14.066
			c-0.077,0.08-0.148,0.162-0.229,0.24c-4.392,12.636-8.149,25.558-15.873,36.72c-1.165-1.958-0.226-3.565,0.942-5.052
			c-10.009,13.178-19.874,26.502-34.052,35.799c-3.412-0.053-7.15,3.71-10.174-0.899c0.902-4.327,5.024-5.315,7.95-7.532
			c16.428-12.414,30.242-27.152,38.665-46.115c4.311-9.707,6.248-20.229,7.75-30.75c3.011-13.979,3.083-27.748-2.755-41.123
			C284.819,85.739,284.548,84.751,284.435,83.743z"/>
		<path fill="#592219" d="M237.833-37.692c7.076,3.354,11.897,9.386,17.142,14.851c6.131,6.388,9.934,14.562,16.038,20.962
			c0.62,0.203,1.109,0.54,1.468,1.056c4.902,13.396,9.792,26.757,14.667,40.14c0.96,2.598,0.864,5.734,2.925,7.769
			c0.699,4.456,1.601,8.901,2.722,13.327c0.022,0.16,0.049,0.319,0.071,0.479c-0.256,0.407-0.549,0.814-0.935,1.223
			c-5.558-2.791-7.33-8.32-9.371-13.473c-7.562-18.988-14.522-38.165-25.763-55.493c-5.286-8.119-11.238-15.562-18.557-21.998
			C235.259-31.429,232.51-34.479,237.833-37.692z"/>
		<path fill="#67291F" d="M248.353,218.908c-17.616,18.449-39.429,29.025-64.182,34.092c-1.079,0.125-2.116-0.049-3.085-0.494
			c-3.336-3.926-0.143-6.214,2.553-7.77c4.812-2.807,9.917-5.156,15.168-7.198c12.622-4.919,25.436-9.481,36.962-16.843
			c3.361-1.6,6.354-4.008,10.01-4.887C248.591,215.143,248.86,215.575,248.353,218.908z"/>
		<path fill="#642A20" d="M236.9-38.067c0.472-0.227,0.813-0.239,1.019,0.031c0.159,0.262,0.246,0.46,0.188,0.579
			c-2.281,2.508-2.536,4.324,0.563,6.862c17.214,14.199,26.552,33.749,35.562,53.489c5.967,12.987,8.596,27.517,17.946,38.952
			c0.351,0.334,0.674,0.68,0.979,1.036c0.062,0.432,0.119,0.864,0.189,1.296c0.521,3.187,1.09,6.407,1.728,9.626
			c-5.918-3.227-8.104-9.138-10.681-14.785c-8.445-18.347-15.246-37.449-24.901-55.269c-3.159-5.803-6.7-11.346-11.169-16.287
			c-5.444-6.049-11.526-11.049-19.998-12.389c-2.956-0.46-6.038-1.363-7.513-4.608C226.094-32.538,231.068-36.104,236.9-38.067z"/>
		<path fill="#702A20" d="M220.812-29.534c17.702,3.383,30.133,13.712,38.479,29.268c4.065,7.662,8.131,15.403,11.678,23.322
			c5.484,12.241,10.309,24.792,15.849,37.045c2.125,4.766,5.437,9.067,8.228,13.56c0.062,0.305,0.119,0.61,0.181,0.916
			c0.105,1.453,0.206,2.909,0.342,4.375c-1.149,5.203-3.49,2.425-4.766,0.418c-1.883-2.984-3.271-6.291-4.622-9.557
			c-3.611-8.691-6.263-17.788-10.799-26.107c-0.243-0.607-0.476-1.233-0.708-1.86c-3.711-6.036-4.862-13.218-8.646-19.21
			c-1.001-1.059-1.521-2.311-1.471-3.756c-4.869-9.91-9.683-19.82-17.499-27.882c-6.185-6.388-13.375-10.88-22.291-12.641
			c-3.697-0.747-8.282-0.204-10.404-4.694C216.511-27.385,218.673-28.456,220.812-29.534z"/>
		<path fill="#7B2A1F" d="M248.353,218.908c0.862-3.325-1.179-2.014-2.624-1.6c-3.347,0.93-5.569,4.314-9.357,4.215
			c-2.879,1.59-5.752,3.17-8.789,4.392c-2.31,0.92-4.775,2.452-7.064-0.194c1.103-4.484,5.621-4.41,8.628-6.244
			c4.587-2.752,9.067-5.81,14.368-7.244c13.279-10.965,24.162-24.299,35.963-36.893c-0.857,2.335-1.695,4.68-2.533,7.026
			C269.97,196.582,260.4,208.725,248.353,218.908z"/>
		<path fill="#6B3428" d="M162.83,256.745c7.222-0.577,14.411-1.252,21.341-3.745c-0.922-0.451-1.886-0.907-2.814-1.357
			c-5.979-3.059-12.027-5.961-17.282-10.227C163.817,246.546,163.413,251.661,162.83,256.745z"/>
		<path fill="#4D2118" d="M238.106-37.457c-0.406-0.193-0.807-0.409-1.206-0.611c1.441-1.503,3.973-1.76,4.823-4.021
			c5.373-2.803,7.771,0.094,10.407,4.522c3.153,5.217,4.876,11.516,10.225,15.321c3.235,6.951,8.024,13.248,9.415,21.046
			c-1.004,1.723-2.314,2.717-3.515,0.332C261.009-15.371,249.46-26.327,238.106-37.457z"/>
		<path fill="#78281E" d="M275.382,43.705c3.769,2.09,3.844,6.242,5.354,9.568c3.634,8.119,5.852,16.825,10.701,24.396
			c1.056,1.69,1.545,4.76,4.131,1.281c3.417,12.93,1.242,26.098,1.481,39.151c-1.854,0.58-2.014-0.9-1.931-1.936
			c1.165-22.32-8.312-41.871-16.088-61.863C277.693,50.812,276.613,47.239,275.382,43.705z"/>
		<path fill="#8C2119" d="M177.289-8.264c-0.904-1.447-1.759-2.898-2.638-4.332c8.952-4.979,19.188-5.943,28.728-9.093
			c6.78-0.348,13.525,0.146,20.159,1.42c3.19,0.612,6.537,1.206,8.104,4.676c1.538,1.204,3.065,2.38,4.647,3.592
			c1.14,1.852,4.388,3.246,2.587,5.795c-2.555,3.585-6.042,0.131-9.103,0.375c-2.155-0.185-4.364-0.253-6.315-1.351
			c-5.782-4.698-12.479-3.091-18.901-2.466C195.472-8.732,186.478-6.797,177.289-8.264z"/>
		<path fill="#78281E" d="M231.643-15.592c-5.945-3.043-12.396-3.889-18.907-3.953c-3.362-0.03-6.399-0.66-9.356-2.144
			c3.196-2.604,7.15-3.511,10.984-4.649c1.522,0.629,3.022,1.552,4.604,1.745c26.148,3.067,37.261,21.815,45.591,43.472
			c-4.022-2.94-4.821-7.873-7.212-11.827c-4.812-7.91-10.164-15.253-17.891-20.507C237.244-14.926,234.759-16.843,231.643-15.592z"
			/>
		<path fill="#943A2B" d="M285.746,83.767c0.237,0.617,0.495,1.243,0.746,1.891c4.639,13.589,4.164,27.643,3.434,41.681
			c-3.528,36.235-22.748,62.504-52.324,82.199c-1.375,0.938-2.924,1.542-3.607,3.204c-10.831,8.18-29.017,9.496-37.934,2.754
			c1.487-6.727,8.113-6.816,12.531-9.758c8.726-1.163,17.172-3.704,25.731-5.66c7.213-1.748,12.414-6.739,17.729-11.387
			c14.386-12.642,26.938-26.614,30.744-46.281c3.401-17.671,2.103-35.254-1.732-52.688c-1.181-5.5-2.324-11.101-5.369-16.027
			c-4.915-13.996-11.022-27.502-17.628-40.79c-2.305-4.655-4.423-9.367-7.982-13.266c-1.461-2.455-2.867-4.883-1.753-7.892
			c5.115-3.338,6.67,1.32,8.288,4.192c5.153,8.974,9.438,18.38,13.6,27.81C275.989,56.839,281.396,70.104,285.746,83.767z"/>
		<path fill="#833527" d="M195.971,214.725c11.25,6.84,22.283,2.242,33.307-0.681c1.566-0.424,3.168-0.858,4.718-1.303
			c3.271,1.657,6.255-2.161,9.519-0.509c-6.806,5.795-14.971,9.236-22.813,13.242c-5.029,6.307-30.424,13.094-37.325,9.969
			c-2.174-1.004-3.93-2.59-5.442-4.459c-1.43-2.334-1.664-4.787-0.852-7.41c2.567-4.479,6.335-7.741,10.925-10.123
			C190.812,212.916,193.785,211.518,195.971,214.725z"/>
		<path fill="#8C3426" d="M285.746,83.767c-3.649-8.855-7.415-17.724-10.97-26.628c-5.56-13.906-12.239-27.258-19.267-40.453
			c-1.304-2.407-2.271-6.137-6.576-4.574c-1.61-0.074-2.51-1.174-3.153-2.408c-3.313-6.259-7.668-11.474-14.275-14.487
			c-1.064-0.466-1.778-1.45-1.869-2.726c0.907,0.006,1.843-0.08,2.735,0.051c1.751,0.312,3.558,2.496,5.147,1.008
			c2.18-2.027-1.3-3.543-1.229-5.549c10.872,6.714,16.771,17.443,22.312,28.307c10.147,19.869,18.534,40.519,26.365,61.396
			C285.721,79.662,286.763,81.586,285.746,83.767z"/>
		<path fill="#8C3426" d="M289.926,127.338c-1.696-10.857,0.267-21.967-2.186-32.824c-0.638-2.847-2.667-5.676-1.252-8.873
			C293.19,99.097,292.572,113.122,289.926,127.338z"/>
		<path fill="#78281E" d="M266.027,22.635c5.23,5.34,6.348,12.531,8.645,19.21C269.459,36.473,268.323,29.286,266.027,22.635z"/>
		<path fill="#6E3226" d="M220.698,225.477c-7.096,4.291-15.251,5.367-22.995,7.726c-7.145,2.19-13.601,2.496-19.396-2.966
			c-4.664-1.698-9.263-0.284-13.889,0.328c-0.063,4.442-0.213,8.885-0.477,13.313c4.814,4.377,10.361,7.587,17.413,7.765
			c-1.151-4.943,2.967-5.787,5.938-7.082c12.835-5.562,25.759-10.895,38.647-16.283c3.896-1.637,7.727-3.277,10.429-6.752
			C230.854,221.718,226.559,226.781,220.698,225.477z"/>
		<path fill="#BD3224" d="M170.162,80.799c-1.696-18.395-2.133-36.906-3.101-55.363c-2.001,0.699-3.84,1.727-5.414,3.138
			c0.272,19.129,0.164,38.267,0.737,57.394c0.359,11.961,0.158,23.937-0.055,35.913c0.146,0.479,0.317,0.953,0.557,1.42
			c1.874,1.614,3.995,1.866,6.292,1.152c0.917-0.783,1.375-1.746,0.957-2.949C170.552,107.951,171.4,94.445,170.162,80.799z"/>
		<path fill="#A11A17" d="M177.289-8.264c0.454-0.512,0.998-1.552,1.383-1.475c12.046,1.602,23.693-2.455,35.615-2.41
			c3.822,0.011,7.547,0.08,9.493,4.246c-2.625,3.129-5.526,5.821-9.41,7.263c-12.436-2.05-23.688,3.068-35.349,5.741
			C178.302,0.668,179.045-3.973,177.289-8.264z"/>
		<path fill="#B21717" d="M179.021,5.102c7.393-6.111,16.904-5.288,25.399-7.857c3.574-1.076,6.868-0.535,10.017,1.355
			c1.279,2.938,0.448,5.602-1.018,8.193c-5.211,3.438-10.794,5.771-17.237,5.514c-6.486-0.939-12.838,1.215-19.312,1.1
			C176.354,10.342,178.435,7.924,179.021,5.102z"/>
		<path fill="#030000" d="M212.303,6.966c0.71-2.803,1.425-5.591,2.134-8.366c2.706-2.719,5.234-5.73,9.344-6.502
			c1.956,0.146,3.907,0.276,5.857,0.393c9.67,3.364,15.631,10.374,19.296,19.62c0.612,2.343,1.223,4.658,1.844,6.992
			c2.391,3.609,0.296,6.709-1.149,9.879c-1.439,2.457-3.65,4.006-6.135,5.238C227.202,38.052,210.114,23.106,212.303,6.966z"/>
		<path fill="#91221A" d="M208.449,205.34c-13.077-8.29-25.473-17.422-36.414-28.513c-2.464-2.487-5.753-3.948-9.164-5.048
			c0.166,2.383,0.346,4.765,0.576,7.146c0.533,5.566,0.676,11.146,0.452,16.694c1.873,1.042,3.668,2.354,5.421,3.881
			c3.654,3.229,7.27,6.531,11.041,9.654c2.486,2.041,4.238,5.107,7.935,5.312c2.557,0.084,5.104,0.181,7.675,0.259
			c4.317-2.762,8.623-5.531,12.919-8.274C208.741,206.061,208.6,205.689,208.449,205.34z"/>
		<path fill="#9D4634" d="M276.898,72.195c10.141,23.826,12.39,48.391,6.548,73.622c-5.693,24.691-23.683,39.744-42.799,53.772
			c-1.802,1.332-4.393,1.588-6.581,2.366c-0.617-4.002,3.22-5.15,4.933-7.637c7.366-5.305,15.237-10.051,20.016-18.172
			c19.529-18.44,22.013-41.795,19.225-66.651c0.048-6.586-0.585-13.111-1.272-19.649c0.151-3.702-0.923-7.248-1.336-10.873
			C275.343,76.639,273.902,73.957,276.898,72.195z"/>
		<path fill="#A83829" d="M276.898,72.195c-1.228,6.029,2.786,11.613,1.541,17.658c-3.481-0.629-3.725-3.79-4.668-6.199
			c-1.791-4.503-3.896-8.812-6.701-12.777c-5.208-8.441-6.021-18.628-11.031-27.266c-2.826-4.783-5.576-9.743-7.907-14.861
			c0.394-3.337,3.12-6.059,2.646-9.646c5.108,2.593,6.268,7.965,8.475,12.48C265.825,44.816,272.297,58.097,276.898,72.195z"/>
		<path fill="#A03527" d="M240.081,195.282c-2.015,2.225-4.031,4.461-6.015,6.674c-8.47,1.125-16.312,5.633-25.177,4.493
			l-0.012-0.047c3.354-6.092,10.216-8.575,14.348-13.889c2.536-1.556,4.794-3.955,8.295-3.104
			C233.768,192.197,237.351,193.154,240.081,195.282z"/>
		<path fill="#802018" d="M165.454,194.236c-0.492-0.36-0.983-0.696-1.48-1.019c-0.04,2.087-0.135,4.169-0.283,6.245
			c0.107,1.592,0.209,3.186,0.276,4.779c0.144,3.345,0.257,6.705,0.345,10.072c2.206,2.067,4.372,4.172,6.545,6.271
			c1.946,1.862,3.764,4.365,7.122,3.296c3.434-3.128,6.866-6.271,10.316-9.416C181.272,207.07,173.658,200.297,165.454,194.236z"/>
		<path fill="#712119" d="M164.396,232.178c4.676-0.214,9.329-0.738,13.911-1.941c-0.098-2.125-0.193-4.25-0.329-6.354
			c-5.686-2.732-8.812-8.438-13.732-12.031C164.451,218.602,164.528,225.391,164.396,232.178z"/>
		<path fill="#9D271E" d="M222.611,191.48c-2.11-0.614-4.243-0.275-6.305,0.139c-10.69,2.179-18.604-1.82-25.277-10.07
			c-5.628-6.959-11.318-13.746-15.534-21.706c-2.28-4.325-5.286-8.307-9.204-11.421c-1.091-0.451-2.218-0.732-3.374-0.91
			c-0.294-0.045-0.573-0.08-0.852-0.117c0.037,8.889,0.287,17.77,0.97,26.639c5.201,2.389,9.831,5.398,13.883,9.742
			c9.021,9.72,19.714,17.354,31.961,22.627c5.551-3.911,11.602-7.295,15.183-13.438C223.762,192.277,223.265,191.791,222.611,191.48
			z"/>
		<path fill="#AA2F23" d="M168.982,124.096c-1.811-1.004-3.766-1.107-5.768-0.971c-0.296,0.287-0.609,0.557-0.922,0.825
			c-0.147,8.389-0.283,16.776-0.221,25.157c0.128,0.019,0.248,0.033,0.378,0.052c1.162,0.165,2.268,0.558,3.393-0.142
			c5.56-3.312,4.349-9.688,6.57-14.517C172.912,130.486,172.172,126.891,168.982,124.096z"/>
		<path fill="#C00013" d="M248.271,37.359c-0.98-2.146-2.247-4.201-4.998-4.446c-8.295,2.095-15.12-0.7-21.088-6.298
			c-5.739-5.33-8.38-12.209-9.883-19.649c-5.281,1.73-10.557,3.48-15.856,5.254c-6.747-3.224-13.219-2.239-19.576,1.187
			c-2.273,4.817-5.57,8.819-9.808,12.029c-1.961,1.495-1.941,3.596-1.707,5.747c1.694,15.639,1.258,31.393,2.808,47.026
			c1.177,12.16,0.993,24.322,0.528,36.502c-0.082,2.557-0.627,5.199,1.39,7.348c4.434,1.836,10.196,0.989,13.19,5.629
			c4.136,6.317,8.801,5.867,14.119,1.91c0.124-0.322,0.219-0.639,0.307-0.955c0.049,0.099,0.095,0.196,0.146,0.295
			c0.623,6.375,3.575,11.203,8.41,15.588c4.963,4.496,10.595,8.636,13.389,15.166c0.775,1.783,2.288,3.15,4.434,2.896
			c2.07-0.237,2.148-2.213,2.523-3.745c0.294-1.158,0.824-2.205,1.398-3.232c4.613-8.713,10.893-14.797,21.763-13.674
			c1.208,0.125,2.263-0.543,3.169-1.387c3.227-4.683,5.436-9.9,6.687-15.4C266.694,94.501,260.884,65.482,248.271,37.359z"/>
		<path fill="#B31516" d="M197.843,128.938c4.532,14.106,20,19.568,25.075,33.086c3.499-1.732-0.087-5.842,3.607-6.66
			c3.14,6.136,2.341,13.254,4.807,19.562c-1.148,4.927-4.898,7.134-9.119,8.896c-7.295,0.757-13.645-2.279-18.784-6.555
			c-7.129-5.935-14.045-12.443-18.018-21.227c-1.848-4.162-4.948-7.365-7.72-10.838c-2.962-3.669-5.788-7.393-6.354-12.311
			c-0.77-2.934-1.557-5.863-2.354-8.795c0.391-0.849,0.782-1.736,1.153-2.594c6.823-0.77,12.557,0.744,16.314,7.12
			c1.911,3.25,4.233,4.431,6.927,0.487C194.625,127.279,196.312,128.449,197.843,128.938z"/>
		<path fill="#B92E22" d="M251.782,140.257c11.985-24.321,10.966-49.468,4.574-74.893c-2.87-11.374-6.451-22.556-13.083-32.451
			c1.614-1.382,3.231-2.774,4.858-4.163c2.176,0.687,3.124,2.435,4.313,4.297c7.361,11.474,10.124,24.93,16.066,37.031
			c6.752,22.842,4.161,45.295-2.896,67.527c-2.279,7.105-4.414,7.881-11.555,5.319C253.036,142.279,252.123,141.479,251.782,140.257
			z"/>
		<path fill="#AD523C" d="M279.43,108.868c2.512,14.437,2.483,28.897-1.917,42.893c-3.214,10.159-10.396,18.095-17.381,25.976
			c-3.605,2.412-6.871,3.01-9.253-1.615c0.188-1.234,0.807-2.253,1.796-2.91c6.511-4.426,8.646-10.87,8.64-18.33
			c0-1.896,0.062-3.785,1.066-5.48c5.703-10.93,8.957-22.737,13.042-34.26C276.312,112.741,276.62,110.027,279.43,108.868z"/>
		<path fill="#B24431" d="M279.43,108.868c-3.947,12.207-7.229,24.681-12.834,36.302c-1.032,2.229-1.24,5.229-4.517,5.729
			c-3.203-2.75-7.304-4.732-7.975-9.566c7.268,2.488,8.339,1.408,10.72-6.67c6.062-20.637,7.133-41.429,3.278-62.54
			c-0.124-0.629,0.276-1.352,0.409-2.043c4.933,5.766,6.114,13.426,9.928,19.775C279.538,96.15,280.306,102.475,279.43,108.868z"/>
		<path fill="#AB3F2E" d="M251.245,177.023c2.948,0.39,5.786,2.236,8.887,0.711c-4.906,7.889-12.308,12.926-20.051,17.548
			c-3.924-0.005-7.798-0.054-8.553-5.244c-0.312-0.653-0.611-1.562-0.182-2.034c3.483-3.914,3.769-8.24,1.972-12.934
			C239.304,175.616,245.316,175.986,251.245,177.023z"/>
		<path fill="#AF281F" d="M233.3,175.404c9.61,6.093,0.02,9.892-1.771,14.634c-2.479,0.971-4.979,1.957-7.468,2.925
			c-0.426-0.204-0.854-0.404-1.31-0.596c-1.365-3.098-3.085-6.176-0.485-9.487c2.908-2.86,7.001-4.577,8.497-8.821
			C231.934,173.871,232.805,174.284,233.3,175.404z"/>
		<path fill="#A71C18" d="M222.267,182.88c-0.453,3.188,1.631,6.282,0.485,9.487c-14.815,4.385-25.854,0.041-35.581-12.305
			c-7.877-9.916-13.121-21.476-21.328-31.045c1.839-5.369,3.659-10.742,5.494-16.127c4.914,9.361,12.272,17.049,17.853,26.076
			C196.567,170.861,206.522,181.473,222.267,182.88z"/>
		<path fill="#090000" d="M233.3,175.404c-0.854-0.432-1.686-0.891-2.536-1.346c-4.384-5.562-4.415-12.105-4.238-18.697
			c6.788-13.034,12.361-16.367,25.25-15.094c0.759,0.346,1.56,0.696,2.329,1.062c3.113,2.812,6.402,5.482,7.991,9.561
			c3.424,11.637-2.108,19.559-10.851,26.133C245.009,179.206,239.089,178.176,233.3,175.404z"/>
	</g>
</g>
</svg>
