<?xml version="1.0" encoding="utf-8"?>
<!-- Generator: Adobe Illustrator 16.0.4, SVG Export Plug-In . SVG Version: 6.00 Build 0)  -->
<!DOCTYPE svg PUBLIC "-//W3C//DTD SVG 1.1//EN" "http://www.w3.org/Graphics/SVG/1.1/DTD/svg11.dtd">
<svg version="1.1" id="Calque_1" xmlns="http://www.w3.org/2000/svg" xmlns:xlink="http://www.w3.org/1999/xlink" x="0px" y="0px"
	 width="435px" height="300px" viewBox="-55 -37.5 435 300" enable-background="new -55 -37.5 435 300" xml:space="preserve">
<g>
	<g>
		<path d="M-1.334,8.768h-1.25c-3.797,0-5.898-2.114-5.898-5.969V-7.469h1.322c1.321,0,2.005,0.75,2.005,2.351v7.707
			c0,2.444,0.566,3.337,2.995,3.337h0.826c1.534,0,2.784-0.353,3.373-0.588v1.105C2.039,7.852,1.332,8.768-1.334,8.768z"/>
		<path d="M3.92-1.593H3.283v-0.141c0.637-0.587,1.086-1.739,1.086-2.42c0-0.445-0.118-0.798-0.377-1.058
			C3.638-5.564,3.354-5.846,3.354-6.574c0-0.963,0.779-1.739,1.84-1.739c1.228,0,2.029,0.94,2.029,2.68
			C7.222-3.568,5.736-1.593,3.92-1.593z"/>
		<path d="M14.58,3.645h-2.076c0.235,1.598,1.698,2.608,3.562,2.608c1.321,0,2.878-0.257,3.892-1.197h0.118v0.987
			c0,1.621-1.109,2.867-4.601,2.867c-3.161,0-6.25-2.491-6.25-6.368c0-4.231,2.594-6.885,6.227-6.885
			c2.642,0,5.095,1.879,5.095,4.912C20.548,2.893,18.78,3.645,14.58,3.645z M15.169-1.712c-1.534,0-2.594,1.247-2.665,2.703
			l-0.024,0.423h1.415c2.995,0,3.681-0.33,3.681-1.223C17.577-1.078,16.633-1.712,15.169-1.712z"/>
		<path d="M33.329,8.628c-1.416,0-2.313-0.894-2.313-2.068V1.532c0-2.139-0.944-3.079-2.572-3.079c-1.368,0-2.312,1.034-2.312,2.843
			v7.332H25.19c-1.347,0-2.22-0.894-2.22-2.068V1.085c0-2.679,1.769-5.428,5.733-5.428c2.994,0,5.474,1.997,5.474,5.592v7.379
			H33.329z"/>
		<path d="M41.083,8.91c-2.334,0-4.082-1.199-4.082-2.491V4.986h0.118c0.685,0.634,2.314,1.197,3.821,1.197
			c1.555,0,2.312-0.447,2.312-1.387c0-0.729-0.447-1.082-2.642-1.386c-2.689-0.376-3.986-1.434-3.986-3.361
			c0-2.374,2.146-4.395,5.399-4.395c2.878,0,4.057,1.48,4.057,2.703v1.197h-0.118c-0.662-0.658-2.124-1.174-3.636-1.174
			c-1.931,0-2.544,0.586-2.544,1.409c0,0.636,0.376,0.894,2.544,1.247c2.645,0.423,4.057,1.575,4.057,3.595
			C46.388,7.311,44.501,8.91,41.083,8.91z"/>
		<path d="M53.604,3.645h-2.076c0.236,1.598,1.699,2.608,3.561,2.608c1.319,0,2.876-0.257,3.891-1.197h0.119v0.987
			c0,1.621-1.108,2.867-4.601,2.867c-3.162,0-6.252-2.491-6.252-6.368c0-4.231,2.594-6.885,6.227-6.885
			c2.642,0,5.097,1.879,5.097,4.912C59.572,2.893,57.803,3.645,53.604,3.645z M54.193-1.712c-1.533,0-2.594,1.247-2.664,2.703
			l-0.024,0.423h1.415c2.996,0,3.681-0.33,3.681-1.223C56.599-1.078,55.656-1.712,54.193-1.712z"/>
		<path d="M79.711,8.628c-1.722,0-2.407-0.8-2.407-2.304V1.438c0-2.092-0.943-2.984-2.334-2.984c-1.273,0-2.147,0.892-2.147,2.632
			v7.543h-0.851c-1.392,0-2.313-0.8-2.313-2.304V1.438c0-2.092-0.968-2.984-2.361-2.984c-1.226,0-2.147,0.964-2.147,2.702v7.472
			h-0.85c-1.297,0-2.288-0.847-2.288-2.304V1.412c0-3.455,1.815-5.757,5.661-5.757c1.647,0,2.947,0.752,3.868,1.974
			c0.732-1.175,2.123-1.974,3.655-1.974c2.927,0,5.285,1.763,5.285,5.358v7.614L79.711,8.628L79.711,8.628z"/>
		<path d="M89.586,8.91c-3.255,0-5.993-2.656-5.993-6.463v-10.74h1.086c1.226,0,2.076,0.706,2.076,2.187v3.689
			c0.639-0.917,1.722-1.926,3.445-1.926c3.231,0,5.708,2.631,5.708,6.368C95.908,5.831,93.456,8.91,89.586,8.91z M89.586-1.547
			c-1.604,0-2.809,1.575-2.809,3.548c0,2.915,1.252,4.112,3.138,4.112c1.583,0,2.713-1.504,2.713-3.548
			C92.628-0.513,91.52-1.547,89.586-1.547z"/>
		<path d="M102.578,8.744c-2.619,0-4.034-1.387-4.034-3.948V-8.292h0.894c1.583,0,2.267,0.917,2.267,2.114V4.492
			c0,1.268,0.658,1.668,2.147,1.668h0.85v0.681C104.701,8.204,103.969,8.744,102.578,8.744z"/>
		<path d="M110.876,3.645h-2.077c0.239,1.598,1.7,2.608,3.563,2.608c1.318,0,2.876-0.257,3.891-1.197h0.119v0.987
			c0,1.621-1.108,2.867-4.602,2.867c-3.162,0-6.253-2.491-6.253-6.368c0-4.231,2.596-6.885,6.229-6.885
			c2.641,0,5.096,1.879,5.096,4.912C116.845,2.893,115.077,3.645,110.876,3.645z M111.467-1.712c-1.534,0-2.594,1.247-2.664,2.703
			l-0.025,0.423h1.417c2.996,0,3.681-0.33,3.681-1.223C113.874-1.078,112.927-1.712,111.467-1.712z"/>
		<path d="M129.833,8.91c-3.349,0-5.921-2.915-5.921-6.392c0-4.159,2.031-6.861,5.731-6.861c1.274,0,2.666,0.893,3.16,1.998v-5.945
			h0.969c1.511,0,2.169,0.869,2.169,2.138v8.929C135.945,6.465,134.2,8.91,129.833,8.91z M129.669-1.689
			c-1.604,0-2.644,1.552-2.644,3.596c0,2.632,1.368,4.347,3.187,4.347c1.767,0,2.544-1.314,2.544-3.619
			C132.759-0.536,131.369-1.689,129.669-1.689z"/>
		<path d="M143.77,3.645h-2.074c0.234,1.598,1.698,2.608,3.561,2.608c1.322,0,2.877-0.257,3.892-1.197h0.118v0.987
			c0,1.621-1.108,2.867-4.602,2.867c-3.159,0-6.249-2.491-6.249-6.368c0-4.231,2.594-6.885,6.227-6.885
			c2.643,0,5.095,1.879,5.095,4.912C149.738,2.893,147.969,3.645,143.77,3.645z M144.36-1.712c-1.534,0-2.595,1.247-2.666,2.703
			l-0.024,0.423h1.414c2.995,0,3.681-0.33,3.681-1.223C146.765-1.078,145.822-1.712,144.36-1.712z"/>
		<path d="M156.006,8.91c-2.334,0-4.081-1.199-4.081-2.491V4.986h0.118c0.686,0.634,2.314,1.197,3.821,1.197
			c1.555,0,2.312-0.447,2.312-1.387c0-0.729-0.447-1.082-2.644-1.386c-2.688-0.376-3.985-1.434-3.985-3.361
			c0-2.374,2.147-4.395,5.401-4.395c2.875,0,4.054,1.48,4.054,2.703v1.197h-0.118c-0.662-0.658-2.123-1.174-3.634-1.174
			c-1.932,0-2.546,0.586-2.546,1.409c0,0.636,0.376,0.894,2.546,1.247c2.646,0.423,4.057,1.575,4.057,3.595
			C161.312,7.311,159.429,8.91,156.006,8.91z"/>
		<path fill="#C53518" d="M173.762,3.645h-2.075c0.235,1.598,1.699,2.608,3.563,2.608c1.319,0,2.874-0.257,3.89-1.197h0.12v0.987
			c0,1.621-1.111,2.867-4.603,2.867c-3.159,0-6.25-2.491-6.25-6.368c0-4.231,2.595-6.885,6.226-6.885
			c2.642,0,5.096,1.879,5.096,4.912C179.73,2.893,177.961,3.645,173.762,3.645z M174.353-1.712c-1.534,0-2.596,1.247-2.666,2.703
			l-0.023,0.423h1.414c2.996,0,3.681-0.33,3.681-1.223C176.758-1.078,175.814-1.712,174.353-1.712z M176.24-6.481
			c-0.779,0.329-1.866,0.563-2.712,0.563h-1.062v-0.117c0.519-0.8,1.086-1.575,1.77-2.187c0.753-0.681,1.32-1.128,2.24-1.128
			c0.779,0,1.32,0.354,1.32,1.199C177.796-7.471,177.208-6.881,176.24-6.481z"/>
		<path fill="#C53518" d="M186.308,8.744c-2.619,0-4.034-1.387-4.034-3.948V-8.292h0.895c1.582,0,2.263,0.917,2.263,2.114V4.492
			c0,1.268,0.661,1.668,2.147,1.668h0.849v0.681C188.431,8.204,187.698,8.744,186.308,8.744z"/>
		<path fill="#C53518" d="M195.455,8.91c-3.138,0-5.613-2.07-5.613-5.757v-7.213h0.588c1.817,0,2.62,0.774,2.62,2.254v4.652
			c0,2.327,1.132,3.267,2.569,3.267c1.3,0,2.22-0.893,2.22-3.055v-7.12h0.564c1.841,0,2.619,0.775,2.619,2.254V2.94
			C201.022,6.889,199.159,8.91,195.455,8.91z"/>
		<path fill="#C53518" d="M207.927,8.91c-2.334,0-4.081-1.199-4.081-2.491V4.986h0.121c0.682,0.634,2.311,1.197,3.819,1.197
			c1.555,0,2.313-0.447,2.313-1.387c0-0.729-0.45-1.082-2.644-1.386c-2.689-0.376-3.986-1.434-3.986-3.361
			c0-2.374,2.146-4.395,5.401-4.395c2.874,0,4.056,1.48,4.056,2.703v1.197h-0.12c-0.659-0.658-2.123-1.174-3.632-1.174
			c-1.935,0-2.549,0.586-2.549,1.409c0,0.636,0.38,0.894,2.549,1.247c2.642,0.423,4.057,1.575,4.057,3.595
			C213.236,7.311,211.349,8.91,207.927,8.91z"/>
	</g>
	<g>
		<path d="M-3.127,31.889h-2.076c0.235,1.598,1.698,2.608,3.562,2.608c1.321,0,2.878-0.257,3.892-1.197h0.118v0.986
			c0,1.622-1.109,2.867-4.601,2.867c-3.161,0-6.25-2.491-6.25-6.369c0-4.23,2.594-6.885,6.227-6.885c2.642,0,5.095,1.88,5.095,4.912
			C2.841,31.137,1.072,31.889-3.127,31.889z M-2.538,26.529c-1.534,0-2.594,1.247-2.665,2.703l-0.024,0.423h1.415
			c2.995,0,3.681-0.329,3.681-1.223C-0.131,27.167-1.075,26.529-2.538,26.529z"/>
		<path d="M6.302,22.186c0.425-0.494,0.991-0.87,1.486-0.87h0.73v2.867h4.412v1.292c0,0.659-0.59,1.504-1.888,1.504H8.519v4.959
			c0,1.644,0.731,2.28,2.005,2.28c1.014,0,1.792-0.141,2.287-0.446h0.118v1.127c0,1.293-0.944,2.115-2.784,2.115
			c-3.208,0-4.765-1.738-4.765-4.699v-7.613C5.383,23.453,5.619,22.982,6.302,22.186z"/>
		<path d="M24.2,36.988c-2.619,0-4.034-1.387-4.034-3.949V19.952h0.896c1.58,0,2.265,0.917,2.265,2.115v10.669
			c0,1.268,0.661,1.668,2.147,1.668h0.848v0.681C26.323,36.447,25.592,36.988,24.2,36.988z"/>
		<path d="M27.971,26.649h-0.637v-0.141c0.637-0.586,1.085-1.738,1.085-2.42c0-0.445-0.118-0.799-0.377-1.057
			c-0.354-0.353-0.637-0.635-0.637-1.361c0-0.964,0.779-1.74,1.84-1.74c1.228,0,2.029,0.94,2.029,2.68
			C31.274,24.676,29.788,26.649,27.971,26.649z"/>
		<path d="M38.631,31.889h-2.077c0.236,1.598,1.699,2.608,3.562,2.608c1.321,0,2.877-0.257,3.893-1.197h0.118v0.986
			c0,1.622-1.11,2.867-4.601,2.867c-3.161,0-6.25-2.491-6.25-6.369c0-4.23,2.594-6.885,6.228-6.885c2.643,0,5.096,1.88,5.096,4.912
			C44.599,31.137,42.831,31.889,38.631,31.889z M39.221,26.529c-1.534,0-2.594,1.247-2.665,2.703l-0.023,0.423h1.414
			c2.996,0,3.681-0.329,3.681-1.223C41.627,27.167,40.684,26.529,39.221,26.529z M41.108,21.761
			c-0.779,0.329-1.865,0.564-2.714,0.564h-1.061v-0.117c0.52-0.8,1.085-1.575,1.77-2.187c0.755-0.682,1.321-1.128,2.241-1.128
			c0.779,0,1.321,0.354,1.321,1.199C42.665,20.775,42.076,21.361,41.108,21.761z"/>
		<path d="M58.559,30.292v10.575l-1.037-0.024c-1.319-0.023-2.099-0.657-2.099-2.09v-3.244c-0.521,1.034-1.815,1.646-3.09,1.646
			c-3.186,0-5.898-2.515-5.898-6.251c0-3.994,2.594-7.002,6.463-7.002C56.554,23.9,58.559,26.32,58.559,30.292z M49.595,30.337
			c0,2.608,1.108,4.019,3.066,4.019c1.769,0,2.76-1.057,2.76-3.689c0-2.702-1.014-3.972-2.926-3.972
			C51.055,26.695,49.595,28.035,49.595,30.337z"/>
		<path d="M67.232,37.154c-3.138,0-5.614-2.07-5.614-5.758v-7.213h0.589c1.815,0,2.619,0.774,2.619,2.254v4.652
			c0,2.327,1.133,3.267,2.57,3.267c1.299,0,2.217-0.893,2.217-3.055v-7.12h0.567c1.84,0,2.62,0.774,2.62,2.255v4.748
			C72.8,35.132,70.937,37.154,67.232,37.154z"/>
		<path d="M77.817,23.289c-1.015,0-1.838-0.846-1.838-1.857s0.823-1.832,1.838-1.832s1.866,0.821,1.866,1.832
			S78.831,23.289,77.817,23.289z M80.057,36.988c-2.452,0-3.796-1.387-3.796-3.949v-8.577h0.894c1.417,0,2.265,0.752,2.265,2.35
			v5.921c0,1.268,0.541,1.668,1.934,1.668h0.586v0.682C81.944,36.447,81.404,36.988,80.057,36.988z"/>
		<path d="M90.128,37.154c-1.415,0-2.572-0.8-3.207-1.88v5.592h-0.99c-1.134,0-2.216-0.822-2.216-2.186v-7.66
			c0-4.206,1.887-7.12,6.368-7.12c3.374,0,5.779,3.055,5.779,6.25C95.86,34.216,93.831,37.154,90.128,37.154z M89.586,26.695
			c-1.747,0-2.713,1.504-2.713,3.689c0,2.537,1.251,3.972,3.138,3.972c1.534,0,2.594-1.362,2.594-3.384
			C92.605,27.988,91.612,26.695,89.586,26.695z"/>
		<path d="M103.097,31.889h-2.076c0.236,1.598,1.698,2.608,3.559,2.608c1.321,0,2.877-0.257,3.892-1.197h0.119v0.986
			c0,1.622-1.108,2.867-4.601,2.867c-3.161,0-6.25-2.491-6.25-6.369c0-4.23,2.594-6.885,6.225-6.885c2.642,0,5.097,1.88,5.097,4.912
			C109.065,31.137,107.295,31.889,103.097,31.889z M103.686,26.529c-1.533,0-2.594,1.247-2.664,2.703l-0.024,0.423h1.415
			c2.996,0,3.681-0.329,3.681-1.223C106.092,27.167,105.148,26.529,103.686,26.529z"/>
		<path d="M122.051,37.154c-3.349,0-5.918-2.915-5.918-6.393c0-4.158,2.029-6.861,5.73-6.861c1.274,0,2.665,0.894,3.16,1.997v-5.945
			h0.968c1.51,0,2.171,0.87,2.171,2.139v8.929C128.165,34.709,126.418,37.154,122.051,37.154z M121.887,26.555
			c-1.602,0-2.642,1.552-2.642,3.596c0,2.632,1.367,4.347,3.186,4.347c1.768,0,2.545-1.314,2.545-3.619
			C124.979,27.707,123.586,26.555,121.887,26.555z"/>
		<path d="M136.838,37.154c-3.138,0-5.614-2.07-5.614-5.758v-7.213h0.589c1.815,0,2.619,0.774,2.619,2.254v4.652
			c0,2.327,1.133,3.267,2.57,3.267c1.298,0,2.216-0.893,2.216-3.055v-7.12h0.567c1.84,0,2.62,0.774,2.62,2.255v4.748
			C142.406,35.132,140.543,37.154,136.838,37.154z"/>
		<path fill="#C53518" d="M155.51,37.154c-3.254,0-4.929-1.27-4.929-3.174v-1.433h0.072c1.085,0.963,2.545,1.74,4.504,1.74
			c2.428,0,3.207-0.822,3.207-2.115c0-1.105-0.423-1.598-3.846-2.327c-2.737-0.587-4.292-1.951-4.292-4.136
			c0-2.68,2.263-5.217,6.062-5.217c3.774,0,4.86,1.598,4.86,2.937v1.48h-0.094c-0.99-1.058-2.428-1.575-4.199-1.575
			c-2.501,0-3.424,0.823-3.424,2.068c0,0.964,0.753,1.551,3.774,2.186c2.949,0.612,4.385,2.139,4.385,4.301
			C161.597,35.06,159.427,37.154,155.51,37.154z"/>
		<path fill="#C53518" d="M166.215,36.871c-0.943,0-1.958-0.728-1.958-2.139V20.775h1.461c0.826,0,1.724,0.681,1.724,1.715v14.381
			H166.215L166.215,36.871z"/>
		<path fill="#C53518" d="M180.059,23.594h-2.974v13.276h-1.298c-1.134,0-1.958-0.728-1.958-2.161V23.594h-4.647v-1.059
			c0-0.774,0.637-1.761,1.958-1.761h10.85v1.01C181.991,22.559,181.12,23.594,180.059,23.594z"/>
	</g>
	<g>
		<path fill="#1E1E1C" d="M-3.362,94.689c-2.62,0-4.035-1.385-4.035-3.948V77.655h0.896c1.581,0,2.265,0.917,2.265,2.115v10.669
			c0,1.27,0.662,1.668,2.147,1.668h0.848v0.682C-1.24,94.15-1.97,94.689-3.362,94.689z"/>
		<path fill="#1E1E1C" d="M4.938,89.592H2.861C3.097,91.189,4.56,92.2,6.423,92.2c1.321,0,2.877-0.257,3.892-1.197h0.119v0.987
			c0,1.622-1.11,2.866-4.601,2.866c-3.162,0-6.251-2.489-6.251-6.368c0-4.231,2.594-6.885,6.228-6.885
			c2.643,0,5.096,1.879,5.096,4.913C10.906,88.84,9.136,89.592,4.938,89.592z M5.526,84.233c-1.534,0-2.594,1.247-2.665,2.702
			l-0.024,0.422h1.415c2.995,0,3.681-0.33,3.681-1.223C7.933,84.869,6.989,84.233,5.526,84.233z"/>
		<path fill="#1E1E1C" d="M18.944,94.856c-3.138,0-5.614-2.071-5.614-5.757v-7.214h0.589c1.816,0,2.62,0.775,2.62,2.255v4.65
			c0,2.328,1.132,3.268,2.571,3.268c1.297,0,2.218-0.893,2.218-3.055v-7.12h0.566c1.84,0,2.62,0.773,2.62,2.253v4.75
			C24.511,92.834,22.648,94.856,18.944,94.856z"/>
		<path fill="#1E1E1C" d="M34.789,84.963c-0.473-0.191-1.014-0.376-1.84-0.376c-1.415,0-2.194,0.776-2.194,2.701v7.285h-0.873
			c-1.415,0-2.312-0.703-2.312-2.021v-5.828c0-2.536,1.344-4.958,4.694-4.958c1.958,0,2.642,1.105,2.642,2.07v1.128H34.789z"/>
		<path fill="#1E1E1C" d="M40.52,94.856c-2.337,0-4.083-1.197-4.083-2.489v-1.435h0.118c0.685,0.636,2.312,1.197,3.821,1.197
			c1.557,0,2.313-0.448,2.313-1.388c0-0.727-0.45-1.082-2.644-1.386c-2.688-0.375-3.985-1.432-3.985-3.36
			c0-2.375,2.147-4.396,5.401-4.396c2.878,0,4.058,1.48,4.058,2.703V85.5h-0.118c-0.66-0.659-2.125-1.176-3.633-1.176
			c-1.934,0-2.548,0.586-2.548,1.41c0,0.636,0.378,0.894,2.548,1.247c2.643,0.423,4.057,1.575,4.057,3.595
			C45.826,93.257,43.938,94.856,40.52,94.856z"/>
		<path fill="#C53518" d="M71.224,94.572c-1.723,0-2.406-0.8-2.406-2.303v-4.888c0-2.091-0.943-2.984-2.336-2.984
			c-1.273,0-2.147,0.894-2.147,2.634v7.542h-0.85c-1.391,0-2.312-0.8-2.312-2.303v-4.888c0-2.091-0.967-2.984-2.358-2.984
			c-1.229,0-2.147,0.966-2.147,2.702v7.472h-0.852c-1.297,0-2.288-0.847-2.288-2.305v-4.912c0-3.454,1.814-5.756,5.661-5.756
			c1.651,0,2.95,0.75,3.87,1.971c0.732-1.174,2.123-1.971,3.656-1.971c2.926,0,5.283,1.762,5.283,5.358v7.615h-0.774V94.572z"/>
		<path fill="#C53518" d="M79.823,89.592h-2.075c0.235,1.598,1.7,2.608,3.562,2.608c1.32,0,2.876-0.257,3.89-1.197h0.12v0.987
			c0,1.622-1.111,2.866-4.603,2.866c-3.157,0-6.25-2.489-6.25-6.368c0-4.231,2.595-6.885,6.227-6.885
			c2.644,0,5.096,1.879,5.096,4.913C85.792,88.84,84.025,89.592,79.823,89.592z M80.415,84.233c-1.534,0-2.595,1.247-2.666,2.702
			l-0.024,0.422h1.414c2.996,0,3.681-0.33,3.681-1.223C82.82,84.869,81.876,84.233,80.415,84.233z"/>
		<path fill="#C53518" d="M90.173,80.991c-1.014,0-1.838-0.847-1.838-1.858c0-1.011,0.824-1.831,1.838-1.831
			c1.015,0,1.865,0.82,1.865,1.831C92.037,80.144,91.188,80.991,90.173,80.991z M92.417,94.689c-2.455,0-3.799-1.385-3.799-3.948
			v-8.575h0.897c1.415,0,2.263,0.751,2.263,2.35v5.921c0,1.268,0.541,1.669,1.931,1.669h0.59v0.68
			C94.301,94.15,93.761,94.689,92.417,94.689z"/>
		<path fill="#C53518" d="M100.22,94.689c-2.619,0-4.034-1.385-4.034-3.948V77.655h0.896c1.58,0,2.261,0.917,2.261,2.115v10.669
			c0,1.27,0.662,1.668,2.148,1.668h0.847v0.682C102.343,94.15,101.61,94.689,100.22,94.689z"/>
		<path fill="#C53518" d="M107.908,94.689c-2.62,0-4.034-1.385-4.034-3.948V77.655h0.894c1.582,0,2.263,0.917,2.263,2.115v10.669
			c0,1.27,0.661,1.668,2.148,1.668h0.85v0.682C110.031,94.15,109.299,94.689,107.908,94.689z"/>
		<path fill="#C53518" d="M116.208,89.592h-2.076c0.236,1.598,1.697,2.608,3.561,2.608c1.319,0,2.877-0.257,3.893-1.197h0.118v0.987
			c0,1.622-1.108,2.866-4.602,2.866c-3.16,0-6.25-2.489-6.25-6.368c0-4.231,2.594-6.885,6.227-6.885
			c2.644,0,5.096,1.879,5.096,4.913C122.176,88.84,120.406,89.592,116.208,89.592z M116.797,84.233
			c-1.534,0-2.594,1.247-2.663,2.702l-0.027,0.422h1.417c2.996,0,3.678-0.33,3.678-1.223
			C119.201,84.869,118.26,84.233,116.797,84.233z"/>
		<path fill="#C53518" d="M130.212,94.856c-3.137,0-5.612-2.071-5.612-5.757v-7.214h0.588c1.813,0,2.619,0.775,2.619,2.255v4.65
			c0,2.328,1.132,3.268,2.57,3.268c1.3,0,2.22-0.893,2.22-3.055v-7.12h0.564c1.84,0,2.62,0.773,2.62,2.253v4.75
			C135.781,92.834,133.917,94.856,130.212,94.856z"/>
		<path fill="#C53518" d="M146.06,84.963c-0.474-0.191-1.014-0.376-1.84-0.376c-1.415,0-2.193,0.776-2.193,2.701v7.285h-0.873
			c-1.415,0-2.311-0.703-2.311-2.021v-5.828c0-2.536,1.344-4.958,4.692-4.958c1.958,0,2.644,1.105,2.644,2.07v1.128H146.06z"/>
		<path fill="#C53518" d="M151.787,94.856c-2.334,0-4.081-1.197-4.081-2.489v-1.435h0.118c0.685,0.636,2.314,1.197,3.821,1.197
			c1.555,0,2.312-0.448,2.312-1.388c0-0.727-0.447-1.082-2.644-1.386c-2.688-0.375-3.985-1.432-3.985-3.36
			c0-2.375,2.147-4.396,5.401-4.396c2.875,0,4.054,1.48,4.054,2.703V85.5h-0.118c-0.662-0.659-2.123-1.176-3.634-1.176
			c-1.931,0-2.546,0.586-2.546,1.41c0,0.636,0.376,0.894,2.546,1.247c2.646,0.423,4.057,1.575,4.057,3.595
			C157.094,93.257,155.207,94.856,151.787,94.856z"/>
		<path fill="#C53518" d="M174,87.406c-0.85,2.325-2.264,5.379-3.681,7.307h-0.612c-0.943,0-1.44-0.328-2.075-1.269
			c-1.723-2.606-3.893-8.131-4.175-11.56h1.696c1.088,0,1.771,0.819,1.888,1.502c0.449,2.349,1.086,4.795,2.432,7.401
			c1.199-2.37,2.311-5.731,2.781-8.903h1.346c1.085,0,1.482,0.469,1.482,1.502C175.085,83.762,174.779,85.291,174,87.406z"/>
		<path fill="#C53518" d="M182.677,81.602c3.821,0,6.015,3.055,6.015,6.416c0,3.807-2.193,6.838-6.297,6.838
			c-3.822,0-6.016-3.03-6.016-6.393C176.379,84.656,178.572,81.602,182.677,81.602z M182.395,84.422
			c-1.817,0-2.737,1.504-2.737,3.595c0,2.514,0.92,4.018,3.02,4.018c1.84,0,2.736-1.504,2.736-3.573
			C185.413,85.925,184.47,84.422,182.395,84.422z"/>
		<path fill="#C53518" d="M195.928,89.592h-2.075c0.235,1.598,1.696,2.608,3.561,2.608c1.319,0,2.875-0.257,3.893-1.197h0.117v0.987
			c0,1.622-1.108,2.866-4.601,2.866c-3.161,0-6.251-2.489-6.251-6.368c0-4.231,2.594-6.885,6.226-6.885
			c2.642,0,5.097,1.879,5.097,4.913C201.896,88.84,200.126,89.592,195.928,89.592z M196.516,84.233
			c-1.534,0-2.596,1.247-2.663,2.702l-0.023,0.422h1.414c2.995,0,3.681-0.33,3.681-1.223
			C198.924,84.869,197.979,84.233,196.516,84.233z"/>
		<path fill="#C53518" d="M209.935,94.856c-3.137,0-5.615-2.071-5.615-5.757v-7.214h0.591c1.815,0,2.617,0.775,2.617,2.255v4.65
			c0,2.328,1.134,3.268,2.572,3.268c1.297,0,2.215-0.893,2.215-3.055v-7.12h0.569c1.838,0,2.616,0.773,2.616,2.253v4.75
			C215.5,92.834,213.637,94.856,209.935,94.856z"/>
		<path fill="#C53518" d="M227.737,94.76c-1.344,0-2.264-0.75-3.372-2.418l-1.394-2.091c-0.804,0.917-1.32,1.623-1.673,2.235
			c-0.427,0.727-0.591,1.36-0.709,2.138h-1.438c-0.732,0-1.299-0.494-1.299-1.127c0-1.505,0.871-2.75,2.454-4.443l1.037-1.104
			l-1.347-1.926c-1.418-2.043-2.217-3.172-2.263-4.136h1.886c0.616,0,1.392,0.398,2.81,2.396l1.297,1.833
			c2.028-2.278,2.36-2.938,2.572-4.205h1.202c0.92,0,1.297,0.636,1.297,1.34c0,0.565-0.471,1.551-1.485,2.865
			c-0.52,0.683-1.179,1.459-1.935,2.306l1.392,2.021c1.369,1.997,1.934,2.516,3.042,2.749
			C229.812,94.08,229.131,94.76,227.737,94.76z"/>
	</g>
	<g>
		<g>
			<path fill="#C53518" d="M53.854,66.756c-2.336,0-4.082-1.197-4.082-2.489v-1.435h0.118c0.684,0.635,2.313,1.197,3.82,1.197
				c1.557,0,2.313-0.447,2.313-1.387c0-0.728-0.449-1.082-2.643-1.385c-2.69-0.376-3.987-1.433-3.987-3.361
				c0-2.373,2.147-4.395,5.4-4.395c2.878,0,4.057,1.479,4.057,2.702v1.197h-0.118c-0.661-0.657-2.123-1.174-3.634-1.174
				c-1.933,0-2.545,0.586-2.545,1.41c0,0.636,0.376,0.893,2.545,1.247c2.644,0.422,4.057,1.574,4.057,3.594
				C59.163,65.158,57.275,66.756,53.854,66.756z"/>
			<path fill="#C53518" d="M67.319,53.501c3.821,0,6.015,3.055,6.015,6.416c0,3.807-2.193,6.838-6.297,6.838
				c-3.821,0-6.015-3.031-6.015-6.392C61.022,56.556,63.214,53.501,67.319,53.501z M67.037,56.323c-1.816,0-2.737,1.504-2.737,3.595
				c0,2.515,0.921,4.019,3.02,4.019c1.84,0,2.737-1.502,2.737-3.572C70.057,57.826,69.113,56.323,67.037,56.323z"/>
			<path fill="#C53518" d="M81.42,66.756c-3.139,0-5.613-2.069-5.613-5.757v-7.213h0.589c1.814,0,2.619,0.775,2.619,2.254v4.652
				c0,2.327,1.133,3.267,2.57,3.267c1.297,0,2.218-0.894,2.218-3.054v-7.121h0.566c1.84,0,2.619,0.775,2.619,2.255v4.748
				C86.988,64.734,85.122,66.756,81.42,66.756z"/>
			<path fill="#C53518" d="M100.331,66.473c-1.319,0-2.146-0.75-2.146-2.114v-5.171c0-2.068-1.133-2.889-2.525-2.889
				c-0.991,0-2.287,0.75-2.287,2.984v7.19h-1.037c-1.486,0-2.168-0.821-2.168-2.114V49.553h0.989c1.51,0,2.242,0.847,2.242,2.021
				v3.62c0.471-0.752,1.557-1.693,2.759-1.693c3.28,0,5.214,1.95,5.214,5.545v7.425L100.331,66.473L100.331,66.473z"/>
			<path fill="#C53518" d="M109.596,66.684h-0.636c-3.021,0-5.097-1.692-5.097-4.019c0-2.255,1.65-3.972,6.323-3.972h1.107v-0.164
				c0-1.785-0.849-2.326-2.736-2.326c-2.29,0-3.563,0.869-4.034,1.457h-0.118v-1.011c0-1.409,1.272-3.101,4.621-3.101
				c2.831,0,5.381,1.315,5.381,5.688v2.913C114.408,64.83,112.427,66.684,109.596,66.684z M111.319,60.951h-1.132
				c-2.408,0-3.092,0.563-3.092,1.598c0,0.986,0.802,1.574,2.194,1.574c1.368,0,2.031-0.657,2.031-1.951V60.951z"/>
			<path fill="#C53518" d="M118.861,52.891c-1.016,0-1.84-0.846-1.84-1.857c0-1.01,0.825-1.832,1.84-1.832
				c1.014,0,1.863,0.822,1.863,1.832C120.724,52.044,119.875,52.891,118.861,52.891z M121.101,66.59
				c-2.453,0-3.797-1.387-3.797-3.948v-8.578h0.895c1.417,0,2.266,0.752,2.266,2.351v5.921c0,1.268,0.54,1.668,1.934,1.668h0.587
				v0.682C122.989,66.051,122.447,66.59,121.101,66.59z"/>
			<path fill="#C53518" d="M125.793,51.787c0.423-0.493,0.99-0.869,1.485-0.869h0.731v2.866h4.411v1.292
				c0,0.658-0.588,1.504-1.887,1.504h-2.524v4.958c0,1.645,0.73,2.278,2.005,2.278c1.015,0,1.792-0.14,2.288-0.445h0.118V64.5
				c0,1.293-0.944,2.115-2.784,2.115c-3.207,0-4.766-1.74-4.766-4.699v-7.613C124.874,53.055,125.109,52.585,125.793,51.787z"/>
			<path fill="#C53518" d="M162.222,51.787c0.423-0.493,0.991-0.869,1.486-0.869h0.73v2.866h4.411v1.292
				c0,0.658-0.588,1.504-1.887,1.504h-2.524v4.958c0,1.645,0.73,2.278,2.004,2.278c1.016,0,1.793-0.14,2.287-0.445h0.119V64.5
				c0,1.293-0.943,2.115-2.784,2.115c-3.207,0-4.766-1.74-4.766-4.699v-7.613C161.301,53.055,161.538,52.585,162.222,51.787z"/>
			<path fill="#C53518" d="M139.069,61.492h-2.077c0.236,1.597,1.699,2.608,3.562,2.608c1.319,0,2.877-0.256,3.893-1.196h0.118
				v0.985c0,1.623-1.11,2.867-4.602,2.867c-3.161,0-6.25-2.489-6.25-6.368c0-4.23,2.594-6.886,6.228-6.886
				c2.642,0,5.096,1.88,5.096,4.912C145.038,60.74,143.269,61.492,139.069,61.492z M139.661,56.133
				c-1.534,0-2.594,1.247-2.665,2.703l-0.024,0.422h1.415c2.996,0,3.681-0.329,3.681-1.223
				C142.066,56.77,141.121,56.133,139.661,56.133z"/>
		</g>
		<g>
			<path fill="#1E1E1C" d="M2.063,58.539c-0.85,2.325-2.263,5.38-3.681,7.307H-2.23c-0.943,0-1.438-0.328-2.077-1.268
				c-1.72-2.608-3.891-8.131-4.175-11.562h1.7c1.087,0,1.77,0.821,1.887,1.504c0.447,2.349,1.085,4.793,2.428,7.401
				c1.202-2.372,2.312-5.733,2.784-8.905h1.344c1.085,0,1.487,0.471,1.487,1.504C3.147,54.895,2.841,56.421,2.063,58.539z"/>
			<path fill="#1E1E1C" d="M10.737,52.734c3.82,0,6.015,3.055,6.015,6.416c0,3.807-2.195,6.839-6.298,6.839
				c-3.821,0-6.015-3.031-6.015-6.392C4.439,55.789,6.633,52.734,10.737,52.734z M10.454,55.555c-1.815,0-2.734,1.504-2.734,3.594
				c0,2.515,0.919,4.019,3.02,4.019c1.837,0,2.734-1.504,2.734-3.572C13.474,57.057,12.531,55.555,10.454,55.555z"/>
			<path fill="#1E1E1C" d="M24.837,65.988c-3.137,0-5.612-2.07-5.612-5.758v-7.213h0.587c1.816,0,2.62,0.774,2.62,2.254v4.652
				c0,2.327,1.132,3.267,2.57,3.267c1.3,0,2.218-0.894,2.218-3.055v-7.12h0.566c1.841,0,2.62,0.774,2.62,2.255v4.748
				C30.407,63.967,28.542,65.988,24.837,65.988z"/>
			<path fill="#1E1E1C" d="M37.311,65.988c-2.334,0-4.081-1.199-4.081-2.491v-1.434h0.119c0.685,0.635,2.313,1.197,3.82,1.197
				c1.558,0,2.313-0.447,2.313-1.386c0-0.729-0.448-1.082-2.642-1.385c-2.69-0.376-3.987-1.434-3.987-3.361
				c0-2.374,2.147-4.396,5.4-4.396c2.876,0,4.056,1.48,4.056,2.703v1.197H42.19c-0.658-0.657-2.123-1.174-3.631-1.174
				c-1.934,0-2.548,0.586-2.548,1.409c0,0.636,0.378,0.894,2.548,1.247c2.642,0.422,4.056,1.575,4.056,3.595
				C42.619,64.389,40.732,65.988,37.311,65.988z"/>
		</g>
		<path fill="#C53518" d="M158.049,66.756c-1.414,0-2.311-0.893-2.311-2.068V59.66c0-2.139-0.944-3.079-2.573-3.079
			c-1.367,0-2.312,1.033-2.312,2.842v7.332h-0.944c-1.346,0-2.217-0.893-2.217-2.068v-5.475c0-2.679,1.768-5.428,5.731-5.428
			c2.996,0,5.475,1.998,5.475,5.592v7.378H158.049z"/>
	</g>
	<g>
		<g>
			<path fill="#1E1E1C" d="M-2.75,123.544h-0.637c-3.019,0-5.096-1.692-5.096-4.021c0-2.253,1.65-3.972,6.322-3.972h1.108v-0.164
				c0-1.783-0.849-2.325-2.736-2.325c-2.287,0-3.562,0.87-4.034,1.458H-7.94v-1.013c0-1.409,1.274-3.1,4.623-3.1
				c2.831,0,5.379,1.316,5.379,5.688v2.912C2.063,121.688,0.081,123.544-2.75,123.544z M-1.026,117.81h-1.133
				c-2.406,0-3.091,0.565-3.091,1.597c0,0.985,0.802,1.575,2.194,1.575c1.368,0,2.029-0.656,2.029-1.95V117.81z"/>
			<path fill="#1E1E1C" d="M6.517,109.75c-1.014,0-1.84-0.846-1.84-1.857c0-1.01,0.826-1.833,1.84-1.833s1.863,0.823,1.863,1.833
				C8.38,108.904,7.531,109.75,6.517,109.75z M8.757,123.448c-2.453,0-3.797-1.386-3.797-3.948v-8.578h0.896
				c1.416,0,2.265,0.751,2.265,2.351v5.922c0,1.269,0.542,1.667,1.934,1.667h0.589v0.682
				C10.645,122.909,10.103,123.448,8.757,123.448z"/>
			<path fill="#1E1E1C" d="M22.766,123.331c-1.415,0-2.312-0.894-2.312-2.068v-5.028c0-2.138-0.944-3.079-2.571-3.079
				c-1.368,0-2.312,1.032-2.312,2.844v7.33h-0.944c-1.344,0-2.218-0.893-2.218-2.068v-5.473c0-2.68,1.77-5.428,5.733-5.428
				c2.995,0,5.473,1.998,5.473,5.592v7.377h-0.85V123.331z"/>
			<path fill="#1E1E1C" d="M30.52,123.614c-2.336,0-4.081-1.197-4.081-2.49v-1.434h0.117c0.684,0.637,2.312,1.197,3.821,1.197
				c1.557,0,2.312-0.447,2.312-1.388c0-0.727-0.449-1.081-2.643-1.386c-2.688-0.375-3.986-1.432-3.986-3.361
				c0-2.373,2.147-4.394,5.402-4.394c2.877,0,4.057,1.479,4.057,2.703v1.196h-0.118c-0.662-0.657-2.123-1.175-3.633-1.175
				c-1.934,0-2.547,0.586-2.547,1.41c0,0.637,0.378,0.894,2.547,1.246c2.642,0.424,4.057,1.576,4.057,3.596
				C35.828,122.016,33.941,123.614,30.52,123.614z"/>
			<path fill="#1E1E1C" d="M40.234,109.75c-1.014,0-1.84-0.846-1.84-1.857c0-1.01,0.826-1.833,1.84-1.833
				c1.015,0,1.863,0.823,1.863,1.833C42.097,108.904,41.249,109.75,40.234,109.75z M42.476,123.448
				c-2.453,0-3.797-1.386-3.797-3.948v-8.578h0.895c1.416,0,2.265,0.751,2.265,2.351v5.922c0,1.269,0.542,1.667,1.934,1.667h0.589
				v0.682C44.362,122.909,43.82,123.448,42.476,123.448z"/>
			<path fill="#1E1E1C" d="M62.896,116.753v10.575l-1.036-0.026c-1.322-0.024-2.1-0.656-2.1-2.088v-3.245
				c-0.518,1.032-1.814,1.645-3.09,1.645c-3.185,0-5.896-2.516-5.896-6.251c0-3.994,2.594-7.002,6.463-7.002
				C60.891,110.361,62.896,112.781,62.896,116.753z M53.934,116.8c0,2.609,1.109,4.02,3.068,4.02c1.766,0,2.758-1.059,2.758-3.689
				c0-2.703-1.015-3.973-2.924-3.973C55.396,113.159,53.934,114.497,53.934,116.8z"/>
			<path fill="#1E1E1C" d="M71.573,123.614c-3.137,0-5.615-2.07-5.615-5.758v-7.212h0.59c1.816,0,2.618,0.774,2.618,2.254v4.651
				c0,2.328,1.134,3.266,2.571,3.266c1.297,0,2.217-0.894,2.217-3.055v-7.12h0.567c1.839,0,2.618,0.775,2.618,2.253v4.749
				C77.14,121.594,75.275,123.614,71.573,123.614z"/>
			<path fill="#1E1E1C" d="M80.435,113.109h-0.636v-0.14c0.636-0.585,1.085-1.74,1.085-2.418c0-0.445-0.119-0.8-0.378-1.057
				c-0.354-0.354-0.636-0.636-0.636-1.361c0-0.964,0.778-1.74,1.839-1.74c1.227,0,2.03,0.94,2.03,2.68
				C83.74,111.137,82.251,113.109,80.435,113.109z"/>
			<path fill="#1E1E1C" d="M91.499,123.544H90.86c-3.02,0-5.096-1.692-5.096-4.021c0-2.253,1.647-3.972,6.322-3.972h1.108v-0.164
				c0-1.783-0.851-2.325-2.738-2.325c-2.288,0-3.56,0.87-4.034,1.458h-0.118v-1.013c0-1.409,1.272-3.1,4.624-3.1
				c2.83,0,5.378,1.316,5.378,5.688v2.912C96.308,121.688,94.327,123.544,91.499,123.544z M93.218,117.81h-1.132
				c-2.407,0-3.091,0.565-3.091,1.597c0,0.985,0.803,1.575,2.194,1.575c1.367,0,2.029-0.656,2.029-1.95V117.81L93.218,117.81z"/>
			<path fill="#1E1E1C" d="M113.261,116.164c-0.85,2.325-2.263,5.38-3.681,7.308h-0.611c-0.944,0-1.44-0.328-2.079-1.269
				c-1.72-2.609-3.89-8.13-4.175-11.562h1.7c1.085,0,1.769,0.822,1.887,1.504c0.448,2.35,1.085,4.795,2.428,7.402
				c1.204-2.372,2.314-5.734,2.784-8.906h1.344c1.087,0,1.486,0.471,1.486,1.504C114.346,112.523,114.04,114.05,113.261,116.164z"/>
			<path fill="#1E1E1C" d="M121.938,110.361c3.82,0,6.016,3.055,6.016,6.416c0,3.806-2.195,6.839-6.299,6.839
				c-3.82,0-6.014-3.03-6.014-6.391C115.641,113.416,117.83,110.361,121.938,110.361z M121.654,113.181
				c-1.815,0-2.736,1.504-2.736,3.596c0,2.514,0.921,4.018,3.019,4.018c1.839,0,2.738-1.504,2.738-3.572
				C124.675,114.685,123.732,113.181,121.654,113.181z"/>
			<path fill="#1E1E1C" d="M134.27,123.614c-2.337,0-4.083-1.197-4.083-2.49v-1.434h0.119c0.683,0.637,2.313,1.197,3.82,1.197
				c1.557,0,2.312-0.447,2.312-1.388c0-0.727-0.449-1.081-2.643-1.386c-2.691-0.375-3.987-1.432-3.987-3.361
				c0-2.373,2.146-4.394,5.4-4.394c2.878,0,4.058,1.479,4.058,2.703v1.196h-0.118c-0.66-0.657-2.125-1.175-3.633-1.175
				c-1.934,0-2.548,0.586-2.548,1.41c0,0.637,0.378,0.894,2.548,1.246c2.642,0.424,4.056,1.576,4.056,3.596
				C139.576,122.016,137.688,123.614,134.27,123.614z"/>
			<path fill="#1E1E1C" d="M153.675,123.614c-1.415,0-2.573-0.802-3.208-1.88v5.591h-0.99c-1.133,0-2.214-0.822-2.214-2.185v-7.661
				c0-4.203,1.884-7.12,6.368-7.12c3.373,0,5.777,3.055,5.777,6.25C159.407,120.677,157.379,123.614,153.675,123.614z
				 M153.131,113.159c-1.744,0-2.71,1.502-2.71,3.688c0,2.538,1.25,3.973,3.137,3.973c1.534,0,2.594-1.363,2.594-3.386
				C156.15,114.448,155.163,113.159,153.131,113.159z"/>
			<path fill="#1E1E1C" d="M169.096,113.722c-0.471-0.19-1.015-0.377-1.84-0.377c-1.415,0-2.193,0.775-2.193,2.702v7.284h-0.874
				c-1.414,0-2.311-0.703-2.311-2.021v-5.828c0-2.536,1.344-4.958,4.695-4.958c1.958,0,2.641,1.105,2.641,2.069v1.13H169.096
				L169.096,113.722z"/>
			<path fill="#1E1E1C" d="M176.688,110.361c3.822,0,6.016,3.055,6.016,6.416c0,3.806-2.193,6.839-6.298,6.839
				c-3.821,0-6.016-3.03-6.016-6.391C170.39,113.416,172.583,110.361,176.688,110.361z M176.405,113.181
				c-1.815,0-2.737,1.504-2.737,3.596c0,2.514,0.922,4.018,3.02,4.018c1.84,0,2.737-1.504,2.737-3.572
				C179.425,114.685,178.48,113.181,176.405,113.181z"/>
			<path fill="#1E1E1C" d="M194.799,114.731c-0.427-0.729-1.629-1.315-3.446-1.315c-1.84,0-3.466,1.479-3.466,3.361
				c0,2.306,1.367,3.878,3.514,3.878c1.816,0,2.901-0.588,3.351-1.176h0.118v1.457c0,1.527-1.483,2.633-3.775,2.633
				c-3.488,0-6.508-2.702-6.508-6.319c0-3.62,2.522-6.722,6.865-6.722c2.029,0,3.466,1.223,3.466,2.727v1.479L194.799,114.731
				L194.799,114.731z"/>
			<path fill="#1E1E1C" d="M207.482,123.331c-1.32,0-2.147-0.75-2.147-2.115v-5.169c0-2.07-1.132-2.891-2.522-2.891
				c-0.991,0-2.288,0.75-2.288,2.984v7.19h-1.037c-1.486,0-2.169-0.823-2.169-2.115v-14.805h0.987c1.511,0,2.243,0.847,2.243,2.021
				v3.62c0.474-0.751,1.555-1.693,2.759-1.693c3.278,0,5.214,1.95,5.214,5.544v7.426h-1.039V123.331z"/>
			<path fill="#1E1E1C" d="M216.348,118.352h-2.076c0.235,1.597,1.699,2.606,3.56,2.606c1.322,0,2.877-0.258,3.893-1.197h0.117
				v0.986c0,1.623-1.108,2.867-4.603,2.867c-3.156,0-6.25-2.49-6.25-6.367c0-4.23,2.596-6.886,6.227-6.886
				c2.641,0,5.096,1.88,5.096,4.913C222.315,117.599,220.546,118.352,216.348,118.352z M216.938,112.992
				c-1.535,0-2.597,1.247-2.667,2.703l-0.023,0.421h1.414c2.996,0,3.681-0.328,3.681-1.222
				C219.343,113.628,218.399,112.992,216.938,112.992z"/>
			<path fill="#1E1E1C" d="M228.584,123.614c-2.334,0-4.08-1.197-4.08-2.49v-1.434h0.117c0.685,0.637,2.311,1.197,3.819,1.197
				c1.556,0,2.315-0.447,2.315-1.388c0-0.727-0.447-1.081-2.645-1.386c-2.69-0.375-3.987-1.432-3.987-3.361
				c0-2.373,2.146-4.394,5.401-4.394c2.878,0,4.058,1.479,4.058,2.703v1.196h-0.118c-0.661-0.657-2.123-1.175-3.634-1.175
				c-1.935,0-2.546,0.586-2.546,1.41c0,0.637,0.376,0.894,2.546,1.246c2.644,0.424,4.056,1.576,4.056,3.596
				C233.891,122.016,232.004,123.614,228.584,123.614z"/>
		</g>
		<path fill="#1E1E1C" d="M90.352,108.32c0.731,0.33,1.75,0.565,2.543,0.565h0.996v-0.117c-0.486-0.801-1.019-1.576-1.66-2.188
			c-0.706-0.682-1.238-1.128-2.1-1.128c-0.729,0-1.238,0.354-1.238,1.197C88.893,107.333,89.444,107.921,90.352,108.32z"/>
		<g>
			<path d="M241.258,124.495c-1.239,0-2.264-1.023-2.264-2.256s1.026-2.258,2.264-2.258c1.239,0,2.267,1.025,2.267,2.258
				S242.497,124.495,241.258,124.495z"/>
			<path d="M242.583,118.136l0.671-14.993c0-1.196-0.683-2.115-2.263-2.115h-0.894v16.465
				C241.15,117.477,241.532,118.13,242.583,118.136z"/>
		</g>
	</g>
</g>
</svg>
