<?xml version="1.0" encoding="utf-8"?>
<!-- Generator: Adobe Illustrator 16.0.4, SVG Export Plug-In . SVG Version: 6.00 Build 0)  -->
<!DOCTYPE svg PUBLIC "-//W3C//DTD SVG 1.1//EN" "http://www.w3.org/Graphics/SVG/1.1/DTD/svg11.dtd">
<svg version="1.1" id="Calque_1" xmlns="http://www.w3.org/2000/svg" xmlns:xlink="http://www.w3.org/1999/xlink" x="0px" y="0px"
	 width="435px" height="300px" viewBox="-55 -37.5 435 300" enable-background="new -55 -37.5 435 300" xml:space="preserve">
<g>
	<g id="Calque_1_1_">
		<path fill="#E6E8E8" d="M212.609,79.309c0-12.372-10.067-22.403-22.493-22.403c-1.216,0-2.409,0.098-3.573,0.284
			c0.001-0.095,0.007-0.188,0.007-0.284c0-7.691-6.26-13.926-13.979-13.926c-2.184,0-4.251,0.499-6.092,1.389
			c-3.549-5.227-9.556-8.664-16.367-8.664c-10.904,0-19.746,8.805-19.746,19.671c0,1.218,0.118,2.411,0.332,3.57
			c-2.622-0.935-5.446-1.444-8.389-1.444c-13.754,0-24.903,11.105-24.903,24.808c0,11.168,7.407,20.611,17.595,23.721
			c-2.618,2.9-4.21,6.736-4.21,10.945c0,9.044,7.359,16.378,16.441,16.378c3.964,0,7.6-1.402,10.44-3.727
			c0.86,11.752,10.705,21.025,22.726,21.025c12.259,0,22.254-9.641,22.764-21.729c1.101,0.195,2.235,0.305,3.394,0.305
			c10.448,0,18.921-8.436,18.921-18.851c0-4.415-1.529-8.472-4.078-11.682C208.097,94.823,212.609,87.59,212.609,79.309z"/>
		<g>
			<path fill="#050507" d="M218.078,76.828c0-13.549-11.023-24.533-24.623-24.533c-1.334,0-2.641,0.107-3.916,0.311
				c0.002-0.104,0.008-0.207,0.008-0.311c0-8.422-6.854-15.25-15.309-15.25c-2.393,0-4.657,0.548-6.672,1.521
				c-3.885-5.724-10.461-9.486-17.921-9.486c-11.94,0-21.621,9.643-21.621,21.537c0,1.336,0.126,2.641,0.361,3.912
				c-2.871-1.023-5.963-1.583-9.187-1.583c-15.06,0-27.27,12.161-27.27,27.164c0,12.23,8.112,22.57,19.267,25.977
				c-2.866,3.174-4.611,7.376-4.611,11.982c0,9.906,8.06,17.934,18.002,17.934c4.341,0,8.324-1.53,11.433-4.082
				c0.941,12.872,11.721,23.026,24.884,23.026c13.423,0,24.368-10.559,24.927-23.793c1.205,0.215,2.444,0.337,3.713,0.337
				c11.445,0,20.719-9.242,20.719-20.641c0-4.835-1.673-9.275-4.465-12.792C213.143,93.811,218.078,85.895,218.078,76.828z
				 M201.396,98.699c2.551,3.209,4.078,7.267,4.078,11.682c0,10.414-8.473,18.85-18.921,18.85c-1.158,0-2.292-0.109-3.394-0.306
				c-0.51,12.088-10.505,21.73-22.763,21.73c-12.021,0-21.866-9.272-22.726-21.027c-2.84,2.325-6.476,3.727-10.44,3.727
				c-9.081,0-16.441-7.334-16.441-16.378c0-4.207,1.593-8.043,4.211-10.943c-10.189-3.111-17.596-12.553-17.596-23.721
				c0-13.703,11.149-24.808,24.904-24.808c2.943,0,5.768,0.509,8.39,1.444c-0.214-1.159-0.332-2.352-0.332-3.57
				c0-10.866,8.842-19.671,19.746-19.671c6.812,0,12.818,3.438,16.369,8.664c1.841-0.891,3.908-1.39,6.091-1.39
				c7.72,0,13.979,6.235,13.979,13.926c0,0.096-0.005,0.189-0.007,0.284c1.165-0.186,2.359-0.284,3.574-0.284
				c12.424,0,22.493,10.032,22.493,22.404C212.609,87.59,208.097,94.823,201.396,98.699z"/>
			<path fill="#FFFFFF" d="M212.065,74.424c-2.24-10.023-11.213-17.518-21.949-17.518c-1.216,0-2.409,0.098-3.573,0.284
				c0.001-0.095,0.007-0.188,0.007-0.284c0-7.691-6.26-13.926-13.979-13.926c-2.184,0-4.251,0.499-6.092,1.389
				c-3.549-5.227-9.556-8.664-16.367-8.664c-10.904,0-19.746,8.805-19.746,19.671c0,1.218,0.118,2.411,0.332,3.57
				c-2.623-0.935-5.447-1.444-8.39-1.444c-12.073,0-22.134,8.556-24.417,19.912c-0.318,1.584-0.487,3.22-0.487,4.896
				c0,9.655,5.54,18.018,13.623,22.116c1.265,0.642,2.594,1.185,3.973,1.605c-1.559,1.727-2.75,3.789-3.462,6.056
				c2.091,6.654,8.325,11.478,15.691,11.478c3.964,0,7.6-1.398,10.44-3.727c0.86,11.758,10.704,21.028,22.726,21.028
				c12.258,0,22.252-9.644,22.765-21.731c1.1,0.196,2.232,0.305,3.388,0.305c8.753,0,16.111-5.917,18.274-13.955
				c-0.676-2.509-1.859-4.81-3.428-6.789c1.262-0.732,2.451-1.584,3.543-2.54c4.7-4.107,7.669-10.132,7.669-16.851
				C212.609,77.632,212.417,75.998,212.065,74.424z"/>
		</g>
		<path opacity="0.99" fill="#050507" enable-background="new    " d="M218.078,76.828c0-13.549-11.023-24.533-24.623-24.533
			c-1.334,0-2.641,0.107-3.916,0.311c0.002-0.104,0.008-0.207,0.008-0.311c0-8.422-6.854-15.25-15.309-15.25
			c-2.393,0-4.657,0.548-6.672,1.521c-3.885-5.724-10.461-9.486-17.921-9.486c-11.94,0-21.621,9.643-21.621,21.537
			c0,1.336,0.126,2.641,0.361,3.912c-2.871-1.023-5.963-1.583-9.187-1.583c-15.06,0-27.27,12.161-27.27,27.164
			c0,12.23,8.112,22.57,19.267,25.977c-2.866,3.174-4.611,7.376-4.611,11.982c0,9.906,8.06,17.934,18.002,17.934
			c4.341,0,8.324-1.53,11.433-4.082c0.941,12.872,11.721,23.026,24.884,23.026c13.423,0,24.368-10.559,24.927-23.793
			c1.205,0.215,2.444,0.337,3.713,0.337c11.445,0,20.719-9.242,20.719-20.641c0-4.835-1.673-9.275-4.465-12.792
			C213.143,93.811,218.078,85.895,218.078,76.828z M201.396,98.699c2.551,3.209,4.078,7.267,4.078,11.682
			c0,10.414-8.473,18.85-18.921,18.85c-1.158,0-2.292-0.109-3.394-0.306c-0.51,12.088-10.505,21.73-22.763,21.73
			c-12.021,0-21.866-9.272-22.726-21.027c-2.84,2.325-6.476,3.727-10.44,3.727c-9.081,0-16.441-7.334-16.441-16.378
			c0-4.207,1.593-8.043,4.211-10.943c-10.189-3.111-17.596-12.553-17.596-23.721c0-13.703,11.149-24.808,24.904-24.808
			c2.943,0,5.768,0.509,8.39,1.444c-0.214-1.159-0.332-2.352-0.332-3.57c0-10.866,8.842-19.671,19.746-19.671
			c6.812,0,12.818,3.438,16.369,8.664c1.841-0.891,3.908-1.39,6.091-1.39c7.72,0,13.979,6.235,13.979,13.926
			c0,0.096-0.005,0.189-0.007,0.284c1.165-0.186,2.359-0.284,3.574-0.284c12.424,0,22.493,10.032,22.493,22.404
			C212.609,87.59,208.097,94.823,201.396,98.699z"/>
	</g>
	<g id="Calque_2">
		<path opacity="0.99" fill="#050507" enable-background="new    " d="M113.329,170.444c-4.702,0-8.522,3.801-8.522,8.492
			c0,4.686,3.82,8.485,8.522,8.485c4.709,0,8.525-3.804,8.525-8.485C121.854,174.245,118.036,170.444,113.329,170.444z
			 M113.328,184.852c-3.458,0-6.259-2.792-6.259-6.235c0-3.444,2.803-6.234,6.259-6.234c3.455,0,6.258,2.79,6.258,6.234
			C119.586,182.06,116.785,184.852,113.328,184.852z"/>
		<path fill="#FFFFFF" d="M113.328,181.988c3.161,0,5.726-2.554,5.726-5.7c0-0.07-0.008-0.14-0.011-0.207
			c-0.977-2.179-3.166-3.695-5.715-3.695c-2.545,0-4.733,1.523-5.709,3.695c-0.002,0.07-0.01,0.139-0.01,0.207
			C107.608,179.435,110.172,181.988,113.328,181.988z"/>
		<path opacity="0.99" fill="#050507" enable-background="new    " d="M133.311,149.933c-7.859,0-14.224,6.341-14.224,14.17
			c0,7.824,6.364,14.166,14.224,14.166c7.851,0,14.213-6.342,14.213-14.166C147.524,156.273,141.161,149.933,133.311,149.933z
			 M133.708,174.065c-6.138,0-11.122-4.96-11.122-11.078c0-6.125,4.984-11.084,11.122-11.084c6.142,0,11.122,4.959,11.122,11.084
			C144.83,169.105,139.85,174.065,133.708,174.065z"/>
		<path opacity="0.99" fill="#C7D271" enable-background="new    " d="M178.39,77.187c0.261,3.337,2.225,11.448,0.41,15.574
			c-0.452,1.028-0.737,1.674-0.907,2.072c0,0-6.907,1.901-9.796,2.612c-2.876,0.716-14.624,2.158-20.461,1.805
			c-5.818-0.35-14.957-1.541-16.612-3.288c-1.643-1.766-6.147-8.308-5.908-12.243c0.248-3.92,1.071-9.357,3.787-11.291
			c2.723-1.941,8.7-3.381,11.38-4.062c3.459-0.875,13.567-2.735,17.183-2.456c3.637,0.25,12.451-0.83,16.536,2.756
			C178.094,72.254,178.109,73.842,178.39,77.187 M181.759,102.524c-0.575,1.485-1.113,3.333-2.899,3.377
			c-1.772,0.037-4.522,0.376-5.586-0.028c-1.057-0.412-2.324-0.963-2.594-1.466c-0.279-0.488-0.321-2.264-0.321-2.264
			c1.222-1.217,2.382-1.54,4.271-2.123c1.919-0.581,3.434-1.128,4.677-0.75C180.566,99.643,182.36,101.027,181.759,102.524
			 M142.912,105.345c-0.19,1.438-0.539,3.255-2.4,2.764c-1.873-0.475-3.863,0.832-4.67,0.744c-0.807-0.074-2.485-0.49-2.94-1.06
			c-1.44-1.771,0.706-3.446,0.706-3.446c1.776-1.463,4.164-1.583,6.375-1.498C142.187,102.929,143.107,103.887,142.912,105.345
			 M186.227,61.242c0.858-2.879-0.202-3.281-5.09-4.101c-8.225-1.38-21.01-0.627-25.938-0.198
			c-4.908,0.421-19.057,3.228-25.728,8.321c-6.633,5.069-7.955,18.365-7.758,24.017c0.217,5.663,4.48,21.061,5.638,24.372
			c1.157,3.312,2.638,6.753,5.403,7.194c2.727,0.474,6.643-0.538,7.811-2.18c1.158-1.653,0.803-4.172,1.268-5.109
			c0.47-0.945,5.233-3.042,7.501-3.228c2.244-0.189,15.696-1.221,20.299-1.069c4.58,0.14,5.129,0.843,5.329,2.268
			c0.195,1.426,0.483,1.812,1.858,3.3c1.381,1.488,3.987,1.795,7.861,1.319c3.873-0.478,3.313-6.222,2.384-9.424
			c-0.917-3.193-2.75-14.578-2.815-16.646C184.198,88.027,184.234,67.92,186.227,61.242"/>
	</g>
</g>
</svg>
