<?xml version="1.0" encoding="utf-8"?>
<!-- Generator: Adobe Illustrator 16.0.4, SVG Export Plug-In . SVG Version: 6.00 Build 0)  -->
<!DOCTYPE svg PUBLIC "-//W3C//DTD SVG 1.1//EN" "http://www.w3.org/Graphics/SVG/1.1/DTD/svg11.dtd">
<svg version="1.1" id="Calque_1" xmlns="http://www.w3.org/2000/svg" xmlns:xlink="http://www.w3.org/1999/xlink" x="0px" y="0px"
	 width="435px" height="300px" viewBox="-55 -37.5 435 300" enable-background="new -55 -37.5 435 300" xml:space="preserve">
<g>
	<g>
		<g>
			<ellipse fill="#050507" cx="134.447" cy="143.766" rx="16.785" ry="17.724"/>
			<ellipse fill="#E6E8E8" cx="134.287" cy="142.988" rx="14.073" ry="14.86"/>
			<g>
				<path fill="#FFFFFF" d="M136.819,155.208c-7.226,1.668-14.368-2.854-16.47-10.211c-0.996-7.607,3.708-14.861,10.937-16.528
					c7.222-1.667,14.362,2.855,16.464,10.208C148.745,146.288,144.044,153.543,136.819,155.208z"/>
			</g>
		</g>
		<g>
			<ellipse fill="#050507" cx="113.408" cy="164.356" rx="8.379" ry="8.847"/>
			<path fill="#E6E8E8" d="M112.507,157.917c3.317-0.766,6.595,1.455,7.321,4.958c0.723,3.504-1.382,6.968-4.695,7.73
				c-3.32,0.767-6.599-1.454-7.326-4.957C107.085,162.144,109.188,158.681,112.507,157.917z"/>
			<g>
				<path fill="#FFFFFF" d="M114.53,167.692c-3.037,0.701-6.033-1.33-6.695-4.533c-0.017-0.076-0.025-0.141-0.038-0.214
					c0.481-2.434,2.263-4.466,4.711-5.028c2.444-0.562,4.866,0.497,6.266,2.494c0.013,0.07,0.033,0.14,0.05,0.21
					C119.486,163.827,117.558,166.992,114.53,167.692z"/>
			</g>
		</g>
		<g>
			<path fill="#050507" d="M128.769,51.56c0.229-0.054,0.457-0.097,0.686-0.146c2.854-15.65,14.24-28.78,29.925-32.398
				c21.004-4.848,41.747,9.205,46.338,31.381c0.954,4.619,1.132,9.227,0.628,13.668c10.66,0.695,20.032,8.74,22.423,20.304
				c2.889,13.964-5.485,27.764-18.711,30.815c-4.146,0.956-8.274,0.742-12.075-0.432c-2.282,11.273-10.585,20.666-21.942,23.283
				c-13.24,3.055-26.341-4.075-31.973-16.426c-0.253,0.066-0.506,0.132-0.761,0.191c-18.366,4.237-36.506-8.052-40.52-27.446
				C98.769,74.956,110.405,55.8,128.769,51.56z"/>
			<path fill="#E6E8E8" d="M131.346,53.619c0.211-0.048,0.42-0.092,0.633-0.139c2.645-14.499,13.195-26.661,27.721-30.012
				c19.452-4.488,38.673,8.526,42.925,29.07c0.884,4.28,1.049,8.547,0.581,12.665c9.877,0.644,18.556,8.097,20.772,18.806
				c2.677,12.938-5.085,25.713-17.332,28.54c-3.844,0.887-7.667,0.691-11.19-0.396c-2.115,10.437-9.809,19.136-20.329,21.564
				c-12.261,2.829-24.397-3.779-29.616-15.218c-0.236,0.062-0.471,0.12-0.706,0.176c-17.014,3.927-33.817-7.455-37.537-25.424
				C103.553,75.287,114.331,57.544,131.346,53.619z"/>
			<path fill="#FFFFFF" d="M131.346,53.619c0.211-0.048,0.42-0.092,0.633-0.139c2.645-14.499,13.195-26.661,27.721-30.012
				c17.903-4.131,35.602,6.56,41.626,24.3c0.522,1.537,0.959,3.129,1.299,4.771c0.223,1.075,0.4,2.147,0.531,3.219
				c0.396,3.196,0.398,6.362,0.048,9.446c8.349,0.543,15.839,5.954,19.298,14.08c0.088,11.105-7.178,21.139-17.855,23.602
				c-3.842,0.887-7.669,0.691-11.19-0.398c-2.113,10.445-9.807,19.138-20.329,21.569c-12.26,2.83-24.397-3.777-29.614-15.218
				c-0.237,0.062-0.474,0.121-0.708,0.174c-15.457,3.57-30.741-5.504-36.195-20.67C105.582,72.159,115.889,57.186,131.346,53.619z"
				/>
		</g>
	</g>
	<g>
		<path fill="#C2D26A" d="M143.367,64.547c-0.855,2.083,0.275,9.769-0.872,9.937c-2.278,0.327-4.277,2.581-7.12-0.927
			c-1.424-1.758-2.564-5.519-1.985-9.524c2.011-6.182,4.857-6.597,7.992-5.09C142.23,60.783,142.514,62.7,143.367,64.547
			L143.367,64.547z M146.793,64.043c-0.278-1.919-0.564-3.842-0.564-3.842c-6.54-12.787-12.248-8.031-16.254,0.408
			c-0.284,2-0.586,7.936,0.554,11.693c5.395,12.951,9.679,10.363,13.677,5.856c0.855-2.088,1.718-4.173,2.578-6.264
			C147.066,69.893,146.506,66.049,146.793,64.043L146.793,64.043z"/>
		<path fill="#C2D26A" d="M147.914,48.742c-0.205,1.845,5.028,3.792,9.286,4.752c1.068,0.242,2.048,1.219,3.068,1.833
			c-0.05,0.364-1.114,0.129-1.155,0.496c-1.103,0.133-3.234-0.347-5.364-0.831c-5.363-0.833-4.559,1.625-6.859,2.621
			c-0.042,0.374-1.024-0.608-0.979-0.98c-0.684-3.567-2.375-7.747,1.199-10.348C147.025,47.02,149.068,48.239,147.914,48.742
			L147.914,48.742z"/>
		<path fill="#C2D26A" d="M152.78,61.564c3.696-0.392,2.477,2.364,4.384,3.577c1.609,0.635,3.98,0.183,6.348-0.271
			c8.156-1.869,14.303-7.78,13.331-12.321c0,0,0.754-1.091,1.8-1.605c1.327,0.062,2.936,0.701,3.229,1.276
			c4.665,4.15-7.546,10.896-14.084,13.409c-3.121,1.54-5.496,2-8.913,2.971c-3.407,0.96-6.069,0.839-7.958-0.374
			c-1.91-1.213-0.396-3.393,0.072-5.056C152.032,62.656,151.747,62.08,152.78,61.564L152.78,61.564z"/>
		<path fill="#C2D26A" d="M160.54,81.716c-1.732-1.699,0.179-2.227,0.005-3.689c-0.347-1.074-1.558-2.079-2.775-3.093
			c-4.334-3.328-9.88-3.978-11.795-1.607c0,0-0.863,0.069-1.557-0.243c-0.521-0.695-0.868-1.771-0.692-2.153
			c0.174-4.074,8.669-0.716,12.661,1.536c2.073,0.939,3.292,1.939,5.198,3.26c1.909,1.32,2.95,2.708,3.123,4.173
			c0.17,1.459-1.564,1.602-2.6,2.057C161.409,81.645,161.238,82.029,160.54,81.716L160.54,81.716z"/>
		<path fill="#C2D26A" d="M168.934,63.713c2.303-3.374,1.936,12.022,1.936,12.022c1.561,9.559,4.472,13.485,3.792,21.329
			c-0.564,0.207-1.135,0.416-1.135,0.416C168.602,86.62,164.924,67.715,168.934,63.713L168.934,63.713z"/>
		<path fill="#C2D26A" d="M158.616,82.666c-0.737,3.032-2.636,6.235-1.794,11.965c0.838,5.733,4,11.12,6.74,13.649
			c10.96,10.111,22.555,8.42,29.738-7.257c0,0,0.742-3.035,0.313-5.904C184.775,67.146,167.376,69.681,158.616,82.666z
			 M183.999,107.283c-3.78,3.083-10.47,1.252-14.375-1.107c-2.445-1.667-4.646-4.055-6.465-7.149
			c-1.575-2.695-3.006-6.686-1.53-12.748c5.274-12.478,19.254-10.564,25.63,5.196C189.933,99.337,187.461,104.418,183.999,107.283z"
			/>
	</g>
</g>
</svg>
