<?xml version="1.0" encoding="utf-8"?>
<!-- Generator: Adobe Illustrator 16.0.4, SVG Export Plug-In . SVG Version: 6.00 Build 0)  -->
<!DOCTYPE svg PUBLIC "-//W3C//DTD SVG 1.1//EN" "http://www.w3.org/Graphics/SVG/1.1/DTD/svg11.dtd">
<svg version="1.1" id="Calque_1" xmlns="http://www.w3.org/2000/svg" xmlns:xlink="http://www.w3.org/1999/xlink" x="0px" y="0px"
	 width="435px" height="300px" viewBox="-55 -37.5 435 300" enable-background="new -55 -37.5 435 300" xml:space="preserve">
<g>
	<g>
		<path fill="#FFFFFF" d="M44.54,181.856c-0.352,0-0.964-0.622-1.838-1.865c-0.738-1.088-1.165-1.807-1.281-2.148
			c-0.475-1.585-0.746-2.795-0.809-3.628c-0.403-0.309-0.921-0.468-1.554-0.468c-0.047,0-0.093,0-0.14,0.003
			c-0.175,0.008-0.261,0.027-0.26,0.06c0.003,0.074-0.084,0.109-0.258,0.115c-0.01,0.002-0.02,0.002-0.031,0.002
			c-0.34,0-0.694-0.196-1.064-0.59c-0.381-0.403-0.575-0.727-0.585-0.973c-0.005-0.174,0.021-0.393,0.082-0.654
			c0.06-0.264,0.089-0.465,0.084-0.602c0.815,0.067,1.639,0.104,2.47,0.104c0.347,0,0.696-0.006,1.045-0.02
			c0.329-1.578,0.676-3.156,1.04-4.736c0.578-2.422,1.351-4.311,2.317-5.667c1.333-1.856,3.029-2.823,5.088-2.894
			c0.402-0.013,0.741-0.021,1.018-0.021c0.468,0,0.759,0.021,0.872,0.06c0.318,0.128,0.771,0.584,1.357,1.362l-0.149,1.729
			l-1.976-1.029c-2.164,0.076-3.872,1.703-5.123,4.878c-0.257,0.636-0.78,2.656-1.57,6.06c0.881,0.386,2.225,0.578,4.034,0.578
			c0.162,0,0.327,0,0.494-0.005c2.937,0.003,4.526,0.019,4.771,0.044c-0.153,0.631-1.041,1.203-2.665,1.711
			c-1.176,0.354-2.009,0.539-2.497,0.558c-2.752,0.097-4.128,0.144-4.128,0.144c0.001,0,0.016,0,0.043-0.003
			c-0.101,0.075-0.146,0.302-0.132,0.685c0.039,1.115,0.502,2.352,1.388,3.711c0.823,1.265,1.263,1.896,1.319,1.896
			c0.004,0,0.006-0.003,0.005-0.011c0.038,1.043-0.416,1.583-1.358,1.614C44.546,181.856,44.542,181.856,44.54,181.856
			 M59.631,181.438c-0.362-0.016-0.624-0.023-0.786-0.023c-0.043,0-0.078,0-0.107,0c-0.098,0.005-0.195,0.005-0.291,0.005
			c-3.216,0-5.23-1.912-6.043-5.736c-0.081-1.285,0.205-2.619,0.855-3.998c0.366-0.571,0.729-1.156,1.093-1.76
			c0.529-0.855,1.39-1.686,2.585-2.492c1.467-0.992,2.883-1.511,4.245-1.558c0.031-0.003,0.063-0.003,0.095-0.003
			c0.533,0,1.118,0.154,1.755,0.459c0.852,0.391,1.29,0.914,1.314,1.572c0.037,1.081-0.644,2.373-2.04,3.883
			c-1.397,1.514-2.638,2.287-3.72,2.323c0.07,0-0.513-0.19-1.749-0.565c-0.007-0.208-0.019-0.547-0.035-1.018
			c-0.017-0.471-0.028-0.773-0.032-0.913c-1.402,1.86-2.082,3.415-2.039,4.667c0.061,1.734,1.561,2.602,4.502,2.602
			c0.184,0,0.373-0.003,0.568-0.012c0.593-0.021,2.143-0.194,4.647-0.527l1.78-0.061l0.053,1.512
			c-0.348,0.082-1.229,0.374-2.643,0.877c-1.174,0.423-1.838,0.637-1.996,0.642c-0.156,0.005-0.34,0.028-0.548,0.071
			c-0.208,0.008-0.392,0.014-0.549,0.019C60.39,181.409,60.083,181.419,59.631,181.438 M61.436,168.633
			c-2.312,0.847-3.847,1.91-4.606,3.191l0.89-0.03c1.47-0.922,2.222-1.402,2.256-1.438
			C60.829,169.769,61.314,169.192,61.436,168.633 M72.649,180.867c-0.451,0-0.815-0.02-1.089-0.055
			c-0.11-0.169-0.177-0.586-0.201-1.246c-0.003-0.07,0.258-1.374,0.78-3.918c0.522-2.543,0.758-4.058,0.706-4.543
			c-0.283-0.074-0.664-0.109-1.145-0.109c-0.121,0-0.247,0.003-0.379,0.008c-0.314,0.011-0.838,0.027-1.571,0.055
			c-0.732,0.024-1.255,0.044-1.57,0.055c-0.104,0.003-0.207,0.005-0.304,0.005c-1.614,0-2.439-0.488-2.474-1.463
			c-0.013-0.338,0.258-0.613,0.81-0.831c0.38-0.148,0.709-0.228,0.987-0.238c1.508,0.069,2.583,0.102,3.225,0.102
			c0.474,0,0.709-0.019,0.708-0.055c0-0.021,0.162-0.03,0.487-0.032c0.307-0.042,0.649-0.092,1.027-0.151
			c0.036,0.005,0.069,0.008,0.103,0.008c0.596,0,0.871-0.694,0.821-2.075c-0.02-0.592-0.125-1.545-0.309-2.861
			c-0.18-1.106-0.237-1.748-0.172-1.924c0.026-0.211,0.22-0.67,0.58-1.378c0.564-0.856,1.038-1.289,1.422-1.305
			c0.007,0,0.014,0,0.02,0c0.303,0,0.479,0.254,0.531,0.765c0.164,0.691,0.361,1.85,0.593,3.479c0.05,0.414,0.13,1.213,0.243,2.394
			c0.101,0.942,0.089,1.988-0.033,3.137c1.335,0.035,2.923,0.085,4.761,0.145c0.011,0,0.021,0,0.032,0
			c0.405,0,0.752,0.265,1.043,0.798c0.144,0.098,0.221,0.322,0.233,0.672c-0.019,0.295-0.067,0.44-0.146,0.44
			c-0.014,0-0.03-0.007-0.047-0.017c-0.511,0.4-1.133,0.614-1.865,0.639c-0.041,0.003-0.082,0.003-0.126,0.003
			c-0.484,0-1.171-0.089-2.059-0.266c-0.89-0.175-1.577-0.266-2.062-0.266c-0.042,0-0.084,0-0.124,0.003
			c-0.567,3.744-0.881,5.773-0.94,6.091c-0.538,2.594-1.104,3.901-1.697,3.922C73.156,180.862,72.89,180.867,72.649,180.867
			 M91.411,180.331c-0.361-0.014-0.625-0.023-0.786-0.023c-0.042,0-0.077,0-0.107,0.002c-0.098,0.006-0.195,0.006-0.291,0.006
			c-3.216,0-5.23-1.913-6.043-5.737c-0.08-1.288,0.205-2.621,0.855-4c0.365-0.569,0.728-1.153,1.092-1.761
			c0.528-0.854,1.391-1.685,2.586-2.492c1.467-0.989,2.883-1.508,4.244-1.557c0.031,0,0.062,0,0.094,0
			c0.533,0,1.119,0.15,1.756,0.458c0.852,0.388,1.29,0.911,1.314,1.573c0.037,1.079-0.644,2.372-2.041,3.883
			c-1.397,1.51-2.638,2.283-3.719,2.322c0.07-0.002-0.512-0.189-1.75-0.564c-0.007-0.211-0.019-0.55-0.035-1.019
			c-0.018-0.47-0.028-0.773-0.032-0.913c-1.402,1.861-2.083,3.416-2.038,4.664c0.06,1.736,1.561,2.602,4.501,2.602
			c0.185,0,0.374-0.002,0.569-0.008c0.594-0.024,2.143-0.197,4.647-0.527l1.78-0.063l0.054,1.515
			c-0.348,0.082-1.229,0.373-2.644,0.873c-1.174,0.425-1.838,0.64-1.996,0.643c-0.157,0.006-0.338,0.028-0.547,0.074
			c-0.208,0.005-0.393,0.013-0.55,0.02C92.169,180.305,91.863,180.315,91.411,180.331 M93.214,167.526
			c-2.312,0.85-3.847,1.912-4.605,3.191l0.89-0.03c1.47-0.919,2.222-1.399,2.256-1.438
			C92.608,168.664,93.094,168.089,93.214,167.526 M117.055,179.544c-0.25,0-0.797-0.26-1.641-0.778
			c-0.856-0.526-1.395-0.909-1.612-1.146c-0.001-0.034,0.066-0.115,0.201-0.242c0.137-0.125,0.201-0.276,0.194-0.451
			c0.28-0.01,0.743-0.027,1.388-0.047c0.646-0.023,1.039-0.036,1.178-0.041c0.627-0.021,1.807-0.271,3.538-0.75
			c2.076-0.593,3.105-1.17,3.085-1.727c-0.016-0.451-0.497-1.199-1.441-2.248c-0.947-1.044-1.438-2.125-1.477-3.236
			c-0.039-1.112,0.807-2.396,2.538-3.85c1.665-1.346,3.056-2.039,4.173-2.079c0.014,0,0.027,0,0.04,0
			c0.435,0,0.781,0.257,1.037,0.773c0.262,0.53,0.352,1.077,0.266,1.637c-0.994,0.558-1.988,1.112-2.982,1.669
			c-1.437,0.852-2.145,1.588-2.123,2.217c0.012,0.349,0.557,1.216,1.637,2.604c1.079,1.391,1.632,2.416,1.654,3.078
			c0.021,0.592-0.796,1.445-2.452,2.565c-1.657,1.12-2.658,1.685-3.007,1.695c-0.176,0.008-0.331,0.046-0.467,0.122
			c-0.138,0.073-0.276,0.115-0.415,0.12l-3.299,0.114C117.063,179.544,117.059,179.544,117.055,179.544 M137.69,178.722
			c-0.362-0.016-0.624-0.021-0.786-0.021c-0.042,0-0.078,0-0.106,0c-0.099,0.003-0.197,0.006-0.292,0.006
			c-3.217,0-5.231-1.916-6.043-5.74c-0.081-1.283,0.205-2.617,0.857-3.997c0.364-0.569,0.727-1.156,1.091-1.761
			c0.529-0.854,1.391-1.685,2.586-2.492c1.468-0.992,2.883-1.51,4.244-1.557c0.031,0,0.063-0.003,0.095-0.003
			c0.533,0,1.118,0.153,1.756,0.461c0.852,0.388,1.289,0.911,1.313,1.573c0.038,1.079-0.643,2.372-2.04,3.883
			c-1.397,1.51-2.636,2.283-3.718,2.322c0.069-0.002-0.515-0.192-1.751-0.567c-0.006-0.208-0.019-0.547-0.035-1.016
			c-0.018-0.47-0.028-0.773-0.032-0.915c-1.403,1.86-2.083,3.415-2.038,4.666c0.062,1.736,1.561,2.602,4.501,2.602
			c0.185,0,0.375-0.002,0.57-0.01c0.593-0.022,2.142-0.194,4.646-0.527l1.78-0.062l0.01,0.312c0.355-0.011,0.583-0.021,0.682-0.023
			c0.627-0.022,1.807-0.273,3.538-0.75c2.076-0.594,3.104-1.17,3.084-1.727c-0.016-0.451-0.497-1.201-1.441-2.248
			c-0.946-1.047-1.438-2.126-1.477-3.238c-0.039-1.111,0.807-2.396,2.538-3.849c1.665-1.345,3.056-2.039,4.173-2.079
			c0.014,0,0.025,0,0.039,0c0.435,0,0.78,0.258,1.036,0.773c0.264,0.531,0.354,1.075,0.268,1.635
			c-0.994,0.559-1.987,1.116-2.982,1.674c-1.437,0.849-2.145,1.584-2.124,2.212c0.013,0.351,0.558,1.216,1.639,2.606
			c1.079,1.391,1.632,2.416,1.654,3.077c0.02,0.59-0.797,1.445-2.452,2.565c-1.657,1.121-2.66,1.686-3.007,1.696
			c-0.176,0.007-0.331,0.044-0.467,0.121c-0.138,0.073-0.277,0.114-0.416,0.12l-3.298,0.114c-0.005,0-0.009,0-0.013,0
			c-0.249,0-0.796-0.259-1.64-0.778c-0.186-0.115-0.357-0.222-0.512-0.323c-0.391,0.134-0.865,0.298-1.421,0.495
			c-1.173,0.424-1.838,0.639-1.996,0.642c-0.156,0.007-0.338,0.028-0.547,0.071c-0.209,0.008-0.392,0.016-0.55,0.022
			C138.45,178.695,138.143,178.706,137.69,178.722 M139.496,165.917c-2.313,0.849-3.848,1.908-4.607,3.189l0.89-0.031
			c1.47-0.92,2.223-1.4,2.257-1.438C138.888,167.052,139.375,166.479,139.496,165.917 M256.345,177.308
			c-0.69,0-1.25-1.214-1.679-3.646c-0.363-2.356-0.724-4.711-1.088-7.064c-0.616-2.625-1.487-4.055-2.613-4.297
			c-0.447,0.224-1.161,2.321-2.139,6.289c-0.98,3.969-1.54,5.955-1.679,5.961c-0.013,0-0.026,0-0.039,0
			c-0.313,0-0.758-0.123-1.336-0.373l-0.117-3.336c-0.011-0.278,0.267-2.352,0.831-6.219c0.562-3.864,0.878-5.799,0.949-5.802
			c0.008,0,0.016,0,0.021,0c0.165,0,0.28,0.065,0.353,0.194c0.075,0.134,0.177,0.197,0.308,0.197c0.007,0,0.012,0,0.017,0h-0.002
			c-0.097,0,0.387-0.372,1.456-1.121c1.077-0.751,2.152-1.145,3.236-1.185c0.003,0,0.008,0,0.011,0c0.836,0,1.89,3.255,3.16,9.761
			c0.417,2.078,0.757,3.844,1.022,5.289c0.298-0.011,0.488-0.016,0.577-0.019c0.63-0.023,1.807-0.273,3.54-0.75
			c2.077-0.594,3.103-1.169,3.086-1.727c-0.02-0.45-0.497-1.2-1.443-2.247c-0.943-1.047-1.437-2.125-1.479-3.24
			c-0.035-1.111,0.81-2.393,2.541-3.848c1.663-1.346,3.057-2.037,4.173-2.078c0.013,0,0.026,0,0.039,0
			c0.434,0,0.781,0.257,1.034,0.773c0.264,0.527,0.354,1.076,0.269,1.636c-0.996,0.555-1.987,1.112-2.983,1.669
			c-1.438,0.854-2.146,1.589-2.126,2.214c0.014,0.351,0.56,1.219,1.641,2.606c1.08,1.391,1.631,2.416,1.651,3.077
			c0.024,0.59-0.795,1.448-2.452,2.567c-1.654,1.12-2.655,1.686-3.007,1.694c-0.175,0.008-0.329,0.047-0.468,0.124
			c-0.136,0.072-0.274,0.111-0.413,0.117l-3.299,0.117c-0.006,0-0.008,0-0.014,0c-0.097,0-0.241-0.042-0.426-0.12
			c0.146,0.95,0.23,1.62,0.243,2.005c0.005,0.175-0.023,0.297-0.092,0.366l-0.099,0.161c-0.273,0.147-0.655,0.232-1.145,0.249
			C256.357,177.308,256.353,177.308,256.345,177.308 M186.635,177.227c-0.69,0-1.571-0.37-2.649-1.112
			c-1.289-0.896-1.953-1.869-1.986-2.914c-0.002-0.036,0.745-1.86,2.246-5.474c1.498-3.612,2.235-5.731,2.214-6.362
			c-0.052-1.455-1.136-2.185-3.246-2.185c-0.11,0-0.226,0.003-0.345,0.008c-0.175,0.005-0.792,0.089-1.853,0.249
			c-1.06,0.157-1.66,0.239-1.799,0.244c-0.012,0-0.022,0-0.031,0c-0.34,0-0.721-0.201-1.144-0.611
			c-0.433-0.418-0.655-0.734-0.663-0.941c-0.034-0.975,1.414-1.515,4.348-1.616c0.087-0.003,0.178-0.005,0.268-0.005
			c1.315,0,2.706,0.336,4.17,1c2.057,0.939,3.116,2.224,3.174,3.857c0.036,0.976-0.474,2.943-1.521,5.904
			c-0.764,2.185-1.543,4.388-2.338,6.609c0.212,0.195,0.388,0.294,0.523,0.294c0.005,0,0.008,0,0.013,0
			c0.837-0.031,2.316-0.448,4.437-1.253c2.12-0.803,3.197-1.204,3.233-1.207c0.092-0.002,0.178-0.006,0.262-0.006
			c0.499,0,0.886,0.059,1.161,0.166c-0.212,0.96-1.318,2.08-3.319,3.361c-2.001,1.282-3.696,1.949-5.093,1.997
			C186.676,177.227,186.655,177.227,186.635,177.227 M243.783,176.177c-1.227,0-2.205-1.2-2.939-3.604
			c-0.257-1.279-0.512-2.539-0.764-3.784c-3.516,4.37-6.635,6.602-9.357,6.695c-0.028,0.003-0.062,0.003-0.089,0.003
			c-0.737,0-1.461-0.315-2.17-0.94c-0.739-0.653-1.121-1.364-1.15-2.13c-0.106-3.058,1.545-5.799,4.954-8.211
			c3.174-2.201,6.507-3.326,9.999-3.378l0.435,0.403l0.023,0.678c-0.035,0-0.529,0.314-1.486,0.939
			c0.317,0.162,0.639,0.308,0.959,0.436c0.529,0.26,0.807,0.617,0.824,1.067c0-0.003,0-0.003,0-0.003
			c-0.01,0-0.061,0.734-0.16,2.203c-0.104,1.534-0.145,2.547-0.129,3.031c0.031,0.973,0.262,2.047,0.688,3.214
			c0.467,1.341,1.023,2.227,1.665,2.657c-0.403,0.468-0.812,0.709-1.23,0.722C243.828,176.177,243.807,176.177,243.783,176.177
			 M240.612,163.026l-0.683,0.024c-0.758,0.306-1.533,0.62-2.324,0.942c-0.794,0.326-1.874,0.926-3.238,1.809
			c-0.821,0.55-1.702,1.351-2.645,2.389c-1.444,1.617-2.147,3.07-2.101,4.357c0.011,0.279,0.178,0.553,0.499,0.816
			c0.035-0.002,0.134-0.005,0.291-0.01c0.156-0.006,0.34-0.011,0.549-0.019c1.045-0.036,2.452-0.797,4.215-2.286
			c1.493-1.308,2.672-2.565,3.541-3.779c0.562-0.891,0.962-1.661,1.201-2.314C240.157,164.305,240.39,163.661,240.612,163.026
			 M201.817,175.966c-0.214,0-0.429-0.025-0.646-0.08c-0.104-0.031-0.4-0.186-0.881-0.467c-0.471-0.271-0.795-0.41-0.973-0.41
			c-0.003,0-0.008,0-0.011,0c-0.016,0-0.031,0.003-0.047,0.003c-0.674,0-1.15-0.54-1.425-1.622c-0.2-0.725-0.317-1.623-0.357-2.702
			c-0.103-2.886,0.222-5.612,0.972-8.181c0.834-2.934,1.98-4.401,3.436-4.401c0.008,0,0.019,0,0.026,0
			c1.646,0.047,2.863,1.918,3.657,5.617c0.616,2.694,0.873,4.965,0.763,6.813c-0.086,1.569-0.583,2.858-1.49,3.862
			c-0.905,1.004-1.887,1.528-2.933,1.562C201.878,175.966,201.849,175.966,201.817,175.966 M202.651,161.214
			c-0.831,0.236-1.548,1.273-2.146,3.104c-0.571,1.69-0.826,3.354-0.769,4.987c0.042,1.216,0.308,2.052,0.795,2.505
			c0.474,0.438,0.912,0.656,1.32,0.656c0.013,0,0.026,0,0.039,0c1.292-0.044,1.867-2.083,1.725-6.117
			c-0.076-2.156-0.253-3.549-0.537-4.186C202.793,161.531,202.651,161.214,202.651,161.214 M290.345,173.253
			c-0.803,0-1.227-0.629-1.269-1.889c-0.037-1.041,0.295-1.576,0.991-1.599c0.008,0,0.016,0,0.027,0c0.31,0,0.729,0.192,1.254,0.581
			c0.537,0.398,0.812,0.755,0.822,1.067c0-0.008-0.003-0.011-0.003-0.011c-0.03,0-0.217,0.602-0.562,1.808l-1.203,0.042
			C290.381,173.253,290.363,173.253,290.345,173.253 M291.406,165.854c-0.949,0-1.464-1.115-1.539-3.342
			c-0.042-1.18,0.296-5.039,1.01-11.572c0.819-7.444,1.582-11.18,2.279-11.205c0.008,0,0.016,0,0.023,0
			c0.379,0,0.773,0.309,1.19,0.925c0.423,0.63,0.641,1.101,0.649,1.415c0.04,1.112-0.36,5.146-1.198,12.102
			c-0.919,7.761-1.707,11.654-2.37,11.675C291.435,165.854,291.422,165.854,291.406,165.854"/>
	</g>
	<g>
		<g>
			<path fill="#FFFFFF" d="M31.088,23.676c-0.313,0-0.771-0.289-1.375-0.865c-0.616-0.588-0.999-1.036-1.147-1.344l2.585-26.46
				c-0.011-0.313,0.16-0.701,0.512-1.167c0.354-0.463,0.724-0.704,1.111-0.717c0.011,0,0.023-0.001,0.035-0.001
				c0.478,0,0.926,0.343,1.346,1.025c0.428,0.7,0.615,1.224,0.557,1.575l-1.668,19.584l0.232-0.008l0.025,0.73l-0.31,0.011
				l-0.003-0.056l-0.053,0.629c-0.014,0-0.029-0.001-0.041-0.001c-0.273,0-0.401,0.231-0.386,0.696l0.095,2.715
				c0.211,0.196,0.387,0.294,0.524,0.294c0.004,0,0.008,0,0.011,0c0.069-0.003,0.937-0.164,2.604-0.482
				c1.667-0.319,2.605-0.482,2.814-0.49l1.466-0.05c0.139-0.006,0.575-0.055,1.304-0.151c0.733-0.094,1.185-0.145,1.36-0.152
				c0.097-0.002,0.194-0.004,0.289-0.004c2.009,0,3.04,0.78,3.094,2.341c0.025,0.66-0.838,1.021-2.583,1.082
				c-1.954,0.067-4.14,0.282-6.554,0.646c-2.417,0.361-4.358,0.569-5.824,0.62C31.101,23.676,31.094,23.676,31.088,23.676
				 M56.317,22.12c-0.361-0.014-0.624-0.022-0.786-0.022c-0.043,0-0.078,0-0.107,0.001c-0.098,0.004-0.195,0.005-0.292,0.005
				c-3.215,0-5.23-1.913-6.042-5.737c-0.082-1.285,0.203-2.619,0.855-3.999c0.365-0.569,0.728-1.155,1.092-1.761
				c0.529-0.854,1.39-1.685,2.586-2.492c1.466-0.991,2.883-1.511,4.244-1.558c0.031-0.001,0.062-0.001,0.095-0.001
				c0.531,0,1.118,0.153,1.755,0.459c0.853,0.387,1.29,0.913,1.313,1.573c0.037,1.079-0.643,2.373-2.039,3.883
				c-1.397,1.51-2.639,2.285-3.718,2.323c0.069-0.003-0.514-0.19-1.75-0.565c-0.007-0.209-0.019-0.548-0.035-1.017
				c-0.018-0.469-0.028-0.773-0.031-0.912c-1.403,1.859-2.083,3.414-2.039,4.666c0.061,1.734,1.561,2.601,4.5,2.601
				c0.185,0,0.375-0.002,0.57-0.01c0.593-0.02,2.144-0.196,4.648-0.527l1.78-0.061l0.052,1.512
				c-0.348,0.083-1.229,0.374-2.644,0.875c-1.174,0.425-1.838,0.639-1.996,0.644c-0.156,0.005-0.34,0.029-0.545,0.071
				c-0.21,0.007-0.394,0.014-0.55,0.019C57.078,22.093,56.769,22.104,56.317,22.12 M58.123,9.316
				c-2.312,0.847-3.847,1.909-4.605,3.189l0.89-0.032c1.469-0.92,2.222-1.398,2.256-1.436C57.515,10.452,58,9.877,58.123,9.316"/>
		</g>
	</g>
	<g>
		<path fill="#7C7C7B" d="M92.502,215.019c-0.374,0-0.747-0.452-1.117-1.355c-0.337-0.744-0.512-1.322-0.528-1.736
			c-0.008-0.239,0.519-3.368,1.586-9.388c1.065-6.019,1.608-9.234,1.627-9.645c0.439-0.29,0.813-0.442,1.123-0.453
			c0.025,0,0.05,0,0.074,0c0.95,0,1.451,0.668,1.498,2.011c0.029,0.857-0.52,4.381-1.649,10.574c-1.182,6.642-2.049,9.973-2.6,9.992
			C92.514,215.019,92.509,215.019,92.502,215.019 M107.052,214.406c-0.868,0-1.325-0.618-1.367-1.858
			c-0.028-0.79,0.27-2.157,0.89-4.105c0.622-1.946,1.209-3.424,1.759-4.443c-0.207,0.009-0.559,0.095-1.051,0.268
			c-0.495,0.174-0.812,0.262-0.95,0.265c-0.004,0-0.01,0-0.015,0c-0.143,0-0.424-0.058-0.844-0.175
			c-0.417-0.117-0.711-0.177-0.888-0.177c-0.008,0-0.016,0-0.025,0c-0.027,0.003-0.052,0.003-0.078,0.003
			c-0.53,0-1.105-0.188-1.727-0.559c-0.651-0.39-0.987-0.858-1.006-1.408c-0.055-1.545,1.629-3.252,5.047-5.125
			c3.013-1.652,5.192-2.5,6.536-2.549c0.001,0,0.001,0,0.003,0c0.105,0,0.431,0.195,0.976,0.586
			c0.549,0.393,0.825,0.677,0.833,0.846c0.005,0.172-0.032,0.348-0.111,0.521c-0.081,0.173-0.118,0.312-0.114,0.416
			c-1.585,0.089-3.497,0.672-5.737,1.749c-2.238,1.073-3.703,2.172-4.387,3.296c0.065,0.092,0.229,0.138,0.487,0.138
			c0.028,0,0.057,0,0.087,0c1.206-0.042,2.651-0.628,4.339-1.75c1.685-1.124,2.563-1.688,2.631-1.692c0.014,0,0.028,0,0.041,0
			c0.432,0,0.824,0.244,1.175,0.731c0.256,0.435,0.391,0.808,0.4,1.117c0-0.003,0-0.003,0-0.003c-0.033,0-1.024,2.015-2.97,6.039
			c-1.979,4.097-2.917,6.621-2.814,7.576c-0.162,0.178-0.515,0.274-1.055,0.297C107.094,214.406,107.073,214.406,107.052,214.406
			 M124.679,213.794c-0.867,0-1.324-0.619-1.366-1.859c-0.028-0.791,0.269-2.157,0.891-4.105c0.622-1.946,1.208-3.426,1.76-4.443
			c-0.208,0.006-0.558,0.096-1.052,0.268c-0.497,0.174-0.811,0.261-0.949,0.266c-0.005,0-0.01,0-0.018,0
			c-0.143,0-0.424-0.06-0.842-0.177c-0.416-0.114-0.711-0.176-0.887-0.176c-0.009,0-0.017,0-0.026,0
			c-0.026,0.004-0.051,0.004-0.077,0.004c-0.53,0-1.107-0.188-1.728-0.56c-0.654-0.39-0.988-0.858-1.007-1.408
			c-0.055-1.545,1.627-3.254,5.047-5.126c3.013-1.651,5.192-2.5,6.537-2.55c0,0,0,0,0.001,0c0.107,0,0.432,0.197,0.976,0.585
			c0.549,0.395,0.826,0.679,0.831,0.851c0.008,0.172-0.031,0.344-0.11,0.52c-0.082,0.176-0.119,0.313-0.115,0.415
			c-1.583,0.09-3.497,0.675-5.736,1.747c-2.239,1.076-3.702,2.178-4.387,3.301c0.065,0.09,0.226,0.137,0.487,0.137
			c0.028,0,0.057-0.002,0.086-0.002c1.207-0.041,2.651-0.628,4.338-1.75c1.686-1.123,2.563-1.688,2.632-1.69
			c0.014,0,0.027,0,0.041,0c0.431,0,0.824,0.243,1.176,0.729c0.255,0.435,0.39,0.81,0.401,1.117c0-0.002,0-0.002-0.001-0.002
			c-0.033,0-1.023,2.015-2.971,6.041c-1.979,4.096-2.917,6.619-2.815,7.574c-0.164,0.178-0.515,0.277-1.054,0.295
			C124.723,213.794,124.702,213.794,124.679,213.794 M142.652,213.22c-0.958,0-1.485-1.373-1.582-4.119
			c-0.077-2.197,0.049-4.507,0.379-6.922l-0.321-0.3c-0.233,0.249-0.419,0.376-0.556,0.379c-0.083,0.003-0.166,0.007-0.246,0.007
			c-2.839,0-4.321-1.788-4.447-5.361c-0.036-1.031,0.08-2.168,0.347-3.414c0.388-1.697,0.945-2.56,1.669-2.586
			c0.002,0,0.005,0,0.008,0c0.207,0,0.568,0.272,1.082,0.812c0.519,0.551,0.783,0.925,0.79,1.133
			c0.005,0.172-0.133,0.917-0.414,2.232c-0.283,1.317-0.42,2.043-0.415,2.182c0.028,0.823,0.242,1.555,0.645,2.194
			c0.094,0.116,0.367,0.173,0.821,0.173c0.07,0,0.143-0.002,0.222-0.002c0.768-0.717,1.402-2.303,1.903-4.761
			c0.41-2.109,0.906-3.177,1.494-3.195c0.012,0,0.025,0,0.038,0c0.4,0,0.8,0.215,1.2,0.653c0.413,0.448,0.625,0.847,0.637,1.189
			c0.021,0.584-0.387,3.004-1.221,7.26c-0.834,4.257-1.212,7.468-1.138,9.632c0.039,1.098,0.174,2.005,0.406,2.718
			c0.174,0.027-0.249,0.061-1.267,0.096C142.675,213.22,142.665,213.22,142.652,213.22 M179.777,212.188
			c-0.683,0-1.553-0.366-2.614-1.097c-1.273-0.885-1.929-1.846-1.966-2.88c0-0.035,0.738-1.836,2.22-5.403
			c1.479-3.568,2.206-5.662,2.186-6.281c-0.049-1.438-1.119-2.159-3.204-2.159c-0.111,0-0.225,0-0.34,0.005
			c-0.173,0.008-0.781,0.089-1.826,0.245c-1.051,0.159-1.645,0.239-1.78,0.245c-0.008,0-0.018,0-0.028,0
			c-0.338,0-0.713-0.202-1.13-0.604c-0.429-0.417-0.646-0.727-0.653-0.933c-0.034-0.961,1.397-1.49,4.291-1.591
			c0.088-0.003,0.177-0.005,0.263-0.005c1.302,0,2.675,0.33,4.12,0.986c2.034,0.925,3.077,2.195,3.135,3.808
			c0.034,0.965-0.468,2.906-1.502,5.828c-0.752,2.156-1.525,4.333-2.307,6.527c0.206,0.194,0.377,0.289,0.515,0.289
			c0.005,0,0.008,0,0.012,0c0.827-0.027,2.287-0.438,4.383-1.235c2.093-0.795,3.156-1.193,3.191-1.193
			c0.089-0.004,0.177-0.006,0.257-0.006c0.494,0,0.875,0.057,1.146,0.165c-0.208,0.945-1.301,2.051-3.274,3.315
			c-1.977,1.268-3.652,1.924-5.03,1.971C179.819,212.185,179.798,212.188,179.777,212.188 M208.251,210.988
			c-0.371,0-0.746-0.449-1.116-1.351c-0.337-0.746-0.515-1.322-0.528-1.735c-0.01-0.239,0.521-3.371,1.585-9.39
			c1.066-6.018,1.61-9.232,1.631-9.646c0.439-0.289,0.811-0.442,1.121-0.453c0.026,0,0.05-0.003,0.075-0.003
			c0.954,0,1.452,0.672,1.499,2.011c0.028,0.86-0.521,4.386-1.649,10.578c-1.181,6.638-2.047,9.972-2.599,9.988
			C208.262,210.988,208.259,210.988,208.251,210.988 M196.838,210.87c-0.211,0-0.425-0.027-0.639-0.081
			c-0.104-0.028-0.395-0.184-0.867-0.46c-0.466-0.268-0.787-0.404-0.962-0.404c-0.003,0-0.008,0-0.011,0c-0.016,0-0.031,0-0.047,0
			c-0.667,0-1.135-0.531-1.408-1.598c-0.197-0.717-0.314-1.605-0.353-2.67c-0.1-2.85,0.221-5.541,0.959-8.076
			c0.823-2.901,1.954-4.348,3.394-4.348c0.009,0,0.019,0,0.027,0c1.623,0.045,2.824,1.895,3.61,5.545
			c0.609,2.66,0.862,4.904,0.753,6.729c-0.084,1.551-0.575,2.821-1.472,3.814c-0.898,0.994-1.863,1.508-2.896,1.543
			C196.899,210.87,196.867,210.87,196.838,210.87 M197.661,196.302c-0.821,0.237-1.528,1.258-2.12,3.065
			c-0.562,1.669-0.814,3.31-0.756,4.925c0.039,1.201,0.304,2.028,0.784,2.473c0.466,0.436,0.901,0.649,1.305,0.649
			c0.014,0,0.025,0,0.039,0c1.274-0.044,1.842-2.058,1.702-6.042c-0.076-2.127-0.252-3.505-0.532-4.13
			C197.802,196.617,197.661,196.302,197.661,196.302 M223.145,210.419c-0.961,0-1.486-1.372-1.583-4.122
			c-0.077-2.195,0.048-4.503,0.378-6.921l-0.32-0.298c-0.234,0.25-0.42,0.376-0.558,0.38c-0.082,0.003-0.164,0.006-0.247,0.006
			c-2.836,0-4.318-1.788-4.442-5.361c-0.038-1.029,0.08-2.168,0.344-3.412c0.391-1.698,0.947-2.562,1.672-2.586
			c0.001,0,0.004,0,0.007,0c0.206,0,0.569,0.271,1.082,0.812c0.521,0.549,0.784,0.926,0.791,1.133
			c0.006,0.172-0.133,0.916-0.415,2.231s-0.418,2.043-0.415,2.18c0.028,0.824,0.243,1.558,0.646,2.195
			c0.093,0.117,0.367,0.176,0.819,0.176c0.072,0,0.144-0.001,0.221-0.004c0.768-0.715,1.404-2.302,1.906-4.761
			c0.407-2.109,0.904-3.176,1.491-3.195c0.015,0,0.027,0,0.035,0c0.404,0,0.803,0.217,1.203,0.651
			c0.413,0.45,0.627,0.849,0.638,1.191c0.02,0.585-0.386,3.003-1.221,7.262c-0.834,4.257-1.215,7.468-1.138,9.629
			c0.037,1.101,0.175,2.007,0.405,2.72c0.174,0.029-0.25,0.061-1.266,0.094C223.166,210.419,223.154,210.419,223.145,210.419"/>
		<path fill="#7C7C7B" d="M165.052,205.636c-1.626-0.184-2.668-0.271-3.125-0.271c-0.101,0-1.092-0.047-2.972-0.137
			c-1.879-0.092-2.883-0.137-3.011-0.137c-0.127,0-0.419-0.045-0.877-0.137c-0.507,0-0.811,0-0.915,0
			c-0.863,0-1.396-0.453-1.6-1.356c-0.307-1.36,0.202-2.039,1.523-2.039l2.134,0.137c0.104-0.091,0.585-0.137,1.448-0.137
			c0.865,0.09,1.347,0.137,1.448,0.137l5.716-0.137c0.306,0,0.535,0,0.688,0c-0.407,0-0.66,0.077-0.763,0.227
			c-0.152,0,0.152,0.152,0.917,0.454c0.355,0,0.687,0,0.991,0c0.557,0.089,0.787,0.586,0.687,1.494
			C167.239,205.001,166.477,205.636,165.052,205.636"/>
	</g>
	<g>
		<path fill="#FFFFFF" d="M64.233,161.715c-0.055,0-0.11-0.003-0.165-0.012c-1.787-0.216-2.934-1.575-3.856-2.667
			c-0.388-0.458-1.113-1.371-1.372-1.278c-0.269,0.035-0.591,0.812-0.805,1.325c-0.38,0.917-0.811,1.956-1.91,2.273
			c-0.709,0.201-1.454-0.201-1.658-0.91c-0.188-0.642,0.134-1.311,0.726-1.582c0.107-0.166,0.262-0.541,0.369-0.802
			c0.446-1.077,1.122-2.706,2.916-2.95c1.724-0.219,2.864,1.119,3.782,2.205c0.684,0.811,1.392,1.646,2.134,1.738
			c0.733,0.088,1.255,0.754,1.166,1.486C65.477,161.22,64.898,161.715,64.233,161.715z"/>
	</g>
</g>
</svg>
