<?xml version="1.0" encoding="utf-8"?>
<!-- Generator: Adobe Illustrator 16.0.4, SVG Export Plug-In . SVG Version: 6.00 Build 0)  -->
<!DOCTYPE svg PUBLIC "-//W3C//DTD SVG 1.1//EN" "http://www.w3.org/Graphics/SVG/1.1/DTD/svg11.dtd">
<svg version="1.1" id="Calque_1" xmlns="http://www.w3.org/2000/svg" xmlns:xlink="http://www.w3.org/1999/xlink" x="0px" y="0px"
	 width="435px" height="300px" viewBox="-55 -37.5 435 300" enable-background="new -55 -37.5 435 300" xml:space="preserve">
<g>
	<g>
		<g>
			<defs>
				<rect id="SVGID_1_" x="35.808" y="76.83" width="250.679" height="72.756"/>
			</defs>
			<clipPath id="SVGID_2_">
				<use xlink:href="#SVGID_1_"  overflow="visible"/>
			</clipPath>
			<path clip-path="url(#SVGID_2_)" fill="#1E1E1C" d="M42.365,98.816c0,0,15.433-12.302,32.272-4.472
				c16.838,7.828,5.613,36.901-15.435,41.374C38.156,140.192,28.332,115.031,42.365,98.816"/>
		</g>
		<g>
			<defs>
				<rect id="SVGID_3_" x="35.808" y="76.83" width="250.679" height="72.756"/>
			</defs>
			<clipPath id="SVGID_4_">
				<use xlink:href="#SVGID_3_"  overflow="visible"/>
			</clipPath>
			<path clip-path="url(#SVGID_4_)" fill="#FFFFFF" d="M64.365,107.662c0.368,1.103,1.662,3.693,1.468,5.213
				c-0.048,0.38-0.079,0.616-0.095,0.763c0,0-1.927,1.146-2.739,1.598c-0.809,0.452-4.239,1.799-6.036,2.105
				c-1.792,0.305-4.661,0.576-5.31,0.107c-0.647-0.472-2.577-2.347-2.843-3.688c-0.266-1.341-0.484-3.231,0.168-4.081
				c0.656-0.854,2.341-1.775,3.093-2.201c0.973-0.547,3.871-1.914,4.99-2.083c1.122-0.185,3.694-1.193,5.24-0.283
				C63.85,106.021,63.993,106.555,64.365,107.662 M67.571,115.944c-0.046,0.547-0.05,1.207-0.586,1.353
				c-0.536,0.142-1.336,0.456-1.693,0.396c-0.356-0.06-0.786-0.15-0.912-0.301c-0.127-0.145-0.292-0.739-0.292-0.739
				c0.263-0.5,0.586-0.694,1.11-1.028c0.53-0.336,0.941-0.631,1.349-0.596C66.962,115.063,67.624,115.398,67.571,115.944
				 M56.059,119.737c0.068,0.5,0.121,1.139-0.487,1.107c-0.607-0.021-1.096,0.566-1.348,0.594c-0.251,0.033-0.795,0.018-0.982-0.142
				c-0.586-0.489-0.083-1.211-0.083-1.211c0.411-0.622,1.125-0.839,1.801-0.972C55.632,118.977,55.993,119.235,56.059,119.737
				 M65.361,101.717c0.011-1.03-0.342-1.089-1.892-1.008c-2.607,0.138-6.413,1.329-7.867,1.832
				c-1.448,0.504-5.487,2.481-7.065,4.685c-1.571,2.195-0.824,6.769-0.277,8.657c0.554,1.889,3.172,6.762,3.807,7.793
				c0.638,1.031,1.382,2.081,2.257,2.029c0.864-0.042,1.963-0.67,2.176-1.307c0.206-0.645-0.119-1.466-0.06-1.813
				c0.061-0.355,1.321-1.409,1.992-1.638c0.664-0.229,4.646-1.561,6.05-1.847c1.398-0.289,1.623-0.091,1.807,0.375
				c0.183,0.465,0.306,0.574,0.847,0.974c0.548,0.401,1.363,0.312,2.493-0.131c1.131-0.447,0.466-2.338-0.092-3.348
				c-0.552-1.008-2.088-4.708-2.286-5.403C67.058,110.888,65.336,104.112,65.361,101.717"/>
		</g>
		<g>
			<defs>
				<rect id="SVGID_5_" x="35.808" y="76.83" width="250.679" height="72.756"/>
			</defs>
			<clipPath id="SVGID_6_">
				<use xlink:href="#SVGID_5_"  overflow="visible"/>
			</clipPath>
			<path clip-path="url(#SVGID_6_)" fill="#C4CD28" d="M98.325,110.971c0,0,15.925-12.691,33.299-4.615
				c17.375,8.077,5.79,38.075-15.925,42.69C93.981,153.66,83.846,127.7,98.325,110.971"/>
		</g>
		<g>
			<defs>
				<rect id="SVGID_7_" x="35.808" y="76.83" width="250.679" height="72.756"/>
			</defs>
			<clipPath id="SVGID_8_">
				<use xlink:href="#SVGID_7_"  overflow="visible"/>
			</clipPath>
			<path clip-path="url(#SVGID_8_)" fill="#FFFFFF" d="M110.494,118.409c0.107-0.823,0.212-1.648,0.212-1.648
				c-1.224-6.022-4.126-4.712-6.748-1.693c-0.354,0.792-1.159,3.202-1.122,4.885c0.729,5.957,2.798,5.379,4.963,3.978
				c0.594-0.763,1.189-1.523,1.783-2.286C109.932,120.849,110.148,119.2,110.494,118.409 M109.024,118.222
				c-0.593,0.76-1.015,4.061-1.506,3.998c-0.976-0.126-2.062,0.577-2.828-1.196c-0.383-0.888-0.421-2.569,0.28-4.151
				c1.539-2.321,2.76-2.166,3.879-1.188C108.988,116.539,108.885,117.364,109.024,118.222"/>
		</g>
		<g>
			<defs>
				<rect id="SVGID_9_" x="35.808" y="76.83" width="250.679" height="72.756"/>
			</defs>
			<clipPath id="SVGID_10_">
				<use xlink:href="#SVGID_9_"  overflow="visible"/>
			</clipPath>
			<path clip-path="url(#SVGID_10_)" fill="#FFFFFF" d="M112.72,112.227c-0.297,0.736,1.637,2.138,3.281,3.019
				c0.413,0.224,0.703,0.742,1.058,1.109c-0.069,0.145-0.475-0.074-0.537,0.072c-0.473-0.07-1.294-0.516-2.112-0.955
				c-2.12-0.959-2.068,0.15-3.132,0.295c-0.062,0.15-0.356-0.367-0.29-0.517c0.128-1.55-0.096-3.465,1.684-4.129
				C112.547,111.417,113.253,112.15,112.72,112.227"/>
		</g>
		<g>
			<defs>
				<rect id="SVGID_11_" x="35.808" y="76.83" width="250.679" height="72.756"/>
			</defs>
			<clipPath id="SVGID_12_">
				<use xlink:href="#SVGID_11_"  overflow="visible"/>
			</clipPath>
			<path clip-path="url(#SVGID_12_)" fill="#FFFFFF" d="M113.246,118.067c1.571,0.264,0.751,1.261,1.397,1.977
				c0.589,0.447,1.62,0.531,2.649,0.613c3.576,0.163,6.791-1.568,6.917-3.552c0,0,0.436-0.363,0.925-0.457
				c0.538,0.179,1.132,0.626,1.184,0.894c1.442,2.247-4.366,3.634-7.353,3.922c-1.467,0.275-2.494,0.193-4.011,0.2
				c-1.521,0.009-2.602-0.347-3.247-1.062c-0.646-0.72,0.229-1.443,0.615-2.079C112.815,118.433,112.765,118.161,113.246,118.067"/>
		</g>
		<g>
			<defs>
				<rect id="SVGID_13_" x="35.808" y="76.83" width="250.679" height="72.756"/>
			</defs>
			<clipPath id="SVGID_14_">
				<use xlink:href="#SVGID_13_"  overflow="visible"/>
			</clipPath>
			<path clip-path="url(#SVGID_14_)" fill="#FFFFFF" d="M114.124,127.267c-0.521-0.899,0.331-0.896,0.425-1.52
				c-0.018-0.484-0.402-1.037-0.79-1.594c-1.402-1.867-3.614-2.771-4.677-2.013c0,0-0.363-0.07-0.613-0.276
				c-0.138-0.349-0.15-0.828-0.036-0.97c0.542-1.659,3.655,0.694,5.04,2.082c0.751,0.625,1.141,1.179,1.771,1.938
				c0.637,0.762,0.904,1.456,0.806,2.079c-0.1,0.619-0.83,0.479-1.31,0.553C114.491,127.339,114.375,127.474,114.124,127.267"/>
		</g>
		<g>
			<defs>
				<rect id="SVGID_15_" x="35.808" y="76.83" width="250.679" height="72.756"/>
			</defs>
			<clipPath id="SVGID_16_">
				<use xlink:href="#SVGID_15_"  overflow="visible"/>
			</clipPath>
			<path clip-path="url(#SVGID_16_)" fill="#FFFFFF" d="M119.662,120.805c1.338-1.129-0.588,5.18-0.588,5.18
				c-0.46,4.118,0.291,6.07-0.895,9.226c-0.258,0.021-0.515,0.043-0.515,0.043C116.882,130.211,117.546,121.995,119.662,120.805"/>
		</g>
		<g>
			<defs>
				<rect id="SVGID_17_" x="35.808" y="76.83" width="250.679" height="72.756"/>
			</defs>
			<clipPath id="SVGID_18_">
				<use xlink:href="#SVGID_17_"  overflow="visible"/>
			</clipPath>
			<path clip-path="url(#SVGID_18_)" fill="#FFFFFF" d="M120.851,140.489c-1.917,0.838-4.465-0.68-5.798-2.1
				c-0.818-0.963-1.45-2.202-1.847-3.687c-0.338-1.292-0.467-3.102,0.843-5.43c3.617-4.543,9.154-2.155,9.968,5.075
				C124.215,137.895,122.609,139.708,120.851,140.489 M113.223,127.438c-0.653,1.164-1.81,2.269-2.12,4.729
				c-0.316,2.461,0.371,5.041,1.208,6.399c3.354,5.422,8.329,6.05,13.096,0.407c0,0,0.655-1.166,0.811-2.4
				C125.797,124.028,118.328,123.083,113.223,127.438"/>
		</g>
		<g>
			<defs>
				<rect id="SVGID_19_" x="35.808" y="76.83" width="250.679" height="72.756"/>
			</defs>
			<clipPath id="SVGID_20_">
				<use xlink:href="#SVGID_19_"  overflow="visible"/>
			</clipPath>
			<path clip-path="url(#SVGID_20_)" fill="#1E1E1C" d="M143.227,84.135c0,0,15.925-12.693,33.299-4.616
				c17.372,8.075,5.79,38.075-15.924,42.691C138.882,126.824,128.747,100.863,143.227,84.135"/>
		</g>
		<g>
			<defs>
				<rect id="SVGID_21_" x="35.808" y="76.83" width="250.679" height="72.756"/>
			</defs>
			<clipPath id="SVGID_22_">
				<use xlink:href="#SVGID_21_"  overflow="visible"/>
			</clipPath>
			<path clip-path="url(#SVGID_22_)" fill="#FFFFFF" d="M156.03,85.716c0.02-1.655-0.105-3.37,0.553-4.857
				c1.412-0.565,2.851-0.333,3.931,0.65c0.156,0.332,0.464,0.312,0.688,0.567c0.284,2.288-0.011,4.895-1.813,6.536
				c-0.752,0.453-1.555,0.044-2.336,0.044C156.046,88.084,156.26,86.687,156.03,85.716"/>
		</g>
		<g>
			<defs>
				<rect id="SVGID_23_" x="35.808" y="76.83" width="250.679" height="72.756"/>
			</defs>
			<clipPath id="SVGID_24_">
				<use xlink:href="#SVGID_23_"  overflow="visible"/>
			</clipPath>
			<path clip-path="url(#SVGID_24_)" fill="#FFFFFF" d="M164.416,84.571c0.859-0.295,1.799-0.172,2.62,0.416
				c0.449,1.185-0.706,2.343-0.911,3.549c-0.694,0.659-1.238,1.551-2.066,2.059c-1.062-0.555-1.111-2.006-1.147-3.057
				C163.008,86.389,163.131,85.016,164.416,84.571"/>
		</g>
		<g>
			<defs>
				<rect id="SVGID_25_" x="35.808" y="76.83" width="250.679" height="72.756"/>
			</defs>
			<clipPath id="SVGID_26_">
				<use xlink:href="#SVGID_25_"  overflow="visible"/>
			</clipPath>
			<path clip-path="url(#SVGID_26_)" fill="#FFFFFF" d="M149.398,113.169c0.099-1.926,2.032-2.886,2.934-4.375
				c0.49,1.208-0.138,2.592-0.631,3.755c-0.071,0.426,0.426,0.54,0.768,0.632c0.587,0.218,1.009,0.726,1.514,1.089
				c1.12,0.54,2.733,0.478,3.649-0.394c1.307-1.072,2.863-2.46,2.564-4.374c-0.292-0.948-0.543-1.88-0.478-2.77
				c0.779-0.366,1.701,0.135,2.507-0.461c2.181-0.622,3.479-3.063,4.115-5.008c-0.045-0.736,0.236-1.532-0.134-2.211
				c-1.815-1.596-3.956-2.799-6.14-3.796c-1.32-0.268-2.872-1.125-4.033,0.12c-0.656,0.587-0.968,1.391-1.354,2.148
				c0.592,2.521,2.402,5.146,0.855,7.628l-0.35,0.09c0.946-2.842-1.19-5.632-2.446-7.944c-0.328-1.78,0.257-3.528,1.24-5.104
				c0.953-0.635,2.035-1.14,3.108-1.216l0.553,0.072c3.467-0.595,6.982,1.976,8.83,4.626c1.651,2.483,2.416,5.738,1.122,8.458
				c-1.673,2.477-5.637,2.055-6.825,5.055c-0.753,2.42-0.902,6.453-4.376,6.797c-1.122,0.241-2.361,0.294-3.516,0.077
				C151.612,115.22,149.628,114.823,149.398,113.169"/>
		</g>
		<g>
			<defs>
				<rect id="SVGID_27_" x="35.808" y="76.83" width="250.679" height="72.756"/>
			</defs>
			<clipPath id="SVGID_28_">
				<use xlink:href="#SVGID_27_"  overflow="visible"/>
			</clipPath>
			<path clip-path="url(#SVGID_28_)" fill="#FFFFFF" d="M170.154,89.537c0.402,0.45,0.653,1.131,0.755,1.73
				c-0.462,0.963-1.4,1.653-2.559,1.653c-0.447-0.028-0.959,0.045-1.294-0.395c-0.402-0.33-0.254-0.934-0.151-1.363
				C167.773,90.337,168.706,88.586,170.154,89.537"/>
		</g>
		<g>
			<defs>
				<rect id="SVGID_29_" x="35.808" y="76.83" width="250.679" height="72.756"/>
			</defs>
			<clipPath id="SVGID_30_">
				<use xlink:href="#SVGID_29_"  overflow="visible"/>
			</clipPath>
			<path clip-path="url(#SVGID_30_)" fill="#FFFFFF" d="M172.916,95.307c-0.472,1.031-1.518,1.438-2.487,1.699
				c-0.469-0.276-0.968-0.701-0.857-1.328c0.152-0.133,0.073-0.424,0.114-0.625c0.484-0.849,1.912-1.824,2.777-0.841
				C172.774,94.44,172.782,94.938,172.916,95.307"/>
		</g>
		<g>
			<defs>
				<rect id="SVGID_31_" x="35.808" y="76.83" width="250.679" height="72.756"/>
			</defs>
			<clipPath id="SVGID_32_">
				<use xlink:href="#SVGID_31_"  overflow="visible"/>
			</clipPath>
			<path clip-path="url(#SVGID_32_)" fill="#FFFFFF" d="M173.315,99.535c-0.265,0.628-0.907,1.021-1.579,1.079
				c-0.238,0.064-0.475-0.121-0.606-0.273c-0.191-0.569-0.397-1.326,0.329-1.527l0.337-0.153
				C172.068,99.429,173.354,98.307,173.315,99.535"/>
		</g>
		<g>
			<defs>
				<rect id="SVGID_33_" x="35.808" y="76.83" width="250.679" height="72.756"/>
			</defs>
			<clipPath id="SVGID_34_">
				<use xlink:href="#SVGID_33_"  overflow="visible"/>
			</clipPath>
			<path clip-path="url(#SVGID_34_)" fill="#1E1E1C" d="M245.934,95.857c0,0,15.482-12.336,32.37-4.486
				c16.885,7.85,5.628,37.011-15.482,41.496C241.71,137.354,231.859,112.117,245.934,95.857"/>
		</g>
		<g>
			<defs>
				<rect id="SVGID_35_" x="35.808" y="76.83" width="250.679" height="72.756"/>
			</defs>
			<clipPath id="SVGID_36_">
				<use xlink:href="#SVGID_35_"  overflow="visible"/>
			</clipPath>
			<path clip-path="url(#SVGID_36_)" fill="#FFFFFF" d="M260.344,119.359c-0.186-1.175-0.684-2.796-1.367-4.461
				c-0.183-0.38-0.265-0.875-0.575-1.164c-1.777-0.086-3.296-0.924-4.852-0.966c-0.408-0.79-0.592-4.004-0.562-5.084
				c0.176-1.374,0.332-2.007,1.373-3.053c0.562-0.412,1.425-0.916,1.858-0.355l0.762,1.582c0.427,1.101,0.522,2.25,0.949,3.352
				c0.282,0.55,2.617,1.548,3.313,1.738c-0.225,0.415-1.093,0.347-1.032,0.839c0.355,0.354,0.978,0.588,1.356,0.93
				c0.228,1.248-0.267,6.307-0.299,7.495C261.081,120.151,260.652,120.261,260.344,119.359"/>
		</g>
		<g>
			<defs>
				<rect id="SVGID_37_" x="35.808" y="76.83" width="250.679" height="72.756"/>
			</defs>
			<clipPath id="SVGID_38_">
				<use xlink:href="#SVGID_37_"  overflow="visible"/>
			</clipPath>
			<path clip-path="url(#SVGID_38_)" fill="#FFFFFF" d="M255.317,99.332l0.032,0.076c1.057-0.377,2.182-0.392,3.231-0.846
				c0.241,0.044,0.465,0.156,0.511,0.41c-0.24,1.493-0.648,3.188-1.669,4.312c-0.736,0.2-1.683-0.137-2.452,0.125
				c-0.073-0.688,0.34-1.326,0.394-2.072c0.056-0.416-0.223-0.826-0.087-1.2C255.191,99.892,255.268,99.615,255.317,99.332"/>
		</g>
		<g>
			<defs>
				<rect id="SVGID_39_" x="35.808" y="76.83" width="250.679" height="72.756"/>
			</defs>
			<clipPath id="SVGID_40_">
				<use xlink:href="#SVGID_39_"  overflow="visible"/>
			</clipPath>
			<path clip-path="url(#SVGID_40_)" fill="#FFFFFF" d="M254.496,118.255c-0.186-1.169-0.68-2.791-1.367-4.455
				c-0.178-0.383-0.262-0.877-0.575-1.163c-1.772-0.085-3.294-0.925-4.85-0.968c-0.405-0.789-0.593-4.005-0.559-5.084
				c0.172-1.373,0.329-2.007,1.375-3.054c0.551-0.412,1.422-0.916,1.851-0.354l0.764,1.583c0.426,1.098,0.52,2.25,0.946,3.346
				c0.284,0.556,2.622,1.549,3.318,1.739c-0.229,0.416-1.097,0.351-1.031,0.842c0.355,0.355,0.973,0.588,1.354,0.931
				c0.229,1.253-0.269,6.306-0.303,7.498C255.238,119.056,254.802,119.16,254.496,118.255"/>
		</g>
		<g>
			<defs>
				<rect id="SVGID_41_" x="35.808" y="76.83" width="250.679" height="72.756"/>
			</defs>
			<clipPath id="SVGID_42_">
				<use xlink:href="#SVGID_41_"  overflow="visible"/>
			</clipPath>
			<path clip-path="url(#SVGID_42_)" fill="#FFFFFF" d="M249.475,98.24l0.027,0.07c1.06-0.379,2.184-0.393,3.233-0.846
				c0.239,0.043,0.464,0.159,0.505,0.407c-0.235,1.499-0.647,3.188-1.667,4.315c-0.733,0.197-1.677-0.134-2.446,0.124
				c-0.073-0.686,0.337-1.324,0.392-2.073c0.051-0.416-0.225-0.827-0.091-1.202C249.341,98.796,249.417,98.519,249.475,98.24"/>
		</g>
		<g>
			<defs>
				<rect id="SVGID_43_" x="35.808" y="76.83" width="250.679" height="72.756"/>
			</defs>
			<clipPath id="SVGID_44_">
				<use xlink:href="#SVGID_43_"  overflow="visible"/>
			</clipPath>
			<path clip-path="url(#SVGID_44_)" fill="#FFFFFF" d="M265.934,101.284c0.006-0.262,0.128-0.44,0.316-0.585
				c0.234-0.06,1.701-0.373,2.551-0.704c0.427-0.048,0.904-0.018,0.938,0.507c0.266,1.464-0.657,2.538-1.041,3.836
				c-0.729,0.665-1.817,0.479-2.739,0.713C266.302,103.727,266.197,102.5,265.934,101.284"/>
		</g>
		<g>
			<defs>
				<rect id="SVGID_45_" x="35.808" y="76.83" width="250.679" height="72.756"/>
			</defs>
			<clipPath id="SVGID_46_">
				<use xlink:href="#SVGID_45_"  overflow="visible"/>
			</clipPath>
			<path clip-path="url(#SVGID_46_)" fill="#FFFFFF" d="M268.213,112.509c0.452-0.017,0.99,0.043,1.646-0.007
				c0.845,0.07,1.104,1.042,1.459,1.758c0.761,1.619,1.264,3.454,1.618,5.156c0.09,0.935,0.12,1.88,0.073,2.849
				c-0.159,0.008-0.544-0.113-0.578-0.214c0.006,0-0.94-2.484-0.94-2.486c-1.219-2.58-2.12-3.281-3.566-4.154
				c-0.898-0.213-4.137-0.176-5.458-1.518c0.154-2.232,0.215-4.7,1.026-6.829c0.611-0.848,1.753-1.219,2.709-1.526
				c1.583,0.243,1.921,1.955,3.114,3.415c0.585,0.715,1.286,1.739,1.96,1.316c0.863-0.424,1.94-1.152,2.727-1.77
				c0.312-0.25,0.792-0.143,1.143,0.014c-0.613,1.118-1.949,1.759-2.742,2.751c-0.392,0.284-1.144,1.197-1.73,0.973
				c-0.858-0.564-0.868-0.795-1.799-1.26c-0.374-0.132-0.904-0.547-1.244-0.185C267.795,111.36,267.923,112.513,268.213,112.509"/>
		</g>
		<g>
			<defs>
				<rect id="SVGID_47_" x="35.808" y="76.83" width="250.679" height="72.756"/>
			</defs>
			<clipPath id="SVGID_48_">
				<use xlink:href="#SVGID_47_"  overflow="visible"/>
			</clipPath>
			<path clip-path="url(#SVGID_48_)" fill="#C4CD28" d="M194.487,105.75c0,0,15.925-12.692,33.297-4.613
				c17.375,8.075,5.793,38.074-15.923,42.691C190.143,148.441,180.01,122.481,194.487,105.75"/>
		</g>
		<g>
			<defs>
				<rect id="SVGID_49_" x="35.808" y="76.83" width="250.679" height="72.756"/>
			</defs>
			<clipPath id="SVGID_50_">
				<use xlink:href="#SVGID_49_"  overflow="visible"/>
			</clipPath>
			<path clip-path="url(#SVGID_50_)" fill="#FFFFFF" d="M211.413,110.38c1.133-1.284,1.204-3.13,1.684-4.77
				c1.05-0.94,2.619-0.128,3.912-0.123l0.441,0.509l-0.239,2.25l-1.133,1.677C214.583,110.831,213.136,110.229,211.413,110.38"/>
		</g>
		<g>
			<defs>
				<rect id="SVGID_51_" x="35.808" y="76.83" width="250.679" height="72.756"/>
			</defs>
			<clipPath id="SVGID_52_">
				<use xlink:href="#SVGID_51_"  overflow="visible"/>
			</clipPath>
			<path clip-path="url(#SVGID_52_)" fill="#FFFFFF" d="M196.645,113.438c1.678-0.746,3.521-0.955,5.249-1.557
				c1.98-0.284,4.103-1.117,5.821-1.028c1.849,0.048,4.248,0.332,6.065,1.18c0.299,0.197,0.549,0.484,0.159,1.022
				c-0.688,1.35-1.66,2.79-1.137,4.48c0.65,1.973,0.867,4.086,1.314,6.135c0.196,0.74,0.103,1.318,0.042,2.15
				c-1.293,1.982-2.75,3.926-3.986,5.959c-0.188,0.381-0.176,0.448-0.396,0.815c0.068,0.2,0.121,0.333,0.314,0.325
				c1.398,0.074,2.734,0.64,3.806,1.386c-0.792,0.055-1.409-0.293-2.264-0.159c-1.853-0.411-3.888-0.244-5.821-0.66
				c1.017-0.432,1.975-0.923,3.099-0.984c0-0.004,0-0.006,0-0.008c0.464-0.062,0.621-0.139,0.621-0.139v-0.027
				c0.008,0,0.011-0.002,0.016,0c0-0.046,0.005-0.088,0.009-0.132c0.211-2.044,0.73-3.983,2.391-5.271
				c0.196-0.432,0.602-0.936,0.296-1.459c-1.027-1.306-2.711-4.947-3.088-5.164c-1.84,1.852-3.157,4.164-5.054,6.018
				c-2.146,0.553-4.396-0.194-6.487-0.73c-0.184,0.492-0.397,1.229-0.277,1.852c-0.126,1.025,0.017,2.184-0.219,3.148
				c-0.516-1.07-0.299-2.511-0.604-3.732c-0.076-1.325-0.729-2.455-0.892-3.755c0.206-0.464,0.53,0.065,0.747,0.188
				c0.596,0.351,0.774,1.373,1.514,1.311c1.621-0.753,3.645-0.807,5.382-0.772c0.654-2.168,2.872-6.539,4.15-9.078
				c0,0-0.322-0.192-0.794-0.438l-1.614-0.875c-1.2-0.475-2.438-0.028-3.692-0.198c-1.618,0.305-3.324,0.602-4.951,0.597
				C196.322,113.641,196.548,113.57,196.645,113.438"/>
		</g>
		<g>
			<defs>
				<rect id="SVGID_53_" x="35.808" y="76.83" width="250.679" height="72.756"/>
			</defs>
			<clipPath id="SVGID_54_">
				<use xlink:href="#SVGID_53_"  overflow="visible"/>
			</clipPath>
			<path clip-path="url(#SVGID_54_)" fill="#FFFFFF" d="M222.407,117.745c-0.953-0.189-1.833-0.141-2.683-0.089
				c-0.92,0.052-1.793,0.094-2.728-0.141c-0.707-0.503-1.28-1.183-1.876-1.902l-1.251-1.44l-0.051,0.49
				c-0.159,1.349,0.151,2.603,0.874,3.516c1.285,1.232,3.463,1.123,5.094,0.485c0.667,0.141,1.216-0.058,1.747-0.247
				c0.294-0.109,0.569-0.211,0.863-0.25L222.407,117.745z"/>
		</g>
		<g>
			<defs>
				<rect id="SVGID_55_" x="35.808" y="76.83" width="250.679" height="72.756"/>
			</defs>
			<clipPath id="SVGID_56_">
				<use xlink:href="#SVGID_55_"  overflow="visible"/>
			</clipPath>
			<path clip-path="url(#SVGID_56_)" fill="#FFFFFF" d="M193.714,122.198c0.384,0.106,0.859,0.086,1.066,0.41
				c0.094,0.595-0.221,1.009-0.685,1.24c-0.242,0.108-0.646,0.094-1.012-0.295C192.851,123.312,192.896,122.133,193.714,122.198"/>
		</g>
		<g>
			<defs>
				<rect id="SVGID_57_" x="35.808" y="76.83" width="250.679" height="72.756"/>
			</defs>
			<clipPath id="SVGID_58_">
				<use xlink:href="#SVGID_57_"  overflow="visible"/>
			</clipPath>
			<path clip-path="url(#SVGID_58_)" fill="#FFFFFF" d="M195.303,127.484c-0.228,0.517-0.758,0.308-1.108,0.172
				c-0.19-0.095-0.512-0.148-0.611-0.431c-0.084-0.426-0.076-0.932,0.335-1.179c0.51-0.081,1.124-0.062,1.461,0.351
				C195.494,126.773,195.469,127.133,195.303,127.484"/>
		</g>
		<g>
			<defs>
				<rect id="SVGID_59_" x="35.808" y="76.83" width="250.679" height="72.756"/>
			</defs>
			<clipPath id="SVGID_60_">
				<use xlink:href="#SVGID_59_"  overflow="visible"/>
			</clipPath>
			<path clip-path="url(#SVGID_60_)" fill="#FFFFFF" d="M195.285,131.763c-0.664,0.179-1.008-0.466-1.229-0.898
				c0.11-0.301,0.137-0.716,0.536-0.828c0.587,0.01,1.229,0.058,1.501,0.635C196.163,131.206,195.639,131.507,195.285,131.763"/>
		</g>
		<g>
			<defs>
				<rect id="SVGID_61_" x="35.808" y="76.83" width="250.679" height="72.756"/>
			</defs>
			<clipPath id="SVGID_62_">
				<use xlink:href="#SVGID_61_"  overflow="visible"/>
			</clipPath>
			<path clip-path="url(#SVGID_62_)" fill="#FFFFFF" d="M206.029,135.925c-0.312,0.454-0.925,0.359-1.363,0.24
				c-0.315-0.355-0.564-0.817-0.308-1.303c0.239-0.127,0.312-0.425,0.57-0.44c0.511-0.02,0.838,0.422,1.101,0.75
				C206.123,135.402,206.014,135.676,206.029,135.925"/>
		</g>
		<g>
			<defs>
				<rect id="SVGID_63_" x="35.808" y="76.83" width="250.679" height="72.756"/>
			</defs>
			<clipPath id="SVGID_64_">
				<use xlink:href="#SVGID_63_"  overflow="visible"/>
			</clipPath>
			<path clip-path="url(#SVGID_64_)" fill="#FFFFFF" d="M210.008,136.79c-0.48,0.054-1.297,0.16-1.362-0.537
				c-0.222-0.436,0.243-0.714,0.223-1.135c0.274-0.316,0.819-0.139,1.151-0.062C210.021,135.056,211.066,135.925,210.008,136.79"/>
		</g>
		<g>
			<defs>
				<rect id="SVGID_65_" x="35.808" y="76.83" width="250.679" height="72.756"/>
			</defs>
			<clipPath id="SVGID_66_">
				<use xlink:href="#SVGID_65_"  overflow="visible"/>
			</clipPath>
			<path clip-path="url(#SVGID_66_)" fill="#FFFFFF" d="M212.853,135.984c0.061-0.585,0.728-0.45,1.105-0.652
				c0.335,0.079,0.586,0.437,0.761,0.727c0.06,0.366-0.204,0.574-0.201,0.94c-0.39,0.301-0.855,0.16-1.262-0.035
				C212.907,136.772,212.876,136.352,212.853,135.984"/>
		</g>
	</g>
</g>
</svg>
