<?xml version="1.0" encoding="utf-8"?>
<!-- Generator: Adobe Illustrator 16.0.4, SVG Export Plug-In . SVG Version: 6.00 Build 0)  -->
<!DOCTYPE svg PUBLIC "-//W3C//DTD SVG 1.1//EN" "http://www.w3.org/Graphics/SVG/1.1/DTD/svg11.dtd">
<svg version="1.1" id="Calque_1" xmlns="http://www.w3.org/2000/svg" xmlns:xlink="http://www.w3.org/1999/xlink" x="0px" y="0px"
	 width="325px" height="225px" viewBox="0 0 325 225" enable-background="new 0 0 325 225" xml:space="preserve">
<g id="Calque_1_1_">
</g>
<path fill="#0E0000" d="M15.997,72.999C25,73,27.825,66.669,29,63c-1.995-4.584,2-10-7.456-13.752
	c-6.852,1-12.139,4.121-13.105,10.979C7.622,65.879,10.143,70.521,15.997,72.999z"/>
<path fill="#1C0C00" d="M20.465,146.646C26.5,140,29.139,130.6,20.5,126c-0.513-2.696-5.588-3.861-8.768-2.643
	c-4.597,3.047-7.109,7.236-5.721,12.466C7.834,142.727,13.292,145.887,20.465,146.646z"/>
<path fill="#140000" d="M42.635-0.199c5.066-5.523,5.923-13.261,11.012-18.795c0.258-0.25-0.686-1.507-1.093-2.251
	c-6.604-0.683-11.105,2.691-13.633,7.762c-2.353,4.806-1.101,9.7,2.965,13.66C42.055-0.058,42.322-0.192,42.635-0.199z"/>
<path fill="#0E0000" d="M296.807,72.999C292,73.5,286.113,68.669,285,65c1.893-4.584-3-12,6.551-15.752
	c6.492,1,11.502,4.121,12.418,10.979C304.742,65.879,302.354,70.521,296.807,72.999z"/>
<path fill="#1C0C00" d="M292.573,146.646C289.5,140.5,288.305,134.783,289.5,128c0.485-2.696,8.336-5.861,11.35-4.643
	c4.354,3.047,6.735,7.236,5.418,12.466C304.541,142.727,299.37,145.887,292.573,146.646z"/>
<path fill="#140000" d="M271.568-0.199c-4.801-5.523-5.612-13.261-10.436-18.795c-0.244-0.25,0.648-1.507,1.035-2.251
	c6.259-0.683,10.521,2.691,12.918,7.762c2.229,4.806,1.043,9.7-2.811,13.66C272.117-0.058,271.863-0.192,271.568-0.199z"/>
</svg>
