<?xml version="1.0" encoding="utf-8"?>
<!-- Generator: Adobe Illustrator 16.0.4, SVG Export Plug-In . SVG Version: 6.00 Build 0)  -->
<!DOCTYPE svg PUBLIC "-//W3C//DTD SVG 1.1//EN" "http://www.w3.org/Graphics/SVG/1.1/DTD/svg11.dtd">
<svg version="1.1" id="Calque_1" xmlns="http://www.w3.org/2000/svg" xmlns:xlink="http://www.w3.org/1999/xlink" x="0px" y="0px"
	 width="435px" height="300px" viewBox="-55 -37.5 435 300" enable-background="new -55 -37.5 435 300" xml:space="preserve">
<g>
	<g>
		<path fill="#030000" d="M102.647,35.776c-4.387-2.095-3.621-4.27-0.625-7.307c10.171-10.305,21.765-18.403,35.192-23.876
			c1.095-0.443,2.198-0.951,3.286-1.445c0.107-0.054,0.147-0.275,0.334-0.668c-8.201-6.525-14.402-14.923-20.488-23.381
			c-1.33-1.854-5.267-4.31-1.175-7.074c4.057-2.75,7.752-1.319,9.895,2.871c4.286,8.391,8.256,17.036,17.224,21.868
			c2.056,1.083,3.493,1.392,5.657,0.335c11.849-5.742,23.618-5.695,35.024,1.237c1.894,1.158,3.169,0.314,4.728-0.488
			c7.142-3.653,12.44-9.06,15.895-16.287c1.182-2.489,2.808-4.845,3.519-7.461c1.089-3.941,3.581-4.598,7.054-4.114
			c4.729,0.662,5.69,1.967,3.251,5.929c-5.709,9.2-12.164,17.86-20.467,24.98c-0.773,0.663-1.618,1.224-2.987,2.242
			c10.605,4.315,20.373,9.093,28.756,16.22c2.874,2.429,5.649,5.019,8.564,7.401c3.304,2.669,3.534,4.992-0.419,7.167
			c-0.348,2.376-2.322,3.393-4.043,4.411c-15.946,9.415-32.484,17.318-51.085,20.303c-15.282,2.456-29.952,0.167-44.193-5.072
			c-9.996-3.693-19.91-7.829-28.703-14.078C105.328,38.398,103.487,37.643,102.647,35.776z"/>
		<path fill="#292928" d="M102.647,35.776c10.58,6.089,21.173,12.139,32.706,16.313c19.266,6.979,38.545,8.204,58.482,1.84
			c14.764-4.73,28.146-11.723,41.043-20.008c1.115,1.693,2.258,3.38,3.374,5.052c0.435,2.39-1.579,2.757-2.964,3.654
			c-3.985,1.92-7.736,4.275-11.587,6.43c-1.586,0.998-3.299,1.72-5.017,2.41c-2.815,1.078-5.65,2.108-8.298,3.566
			c-7.147,2.235-14.416,4.083-21.588,6.184c-14.302,1.66-28.604,1.66-42.925,0.468c-2.404-1.258-5.065-1.734-7.658-2.395
			c-3.587-1.392-7.577-1.532-11.003-3.466c-7.631-3.373-15.33-6.611-22.981-9.931c-2.142-0.949-4.615-1.645-4.768-4.644
			C100.532,39.422,101.593,37.596,102.647,35.776z"/>
		<path fill="#64291F" d="M62.594,127.845c-0.033-0.775-0.078-1.564-0.118-2.334c-1.229-2.656-0.632-5.334-0.066-7.99
			c0.742-3.492,1.706-6.946,1.726-10.546c1.404-0.576,2.855-1.111,2.902-2.998c4.759-9.723,8.027-20.075,12.837-29.771
			c5.206-10.553,11.13-20.509,21.596-27.021c2.351-1.459,4.01-2.008,6.476-0.73c3.224,1.646,6.636,2.898,9.942,4.356
			c1.927,2.991-0.766,3.387-2.446,4.021c-2.699,1.018-5.615,1.392-8.335,2.409c-10.264,3.722-15.82,12.166-20.024,21.273
			c-5.394,11.704-11.13,23.307-14.735,35.793c-0.997,3.453-2.495,6.818-4.404,9.896C66.782,126.073,65.863,128.815,62.594,127.845z"
			/>
		<path fill="#763125" d="M102.613,233.954c-9.155-6.524-16.363-14.821-22.21-24.344c1.96-2.102,2.051-2.193,4.343-0.134
			c3.318,2.989,6.502,6.129,9.726,9.222c10.735,10.271,24.122,14.192,38.289,16.239c4.017,0.575,7.886-0.354,11.513-2.161
			c2.479-0.42,4.945-0.469,7.356,0.469c2.788,2.984,6.643,4.704,9.317,7.857c-1.954,6.746-8.738,9.924-16.901,7.937
			c-13.502-5-27.555-8.614-40.438-15.237C103.338,233.66,102.942,233.854,102.613,233.954z"/>
		<path fill="#853326" d="M276.081,175.906c-3.184,9.234-5.89,18.669-11.547,26.839c-0.839-1.425-0.152-2.602,0.693-3.699
			c-7.28,9.662-14.47,19.406-24.801,26.23c-2.497-0.031-5.239,2.724-7.448-0.636c0.651-3.167,3.648-3.909,5.791-5.522
			c11.996-9.1,22.053-19.899,28.18-33.771c3.13-7.086,4.52-14.769,5.589-22.451c2.147-10.211,2.189-20.26-2.123-30.012
			c-0.322-0.701-0.518-1.412-0.618-2.154c-2.606-10.947-7.457-21.059-11.869-31.297c-3.259-7.555-6.934-14.975-10.984-22.183
			c-3.404-6.05-7.455-11.562-13.421-15.404c-1.289-0.951-2.518-1.927-2.766-3.653c2.861-2.516,5.125-0.241,7.229,1.158
			c7.058,4.704,11.277,11.75,15.206,18.984c0.732,1.345,1.289,2.797,2.17,4.055c0.651,1.098,1.135,2.249,1.605,3.426
			c1.947,4.604,3.284,9.488,5.991,13.777c0.419,0.609,0.727,1.25,1.015,1.907c4.039,10.928,9.075,21.455,12.396,32.657
			c1.746,5.868,1.746,11.797,2.001,17.759c0.067,1.344-0.397,2.755,0.739,3.888c0.289,1.705,2.351,1.719,2.983,3.09
			c-2.077,2.289-2.653,5.059-2.97,8.03C278.776,170.103,278.63,173.427,276.081,175.906z"/>
		<path fill="#8A3528" d="M144.839,233.151c-3.863,4.463-9.028,3.533-13.879,2.984c-18.977-2.129-34.258-11.17-46.817-25.249
			c-0.81-0.91-1.478-3.921-3.741-1.277c-3.75-4.892-6.625-10.258-8.948-15.961c2.817-2.729,4.128,0.229,5.455,1.694
			c2.723,3.029,4.957,6.497,8.601,8.626c4.649,4.109,8.921,8.579,13.885,12.398c7.745,5.989,16.478,7.542,25.875,7.148
			c1.551-0.069,3.09-0.41,4.668-0.229c4.259,0.683,8.418,1.68,12.132,3.995C143.965,228.769,145.222,230.567,144.839,233.151z"/>
		<path fill="#7F3125" d="M62.594,127.845c6.019-4.142,6.892-11.074,9.341-17.136c6.734-16.595,11.75-34.021,23.868-47.939
			c3.123-3.586,6.932-6.062,11.714-6.846c0.256,3.594-2.834,5.279-4.446,7.823C94.66,71.83,90.214,82.183,86.21,92.814
			c-1.024,2.717-2.243,5.374-3.483,8.018c-5.928,7.333-6.52,16.902-10.641,25.02c-2.167,4.27-4.208,8.659-5.343,13.383
			c-1.142,4.698-1.969,9.422-1.811,14.286c0.078,2.417,0.044,4.852-2.083,6.607c-0.634,0.38-1.142,0.278-1.528-0.351
			c0.033-8.478,0.02-16.956,0.171-25.421C61.52,132.168,61.413,129.872,62.594,127.845z"/>
		<path fill="#8C3D2D" d="M62.1,160.372c2.268-2.857,1.224-6.236,1.347-9.38c0.242-6.356,1.491-12.44,3.92-18.344
			c3.033-7.419,7.01-14.438,8.737-22.396c0.833-3.827,3.2-7.12,5.504-10.317c2.221,1.164,1.148,2.891,0.671,4.403
			c-0.563,1.794-1.38,3.505-1.525,5.387c-0.963,4.249-3.412,7.997-4.128,12.333c-5.054,12.205-8.44,24.719-7.285,38.122
			c0.185,2.222,0.263,4.456,0.669,6.651c0.231,10.986,4.944,20.282,10.989,29.075c0.71,3.227,5.015,5.005,3.667,9.04
			c-3.378-1.826-5.475-4.904-7.875-7.735c-1.353-1.586-2.008-4.739-5.336-3.567c-2.236-5.206-4.464-10.413-6.7-15.625
			c-2.271-4.771-2.808-9.984-3.728-15.082C60.841,161.925,60.993,160.917,62.1,160.372z"/>
		<path fill="#53241B" d="M118.506,51.688c-1.269-0.576-2.505-1.164-3.774-1.707c-3.198-1.305-8.076-4.563-9.277-3.54
			c-3.607,3.065-8.342,4.524-11.373,8.417C88.895,61.524,83.965,68.27,80.65,76.072c-3.385,7.916-6.825,15.825-10.312,23.688
			c-0.723,1.647-0.915,3.828-3.309,4.223c1.714-7.02,3.695-13.952,6.872-20.482c0.276-3.627,3.506-6.344,3.103-10.17
			c0.141-6.357,4.275-11.242,6.244-16.93c2.179-0.187,3.133-1.726,4.034-3.452c1.397-2.75,3.17-5.327,4.372-8.144
			c1.579-3.753,3.621-5.802,7.8-3.54c4.003,3.841,9.458,4.791,14.214,7.106c4.824,2.343,9.815,4.296,14.731,6.424
			C123.935,57.498,121.221,54.58,118.506,51.688z"/>
		<path fill="#592219" d="M260.854,69.033c3.613,9.756,7.222,19.505,10.823,29.263c0.86,2.308,0.577,5.211,3.398,6.504
			c-0.095,3.378,3.359,6.711,0.146,10.138c-4.07-2.033-5.374-6.062-6.892-9.831c-5.576-13.831-10.715-27.829-18.976-40.438
			c-3.877-5.916-8.243-11.349-13.631-16.02c-2.177-1.873-4.191-4.102-0.323-6.444c5.187,2.43,8.733,6.819,12.589,10.793
			c4.494,4.65,7.302,10.612,11.782,15.264C260.231,68.391,260.593,68.659,260.854,69.033z"/>
		<path fill="#6B3428" d="M145.188,247.961c6.375,1.526,11.405-0.716,15.41-6.867c2.733-2.146,5.978-2.875,9.324-3.312
			c3.654,4.687,2.19,10.152,2.358,15.378c-0.087,0.234-0.168,0.449-0.249,0.683c-0.739,3.373-2.62,4.376-6.18,3.975
			c-6.785-0.75-13.596-1.098-20.18-3.111C145.598,252.442,143.602,250.336,145.188,247.961z"/>
		<path fill="#67291F" d="M243.73,229.504c-12.843,13.504-28.776,21.273-46.867,25.032c-0.778,0.094-1.537-0.027-2.258-0.354
			c-2.452-2.865-0.113-4.531,1.848-5.675c3.528-2.075,7.249-3.794,11.084-5.302c9.229-3.62,18.594-6.972,27.004-12.378
			c2.452-1.171,4.62-2.938,7.303-3.586C243.893,226.742,244.081,227.055,243.73,229.504z"/>
		<path fill="#682B20" d="M145.188,247.961c-0.537,2.302,3.144,4.294,0.483,6.745c-16.042-3.453-30.712-9.725-43.065-20.75
			c0-1.933,0.959-1.706,2.317-1.124c8.168,3.513,16.309,6.992,24.801,9.754C134.903,244.266,140.413,245.13,145.188,247.961z"/>
		<path fill="#642A20" d="M235.618,42.373c-1.654,1.833-1.841,3.146,0.43,4.999c12.635,10.332,19.507,24.584,26.149,38.966
			c4.387,9.489,6.348,20.076,13.221,28.408c2.144,2.021,3.029,4.622,3.594,7.4c-0.457,0.448-0.928,0.91-1.383,1.358
			c-4.395-2.328-5.998-6.679-7.913-10.801c-6.221-13.382-11.251-27.308-18.359-40.296c-2.316-4.223-4.917-8.284-8.188-11.864
			c-4.005-4.411-8.465-8.03-14.671-8.987c-2.165-0.335-4.421-0.991-5.502-3.339c3.863-2.223,7.483-4.825,11.742-6.282
			c0.342-0.175,0.591-0.175,0.731,0.02C235.604,42.133,235.658,42.273,235.618,42.373z"/>
		<path fill="#702A20" d="M222.987,48.201c12.952,2.43,22.066,9.911,28.215,21.273c3.001,5.575,5.992,11.216,8.599,16.982
			c4.042,8.927,7.603,18.082,11.687,26.995c1.599,3.532,4.07,6.712,6.14,10.037c0.094,1.245,0.188,2.469,0.303,3.721
			c-0.812,3.801-2.533,1.779-3.486,0.294c-1.376-2.155-2.404-4.563-3.396-6.952c-2.661-6.337-4.622-12.969-7.961-19.025
			c-0.17-0.448-0.35-0.911-0.525-1.364c-2.721-4.404-3.58-9.636-6.361-14c-0.738-0.756-1.121-1.68-1.094-2.744
			c-3.582-7.213-7.127-14.441-12.863-20.309c-4.542-4.651-9.823-7.903-16.344-9.173c-2.707-0.528-6.051-0.12-7.611-3.392
			C219.845,49.775,221.416,48.986,222.987,48.201z"/>
		<path fill="#7B2A1F" d="M243.73,229.504c0.62-2.441-0.859-1.478-1.921-1.171c-2.445,0.69-4.058,3.172-6.839,3.098
			c-2.094,1.172-4.198,2.336-6.42,3.233c-1.68,0.676-3.481,1.793-5.146-0.128c0.779-3.286,4.098-3.239,6.287-4.57
			c3.337-2.016,6.61-4.271,10.471-5.328c9.715-8.035,17.62-17.805,26.218-27.039c-0.616,1.721-1.229,3.433-1.846,5.151
			C259.505,213.144,252.512,222.019,243.73,229.504z"/>
		<path fill="#6B3428" d="M194.789,253.555c0.691,0.32,1.385,0.655,2.069,0.981c-6.858,2.49-14.075,2.545-21.22,3.279
			c-3.392,0.356-1.976-3.065-3.605-3.967l-0.075-0.388c0.262-2.966-0.295-6.011,1.002-8.862c2.282-2.709,4.876-2.463,7.146-0.254
			C184.364,248.488,189.617,250.931,194.789,253.555z"/>
		<path fill="#4D2118" d="M235.618,42.373c-0.305-0.14-0.593-0.294-0.888-0.448c1.062-1.097,2.909-1.291,3.521-2.951
			c3.921-2.06,5.682,0.055,7.629,3.279c2.317,3.814,3.588,8.404,7.518,11.161c2.371,5.072,5.89,9.649,6.94,15.324
			c-0.733,1.279-1.694,2.008-2.581,0.268C252.426,58.434,243.948,50.457,235.618,42.373z"/>
		<path fill="#100100" d="M64.136,106.973c1.545,0.958,1.958,2.29,1.347,3.975c-1.687,4.717-2.174,9.676-3.006,14.561
			c-6.355-2.777-8.81-5.809-7.911-10.385C55.579,110.039,58.695,107.075,64.136,106.973z"/>
		<path fill="#171006" d="M62.1,160.372c0.881,5.883,1.753,11.771,2.647,17.654c-9.608-1.227-13.841-7.269-9.891-14.175
			c1.424-2.462,3.308-4.282,6.453-4.067C61.557,160.019,61.809,160.198,62.1,160.372z"/>
		<path fill="#78281E" d="M263.078,101.528c2.756,1.512,2.828,4.551,3.937,6.972c2.687,5.902,4.325,12.258,7.88,17.786
			c0.779,1.232,1.143,3.467,3.022,0.924c2.533,9.434,0.98,19.043,1.19,28.587c-1.358,0.414-1.479-0.664-1.432-1.427
			c0.813-16.295-6.172-30.546-11.896-45.121C264.784,106.707,263.991,104.096,263.078,101.528z"/>
		<path fill="#0E0000" d="M83.257,56.398c0.716,0.696,1.843,1.366,0.998,2.496c-3.205,4.303-4.299,9.596-6.939,14.167
			c-0.174,0.335-0.345,0.443-0.524,0.335c-0.215-0.146-0.302-0.248-0.269-0.341c-3.688-2.389-5.407-5.682-3.886-9.938
			C74.377,58.252,77.873,55.723,83.257,56.398z"/>
		<path fill="#0E0000" d="M278.998,122.124c-2.506-1.819-2.768-4.73-3.588-7.394c1.369-3.36-2.842-6.537-0.322-9.93
			c4.757,0.716,8.449,2.99,9.137,7.989C284.795,116.906,283.054,120.305,278.998,122.124z"/>
		<path fill="#1C0C00" d="M276.081,175.906c0.941-4.933,1.935-9.845,2.796-14.797c0.336-1.969,0.992-3.104,3.209-2.228
			c3.2,2.215,4.958,5.264,4.004,9.1C284.842,173.016,281.054,175.323,276.081,175.906z"/>
		<path fill="#140000" d="M260.339,68.739c-3.542-4.015-4.146-9.663-7.699-13.678c-0.167-0.194,0.477-1.097,0.759-1.653
			c4.574-0.501,7.712,1.941,9.478,5.648c1.653,3.493,0.78,7.073-2.022,9.977C260.733,68.852,260.552,68.752,260.339,68.739z"/>
		<path fill="#64291F" d="M76.531,73.055c0.269-0.074,0.53-0.074,0.785,0.006c0.777,4.095-2.125,7-3.405,10.426
			C73.587,79.713,77.285,76.943,76.531,73.055z"/>
		<path fill="#1F1A18" d="M201.669,34.552c-5.368,1.733-10.567,4.228-13.839,8.719c-7.389,10.124-17.168,12.928-28.965,11.108
			c-9.19-1.418-18.016-3.84-25.936-8.947c-4.192-2.696-7.021-6.458-9.56-10.58c3.856-1.131,7.268,1.13,10.936,1.405
			c2.069,2.556,2.432,6.397,5.965,7.87c0.396,0.253,0.765,0.561,1.142,0.855c2.552,1.793,5.313,2.999,8.396,3.494
			c0.947,0.08,1.895,0.173,2.834,0.428c5.374,1.672,10.79,3.043,16.405,0.99c2.685-1.352,5.373-2.664,8.072-4.001
			c7.166-8.029,5.072-15.297-5.226-17.639c-5.871-1.332-11.486-3.52-17.29-5.045c-1.678-0.442-3.278-1.124-3.89-3.025
			c-0.02-2.315,0.605-4.27,2.942-5.278c8.283,6.979,19.152,6.67,28.73,10.043c2.055,0.723,4.117,0.603,5.119-1.914
			c0.214-0.127,0.435-0.241,0.657-0.361c3.82,1.66,5.118,6.169,8.934,7.835C198.538,31.948,200.997,32.256,201.669,34.552z"/>
		<path fill="#CBC7C6" d="M120.125,32.094c-9.84-11.542-8.805-9.206,2.58-17.117c8.269-5.754,17.606-9.294,27.4-11.682
			c4.111-1.004,5.736-0.242,4.192,4.201c-0.552,1.607-0.605,3.38-0.886,5.08c0.195,2.656-1.68,4.597-2.385,6.938
			c-2.244,1.941-3.77-0.368-5.434-1.07c-6.315-2.697-16.001-0.522-20.401,4.471c-2.626,3.011-1.391,7-3.123,10.15
			C121.254,33.092,120.575,32.837,120.125,32.094z"/>
		<path fill="#D0CDCC" d="M182.839,9.792c-2.238-7.554-1.706-8.184,5.582-6.551c11.77,2.637,22.355,7.829,32.237,14.668
			c2.808,1.941,3.398,3.753,1.168,6.631c-2.512,3.226-4.708,6.712-8.853,8.145c-3.703-0.14-3.688-3.011-4.01-5.521
			c-0.977-7.313-8.21-14.36-15.679-14.193C189.213,13.037,185.949,12.033,182.839,9.792z"/>
		<path fill="#E4E2E1" d="M182.839,9.792c0.342-0.36,0.719-0.715,1.069-1.077c2.808,3.707,6.729,2.516,10.571,2.771
			c7.806,0.549,15.141,8.417,15.678,16.033c0.147,2.181,0.699,4.067,2.802,5.151c-3.411,2.73-7.408,1.982-11.293,1.882
			c-1.699-1.433-4.452-1.166-5.635-3.447c2.989-2.783,5.917-5.582,5.044-10.258c-0.362-1.941-1.054-3.653-3.096-4.383
			c-2.176-0.776-4.062-0.188-5.582,1.5c-1.505,1.633-2.861,3.413-4.809,4.55l0.136,0.289l-0.23,0.221
			C185.949,18.612,183.544,14.496,182.839,9.792z"/>
		<path fill="#4B4544" d="M150.132,20.144c1.089-2.516,2.19-5.045,3.292-7.568c0.699,0.703,0.49,1.518,0.236,2.321
			c-0.746,1.894-1.491,3.789-2.236,5.675c0.093,1.947,0.053,3.386,3.063,3.373c6.805-0.055,13.199,2.41,19.292,5.119
			c7.598,3.38,8.806,11.992,3.036,18.334c-2.405,1.219-4.823,2.443-7.227,3.66c-1.084,0.308-2.03,0.1-2.782-0.762
			c-0.511-1.272,0.39-1.847,1.209-2.463c1.505-0.869,3.197-1.353,4.675-2.261c3.897-4.209,3.527-9.596-1.255-12.312
			c-3.506-1.981-7.141-3.961-11.319-4.295c-2.774-0.101-5.495,0.194-8.202,0.702c-6.711,1.205-7.059,0.756-4.856-5.667
			C147.768,22.472,148.346,20.82,150.132,20.144z"/>
		<path fill="#35302E" d="M120.125,32.094c0.679,0.215,1.337,0.429,2.002,0.656c0.772-0.374,1.553-0.321,2.358-0.128
			c3.621,1.8,7.537,1.627,11.42,1.653c1.58,0.228,3.312,0.596,3.688,2.33c1.324,6.009,5.877,8.545,10.956,10.653
			c0.646,0.269,1.102,0.803,1.532,1.353c0.087,0.261,0.155,0.508,0.229,0.756c-0.759,0.515-1.551,0.368-2.324,0.047
			c-3.493-0.669-6.684-2.015-9.56-4.136l0,0c-2.788-2.048-4.736-4.67-5.583-8.044c-3.976-0.073-7.838-0.669-11.46-2.382
			C122.282,33.956,120.495,33.848,120.125,32.094z"/>
		<path fill="#F1F0F0" d="M162.116,8.28c-0.699,1.078-0.873,2.562-2.485,2.314c-1.659-0.253-2.686-7.42-1.571-10.585
			c0.417-1.204,1.666-2.562,2.378-1.84C163.271,1.074,162.203,4.846,162.116,8.28z"/>
		<path fill="#F5F5F5" d="M177.271-1.885c1.29,1.245,1.759,2.864,1.68,4.617c-0.107,2.477,0.778,5.207-1.41,7.268
			c-0.772,0.723-1.479,0.415-2.118-0.401c-1.283-1.607-1.241-9.463,0.075-10.968C175.994-1.939,176.484-2.258,177.271-1.885z"/>
		<path fill="#040000" d="M146.103,61.244c1.397-0.629,2.782-1.445,4.4-1.151c11.943,2.215,23.853,1.19,35.769-0.073
			c0.981-0.1,1.989,0.408,2.997,0.649c1.859,0.194,2.168,1.84,2.887,3.117c1.633,3.278,1.271,6.805,1.196,10.292
			c-0.282,2.021-1.209,3.901-1.41,5.943c-1.223,3.934-3.696,6.918-7.108,9.153c-1.854,0.871-3.561,2.009-5.368,2.931
			c-1.451,0.616-2.939,1.004-4.533,0.616c-1.423-0.454-2.566-1.338-2.74-2.811c-0.633-5.105-2.836-9.877-3.239-14.861
			c-1.262,2.696-3.722,2.416-6.018,1.894c-5.032-1.151-9.996-2.556-15.296-2.262c-2.686,0.133-4.003-1.646-4.226-4.256
			c-0.167-2.074-0.08-4.136,0.242-6.176C144.034,62.889,144.53,61.632,146.103,61.244z"/>
		<path fill="#8C2119" d="M191.196,63.827c-0.659-1.057-1.297-2.114-1.928-3.159c6.528-3.654,14.012-4.389,20.983-6.705
			c4.972-0.282,9.896,0.066,14.759,0.99c2.345,0.435,4.776,0.857,5.939,3.387c1.127,0.884,2.257,1.74,3.406,2.623
			c0.831,1.338,3.216,2.356,1.905,4.215c-1.867,2.625-4.42,0.108-6.668,0.309c-1.579-0.147-3.178-0.188-4.614-0.991
			c-4.237-3.407-9.137-2.221-13.839-1.753C204.489,63.432,197.92,64.871,191.196,63.827z"/>
		<path fill="#972019" d="M146.103,61.244c-0.53,1.284-1.055,2.583-1.586,3.868c0,0.796-0.296,1.459-0.893,1.994
			c-4.924,1.043-9.841,0.456-14.757-0.094c-3.93-0.436-7.806-0.481-11.661,0.521c-3.198-0.696-6.396-1.364-9.687-1.311
			c-2.029-1.565-0.456-2.691,0.558-3.707c1.357-1.352,3.184-2.002,4.938-2.704c3.654-1.337,7.47-1.472,11.258-1.23
			c5.012,0.314,9.996-0.135,14.994-0.188C141.628,59.143,144.69,58.213,146.103,61.244z"/>
		<path fill="#801F18" d="M139.256,58.407c-4.479,2.569-9.39,1.552-14.125,1.445c-3.97-0.1-7.866,0.08-11.769,0.816
			c-3.848-0.254-6.918,3.721-11.031,2.006c1.727-2.248,3.467-4.509,5.187-6.745c3.278-2.382,8.114-0.83,10.989-4.236
			c3.34,0.911,6.134,3.566,9.902,3.097C132.022,55.991,135.636,57.203,139.256,58.407z"/>
		<path fill="#78281E" d="M230.942,58.34c-4.353-2.195-9.068-2.811-13.838-2.837c-2.466-0.013-4.695-0.454-6.853-1.538
			c2.339-1.92,5.214-2.584,8.021-3.419c1.115,0.435,2.217,1.124,3.374,1.264c19.123,2.168,27.312,15.826,33.444,31.611
			c-2.942-2.141-3.54-5.734-5.3-8.612c-3.54-5.755-7.483-11.102-13.14-14.929C235.047,58.814,233.219,57.417,230.942,58.34z"/>
		<path fill="#801F18" d="M144.839,233.151c-0.859-1.499-1.72-3.006-2.566-4.511c1.142-3.88,4.508-5.909,7.376-8.164
			c3.937-3.07,7.677-6.224,10.848-10.112c2.271-2.781,4.964-5.271,8.996-5.258c2.808,4.141,1.718,8.506,0.703,12.867
			c-5.191,3.709-9.006,8.94-14.073,12.796c-1.478,1.13-2.701,2.691-4.729,2.944C149.165,233.727,146.921,234.329,144.839,233.151z"
			/>
		<path fill="#712018" d="M151.381,233.714c6.22-5.1,10.775-12.105,18.205-15.832c1.599,0.4,1.505,1.751,1.471,2.876
			c-0.168,5.855,1.552,11.852-1.297,17.513c-2.779,1.758-5.95,2.367-9.148,2.815C156.803,239.528,153.195,237.715,151.381,233.714z"
			/>
		<path fill="#943A2B" d="M270.765,130.75c0.172,0.456,0.355,0.911,0.535,1.371c3.428,9.918,3.131,20.169,2.626,30.415
			c-2.497,26.459-16.504,45.684-38.071,60.151c-1.001,0.667-2.146,1.122-2.636,2.333c-7.905,6.016-21.214,7.014-27.749,2.102
			c1.062-4.892,5.913-4.997,9.145-7.141c6.387-0.868,12.553-2.742,18.814-4.193c5.268-1.299,9.063-4.945,12.924-8.352
			c10.491-9.273,19.655-19.499,22.383-33.861c2.444-12.914,1.458-25.735-1.384-38.463c-0.88-4.008-1.727-8.104-3.97-11.69
			c-3.621-10.211-8.136-20.047-12.998-29.731c-1.693-3.398-3.265-6.832-5.871-9.669c-1.062-1.78-2.104-3.574-1.305-5.754
			c3.757-2.449,4.89,0.949,6.094,3.037c3.788,6.53,6.944,13.396,10.009,20.262C263.548,111.117,267.538,120.794,270.765,130.75z"/>
		<path fill="#833527" d="M205.409,226.566c8.243,4.979,16.289,1.579,24.351-0.569c1.155-0.307,2.312-0.648,3.459-0.971
			c2.385,1.219,4.562-1.585,6.946-0.389c-4.964,4.244-10.922,6.779-16.647,9.717c-3.659,4.604-22.226,9.643-27.285,7.367
			c-1.586-0.723-2.882-1.887-3.985-3.245c-1.054-1.699-1.235-3.5-0.656-5.401c1.872-3.286,4.619-5.681,7.979-7.414
			C201.627,225.255,203.791,224.231,205.409,226.566z"/>
		<path fill="#8C3426" d="M270.765,130.75c-2.702-6.458-5.47-12.921-8.104-19.413c-4.103-10.132-9.015-19.873-14.188-29.498
			c-0.954-1.753-1.665-4.462-4.816-3.318c-1.175-0.053-1.834-0.85-2.311-1.747c-2.438-4.571-5.635-8.359-10.485-10.541
			c-0.772-0.341-1.29-1.07-1.358-1.986c0.658,0,1.344-0.066,1.994,0.033c1.297,0.215,2.621,1.807,3.776,0.709
			c1.578-1.485-0.977-2.569-0.921-4.043c7.967,4.886,12.305,12.708,16.39,20.611c7.47,14.48,13.663,29.536,19.446,44.751
			C270.723,127.758,271.502,129.151,270.765,130.75z"/>
		<path fill="#8C3426" d="M273.926,162.534c-1.282-7.917,0.13-16.02-1.672-23.948c-0.483-2.075-1.981-4.142-0.954-6.478
			C276.238,141.911,275.813,152.163,273.926,162.534z"/>
		<path fill="#78281E" d="M256.192,86.164c3.835,3.881,4.669,9.127,6.362,14C258.731,96.254,257.887,91.008,256.192,86.164z"/>
		<path fill="#8D221A" d="M169.357,205.362c-4.139,1.9-7.041,5.158-10.197,8.357c-5.253,5.34-11.224,9.991-16.887,14.921
			c-4.017-2.214-8.504-3.023-12.811-4.367c-0.792-0.852-1.007-1.802-0.51-2.871c0.927-1.384,2.358-1.98,3.862-2.402
			c8.343-2.329,14.517-7.614,19.655-14.294c1.586-2.047,3.251-3.994,5.12-5.789c3.708-3.104,5.952-8.178,11.66-8.572
			C171.956,195.324,171.945,200.336,169.357,205.362z"/>
		<path fill="#9B3A2B" d="M129.336,221.937c0.04,0.775,0.081,1.559,0.127,2.336c-17.055,3.418-29.973-3.929-41.178-15.713
			c-1.162-1.238-2.412-2.408-3.618-3.606c-0.222-3.425-4.417-4.911-4.202-8.552c0.824-0.32,1.596-0.141,2.332,0.26
			c3.064,2.242,5.461,5.193,8.438,7.555c4.138,3.287,8.369,5.943,13.965,5.081c5.247,2.958,10.801,5.251,16.289,7.669
			C124.271,218.349,127.723,218.718,129.336,221.937z"/>
		<path fill="#8B2A1F" d="M102.331,62.676c3.729-0.421,6.972-3.452,11.031-2.006c-1.828,1.86-5.817,1.405-5.764,5.3
			c0.027,0.248,0.04,0.496,0.04,0.75c-7.08,4.498-9.895,12.22-14.18,18.844c-2.358,1.125-3.171,3.414-4.132,5.575
			c-2.068,4.664-4.019,9.341-6.135,13.966c-0.752,1.673-1.397,3.506-3.405,4.188c-1.286-3.479,3.144-5.86,1.816-9.354
			c2.915-6.732,6.059-13.37,8.705-20.202C92.94,72.995,97.266,67.602,102.331,62.676z"/>
		<path fill="#A3523E" d="M82.397,197.218c-0.644-0.269-1.293-0.549-1.938-0.816c-6.885-8.318-11.315-17.604-11.352-28.613
			c0.091-2.254,0.138-4.518,1.907-6.262c2.109-1.273,2.916,0.508,3.427,1.799c3.656,9.054,8.006,17.862,10.338,27.396
			c0.527,2.127,1.041,4.422-0.622,6.384C83.623,197.719,83.002,197.753,82.397,197.218z"/>
		<path fill="#9E3426" d="M79.798,109.304c3.218-7.395,6.417-14.808,9.669-22.189c0.88-1.968,1.526-4.71,4.628-2.223
			c2.25,2.208,1.961,4.53,0.269,6.907c-4.453,6.597-6.609,14.265-10.033,21.36c-2.085,5.713-3.923,11.509-5.065,17.498
			c-0.527,2.797-0.696,5.741-2.481,8.171c-0.42,0.435-0.937,0.583-1.528,0.461c-2.902-3.714-1.196-7.82-0.926-11.769
			c0.118-1.836,1.202-3.528,1.079-5.435C75.256,117.266,78.422,113.591,79.798,109.304z"/>
		<path fill="#9D4231" d="M75.402,122.083c-0.145,5.555-0.315,11.123-0.473,16.683c0.145,6.859-0.799,13.644-1.438,20.435
			c-0.083,0.863-0.624,1.581-1.495,1.969c-0.953,2.195-1.925,4.404-2.881,6.612c-1.932-10.688-1.932-21.239,1.266-31.778
			C71.804,131.258,73.347,126.581,75.402,122.083z"/>
		<path fill="#533029" d="M169.357,205.362c0.429-4.967,0.738-9.918-0.201-14.869c-1.438-3.318-1.472-6.591,0.389-9.79
			c0.82-0.294,1.559-0.12,2.271,0.355c2.11,2.121,1.451,4.824,1.591,7.366c0.29,4.184-0.027,8.364,0.189,12.547
			c0.222,3.432,0.208,6.872,0.153,10.306c0.283,5.421-0.073,10.848,0.324,16.274c-0.513,3.873,0.295,7.756-0.028,11.639
			c-0.048,2.099-0.283,4.2-0.625,6.275c-0.927,2.584,0.154,5.539-1.472,7.998c-1.802-4.914,0.106-10.34-2.191-15.186
			c0.184-6.799,0.565-13.596-0.174-20.396C169.868,213.706,170.23,209.523,169.357,205.362z"/>
		<path fill="#6E3226" d="M173.428,245.457c-0.946-1.921-0.598-3.98-0.651-5.996c1.498-1.438,3.406-1.519,5.26-1.211
			c4.865,0.792,9.626-2.081,14.49-0.333c4.238,3.974,8.967,3.74,14.192,2.129c5.649-1.741,11.607-2.543,16.794-5.694
			c4.293,0.937,7.417-2.778,11.447-2.925c-1.955,2.55-4.764,3.761-7.604,4.959c-9.419,3.963-18.864,7.889-28.233,11.979
			c-2.17,0.948-5.172,1.578-4.326,5.186c-6.261-0.141-10.903-3.546-14.946-7.769C177.553,243.402,175.696,243.034,173.428,245.457z"
			/>
		<path fill="#F7F7F7" d="M187.602,22.513c0.591-2.757,2.876-4.511,4.581-6.33c3.386-3.567,8.994-1.319,10.098,3.68
			c1.182,5.473-0.988,9.395-6.24,11.241C191.947,29.486,190.308,25.464,187.602,22.513z"/>
		<path fill="#352F2E" d="M176.812,47.398c4.91-11.134,1.216-17.667-12.131-20.75c-4.931-1.15-9.96-2.757-15.234-0.523
			c-0.026-2.421,1.155-3.908,1.976-5.554c7.174,2.302,14.261,4.806,21.669,6.464c4.179,0.944,9.014,2.021,9.553,7.896
			C183.142,40.239,180.797,45.445,176.812,47.398z"/>
		<path fill="#35302E" d="M166.729,49.841c0.955,0.395,1.902,0.804,2.856,1.219c-6.006,2.028-11.782,1.606-17.29-1.693l-0.027-0.154
			C157.185,47.338,162.009,47.553,166.729,49.841z"/>
		<path fill="#352F2E" d="M134.83,37.234c1.867,2.697,3.734,5.367,5.588,8.056C136.886,43.758,134.078,41.73,134.83,37.234z"/>
		<path fill="#352F2E" d="M140.426,45.277c3.185,1.379,6.368,2.75,9.56,4.136C146.169,49.494,142.965,48.141,140.426,45.277z"/>
		<path fill="#E2E0DF" d="M124.001,33.648c-0.631-0.308-1.25-0.616-1.874-0.91c-1.604-8.351,3.084-14.38,11.165-15.934
			c6.328-1.224,12.044-1.927,16.84,3.338c-0.658,1.62-1.317,3.239-1.981,4.859c-0.491,0.14-0.974,0.113-1.431-0.054
			c-5.985-5.969-10.788-6.122-17.612-0.603c-1.693,1.372-2.822,2.904-2.594,5.193C126.728,31.506,126.675,33.4,124.001,33.648z"/>
		<path fill="#6D6766" d="M147.499,24.761c0.201,0.108,0.423,0.175,0.652,0.241c-0.503,1.345-1.001,2.711-1.639,4.416
			c4.909-0.815,9.276-2.463,13.885-1.479c3.99,0.603,7.51,2.536,10.982,4.31c5.73,2.917,6.174,9.716,1.243,14.486
			c-1.195,1.004-2.551,1.547-4.103,1.633c-0.819,0.229-1.511,0.055-2.009-0.656c0.047-1.927,1.759-2.296,2.982-3.152
			c3.573-2.502,3.903-4.878,1.155-8.043c-5.542-6.416-17.479-7.77-24.075-2.723c-2.493,1.906-2.553,5.582,0,8.016
			c1.208,1.179,2.888,1.902,3.01,3.908c-4.433,1.144-9.337-3.333-9.028-8.371c0.127-1.686,0.725-3.333,0.35-5.065
			C142.621,29.379,143.938,26.085,147.499,24.761z"/>
		<path fill="#5D5655" d="M166.602,47.513c0.645,0.28,1.284,0.562,1.91,0.856c-0.593,0.482-1.191,0.984-1.782,1.472
			c-4.809-0.2-9.638-0.421-14.462-0.629c-6.22-2.503-12.783-4.591-13.87-12.722c-0.156-1.224-1.875-0.395-2.653-1.071
			c0.806-3.085,3.029-2.777,5.347-2.254c0.826,0.173,1.927-0.388,1.337,1.565c-1.847,6.264-0.027,8.954,6.852,10.988
			C155.158,45.398,160.934,45.947,166.602,47.513z"/>
		<path fill="#5D5655" d="M172.608,46.736c4.764-7.723,3.353-12.058-5.158-15.765c-2.352-1.004-4.704-2.021-7.054-3.031
			c5.18,0.073,9.672,2.368,13.421,5.433C178.641,37.288,177.728,44.154,172.608,46.736z"/>
		<path fill="#FDFCFC" d="M141.105,33.16c-1.807,0.676-3.863,0.789-5.341,2.254c-4.037,0.228-8.174,1.044-11.755-1.767
			c0.672-0.709,1.982-1.246,1.56-2.423c-1.337-3.667,0.046-6.069,3.075-8.164c4.05-2.79,8.229-4.992,13.321-4.014
			c3.077,0.602,3.708,3.807,5.549,5.714C146.25,28.215,142.952,30.141,141.105,33.16z"/>
		<path fill="#BC201A" d="M183.813,88.452c3.077-2.368,5.482-5.286,7.147-8.799c4.635-2.523,9.372-3.259,14.32-0.911
			c0.107,0.501,0.27,1.063,0.016,1.5c-7.725,13.75-6.867,28.151-3.36,42.759c0.182,1.445-0.631,2.597-1.144,3.848
			c-2.43,5.941-1.503,11.242,3.012,15.92c1.093,1.143,3.056,1.825,2.578,4.008c-2.337,1.25-1.665,3.291-1.719,5.367
			c-0.114,4.208,3.263,7.92,1.585,12.278c-3.888,2.891-7.302,3.238-10.345-1.372c-2.196-3.373-6.415-2.745-9.659-4.062
			c-1.478-1.574-1.089-3.5-1.022-5.374c0.297-8.893,0.402-17.752-0.482-26.658c-1.155-11.402-0.888-22.913-2.156-34.315
			C182.389,91.075,182.363,89.549,183.813,88.452z"/>
		<path fill="#BD3224" d="M183.813,88.452c0.745,13.471,1.101,26.981,2.397,40.411c0.941,9.95,0.351,19.807,0.081,29.711
			c0.303,0.877-0.027,1.567-0.705,2.142c-1.665,0.522-3.223,0.348-4.607-0.829c-0.9-1.768-0.784-3.668-0.705-5.534
			c0.867-19.394-0.96-38.672-2.27-57.975c-0.127-1.833-0.758-3.802,1.283-5.099C180.541,89.944,182.094,89.048,183.813,88.452z"/>
		<path fill="#312B29" d="M143.415,66.852c0.382-0.576,0.739-1.151,1.102-1.74c0,1.018,0.066,2.028-0.013,3.037
			c-0.343,3.988,0.8,6.318,5.468,5.354c4.594-0.964,8.718,1.499,13.106,2.113c4.621,0.65,4.615,0.71,6.134-4.154
			c1.344,5.722,2.719,10.915,3.733,16.18c0.383,1.974,0.497,3.74,2.728,4.41c-0.046,1.15-0.88,1.573-1.787,1.933
			c-0.925,0.235-1.874,0.288-2.815,0.354c-1.888,0.094-3.796-0.08-5.682-0.227c-0.733-0.1-1.438-0.295-2.13-0.576
			c-2.251-0.883-2.499-2.917-3.023-4.925c-1.384-5.354-4.117-7.562-9.7-8.138c-2.19-0.228-4.5-0.081-6.051-2.114
			c-0.773-0.984-1.297-2.121-1.768-3.266c-0.537-1.405-0.933-2.824-0.879-4.343C142.018,69.328,141.815,67.715,143.415,66.852z"/>
		<path fill="#B83C2B" d="M173.637,93.244c0.679-0.408,1.351-0.804,2.035-1.205c1.209-0.254,2.419-0.509,3.614-0.762
			c0.442,8.156,0.859,16.327,1.356,24.491c0.861,14.661,1.9,29.31,0.578,44.004c-1.961,4.176-5.749,6.357-9.492,8.584
			c-1.605-4.176-1.039-8.478-0.86-12.768c0.169-0.5,0.397-0.964,0.679-1.398c5.697-6.422,6.202-14.252,5.859-22.217
			C176.805,119.013,176.397,106.004,173.637,93.244z"/>
		<path fill="#A11A17" d="M191.196,63.827c0.343-0.388,0.731-1.137,1.015-1.084c8.812,1.138,17.329-1.854,26.049-1.847
			c2.78-0.007,5.522,0.04,6.944,3.085c-1.9,2.281-4.023,4.263-6.871,5.32c-9.09-1.472-17.312,2.288-25.843,4.27
			C191.962,70.332,192.478,66.958,191.196,63.827z"/>
		<path fill="#B21717" d="M192.491,73.569c5.399-4.469,12.358-3.901,18.567-5.794c2.606-0.803,5.017-0.408,7.322,0.964
			c0.953,2.134,0.343,4.088-0.726,5.982c-3.796,2.517-7.88,4.243-12.588,4.062c-4.75-0.676-9.378,0.917-14.121,0.87
			C190.563,77.397,192.077,75.624,192.491,73.569z"/>
		<path fill="#030000" d="M216.85,74.855c0.51-2.048,1.021-4.083,1.537-6.116c1.981-1.993,3.821-4.194,6.817-4.758
			c1.424,0.087,2.862,0.181,4.293,0.269c7.087,2.429,11.452,7.541,14.159,14.273c0.459,1.706,0.908,3.399,1.366,5.098
			c1.753,2.637,0.24,4.899-0.819,7.213c-1.049,1.807-2.652,2.944-4.462,3.855C227.826,97.513,215.291,86.645,216.85,74.855z"/>
		<path fill="#A9261D" d="M143.415,66.852c-0.334,1.392,0.349,2.972-0.725,4.223c-6.731,2.804-13.838,2.851-20.952,2.696
			c-2.283-0.843-2.781-3.132-3.996-4.846c-0.336-0.669-0.445-1.337-0.147-2.055c1.518-1.372,3.371-1.713,5.306-1.573
			C129.726,65.768,136.577,66.323,143.415,66.852z"/>
		<path fill="#8B2A1F" d="M117.594,66.872c0.16,0.422,0.336,0.87,0.496,1.312c-3.667,0.461-7.188,0.12-10.378-1.894l-0.114-0.321
			C111.178,63.654,114.342,65.633,117.594,66.872z"/>
		<path fill="#91221A" d="M172.541,211.203c-0.025-3.394-0.054-6.778-0.081-10.172c0.672-0.896,0.482-1.974,0.512-2.965
			c0.045-3.614,2.129-4.41,5.131-3.628c3.494,0.91,7.175,1.988,9.7,4.525c8.021,8.062,17.115,14.693,26.693,20.716
			c0.123,0.269,0.223,0.542,0.338,0.797c-3.146,2.028-6.287,4.062-9.425,6.083c-1.882-0.053-3.756-0.113-5.623-0.166
			c-2.701-0.146-3.995-2.375-5.816-3.862c-2.773-2.261-5.409-4.683-8.103-7.02C181.972,212.138,177.819,210.091,172.541,211.203z"/>
		<path fill="#9D4634" d="M264.247,122.325c7.489,17.37,9.196,35.284,4.985,53.727c-4.124,18.034-17.224,29.068-31.183,39.365
			c-1.315,0.966-3.196,1.172-4.802,1.742c-0.452-2.925,2.351-3.762,3.593-5.602c5.367-3.867,11.104-7.367,14.589-13.297
			c14.235-13.516,16.002-30.561,13.899-48.714c0.029-4.805-0.457-9.57-0.975-14.341c0.107-2.697-0.697-5.287-1.001-7.929
			C263.134,125.57,262.072,123.616,264.247,122.325z"/>
		<path fill="#A83829" d="M264.247,122.325c-0.878,4.396,2.084,8.465,1.169,12.889c-2.539-0.443-2.727-2.771-3.427-4.511
			c-1.315-3.294-2.868-6.431-4.924-9.315c-3.835-6.143-4.439-13.583-8.148-19.874c-2.07-3.5-4.099-7.106-5.803-10.827
			c0.269-2.449,2.263-4.43,1.9-7.054c3.735,1.887,4.596,5.808,6.226,9.087C256.092,102.357,260.861,112.047,264.247,122.325z"/>
		<path fill="#A03527" d="M237.619,212.273c-1.464,1.626-2.928,3.253-4.379,4.886c-6.18,0.836-11.916,4.135-18.406,3.325
			l-0.014-0.021c2.438-4.457,7.443-6.284,10.466-10.159c1.868-1.156,3.505-2.917,6.059-2.296
			C233.005,210.026,235.624,210.715,237.619,212.273z"/>
		<path fill="#802018" d="M172.541,211.203c3.655-3.414,7.16-1.961,10.479,0.481c6.019,4.409,11.608,9.327,16.766,14.714
			c-2.512,2.297-5.011,4.597-7.516,6.898c-2.465,0.792-3.809-1.036-5.219-2.396c-2.459-2.342-4.903-4.709-7.457-6.952
			c-2.216-1.948-4.07-2.973-4.541,1.265c-0.12,1.023-0.659,1.927-1.772,2.282C171.956,222.11,172.944,216.622,172.541,211.203z"/>
		<path fill="#712119" d="M173.281,227.497c0.133-0.307,0.228-0.662,0.417-0.938c1.35-1.953-1.316-5.393,1.692-6.33
			c3.145-0.977,4.379,2.63,6.502,4.103c3.788,2.595,6.1,6.918,10.379,8.968c0.093,1.544,0.168,3.091,0.255,4.631
			c-6.482,1.726-13.134,1.598-19.75,1.538C173.624,235.5,171.674,231.425,173.281,227.497z"/>
		<path fill="#9B201A" d="M129.336,221.937c-2.862-1.238-5.724-2.463-8.585-3.694c0.082-4.083,3.285-6.023,6.112-7.602
			c7.524-4.229,14.818-8.688,21.28-14.44c1.29-1.145,2.829-1.961,4.662-1.942c2.594,0.958,5.131,1.981,5.509,5.249
			C151.012,210.012,142.098,218.43,129.336,221.937z"/>
		<path fill="#9B2C21" d="M158.315,199.499c-1.962-1.6-3.896-3.187-5.845-4.777c-0.597-5.219,3.714-8.058,5.83-11.959
			c3.258-3.117,5.011-8.138,10.567-8.364c2.72,1.773,1.619,4.109,0.921,6.391c-0.201,3.239-0.423,6.472-0.632,9.696
			C164.696,192.487,162.149,196.776,158.315,199.499z"/>
		<path fill="#A62A20" d="M159.711,183.219c-2.566,3.742-5.428,7.294-7.241,11.509c-9.311,8.752-21.562,13.451-30.833,22.238
			c-0.376,0.347-0.605,0.855-0.888,1.284c-5.71-2.517-11.674-4.511-16.753-8.317c-1.867-2.451-6.745-4.049-2.404-8.297
			c2.176-0.323,4.366-1.85,6.595-0.183c8.276,9.69,26.138,6.551,31.276-5.554c1.591-3.767,2.733-7.723,4.642-11.376
			C149.326,184.417,154.324,181.271,159.711,183.219z"/>
		<path fill="#A74835" d="M101.754,202.203c-2.929,3.633,2.29,4.925,2.243,7.714c-3.251,1.688-5.817,0.992-8.819-1.257
			c-4.642-3.454-9.371-6.687-12.78-11.442c2.855-1.145,1.747-3.507,1.32-5.293c-2.586-10.727-7.268-20.698-11.723-30.742
			c1.489-7.401-0.06-15.203,2.933-22.41c0.315,0.146,0.638,0.273,0.963,0.415c1.373,1.132,1.327,2.716,1.292,4.255
			c-0.269,11.367,3.081,21.941,7.043,32.428c1.323,3.532,2.775,4.336,5.663,1.746c0.525,0.161,0.861,0.489,1.061,0.99
			c0.216,1.238-0.2,2.367-0.591,3.521c-2.68,7.981-0.59,13.107,6.825,17.062C98.792,200.042,101.002,200.067,101.754,202.203z"/>
		<path fill="#050000" d="M107.711,66.289c3.621-0.294,7.181-0.148,10.378,1.894c1.713,1.318,1.954,3.54,3.131,5.18
			c1.66,1.84,0.899,4.008,0.846,6.089c-1.062,5.762-3.923,10.472-8.349,14.287c-3.741,2.449-7.597,4.511-12.319,3.6
			c-2.935-1.445-7.021-1.66-6.738-6.424c-0.188-2.008-0.376-4.015-0.577-6.009C95.574,76.48,99.807,70.051,107.711,66.289z"/>
		<path fill="#B13426" d="M89.656,177.839c-0.921,1.346-0.772,3.849-2.822,3.908c-2.447,0.074-2.455-2.535-3.15-4.156
			c-5.303-12.258-8.473-24.938-7.799-38.41c1.911-8.871,3.651-17.799,6.932-26.304c2.475,1.138,1.803,3.439,1.843,5.366
			c0.085,4.991-0.249,9.977-0.899,14.922c-1.789,13.472,0.419,26.352,5.352,38.905C89.837,173.87,91.302,175.75,89.656,177.839z"/>
		<path fill="#AE2A20" d="M89.656,177.839c-3.836-10.639-7.746-21.334-7.758-32.776c0-8.544,0.933-17.083,1.485-25.614
			c0.131-2.222,0.349-4.43-0.558-6.572c2.701-6.251,5.374-12.527,8.155-18.75c0.699-1.579,0.888-3.941,3.681-3.212
			c1.667,3.084,4.749,4.236,7.686,5.602c-5.617,1.465-6.718,6.511-8.915,10.82c-9.911,19.466-10.75,39.461-4.057,60.043
			c0.914,2.816,2.103,5.426,3.527,7.976c0.155,1.789-0.879,2.51-2.446,2.771C90.187,178.021,89.924,177.919,89.656,177.839z"/>
		<path fill="#9D271E" d="M225.896,210.614c-2.605,4.496-7.019,6.972-11.062,9.85c-8.989-3.82-16.814-9.366-23.438-16.433
			c-3.426-3.661-7.417-6.011-11.944-7.858c-3.675-1.505-6.051-1.418-5.784,3.44c0.041,0.757-0.429,1.265-1.2,1.418
			c-0.047-4.155-0.102-8.325-0.162-12.479c0.74-1.225,0.809-2.596,0.779-3.941c-0.167-6.457,1.55-7.975,7.987-7.032
			c0.84,0.128,1.666,0.328,2.472,0.655c2.863,2.262,5.08,5.152,6.758,8.317c3.092,5.804,7.271,10.749,11.406,15.806
			c4.91,6.003,10.708,8.906,18.514,7.287c1.504-0.303,3.062-0.562,4.606-0.115C225.313,209.758,225.676,210.118,225.896,210.614z"/>
		<path fill="#AA2F23" d="M183.21,178.675c-0.821,0.51-1.628,0.234-2.485,0.114c-6.006-0.844-6.973,0.008-6.973,5.841
			c0.013,1.473,0.672,3.213-1.451,3.922c-0.23-2.329-0.457-4.633-0.698-6.953c-0.429-4.477-1.935-8.993,0.497-13.363
			c1.977-3.954,6.146-5.58,9.121-8.465c1.465-0.119,2.901-0.04,4.219,0.703c2.345,2.027,2.888,4.65,2.533,7.574
			C186.365,171.589,187.28,176.239,183.21,178.675z"/>
		<path fill="#673C34" d="M172.099,168.235c-0.473,4.444,0.927,8.963-0.497,13.363c-0.605-0.267-1.209-0.541-1.813-0.81
			c-0.282-1.979-0.55-3.954-0.832-5.935c-2.003-4.863-0.336-9.99-1.102-14.963c-0.014-1.584-0.054-3.199,1.032-4.537
			c0.981-0.742,1.896-1.05,2.635,0.309C171.723,159.859,171.916,164.047,172.099,168.235z"/>
		<path fill="#807A79" d="M166.602,47.513c-5.89,0.548-11.66,0.026-17.31-1.8c-0.961-1.277-2.371-1.907-3.621-2.791
			c-3.311-2.356-3.473-8.358,0-10.132c8-4.068,16.042-5.566,24.383,1.432c5.898,4.952,5.252,9.1-1.692,12.246
			C167.745,46.736,167.181,47.166,166.602,47.513z"/>
		<path fill="#C00013" d="M216.85,74.855c1.113,5.426,3.061,10.438,7.274,14.333c4.4,4.056,9.378,6.103,15.43,4.537
			c2.021,0.173,2.956,1.667,3.667,3.239c9.303,20.489,13.623,41.676,8.53,64.064c-0.913,4.023-2.512,7.831-4.863,11.271
			c-0.665,0.614-1.424,1.088-2.312,1.002c-7.951-0.797-12.532,3.662-15.899,10.037c-0.422,0.75-0.792,1.513-1.001,2.361
			c-0.282,1.125-0.335,2.57-1.854,2.75c-1.559,0.188-2.675-0.805-3.252-2.102c-2.055-4.763-6.181-7.782-9.82-11.055
			c-3.554-3.185-5.724-6.696-6.2-11.349c-2.546-4.718-2.787-10.019-3.589-15.148c-0.517-3.348,1.587-2.563,3.461-1.987
			c1.544-1.111,3.324-0.637,5.017-0.682c5.469-0.141,9.305-2.758,11.145-7.617c2.001-5.246,0.551-10.834-4.313-14.842
			c-3.788-3.125-8.175-3.247-12.668-1.453c-1.316,0.516-2.246,2.409-4.086,1.232c-2.612-3.753-3.231-8.311-3.305-12.472
			c-0.201-11.163-0.839-22.619,6.852-32.18C209.003,77.477,212.934,76.154,216.85,74.855z"/>
		<path fill="#B31516" d="M206.559,163.934c3.357,10.278,14.677,14.233,18.432,24.095c2.545-1.283-0.081-4.268,2.619-4.869
			c2.324,4.471,1.747,9.662,3.573,14.266c-0.824,3.594-3.573,5.219-6.663,6.524c-5.325,0.582-9.982-1.64-13.756-4.746
			c-5.227-4.321-10.291-9.052-13.221-15.456c-1.369-3.013-3.654-5.354-5.683-7.883c-2.165-2.677-4.246-5.393-4.677-8.974
			c-0.57-2.141-1.153-4.276-1.738-6.417c0.282-0.629,0.564-1.271,0.839-1.893c4.985-0.589,9.188,0.494,11.944,5.152
			c1.396,2.36,3.103,3.219,5.063,0.348C204.207,162.729,205.45,163.573,206.559,163.934z"/>
		<path fill="#040000" d="M201.527,123.449c6.159-4.368,12.883-4.765,17.651-1.043c5.047,3.948,6.993,11.858,4.339,17.704
			c-2.794,6.117-8.188,8.232-17.082,6.694C197.086,139.255,195.763,132.931,201.527,123.449z"/>
		<path fill="#C76B51" d="M164.185,92.828c0.579,0.162,1.149,0.328,1.728,0.489c4.426,0.275,3.889,3.74,3.916,6.471
			c0.082,11.457,0.389,22.9,0.268,34.348c-0.027,3.555,0.888,7.188-0.43,10.695c-2.995,4.609-5.757,9.408-10.223,12.848
			c-1.437,0.949-2.746,2.074-4.232,2.973c-10.009,6.088-19.387,4.449-26.318-4.979c-2.312-3.144-5.011-5.602-8.249-7.608
			c-0.53-0.716-0.846-1.451-0.135-2.242c2.956-0.648,5.36,1.279,8.087,1.699c0.793,0.254,1.5,0.643,2.096,1.237
			c0.941,1.219,1.599,2.638,2.621,3.828c4.877,5.636,10.962,6.31,16.921,1.773c6.22-4.75,9.586-11.362,11.058-18.737
			c2.519-12.848,0.745-25.682-1.202-38.456c-0.403-2.622-2.606-3.473-4.393-4.737c-0.699-0.836-1.813-1.627-0.41-2.771
			C159.052,88.525,160.806,92.91,164.185,92.828z"/>
		<path fill="#C14E38" d="M173.637,93.244c3.338,3.793,2.861,8.652,3.283,13.101c1.155,12.447,2.727,24.908,1.13,37.487
			c-0.565,4.517-2.727,7.902-5.872,10.899c-2.109-1.853-1.686-4.422-1.706-6.738c-0.199-15.967-0.134-31.932-0.832-47.884
			c-0.107-2.342-0.39-4.872,1.72-6.712C172.112,93.344,172.871,93.297,173.637,93.244z"/>
		<path fill="#CA563D" d="M143.375,74.734c0.483,0.958,0.979,1.927,1.464,2.891c-0.167,0.215-0.343,0.428-0.523,0.636
			c-9.599,2.924-12.952,11.021-16.007,19.305c-2.908,7.896-4.824,16.007-4.924,24.465c-0.067,0.562-0.242,1.09-0.538,1.593
			c-3.049,2.556-3.285,7.252-7.005,9.313c-2.332-2.195-1.76-5.138-1.645-7.737c0.552-13.381,3.876-26.183,8.994-38.528
			c1.324-3.211,3.414-5.981,6.02-8.311C133.662,76.167,137.934,73.102,143.375,74.734z"/>
		<path fill="#7F5549" d="M171.359,93.404c-1.391,9.696,0.254,19.378,0.134,29.083c-0.146,10.739,0.43,21.506,0.692,32.252
			c-0.222,0.303-0.422,0.623-0.65,0.937c-0.739-0.368-1.451-0.415-2.149,0.121c-3.251-3.653-1.062-7.636-0.686-11.495
			c-0.094-15.693-0.181-31.384-0.222-47.083c-0.006-1.926-0.664-3.279-2.565-3.888C167.731,93.344,169.545,93.371,171.359,93.404z"
			/>
		<path fill="#494140" d="M164.185,92.828c-3.458,0.455-6.059-1.94-9.148-2.676c-4.098-0.549-6.435-3.494-8.833-6.371
			c-0.786-2.108-3.03-3.78-1.969-6.438c0.208,0.087,0.41,0.175,0.605,0.281c1.491,1.339,3.238,1.445,5.2,1.506
			c6.952,0.227,10.741,3.452,11.688,10.305C162.009,91.369,162.882,92.052,164.185,92.828z"/>
		<path fill="#BA3C2B" d="M143.375,74.734c-4.488,0.301-8.445,2.583-12.749,3.514c-3.01,1.893-6.214,0.268-9.311,0.569
			c-0.027-1.833-0.06-3.626-0.087-5.453c7.154-0.756,14.315-1.519,21.462-2.288C142.918,72.299,143.146,73.516,143.375,74.734z"/>
		<path fill="#B92E22" d="M246.043,172.063c8.72-17.779,7.899-36.142,3.17-54.677c-2.131-8.299-4.769-16.448-9.659-23.662
			c1.189-1.017,2.379-2.041,3.561-3.052c1.591,0.495,2.282,1.78,3.171,3.117c5.406,8.371,7.469,18.182,11.834,27.001
			c4.997,16.654,3.157,33.07-1.947,49.305c-1.639,5.186-3.21,5.768-8.45,3.922C246.962,173.536,246.312,172.969,246.043,172.063z"/>
		<path fill="#AD523C" d="M266.202,149.078c1.861,10.546,1.873,21.091-1.311,31.331c-2.312,7.42-7.557,13.229-12.636,19.005
			c-2.633,1.771-5.031,2.199-6.776-1.167c0.142-0.896,0.578-1.645,1.297-2.139c4.75-3.241,6.307-7.949,6.274-13.397
			c0-1.378,0.042-2.757,0.773-4.001c4.151-7.983,6.5-16.624,9.457-25.041C263.912,151.917,264.14,149.935,266.202,149.078z"/>
		<path fill="#B24431" d="M266.202,149.078c-2.862,8.934-5.233,18.04-9.304,26.539c-0.751,1.62-0.899,3.82-3.299,4.19
			c-2.329-2.003-5.346-3.436-5.851-6.968c5.308,1.806,6.106,1.004,7.833-4.898c4.375-15.077,5.104-30.266,2.244-45.663
			c-0.094-0.463,0.188-0.997,0.283-1.492c3.628,4.202,4.515,9.797,7.309,14.42C266.242,139.805,266.824,144.409,266.202,149.078z"/>
		<path fill="#AB3F2E" d="M245.746,198.911c2.149,0.261,4.232,1.612,6.502,0.503c-3.587,5.753-8.987,9.448-14.637,12.854
			c-2.862-0.008-5.704-0.029-6.256-3.822c-0.228-0.467-0.455-1.137-0.146-1.473c2.538-2.863,2.741-6.028,1.412-9.447
			C237.001,197.906,241.408,198.168,245.746,198.911z"/>
		<path fill="#AF281F" d="M232.607,197.766c7.048,4.422,0.047,7.222-1.249,10.688c-1.82,0.716-3.653,1.438-5.47,2.161
			c-0.313-0.148-0.63-0.287-0.959-0.435c-1.001-2.263-2.277-4.489-0.385-6.919c2.123-2.107,5.119-3.373,6.188-6.464
			C231.607,196.661,232.244,196.957,232.607,197.766z"/>
		<path fill="#A9392A" d="M168.725,159.999c0.988,4.938,0.586,9.903,0.23,14.86c-4.455,1.273-6.429,5.273-9.244,8.359
			c-5.132-0.222-9.928,3.484-15.248,1.324c-0.544,0.093-0.954-0.121-1.202-0.616c-0.04-0.502,0.047-0.997,0.255-1.478
			c3.607-3.759,7.838-6.879,11.285-10.819C159.739,168.075,162.539,162.026,168.725,159.999z"/>
		<path fill="#040000" d="M90.442,178.128c0.846-0.711,1.693-1.428,2.552-2.136c5.012-4.551,12.669-4.05,17.902,1.512
			c3.245,3.433,5.71,7.395,5.125,12.487c-1.235,4.844-2.068,9.975-8.31,11.092c-2.062-0.047-3.794,1.701-5.958,1.112
			c-4.689-1.359-9.197-3.019-11.957-7.474C86.284,189.039,87.385,183.547,90.442,178.128z"/>
		<path fill="#B0201A" d="M107.711,201.099c4.157-2.617,6.308-6.56,7.33-11.223c1.357,0.046,1.424,1.473,2.256,2.082
			c7.819,0.201,14.497-3.459,21.416-6.275c1.56-0.648,2.855-2.022,4.757-1.553c0.342,0.14,0.658,0.281,0.994,0.414
			c-1.934,9.569-4.924,18.639-15.061,22.625c-6.711,2.644-13.462,1.646-19.776-1.766
			C108.101,204.578,107.047,203.105,107.711,201.099z"/>
		<path fill="#C01F1A" d="M116.075,192.581c-0.336-0.891-0.685-1.795-1.021-2.697c-0.617-5.271-2.525-9.936-7.005-13.107
			c-4.789-3.365-9.868-3.729-15.054-0.776c-5.992-3.233-5.354-9.784-6.797-14.89c-6.262-22.109-0.712-42.678,9.484-62.485
			c1.793-3.466,4.526-1.211,6.664-2.107c3.916,0.153,7.181-1.674,10.479-3.427c1.289,1.714,0.779,3.58,0.396,5.414
			c-3.171,15.23-5.299,30.621-6.979,46.079c-1.095,9.039,1.653,17.238,5.777,25.074c2.31,4.402,4.984,8.619,6.703,13.316
			c0.834,2.281,1.331,4.631,1.048,7.061C119.507,192.165,118.588,193.578,116.075,192.581z"/>
		<path fill="#C53B2A" d="M105.045,145.016c1.006-15.817,3.801-31.396,6.812-46.926c0.322-1.66,0.631-3.327,0.967-4.992
			c4.158-3.975,6.959-8.74,8.476-14.273c2.929-3.246,6.235,0.234,9.311-0.57c-11.406,14.937-14.488,32.267-14.684,50.449
			c-0.014,1.339-0.121,2.677-0.174,4.009c1.29,1.338,1.007,2.924,0.738,4.51c-3.077,12.227,2.041,21.567,10.485,29.758
			c1.58,1.525,3.676,2.583,4.521,4.805c0.483,2.449,0.859,4.877-1.29,6.846c-3.534,0.461-6.449-1.246-9.062-3.104
			C110.715,168.069,104.858,158.083,105.045,145.016z"/>
		<path fill="#A71C18" d="M224.562,203.261c-0.336,2.32,1.202,4.563,0.373,6.918c-10.819,3.238-18.908,0.086-26.056-8.894
			c-5.775-7.234-9.652-15.657-15.672-22.612c1.331-3.934,2.66-7.86,3.977-11.783c3.62,6.818,9.029,12.412,13.12,18.978
			C205.725,194.547,213.048,202.27,224.562,203.261z"/>
		<path fill="#B7523B" d="M168.725,159.999c-4.541,4.001-8.355,8.801-13.333,12.34c-3.151,1.752-6.295,2.356-9.438,0
			c-1.217-1.607-0.679-3.166,0.141-4.719c3.514-4.375,9.103-6.37,12.63-10.748c4.123-3.564,6.67-8.369,9.974-12.572
			c0.216,3.833,0.458,7.661,0.693,11.497C169.169,157.195,168.955,158.601,168.725,159.999z"/>
		<path fill="#948F8E" d="M149.77,43.652c-2.875-0.468-4.548-2.537-4.46-5.635c0.094-3.259,3.022-4.531,5.367-5.688
			c5.932-2.951,15.013-0.81,19.353,4.182c3.634,4.163,2.862,7.495-2.659,8.432C161.66,45.926,155.674,46.656,149.77,43.652z"/>
		<path fill="#090000" d="M232.607,197.766c-0.617-0.32-1.235-0.648-1.861-0.977c-3.21-4.055-3.252-8.817-3.137-13.638
			c4.943-9.542,9.015-11.984,18.433-11.088c0.563,0.261,1.143,0.518,1.704,0.776c2.285,2.055,4.703,3.995,5.873,6.968
			c2.537,8.482-1.498,14.273-7.859,19.104C241.192,200.509,236.853,199.767,232.607,197.766z"/>
		<path fill="#D78D71" d="M146.969,82.851c2.679,2.429,5.367,4.865,8.066,7.301c0.47,0.522,0.941,1.031,1.432,1.553
			c4.231,17.078,6.301,34.174-0.424,51.131c-2.216,5.608-6.428,9.362-12.561,10.419c-4.562,0.776-7.335-1.219-8.525-5.809
			c0.396-1.063,1.068-1.939,1.801-2.79c0.752-0.844,1.645-1.406,2.82-1.426c6.308,0.965,10.392-1.324,11.896-7.567
			c2.888-12.072,2.432-24.251-0.242-36.315c-0.59-2.611-1.558-5.701-4.985-5.834c-3.204-0.126-4.735,2.403-5.952,4.992
			c-2.66,5.622-4.985,11.336-5.871,17.545c-0.302,2.207-0.416,4.142,2.137,5.079c0.833,0.972,2.646,1.68,0.859,3.326
			c-3.292,0.367-5.831-1.539-8.572-2.818c-2.619-1.773-2.338-4.435-1.987-6.978c1.342-9.448,4.736-18.242,9.518-26.432
			C139.345,83.152,143.146,81.52,146.969,82.851z"/>
		<path fill="#CF7D61" d="M135.797,147.138c1.753,4.725,4.191,6.029,8.908,4.609c8.269-2.508,11.151-9.388,12.682-16.721
			c2.621-12.394,1.571-24.86-0.612-37.247c-0.35-2.021-0.975-4.001-0.309-6.076c4.285,0.79,4.775,3.802,5.286,7.562
			c1.634,12.105,3.265,24.211,0.888,36.355c-1.618,8.298-5.468,15.457-12.534,20.597c-7.551,5.48-17.982,1.707-19.703-7.174
			C131.572,146.669,133.219,145.618,135.797,147.138z"/>
		<path fill="#C64E38" d="M147.23,167.681c-0.429,1.378-1.653,2.616-0.685,4.209c-3.534,3.453-9.633,3.434-15.819-0.054
			c-4.951-4.19-9.782-8.37-12.824-14.367c-3.385-6.638-4.943-13.308-2.539-20.555c2.706,2.503,4.03,5.754,5.038,9.181
			c0.201,0.429,0.416,0.877,0.618,1.299c2.042,3.15,3.062,6.879,5.415,9.856c4.205,5.354,9.538,8.714,16.491,9.195
			C144.43,166.562,146.061,166.336,147.23,167.681z"/>
		<path fill="#39312E" d="M120.408,146.101c-2.706-2.51-3.97-5.796-5.031-9.182c0.127-1.406,0.254-2.81,0.389-4.216
			c1.922-3.372,2.432-7.781,6.825-9.362c2.243-1.15,3.99-0.402,4.043,1.98c0.147,7.18,1.074,14.205,3.037,21.125
			c0.242,0.844-0.37,1.627-1.197,2.062C125.386,149.019,122.994,147.224,120.408,146.101z"/>
		<path fill="#C96247" d="M147.23,167.681c-13.583,2.176-25.821-10.131-26.211-20.282c3.412,1.278,6.019,3.038,8.148,6.458
			c6.334,10.178,16.611,11.799,26.54,4.904c0.975-0.675,1.988-1.27,3.009-1.894C156.299,161.953,151.321,164.367,147.23,167.681z"/>
		<path fill="#524B49" d="M128.475,148.509c-0.014-5.908-3.426-11.262-2.82-17.298c0.147-1.499-0.35-3.104-0.028-4.55
			c0.672-2.824-1.048-3.105-3.036-3.312c0.174-0.268,0.33-0.549,0.47-0.844c0.819-1.732,2.324-1.893,3.977-1.747
			c4.702,0.528,6.765,2.852,6.442,7.851c-0.242,3.768,1.068,7.494,2.916,10.881c1.001,1.865,1.915,3.698,0.887,5.848
			c-0.067,0.951-0.585,1.539-1.478,1.814c-2.062-0.047-3.681,1.063-5.401,1.906C129.752,148.862,129.106,148.685,128.475,148.509z"
			/>
		<path fill="#D16F53" d="M126.635,121.683c-1.182,0.274-2.392,0.535-3.587,0.816c-2.472-2.871-0.651-5.835-0.309-8.812
			c1.062-9.564,4.756-18.222,8.679-26.841c2.526-5.541,7.315-7.97,12.817-9.502c0.9,1.833,1.813,3.654,2.728,5.507
			c-4.635-0.783-7.448,2.737-9.042,5.561c-5.011,8.892-9.136,18.268-9.82,28.721c-0.094,1.413-0.295,2.75,1.263,3.532
			C129.006,122.406,127.387,120.934,126.635,121.683z"/>
		<path fill="#BB291F" d="M105.045,145.016c1.155,11.442,5.966,20.864,15.053,28.18c3.078,2.456,6.725,3.433,10.05,5.153
			c5.313-0.457,9.484,2.314,13.75,4.797c-0.134,0.328-0.281,0.662-0.43,0.99c-7.067,5.025-15.383,7.106-23.538,9.47
			c-1.195,0.355-3.129,1.257-3.863-1.024c2.869-0.015,2.721-1.961,2.587-3.948c-0.403-6.625-4.104-11.933-7.308-17.339
			c-4.193-7.099-5.764-14.875-6.972-22.812C104.226,147.379,104.81,146.175,105.045,145.016z"/>
		<path fill="#BB3F2D" d="M143.905,183.144c-5.165,0.055-9.116-3.284-13.75-4.797c0.182-2.176,0.39-4.328,0.579-6.506
			c5.267,0.147,10.519,2.999,15.812,0.054c2.888,1.438,5.89,0.341,8.847,0.435C152.256,176.66,148.164,179.993,143.905,183.144z"/>
		<path fill="#A6A2A1" d="M152.779,42.734c-2.27-0.756-4.178-1.994-4.232-4.604c-0.074-2.811,2.579-2.837,4.326-3.654
			c5.045-2.329,9.74-1.445,13.844,2.041c2.787,2.349,2.17,5.728-1.364,6.711C161.202,44.408,156.902,44.395,152.779,42.734z"/>
		<path fill="#DA967A" d="M135.449,121.944c-2.041-0.676-3.091-1.741-2.76-4.184c1.041-7.789,3.916-14.942,7.356-21.882
			c1.289-2.623,3.64-4.263,6.703-4.055c2.741,0.2,4.212,2.208,4.931,4.63c3.977,13.491,4.266,27.167,0.746,40.678
			c-1.86,7.146-7.276,9.349-13.24,6.711c-0.236-3.104,0.537-5.949,2.258-8.531c4.244,0.435,6.019-1.778,6.703-5.734
			c1.344-7.735,1.438-15.417-0.276-23.081c-0.336-1.505-0.639-3.272-2.465-3.592c-2.149-0.416-3.003,1.358-3.735,2.917
			c-1.625,3.413-3.104,6.894-3.87,10.654C137.409,118.391,137.543,120.679,135.449,121.944z"/>
		<path fill="#DEA186" d="M135.449,121.944c0.705-6.164,2.647-11.952,5.293-17.552c0.967-2.035,2.149-3.707,4.479-3.613
			c2.466,0.106,3.191,2.113,3.715,4.235c2.189,8.967,1.907,17.955,0.141,26.927c-0.37,1.86-1.438,3.418-2.969,4.691
			c-2.358,1.973-3.217,0.602-3.862-1.521c-1.606-3.6-3.48-7.112-4.447-10.979C137.638,122.733,136.388,122.499,135.449,121.944z"/>
		<path fill="#6B6260" d="M137.799,124.133c2.553,3.237,4.58,6.672,4.447,10.979c-0.968,2.938-1.271,6.096-3.064,8.727
			c-0.645,0.501-1.289,0.982-1.908,1.485c-1.571-5.694-5.63-10.687-5.179-16.91c0.289-4.184-0.679-6.853-5.461-6.733
			c0.907-0.341,1.827-0.682,2.728-1.017C132.178,121.815,134.984,122.969,137.799,124.133z"/>
	</g>
</g>
</svg>
